<?xml version="1.0" standalone="no"?>
<!DOCTYPE svg PUBLIC "-//W3C//DTD SVG 1.1//EN" "http://www.w3.org/Graphics/SVG/1.1/DTD/svg11.dtd" >
<svg>
<metadata>
Created by FontForge 20090914 at Mon Aug  1 12:27:15 2016
 By www-data
&#194;&#169; 1990-99 Apple Computer Inc. &#194;&#169; 1981 Linotype AG  &#194;&#169; 1990-91 Type Solutions Inc. &#194;&#169; 1990-91 The Font Bureau Inc.
</metadata>
<defs>
<font id="Times-Italic" horiz-adv-x="1024" >
  <font-face 
    font-family="Times"
    font-weight="400"
    font-style="italic"
    font-stretch="normal"
    units-per-em="2048"
    panose-1="2 0 5 3 0 0 0 0 0 0"
    ascent="1638"
    descent="-410"
    x-height="877"
    cap-height="1352"
    bbox="-596.487 -840.004 3401 2468"
    underline-thickness="101"
    underline-position="-105"
    slope="-15"
    unicode-range="U+0008-U+FB02"
  />
<missing-glyph horiz-adv-x="1251" 
d="M-19 0v1336h1590v-1336h-1590zM1387 184v968h-1222v-968h1222z" />
    <glyph glyph-name="fi" unicode="fi" 
d="M121 -269.5c-66 -105 -149 -157.501 -249 -157.501c-46.667 0 -86 11.333 -118 34s-48 52.334 -48 89.001c0 19.333 5.66699 38.333 17 57s31.666 28 60.999 28c24 0 43.167 -7.5 57.5 -22.5s21.5 -32.5 21.5 -52.5c0 -12 -6 -32.667 -18 -62
c0 -8.66699 4 -15.167 12 -19.5s18 -6.5 30 -6.5c56.667 0 105 46.333 145 139c20.667 49.333 39 112.666 55 189.999l154 757l24 101h-173l14 67h178c42 146 87.667 255.333 137 328c88 129.333 205.667 194 353 194c76 0 130.333 -15.833 163 -47.5s49 -63.167 49 -94.5
c0 -26.667 -8.5 -47.667 -25.5 -63s-38.167 -23 -63.5 -23c-21.333 0 -40.333 6.5 -57 19.5s-25 32.167 -25 57.5c0 8.66699 1 17.5 3 26.5s5.66699 17.167 11 24.5l10 14l2 7c0 8 -4.66699 15.667 -14 23c-9.33301 6.66699 -25 10 -47 10
c-85.333 0 -152.833 -36.167 -202.5 -108.5s-94.5 -194.833 -134.5 -367.5h306c48.667 0 96.334 3.16699 143.001 9.5s66.667 9.5 60 9.5l10 -7c0 -4.66699 -0.166992 -8.66699 -0.5 -12s-0.833008 -6.66602 -1.5 -9.99902l-200 -742c-2 -8.66699 -3 -14.667 -3 -18
c0 -8.66699 2 -15.334 6 -20.001s9.66699 -7 17 -7c14.667 0 32.167 8.83301 52.5 26.5s56.5 56.5 108.5 116.5l30 -19c-26 -46 -66 -93.833 -120 -143.5s-103 -74.5 -147 -74.5c-41.333 0 -70.333 16 -87 48c-9.33301 18 -14 38.333 -14 61c0 22 5.66699 57.333 17 106
s23.333 95.334 36 140.001l121 436l3 16c0 8 -2.16699 12.833 -6.5 14.5s-13.5 2.5 -27.5 2.5h-322l-142 -649c-41.333 -178.667 -95 -320.5 -161 -425.5z" />
    <glyph glyph-name="fl" unicode="fl" 
d="M-270 -232c16 15.333 33.6689 23.0029 53.002 23.0029c17.333 0 35.166 -4.33301 53.499 -13s27.5 -28.334 27.5 -59.001c0 -13.333 -6.33301 -36 -19 -68c0 -6.66699 2.66699 -12.667 8 -18c4.66699 -5.33301 15.667 -8 33 -8c54.667 0 98.334 37.667 131.001 113
s67 195 103 359c17.333 76.667 40.333 188 69 334c30 155.333 49 251 57 287l19 87h-183l15 67h187c0 10.667 12 50 36 118c36 104 81.667 187 137 249c54 60 108.5 101.167 163.5 123.5s112.167 33.5 171.5 33.5c24.667 0 57.5 -3.66699 98.5 -11s67.167 -11 78.5 -11
c8 0 16.167 0.833008 24.5 2.5s15.833 4.16699 22.5 7.5l19 9l12 3c3.33301 0 6.5 -1.33301 9.5 -4s4.5 -7.33398 4.5 -14.001c0 -3.33301 -0.333008 -7.83301 -1 -13.5s-1.66699 -11.167 -3 -16.5l-297 -1220l-2 -12c-0.666992 -4 -1 -8 -1 -12c0 -11.333 2 -19.333 6 -24
s10.333 -7 19 -7c13.333 0 29.833 8.5 49.5 25.5s56.167 55.833 109.5 116.5l30 -19c-32 -52 -73.333 -101 -124 -147s-99 -69 -145 -69c-42.667 0 -71.334 13.667 -86.001 41c-8 15.333 -12 38.333 -12 69c0 26 5 63.833 15 113.5s20.667 96.167 32 139.5l117 462h-344
l-142 -642c-33.333 -153.333 -82.833 -288.833 -148.5 -406.5s-153.834 -176.5 -264.501 -176.5c-55.333 0 -96.333 13.5 -123 40.5s-40 56.833 -40 89.5c0 23.333 8 42.666 24 57.999zM861.002 1184c-14 25.333 -20.998 45.667 -20.998 61c0 6 0.666992 12.5 2 19.5
s4 13.5 8 19.5l10 14l3 10c0 10.667 -7.33301 20.5 -22 29.5s-36.334 13.5 -65.001 13.5c-94 0 -171.333 -57.333 -232 -172c-34.667 -64.667 -69.334 -167 -104.001 -307h344l74 298c-1.33301 -6.66699 -0.333008 -2 3 14z" />
    <glyph glyph-name=".notdef" horiz-adv-x="1251" 
d="M-19 0v1336h1590v-1336h-1590zM1387 184v968h-1222v-968h1222z" />
    <glyph glyph-name=".null" horiz-adv-x="0" 
 />
    <glyph glyph-name=".null" horiz-adv-x="0" 
 />
    <glyph glyph-name=".null" horiz-adv-x="0" 
 />
    <glyph glyph-name="nonmarkingreturn" unicode="&#x9;" horiz-adv-x="512" 
 />
    <glyph glyph-name="nonmarkingreturn" unicode="&#xd;" horiz-adv-x="512" 
 />
    <glyph glyph-name="nonmarkingreturn" unicode="&#xa;" horiz-adv-x="512" 
 />
    <glyph glyph-name="space" unicode=" " horiz-adv-x="512" 
 />
    <glyph glyph-name="exclam" unicode="!" horiz-adv-x="682" 
d="M110.5 159.5c20.333 21.667 46.168 32.498 77.501 32.498c27.333 0 52.5 -10 75.5 -30s34.5 -45.333 34.5 -76c0 -29.333 -10.833 -55 -32.5 -77s-47.834 -33 -78.501 -33c-27.333 0 -52 9.83301 -74 29.5s-33 47.834 -33 84.501c0 24.667 10.167 47.834 30.5 69.501z
M602.002 1165c-12.667 -36.667 -56.332 -140.998 -130.999 -312.998c-12.667 -29.333 -40.667 -99.5 -84 -210.5l-108 -279.5l-33 7l62 303c33.333 163.333 51.333 253.666 54 270.999l31 185c14 86 32.167 147.167 54.5 183.5s51.166 54.5 86.499 54.5
c26 0 47 -9.83301 63 -29.5s24 -42.834 24 -69.501c0 -31.333 -6.33301 -65.333 -19 -102z" />
    <glyph glyph-name="quotedbl" unicode="&#x22;" horiz-adv-x="860" 
d="M472.5 1238.5c-1 -11 -3.16602 -29.834 -6.49902 -56.501l-47 -410h-45l-52 408c-4 32 -6.33301 52 -7 60s-1 20 -1 36c0 27.333 7.16699 48.5 21.5 63.5s34.166 22.5 59.499 22.5c28.667 0 49 -8.16699 61 -24.5s18 -41.166 18 -74.499
c0 -5.33301 -0.5 -13.5 -1.5 -24.5zM670.001 771.999l-49 397.998c-7.33301 60.667 -11 93.334 -11 98.001c0 24.667 6.16699 46.5 18.5 65.5s33.833 28.5 64.5 28.5c34 0 55.667 -9.5 65 -28.5s14 -42.167 14 -69.5c0 -10 -0.833008 -24.167 -2.5 -42.5
s-3.16699 -32.166 -4.5 -41.499l-47 -408h-48z" />
    <glyph glyph-name="numbersign" unicode="#" 
d="M571 507l92 348h-215l-93 -348h216zM16 507h218l95 351h-218l17 73h218l118 431h123l-118 -431h216l116 431h121l-119 -431h218l-19 -73h-218l-92 -351h218l-22 -76h-215l-116 -431h-124l119 431h-216l-116 -431h-121l116 431h-215z" />
    <glyph glyph-name="dollar" unicode="$" 
d="M118 388l32.999 7.00098l7 -51.5c4 -29.667 8.66699 -59.5 14 -89.5s25.833 -65.667 61.5 -107s86.5 -68.333 152.5 -81l142 607c-8 5.33301 -16.5 11.333 -25.5 18l-51.5 39c-76 57.333 -128.333 112.166 -157 164.499s-43 104.166 -43 155.499
c0 80 36.5 153.333 109.5 220s170.167 100 291.5 100c7.33301 0 14.833 -0.166992 22.5 -0.5s15.834 -1.16602 24.501 -2.49902l33 131h71l-33 -140c53.333 -12.667 98.5 -27.167 135.5 -43.5s73.833 -36.833 110.5 -61.5l-56 -234l-31 5
c-0.666992 61.333 -8.33398 108.666 -23.001 141.999c-26 59.333 -76 102.666 -150 129.999l-116 -486c98.667 -63.333 169.334 -125.666 212.001 -186.999c52 -65.333 78 -141 78 -227c0 -113.333 -40.833 -208.833 -122.5 -286.5s-204.167 -115.167 -367.5 -112.5
l-42 -182h-74l45 189l-26 5c-33.333 6.66699 -64 15.334 -92 26.001c-27.333 10.667 -52.333 21.667 -75 33c-50 24 -87.333 47 -112 69zM739.499 479.501c-25 42.333 -70.167 87.833 -135.5 136.5l-12 9l-140 -573c137.333 4 232 47.667 284 131
c27.333 42.667 41 92 41 148c0 56.667 -12.5 106.167 -37.5 148.5zM686.999 1313c-11.333 0.666992 -20.167 1.16699 -26.5 1.5s-13.166 0.5 -20.499 0.5c-66.667 0 -121.334 -22.5 -164.001 -67.5s-64 -96.833 -64 -155.5c0 -52 23 -103 69 -153
c26 -28.667 58.333 -55 97 -79z" />
    <glyph glyph-name="percent" unicode="%" horiz-adv-x="1706" 
d="M704 1340c14.667 -6 28.6699 -14.998 42.0029 -26.998l38 -33c14.667 -12 34.167 -21.167 58.5 -27.5s55.166 -9.5 92.499 -9.5c76.667 0 147.334 18.667 212.001 56c34.667 19.333 71 47.666 109 84.999h80l-789 -1413h-97l713 1280
c-50 -23.333 -87.333 -38.666 -112 -45.999s-57.334 -11 -98.001 -11c-36 0 -67 2.33301 -93 7c-16.667 2.66699 -33.334 6.66699 -50.001 12c5.33301 -18 9 -32.833 11 -44.5s3 -29.834 3 -54.501c0 -114.667 -40 -230.5 -120 -347.5s-178.667 -175.5 -296 -175.5
c-60 0 -115.833 22.667 -167.5 68s-77.5 114.666 -77.5 207.999c0 124 46.167 236.333 138.5 337s193.166 151 302.499 151c40.667 0 74 -5 100 -15zM1468.5 221.502c64.333 107 96.5 205.167 96.5 294.5c0 56 -13.667 99.667 -41 131s-63 47 -107 47
c-79.333 0 -150 -60.667 -212 -182s-93 -226.333 -93 -315c0 -45.333 13 -79.333 39 -102s57.333 -34 94 -34c84.667 0 159.167 53.5 223.5 160.5zM1089.5 599.002c88.333 107.333 190.5 160.998 306.5 160.998c48 0 90.667 -11.333 128 -34
c64.667 -39.333 97 -106.666 97 -201.999c0 -123.333 -40.5 -242 -121.5 -356s-179.167 -171 -294.5 -171c-66.667 0 -124.667 22.833 -174 68.5s-74 116.834 -74 213.501c0 106 44.167 212.667 132.5 320zM670.503 810c67.667 99.333 101.5 207.666 101.5 324.999
c0 42 -4.5 69 -13.5 81s-24.833 20.667 -47.5 26c-16 4 -34.833 13.833 -56.5 29.5s-34.834 23.5 -39.501 23.5c-66.667 0 -133 -58.333 -199 -175s-99 -222.667 -99 -318c0 -39.333 9.33301 -72.666 28 -99.999s52 -41 100 -41c82.667 0 157.834 49.667 225.501 149z" />
    <glyph glyph-name="ampersand" unicode="&#x26;" horiz-adv-x="1593" 
d="M995 996c42.667 48.667 64 109 64 181c0 34.667 -7 63.5 -21 86.5s-37.667 34.5 -71 34.5c-58.667 0 -98.667 -34.333 -120 -103c-12 -40 -18 -98 -18 -174c0 -16 0.5 -32 1.5 -48s3.83301 -48 8.5 -96c77.333 49.333 129.333 89 156 119zM425.5 137.5
c51.667 -47 112.833 -70.498 183.5 -70.498c58 0 113 12.167 165 36.5s92.667 51.166 122 80.499c-34 45.333 -73 121.333 -117 228s-76.333 204.667 -97 294c-92 -42.667 -161.333 -83.667 -208 -123c-84 -70.667 -126 -151.334 -126 -242.001
c0 -88.667 25.833 -156.5 77.5 -203.5zM667.999 869.002c-1.33301 18 -1.99805 36.999 -1.99805 56.999c0 134.667 34.333 241 103 319s141 117 217 117c68.667 0 121.334 -19 158.001 -57s55 -81.333 55 -130c0 -81.333 -43 -157.333 -129 -228
c-48 -39.333 -122 -84 -222 -134c14 -69.333 39.333 -156.833 76 -262.5s70.667 -180.167 102 -223.5c62.667 77.333 102.667 130.333 120 159c27.333 43.333 41 84 41 122c0 28 -7.5 45.833 -22.5 53.5s-41.5 12.834 -79.5 15.501v38h379v-33
c-52 -8 -88.667 -20.167 -110 -36.5s-51.333 -53.166 -90 -110.499l-113 -163.5l-87 -115.5c30 -56 66.333 -102 109 -138s90.667 -54 144 -54c28 0 55 6.66699 81 20c15.333 8 35 21.667 59 41l24 -24c-36.667 -40.667 -69 -70.334 -97 -89.001
c-50.667 -33.333 -105.334 -50 -164.001 -50c-66.667 0 -128.334 20.667 -185.001 62c-32 24 -65 57.667 -99 101c-90 -59.333 -155.667 -98.333 -197 -117c-67.333 -30.667 -138 -46 -212 -46c-113.333 0 -203.833 29.667 -271.5 89s-101.5 135.333 -101.5 228
c0 60 15.167 116.333 45.5 169s70.5 99 120.5 139c37.333 30 72.166 53.5 104.499 70.5s116.5 56.167 252.5 117.5c-4.66699 44.667 -7.66699 76 -9 94z" />
    <glyph glyph-name="quotesingle" unicode="'" horiz-adv-x="438" 
d="M391 1339.5c10.667 -15 16 -37.833 16 -68.5c0 -5.33301 -0.166992 -10.5 -0.5 -15.5s-1.83301 -19.167 -4.5 -42.5l-49 -441h-36l-52 408c-2.66699 18.667 -4.66699 35.667 -6 51s-2 31.333 -2 48c0 32 8 53.833 24 65.5s32.667 17.5 50 17.5
c29.333 0 49.333 -7.5 60 -22.5z" />
    <glyph glyph-name="parenleft" unicode="(" horiz-adv-x="682" 
d="M644 1339c-63.333 -66.667 -113.67 -128.332 -151.003 -184.999c-67.333 -100 -122 -216.667 -164 -350c-37.333 -118.667 -63.666 -231.834 -78.999 -339.501s-23 -197.167 -23 -268.5c0 -112 6.16699 -203.833 18.5 -275.5s38.5 -165.5 78.5 -281.5l-35 -12
c-71.333 121.333 -123.166 243.833 -155.499 367.5s-48.5 246.834 -48.5 369.501c0 162.667 27 306.667 81 432c80.667 187.333 231.334 378.666 452.001 573.999z" />
    <glyph glyph-name="parenright" unicode=")" horiz-adv-x="682" 
d="M33 -337c69.333 74.667 122.333 139.331 159 193.998c62.667 96 114.334 209.667 155.001 341c35.333 112 61.333 221 78 327s25 207.333 25 304c0 118 -9.83301 222 -29.5 312s-43.167 163.667 -70.5 221l38 12c63.333 -102.667 113.166 -218.167 149.499 -346.5
s54.5 -258.166 54.5 -389.499c0 -148.667 -22.333 -280.667 -67 -396c-80.667 -209.333 -236 -412.666 -466 -609.999z" />
    <glyph glyph-name="asterisk" unicode="*" 
d="M274 856c106.667 24 185.997 53.002 237.997 87.002c-50.667 30.667 -130.667 60 -240 88c-66 16.667 -99 46 -99 88c0 21.333 6.66699 38.333 20 51s30 19 50 19c28 0 65.167 -26.833 111.5 -80.5s103.5 -98.5 171.5 -134.5v26c0 54 -8.83301 109 -26.5 165
s-26.5 95 -26.5 117c0 29.333 7.83301 50 23.5 62s32.5 18 50.5 18c20.667 0 37.667 -7.16699 51 -21.5s20 -33.833 20 -58.5c0 -13.333 -9.66699 -51.333 -29 -114s-27.666 -129 -24.999 -199c65.333 41.333 121 88.833 167 142.5s83 80.5 111 80.5
c19.333 0 36.333 -6.5 51 -19.5s22 -30.5 22 -52.5c0 -44.667 -29.667 -73 -89 -85c-100 -20 -182 -51.333 -246 -94l17 -10c52 -30.667 129.333 -56.667 232 -78c58.667 -12.667 88 -42.334 88 -89.001c0 -25.333 -9.16699 -43.333 -27.5 -54s-35.166 -16 -50.499 -16
c-28 0 -65.5 28.667 -112.5 86s-96.5 99 -148.5 125l-14 7v-14c0 -80 9.5 -146.333 28.5 -199s28.5 -84.334 28.5 -95.001c0 -21.333 -7.5 -40.5 -22.5 -57.5s-34.5 -25.5 -58.5 -25.5c-22 0 -39.333 8 -52 24s-19 35 -19 57c0 5.33301 11.333 47.5 34 126.5
s30.334 135.5 23.001 169.5l-3 14c-66.667 -42 -127 -93.667 -181 -155c-35.333 -40 -68 -60 -98 -60c-24 0 -41.833 7 -53.5 21s-17.5 29 -17.5 45c0 47.333 33.667 78.333 101 93z" />
    <glyph glyph-name="plus" unicode="+" horiz-adv-x="1382" 
d="M177 452v121h453v453h121v-453h453v-121h-453v-452h-121v452h-453z" />
    <glyph glyph-name="comma" unicode="," horiz-adv-x="512" 
d="M210 176.5c17.333 19.667 43.334 29.4971 78.001 29.4971c35.333 0 64 -13.667 86 -41s33 -62 33 -104c0 -67.333 -25.833 -128.666 -77.5 -183.999s-103.834 -97.333 -156.501 -126l-31 -17l-19 33c41.333 29.333 73 54.333 95 75c39.333 38.667 59 73.334 59 104.001
c0 8.66699 -1.66699 17 -5 25s-8 15 -14 21l-19 19c-24.667 24.667 -40 43.5 -46 56.5s-9 32.167 -9 57.5c0 14.667 8.66699 31.834 26 51.501z" />
    <glyph glyph-name="hyphen" unicode="-" horiz-adv-x="682" 
d="M128 521h450l-29 -128h-450z" />
    <glyph glyph-name="period" unicode="." horiz-adv-x="512" 
d="M253 9.5c-22 22.333 -32.998 49.166 -32.998 80.499s11.167 58 33.5 80s49.166 33 80.499 33s58.166 -11 80.499 -33s33.5 -48.667 33.5 -80s-11 -58.166 -33 -80.499s-49 -33.5 -81 -33.5s-59 11.167 -81 33.5z" />
    <glyph glyph-name="slash" unicode="/" horiz-adv-x="569" 
d="M502 1346h100l-517 -1380h-100z" />
    <glyph glyph-name="zero" unicode="0" 
d="M734 420c80.667 216.667 121.002 424 121.002 622c0 68.667 -7.33301 124 -22 166c-26.667 80 -77 120 -151 120c-136.667 0 -252.334 -147.333 -347.001 -442c-72 -225.333 -108 -413 -108 -563c0 -63.333 7.33301 -116.333 22 -159c28 -82.667 79.333 -124 154 -124
c127.333 0 237.666 126.667 330.999 380zM962.002 1195c36.667 -83.333 55 -180.334 55 -291.001c0 -244 -64.333 -458.667 -193 -644c-126.667 -181.333 -269.667 -272 -429 -272c-92.667 0 -171 39.5 -235 118.5s-96 188.167 -96 327.5c0 232.667 63 448.334 189 647.001
c129.333 203.333 273.333 305 432 305c128 0 220.333 -63.667 277 -191z" />
    <glyph glyph-name="one" unicode="1" 
d="M99 34l67.9971 0.998047c44.667 5.33301 80.334 15.166 107.001 29.499s45 39.166 55 74.499l282 1008c4.66699 16.667 8.16699 30.834 10.5 42.501s3.5 22.167 3.5 31.5c0 23.333 -7.66699 39 -23 47s-39.666 12 -72.999 12l-98 -5v31l26 4
c18.667 3.33301 68.167 13 148.5 29s137.5 27.667 171.5 35l31 7l19 3l12 -7c0 -4 -0.166992 -8 -0.5 -12s-1.16602 -8 -2.49902 -12l-336 -1225c-1.33301 -5.33301 -2.5 -10.666 -3.5 -15.999s-1.5 -10.666 -1.5 -15.999c0 -27.333 12 -44.666 36 -51.999
s70.333 -12 139 -14v-30h-571v34z" />
    <glyph glyph-name="two" unicode="2" 
d="M23 35l431.999 457.998c74 78 133 148 177 210c78 109.333 117 202 117 278c0 70.667 -22.833 130.667 -68.5 180s-108.167 74 -187.5 74c-74.667 0 -140 -25 -196 -75c-30 -27.333 -60.333 -66.666 -91 -117.999l-43 15c51.333 138.667 132 234.667 242 288
c57.333 27.333 118.333 41 183 41c104.667 0 187.167 -35.667 247.5 -107s90.5 -150.666 90.5 -237.999c0 -76 -23.167 -147.667 -69.5 -215s-124.833 -156.333 -235.5 -267l-394 -394v-9h389c56.667 0 98.834 9 126.501 27s53.5 51.667 77.5 101l33 -14l-102 -270h-728v35z
" />
    <glyph glyph-name="three" unicode="3" 
d="M168 175.5c15.333 -5.66699 31.0049 -13.8369 47.0049 -24.5039l48 -33c25.333 -17.333 45.666 -29.666 60.999 -36.999c27.333 -12.667 53.666 -19 78.999 -19c67.333 0 127.666 31.167 180.999 93.5s80 142.833 80 241.5c0 112 -29.667 197 -89 255s-143 87 -251 87
c-5.33301 0 -9.83301 -0.166992 -13.5 -0.5s-11.834 -0.833008 -24.501 -1.5l-2 33c179.333 24.667 306.166 69.834 380.499 135.501s111.5 131.834 111.5 198.501c0 45.333 -13.333 87.833 -40 127.5s-75 59.5 -145 59.5c-40.667 0 -80.667 -11 -120 -33
s-74.666 -55 -105.999 -99l-34 11c39.333 72.667 87.5 125.667 144.5 159s117.833 50 182.5 50c87.333 0 158.333 -23.5 213 -70.5s82 -108.167 82 -183.5c0 -79.333 -32.667 -144.666 -98 -195.999c-42.667 -34 -116 -70.333 -220 -109v-7c50 -23.333 89 -51 117 -83
c51.333 -58 77 -135 77 -231c0 -136 -52.667 -255 -158 -357c-110 -107.333 -244.667 -161 -404 -161c-58 0 -105.333 6 -142 18c-63.333 20.667 -95 57.667 -95 111c0 18.667 7 35.667 21 51s35.667 23 65 23c19.333 0 36.666 -2.83301 51.999 -8.5z" />
    <glyph glyph-name="four" unicode="4" 
d="M896 1384h85l-249 -891h194l-28 -133h-204l-95 -360h-161l100 365h-536l40 137zM763 1152h-7l-624 -650v-9h434z" />
    <glyph glyph-name="five" unicode="5" 
d="M123 -1c-62.667 20.667 -94.001 55.334 -94.001 104.001c0 26.667 8.83301 47.334 26.5 62.001s36.834 22 57.501 22c26.667 0 66 -19.5 118 -58.5s96.667 -58.5 134 -58.5c88 0 168.5 40.5 241.5 121.5s109.5 182.167 109.5 303.5c0 134.667 -50.667 233.667 -152 297
c-58.667 36.667 -157.667 68 -297 94v31l214 448h524l-48 -147h-469l-81 -180c146.667 -23.333 259.5 -73.833 338.5 -151.5s118.5 -184.834 118.5 -321.501c0 -148.667 -60 -283.334 -180 -404.001c-120 -119.333 -268 -179 -444 -179c-42 0 -81 5.66699 -117 17z" />
    <glyph glyph-name="six" unicode="6" 
d="M668.5 225c62.333 123.333 93.5 241.332 93.5 353.999c0 78 -20.5 141.167 -61.5 189.5s-99.833 72.5 -176.5 72.5c-119.333 0 -206 -80 -260 -240c-31.333 -94.667 -47 -190 -47 -286c0 -63.333 8.66699 -115.666 26 -156.999c32 -78.667 91.333 -118 178 -118
c102.667 0 185.167 61.667 247.5 185zM1066 1372c-73.333 -14 -139.666 -34.1699 -198.999 -60.5029s-116.666 -60.5 -171.999 -102.5c-62 -47.333 -121 -105.166 -177 -173.499s-93 -121.166 -111 -158.499l7 -5c47.333 18 81.166 29.5 101.499 34.5s49.166 7.5 86.499 7.5
c84 0 162 -32.667 234 -98s108 -157.333 108 -276c0 -126 -42.667 -244.667 -128 -356c-101.333 -132 -230.333 -198 -387 -198c-112 0 -201.333 39.333 -268 118s-100 188.334 -100 329.001c0 203.333 76 397.333 228 582c188.667 230 447 360 775 390z" />
    <glyph glyph-name="seven" unicode="7" 
d="M305 -19h-144.001l751 1227l-2 5h-455c-65.333 0 -114.166 -10 -146.499 -30s-74.5 -59 -126.5 -117l-28 19l166 280h768l11 -21z" />
    <glyph glyph-name="eight" unicode="8" 
d="M800 917c46.667 46 70 106.668 70 182.001c0 61.333 -18.333 115.833 -55 163.5s-90 71.5 -160 71.5c-69.333 0 -122 -20.833 -158 -62.5s-54 -89.834 -54 -144.501c0 -55.333 17 -108.333 51 -159s81.667 -101 143 -151c80 38.667 134.333 72 163 100zM671.5 106.001
c57 48.667 85.5 117.667 85.5 207c0 39.333 -6.66699 75 -20 107s-29.333 61 -48 87c-27.333 33.333 -57.5 67 -90.5 101s-66.167 65 -99.5 93c-76.667 -22.667 -145.5 -65.667 -206.5 -129s-91.5 -143.333 -91.5 -240c0 -101.333 27.333 -176.5 82 -225.5
s121.667 -73.5 201 -73.5c68 0 130.5 24.333 187.5 73zM324.5 913.501c-29 53.667 -43.499 106.835 -43.499 159.502c0 87.333 38 162.666 114 225.999c70.667 56.667 155.334 85 254.001 85c92 0 175 -25.833 249 -77.5s111 -123.167 111 -214.5
c0 -88.667 -44.333 -162.334 -133 -221.001c-48 -32 -115.667 -61.667 -203 -89c81.333 -76.667 141.333 -146.334 180 -209.001c40.667 -62.667 61 -129.334 61 -200.001c0 -103.333 -41 -193.833 -123 -271.5s-188.667 -116.5 -320 -116.5
c-128.667 0 -228.834 33.333 -300.501 100s-107.5 145.334 -107.5 236.001c0 118 51.667 217 155 297c63.333 48.667 143.666 88.334 240.999 119.001c-60.667 64 -105.5 122.833 -134.5 176.5z" />
    <glyph glyph-name="nine" unicode="9" 
d="M681 601c49.333 26.667 84.999 65.999 106.999 117.999c14.667 34 29 83.167 43 147.5s21 122.5 21 174.5c0 73.333 -8.66699 131 -26 173c-31.333 76.667 -91 115 -179 115c-100 0 -179.167 -51.333 -237.5 -154s-87.5 -214 -87.5 -334
c0 -69.333 9 -124.666 27 -165.999c32.667 -76 94.334 -114 185.001 -114c48.667 0 97.667 13.333 147 40zM285.499 1209c95.667 116 212.169 173.999 349.502 173.999c120 0 212 -42 276 -126s96 -192.333 96 -325c0 -248.667 -97.333 -468 -292 -658
c-188.667 -184.667 -411.334 -288.667 -668.001 -312v38c158 28 310 113.667 456 257c116 113.333 188.333 212.333 217 297l-7 5c-38.667 -25.333 -80.334 -47.166 -125.001 -65.499s-92 -27.5 -142 -27.5c-70 0 -138.167 29.167 -204.5 87.5s-99.5 153.833 -99.5 286.5
c0 130 47.833 253 143.5 369z" />
    <glyph glyph-name="colon" unicode=":" horiz-adv-x="682" 
d="M407 708.5c-22 22.333 -32.998 49.166 -32.998 80.499s11.167 58.166 33.5 80.499s49.166 33.5 80.499 33.5s58.166 -11.167 80.499 -33.5s33.5 -49.166 33.5 -80.499s-11 -58.166 -33 -80.499s-49 -33.5 -81 -33.5s-59 11.167 -81 33.5zM203.002 9.5
c-22 22.333 -32.998 49.166 -32.998 80.499s11.167 58 33.5 80s49.166 33 80.499 33s58.166 -11 80.499 -33s33.5 -48.667 33.5 -80s-11 -58.166 -33 -80.499s-49 -33.5 -81 -33.5s-59 11.167 -81 33.5z" />
    <glyph glyph-name="semicolon" unicode=";" horiz-adv-x="682" 
d="M407 708.5c-22 22.333 -32.998 49.166 -32.998 80.499s11.167 58.166 33.5 80.499s49.166 33.5 80.499 33.5s58.166 -11.167 80.499 -33.5s33.5 -49.166 33.5 -80.499s-11 -58.166 -33 -80.499s-49 -33.5 -81 -33.5s-59 11.167 -81 33.5zM210.002 176.5
c17.333 19.667 43.334 29.4971 78.001 29.4971c35.333 0 64 -13.667 86 -41s33 -62 33 -104c0 -67.333 -25.833 -128.666 -77.5 -183.999s-103.834 -97.333 -156.501 -126l-31 -17l-19 33c41.333 29.333 73 54.333 95 75c39.333 38.667 59 73.334 59 104.001
c0 8.66699 -1.66699 17 -5 25s-8 15 -14 21l-19 19c-24.667 24.667 -40 43.5 -46 56.5s-9 32.167 -9 57.5c0 14.667 8.66699 31.834 26 51.501z" />
    <glyph glyph-name="less" unicode="&#x3c;" horiz-adv-x="1382" 
d="M135 535l1114 505v-130l-882 -396l882 -396v-130l-1114 502v45z" />
    <glyph glyph-name="equal" unicode="=" horiz-adv-x="1382" 
d="M1259 777l-25 -121h-1027l25 121h1027zM1173 372l-25 -121h-1027l25 121h1027z" />
    <glyph glyph-name="greater" unicode="&#x3e;" horiz-adv-x="1382" 
d="M132 -12v130l882 396l-882 396v130l1114 -505v-45z" />
    <glyph glyph-name="question" unicode="?" 
d="M392.5 4c-22.333 -20.667 -48.167 -31.001 -77.5 -31.001c-28.667 0 -53.667 10.333 -75 31s-32 46 -32 76c0 30.667 10.833 56.167 32.5 76.5s47.167 30.5 76.5 30.5c27.333 0 52.333 -9.66699 75 -29s34 -44.666 34 -75.999s-11.167 -57.333 -33.5 -78zM827.499 1284
c51.667 -51.333 77.499 -112.999 77.499 -184.999c0 -62 -16.167 -115.833 -48.5 -161.5s-79.5 -93.5 -141.5 -143.5l-85 -69c-62.667 -50.667 -108.667 -93 -138 -127c-49.333 -57.333 -81.666 -118.666 -96.999 -183.999l-14 -59l-35 5c12.667 140 85 283 217 429
c126.667 140 190 258.667 190 356c0 60 -15.5 103.5 -46.5 130.5s-69.167 40.5 -114.5 40.5c-28.667 0 -56 -5 -82 -15c-44 -16.667 -66 -44.334 -66 -83.001c0 -4.66699 0.5 -9.83398 1.5 -15.501s2.5 -10.834 4.5 -15.501l9 -21
c7.33301 -15.333 12.166 -27.166 14.499 -35.499s3.5 -15.833 3.5 -22.5c0 -20.667 -7.83301 -37.5 -23.5 -50.5s-34.5 -19.5 -56.5 -19.5c-24 0 -43.833 8 -59.5 24s-23.5 43 -23.5 81c0 57.333 26 108 78 152s120 66 204 66c102.667 0 179.834 -25.667 231.501 -77z" />
    <glyph glyph-name="at" unicode="@" horiz-adv-x="1884" 
d="M782.5 398c22.333 -25.333 52.168 -38 89.501 -38c79.333 0 143.166 64.167 191.499 192.5s72.5 222.166 72.5 281.499c0 34.667 -9.66699 62 -29 82s-46.333 30 -81 30c-67.333 0 -130.333 -51.333 -189 -154s-88 -199.667 -88 -291
c0 -43.333 11.167 -77.666 33.5 -102.999zM410.002 161c-150.667 128.667 -225.997 284.999 -225.997 468.999c0 208.667 82.667 386.667 248 534c164 146.667 362.333 220 595 220c180.667 0 334 -50.333 460 -151c132 -106.667 198 -243 198 -409
c0 -133.333 -42.333 -256 -127 -368s-181 -168 -289 -168c-71.333 0 -124 22 -158 66c-22.667 29.333 -34.334 61.333 -35.001 96c-15.333 -40.667 -45.333 -78 -90 -112s-92.334 -51 -143.001 -51c-75.333 0 -138.833 25.667 -190.5 77s-77.5 120 -77.5 206
c0 112.667 43.833 216.167 131.5 310.5s183.5 141.5 287.5 141.5c47.333 0 87.666 -12.167 120.999 -36.5s55 -54.166 65 -89.499l33 101h164l-55 -170c-22.667 -70 -42.667 -135 -60 -195c-28 -97.333 -42 -158.333 -42 -183c0 -13.333 4.66699 -28.333 14 -45
c16 -28 40.667 -42 74 -42c64.667 0 131.334 44.5 200.001 133.5s103 197.5 103 325.5c0 156.667 -59.833 276.667 -179.5 360s-251.167 125 -394.5 125c-179.333 0 -340.333 -61.667 -483 -185c-154.667 -133.333 -232 -296.333 -232 -489c0 -179.333 64.667 -324 194 -434
c122.667 -104 276.667 -156 462 -156c63.333 0 132.666 9.33301 207.999 28c115.333 28 214.333 73.333 297 136l38 -57c-100 -64 -194.333 -109.667 -283 -137s-185 -41 -289 -41c-210 0 -389.667 63.333 -539 190z" />
    <glyph glyph-name="A" unicode="A" horiz-adv-x="1251" 
d="M805 535l-90 531l-305 -531h395zM-55 33c45.333 11.333 81.168 32.332 107.501 62.999s78.833 113 157.5 247l598 1024h45l197 -1159c12.667 -74.667 27.667 -121.167 45 -139.5s54.333 -30.166 111 -35.499v-33h-505v33c60.667 6 100 13.333 118 22
c28.667 13.333 43 39.333 43 78c0 10 -0.333008 20.667 -1 32s-1.66699 21 -3 29l-41 268h-450l-119 -230c-8.66699 -15.333 -16.334 -31.666 -23.001 -48.999c-11.333 -30.667 -17 -56.334 -17 -77.001c0 -26 8.83301 -44.333 26.5 -55s49.167 -16.667 94.5 -18v-33h-384
v33z" />
    <glyph glyph-name="B" unicode="B" horiz-adv-x="1251" 
d="M597 743c106 0 188.668 14.6641 248.001 43.9971c101.333 50.667 152 143.334 152 278.001c0 76.667 -21.5 130.834 -64.5 162.501s-99.5 47.5 -169.5 47.5c-44.667 0 -74.834 -4.16699 -90.501 -12.5s-26.5 -23.166 -32.5 -44.499l-133 -474zM787.001 170.997
c62.667 70.667 94 155.667 94 255c0 110.667 -36.667 183 -110 217c-46.667 20.667 -141 32 -283 34l-128 -464c-3.33301 -11.333 -6 -22.5 -8 -33.5s-3 -21.167 -3 -30.5c0 -36.667 17 -61 51 -73c19.333 -7.33301 49.666 -11 90.999 -11
c134.667 0 233.334 35.333 296.001 106zM-18.999 32.9971c48 4 80.998 12.665 98.998 25.998c28 20 51 61.667 69 125l251 906l14 53c6.66699 30.667 10 53.334 10 68.001c0 34.667 -11.167 58.334 -33.5 71.001s-64.166 19.667 -125.499 21v33h529
c90 0 169.333 -11.667 238 -35c115.333 -48.667 173 -136 173 -262c0 -104.667 -47 -186 -141 -244c-51.333 -31.333 -122.666 -57 -213.999 -77c70.667 -26.667 123.667 -56 159 -88c63.333 -58 95 -136.667 95 -236c0 -112 -49.667 -205.667 -149 -281
s-235.333 -113 -408 -113h-566v33z" />
    <glyph glyph-name="C" unicode="C" horiz-adv-x="1366" 
d="M1136 1338c69.333 -16 111.335 -24.001 126.002 -24.001c24.667 0 42 4 52 12s18.333 19.333 25 34h42l-75 -408l-36 5c-7.33301 80.667 -25.333 145.667 -54 195c-52.667 91.333 -139.667 137 -261 137c-186.667 0 -340.334 -93.333 -461.001 -280
c-105.333 -162 -158 -337.667 -158 -527c0 -140.667 32 -247 96 -319s146.333 -108 247 -108c104 0 199.333 25.333 286 76c51.333 30.667 118.333 85.667 201 165l33 -29c-74.667 -94.667 -159.167 -169.167 -253.5 -223.5s-198.166 -81.5 -311.499 -81.5
c-170.667 0 -301.667 54 -393 162s-137 234 -137 378c0 206.667 76.333 397.334 229 572.001c167.333 192 370.666 288 609.999 288c59.333 0 123.666 -8 192.999 -24z" />
    <glyph glyph-name="D" unicode="D" horiz-adv-x="1479" 
d="M1113 433c62 127.333 92.999 257 92.999 389c0 127.333 -31.333 234.666 -94 321.999s-175.667 131 -339 131c-44.667 0 -76.5 -4.33301 -95.5 -13s-31.5 -24 -37.5 -46l-280 -1003c-5.33301 -20 -8.66602 -34.667 -9.99902 -44s-2 -18.666 -2 -27.999
c0 -29.333 9 -49.333 27 -60s55 -16 111 -16c297.333 0 506.333 122.667 627 368zM-19.001 33c48 4 81.001 12.666 99.001 25.999c28 20 51 61.667 69 125l251 906c7.33301 27.333 13.166 50.833 17.499 70.5s6.5 36.834 6.5 51.501c0 33.333 -11.333 56.5 -34 69.5
s-64.334 20.167 -125.001 21.5v33h529c98 0 184 -8.66699 258 -26s142.667 -53 206 -107c44.667 -40 82 -87.333 112 -142c44 -82.667 66 -175.667 66 -279c0 -205.333 -79 -383.333 -237 -534c-173.333 -165.333 -398.666 -248 -675.999 -248h-542v33z" />
    <glyph glyph-name="E" unicode="E" horiz-adv-x="1251" 
d="M-5 33c48 4 80.998 12.668 98.998 26.001c28 20 51 61.667 69 125l251 906c8 30 14.167 54.833 18.5 74.5s6.5 36.5 6.5 50.5c0 32 -12.167 54.333 -36.5 67s-65.5 19.667 -123.5 21v33h1019l-64 -312l-42 4c2 20 3.33301 39.167 4 57.5s1 25.166 1 20.499
c1.33301 67.333 -22.5 111.5 -71.5 132.5s-149.833 31.5 -302.5 31.5c-70 0 -114 -3.33301 -132 -10s-30.333 -21.334 -37 -44.001l-135 -477c180.667 6 289.334 17.333 326.001 34s75.667 71.667 117 165l38 -9l-140 -474l-40 9c6.66699 40 10.667 64.333 12 73
s2 18.334 2 29.001c0 43.333 -15.5 71.5 -46.5 84.5s-87.833 19.5 -170.5 19.5h-117l-126 -457c-4 -14 -7.16699 -27 -9.5 -39s-3.5 -24.333 -3.5 -37c0 -21.333 5.66699 -37.333 17 -48c20.667 -18.667 61.334 -28 122.001 -28c183.333 0 314.5 19.667 393.5 59
s157.833 115.333 236.5 228l33 -17l-128 -331h-1040v33z" />
    <glyph glyph-name="F" unicode="F" horiz-adv-x="1251" 
d="M0 33c48 4 81.001 12.668 99.001 26.001c28 20 51 61.667 69 125l251 906c6 22 10.667 41 14 57c6.66699 28.667 10 50.334 10 65.001c0 35.333 -12 59 -36 71s-65 18.667 -123 20v33h1019l-64 -312l-42 4c2 22 3 38.667 3 50c0.666992 16 1 28.333 1 37
c0 62 -24 103.333 -72 124s-148 31 -300 31c-64.667 0 -107.667 -3 -129 -9s-35.333 -21 -42 -45l-135 -477c175.333 5.33301 281.5 16 318.5 32s78.833 68.667 125.5 158l35 -10l-154 -479l-35 10c7.33301 39.333 12 65.666 14 78.999s3 26 3 38
c0 46.667 -19.667 76.667 -59 90c-24.667 8.66699 -74.667 13 -150 13h-117l-125 -455c-10 -35.333 -15.833 -56.833 -17.5 -64.5s-2.5 -16.834 -2.5 -27.501c0 -36 15 -60.333 45 -73c19.333 -8 56.666 -13.667 111.999 -17v-33h-516v33z" />
    <glyph glyph-name="G" unicode="G" horiz-adv-x="1479" 
d="M1053 1356c39.333 -6 82.3291 -17.333 128.996 -34c35.333 -12 59.5 -19.667 72.5 -23s26.167 -5 39.5 -5c33.333 0 58.666 6 75.999 18s33.666 28.667 48.999 50l31 -7l-102 -403l-35 5c-10.667 82 -32.667 148 -66 198c-62.667 92.667 -164 139 -304 139
c-192.667 0 -348.334 -102.333 -467.001 -307c-96.667 -167.333 -145 -342 -145 -524c0 -127.333 34.5 -230 103.5 -308s167.5 -117 295.5 -117c44.667 0 93.334 7.83301 146.001 23.5s88.334 39.167 107.001 70.5c12 20 26.333 60 43 120c10.667 38 24 91.333 40 160l22 92
c1.33301 5.33301 2.33301 10.833 3 16.5s1 11.5 1 17.5c0 30 -9.16699 49.167 -27.5 57.5s-62.166 16.833 -131.499 25.5v33h546v-33c-69.333 -6.66699 -116.166 -18.667 -140.499 -36s-43.833 -54.333 -58.5 -111l-100 -384c-52.667 -34.667 -120.667 -64.667 -204 -90
s-173.666 -38 -270.999 -38c-195.333 0 -347.666 58.667 -456.999 176c-96 103.333 -144 231 -144 383c0 200 75.667 386 227 558c168.667 190.667 374.334 286 617.001 286c30.667 0 65.667 -3 105 -9z" />
    <glyph glyph-name="H" unicode="H" horiz-adv-x="1479" 
d="M-19 33c48 4 81.001 12.6709 99.001 26.0039c28 20 51 61.667 69 125l251 906c9.33301 36.667 15.666 62.5 18.999 77.5s5 29.833 5 44.5c0 33.333 -11.5 56.5 -34.5 69.5s-64.5 20.167 -124.5 21.5v33h559v-33c-55.333 -4.66699 -95 -13.667 -119 -27
c-41.333 -22.667 -70.333 -64 -87 -124l-109 -399h583l100 363c6.66699 26 11 46.667 13 62s3 28.666 3 39.999c0 32.667 -16.333 56 -49 70c-22 8.66699 -53.667 13.667 -95 15v33h507v-33c-54 -6.66699 -91.167 -17.834 -111.5 -33.501s-39.166 -54.834 -56.499 -117.501
l-251 -906l-19 -78c-1.33301 -7.33301 -2.5 -14.333 -3.5 -21s-1.5 -13.334 -1.5 -20.001c0 -38.667 11.5 -63.5 34.5 -74.5s64.5 -17.5 124.5 -19.5v-33h-560v33c54 4 93.333 12.667 118 26c41.333 22.667 70.666 64.334 87.999 125.001l136 484h-584l-118 -422l-19 -78
c-1.33301 -7.33301 -2.5 -14.333 -3.5 -21s-1.5 -13.334 -1.5 -20.001c0 -37.333 10.5 -61.5 31.5 -72.5s58.833 -18.167 113.5 -21.5v-33h-507v33z" />
    <glyph glyph-name="I" unicode="I" horiz-adv-x="682" 
d="M-19 33c48 4 81.001 12.668 99.001 26.001c28 20 51 61.667 69 125l251 906c9.33301 36.667 15.666 62.5 18.999 77.5s5 29.833 5 44.5c0 32.667 -10.667 55.167 -32 67.5s-59 20.166 -113 23.499v33h507v-33c-54 -7.33301 -91.167 -18.833 -111.5 -34.5
s-39.166 -54.5 -56.499 -116.5l-251 -906c-8.66699 -32 -14.834 -58.333 -18.501 -79s-5.5 -36.334 -5.5 -47.001c0 -33.333 11.833 -55.666 35.5 -66.999s58.5 -18 104.5 -20v-33h-502v33z" />
    <glyph glyph-name="J" unicode="J" horiz-adv-x="909" 
d="M151.5 227.5c17 -17 25.499 -39.501 25.499 -67.501c0 -5.33301 -0.333008 -13.166 -1 -23.499s-1 -20.166 -1 -29.499c0 -28.667 7 -49.334 21 -62.001s31.333 -19 52 -19c32 0 56.333 13.333 73 40c10.667 16 22.667 47.667 36 95l261 929c8 28.667 14 52.5 18 71.5
s6 37.5 6 55.5c0 26 -9.83301 46.333 -29.5 61s-62.167 23 -127.5 25v33h520v-33c-54.667 -7.33301 -92.167 -18.833 -112.5 -34.5s-39.166 -54.5 -56.499 -116.5l-211 -759c-34.667 -123.333 -71.667 -214.333 -111 -273c-70 -105.333 -165 -158 -285 -158
c-84.667 0 -146.5 19.5 -185.5 58.5s-58.5 79.833 -58.5 122.5c0 34.667 9.33301 61.667 28 81s41.667 29 69 29c29.333 0 52.5 -8.5 69.5 -25.5z" />
    <glyph glyph-name="K" unicode="K" horiz-adv-x="1366" 
d="M14 33c48 4 81.002 12.6689 99.002 26.002c28 20 51 61.667 69 125l251 906c7.33301 27.333 13.166 51 17.499 71s6.5 38.667 6.5 56c0 31.333 -12.167 53.166 -36.5 65.499s-65.166 19.166 -122.499 20.499v33h560v-33c-56 -4.66699 -96 -13.667 -120 -27
c-40.667 -22 -69.667 -63.333 -87 -124l-111 -387h19l254 176c83.333 58 151 108.667 203 152c88.667 74 133 126 133 156c0 20.667 -8.83301 34 -26.5 40s-50.5 10.667 -98.5 14v33h455v-33c-19.333 -2.66699 -37.333 -7 -54 -13c-28.667 -12 -62 -32 -100 -60l-614 -462
l355 -622c26.667 -46.667 52.667 -76.667 78 -90s65.666 -21 120.999 -23v-33h-564v35c56 4 93 8.66699 111 14c28.667 8 43 23.333 43 46c0 19.333 -10.333 51.833 -31 97.5s-48.334 98.167 -83.001 157.5l-199 342l-21 7l-121 -453l-19 -78c-2 -8 -3.33301 -15.5 -4 -22.5
s-1 -14.167 -1 -21.5c0 -36.667 15 -61.667 45 -75c18 -8 51.333 -13.333 100 -16v-33h-507v33z" />
    <glyph glyph-name="L" unicode="L" horiz-adv-x="1139" 
d="M-19 33c48 4 80.999 12.668 98.999 26.001c28 20 51 61.667 69 125l251 906c9.33301 36.667 15.666 62.5 18.999 77.5s5 29.833 5 44.5c0 33.333 -11.5 56.5 -34.5 69.5s-64.5 20.167 -124.5 21.5v33h559v-33c-55.333 -4.66699 -95 -13.667 -119 -27
c-41.333 -22 -70.333 -63.333 -87 -124l-251 -906l-19 -78c-0.666992 -4 -1.16699 -8.33301 -1.5 -13s-0.5 -8.66699 -0.5 -12c0 -16.667 5.33301 -29.834 16 -39.501s27.334 -16.834 50.001 -21.501c18.667 -3.33301 44.334 -5.66602 77.001 -6.99902
c19.333 -0.666992 51.666 -1 96.999 -1c139.333 0 245.333 18.5 318 55.5s139.334 120.167 200.001 249.5l40 -12l-118 -367h-1045v33z" />
    <glyph glyph-name="M" unicode="M" horiz-adv-x="1706" 
d="M-19 33c58 7.33301 99.166 28.335 123.499 63.002s54.166 114.667 89.499 240l251 884c8 30 -5.5 51.167 -40.5 63.5s-72.167 18.833 -111.5 19.5v33h373l111 -1000h7l683 1000h341v-33c-54 -6.66699 -91.167 -17.834 -111.5 -33.501s-39.166 -54.834 -56.499 -117.501
l-251 -906c-7.33301 -26 -13.166 -49 -17.499 -69s-6.5 -38 -6.5 -54c0 -36 12.5 -59.5 37.5 -70.5s65.5 -17.5 121.5 -19.5v-33h-560v33c56.667 4.66699 97 13.334 121 26.001c40 22 68.333 63.667 85 125l261 949h-7l-761 -1133h-35l-124 1097h-7l-234 -865
c-4.66699 -18.667 -9 -38 -13 -58s-6 -35.667 -6 -47c0 -36.667 15.667 -62.334 47 -77.001c20 -9.33301 52.333 -15 97 -17v-33h-407v33z" />
    <glyph glyph-name="N" unicode="N" horiz-adv-x="1366" 
d="M-43 33c58.667 9.33301 100 30.3301 124 62.9971s53.667 112.667 89 240l237 858c1.33301 4 -4.16699 15.833 -16.5 35.5s-24.833 33.834 -37.5 42.501s-27.5 15 -44.5 19s-40.833 8 -71.5 12v33h329l422 -1012h7l211 780c6 23.333 10.667 44.333 14 63s5 32.667 5 42
c0 37.333 -16 63 -48 77c-19.333 8.66699 -51.666 14.334 -96.999 17.001v33h408v-33c-62 -13.333 -103.833 -35 -125.5 -65s-50.834 -109.333 -87.501 -238l-251 -875l-17.5 -62.5c-3.66699 -13 -12.167 -45.167 -25.5 -96.5h-38l-467 1117h-10l-227 -851
c-4 -15.333 -8.16699 -33.666 -12.5 -54.999s-6.5 -38.333 -6.5 -51c0 -38 17.333 -64 52 -78c20 -8.66699 51 -13.667 93 -15v-33h-408v33z" />
    <glyph glyph-name="O" unicode="O" horiz-adv-x="1479" 
d="M1068 404c100.667 198 150.999 381.667 150.999 551c0 104.667 -22.667 186.5 -68 245.5s-113.666 88.5 -204.999 88.5c-176 0 -326 -117.667 -450 -353c-104.667 -198 -157 -389 -157 -573c0 -108 23.667 -189.667 71 -245s113.333 -83 198 -83
c182 0 335.333 123 460 369zM1300 1222c88.667 -93.333 133.002 -207.667 133.002 -343c0 -238.667 -88.667 -451.667 -266 -639c-174.667 -183.333 -368.334 -275 -581.001 -275c-134.667 0 -246.334 42 -335.001 126s-133 203.667 -133 359
c0 220.667 87.667 427.667 263 621c176 194 366 291 570 291c144 0 260.333 -46.667 349 -140z" />
    <glyph glyph-name="P" unicode="P" horiz-adv-x="1251" 
d="M0 33c48 4 81 12.6699 99 26.0029c28 20 51 61.667 69 125l251 906l19 78c2 9.33301 3.5 17.833 4.5 25.5s1.5 14.5 1.5 20.5c0 32 -11 54 -33 66s-59.667 19.667 -113 23v33h507c104.667 0 189 -13 253 -39c120.667 -48.667 181 -139.667 181 -273
c0 -81.333 -24 -153.333 -72 -216c-92.667 -122 -259.667 -183 -501 -183c-29.333 0 -58.5 1.16699 -87.5 3.5s-56.833 6.16602 -83.5 11.499l-109 -394c-6.66699 -24 -11.667 -43.667 -15 -59c-6 -26.667 -9 -47.334 -9 -62.001c0 -33.333 10.167 -56.333 30.5 -69
s56.833 -20.334 109.5 -23.001v-33h-502v33zM560.5 704.003c18.333 -2 42.167 -3 71.5 -3c101.333 0 180.666 14 237.999 42c106.667 52 160 150.333 160 295c0 86 -24 146.667 -72 182s-112 53 -192 53c-32 0 -56.167 -3 -72.5 -9s-28.166 -21.333 -35.499 -46l-144 -507
c12.667 -2.66699 28.167 -5 46.5 -7z" />
    <glyph glyph-name="Q" unicode="Q" horiz-adv-x="1479" 
d="M1068 404c100.667 198 150.999 381.667 150.999 551c0 104.667 -22.667 186.5 -68 245.5s-113.666 88.5 -204.999 88.5c-176 0 -326 -117.667 -450 -353c-104.667 -198.667 -157 -389.667 -157 -573c0 -106.667 23.5 -188 70.5 -244s113.167 -84 198.5 -84
c182 0 335.333 123 460 369zM458.999 -152l27.0029 1.49707c6 0.333008 12.667 0.5 20 0.5c49.333 0 129.333 -14 240 -42s194 -42 250 -42c85.333 0 157.666 17 216.999 51c34.667 19.333 75.667 53.333 123 102l31 -21c-79.333 -110.667 -178 -188.667 -296 -234
c-68.667 -26 -137.334 -39 -206.001 -39c-54 0 -141 15 -261 45s-199.333 45 -238 45c-34.667 0 -71.334 -5.16699 -110.001 -15.5s-76.667 -27.166 -114 -50.499l-22 33c78 54.667 150.333 109.667 217 165l146 129c-98 10.667 -183.333 57.667 -256 141
s-109 194.333 -109 333c0 220.667 87.667 427.667 263 621c176 194 366 291 570 291c144 0 260.333 -46.667 349 -140s133 -207.666 133 -342.999c0 -244 -91.667 -460 -275 -648c-178.667 -183.333 -373.667 -271.666 -585 -264.999z" />
    <glyph glyph-name="R" unicode="R" horiz-adv-x="1251" 
d="M583 740.5c10.667 -1 22.332 -1.5 34.999 -1.5c103.333 0 190.833 23.833 262.5 71.5s107.5 128.167 107.5 241.5c0 86 -24.333 144.333 -73 175s-111.334 46 -188.001 46c-27.333 0 -48.666 -3.33301 -63.999 -10s-26.333 -21.667 -33 -45l-133 -469
c46.667 -4.66699 75.334 -7.5 86.001 -8.5zM-29.002 33c48 4 81.001 12.665 99.001 25.998c28 20 51 61.667 69 125l252 906c5.33301 18 10.5 39.167 15.5 63.5s7.5 45.5 7.5 63.5c0 31.333 -11.333 52.833 -34 64.5s-59.334 18.834 -110.001 21.501v33h507
c97.333 0 178.333 -12 243 -36c122.667 -46 184 -131 184 -255c0 -118.667 -53.333 -210.667 -160 -276c-58 -35.333 -139 -64.333 -243 -87l189 -502c18.667 -49.333 40 -85.666 64 -108.999s59.667 -36 107 -38v-33h-303l-252 663l-132 10l-117 -427l-13 -51
c-6.66699 -32.667 -10 -58 -10 -76c0 -31.333 11 -53 33 -65s57.667 -19 107 -21v-33h-503v33z" />
    <glyph glyph-name="S" unicode="S" 
d="M104 419l39 -4.99805c-0.666992 -23.333 -1 -37 -1 -41c0 -104 28.833 -187.5 86.5 -250.5s128.167 -94.5 211.5 -94.5c84 0 149 28.333 195 85s69 118.667 69 186c0 25.333 -4.33301 52 -13 80c-13.333 43.333 -35.333 82 -66 116l-128 140
c-98.667 108 -162 185.333 -190 232s-42 97.334 -42 152.001c0 84 31.333 161.5 94 232.5s154.667 106.5 276 106.5c54 0 109.667 -9.16699 167 -27.5s91.666 -27.5 102.999 -27.5c22 0 40 6.16699 54 18.5s25.333 25.166 34 38.499h47l-83 -408l-35 5
c-3.33301 97.333 -15.666 168.333 -36.999 213c-38.667 79.333 -111.667 119 -219 119c-66 0 -119.667 -18.833 -161 -56.5s-62 -84.834 -62 -141.501c0 -46 9.33301 -84.667 28 -116s54.334 -75.333 107.001 -132l185 -199c33.333 -36 61.333 -76.833 84 -122.5
s34 -98.834 34 -159.501c0 -106.667 -37.167 -201.167 -111.5 -283.5s-173.5 -123.5 -297.5 -123.5c-64.667 0 -130.167 12.5 -196.5 37.5s-107.5 37.5 -123.5 37.5c-24 0 -41.333 -5.66699 -52 -17s-20.334 -28.333 -29.001 -51h-36z" />
    <glyph glyph-name="T" unicode="T" horiz-adv-x="1139" 
d="M123 33c60.667 4.66699 103.333 13.333 128 26c41.333 22 70.333 63.667 87 125l297 1081c-157.333 0 -261.333 -11.833 -312 -35.5s-109.667 -95.5 -177 -215.5l-35 7l85 315h1091l-90 -334l-36 5l5 71c0 62.667 -14.167 109.5 -42.5 140.5s-84.5 46.5 -168.5 46.5h-114
l-284 -1019c-6.66699 -22 -11.667 -41.667 -15 -59c-6 -26 -9 -46.667 -9 -62c0 -40 12.333 -64.833 37 -74.5s73 -15.5 145 -17.5v-33h-592v33z" />
    <glyph glyph-name="U" unicode="U" horiz-adv-x="1479" 
d="M395 1090c7.33301 25.333 12.665 46.001 15.998 62.001c5.33301 26 8 47.667 8 65c0 34.667 -12.667 57 -38 67s-65.666 16.333 -120.999 19v33h560v-33c-56 -4.66699 -96 -13.667 -120 -27c-40.667 -22 -69.667 -63.333 -87 -124l-154 -546
c-16 -55.333 -29.333 -105.666 -40 -150.999c-18 -74 -27 -127.333 -27 -160c0 -102.667 44 -175 132 -217c46 -22 94 -33 144 -33c120 0 214.833 36.5 284.5 109.5s124.834 185.833 165.501 338.5l166 611c7.33301 27.333 12.333 48.666 15 63.999s4 28.666 4 39.999
c0 38 -16 64 -48 78c-18.667 8.66699 -50.667 14.334 -96 17.001v33h407v-33c-60.667 -12.667 -101.834 -33.834 -123.501 -63.501s-51.5 -109.5 -89.5 -239.5l-149 -516c-47.333 -189.333 -113.666 -324 -198.999 -404c-86 -80 -206.667 -120 -362 -120
c-121.333 0 -224.5 32.667 -309.5 98s-127.5 149.333 -127.5 252c0 33.333 5.66699 78.5 17 135.5s27 121.833 47 194.5z" />
    <glyph glyph-name="V" unicode="V" horiz-adv-x="1251" 
d="M649 1336l-0.00195312 -33c-49.333 -2.66699 -85.333 -9 -108 -19c-34 -16 -51 -43.667 -51 -83c0 -5.33301 0.333008 -10.833 1 -16.5l2 -16.5l132 -891h12l413 713c20.667 35.333 40.334 71.666 59.001 108.999c31.333 63.333 47 107.333 47 132
s-9.66699 41.334 -29 50.001s-52.333 16 -99 22v33h380v-33c-29.333 -6 -51.166 -13.333 -65.499 -22s-30.5 -28 -48.5 -58l-764 -1261h-40l-173 1066c-20.667 126 -38.5 201.667 -53.5 227s-50.833 41.333 -107.5 48v33h493z" />
    <glyph glyph-name="W" unicode="W" horiz-adv-x="1706" 
d="M628 1336l-0.00195312 -32.9971c-63.333 -3.33301 -103.666 -13.333 -120.999 -30s-26 -46.667 -26 -90c0 -6.66699 0.166992 -12.834 0.5 -18.501s0.833008 -12.5 1.5 -20.5l85 -803h8l348 704l-19 140c-7.33301 51.333 -20.5 83.5 -39.5 96.5
s-57.167 20.167 -114.5 21.5v33h488v-33c-46.667 -4.66699 -78.667 -11.667 -96 -21c-29.333 -16 -44 -44.667 -44 -86c0 -4.66699 0.5 -12.834 1.5 -24.501s28.167 -288.5 81.5 -830.5h7l377 744c10 19.333 18.667 38 26 56c11.333 30.667 17 56.334 17 77.001
c0 36 -13.667 60 -41 72c-16.667 7.33301 -47.334 11.666 -92.001 12.999v33h380v-33c-35.333 -9.33301 -60.666 -20.333 -75.999 -33c-23.333 -20 -49.666 -58 -78.999 -114l-621 -1194h-40l-102 931h-12l-452 -931h-41l-125 1059c-16 136 -31 216.167 -45 240.5
s-53.667 38.166 -119 41.499v33h484z" />
    <glyph glyph-name="X" unicode="X" horiz-adv-x="1251" 
d="M602 33c53.333 2 89.332 6.33105 107.999 12.998c32 11.333 48 33.333 48 66c0 12 -2 27 -6 45s-10 36.667 -18 56l-137 339l-306 -351c-12.667 -14 -23.5 -29.167 -32.5 -45.5s-13.5 -33.166 -13.5 -50.499c0 -30.667 14 -51 42 -61
c17.333 -6.66699 48 -10.334 92 -11.001v-33h-441v33c48.667 6 108.334 41.667 179.001 107c42.667 39.333 104.667 106.333 186 201l256 296l-216 543c-19.333 48.667 -40.5 79.5 -63.5 92.5s-64.167 23.167 -123.5 30.5v33h540v-33
c-56 -7.33301 -94.667 -16.166 -116 -26.499s-32 -31.166 -32 -62.499c0 -8.66699 1 -16.834 3 -24.501s5.33301 -17.834 10 -30.501l140 -358l299 346c10 11.333 19.167 25.166 27.5 41.499s12.5 30.5 12.5 42.5c0 26 -8.66699 42.833 -26 50.5
s-50.666 14.834 -99.999 21.501v33h427v-33c-50.667 -17.333 -92.167 -38.666 -124.5 -63.999s-86.833 -80.666 -163.5 -165.999l-142 -162l-174 -200l211 -527c24 -59.333 51.167 -98.833 81.5 -118.5s74.166 -30.5 131.499 -32.5v-33h-559v33z" />
    <glyph glyph-name="Y" unicode="Y" horiz-adv-x="1139" 
d="M158 33c60.667 4.66699 103.665 13.333 128.998 26c40 21.333 69 63 87 125l126 434l-159 550c-16.667 58 -33.334 93.5 -50.001 106.5s-51.334 22.5 -104.001 28.5v33h488v-33c-49.333 -2.66699 -83.333 -7.33398 -102 -14.001c-30.667 -11.333 -46 -32.333 -46 -63
c0 -10 2 -24 6 -42s7 -29.667 9 -35l124 -438l222 270c50 60.667 85.667 106.667 107 138c36.667 52.667 55 92.334 55 119.001s-13.667 44.667 -41 54c-16.667 5.33301 -49.667 9 -99 11v33h424v-33c-39.333 -4.66699 -70.166 -14.667 -92.499 -30
s-52.166 -46.333 -89.499 -93l-448 -555l-112 -379c-9.33301 -31.333 -15.666 -56.666 -18.999 -75.999s-5 -35 -5 -47c0 -38.667 12.833 -62.834 38.5 -72.501s73.834 -15.5 144.501 -17.5v-33h-593v33z" />
    <glyph glyph-name="Z" unicode="Z" horiz-adv-x="1139" 
d="M-15 28l983.999 1233h-351c-139.333 0 -238.666 -19.667 -297.999 -59c-39.333 -26 -83 -84 -131 -174l-38 10l95 298h996v-28l-991 -1235h329c169.333 0 284 19.667 344 59s116 112 168 218l41 -7l-112 -343h-1036v28z" />
    <glyph glyph-name="bracketleft" unicode="[" horiz-adv-x="797" 
d="M801 1332l-15 -56.998h-128c-32.667 0 -55 -5.66699 -67 -17s-21 -29.333 -27 -54l-330 -1392c-2.66699 -10.667 -4.5 -18.834 -5.5 -24.501s-1.5 -10.834 -1.5 -15.501c0 -24 9.16699 -39.5 27.5 -46.5s42.5 -10.5 72.5 -10.5h116l-14 -57h-387l403 1674h356z" />
    <glyph glyph-name="backslash" unicode="\" horiz-adv-x="569" 
d="M523 0l-595 1362h119l593 -1362h-117z" />
    <glyph glyph-name="bracketright" unicode="]" horiz-adv-x="797" 
d="M23 -342l14 56.998h128c33.333 0 56 5.66699 68 17s21 29.333 27 54l330 1392c2.66699 10.667 4.5 18.834 5.5 24.501s1.5 10.834 1.5 15.501c0 24 -9.16699 39.5 -27.5 46.5s-42.5 10.5 -72.5 10.5h-116l14 57h387l-403 -1674h-356z" />
    <glyph glyph-name="asciicircum" unicode="^" horiz-adv-x="864" 
d="M569 1362l204 -865h-138l-138 647l-414 -647h-137l569 865h54z" />
    <glyph glyph-name="underscore" unicode="_" 
d="M0 -256v101h1024v-101h-1024z" />
    <glyph glyph-name="grave" unicode="`" horiz-adv-x="682" 
d="M310 1346c12 -9.33301 23.001 -20.333 33.001 -33l237 -306h-61l-287 218c-11.333 8.66699 -20.833 18 -28.5 28s-11.5 22.333 -11.5 37c0 19.333 6.66699 35.833 20 49.5s31.666 20.5 54.999 20.5c16.667 0 31 -4.66699 43 -14zM580.001 903z" />
    <glyph glyph-name="a" unicode="a" 
d="M713 828c-22 22.667 -48.667 33.999 -80 33.999c-108.667 0 -209.667 -83.333 -303 -250c-82 -146.667 -123 -273 -123 -379c0 -53.333 11.5 -92.166 34.5 -116.499s51.5 -36.5 85.5 -36.5c100.667 0 197.667 81 291 243c85.333 147.333 128 280.333 128 399
c0 48 -11 83.333 -33 106zM743 865.999c15.333 -14.667 27.333 -33.998 36 -57.998l5 -14l22 76c2.66699 8.66699 5 14.5 7 17.5s6.66699 4.83301 14 5.5l113 13c6 0 9.5 -1.16699 10.5 -3.5s0.833008 -6.5 -0.5 -12.5c-2.66699 -8.66699 -4.66699 -15.5 -6 -20.5l-6 -21.5
l-92 -358l-51 -202c-24.667 -102.667 -37 -161.334 -37 -176.001c0 -9.33301 2.5 -16.166 7.5 -20.499s11.167 -6.5 18.5 -6.5c6 0 12.5 2 19.5 6s15.5 10 25.5 18l17 14l18 16.5l24 23.5l62 64l24 -21c-69.333 -88.667 -125 -148.834 -167 -180.501s-82 -47.5 -120 -47.5
c-24.667 0 -43.834 8.66699 -57.501 26s-20.5 39 -20.5 65c0 24 4.5 58.5 13.5 103.5s17.833 82.833 26.5 113.5c-12 -20 -32.167 -49.167 -60.5 -87.5s-63.166 -75.5 -104.499 -111.5c-48.667 -43.333 -95.334 -74 -140.001 -92c-34.667 -12 -68 -18 -100 -18
c-54 0 -103 22.167 -147 66.5s-66 107.166 -66 188.499c0 140 62.667 286 188 438c129.333 158 263.333 237 402 237c52.667 0 93.334 -13.667 122.001 -41z" />
    <glyph glyph-name="b" unicode="b" 
d="M346 1199c4 14.667 6.83301 27.8311 8.5 39.498s2.5 21.5 2.5 29.5c0 8.66699 -2.16699 17.167 -6.5 25.5s-14.5 14.833 -30.5 19.5c-4.66699 1.33301 -12.5 2.33301 -23.5 3s-34.833 2 -71.5 4v35c21.333 3.33301 44.5 6.33301 69.5 9s58.833 7.33398 101.5 14.001
c4.66699 0.666992 24.834 5 60.501 13s61.167 12 76.5 12c3.33301 0 6.5 -1.33301 9.5 -4s4.5 -6.66699 4.5 -12l-2 -13l-199 -756c60 85.333 111 147.333 153 186c73.333 67.333 149 101 227 101c73.333 0 132.166 -24.167 176.499 -72.5s66.5 -108.166 66.5 -179.499
c0 -166 -72.333 -321.333 -217 -466c-140.667 -140.667 -286.334 -211 -437.001 -211c-68.667 0 -131.667 15.333 -189 46c-57.333 30 -83.666 54 -78.999 72zM656 252.997c92.667 138 138.999 264.334 138.999 379.001c0 52 -13.667 93.5 -41 124.5
s-61.666 46.5 -102.999 46.5c-106 0 -207.333 -94.667 -304 -284c-84 -164.667 -126 -301.334 -126 -410.001c0 -26 8.33301 -46.833 25 -62.5s43 -23.5 79 -23.5c118 0 228.333 76.667 331 230z" />
    <glyph glyph-name="c" unicode="c" horiz-adv-x="909" 
d="M816 848c36 -36.667 54.001 -72.333 54.001 -107c0 -31.333 -9.33301 -55.666 -28 -72.999s-40.667 -26 -66 -26c-24.667 0 -45.334 7.66699 -62.001 23s-25 34.333 -25 57c0 17.333 5.5 36 16.5 56s16.5 33 16.5 39c0 12 -6.83301 22.167 -20.5 30.5
s-35.5 12.5 -65.5 12.5c-107.333 0 -200.5 -61 -279.5 -183s-118.5 -250 -118.5 -384c0 -75.333 16 -134.333 48 -177s80 -64 144 -64c51.333 0 101.166 14.833 149.499 44.5s92.833 67.5 133.5 113.5l7 8l29 -22c-46.667 -59.333 -91.667 -105 -135 -137
c-76.667 -55.333 -161.667 -83 -255 -83c-89.333 0 -161.666 28.5 -216.999 85.5s-83 134.833 -83 233.5c0 151.333 61.667 290.666 185 417.999c122 126.667 254 190 396 190c81.333 0 140 -18.333 176 -55z" />
    <glyph glyph-name="d" unicode="d" 
d="M236 125.5c18.667 -30.333 50.333 -45.501 95 -45.501c95.333 0 187 76.667 275 230c82.667 144 124 280.333 124 409c0 40.667 -6.66699 74.334 -20 101.001s-40.333 40 -81 40c-101.333 0 -199.333 -82 -294 -246c-84.667 -146.667 -127 -274 -127 -382
c0 -40.667 9.33301 -76.167 28 -106.5zM729.999 868.999c12.667 -14.667 22.6709 -39.667 30.0039 -75l114 410c3.33301 11.333 5.5 21.5 6.5 30.5s1.5 16.833 1.5 23.5c0 26 -4.83301 42.333 -14.5 49s-23.5 10 -41.5 10c-11.333 0 -21.833 -0.333008 -31.5 -1
s-22.5 -1.66699 -38.5 -3v33c75.333 10 179.666 27.333 312.999 52l9 -10l-2 -11l-192 -719l-131 -476c-2.66699 -10.667 -4.83398 -20.5 -6.50098 -29.5s-2.5 -17.167 -2.5 -24.5c0 -18 4.5 -29.667 13.5 -35s16.833 -8 23.5 -8c19.333 0 46.666 17 81.999 51
c20.667 20.667 49 52.667 85 96l23 -22l-14 -21c-24.667 -36.667 -56.334 -74 -95.001 -112c-68.667 -67.333 -130.334 -101 -185.001 -101c-18 0 -34.333 4 -49 12c-27.333 16 -41 44.667 -41 86c0 14 2 36.333 6 67s10 64 18 100
c-50.667 -77.333 -106.167 -140.666 -166.5 -189.999s-126.166 -74 -197.499 -74c-58 0 -108.667 20.667 -152 62s-65 105 -65 191c0 145.333 66.667 294.666 200 447.999c132.667 152.667 262 229 388 229c52.667 0 90 -12.667 112 -38z" />
    <glyph glyph-name="e" unicode="e" horiz-adv-x="909" 
d="M264 695c132 138.667 268.333 207.999 409 207.999c52 0 93.333 -12 124 -36s46 -59.667 46 -107c0 -96 -56.167 -178.167 -168.5 -246.5s-230.5 -110.166 -354.5 -125.499l-57 -7c-8.66699 -27.333 -14.667 -49.166 -18 -65.499s-5 -36.833 -5 -61.5
c0 -58.667 19.167 -104.334 57.5 -137.001s83.833 -49 136.5 -49c50 0 103 16.667 159 50c32 19.333 78.333 54 139 104l26 -23c-30 -38 -73 -77 -129 -117c-99.333 -71.333 -199 -107 -299 -107c-70.667 0 -132.667 25 -186 75s-80 121.667 -80 215
c0 148 66.667 291.333 200 430zM588 560.499c80 71 120 141.5 120 211.5c0 25.333 -6 45.5 -18 60.5s-29.667 22.5 -53 22.5c-43.333 0 -85.833 -18.5 -127.5 -55.5s-79.167 -78.833 -112.5 -125.5c-35.333 -54.667 -63.333 -107 -84 -157
c-11.333 -26.667 -23.333 -57 -36 -91c127.333 18.667 231 63.5 311 134.5z" />
    <glyph glyph-name="f" unicode="f" horiz-adv-x="569" 
d="M845 1201c-14.667 -18.667 -35.0039 -28 -61.0039 -28c-22.667 0 -41.334 7.16699 -56.001 21.5s-22 31.166 -22 50.499c0 13.333 6.33301 36.333 19 69c0 8.66699 -4.33301 16.334 -13 23.001c-8.66699 6 -20 9 -34 9c-65.333 0 -120 -53.667 -164 -161
c-24.667 -62 -52.334 -166.333 -83.001 -313h223l-14 -67h-223l-147 -649c-39.333 -174 -92.166 -314.667 -158.499 -422s-151.166 -161 -254.499 -161c-47.333 0 -86.166 13 -116.499 39s-45.5 55 -45.5 87c0 20 6.5 38.667 19.5 56s32.5 26 58.5 26
c22.667 0 41.834 -7.5 57.501 -22.5s23.5 -33.5 23.5 -55.5c0 -12 -3.5 -24.167 -10.5 -36.5s-10.5 -20.833 -10.5 -25.5c0 -6 3.83301 -11 11.5 -15s17.5 -6 29.5 -6c56.667 0 104.667 44.667 144 134c20.667 46.667 39.667 111 57 193l181 858h-185l14 67h189
c40.667 155.333 86.334 270.333 137.001 345c75.333 114.667 168.333 172 279 172c50.667 0 92.834 -13 126.501 -39s50.5 -55.667 50.5 -89c0 -21.333 -7.33301 -41.333 -22 -60z" />
    <glyph glyph-name="g" unicode="g" 
d="M374 413c21.333 -40.667 59.668 -61.001 115.001 -61.001c60 0 113.5 38.167 160.5 114.5s70.5 160.5 70.5 252.5c0 44 -9.66699 78.5 -29 103.5s-48.333 37.5 -87 37.5c-74.667 0 -134.834 -39.667 -180.501 -119s-68.5 -155.666 -68.5 -228.999
c0 -41.333 6.33301 -74.333 19 -99zM587.502 -323.001c52.333 38 78.502 83.332 78.502 135.999c0 40 -13.667 73.667 -41 101c-14.667 14.667 -38.334 30.334 -71.001 47.001c-27.333 13.333 -73.5 32.5 -138.5 57.5s-102.5 37.5 -112.5 37.5
c-17.333 0 -51 -23.167 -101 -69.5s-75 -98.833 -75 -157.5c0 -88.667 38.333 -149.667 115 -183c40 -17.333 89.333 -26 148 -26c79.333 0 145.166 19 197.499 57zM73.5039 -54.502c38.333 45 99.1709 89.832 182.504 134.499
c-16.667 10.667 -30.334 21.834 -41.001 33.501s-16 27.167 -16 46.5c0 27.333 19 58.666 57 93.999c21.333 20 56 46.333 104 79c-42.667 16 -79.334 38.667 -110.001 68c-37.333 39.333 -56 90.333 -56 153c0 100.667 39.333 184.334 118 251.001s176 100 292 100
c60.667 0 112 -9.5 154 -28.5s66.667 -34.833 74 -47.5h135v-80h-102c4 -14.667 7 -28 9 -40s3 -29 3 -51c0 -108 -41.833 -193 -125.5 -255s-173.834 -93 -270.501 -93c-10 0 -19.333 0.5 -28 1.5s-19.334 2.83301 -32.001 5.5c-10 0 -23.667 -9.66699 -41 -29
c-18 -19.333 -27 -36.666 -27 -51.999c0 -22.667 73.333 -61.334 220 -116.001c146 -55.333 219 -136.333 219 -243c0 -80 -36.667 -150.167 -110 -210.5s-184 -90.5 -332 -90.5c-102.667 0 -184 22 -244 66s-90 97.667 -90 161c0 50 19.167 97.5 57.5 142.5z" />
    <glyph glyph-name="h" unicode="h" 
d="M227 1341l103.505 14.5c26.333 3.66699 49.166 7.16699 68.499 10.5c78.667 15.333 121 23.666 127 24.999s10.667 2 14 2c8 -4 12 -9 12 -15l-235 -893c84 124 152.667 214.667 206 272c93.333 98.667 179 148 257 148c32 0 62.833 -10.167 92.5 -30.5
s44.5 -56.833 44.5 -109.5c0 -12.667 -1.66699 -29 -5 -49s-7.33301 -37.667 -12 -53l-135 -479c-4 -13.333 -7.33301 -26.166 -10 -38.499s-4 -23.5 -4 -33.5c0 -11.333 2.66699 -19.833 8 -25.5s13 -8.5 23 -8.5c20.667 0 45 14.333 73 43
c17.333 18 49.666 57.333 96.999 118l26 -24c-46.667 -69.333 -86.334 -120 -119.001 -152c-58 -56.667 -116.333 -85 -175 -85c-26.667 0 -49 8.33301 -67 25s-27 40.667 -27 72c0 8.66699 0.5 16.834 1.5 24.501s2.83301 16.167 5.5 25.5l154 586
c1.33301 5.33301 2.5 10.833 3.5 16.5s1.5 11.5 1.5 17.5c0 16.667 -5 29.667 -15 39c-10.667 9.33301 -24.334 14 -41.001 14c-44.667 0 -101 -35.833 -169 -107.5s-125.333 -144.834 -172 -219.501c-32 -52.667 -56.167 -102.334 -72.5 -149.001s-47.833 -154 -94.5 -322
h-155l320 1213c2 8.66699 3.33301 16 4 22s1 11.667 1 17c0 28.667 -9.33301 45.834 -28 51.501s-54.334 7.16699 -107.001 4.5v33z" />
    <glyph glyph-name="i" unicode="i" horiz-adv-x="569" 
d="M370 1157c-19.333 21.333 -29 47 -29 77c0 30.667 9.66699 56.667 29 78s42.666 32 69.999 32s50.833 -10.667 70.5 -32s29.5 -47.333 29.5 -78s-9.83301 -56.5 -29.5 -77.5s-43.167 -31.5 -70.5 -31.5s-50.666 10.667 -69.999 32zM469 898l-201.999 -714.002
c-9.33301 -38 -14 -60.667 -14 -68c0 -10 2 -18.667 6 -26c3.33301 -8 11.666 -12 24.999 -12c22.667 0 52.667 19.667 90 59c22 23.333 49 56.666 81 99.999l26 -22l-10 -14c-50 -70 -91.333 -120.333 -124 -151c-51.333 -48 -101.333 -72 -150 -72
c-28.667 0 -52.5 12 -71.5 36s-28.5 52.333 -28.5 85c0 19.333 1.33301 36.166 4 50.499s7.66699 35.5 15 63.5l140 514c2 8 3.66699 15.333 5 22s2 13.334 2 20.001c0 24 -8.83301 38.833 -26.5 44.5s-52.5 8.5 -104.5 8.5v33c55.333 6.66699 95.166 11.834 119.499 15.501
l73.5 11.5c32 5.33301 62.333 11.333 91 18s44.834 8.83398 48.501 6.50098s5.16699 -5.16602 4.5 -8.49902z" />
    <glyph glyph-name="j" unicode="j" horiz-adv-x="569" 
d="M562 1152.5c-20 -21 -43 -31.501 -69 -31.501c-27.333 0 -50.833 10.667 -70.5 32s-29.5 47 -29.5 77c0 31.333 9.83301 57.333 29.5 78s43.167 31 70.5 31c28 0 51.5 -10.667 70.5 -32s28.5 -45.666 28.5 -72.999c0 -33.333 -10 -60.5 -30 -81.5zM-86 -229.501
c16 -13.667 24.0039 -30.5 24.0039 -50.5c0 -12 -4.33301 -26 -13 -42s-13 -26 -13 -30c0 -10 4.33301 -16.5 13 -19.5s17.667 -4.5 27 -4.5c44 0 79.833 29 107.5 87s57.5 152.667 89.5 284l178 730l5.5 27.5c1 5 1.5 10.167 1.5 15.5c0 23.333 -7.16699 38.5 -21.5 45.5
s-32.833 10.5 -55.5 10.5c-14 0 -26.5 -0.333008 -37.5 -1s-24.167 -1.66699 -39.5 -3v35c34 4 66.167 8 96.5 12s52.166 7 65.499 9c8.66699 1.33301 38 7.5 88 18.5s80.667 16.5 92 16.5c5.33301 0 8.16602 -1.33301 8.49902 -4s0.166016 -6.33398 -0.500977 -11.001
l-210 -835c-40.667 -161.333 -92.334 -282.166 -155.001 -362.499s-139.334 -120.5 -230.001 -120.5c-49.333 0 -89.666 11.5 -120.999 34.5s-47 51.167 -47 84.5c0 26.667 8.66699 49 26 67s38 27 62 27c23.333 0 43 -6.83301 59 -20.5z" />
    <glyph glyph-name="k" unicode="k" horiz-adv-x="909" 
d="M28 0l319.998 1213c1.33301 6 2.5 11.833 3.5 17.5s1.5 11.5 1.5 17.5c0 29.333 -8.5 47 -25.5 53s-53.5 8.33301 -109.5 7v33c38 4.66699 74.667 9.5 110 14.5s62.666 9.16699 81.999 12.5l69 15c40 8.66699 62 13 66 13l2 -10l-251 -938
c150.667 118.667 252.667 201.667 306 249s80 83 80 107c0 16 -7.16699 26 -21.5 30s-45.166 7 -92.499 9v34h375v-34c-49.333 -2.66699 -95 -18.667 -137 -48s-149.667 -118.333 -323 -267c90.667 -211.333 147.334 -338.5 170.001 -381.5s45.667 -64.5 69 -64.5
c20 0 41 14 63 42c14.667 18 35.667 50.667 63 98l31 -21c-42.667 -78 -80.5 -135 -113.5 -171s-71.167 -54 -114.5 -54c-28 0 -53.333 10.833 -76 32.5s-53 72.167 -91 151.5c-15.333 30.667 -33.166 69.334 -53.499 116.001s-41.5 99 -63.5 157l-93 -68l-92 -365h-154z
" />
    <glyph glyph-name="l" unicode="l" horiz-adv-x="569" 
d="M372 1213c2.66699 8.66699 4.33105 17.334 4.99805 26.001s1 15.667 1 21c0 22.667 -9.16699 36.5 -27.5 41.5s-54.833 7.16699 -109.5 6.5v33l103.5 14c39 5.33301 64.5 9 76.5 11c37.333 6.66699 82.666 16.667 135.999 30c4.66699 0 9.33398 -3.33301 14.001 -10
l-315 -1202c-7.33301 -28.667 -11.666 -46 -12.999 -52s-2 -12 -2 -18c0 -12.667 2.33301 -23.5 7 -32.5s13.334 -13.5 26.001 -13.5c24 0 55.333 21.333 94 64s71.334 84 98.001 124l27 -19c-57.333 -84.667 -102 -143.334 -134 -176.001
c-55.333 -55.333 -111 -83 -167 -83c-24 0 -45.333 6 -64 18c-28.667 18 -43 48.667 -43 92c0 16.667 2.66699 39 8 67c3.33301 16.667 7.66602 36 12.999 58z" />
    <glyph glyph-name="m" unicode="m" horiz-adv-x="1479" 
d="M833 883c32 -22 47.9971 -58.3311 47.9971 -108.998c0 -22.667 -5.5 -54.167 -16.5 -94.5s-30.833 -105.166 -59.5 -194.499c74 113.333 137.667 199.666 191 258.999c96.667 107.333 182 161 256 161c31.333 0 60 -10.667 86 -32s39 -55.666 39 -102.999
c0 -14.667 -6.33301 -50.334 -19 -107.001l-147 -545c-2.66699 -8.66699 -1.66699 -17.5 3 -26.5s13.334 -13.5 26.001 -13.5c12 0 22.5 3 31.5 9s20.5 16 34.5 30c13.333 13.333 24.166 25 32.499 35l71.5 87l31 -24l-10 -14c-48 -68 -96.333 -122.167 -145 -162.5
s-96.667 -60.5 -144 -60.5c-21.333 0 -39.333 5.33301 -54 16c-22.667 17.333 -34 46.333 -34 87c0 10 0.833008 20.667 2.5 32s4.16699 24 7.5 38l144 560c2 8 3.5 14.667 4.5 20s1.5 10.666 1.5 15.999c0 16 -4.16699 28.333 -12.5 37s-18.833 13 -31.5 13
c-44.667 0 -96.667 -33.667 -156 -101s-111 -135.666 -155 -204.999c-40 -70.667 -68.167 -129.834 -84.5 -177.501s-46.166 -152.167 -89.499 -313.5h-155l190 711c1.33301 6 2.5 11.833 3.5 17.5s1.5 11.5 1.5 17.5c0 16 -3.5 28.5 -10.5 37.5s-18.5 13.5 -34.5 13.5
c-42 0 -93.833 -35 -155.5 -105s-112.167 -135.333 -151.5 -196c-38.667 -59.333 -75.667 -138.333 -111 -237c-21.333 -60 -49.666 -146.333 -84.999 -259h-154l195 711c2 7.33301 3.66699 14.333 5 21s2 13.667 2 21c0 26 -9 41.667 -27 47s-52.667 7 -104 5v34
c67.333 10.667 176.333 32.667 327 66l8 -7l-117 -413c74 109.333 144 200.666 210 273.999c90.667 97.333 170.667 146 240 146c26.667 0 50.334 -7.33301 71.001 -22z" />
    <glyph glyph-name="n" unicode="n" 
d="M37 0l172.999 617.999c14.667 52 23.167 83.5 25.5 94.5s3.5 22.833 3.5 35.5c0 19.333 -5.5 34.5 -16.5 45.5s-32.5 16.5 -64.5 16.5c-8 0 -15.833 -0.5 -23.5 -1.5l-25.5 -3.5v34c43.333 6.66699 74.166 11.667 92.499 15s38.166 7.33301 59.499 12l179 39
c4 -2.66699 6.66699 -5.66699 8 -9l-133 -430c81.333 124.667 149.333 217.334 204 278.001c96 107.333 182 161 258 161c29.333 0 54.666 -5.66699 75.999 -17c40.667 -22 61 -61.667 61 -119c0 -16 -1.66699 -32.667 -5 -50s-7.66602 -36 -12.999 -56l-131 -479
c-2.66699 -10 -5.66699 -22.167 -9 -36.5s-5 -24.5 -5 -30.5c0 -10 2.33301 -19 7 -27s12.334 -12 23.001 -12c17.333 0 37.333 10.167 60 30.5s59.667 63.833 111 130.5l29 -26c-54.667 -74 -98 -126 -130 -156c-54.667 -52.667 -107 -79 -157 -79
c-22.667 0 -44.5 7.5 -65.5 22.5s-31.5 42.167 -31.5 81.5c0 11.333 0.833008 23.333 2.5 36s3.83398 23.667 6.50098 33l126 486c6.66699 26.667 11.167 48.5 13.5 65.5s3.5 29.167 3.5 36.5c0 16 -3.83301 29.833 -11.5 41.5s-21.167 17.5 -40.5 17.5
c-50 0 -113 -45.333 -189 -136c-44.667 -54 -90 -118.333 -136 -193c-35.333 -58 -63.166 -114.5 -83.499 -169.5s-52.5 -154.833 -96.5 -299.5h-155z" />
    <glyph glyph-name="o" unicode="o" 
d="M268.5 77.5c27.667 -36.333 68.167 -54.501 121.5 -54.501c108.667 0 205 82 289 246c71.333 140.667 107 270 107 388c0 50 -6 90.333 -18 121c-23.333 58 -66 87 -128 87c-102 0 -197.667 -76.333 -287 -229c-84 -142.667 -126 -283 -126 -421
c0 -55.333 13.833 -101.166 41.5 -137.499zM888 817.499c46 -59.667 69 -130.167 69 -211.5c0 -141.333 -62.333 -280 -187 -416c-128.667 -141.333 -266 -212 -412 -212c-92 0 -165.667 26.667 -221 80s-83 128.333 -83 225c0 146 62 285.667 186 419
c126.667 136.667 263.667 205 411 205c112 0 191 -29.833 237 -89.5z" />
    <glyph glyph-name="p" unicode="p" 
d="M-157 -389c40 0 70.166 7.49609 90.499 22.4961s35.166 40.5 44.499 76.5l254 975c6.66699 24 10.834 41.333 12.501 52s2.5 19 2.5 25c0 22 -8.16699 38.333 -24.5 49s-40.166 16 -71.499 16c-6.66699 0 -13 -0.166992 -19 -0.5s-12.333 -1.16602 -19 -2.49902l-2 34
l318 47c4 0.666992 7 -1.66602 9 -6.99902c-2 -9.33301 -3.66699 -16.333 -5 -21l-54 -195c45.333 60 87 105.667 125 137c68.667 57.333 140 86 214 86c75.333 0 134.5 -22.167 177.5 -66.5s64.5 -112.166 64.5 -203.499c0 -156.667 -66.333 -306 -199 -448
c-131.333 -140.667 -267.666 -211 -408.999 -211c-28 0 -51.667 2.66699 -71 8s-43 14.333 -71 27l-14 -59l-34 -147c-17.333 -76.667 -26 -120 -26 -130c0 -27.333 8.66699 -44.666 26 -51.999s51.666 -12.333 102.999 -15v-30h-422v33zM759.999 741.996
c-20.667 48.667 -59.333 73 -116 73c-48.667 0 -101.667 -23 -159 -69s-102.666 -120.667 -135.999 -224c-26.667 -84 -51.667 -171.833 -75 -263.5s-35 -145.5 -35 -161.5c0 -26 10.5 -45.167 31.5 -57.5s46.167 -18.5 75.5 -18.5c117.333 0 220.666 74.333 309.999 223
c80 132.667 120 264.334 120 395.001c0 43.333 -5.33301 77.666 -16 102.999z" />
    <glyph glyph-name="q" unicode="q" 
d="M760 869c15.333 -14.667 31.333 -42.332 48 -82.999l31 91h149l-334 -1186l-2 -10.5c-0.666992 -3.66699 -1 -7.16699 -1 -10.5c0 -26.667 13 -44 39 -52c17.333 -4.66699 54.333 -7 111 -7v-38h-493v33c68 7.33301 113.833 16.666 137.5 27.999s41.834 38.333 54.501 81
l175 590c-70 -100.667 -127.667 -172.334 -173 -215.001c-79.333 -75.333 -161 -113 -245 -113c-47.333 0 -94.5 19.5 -141.5 58.5s-70.5 104.5 -70.5 196.5c0 144.667 67.333 293.334 202 446.001c135.333 152.667 267.666 229 396.999 229c51.333 0 90 -12.667 116 -38z
M738.5 828.002c-25.667 21.333 -52.5 32 -80.5 32c-97.333 0 -195 -75.667 -293 -227c-91.333 -142 -137 -270 -137 -384c0 -60 12.5 -101.667 37.5 -125s51.833 -35 80.5 -35c92.667 0 188.667 77.667 288 233c95.333 148 143 279.667 143 395
c0 52.667 -12.833 89.667 -38.5 111z" />
    <glyph glyph-name="r" unicode="r" horiz-adv-x="797" 
d="M429.5 904.5c2.33301 -3.66699 3.50293 -7.83008 3.50293 -12.4971c-0.666992 -6.66699 -1.33398 -11.667 -2.00098 -15l-100 -387l22 43c48 94 104.167 179.833 168.5 257.5s125.5 116.5 183.5 116.5c31.333 0 55.5 -10.333 72.5 -31s25.5 -44.334 25.5 -71.001
c0 -30 -8.5 -54.833 -25.5 -74.5s-40.5 -29.5 -70.5 -29.5c-20.667 0 -36.334 4 -47.001 12s-19 17.333 -25 28l-12 22c-2.66699 4 -5.83398 7.16699 -9.50098 9.5s-8.16699 3.5 -13.5 3.5c-26 0 -63.5 -36.333 -112.5 -109s-92.833 -151.334 -131.5 -236.001
c-23.333 -51.333 -49.333 -119.333 -78 -204c-18 -53.333 -42 -129 -72 -227h-154l166 602c9.33301 34.667 16.833 65.667 22.5 93s8.5 49.666 8.5 66.999c0 20 -5 35.333 -15 46s-27.333 16 -52 16c-8 0 -18 -0.666992 -30 -2l-43 -5v33l40 8l170.5 34
c61.667 12 94.167 18 97.5 18c6 0 10.167 -1.83301 12.5 -5.5z" />
    <glyph glyph-name="s" unicode="s" horiz-adv-x="797" 
d="M73 298l32.9951 -0.000976562c14.667 -80.667 32 -139.667 52 -177c36.667 -68.667 91.334 -103 164.001 -103c40.667 0 74.834 14.333 102.501 43s41.5 66.667 41.5 114c0 29.333 -3.5 53.333 -10.5 72s-15.833 35.667 -26.5 51l-83 123
c-50 74.667 -81.333 124.667 -94 150c-19.333 38 -29 76 -29 114c0 58 20.833 109.167 62.5 153.5s100.834 66.5 177.501 66.5c32.667 0 70 -6.16699 112 -18.5s70.667 -18.5 86 -18.5c16.667 0 29 3.33301 37 10s15.333 15.667 22 27h29l-41 -284h-33
c-8.66699 64.667 -21.667 113.334 -39 146.001c-32 60.667 -82.667 91 -152 91c-29.333 0 -55.5 -9.16699 -78.5 -27.5s-34.5 -45.166 -34.5 -80.499c0 -27.333 5.16699 -51.333 15.5 -72s33.833 -57.334 70.5 -110.001l71 -102c36.667 -52.667 62.667 -95.667 78 -129
s23 -69.333 23 -108c0 -72 -30.667 -132.667 -92 -182s-134.333 -74 -219 -74c-27.333 0 -66.333 5.66699 -117 17s-80 17 -88 17c-13.333 0 -23.166 -3 -29.499 -9s-12.166 -15 -17.499 -27h-33z" />
    <glyph glyph-name="t" unicode="t" horiz-adv-x="569" 
d="M78 84.5c0.666992 7 2 14.1641 4 21.4971l188 699h-152c0 18 1.33301 29.333 4 34s9.33398 9.33398 20.001 14.001c67.333 28.667 119.5 56.334 156.5 83.001s87.5 78 151.5 154l16 19c2 2.66699 4.5 4.83398 7.5 6.50098s6.16699 2.5 9.5 2.5
c6.66699 -1.33301 11.334 -2.66602 14.001 -3.99902c2 -4.66699 3.16699 -8.83398 3.5 -12.501s0.166016 -7.5 -0.500977 -11.5l-57 -218h163l-12 -67h-170l-180 -673c-3.33301 -12 -2.33301 -23.5 3 -34.5s14.333 -16.5 27 -16.5c17.333 0 41.666 17.333 72.999 52
c18 18.667 48.333 55.667 91 111l26 -15l-14 -21c-57.333 -86 -107.833 -145.833 -151.5 -179.5s-85.167 -50.5 -124.5 -50.5c-34 0 -58.667 9 -74 27s-23 38.333 -23 61c0 5.33301 0.333008 11.5 1 18.5z" />
    <glyph glyph-name="u" unicode="u" 
d="M234 722c1.33301 6.66699 2.50195 12.8311 3.50195 18.498s1.5 11.5 1.5 17.5c0 28.667 -8.5 46.167 -25.5 52.5s-48.833 9.5 -95.5 9.5v28l147 29l159 30c3.33301 0.666992 6.33301 -0.666016 9 -3.99902s3.66699 -6.66602 3 -9.99902l-3 -14l-177 -680
c-4.66699 -16.667 -8 -29.667 -10 -39s-3 -16 -3 -20c0 -15.333 4.33301 -27.333 13 -36s20 -13 34 -13c39.333 0 88.5 35 147.5 105s111.5 142.667 157.5 218c41.333 67.333 79.333 142.333 114 225c21.333 51.333 52 133 92 245h151l-189 -709l-9 -37
c-2.66699 -11.333 -4 -20.666 -4 -27.999c0 -8.66699 2 -16.167 6 -22.5s11 -9.5 21 -9.5s20.333 3.83301 31 11.5s24 19.5 40 35.5c7.33301 7.33301 20.666 23 39.999 47l55 67l28 -19c-30.667 -50.667 -62.667 -94.334 -96 -131.001c-66 -74 -127.333 -111 -184 -111
c-29.333 0 -53.333 8 -72 24s-28 41 -28 75c0 17.333 1.66699 36.333 5 57s8.66602 44 15.999 70l46 175l22 85h-7c-92 -152.667 -164.333 -260.667 -217 -324c-91.333 -108.667 -177.666 -163 -258.999 -163c-22 0 -42 4.66699 -60 14c-34.667 18.667 -52 52 -52 100
c0 14 0.666992 25.333 2 34s3.66602 20.667 6.99902 36z" />
    <glyph glyph-name="v" unicode="v" horiz-adv-x="909" 
d="M842 863c20 -26.667 30.001 -57.002 30.001 -91.002c0 -90 -89 -247.667 -267 -473c-168.667 -214 -269.667 -321 -303 -321c-10 0 -16.667 13.667 -20 41c-2 15.333 -3 41.333 -3 78c0 44.667 -4.33301 120.334 -13 227.001s-17 185.667 -25 237
c-16.667 112.667 -33 185.334 -49 218.001s-46.333 49 -91 49c-7.33301 0 -15.833 -0.333008 -25.5 -1s-20.834 -1.66699 -33.501 -3v26c20 4 62 13 126 27s98 21.667 102 23l33 10c9.33301 2.66699 16.666 -2.5 21.999 -15.5s12 -37.167 20 -72.5
c25.333 -116 44.333 -230.333 57 -343c8 -70 16 -173.667 24 -311l33 35c68.667 72.667 137.334 159 206.001 259s103 170.667 103 212c0 20.667 -15 45.5 -45 74.5s-45 55.5 -45 79.5c0 22 7.5 40 22.5 54s33.5 21 55.5 21c37.333 0 66 -13.333 86 -40z" />
    <glyph glyph-name="w" unicode="w" horiz-adv-x="1366" 
d="M1246 561c-30 -51.333 -72.334 -113.665 -127.001 -186.998l-173 -223c-94 -116 -149.333 -174 -166 -174c-7.33301 0 -12 3 -14 9s-4.66699 26.333 -8 61l-59 623l-415 -680c-2 -4 -4.5 -6.66699 -7.5 -8s-6.16699 -2 -9.5 -2l-14 3l-2 9l-12 247
c-2.66699 55.333 -6.5 112.5 -11.5 171.5s-9.83301 110.167 -14.5 153.5c-14 120.667 -28.833 194.667 -44.5 222s-44.5 41 -86.5 41c-8 0 -16 -0.166992 -24 -0.5s-16.333 -1.16602 -25 -2.49902v29c27.333 4.66699 53.5 9.66699 78.5 15l82.5 18l94 24
c22.667 0 45.667 -95 69 -285c12.667 -104 24 -222.333 34 -355l393 621c2.66699 5.33301 6 9.83301 10 13.5s8.66699 5.5 14 5.5c6 0 10 -2 12 -6s3.33301 -10 4 -18l67 -723l111 141.5c69.333 88.333 105.666 135.166 108.999 140.499c50 72 83.333 127.667 100 167
c10.667 25.333 16 50 16 74c0 9.33301 -1.33301 18.166 -4 26.499s-9 17.166 -19 26.499l-31 29c-8.66699 8.66699 -16.167 18.167 -22.5 28.5s-9.5 22.5 -9.5 36.5c0 16.667 5.83301 33.667 17.5 51s32.834 26 63.501 26c24.667 0 48.334 -9.83301 71.001 -29.5
s34 -52.167 34 -97.5c0 -56 -27 -130 -81 -222z" />
    <glyph glyph-name="x" unicode="x" horiz-adv-x="909" 
d="M-33 123.5c16 11 32.3359 16.5 49.0029 16.5c8 0 16 -1.16699 24 -3.5s16.667 -6.16602 26 -11.499l35 -19c4.66699 -2.66699 9.16699 -4.5 13.5 -5.5s9.16602 -1.5 14.499 -1.5c16.667 0 29.5 4.16699 38.5 12.5s32.167 37.5 69.5 87.5
c24.667 32.667 80.667 112.334 168 239.001c0 4.66699 -7.66699 40.5 -23 107.5s-29.333 123.833 -42 170.5c-12.667 47.333 -24 78.5 -34 93.5s-28.667 22.5 -56 22.5c-9.33301 0 -27.666 -3.33301 -54.999 -10c-17.333 -4 -36 -8.66699 -56 -14l-9 31l111 38
c28.667 10 55.167 18 79.5 24s45.166 9 62.499 9c28 0 49 -8.33301 63 -25c21.333 -26.667 39.333 -79.334 54 -158.001l21 -114c60 92 106.667 156.667 140 194c30 34 58.333 59.333 85 76s52 25 76 25c22.667 0 41 -3.33301 55 -10c25.333 -12 38 -34.667 38 -68
c0 -22.667 -6.33301 -40.334 -19 -53.001s-29 -19 -49 -19c-7.33301 0 -14.333 0.833008 -21 2.5s-13.667 4.16699 -21 7.5l-26 11c-7.33301 3.33301 -14.333 6.16602 -21 8.49902s-11.667 3.5 -15 3.5c-30 0 -71.667 -38.833 -125 -116.5s-80 -122.5 -80 -134.5
c0 -10 6.16699 -42.5 18.5 -97.5l40.5 -174.5c13.333 -58 24.666 -98 33.999 -120c15.333 -36 32.666 -54 51.999 -54c18 0 36.333 10 55 30s46.667 56 84 108l28 -17c-28.667 -52 -58.334 -96.333 -89.001 -133c-58 -69.333 -113.333 -104 -166 -104
c-33.333 0 -59.666 16 -78.999 48c-11.333 18.667 -22.333 49.334 -33 92.001l-62 247l-205 -269c-40 -46.667 -70.833 -78 -92.5 -94s-48.5 -24 -80.5 -24c-42.667 0 -71.667 13.333 -87 40c-8.66699 14 -13 30.667 -13 50c0 26 8 44.5 24 55.5z" />
    <glyph glyph-name="y" unicode="y" horiz-adv-x="909" 
d="M-33 -277c13.333 15.333 32.666 23.0029 57.999 23.0029c16.667 0 31.334 -3.16699 44.001 -9.5s26 -15.5 40 -27.5l14 -10c4 -3.33301 8.5 -5.83301 13.5 -7.5s10.5 -2.5 16.5 -2.5c32.667 0 85.167 43.167 157.5 129.5s108.5 149.166 108.5 188.499
c0 37.333 -12.5 110.666 -37.5 219.999s-49.167 206.666 -72.5 291.999c-32.667 120 -62.5 201.333 -89.5 244s-66.833 64 -119.5 64c-4 0 -10.833 -0.5 -20.5 -1.5s-26.167 -2.83301 -49.5 -5.5v33l273 52l21 2c16.667 2 48.667 -73 96 -225
c42.667 -136.667 69.334 -236 80.001 -298l40 -238c70 117.333 121.333 207.333 154 270c64 123.333 96 209.666 96 258.999c0 11.333 -2 22.5 -6 33.5s-13.333 20.5 -28 28.5l-17 9c-10.667 5.33301 -23.167 15.333 -37.5 30s-21.5 34.334 -21.5 59.001
c0 20.667 6.66699 38 20 52s33.333 21 60 21c33.333 0 60.333 -9.83301 81 -29.5s31 -53.167 31 -100.5c0 -71.333 -39 -186 -117 -344c-60 -120.667 -127 -237.667 -201 -351c-92.667 -141.333 -172.334 -250.333 -239.001 -327c-106 -120.667 -194 -181 -264 -181
c-27.333 0 -51.5 8.33301 -72.5 25s-31.5 39.334 -31.5 68.001c0 21.333 6.66699 39.666 20 54.999z" />
    <glyph glyph-name="z" unicode="z" horiz-adv-x="797" 
d="M777 853l-593.003 -704.002c42.667 -8.66699 76.334 -19 101.001 -31c42.667 -20.667 80.334 -52.334 113.001 -95.001l61 -80c14.667 -19.333 31.667 -35.666 51 -48.999s40.333 -20 63 -20c16.667 0 30.334 3.33301 41.001 10s16 14.667 16 24
c0 4.66699 -4.66699 16.834 -14 36.501s-14 38.167 -14 55.5c0 20.667 7.16699 36.5 21.5 47.5s30.166 16.5 47.499 16.5c24.667 0 43 -7.66699 55 -23s18 -34.666 18 -57.999c0 -36 -18.833 -70 -56.5 -102s-83.5 -48 -137.5 -48c-30.667 0 -60.667 5.33301 -90 16
c-17.333 6.66699 -38 16.667 -62 30l-121 68c-39.333 22 -71.5 37.833 -96.5 47.5s-50.5 14.5 -76.5 14.5c-18 0 -32.667 -2.66699 -44 -8s-26.666 -15.333 -45.999 -30l-22 19l638 763h-299c-45.333 0 -79.5 -8 -102.5 -24s-44.167 -48.333 -63.5 -97l-33 8l64 237h581v-24
z" />
    <glyph glyph-name="braceleft" unicode="{" horiz-adv-x="819" 
d="M-12 540c107.333 12 184.004 37.002 230.004 75.002s78.333 99 97 183l61 275c27.333 121.333 99.333 205.333 216 252c67.333 26.667 171.666 44 312.999 52l-12 -45c-122.667 -18.667 -210.334 -49 -263.001 -91s-88.334 -111.667 -107.001 -209l-35 -173
c-21.333 -148 -76.333 -242.333 -165 -283c-64 -34 -160 -58.667 -288 -74l-2 -5c65.333 -6 121 -17.667 167 -35c95.333 -36 143 -91.333 143 -166c0 -14.667 -0.666992 -29.334 -2 -44.001s-4.66602 -31.667 -9.99902 -51l-78 -282c-4 -14.667 -6.66699 -27.667 -8 -39
s-2 -21 -2 -29c0 -56 25 -99 75 -129c29.333 -17.333 78.666 -34 147.999 -50l-11 -45c-87.333 0 -161.333 10.333 -222 31c-100.667 34 -151 92.667 -151 176c0 14 1.16699 28.833 3.5 44.5s6.16602 32.167 11.499 49.5l85 309c2.66699 9.33301 4.5 18.166 5.5 26.499
s1.5 17.5 1.5 27.5c0 60 -25.667 104.333 -77 133c-29.333 16 -78 30 -146 42z" />
    <glyph glyph-name="bar" unicode="|" horiz-adv-x="563" 
d="M73 0l297 1393h121l-297 -1393h-121z" />
    <glyph glyph-name="braceright" unicode="}" horiz-adv-x="819" 
d="M817 464c-106.667 -12 -183.166 -36.8359 -229.499 -74.5029s-78.833 -98.834 -97.5 -183.501l-61 -275c-27.333 -121.333 -100 -205.333 -218 -252c-68 -27.333 -171.667 -44.666 -311 -51.999l12 45c117.333 12.667 202.666 43.334 255.999 92.001
s90.666 114 111.999 196l40 197c23.333 133.333 83.333 222.666 180 267.999c75.333 38.667 165.333 64.334 270 77.001l2 5c-90.667 10.667 -165 31 -223 61s-87 75.333 -87 136c0 17.333 0.833008 34 2.5 50s4.83398 32.333 9.50098 49l78 282
c4 14.667 6.66699 27.667 8 39s2 21 2 29c0 57.333 -26.667 101.333 -80 132c-38.667 21.333 -86.667 37 -144 47l12 45c86.667 0 160 -10 220 -30c101.333 -34 152 -93 152 -177c0 -15.333 -1.16699 -30.666 -3.5 -45.999s-5.83301 -31.333 -10.5 -48l-85 -308
c-2.66699 -9.33301 -4.5 -18.333 -5.5 -27s-1.5 -18 -1.5 -28c0 -61.333 27.333 -106.666 82 -135.999c30.667 -16.667 77.667 -29.667 141 -39z" />
    <glyph glyph-name="asciitilde" unicode="~" horiz-adv-x="1108" 
d="M574.5 574.5c133.667 -54.333 218.17 -81.499 253.503 -81.499c50.667 0 93 22.667 127 68c20 27.333 43.667 75.666 71 144.999h52c-34.667 -133.333 -74.834 -223.166 -120.501 -269.499s-99.5 -69.5 -161.5 -69.5c-34 0 -74 7 -120 21
c-30 9.33301 -68.333 23.666 -115 42.999l-135 57c-37.333 16 -68.333 27.5 -93 34.5s-45.667 10.5 -63 10.5c-52.667 0 -97.334 -26.333 -134.001 -79c-20.667 -30 -41 -74 -61 -132h-47c23.333 98.667 48.666 170.667 75.999 216c47.333 78.667 113.333 118 198 118
c48 0 138.833 -27.167 272.5 -81.5z" />
    <glyph glyph-name="nobreakspace" unicode="&#xa0;" horiz-adv-x="512" 
 />
    <glyph glyph-name="exclamdown" unicode="&#xa1;" horiz-adv-x="797" 
d="M629 786.5c-19.333 -22.333 -46 -33.502 -80 -33.502c-28 0 -53.167 10 -75.5 30s-33.5 45.333 -33.5 76c0 30 11 55.833 33 77.5s48.333 32.5 79 32.5c26.667 0 51 -9.66699 73 -29s33 -47.666 33 -84.999c0 -23.333 -9.66699 -46.166 -29 -68.499zM138 -214.502
c12.667 35 55.998 137.498 129.998 307.498c43.333 98.667 80.5 191.334 111.5 278.001s57.5 157.334 79.5 212.001l34 -7c-33.333 -148 -55.666 -250.333 -66.999 -307c-19.333 -90.667 -36 -179.667 -50 -267l-30 -185c-15.333 -94 -34.666 -157.167 -57.999 -189.5
s-51 -48.5 -83 -48.5c-28.667 0 -50.167 9.5 -64.5 28.5s-21.5 42.833 -21.5 71.5c0 36 6.33301 71.5 19 106.5z" />
    <glyph glyph-name="cent" unicode="&#xa2;" 
d="M445.5 644c-73 -125.333 -109.5 -241.001 -109.5 -347.001c0 -59.333 9.33301 -108.333 28 -147c10 -21.333 26 -43 48 -65l273 773c-86.667 -17.333 -166.5 -88.666 -239.5 -213.999zM786 1147l61.999 0.00292969l-85 -244c56 -6.66699 104.167 -23.667 144.5 -51
s60.5 -63.666 60.5 -108.999c0 -30.667 -9.16699 -55.167 -27.5 -73.5s-40.5 -27.5 -66.5 -27.5c-24 0 -44.667 8 -62 24s-26 34.667 -26 56c0 12.667 5.66699 30.167 17 52.5s17 37.166 17 44.499c0 12.667 -6.66699 22.5 -20 29.5s-31.333 10.833 -54 11.5l-280 -804
c13.333 -1.33301 23.833 -2.33301 31.5 -3s15.5 -1 23.5 -1c41.333 0 81 8.33301 119 25c58 25.333 114.667 69.666 170 132.999l7 8l29 -22c-68.667 -96 -149.667 -160.667 -243 -194c-50 -18.667 -105.667 -27.334 -167 -26.001l-93 -270h-64l100 279
c-58.667 18.667 -104 42.667 -136 72c-58.667 54 -88 131 -88 231c0 123.333 42.333 242.666 127 357.999c102.667 140 242.334 225.667 419.001 257z" />
    <glyph glyph-name="sterling" unicode="&#xa3;" 
d="M248.5 72c25 26 41.5 51.667 49.5 77c-20 16 -40 28.667 -60 38s-41.333 14 -64 14c-32.667 0 -59 -9.16699 -79 -27.5s-30 -40.5 -30 -66.5c0 -18.667 7.33301 -35.667 22 -51s39.667 -23 75 -23c32.667 0 61.5 13 86.5 39zM264 252.5
c16.667 -3.66699 37.665 -9.83496 62.998 -18.502l47 384l2 16c0.666992 5.33301 1.66699 12 3 20h-233l19 85h226c20.667 147.333 63 277.333 127 390c46 81.333 98.5 142.166 157.5 182.499s124.833 60.5 197.5 60.5c54.667 0 99.5 -15.167 134.5 -45.5
s52.5 -66.166 52.5 -107.499c0 -35.333 -8.16699 -58.5 -24.5 -69.5s-35.166 -16.5 -56.499 -16.5c-28 0 -46.833 7.83301 -56.5 23.5s-16.167 35.5 -19.5 59.5l-3 23c-2.66699 20.667 -8.66699 38.334 -18 53.001c-10 14 -29.667 21 -59 21
c-63.333 0 -109.166 -37 -137.499 -111s-65.833 -228.333 -112.5 -463h251l-14 -85h-258c-22.667 -102.667 -41.667 -177.667 -57 -225s-46.333 -119.333 -93 -216c24.667 -11.333 63.334 -25 116.001 -41c82 -24.667 147.667 -37 197 -37c37.333 0 70 4.16699 98 12.5
s54.667 22.166 80 41.499l19 14l24 -16c-14 -40.667 -45.667 -84.667 -95 -132s-114 -71 -194 -71c-51.333 0 -103 13 -155 39c-32.667 16.667 -80 47.667 -142 93c-42.667 -49.333 -74 -81.666 -94 -96.999c-30.667 -22.667 -64.667 -34 -102 -34
c-35.333 0 -66.5 11.5 -93.5 34.5s-40.5 52.5 -40.5 88.5c0 42.667 16.167 78.334 48.5 107.001s78.166 43 137.499 43c22 0 41.333 -1.83301 58 -5.5z" />
    <glyph glyph-name="currency" unicode="&#xa4;" 
d="M538 950c-74 0 -142.833 -26.5 -206.5 -79.5s-103.167 -116.5 -118.5 -190.5c-16 -74 -3.33301 -137.167 38 -189.5s99 -78.5 173 -78.5s142.667 26.167 206 78.5s103 115.5 119 189.5c15.333 74 2.5 137.5 -38.5 190.5s-98.5 79.5 -172.5 79.5zM158 828
c16.667 26 42.6641 57.999 77.9971 95.999l-93 118l63 53l97 -114c32.667 21.333 64.334 38 95.001 50c54.667 22 110 33 166 33c54.667 0 101.334 -9.66699 140.001 -29c24 -11.333 51 -31 81 -59l144 119l46 -53l-146 -118c19.333 -34 31.666 -63.667 36.999 -89
c11.333 -44.667 10.333 -98.667 -3 -162c-8.66699 -41.333 -23.167 -80.333 -43.5 -117s-51.833 -76 -94.5 -118l96 -119l-69 -56l-94 118c-42 -28 -83.167 -48.833 -123.5 -62.5s-85.166 -20.5 -134.499 -20.5c-62 0 -114.333 10.667 -157 32
c-23.333 12.667 -45.666 30.334 -66.999 53.001l-147 -120l-39 56l142 119c-20.667 36.667 -34.167 74.667 -40.5 114s-4.83301 80.333 4.5 123c12 56 32.667 107 62 153z" />
    <glyph glyph-name="yen" unicode="&#xa5;" 
d="M571 1355l-4.99805 -38.0039c-44 0.666992 -75.167 -5.16602 -93.5 -17.499s-27.5 -36.166 -27.5 -71.499c0 -10 1.16699 -20 3.5 -30s5.16602 -20.667 8.49902 -32l149 -455l290 462c4 6 10.5 19.833 19.5 41.5s13.5 35.834 13.5 42.501c0 26 -7.83301 42.333 -23.5 49
s-38.834 10.334 -69.501 11.001l5 38h327l-5 -38c-39.333 -1.33301 -76.5 -21 -111.5 -59s-76.833 -96.333 -125.5 -175l-170 -275h204l-17 -62h-225l-81 -125l-26 -88h256l-17 -62h-256l-66 -249c-4 -15.333 -7.16699 -31.833 -9.5 -49.5s-3.5 -32.167 -3.5 -43.5
c0 -37.333 13 -62.333 39 -75c16.667 -8 49 -13.667 97 -17l-4 -37h-486l4 37c68.667 5.33301 111 16.833 127 34.5s37.667 75.834 65 174.501l62 225h-263l17 62h260l19 80l-38 133h-234l16 62h202l-62 187l-43 126c-16 42.667 -32 81.334 -48 116.001
c-15.333 31.333 -31.333 52.166 -48 62.499s-33.667 16.166 -51 17.499l5 38h420z" />
    <glyph glyph-name="brokenbar" unicode="&#xa6;" horiz-adv-x="563" 
d="M222 0v535h121v-535h-121zM343 858h-121v535h121v-535z" />
    <glyph glyph-name="section" unicode="&#xa7;" 
d="M727.5 288.5c29.667 25 44.5 60.834 44.5 107.501c0 63.333 -38.167 145.166 -114.5 245.499s-147.5 150.5 -213.5 150.5c-47.333 0 -83 -13 -107 -39s-36 -58.667 -36 -98c0 -63.333 41 -146.5 123 -249.5s152.667 -154.5 212 -154.5c31.333 0 61.833 12.5 91.5 37.5z
M146 -23.999c24.667 20.667 51.001 31 79.001 31c25.333 0 47.333 -9 66 -27s28 -39.667 28 -65s-5.16699 -45 -15.5 -59s-21.5 -24.667 -33.5 -32l-19 -12c-4.66699 -2.66699 -8.83398 -6.16699 -12.501 -10.5s-5.5 -10.166 -5.5 -17.499c0 -18 14.833 -34.833 44.5 -50.5
s65.167 -23.5 106.5 -23.5c48 0 93.833 15 137.5 45s65.5 76 65.5 138c0 33.333 -7.33301 64.833 -22 94.5s-41.334 66.167 -80.001 109.5l-156 177c-38.667 44 -72.5 93.667 -101.5 149s-43.5 109.333 -43.5 162c0 64.667 20 123.167 60 175.5s94.333 78.5 163 78.5
c22.667 0 41.834 -2.16699 57.501 -6.5s30.5 -9.5 44.5 -15.5l5 5c-46.667 61.333 -78.334 107.333 -95.001 138c-28 50.667 -42 100 -42 148c0 74 28.833 135.667 86.5 185s128.5 74 212.5 74c79.333 0 143.833 -19.833 193.5 -59.5s74.5 -87.5 74.5 -143.5
c0 -28.667 -9.5 -54.834 -28.5 -78.501s-45.167 -35.5 -78.5 -35.5c-20 0 -41.333 7.33301 -64 22c-20 15.333 -30 35.333 -30 60c0 14 2.5 28 7.5 42s15.833 28.333 32.5 43c13.333 12 21.333 20.167 24 24.5s4 10.166 4 17.499c0 20.667 -12 36.834 -36 48.501
s-52 17.5 -84 17.5c-52 0 -97 -16.167 -135 -48.5s-57 -74.166 -57 -125.499c0 -20 3 -40 9 -60c8.66699 -30.667 30.334 -66.667 65.001 -108l195 -238c52 -64 85.5 -116.667 100.5 -158s22.5 -84.333 22.5 -129c0 -64 -20.5 -122 -61.5 -174s-98.5 -78 -172.5 -78
c-15.333 0 -28.5 1.16699 -39.5 3.5s-23.5 5.83301 -37.5 10.5l-2 -5c50.667 -66 84.667 -115.667 102 -149s26 -75 26 -125c0 -76.667 -31.333 -141.334 -94 -194.001s-137 -79 -223 -79c-84 0 -151.667 22.167 -203 66.5s-77 93.833 -77 148.5
c0 41.333 12.333 72.333 37 93z" />
    <glyph glyph-name="dieresis" unicode="&#xa8;" horiz-adv-x="682" 
d="M604.5 1212c19 20 42.833 30.001 71.5 30.001c26.667 0 50.167 -9.83301 70.5 -29.5s30.5 -43.167 30.5 -70.5c0 -28.667 -10 -52.834 -30 -72.501s-43.667 -29.5 -71 -29.5c-26.667 0 -50 9.5 -70 28.5s-30 43.5 -30 73.5c0 26.667 9.5 50 28.5 70zM334 1213.5
c20.667 -19 31 -43.168 31 -72.501c0 -26.667 -9.83301 -50.167 -29.5 -70.5s-43.167 -30.5 -70.5 -30.5c-28 0 -52 9.83301 -72 29.5s-30 43.167 -30 70.5c0 28.667 10 52.834 30 72.501s44 29.5 72 29.5c25.333 0 48.333 -9.5 69 -28.5zM163 903z" />
    <glyph glyph-name="copyright" unicode="&#xa9;" horiz-adv-x="1556" 
d="M231 236c96.667 -122.667 231.667 -184 405 -184s334.333 61.333 483 184s241.667 270.667 279 444c36.667 173.333 6.66699 321.333 -90 444s-231.667 184 -405 184s-334.333 -61.333 -483 -184s-241.334 -270.667 -278.001 -444
c-37.333 -173.333 -7.66602 -321.333 89.001 -444zM377 1178c166.667 137.333 347.333 206 542 206s346 -68.667 454 -206c108.667 -137.333 142.334 -303.333 101.001 -498c-42 -194.667 -146 -360.667 -312 -498c-166.667 -137.333 -347.334 -206 -542.001 -206
s-346 68.667 -454 206c-108.667 137.333 -142 303.333 -100 498c41.333 194.667 145 360.667 311 498zM852.999 1142c30.667 0 59.832 -3.66699 87.499 -11s53.167 -18.666 76.5 -33.999l29 -19c6.66699 -4 12.334 -7 17.001 -9s10 -3 16 -3c14.667 0 25.667 4.66699 33 14
s17 27.666 29 54.999h42l-65 -344h-48c0.666992 104 -18.333 180.667 -57 230s-92 74 -160 74c-70 0 -135.667 -32.5 -197 -97.5s-106.666 -166.5 -135.999 -304.5c-18.667 -90 -16.334 -174.833 6.99902 -254.5s85 -119.5 185 -119.5c71.333 0 138.666 23.667 201.999 71
c36.667 27.333 76 67 118 119l37 -24c-44 -58 -88.667 -104 -134 -138c-82.667 -62.667 -172 -94 -268 -94c-113.333 0 -201.166 41.667 -263.499 125s-79.5 190.333 -51.5 321c27.333 129.333 88.5 235.5 183.5 318.5s200.833 124.5 317.5 124.5z" />
    <glyph glyph-name="ordfeminine" unicode="&#xaa;" horiz-adv-x="565" 
d="M302 1191.5c-57.333 -90.333 -86 -172.834 -86 -247.501c0 -23.333 6.33301 -42.333 19 -57s29.667 -22 51 -22c64 0 125.833 45.833 185.5 137.5s89.5 172.834 89.5 243.501c0 26 -8 46 -24 60s-35.333 21 -58 21c-60.667 0 -119.667 -45.167 -177 -135.5zM601 1340
c2 4.66699 4.00098 7.83301 6.00098 9.5s6.66699 2.83398 14 3.50098l80 9l5 -4l-19 -59l-100 -368l-5.5 -26.5c-1.66699 -7.66699 -2.5 -13.5 -2.5 -17.5c0 -6.66699 1.66699 -12 5 -16s7.66602 -6 12.999 -6c8.66699 0 19.667 5.66699 33 17s33 30 59 56l12 12l17 -17
c-36.667 -43.333 -65.667 -73.666 -87 -90.999c-36.667 -30.667 -71.667 -46 -105 -46c-16 0 -28.667 4.33301 -38 13s-14.666 21.667 -15.999 39c1.33301 23.333 4.16602 45.666 8.49902 66.999s10.833 45.666 19.5 72.999c-38 -56.667 -74 -98.667 -108 -126
c-50.667 -45.333 -100.667 -68 -150 -68c-45.333 0 -80.833 14.333 -106.5 43s-38.5 63.667 -38.5 105c0 94 42.167 187.5 126.5 280.5s165.5 139.5 243.5 139.5c26 0 50 -5 72 -15s38 -28.667 48 -56z" />
    <glyph glyph-name="guillemotleft" unicode="&#xab;" 
d="M906.5 817.5c3.66699 -3 5.50098 -7.16797 5.50098 -12.501c0 -16.667 -19.667 -47 -59 -91s-126.333 -135.333 -261 -274l57 -113l88 -178c15.333 -32 23 -51.333 23 -58c0 -6 -1.83301 -10.833 -5.5 -14.5s-7.83398 -5.5 -12.501 -5.5
c-3.33301 0 -6.5 0.833008 -9.5 2.5s-5.5 3.83398 -7.5 6.50098l-17 19l-268 339v19l242 189c31.333 25.333 73.333 62 126 110l52 47c6.66699 5.33301 12.667 9.83301 18 13.5s11.333 5.5 18 5.5c3.33301 0 6.83301 -1.5 10.5 -4.5zM570.501 817.499
c3.66699 -3 5.5 -7.16699 5.5 -12.5c0 -15.333 -17.167 -42.333 -51.5 -81s-123.833 -133.334 -268.5 -284.001l56 -113l63 -129c32.667 -68 49 -104 49 -108c0 -5.33301 -1.83301 -9.83301 -5.5 -13.5s-8.16699 -5.5 -13.5 -5.5c-3.33301 0 -6.33301 0.833008 -9 2.5
s-5.33398 3.83398 -8.00098 6.50098l-16 19l-268 339v19l251 197.5c30.667 25 69.334 58.833 116.001 101.5l52 47c6.66699 5.33301 12.667 9.83301 18 13.5s11.333 5.5 18 5.5c4 0 7.83301 -1.5 11.5 -4.5z" />
    <glyph glyph-name="logicalnot" unicode="&#xac;" horiz-adv-x="1382" 
d="M1259 777l-111 -526h-121l86 405h-906l25 121h1027z" />
    <glyph glyph-name="softhyphen" unicode="&#xad;" horiz-adv-x="682" 
d="M128 521h450l-29 -128h-450z" />
    <glyph glyph-name="registered" unicode="&#xae;" horiz-adv-x="1556" 
d="M295 322c54.667 0 92.333 3.49902 113 10.499s34.334 26.5 41.001 58.5l127 597c6 28.667 0.166992 47.334 -17.5 56.001s-53.167 13 -106.5 13l10 47h403c102 0 180.667 -18.667 236 -56s76 -89 62 -155c-12 -54.667 -47.167 -100.167 -105.5 -136.5
s-130.833 -58.833 -217.5 -67.5l-1 -7c93.333 -32 143.166 -99.833 149.499 -203.5s19.166 -155.5 38.499 -155.5c24.667 0 45 13.333 61 40c10.667 18 24.667 54 42 108h50c-17.333 -60 -36.666 -104.333 -57.999 -133c-39.333 -52 -93 -78 -161 -78
c-64.667 0 -103.334 21 -116.001 63c-8.66699 26.667 -7 79.334 5 158.001c12 81.333 4.83301 133.666 -21.5 156.999s-87.166 34 -182.499 32l-59 -279c-6.66699 -32 2 -52.333 26 -61c15.333 -6 48.333 -8.66699 99 -8l-10 -48h-417zM230.999 235.999
c96.667 -122.667 231.667 -184 405 -184s334.333 61.333 483 184s241.667 270.667 279 444c36.667 173.333 6.66699 321.333 -90 444s-231.667 184 -405 184s-334.333 -61.333 -483 -184s-241.334 -270.667 -278.001 -444c-37.333 -173.333 -7.66602 -321.333 89.001 -444z
M376.999 1178c166.667 137.333 347.333 206 542 206s346 -68.667 454 -206c108.667 -137.333 142.334 -303.333 101.001 -498c-42 -194.667 -146 -360.667 -312 -498c-166.667 -137.333 -347.334 -206 -542.001 -206s-346 68.667 -454 206
c-108.667 137.333 -142 303.333 -100 498c41.333 194.667 145 360.667 311 498zM875.998 739.999c62.667 23.333 102.333 75.001 119 155.001c11.333 51.333 4.83301 91.166 -19.5 119.499s-69.5 42.5 -135.5 42.5c-34 0 -62 -4.5 -84 -13.5s-36 -27.5 -42 -55.5l-57 -270
c108 0 181 7.33301 219 22z" />
    <glyph glyph-name="macron" unicode="&#xaf;" horiz-adv-x="682" 
d="M146 1090l24 104h616l-23 -104h-617z" />
    <glyph glyph-name="degree" unicode="&#xb0;" horiz-adv-x="819" 
d="M420.5 954.5c39 -39 85.833 -58.5 140.5 -58.5c55.333 0 102.333 19.5 141 58.5s58 85.833 58 140.5c0 55.333 -19.333 102.333 -58 141s-85.667 58 -141 58c-54.667 0 -101.5 -19.333 -140.5 -58s-58.5 -85.667 -58.5 -141c0 -54.667 19.5 -101.5 58.5 -140.5zM355 1301
c56.667 56.667 125.334 85 206.001 85s149.5 -28.333 206.5 -85s85.5 -125.334 85.5 -206.001s-28.5 -149.5 -85.5 -206.5s-125.833 -85.5 -206.5 -85.5s-149.334 28.5 -206.001 85.5s-85 125.833 -85 206.5s28.333 149.334 85 206.001z" />
    <glyph glyph-name="plusminus" unicode="&#xb1;" horiz-adv-x="1124" 
d="M1120 118l-26 -118h-1027l26 118h1027zM564 203l74 351h-453l25 116h453l76 356h121l-76 -356h453l-25 -116h-453l-74 -351h-121z" />
    <glyph glyph-name="twosuperior" unicode="&#xb2;" horiz-adv-x="614" 
d="M61 564c190.667 186 316.998 314.998 378.998 386.998s93 135 93 189c0 34.667 -13 69.167 -39 103.5s-69.667 51.5 -131 51.5c-41.333 0 -76.833 -11 -106.5 -33s-55.167 -50 -76.5 -84l-29 9c28.667 72.667 65.167 124 109.5 154s100.5 45 168.5 45
c70.667 0 124.834 -22 162.501 -66s56.5 -89.667 56.5 -137c0 -49.333 -15.167 -95.666 -45.5 -138.999s-81.166 -97.666 -152.499 -162.999l-124.5 -116.5l-131.5 -122.5v-5c14 0 46 -0.333008 96 -1s87.667 -0.666992 113 0c61.333 1.33301 101.833 5.83301 121.5 13.5
s37.5 29.5 53.5 65.5l21 -9l-64 -164h-474v22z" />
    <glyph glyph-name="threesuperior" unicode="&#xb3;" horiz-adv-x="614" 
d="M156 651c12 -3.33301 22.333 -7.99805 31 -13.998l31 -21c16.667 -11.333 31.5 -19.833 44.5 -25.5s29.5 -8.5 49.5 -8.5c38 0 75.333 17.5 112 52.5s55 84.167 55 147.5c0 69.333 -20 122.166 -60 158.499s-93.333 54.5 -160 54.5c-4 0 -7.33301 -0.166992 -10 -0.5
s-8.33398 -0.833008 -17.001 -1.5l-3 21c75.333 6.66699 147.5 27.334 216.5 62.001s103.5 82 103.5 142c0 30 -9.5 56.5 -28.5 79.5s-48.167 34.5 -87.5 34.5c-30 0 -59.833 -9 -89.5 -27s-49.5 -36 -59.5 -54l-24 5c20.667 42.667 51.834 75 93.501 97s82.5 33 122.5 33
c51.333 0 95.833 -15.333 133.5 -46s56.5 -69.334 56.5 -116.001c0 -47.333 -27 -88.333 -81 -123c-29.333 -18.667 -71.333 -37.334 -126 -56.001v-5c38 -18 65.333 -36.333 82 -55c29.333 -33.333 44 -79.666 44 -138.999c0 -78 -33.833 -149.667 -101.5 -215
s-155.167 -98 -262.5 -98c-40.667 0 -72 3.33301 -94 10c-40.667 11.333 -61 33.666 -61 66.999c0 14 5 25.167 15 33.5s24 12.5 42 12.5c10 0 21 -1.66699 33 -5z" />
    <glyph glyph-name="acute" unicode="&#xb4;" horiz-adv-x="682" 
d="M759 1247.5c-7.33301 -9 -15.667 -16.499 -25 -22.499l-350 -218h-72l332 327c6 6 14 11 24 15s19.667 6 29 6c18.667 0 35.5 -6.83301 50.5 -20.5s22.5 -30.834 22.5 -51.501c0 -14.667 -3.66699 -26.5 -11 -35.5zM311.999 903.001z" />
    <glyph glyph-name="mu" unicode="&#xb5;" horiz-adv-x="1180" 
d="M-150 -389c48.667 0.666992 82.6689 14.1611 102.002 40.4941s41 88.5 65 186.5l26 111c14.667 64.667 31.667 135.334 51 212.001l140 561c1.33301 6.66699 2.5 12.834 3.5 18.501s1.5 11.5 1.5 17.5c0 28.667 -8.5 46.167 -25.5 52.5s-48.833 9.5 -95.5 9.5v28l147 29
l159 30c3.33301 0.666992 6.33301 -0.666016 9 -3.99902s3.66699 -6.66602 3 -9.99902l-3 -14l-185 -715c-1.33301 -6 -2.33301 -10.833 -3 -14.5s-1 -9.16699 -1 -16.5c0 -13.333 3.66699 -23.666 11 -30.999s18.333 -11 33 -11c40 0 89.167 34.5 147.5 103.5
s111.5 142.167 159.5 219.5c41.333 67.333 79.333 142.333 114 225c21.333 51.333 52 133 92 245h151l-189 -709l-9 -37c-2.66699 -11.333 -4 -20.666 -4 -27.999c0 -11.333 2.83301 -19.5 8.5 -24.5s11.834 -7.5 18.501 -7.5c10 0 20.333 3.83301 31 11.5s24 19.5 40 35.5
c7.33301 7.33301 20.666 23 39.999 47l55 67l28 -19c-30.667 -50.667 -62.667 -94.334 -96 -131.001c-66 -74 -127.333 -111 -184 -111c-29.333 0 -53.333 8 -72 24s-28 41 -28 75c0 24.667 5 59.334 15 104.001s27.333 110.667 52 198l24 85l-9 2
c-46.667 -82 -95.667 -162 -147 -240c-110.667 -162.667 -198.667 -244 -264 -244c-12.667 0 -23.834 1.66699 -33.501 5s-18.834 9 -27.501 17l-107 -426h-251z" />
    <glyph glyph-name="paragraph" unicode="&#xb6;" horiz-adv-x="1071" 
d="M791 1325c-29.333 -18.667 -53.3369 -46.998 -72.0039 -84.998c-31.333 -64 -60.333 -167.667 -87 -311l-111 -600c-39.333 -212 -71.333 -353.5 -96 -424.5s-68.667 -127.833 -132 -170.5l8 -9c126 44 218.667 119.333 278 226c35.333 65.333 65.666 166 90.999 302
l107 581c38 207.333 75.667 347.666 113 420.999c37.333 72.667 89.666 109 156.999 109c30 0 55.667 -10.333 77 -31s32 -43.667 32 -69c0 -10 -3.5 -24.5 -10.5 -43.5s-12.833 -32.5 -17.5 -40.5l-38 17c4.66699 8.66699 7.83398 15.667 9.50098 21s2.5 12.333 2.5 21
c0 18 -5.33301 30.667 -16 38c-11.333 6.66699 -21 10 -29 10c-25.333 0 -47.666 -18.667 -66.999 -56c-19.333 -38 -38.333 -97 -57 -177c-11.333 -47.333 -25.166 -110.5 -41.499 -189.5s-27.5 -134.167 -33.5 -165.5l-83 -467c-39.333 -223.333 -136 -381.333 -290 -474
c-84 -50 -166.333 -75 -247 -75c-63.333 0 -110 12.333 -140 37s-45 52.334 -45 83.001c0 28 9 50.333 27 67s39 25 63 25c26.667 0 48.834 -9 66.501 -27s26.5 -39.333 26.5 -64c0 -19.333 -3 -34.333 -9 -45s-14 -20.667 -24 -30c64.667 8 118.334 55.667 161.001 143
c27.333 57.333 48 126.666 62 207.999l86 486c-120 0 -213.333 26.333 -280 79s-100 130 -100 232c0 64.667 14.333 128 43 190s67.334 114.333 116.001 157c53.333 46 116.666 77 189.999 93c44.667 9.33301 116.334 15.666 215.001 18.999l93 3z" />
    <glyph glyph-name="periodcentered" unicode="&#xb7;" horiz-adv-x="512" 
d="M189.5 692.5c22.333 23 49.168 34.499 80.501 34.499c34 0 62.167 -11.667 84.5 -35s33.5 -50.333 33.5 -81c0 -32 -11.333 -59.333 -34 -82s-50.667 -34 -84 -34c-32.667 0 -59.834 11.333 -81.501 34s-32.5 49.334 -32.5 80.001c0 32.667 11.167 60.5 33.5 83.5z" />
    <glyph glyph-name="cedilla" unicode="&#xb8;" horiz-adv-x="682" 
d="M90 0h78.002l-90 -138c10 2.66699 18.167 4.5 24.5 5.5s14.5 1.5 24.5 1.5c53.333 0 94.833 -13 124.5 -39s44.5 -59 44.5 -99c0 -56.667 -23.5 -100.334 -70.5 -131.001s-106.5 -46 -178.5 -46c-23.333 0 -54.333 4.16699 -93 12.5s-70 18.5 -94 30.5l35 59
c37.333 -12.667 63.666 -21 78.999 -25s34 -6 56 -6c44.667 0 77 12 97 36c13.333 15.333 20 33 20 53c0 24.667 -7.83301 44.834 -23.5 60.501s-39.834 23.5 -72.501 23.5c-8.66699 0 -17.667 -1 -27 -3s-23 -5.66699 -41 -11l-19 16z" />
    <glyph glyph-name="onesuperior" unicode="&#xb9;" horiz-adv-x="614" 
d="M111 559c46 4 77.666 9 94.999 15c28.667 9.33301 48.334 32.333 59.001 69l178 599c2.66699 8.66699 4.83398 16.5 6.50098 23.5s2.5 12.833 2.5 17.5c0 21.333 -5.16699 33.666 -15.5 36.999s-46.833 3.33301 -109.5 0v19c18 2 55.667 8.33301 113 19l112 21l19 5l12 2
l9 -5c-0.666992 -5.33301 -1.33398 -10 -2.00098 -14l-218 -749c-2 -6 -3.66699 -13 -5 -21c0 -15.333 13 -25.666 39 -30.999c16 -4 41 -6.33301 75 -7v-17h-370v17z" />
    <glyph glyph-name="ordmasculine" unicode="&#xba;" horiz-adv-x="635" 
d="M682.5 1314.5c37.667 -31.667 56.5 -76.167 56.5 -133.5c0 -92 -40.833 -179.167 -122.5 -261.5s-172.5 -123.5 -272.5 -123.5c-62.667 0 -110.5 17.667 -143.5 53s-49.5 79 -49.5 131c0 82.667 39.167 167 117.5 253s169.833 129 274.5 129
c55.333 0 101.833 -15.833 139.5 -47.5zM609 1284c-14 30 -41 45.001 -81 45.001c-66 0 -125.333 -43.833 -178 -131.5s-79 -168.834 -79 -243.501c0 -35.333 7.66699 -64.5 23 -87.5s42 -34.5 80 -34.5c70.667 0 129.5 43.667 176.5 131s70.5 171 70.5 251
c0 30 -4 53.333 -12 70z" />
    <glyph glyph-name="guillemotright" unicode="&#xbb;" 
d="M448 74.5c-3.33301 2.33301 -5.00195 6.50195 -5.00195 12.502c0 14 18 43 54 87c22 26.667 49 56.667 81 90c21.333 23.333 53 55.833 95 97.5l90 90.5l-57 114l-68 138.5c-29.333 60.333 -44 92.833 -44 97.5c0 5.33301 2.33301 10 7 14s9.33398 6 14.001 6
c3.33301 0 6 -0.833008 8 -2.5s4.33301 -3.83398 7 -6.50098l17 -19l267 -339v-19l-250.5 -198c-30.333 -24.667 -69.166 -58.334 -116.499 -101.001l-52 -47c-7.33301 -7.33301 -13.5 -12.333 -18.5 -15s-10.833 -4 -17.5 -4c-4 0 -7.66699 1.16699 -11 3.5z
M105.998 74.502c-3.33301 2.33301 -4.99902 6.50195 -4.99902 12.502c0 16.667 19.167 46.5 57.5 89.5s125.833 134.833 262.5 275.5l-56 114c-5.33301 12 -25.333 53.5 -60 124.5s-52 108.167 -52 111.5c0 5.33301 2.16699 10 6.5 14s8.83301 6 13.5 6
c3.33301 0 6.33301 -0.833008 9 -2.5s5 -3.83398 7 -6.50098l16 -19l268 -339v-19l-251 -198c-30.667 -24.667 -69.334 -58.334 -116.001 -101.001l-52 -47c-7.33301 -7.33301 -13.5 -12.333 -18.5 -15s-10.833 -4 -17.5 -4c-4.66699 0 -8.66699 1.16699 -12 3.5z" />
    <glyph glyph-name="onequarter" unicode="&#xbc;" horiz-adv-x="1536" 
d="M116 549c47.333 4.66699 79.667 10.002 97 16.002c27.333 9.33301 46 30.666 56 63.999l179 603c3.33301 11.333 5.66602 19.833 6.99902 25.5s2 11.167 2 16.5c0 15.333 -4 25.666 -12 30.999s-24.667 8 -50 8c-6.66699 0 -12.667 -0.166992 -18 -0.5
s-20.666 -1.16602 -45.999 -2.49902v19l226 41l19 4c4 1.33301 8 2.33301 12 3l9 -5l-3 -14l-218 -749c-1.33301 -4.66699 -2.33301 -8.5 -3 -11.5s-1 -6.16699 -1 -9.5c0 -14.667 8.83301 -24.334 26.5 -29.001s46.5 -8 86.5 -10v-16h-369v16zM1334 834.002h57l-164 -545
h128l-19 -81h-132l-62 -218h-104l64 220h-349l26 86zM1249 692.002h-5l-405 -396v-7h282zM1310 1386l-919 -1401h-105l920 1401h104z" />
    <glyph glyph-name="onehalf" unicode="&#xbd;" horiz-adv-x="1536" 
d="M815 26c194 189.333 321.166 319.168 381.499 389.501s90.5 132.5 90.5 186.5c0 36.667 -13.5 71.667 -40.5 105s-70.167 50 -129.5 50c-46 0 -87.333 -15.333 -124 -46c-19.333 -16.667 -39.333 -40.334 -60 -71.001l-28 9c24 61.333 58.833 109.833 104.5 145.5
s103.834 53.5 174.501 53.5c70 0 123.667 -22 161 -66s56 -91.667 56 -143c0 -48 -16.167 -95 -48.5 -141s-81.833 -97.667 -148.5 -155c-14 -14 -51 -49 -111 -105l-145 -134v-5c16 0 48.167 -0.333008 96.5 -1s85.833 -0.666992 112.5 0
c59.333 1.33301 99.333 5.83301 120 13.5s39 29.5 55 65.5l21 -9l-64 -164h-474v22zM1137 1386h105l-892 -1401h-104zM103.999 549.002c47.333 4.66699 79.668 10 97.001 16c27.333 9.33301 46 30.333 56 63l179 604c3.33301 11.333 5.66602 19.833 6.99902 25.5
s2 11.167 2 16.5c0 15.333 -4 25.666 -12 30.999s-24.333 8 -49 8c-6.66699 0 -12.667 -0.166992 -18 -0.5s-20.666 -1.16602 -45.999 -2.49902v19c157.333 27.333 232.333 41 225 41l19 4c4 1.33301 8 2.33301 12 3l9 -5c-0.666992 -5.33301 -1.33398 -10 -2.00098 -14
l-218 -749l-5 -22c0 -14.667 9 -24.167 27 -28.5s47 -7.5 87 -9.5v-16h-370v16z" />
    <glyph glyph-name="threequarters" unicode="&#xbe;" horiz-adv-x="1536" 
d="M1325 1386l-920 -1401h-104l919 1401h105zM170.5 642c12.333 -3.33301 22.501 -8.00195 30.501 -14.002l31 -22c12.667 -9.33301 26.667 -17.333 42 -24s33.666 -10 54.999 -10c34 0 69.833 17.333 107.5 52s56.5 84.667 56.5 150c0 70.667 -20.833 123.667 -62.5 159
s-94.834 53 -159.501 53c-4 0 -8 -0.166992 -12 -0.5s-8.33301 -1.16602 -13 -2.49902l-2 22c86.667 8 161.667 30.667 225 68s95 81 95 131c0 32 -9.5 59.667 -28.5 83s-48.167 35 -87.5 35c-32.667 0 -63.167 -8.66699 -91.5 -26s-47.833 -35.333 -58.5 -54l-24 4
c24 48 54 81.833 90 101.5s78.333 29.5 127 29.5c51.333 0 95.666 -15.5 132.999 -46.5s56 -69.833 56 -116.5c0 -45.333 -25 -84.666 -75 -117.999c-28 -19.333 -71.667 -41 -131 -65c38.667 -20 66 -39.333 82 -58c28.667 -33.333 43 -79 43 -137
c0 -80.667 -34.667 -153 -104 -217s-155.666 -96 -258.999 -96c-42.667 0 -75.667 3.66699 -99 11c-38 12.667 -57 35.667 -57 69c0 10.667 4.83301 20.667 14.5 30s23.834 14 42.501 14c10 0 21.167 -1.66699 33.5 -5zM1348 833.998h57l-163 -545h128l-19 -81h-133
l-62 -218h-104l64 220h-348l26 86zM1263 691.998h-5l-405 -396v-7h282z" />
    <glyph glyph-name="questiondown" unicode="&#xbf;" 
d="M623.5 931c21 22 47.5 33 79.5 33c30.667 0 56.167 -10.5 76.5 -31.5s30.5 -45.833 30.5 -74.5c0 -29.333 -10.333 -54.5 -31 -75.5s-46.667 -31.5 -78 -31.5c-30.667 0 -56.5 10 -77.5 30s-31.5 44.667 -31.5 74c0 28.667 10.5 54 31.5 76zM188.5 -345
c-50.333 52 -75.501 114.001 -75.501 186.001c0 63.333 20.667 123 62 179c26.667 35.333 69.334 76.666 128.001 123.999l85 69c64 52 110.333 94.667 139 128c49.333 56.667 81.333 117.334 96 182.001l14 60l36 -5c0 -40 -9.66699 -86.667 -29 -140
c-32.667 -88.667 -86.334 -174.667 -161.001 -258c-88.667 -98.667 -147.167 -171 -175.5 -217s-42.5 -102.333 -42.5 -169c0 -56.667 15.333 -99.5 46 -128.5s68.667 -43.5 114 -43.5c30.667 0 58.667 5 84 15c43.333 16.667 65 44.667 65 84c0 4 -0.5 8.66699 -1.5 14
s-2.5 10.666 -4.5 15.999l-9 21c-6.66699 16 -11.334 28 -14.001 36s-4 15.333 -4 22c0 18.667 7.83301 35 23.5 49s34.5 21 56.5 21c30.667 0 52.334 -10.667 65.001 -32s19 -44 19 -68c0 -60.667 -26.5 -113 -79.5 -157s-120.833 -66 -203.5 -66
c-105.333 0 -183.166 26 -233.499 78z" />
    <glyph glyph-name="Agrave" unicode="&#xc0;" horiz-adv-x="1251" 
d="M805 535l-90 531l-305 -531h395zM-55 33c45.333 11.333 81.168 32.332 107.501 62.999s78.833 113 157.5 247l598 1024h45l197 -1159c12.667 -74.667 27.667 -121.167 45 -139.5s54.333 -30.166 111 -35.499v-33h-505v33c60.667 6 100 13.333 118 22
c28.667 13.333 43 39.333 43 78c0 10 -0.333008 20.667 -1 32s-1.66699 21 -3 29l-41 268h-450l-119 -230c-8.66699 -15.333 -16.334 -31.666 -23.001 -48.999c-11.333 -30.667 -17 -56.334 -17 -77.001c0 -26 8.83301 -44.333 26.5 -55s49.167 -16.667 94.5 -18v-33h-384
v33zM802.002 1758c12 -9.33301 23.001 -20.333 33.001 -33l237 -306h-61l-287 218c-11.333 8.66699 -20.833 18 -28.5 28s-11.5 22.333 -11.5 37c0 19.333 6.66699 35.833 20 49.5s31.666 20.5 54.999 20.5c16.667 0 31 -4.66699 43 -14zM1072 1315z" />
    <glyph glyph-name="Aacute" unicode="&#xc1;" horiz-adv-x="1251" 
d="M805 535l-90 531l-305 -531h395zM-55 33c45.333 11.333 81.168 32.332 107.501 62.999s78.833 113 157.5 247l598 1024h45l197 -1159c12.667 -74.667 27.667 -121.167 45 -139.5s54.333 -30.166 111 -35.499v-33h-505v33c60.667 6 100 13.333 118 22
c28.667 13.333 43 39.333 43 78c0 10 -0.333008 20.667 -1 32s-1.66699 21 -3 29l-41 268h-450l-119 -230c-8.66699 -15.333 -16.334 -31.666 -23.001 -48.999c-11.333 -30.667 -17 -56.334 -17 -77.001c0 -26 8.83301 -44.333 26.5 -55s49.167 -16.667 94.5 -18v-33h-384
v33zM1100 1707.5c-7.33301 -9 -15.667 -16.499 -25 -22.499l-350 -218h-72l332 327c6 6 14 11 24 15s19.667 6 29 6c18.667 0 35.5 -6.83301 50.5 -20.5s22.5 -30.834 22.5 -51.501c0 -14.667 -3.66699 -26.5 -11 -35.5zM653.001 1363z" />
    <glyph glyph-name="Acircumflex" unicode="&#xc2;" horiz-adv-x="1251" 
d="M805 535l-90 531l-305 -531h395zM-55 33c45.333 11.333 81.168 32.332 107.501 62.999s78.833 113 157.5 247l598 1024h45l197 -1159c12.667 -74.667 27.667 -121.167 45 -139.5s54.333 -30.166 111 -35.499v-33h-505v33c60.667 6 100 13.333 118 22
c28.667 13.333 43 39.333 43 78c0 10 -0.333008 20.667 -1 32s-1.66699 21 -3 29l-41 268h-450l-119 -230c-8.66699 -15.333 -16.334 -31.666 -23.001 -48.999c-11.333 -30.667 -17 -56.334 -17 -77.001c0 -26 8.83301 -44.333 26.5 -55s49.167 -16.667 94.5 -18v-33h-384
v33zM1062 1467l-169 213l-279 -213h-81l322 346h100l180 -346h-73zM533.002 1363z" />
    <glyph glyph-name="Atilde" unicode="&#xc3;" horiz-adv-x="1251" 
d="M805 535l-90 531l-305 -531h395zM-55 33c45.333 11.333 81.168 32.332 107.501 62.999s78.833 113 157.5 247l598 1024h45l197 -1159c12.667 -74.667 27.667 -121.167 45 -139.5s54.333 -30.166 111 -35.499v-33h-505v33c60.667 6 100 13.333 118 22
c28.667 13.333 43 39.333 43 78c0 10 -0.333008 20.667 -1 32s-1.66699 21 -3 29l-41 268h-450l-119 -230c-8.66699 -15.333 -16.334 -31.666 -23.001 -48.999c-11.333 -30.667 -17 -56.334 -17 -77.001c0 -26 8.83301 -44.333 26.5 -55s49.167 -16.667 94.5 -18v-33h-384
v33zM605.002 1674c32 40.667 76.666 61 133.999 61c44.667 0 100.834 -14.667 168.501 -44s113.5 -44 137.5 -44c33.333 0 58.666 10.667 75.999 32c10 12 19.333 31.333 28 58h60c-11.333 -62.667 -34.5 -113.834 -69.5 -153.501s-77.5 -59.5 -127.5 -59.5
c-18 0 -37.5 3.16699 -58.5 9.5s-60.833 20.5 -119.5 42.5l-69 26c-10.667 4 -20.667 7 -30 9s-19.666 3 -30.999 3c-32 0 -54.667 -7.66699 -68 -23s-26.333 -39.333 -39 -72h-59c12.667 62.667 35 114.334 67 155.001zM538.001 1363z" />
    <glyph glyph-name="Adieresis" unicode="&#xc4;" horiz-adv-x="1251" 
d="M805 535l-90 531l-305 -531h395zM-55 33c45.333 11.333 81.168 32.332 107.501 62.999s78.833 113 157.5 247l598 1024h45l197 -1159c12.667 -74.667 27.667 -121.167 45 -139.5s54.333 -30.166 111 -35.499v-33h-505v33c60.667 6 100 13.333 118 22
c28.667 13.333 43 39.333 43 78c0 10 -0.333008 20.667 -1 32s-1.66699 21 -3 29l-41 268h-450l-119 -230c-8.66699 -15.333 -16.334 -31.666 -23.001 -48.999c-11.333 -30.667 -17 -56.334 -17 -77.001c0 -26 8.83301 -44.333 26.5 -55s49.167 -16.667 94.5 -18v-33h-384
v33zM1039.5 1672c19 20 42.833 30.001 71.5 30.001c26.667 0 50.167 -9.83301 70.5 -29.5s30.5 -43.167 30.5 -70.5c0 -28.667 -10 -52.834 -30 -72.501s-43.667 -29.5 -71 -29.5c-26.667 0 -50 9.5 -70 28.5s-30 43.5 -30 73.5c0 26.667 9.5 50 28.5 70zM769.002 1673.5
c20.667 -19 31 -43.168 31 -72.501c0 -26.667 -9.83301 -50.167 -29.5 -70.5s-43.167 -30.5 -70.5 -30.5c-28 0 -52 9.83301 -72 29.5s-30 43.167 -30 70.5c0 28.667 10 52.834 30 72.501s44 29.5 72 29.5c25.333 0 48.333 -9.5 69 -28.5zM598.002 1363z" />
    <glyph glyph-name="Aring" unicode="&#xc5;" horiz-adv-x="1251" 
d="M805 535l-90 531l-305 -531h395zM-55 33c45.333 11.333 81.168 32.332 107.501 62.999s78.833 113 157.5 247l598 1024h45l197 -1159c12.667 -74.667 27.667 -121.167 45 -139.5s54.333 -30.166 111 -35.499v-33h-505v33c60.667 6 100 13.333 118 22
c28.667 13.333 43 39.333 43 78c0 10 -0.333008 20.667 -1 32s-1.66699 21 -3 29l-41 268h-450l-119 -230c-8.66699 -15.333 -16.334 -31.666 -23.001 -48.999c-11.333 -30.667 -17 -56.334 -17 -77.001c0 -26 8.83301 -44.333 26.5 -55s49.167 -16.667 94.5 -18v-33h-384
v33zM810.002 1524.5c24.667 -24.333 54.334 -36.502 89.001 -36.502s64.167 12.333 88.5 37s36.5 54.334 36.5 89.001s-12.167 64.167 -36.5 88.5s-53.833 36.5 -88.5 36.5s-64.334 -12.167 -89.001 -36.5s-37 -53.833 -37 -88.5c0 -35.333 12.333 -65.166 37 -89.499z
M751.502 1761c41 40.667 90.167 61 147.5 61s106.333 -20.333 147 -61s61 -89.667 61 -147c0 -58 -20.333 -107.333 -61 -148s-89.667 -61 -147 -61c-58 0 -107.333 20.333 -148 61s-61 90 -61 148c0 57.333 20.5 106.333 61.5 147zM899.002 1367z" />
    <glyph glyph-name="AE" unicode="&#xc6;" horiz-adv-x="1821" 
d="M1052 1230h-12l-531 -676h356zM-57 33c19.333 3.33301 35.8281 9.67188 49.4951 19.0049s35.834 31.666 66.501 66.999l61 71.5l67 83.5l732 925c5.33301 7.33301 9.83301 15.166 13.5 23.499s5.5 16.166 5.5 23.499c0 25.333 -13 41.666 -39 48.999
c-15.333 4.66699 -46.666 7.33398 -93.999 8.00098v36h1060l-66 -315l-36 4c0.666992 12.667 1.16699 22.667 1.5 30s0.5 17.666 0.5 30.999c0 72.667 -19 121.334 -57 146.001s-141.667 37 -311 37c-63.333 0 -102.666 -4.5 -117.999 -13.5s-27.666 -30.5 -36.999 -64.5
l-124 -450c161.333 0 262.833 8.83301 304.5 26.5s83.167 73.5 124.5 167.5l38 -9l-142 -474l-35 7c1.33301 8 4 26.167 8 54.5s6 44.166 6 47.499c0 45.333 -17 75.666 -51 90.999c-20 9.33301 -53 14.333 -99 15l-175 3l-135 -491c-2.66699 -10.667 -5 -20.5 -7 -29.5
s-3 -16.833 -3 -23.5c0 -22 8.5 -37.667 25.5 -47s38.5 -14 64.5 -14h117c132.667 0 239 21.667 319 65s151.333 114.333 214 213l36 -10l-131 -336h-1019v35c54.667 0.666992 93 7.66699 115 21s38 38 48 74l100 348h-389c-47.333 -55.333 -101.833 -125.5 -163.5 -210.5
s-92.5 -139.833 -92.5 -164.5c0 -27.333 14 -46 42 -56c16.667 -6 46.334 -10 89.001 -12v-35h-384v33z" />
    <glyph glyph-name="Ccedilla" unicode="&#xc7;" horiz-adv-x="1366" 
d="M1136 1338c69.333 -16 111.337 -24.001 126.004 -24.001c24.667 0 42 4 52 12s18.333 19.333 25 34h42l-75 -408l-36 5c-7.33301 80.667 -25.333 145.667 -54 195c-52.667 91.333 -139.667 137 -261 137c-186.667 0 -340.334 -93.333 -461.001 -280
c-105.333 -162 -158 -337.667 -158 -527c0 -140.667 32 -247 96 -319s146.333 -108 247 -108c104 0 199.333 25.333 286 76c51.333 30.667 118.333 85.667 201 165l33 -29c-74.667 -94.667 -159.167 -169.167 -253.5 -223.5s-198.166 -81.5 -311.499 -81.5
c-23.333 0 -52 3.66699 -86 11l-72 -111c10 2.66699 18.167 4.5 24.5 5.5s14.5 1.5 24.5 1.5c53.333 0 94.833 -13 124.5 -39s44.5 -59 44.5 -99c0 -56.667 -23.5 -100.334 -70.5 -131.001s-106.5 -46 -178.5 -46c-23.333 0 -54.333 4.16699 -93 12.5s-70 18.5 -94 30.5
l35 59c37.333 -12.667 63.666 -21 78.999 -25s34 -6 56 -6c44.667 0 77 12 97 36c13.333 15.333 20 33 20 53c0 24.667 -7.83301 44.834 -23.5 60.501s-39.834 23.5 -72.501 23.5c-8.66699 0 -17.667 -1 -27 -3s-23 -5.66699 -41 -11l-19 16l120 188
c-108 26.667 -198 83 -270 169s-108 201 -108 345c0 206.667 76.333 397.334 229 572.001c167.333 192 370.666 288 609.999 288c59.333 0 123.666 -8 192.999 -24z" />
    <glyph glyph-name="Egrave" unicode="&#xc8;" horiz-adv-x="1251" 
d="M-5 33c48 4 80.998 12.668 98.998 26.001c28 20 51 61.667 69 125l251 906c8 30 14.167 54.833 18.5 74.5s6.5 36.5 6.5 50.5c0 32 -12.167 54.333 -36.5 67s-65.5 19.667 -123.5 21v33h1019l-64 -312l-42 4c2 20 3.33301 39.167 4 57.5s1 25.166 1 20.499
c1.33301 67.333 -22.5 111.5 -71.5 132.5s-149.833 31.5 -302.5 31.5c-70 0 -114 -3.33301 -132 -10s-30.333 -21.334 -37 -44.001l-135 -477c180.667 6 289.334 17.333 326.001 34s75.667 71.667 117 165l38 -9l-140 -474l-40 9c6.66699 40 10.667 64.333 12 73
s2 18.334 2 29.001c0 43.333 -15.5 71.5 -46.5 84.5s-87.833 19.5 -170.5 19.5h-117l-126 -457c-4 -14 -7.16699 -27 -9.5 -39s-3.5 -24.333 -3.5 -37c0 -21.333 5.66699 -37.333 17 -48c20.667 -18.667 61.334 -28 122.001 -28c183.333 0 314.5 19.667 393.5 59
s157.833 115.333 236.5 228l33 -17l-128 -331h-1040v33zM722.998 1779c12 -9.33301 23.001 -20.333 33.001 -33l237 -306h-61l-287 218c-11.333 8.66699 -20.833 18 -28.5 28s-11.5 22.333 -11.5 37c0 19.333 6.66699 35.833 20 49.5s31.666 20.5 54.999 20.5
c16.667 0 31 -4.66699 43 -14zM992.999 1336z" />
    <glyph glyph-name="Eacute" unicode="&#xc9;" horiz-adv-x="1251" 
d="M-5 33c48 4 80.998 12.668 98.998 26.001c28 20 51 61.667 69 125l251 906c8 30 14.167 54.833 18.5 74.5s6.5 36.5 6.5 50.5c0 32 -12.167 54.333 -36.5 67s-65.5 19.667 -123.5 21v33h1019l-64 -312l-42 4c2 20 3.33301 39.167 4 57.5s1 25.166 1 20.499
c1.33301 67.333 -22.5 111.5 -71.5 132.5s-149.833 31.5 -302.5 31.5c-70 0 -114 -3.33301 -132 -10s-30.333 -21.334 -37 -44.001l-135 -477c180.667 6 289.334 17.333 326.001 34s75.667 71.667 117 165l38 -9l-140 -474l-40 9c6.66699 40 10.667 64.333 12 73
s2 18.334 2 29.001c0 43.333 -15.5 71.5 -46.5 84.5s-87.833 19.5 -170.5 19.5h-117l-126 -457c-4 -14 -7.16699 -27 -9.5 -39s-3.5 -24.333 -3.5 -37c0 -21.333 5.66699 -37.333 17 -48c20.667 -18.667 61.334 -28 122.001 -28c183.333 0 314.5 19.667 393.5 59
s157.833 115.333 236.5 228l33 -17l-128 -331h-1040v33zM1172 1680.5c-7.33301 -9 -15.667 -16.499 -25 -22.499l-350 -218h-72l332 327c6 6 14 11 24 15s19.667 6 29 6c18.667 0 35.5 -6.83301 50.5 -20.5s22.5 -30.834 22.5 -51.501c0 -14.667 -3.66699 -26.5 -11 -35.5z
M724.997 1336z" />
    <glyph glyph-name="Ecircumflex" unicode="&#xca;" horiz-adv-x="1251" 
d="M-5 33c48 4 80.998 12.668 98.998 26.001c28 20 51 61.667 69 125l251 906c8 30 14.167 54.833 18.5 74.5s6.5 36.5 6.5 50.5c0 32 -12.167 54.333 -36.5 67s-65.5 19.667 -123.5 21v33h1019l-64 -312l-42 4c2 20 3.33301 39.167 4 57.5s1 25.166 1 20.499
c1.33301 67.333 -22.5 111.5 -71.5 132.5s-149.833 31.5 -302.5 31.5c-70 0 -114 -3.33301 -132 -10s-30.333 -21.334 -37 -44.001l-135 -477c180.667 6 289.334 17.333 326.001 34s75.667 71.667 117 165l38 -9l-140 -474l-40 9c6.66699 40 10.667 64.333 12 73
s2 18.334 2 29.001c0 43.333 -15.5 71.5 -46.5 84.5s-87.833 19.5 -170.5 19.5h-117l-126 -457c-4 -14 -7.16699 -27 -9.5 -39s-3.5 -24.333 -3.5 -37c0 -21.333 5.66699 -37.333 17 -48c20.667 -18.667 61.334 -28 122.001 -28c183.333 0 314.5 19.667 393.5 59
s157.833 115.333 236.5 228l33 -17l-128 -331h-1040v33zM1060 1440l-169 213l-279 -213h-81l322 346h100l180 -346h-73zM530.998 1336z" />
    <glyph glyph-name="Edieresis" unicode="&#xcb;" horiz-adv-x="1251" 
d="M-5 33c48 4 80.998 12.668 98.998 26.001c28 20 51 61.667 69 125l251 906c8 30 14.167 54.833 18.5 74.5s6.5 36.5 6.5 50.5c0 32 -12.167 54.333 -36.5 67s-65.5 19.667 -123.5 21v33h1019l-64 -312l-42 4c2 20 3.33301 39.167 4 57.5s1 25.166 1 20.499
c1.33301 67.333 -22.5 111.5 -71.5 132.5s-149.833 31.5 -302.5 31.5c-70 0 -114 -3.33301 -132 -10s-30.333 -21.334 -37 -44.001l-135 -477c180.667 6 289.334 17.333 326.001 34s75.667 71.667 117 165l38 -9l-140 -474l-40 9c6.66699 40 10.667 64.333 12 73
s2 18.334 2 29.001c0 43.333 -15.5 71.5 -46.5 84.5s-87.833 19.5 -170.5 19.5h-117l-126 -457c-4 -14 -7.16699 -27 -9.5 -39s-3.5 -24.333 -3.5 -37c0 -21.333 5.66699 -37.333 17 -48c20.667 -18.667 61.334 -28 122.001 -28c183.333 0 314.5 19.667 393.5 59
s157.833 115.333 236.5 228l33 -17l-128 -331h-1040v33zM1017.5 1645c19 20 42.833 30.001 71.5 30.001c26.667 0 50.167 -9.83301 70.5 -29.5s30.5 -43.167 30.5 -70.5c0 -28.667 -10 -52.834 -30 -72.501s-43.667 -29.5 -71 -29.5c-26.667 0 -50 9.5 -70 28.5
s-30 43.5 -30 73.5c0 26.667 9.5 50 28.5 70zM746.998 1646.5c20.667 -19 31 -43.168 31 -72.501c0 -26.667 -9.83301 -50.167 -29.5 -70.5s-43.167 -30.5 -70.5 -30.5c-28 0 -52 9.83301 -72 29.5s-30 43.167 -30 70.5c0 28.667 10 52.834 30 72.501s44 29.5 72 29.5
c25.333 0 48.333 -9.5 69 -28.5zM575.998 1336z" />
    <glyph glyph-name="Igrave" unicode="&#xcc;" horiz-adv-x="682" 
d="M-19 33c48 4 81.001 12.668 99.001 26.001c28 20 51 61.667 69 125l251 906c9.33301 36.667 15.666 62.5 18.999 77.5s5 29.833 5 44.5c0 32.667 -10.667 55.167 -32 67.5s-59 20.166 -113 23.499v33h507v-33c-54 -7.33301 -91.167 -18.833 -111.5 -34.5
s-39.166 -54.5 -56.499 -116.5l-251 -906c-8.66699 -32 -14.834 -58.333 -18.501 -79s-5.5 -36.334 -5.5 -47.001c0 -33.333 11.833 -55.666 35.5 -66.999s58.5 -18 104.5 -20v-33h-502v33zM429.001 1772c12 -9.33301 23.001 -20.333 33.001 -33l237 -306h-61l-287 218
c-11.333 8.66699 -20.833 18 -28.5 28s-11.5 22.333 -11.5 37c0 19.333 6.66699 35.833 20 49.5s31.666 20.5 54.999 20.5c16.667 0 31 -4.66699 43 -14zM699.002 1329z" />
    <glyph glyph-name="Iacute" unicode="&#xcd;" horiz-adv-x="682" 
d="M-19 33c48 4 81.001 12.668 99.001 26.001c28 20 51 61.667 69 125l251 906c9.33301 36.667 15.666 62.5 18.999 77.5s5 29.833 5 44.5c0 32.667 -10.667 55.167 -32 67.5s-59 20.166 -113 23.499v33h507v-33c-54 -7.33301 -91.167 -18.833 -111.5 -34.5
s-39.166 -54.5 -56.499 -116.5l-251 -906c-8.66699 -32 -14.834 -58.333 -18.501 -79s-5.5 -36.334 -5.5 -47.001c0 -33.333 11.833 -55.666 35.5 -66.999s58.5 -18 104.5 -20v-33h-502v33zM878.001 1673.5c-7.33301 -9 -15.667 -16.499 -25 -22.499l-350 -218h-72l332 327
c6 6 14 11 24 15s19.667 6 29 6c18.667 0 35.5 -6.83301 50.5 -20.5s22.5 -30.834 22.5 -51.501c0 -14.667 -3.66699 -26.5 -11 -35.5zM431 1329z" />
    <glyph glyph-name="Icircumflex" unicode="&#xce;" horiz-adv-x="682" 
d="M-19 33c48 4 81.001 12.668 99.001 26.001c28 20 51 61.667 69 125l251 906c9.33301 36.667 15.666 62.5 18.999 77.5s5 29.833 5 44.5c0 32.667 -10.667 55.167 -32 67.5s-59 20.166 -113 23.499v33h507v-33c-54 -7.33301 -91.167 -18.833 -111.5 -34.5
s-39.166 -54.5 -56.499 -116.5l-251 -906c-8.66699 -32 -14.834 -58.333 -18.501 -79s-5.5 -36.334 -5.5 -47.001c0 -33.333 11.833 -55.666 35.5 -66.999s58.5 -18 104.5 -20v-33h-502v33zM766.001 1433l-169 213l-279 -213h-81l322 346h100l180 -346h-73zM237.001 1329z
" />
    <glyph glyph-name="Idieresis" unicode="&#xcf;" horiz-adv-x="682" 
d="M-19 33c48 4 81.001 12.668 99.001 26.001c28 20 51 61.667 69 125l251 906c9.33301 36.667 15.666 62.5 18.999 77.5s5 29.833 5 44.5c0 32.667 -10.667 55.167 -32 67.5s-59 20.166 -113 23.499v33h507v-33c-54 -7.33301 -91.167 -18.833 -111.5 -34.5
s-39.166 -54.5 -56.499 -116.5l-251 -906c-8.66699 -32 -14.834 -58.333 -18.501 -79s-5.5 -36.334 -5.5 -47.001c0 -33.333 11.833 -55.666 35.5 -66.999s58.5 -18 104.5 -20v-33h-502v33zM685.501 1644c19 20 42.833 30.001 71.5 30.001
c26.667 0 50.167 -9.83301 70.5 -29.5s30.5 -43.167 30.5 -70.5c0 -28.667 -10 -52.834 -30 -72.501s-43.667 -29.5 -71 -29.5c-26.667 0 -50 9.5 -70 28.5s-30 43.5 -30 73.5c0 26.667 9.5 50 28.5 70zM415.001 1645.5c20.667 -19 31 -43.168 31 -72.501
c0 -26.667 -9.83301 -50.167 -29.5 -70.5s-43.167 -30.5 -70.5 -30.5c-28 0 -52 9.83301 -72 29.5s-30 43.167 -30 70.5c0 28.667 10 52.834 30 72.501s44 29.5 72 29.5c25.333 0 48.333 -9.5 69 -28.5zM244.001 1335z" />
    <glyph glyph-name="Eth" unicode="&#xd0;" horiz-adv-x="1479" 
d="M-19 33c48 4 81 12.6709 99 26.0039c28 20 51 61.667 69 125l140 505h-223l33 93h209l92 308c5.33301 17.333 10.333 35.333 15 54c6 27.333 9 49.666 9 66.999c0 33.333 -11 56.666 -33 69.999s-64 20.666 -126 21.999v33h529c120 0 215.5 -11.333 286.5 -34
s135.167 -61.667 192.5 -117c41.333 -40 73.333 -81 96 -123c43.333 -78.667 65 -169 65 -271c0 -224.667 -85.333 -412.334 -256 -563.001c-172.667 -152 -391 -228 -655 -228h-542v33zM1113 433.004c62 127.333 92.999 257 92.999 389
c0 127.333 -31.333 234.666 -94 321.999s-175.667 131 -339 131c-45.333 0 -77.333 -4.33301 -96 -13s-31 -24 -37 -46l-124 -434h299l-29 -93h-298l-128 -476c-5.33301 -20 -8.66602 -35.167 -9.99902 -45.5s-2 -19.166 -2 -26.499c0 -29.333 9 -49.333 27 -60
s55 -16 111 -16c297.333 0 506.333 122.667 627 368z" />
    <glyph glyph-name="Ntilde" unicode="&#xd1;" horiz-adv-x="1366" 
d="M-43 33c58.667 9.33301 100 30.3301 124 62.9971s53.667 112.667 89 240l237 858c1.33301 4 -4.16699 15.833 -16.5 35.5s-24.833 33.834 -37.5 42.501s-27.5 15 -44.5 19s-40.833 8 -71.5 12v33h329l422 -1012h7l211 780c6 23.333 10.667 44.333 14 63s5 32.667 5 42
c0 37.333 -16 63 -48 77c-19.333 8.66699 -51.666 14.334 -96.999 17.001v33h408v-33c-62 -13.333 -103.833 -35 -125.5 -65s-50.834 -109.333 -87.501 -238l-251 -875l-17.5 -62.5c-3.66699 -13 -12.167 -45.167 -25.5 -96.5h-38l-467 1117h-10l-227 -851
c-4 -15.333 -8.16699 -33.666 -12.5 -54.999s-6.5 -38.333 -6.5 -51c0 -38 17.333 -64 52 -78c20 -8.66699 51 -13.667 93 -15v-33h-408v33zM670 1645c32 40.667 76.666 61 133.999 61c44.667 0 100.834 -14.667 168.501 -44s113.5 -44 137.5 -44
c33.333 0 58.666 10.667 75.999 32c10 12 19.333 31.333 28 58h60c-11.333 -62.667 -34.5 -113.834 -69.5 -153.501s-77.5 -59.5 -127.5 -59.5c-18 0 -37.5 3.16699 -58.5 9.5s-60.833 20.5 -119.5 42.5l-69 26c-10.667 4 -20.667 7 -30 9s-19.666 3 -30.999 3
c-32 0 -54.667 -7.66699 -68 -23s-26.333 -39.333 -39 -72h-59c12.667 62.667 35 114.334 67 155.001zM602.999 1334z" />
    <glyph glyph-name="Ograve" unicode="&#xd2;" horiz-adv-x="1479" 
d="M1068 404c100.667 198 150.999 381.667 150.999 551c0 104.667 -22.667 186.5 -68 245.5s-113.666 88.5 -204.999 88.5c-176 0 -326 -117.667 -450 -353c-104.667 -198 -157 -389 -157 -573c0 -108 23.667 -189.667 71 -245s113.333 -83 198 -83
c182 0 335.333 123 460 369zM1300 1222c88.667 -93.333 133.002 -207.667 133.002 -343c0 -238.667 -88.667 -451.667 -266 -639c-174.667 -183.333 -368.334 -275 -581.001 -275c-134.667 0 -246.334 42 -335.001 126s-133 203.667 -133 359
c0 220.667 87.667 427.667 263 621c176 194 366 291 570 291c144 0 260.333 -46.667 349 -140zM851.001 1801c12 -9.33301 23.001 -20.333 33.001 -33l237 -306h-61l-287 218c-11.333 8.66699 -20.833 18 -28.5 28s-11.5 22.333 -11.5 37c0 19.333 6.66699 35.833 20 49.5
s31.666 20.5 54.999 20.5c16.667 0 31 -4.66699 43 -14zM1121 1358z" />
    <glyph glyph-name="Oacute" unicode="&#xd3;" horiz-adv-x="1479" 
d="M1068 404c100.667 198 150.999 381.667 150.999 551c0 104.667 -22.667 186.5 -68 245.5s-113.666 88.5 -204.999 88.5c-176 0 -326 -117.667 -450 -353c-104.667 -198 -157 -389 -157 -573c0 -108 23.667 -189.667 71 -245s113.333 -83 198 -83
c182 0 335.333 123 460 369zM1300 1222c88.667 -93.333 133.002 -207.667 133.002 -343c0 -238.667 -88.667 -451.667 -266 -639c-174.667 -183.333 -368.334 -275 -581.001 -275c-134.667 0 -246.334 42 -335.001 126s-133 203.667 -133 359
c0 220.667 87.667 427.667 263 621c176 194 366 291 570 291c144 0 260.333 -46.667 349 -140zM1300 1702.5c-7.33301 -9 -15.667 -16.499 -25 -22.499l-350 -218h-72l332 327c6 6 14 11 24 15s19.667 6 29 6c18.667 0 35.5 -6.83301 50.5 -20.5s22.5 -30.834 22.5 -51.501
c0 -14.667 -3.66699 -26.5 -11 -35.5zM853 1358z" />
    <glyph glyph-name="Ocircumflex" unicode="&#xd4;" horiz-adv-x="1479" 
d="M1068 404c100.667 198 150.999 381.667 150.999 551c0 104.667 -22.667 186.5 -68 245.5s-113.666 88.5 -204.999 88.5c-176 0 -326 -117.667 -450 -353c-104.667 -198 -157 -389 -157 -573c0 -108 23.667 -189.667 71 -245s113.333 -83 198 -83
c182 0 335.333 123 460 369zM1300 1222c88.667 -93.333 133.002 -207.667 133.002 -343c0 -238.667 -88.667 -451.667 -266 -639c-174.667 -183.333 -368.334 -275 -581.001 -275c-134.667 0 -246.334 42 -335.001 126s-133 203.667 -133 359
c0 220.667 87.667 427.667 263 621c176 194 366 291 570 291c144 0 260.333 -46.667 349 -140zM1228 1462l-169 213l-279 -213h-81l322 346h100l180 -346h-73zM699.001 1358z" />
    <glyph glyph-name="Otilde" unicode="&#xd5;" horiz-adv-x="1479" 
d="M1068 404c100.667 198 150.999 381.667 150.999 551c0 104.667 -22.667 186.5 -68 245.5s-113.666 88.5 -204.999 88.5c-176 0 -326 -117.667 -450 -353c-104.667 -198 -157 -389 -157 -573c0 -108 23.667 -189.667 71 -245s113.333 -83 198 -83
c182 0 335.333 123 460 369zM1300 1222c88.667 -93.333 133.002 -207.667 133.002 -343c0 -238.667 -88.667 -451.667 -266 -639c-174.667 -183.333 -368.334 -275 -581.001 -275c-134.667 0 -246.334 42 -335.001 126s-133 203.667 -133 359
c0 220.667 87.667 427.667 263 621c176 194 366 291 570 291c144 0 260.333 -46.667 349 -140zM757.001 1669c32 40.667 76.666 61 133.999 61c44.667 0 100.834 -14.667 168.501 -44s113.5 -44 137.5 -44c33.333 0 58.666 10.667 75.999 32c10 12 19.333 31.333 28 58h60
c-11.333 -62.667 -34.5 -113.834 -69.5 -153.501s-77.5 -59.5 -127.5 -59.5c-18 0 -37.5 3.16699 -58.5 9.5s-60.833 20.5 -119.5 42.5l-69 26c-10.667 4 -20.667 7 -30 9s-19.666 3 -30.999 3c-32 0 -54.667 -7.66699 -68 -23s-26.333 -39.333 -39 -72h-59
c12.667 62.667 35 114.334 67 155.001zM690 1358z" />
    <glyph glyph-name="Odieresis" unicode="&#xd6;" horiz-adv-x="1479" 
d="M1068 404c100.667 198 150.999 381.667 150.999 551c0 104.667 -22.667 186.5 -68 245.5s-113.666 88.5 -204.999 88.5c-176 0 -326 -117.667 -450 -353c-104.667 -198 -157 -389 -157 -573c0 -108 23.667 -189.667 71 -245s113.333 -83 198 -83
c182 0 335.333 123 460 369zM1300 1222c88.667 -93.333 133.002 -207.667 133.002 -343c0 -238.667 -88.667 -451.667 -266 -639c-174.667 -183.333 -368.334 -275 -581.001 -275c-134.667 0 -246.334 42 -335.001 126s-133 203.667 -133 359
c0 220.667 87.667 427.667 263 621c176 194 366 291 570 291c144 0 260.333 -46.667 349 -140zM1145.5 1667c19 20 42.833 30.001 71.5 30.001c26.667 0 50.167 -9.83301 70.5 -29.5s30.5 -43.167 30.5 -70.5c0 -28.667 -10 -52.834 -30 -72.501s-43.667 -29.5 -71 -29.5
c-26.667 0 -50 9.5 -70 28.5s-30 43.5 -30 73.5c0 26.667 9.5 50 28.5 70zM875.001 1668.5c20.667 -19 31 -43.168 31 -72.501c0 -26.667 -9.83301 -50.167 -29.5 -70.5s-43.167 -30.5 -70.5 -30.5c-28 0 -52 9.83301 -72 29.5s-30 43.167 -30 70.5
c0 28.667 10 52.834 30 72.501s44 29.5 72 29.5c25.333 0 48.333 -9.5 69 -28.5zM704.001 1358z" />
    <glyph glyph-name="multiply" unicode="&#xd7;" horiz-adv-x="1382" 
d="M290 912l104 88l313 -401l486 401l66 -88l-482 -398l313 -398l-104 -88l-316 398l-483 -398l-66 88l483 398z" />
    <glyph glyph-name="Oslash" unicode="&#xd8;" horiz-adv-x="1479" 
d="M1053 1271c-31.333 12 -66.334 18.001 -105.001 18.001c-183.333 0 -337.666 -125.333 -462.999 -376c-99.333 -199.333 -149 -380.666 -149 -543.999c0 -26.667 2.33301 -54.334 7 -83.001c8.66699 -50 23.667 -95.667 45 -137l728 1088
c-24 15.333 -45 26.666 -63 33.999zM1069 1352c36.667 -6.66699 71.333 -17.334 104 -32.001l107 159h90l-131 -197c74 -56.667 124.5 -119.5 151.5 -188.5s40.5 -145.167 40.5 -228.5c0 -224 -92.667 -431.667 -278 -623c-178.667 -184.667 -364.334 -277 -557.001 -277
c-40 0 -72.833 2.83301 -98.5 8.5s-64.5 16.834 -116.5 33.501l-149 -226h-90l173 264c-54 39.333 -100 92 -138 158s-57 147.333 -57 244c0 223.333 87.333 431 262 623c176.667 194.667 370.334 292 581.001 292c34 0 69.333 -3.33301 106 -10zM1057 378.001
c106.667 196.667 160 388.667 160 576c0 34 -2.66699 66.667 -8 98c-8 49.333 -21.667 91.333 -41 126l-730 -1088c19.333 -16 45.833 -29.333 79.5 -40s65.167 -16 94.5 -16c172 0 320.333 114.667 445 344z" />
    <glyph glyph-name="Ugrave" unicode="&#xd9;" horiz-adv-x="1479" 
d="M395 1090c7.33301 25.333 12.665 46.001 15.998 62.001c5.33301 26 8 47.667 8 65c0 34.667 -12.667 57 -38 67s-65.666 16.333 -120.999 19v33h560v-33c-56 -4.66699 -96 -13.667 -120 -27c-40.667 -22 -69.667 -63.333 -87 -124l-154 -546
c-16 -55.333 -29.333 -105.666 -40 -150.999c-18 -74 -27 -127.333 -27 -160c0 -102.667 44 -175 132 -217c46 -22 94 -33 144 -33c120 0 214.833 36.5 284.5 109.5s124.834 185.833 165.501 338.5l166 611c7.33301 27.333 12.333 48.666 15 63.999s4 28.666 4 39.999
c0 38 -16 64 -48 78c-18.667 8.66699 -50.667 14.334 -96 17.001v33h407v-33c-60.667 -12.667 -101.834 -33.834 -123.501 -63.501s-51.5 -109.5 -89.5 -239.5l-149 -516c-47.333 -189.333 -113.666 -324 -198.999 -404c-86 -80 -206.667 -120 -362 -120
c-121.333 0 -224.5 32.667 -309.5 98s-127.5 149.333 -127.5 252c0 33.333 5.66699 78.5 17 135.5s27 121.833 47 194.5zM858.999 1774c12 -9.33301 23.001 -20.333 33.001 -33l237 -306h-61l-287 218c-11.333 8.66699 -20.833 18 -28.5 28s-11.5 22.333 -11.5 37
c0 19.333 6.66699 35.833 20 49.5s31.666 20.5 54.999 20.5c16.667 0 31 -4.66699 43 -14zM1129 1331z" />
    <glyph glyph-name="Uacute" unicode="&#xda;" horiz-adv-x="1479" 
d="M395 1090c7.33301 25.333 12.665 46.001 15.998 62.001c5.33301 26 8 47.667 8 65c0 34.667 -12.667 57 -38 67s-65.666 16.333 -120.999 19v33h560v-33c-56 -4.66699 -96 -13.667 -120 -27c-40.667 -22 -69.667 -63.333 -87 -124l-154 -546
c-16 -55.333 -29.333 -105.666 -40 -150.999c-18 -74 -27 -127.333 -27 -160c0 -102.667 44 -175 132 -217c46 -22 94 -33 144 -33c120 0 214.833 36.5 284.5 109.5s124.834 185.833 165.501 338.5l166 611c7.33301 27.333 12.333 48.666 15 63.999s4 28.666 4 39.999
c0 38 -16 64 -48 78c-18.667 8.66699 -50.667 14.334 -96 17.001v33h407v-33c-60.667 -12.667 -101.834 -33.834 -123.501 -63.501s-51.5 -109.5 -89.5 -239.5l-149 -516c-47.333 -189.333 -113.666 -324 -198.999 -404c-86 -80 -206.667 -120 -362 -120
c-121.333 0 -224.5 32.667 -309.5 98s-127.5 149.333 -127.5 252c0 33.333 5.66699 78.5 17 135.5s27 121.833 47 194.5zM1308 1675.5c-7.33301 -9 -15.667 -16.499 -25 -22.499l-350 -218h-72l332 327c6 6 14 11 24 15s19.667 6 29 6c18.667 0 35.5 -6.83301 50.5 -20.5
s22.5 -30.834 22.5 -51.501c0 -14.667 -3.66699 -26.5 -11 -35.5zM860.998 1331z" />
    <glyph glyph-name="Ucircumflex" unicode="&#xdb;" horiz-adv-x="1479" 
d="M395 1090c7.33301 25.333 12.665 46.001 15.998 62.001c5.33301 26 8 47.667 8 65c0 34.667 -12.667 57 -38 67s-65.666 16.333 -120.999 19v33h560v-33c-56 -4.66699 -96 -13.667 -120 -27c-40.667 -22 -69.667 -63.333 -87 -124l-154 -546
c-16 -55.333 -29.333 -105.666 -40 -150.999c-18 -74 -27 -127.333 -27 -160c0 -102.667 44 -175 132 -217c46 -22 94 -33 144 -33c120 0 214.833 36.5 284.5 109.5s124.834 185.833 165.501 338.5l166 611c7.33301 27.333 12.333 48.666 15 63.999s4 28.666 4 39.999
c0 38 -16 64 -48 78c-18.667 8.66699 -50.667 14.334 -96 17.001v33h407v-33c-60.667 -12.667 -101.834 -33.834 -123.501 -63.501s-51.5 -109.5 -89.5 -239.5l-149 -516c-47.333 -189.333 -113.666 -324 -198.999 -404c-86 -80 -206.667 -120 -362 -120
c-121.333 0 -224.5 32.667 -309.5 98s-127.5 149.333 -127.5 252c0 33.333 5.66699 78.5 17 135.5s27 121.833 47 194.5zM1226 1435l-169 213l-279 -213h-81l322 346h100l180 -346h-73zM696.999 1331z" />
    <glyph glyph-name="Udieresis" unicode="&#xdc;" horiz-adv-x="1479" 
d="M395 1090c7.33301 25.333 12.665 46.001 15.998 62.001c5.33301 26 8 47.667 8 65c0 34.667 -12.667 57 -38 67s-65.666 16.333 -120.999 19v33h560v-33c-56 -4.66699 -96 -13.667 -120 -27c-40.667 -22 -69.667 -63.333 -87 -124l-154 -546
c-16 -55.333 -29.333 -105.666 -40 -150.999c-18 -74 -27 -127.333 -27 -160c0 -102.667 44 -175 132 -217c46 -22 94 -33 144 -33c120 0 214.833 36.5 284.5 109.5s124.834 185.833 165.501 338.5l166 611c7.33301 27.333 12.333 48.666 15 63.999s4 28.666 4 39.999
c0 38 -16 64 -48 78c-18.667 8.66699 -50.667 14.334 -96 17.001v33h407v-33c-60.667 -12.667 -101.834 -33.834 -123.501 -63.501s-51.5 -109.5 -89.5 -239.5l-149 -516c-47.333 -189.333 -113.666 -324 -198.999 -404c-86 -80 -206.667 -120 -362 -120
c-121.333 0 -224.5 32.667 -309.5 98s-127.5 149.333 -127.5 252c0 33.333 5.66699 78.5 17 135.5s27 121.833 47 194.5zM1153.5 1640c19 20 42.833 30.001 71.5 30.001c26.667 0 50.167 -9.83301 70.5 -29.5s30.5 -43.167 30.5 -70.5c0 -28.667 -10 -52.834 -30 -72.501
s-43.667 -29.5 -71 -29.5c-26.667 0 -50 9.5 -70 28.5s-30 43.5 -30 73.5c0 26.667 9.5 50 28.5 70zM882.999 1641.5c20.667 -19 31 -43.168 31 -72.501c0 -26.667 -9.83301 -50.167 -29.5 -70.5s-43.167 -30.5 -70.5 -30.5c-28 0 -52 9.83301 -72 29.5s-30 43.167 -30 70.5
c0 28.667 10 52.834 30 72.501s44 29.5 72 29.5c25.333 0 48.333 -9.5 69 -28.5zM711.999 1331z" />
    <glyph glyph-name="Yacute" unicode="&#xdd;" horiz-adv-x="1139" 
d="M158 33c60.667 4.66699 103.665 13.333 128.998 26c40 21.333 69 63 87 125l126 434l-159 550c-16.667 58 -33.334 93.5 -50.001 106.5s-51.334 22.5 -104.001 28.5v33h488v-33c-49.333 -2.66699 -83.333 -7.33398 -102 -14.001c-30.667 -11.333 -46 -32.333 -46 -63
c0 -10 2 -24 6 -42s7 -29.667 9 -35l124 -438l222 270c50 60.667 85.667 106.667 107 138c36.667 52.667 55 92.334 55 119.001s-13.667 44.667 -41 54c-16.667 5.33301 -49.667 9 -99 11v33h424v-33c-39.333 -4.66699 -70.166 -14.667 -92.499 -30
s-52.166 -46.333 -89.499 -93l-448 -555l-112 -379c-9.33301 -31.333 -15.666 -56.666 -18.999 -75.999s-5 -35 -5 -47c0 -38.667 12.833 -62.834 38.5 -72.501s73.834 -15.5 144.501 -17.5v-33h-593v33zM1043 1673.5c-7.33301 -9 -15.667 -16.499 -25 -22.499l-350 -218
h-72l332 327c6 6 14 11 24 15s19.667 6 29 6c18.667 0 35.5 -6.83301 50.5 -20.5s22.5 -30.834 22.5 -51.501c0 -14.667 -3.66699 -26.5 -11 -35.5zM595.997 1329z" />
    <glyph glyph-name="Thorn" unicode="&#xde;" horiz-adv-x="1251" 
d="M942 1000c-52.667 28 -121.001 41.999 -205.001 41.999c-58 0 -94.167 -5.5 -108.5 -16.5s-28.833 -41.833 -43.5 -92.5l-147 -502l72 -3c198.667 0 342.334 62 431.001 186c53.333 74.667 80 151.334 80 230.001c0 76 -26.333 128 -79 156zM-0.000976562 -0.000976562
v37.001c56 -2.66699 93.833 8.83301 113.5 34.5s42.5 83.834 68.5 174.501l251 868c8.66699 30.667 14.667 53.834 18 69.501s5 29.167 5 40.5c0 30 -10.167 52 -30.5 66s-57.166 23 -110.499 27l9 38h517l-9 -40c-62.667 -10 -106.167 -26.167 -130.5 -48.5
s-47.5 -73.166 -69.5 -152.499h202c56.667 0 127 -9.66699 211 -29c131.333 -40 197 -118 197 -234c0 -75.333 -23.333 -151.333 -70 -228s-110.334 -136.667 -191.001 -180c-78.667 -42.667 -166.667 -70.334 -264 -83.001c-60.667 -8 -160.667 -12 -300 -12l-24 -76
c-8 -24 -15.333 -48.333 -22 -73s-10 -44.334 -10 -59.001c0 -42.667 16.667 -71.334 50 -86.001c19.333 -8.66699 56 -14.334 110 -17.001l-5 -37h-516z" />
    <glyph glyph-name="germandbls" unicode="&#xdf;" 
d="M-189.5 -314c-3 -8 -7.5 -16.3281 -13.5 -24.9951c-2.66699 -4.66699 -4.66699 -10.334 -6 -17.001c0 -8 3.66699 -13.5 11 -16.5s16 -4.5 26 -4.5c56 0 99.667 31 131 93c31.333 61.333 60.666 152.666 87.999 273.999l147 654l25 96
c48.667 192.667 101.667 336.334 159 431.001c89.333 146.667 205.666 220 348.999 220c84.667 0 152.834 -25 204.501 -75s77.5 -113 77.5 -189c0 -96 -43.667 -177.333 -131 -244c-54 -41.333 -116 -72 -186 -92l-17 -5v-7c72.667 -3.33301 133.167 -31.666 181.5 -84.999
s72.5 -124.333 72.5 -213c0 -106.667 -41 -218.334 -123 -335.001s-186 -175 -312 -175c-54.667 0 -96.167 14.833 -124.5 44.5s-42.5 61.167 -42.5 94.5c0 31.333 9 55.166 27 71.499s38.333 24.5 61 24.5c21.333 0 40.333 -7.33301 57 -22s25 -33.667 25 -57
c0 -12 -1 -21.333 -3 -28s-5.33301 -15.334 -10 -26.001c-3.33301 -6 -5.83301 -11.333 -7.5 -16s-2.5 -9.33398 -2.5 -14.001c0 -9.33301 3.83301 -15.833 11.5 -19.5s17.5 -5.5 29.5 -5.5c68.667 0 125.167 58.167 169.5 174.5s66.5 223.166 66.5 320.499
c0 90 -14 152.667 -42 188c-28 34.667 -67.667 53 -119 55c-21.333 0.666992 -36.5 2.5 -45.5 5.5s-13.5 10.5 -13.5 22.5c0 10.667 3.33301 17.5 10 20.5s23.667 6.5 51 10.5c106.667 14 180.667 74.667 222 182c21.333 54.667 32 113.667 32 177c0 37.333 -5 69 -15 95
c-20 50 -56.333 75 -109 75c-78.667 0 -148.667 -62.667 -210 -188c-33.333 -67.333 -63.666 -154 -90.999 -260l-227 -873c-16.667 -65.333 -40.167 -128.833 -70.5 -190.5s-58.5 -109.167 -84.5 -142.5c-37.333 -47.333 -74.5 -78.833 -111.5 -94.5
s-75.167 -23.5 -114.5 -23.5c-58 0 -99.5 14.333 -124.5 43s-37.5 57 -37.5 85c0 30 9.5 52.333 28.5 67s38.5 22 58.5 22c18 0 35.333 -6.83301 52 -20.5s25 -32.167 25 -55.5c0 -10 -1.5 -19 -4.5 -27z" />
    <glyph glyph-name="agrave" unicode="&#xe0;" 
d="M713 828c-22 22.667 -48.667 33.999 -80 33.999c-108.667 0 -209.667 -83.333 -303 -250c-82 -146.667 -123 -273 -123 -379c0 -53.333 11.5 -92.166 34.5 -116.499s51.5 -36.5 85.5 -36.5c100.667 0 197.667 81 291 243c85.333 147.333 128 280.333 128 399
c0 48 -11 83.333 -33 106zM743 865.999c15.333 -14.667 27.333 -33.998 36 -57.998l5 -14l22 76c2.66699 8.66699 5 14.5 7 17.5s6.66699 4.83301 14 5.5l113 13c6 0 9.5 -1.16699 10.5 -3.5s0.833008 -6.5 -0.5 -12.5c-2.66699 -8.66699 -4.66699 -15.5 -6 -20.5l-6 -21.5
l-92 -358l-51 -202c-24.667 -102.667 -37 -161.334 -37 -176.001c0 -9.33301 2.5 -16.166 7.5 -20.499s11.167 -6.5 18.5 -6.5c6 0 12.5 2 19.5 6s15.5 10 25.5 18l17 14l18 16.5l24 23.5l62 64l24 -21c-69.333 -88.667 -125 -148.834 -167 -180.501s-82 -47.5 -120 -47.5
c-24.667 0 -43.834 8.66699 -57.501 26s-20.5 39 -20.5 65c0 24 4.5 58.5 13.5 103.5s17.833 82.833 26.5 113.5c-12 -20 -32.167 -49.167 -60.5 -87.5s-63.166 -75.5 -104.499 -111.5c-48.667 -43.333 -95.334 -74 -140.001 -92c-34.667 -12 -68 -18 -100 -18
c-54 0 -103 22.167 -147 66.5s-66 107.166 -66 188.499c0 140 62.667 286 188 438c129.333 158 263.333 237 402 237c52.667 0 93.334 -13.667 122.001 -41zM555 1346c12 -9.33301 23.001 -20.333 33.001 -33l237 -306h-61l-287 218c-11.333 8.66699 -20.833 18 -28.5 28
s-11.5 22.333 -11.5 37c0 19.333 6.66699 35.833 20 49.5s31.666 20.5 54.999 20.5c16.667 0 31 -4.66699 43 -14zM825.001 903.001z" />
    <glyph glyph-name="aacute" unicode="&#xe1;" 
d="M713 828c-22 22.667 -48.667 33.999 -80 33.999c-108.667 0 -209.667 -83.333 -303 -250c-82 -146.667 -123 -273 -123 -379c0 -53.333 11.5 -92.166 34.5 -116.499s51.5 -36.5 85.5 -36.5c100.667 0 197.667 81 291 243c85.333 147.333 128 280.333 128 399
c0 48 -11 83.333 -33 106zM743 865.999c15.333 -14.667 27.333 -33.998 36 -57.998l5 -14l22 76c2.66699 8.66699 5 14.5 7 17.5s6.66699 4.83301 14 5.5l113 13c6 0 9.5 -1.16699 10.5 -3.5s0.833008 -6.5 -0.5 -12.5c-2.66699 -8.66699 -4.66699 -15.5 -6 -20.5l-6 -21.5
l-92 -358l-51 -202c-24.667 -102.667 -37 -161.334 -37 -176.001c0 -9.33301 2.5 -16.166 7.5 -20.499s11.167 -6.5 18.5 -6.5c6 0 12.5 2 19.5 6s15.5 10 25.5 18l17 14l18 16.5l24 23.5l62 64l24 -21c-69.333 -88.667 -125 -148.834 -167 -180.501s-82 -47.5 -120 -47.5
c-24.667 0 -43.834 8.66699 -57.501 26s-20.5 39 -20.5 65c0 24 4.5 58.5 13.5 103.5s17.833 82.833 26.5 113.5c-12 -20 -32.167 -49.167 -60.5 -87.5s-63.166 -75.5 -104.499 -111.5c-48.667 -43.333 -95.334 -74 -140.001 -92c-34.667 -12 -68 -18 -100 -18
c-54 0 -103 22.167 -147 66.5s-66 107.166 -66 188.499c0 140 62.667 286 188 438c129.333 158 263.333 237 402 237c52.667 0 93.334 -13.667 122.001 -41zM1004 1247.5c-7.33301 -9 -15.667 -16.499 -25 -22.499l-350 -218h-72l332 327c6 6 14 11 24 15s19.667 6 29 6
c18.667 0 35.5 -6.83301 50.5 -20.5s22.5 -30.834 22.5 -51.501c0 -14.667 -3.66699 -26.5 -11 -35.5zM556.999 903.002z" />
    <glyph glyph-name="acircumflex" unicode="&#xe2;" 
d="M713 828c-22 22.667 -48.667 33.999 -80 33.999c-108.667 0 -209.667 -83.333 -303 -250c-82 -146.667 -123 -273 -123 -379c0 -53.333 11.5 -92.166 34.5 -116.499s51.5 -36.5 85.5 -36.5c100.667 0 197.667 81 291 243c85.333 147.333 128 280.333 128 399
c0 48 -11 83.333 -33 106zM743 865.999c15.333 -14.667 27.333 -33.998 36 -57.998l5 -14l22 76c2.66699 8.66699 5 14.5 7 17.5s6.66699 4.83301 14 5.5l113 13c6 0 9.5 -1.16699 10.5 -3.5s0.833008 -6.5 -0.5 -12.5c-2.66699 -8.66699 -4.66699 -15.5 -6 -20.5l-6 -21.5
l-92 -358l-51 -202c-24.667 -102.667 -37 -161.334 -37 -176.001c0 -9.33301 2.5 -16.166 7.5 -20.499s11.167 -6.5 18.5 -6.5c6 0 12.5 2 19.5 6s15.5 10 25.5 18l17 14l18 16.5l24 23.5l62 64l24 -21c-69.333 -88.667 -125 -148.834 -167 -180.501s-82 -47.5 -120 -47.5
c-24.667 0 -43.834 8.66699 -57.501 26s-20.5 39 -20.5 65c0 24 4.5 58.5 13.5 103.5s17.833 82.833 26.5 113.5c-12 -20 -32.167 -49.167 -60.5 -87.5s-63.166 -75.5 -104.499 -111.5c-48.667 -43.333 -95.334 -74 -140.001 -92c-34.667 -12 -68 -18 -100 -18
c-54 0 -103 22.167 -147 66.5s-66 107.166 -66 188.499c0 140 62.667 286 188 438c129.333 158 263.333 237 402 237c52.667 0 93.334 -13.667 122.001 -41zM892 1007l-169 213l-279 -213h-81l322 346h100l180 -346h-73zM363 903.001z" />
    <glyph glyph-name="atilde" unicode="&#xe3;" 
d="M713 828c-22 22.667 -48.667 33.999 -80 33.999c-108.667 0 -209.667 -83.333 -303 -250c-82 -146.667 -123 -273 -123 -379c0 -53.333 11.5 -92.166 34.5 -116.499s51.5 -36.5 85.5 -36.5c100.667 0 197.667 81 291 243c85.333 147.333 128 280.333 128 399
c0 48 -11 83.333 -33 106zM743 865.999c15.333 -14.667 27.333 -33.998 36 -57.998l5 -14l22 76c2.66699 8.66699 5 14.5 7 17.5s6.66699 4.83301 14 5.5l113 13c6 0 9.5 -1.16699 10.5 -3.5s0.833008 -6.5 -0.5 -12.5c-2.66699 -8.66699 -4.66699 -15.5 -6 -20.5l-6 -21.5
l-92 -358l-51 -202c-24.667 -102.667 -37 -161.334 -37 -176.001c0 -9.33301 2.5 -16.166 7.5 -20.499s11.167 -6.5 18.5 -6.5c6 0 12.5 2 19.5 6s15.5 10 25.5 18l17 14l18 16.5l24 23.5l62 64l24 -21c-69.333 -88.667 -125 -148.834 -167 -180.501s-82 -47.5 -120 -47.5
c-24.667 0 -43.834 8.66699 -57.501 26s-20.5 39 -20.5 65c0 24 4.5 58.5 13.5 103.5s17.833 82.833 26.5 113.5c-12 -20 -32.167 -49.167 -60.5 -87.5s-63.166 -75.5 -104.499 -111.5c-48.667 -43.333 -95.334 -74 -140.001 -92c-34.667 -12 -68 -18 -100 -18
c-54 0 -103 22.167 -147 66.5s-66 107.166 -66 188.499c0 140 62.667 286 188 438c129.333 158 263.333 237 402 237c52.667 0 93.334 -13.667 122.001 -41zM461 1214c32 40.667 76.666 61 133.999 61c44.667 0 100.834 -14.667 168.501 -44s113.5 -44 137.5 -44
c33.333 0 58.666 10.667 75.999 32c10 12 19.333 31.333 28 58h60c-11.333 -62.667 -34.5 -113.834 -69.5 -153.501s-77.5 -59.5 -127.5 -59.5c-18 0 -37.5 3.16699 -58.5 9.5s-60.833 20.5 -119.5 42.5l-69 26c-10.667 4 -20.667 7 -30 9s-19.666 3 -30.999 3
c-32 0 -54.667 -7.66699 -68 -23s-26.333 -39.333 -39 -72h-59c12.667 62.667 35 114.334 67 155.001zM393.999 903.001z" />
    <glyph glyph-name="adieresis" unicode="&#xe4;" 
d="M713 828c-22 22.667 -48.667 33.999 -80 33.999c-108.667 0 -209.667 -83.333 -303 -250c-82 -146.667 -123 -273 -123 -379c0 -53.333 11.5 -92.166 34.5 -116.499s51.5 -36.5 85.5 -36.5c100.667 0 197.667 81 291 243c85.333 147.333 128 280.333 128 399
c0 48 -11 83.333 -33 106zM743 865.999c15.333 -14.667 27.333 -33.998 36 -57.998l5 -14l22 76c2.66699 8.66699 5 14.5 7 17.5s6.66699 4.83301 14 5.5l113 13c6 0 9.5 -1.16699 10.5 -3.5s0.833008 -6.5 -0.5 -12.5c-2.66699 -8.66699 -4.66699 -15.5 -6 -20.5l-6 -21.5
l-92 -358l-51 -202c-24.667 -102.667 -37 -161.334 -37 -176.001c0 -9.33301 2.5 -16.166 7.5 -20.499s11.167 -6.5 18.5 -6.5c6 0 12.5 2 19.5 6s15.5 10 25.5 18l17 14l18 16.5l24 23.5l62 64l24 -21c-69.333 -88.667 -125 -148.834 -167 -180.501s-82 -47.5 -120 -47.5
c-24.667 0 -43.834 8.66699 -57.501 26s-20.5 39 -20.5 65c0 24 4.5 58.5 13.5 103.5s17.833 82.833 26.5 113.5c-12 -20 -32.167 -49.167 -60.5 -87.5s-63.166 -75.5 -104.499 -111.5c-48.667 -43.333 -95.334 -74 -140.001 -92c-34.667 -12 -68 -18 -100 -18
c-54 0 -103 22.167 -147 66.5s-66 107.166 -66 188.499c0 140 62.667 286 188 438c129.333 158 263.333 237 402 237c52.667 0 93.334 -13.667 122.001 -41zM849.5 1212c19 20 42.833 30.001 71.5 30.001c26.667 0 50.167 -9.83301 70.5 -29.5s30.5 -43.167 30.5 -70.5
c0 -28.667 -10 -52.834 -30 -72.501s-43.667 -29.5 -71 -29.5c-26.667 0 -50 9.5 -70 28.5s-30 43.5 -30 73.5c0 26.667 9.5 50 28.5 70zM579 1213.5c20.667 -19 31 -43.168 31 -72.501c0 -26.667 -9.83301 -50.167 -29.5 -70.5s-43.167 -30.5 -70.5 -30.5
c-28 0 -52 9.83301 -72 29.5s-30 43.167 -30 70.5c0 28.667 10 52.834 30 72.501s44 29.5 72 29.5c25.333 0 48.333 -9.5 69 -28.5zM408 903.001z" />
    <glyph glyph-name="aring" unicode="&#xe5;" 
d="M713 828c-22 22.667 -48.667 33.999 -80 33.999c-108.667 0 -209.667 -83.333 -303 -250c-82 -146.667 -123 -273 -123 -379c0 -53.333 11.5 -92.166 34.5 -116.499s51.5 -36.5 85.5 -36.5c100.667 0 197.667 81 291 243c85.333 147.333 128 280.333 128 399
c0 48 -11 83.333 -33 106zM743 865.999c15.333 -14.667 27.333 -33.998 36 -57.998l5 -14l22 76c2.66699 8.66699 5 14.5 7 17.5s6.66699 4.83301 14 5.5l113 13c6 0 9.5 -1.16699 10.5 -3.5s0.833008 -6.5 -0.5 -12.5c-2.66699 -8.66699 -4.66699 -15.5 -6 -20.5l-6 -21.5
l-92 -358l-51 -202c-24.667 -102.667 -37 -161.334 -37 -176.001c0 -9.33301 2.5 -16.166 7.5 -20.499s11.167 -6.5 18.5 -6.5c6 0 12.5 2 19.5 6s15.5 10 25.5 18l17 14l18 16.5l24 23.5l62 64l24 -21c-69.333 -88.667 -125 -148.834 -167 -180.501s-82 -47.5 -120 -47.5
c-24.667 0 -43.834 8.66699 -57.501 26s-20.5 39 -20.5 65c0 24 4.5 58.5 13.5 103.5s17.833 82.833 26.5 113.5c-12 -20 -32.167 -49.167 -60.5 -87.5s-63.166 -75.5 -104.499 -111.5c-48.667 -43.333 -95.334 -74 -140.001 -92c-34.667 -12 -68 -18 -100 -18
c-54 0 -103 22.167 -147 66.5s-66 107.166 -66 188.499c0 140 62.667 286 188 438c129.333 158 263.333 237 402 237c52.667 0 93.334 -13.667 122.001 -41zM617 1126.5c24.667 -24.333 54.334 -36.502 89.001 -36.502s64.167 12.333 88.5 37s36.5 54.334 36.5 89.001
s-12.167 64.167 -36.5 88.5s-53.833 36.5 -88.5 36.5s-64.334 -12.167 -89.001 -36.5s-37 -53.833 -37 -88.5c0 -35.333 12.333 -65.166 37 -89.499zM558.5 1363c41 40.667 90.167 61 147.5 61s106.333 -20.333 147 -61s61 -89.667 61 -147c0 -58 -20.333 -107.333 -61 -148
s-89.667 -61 -147 -61c-58 0 -107.333 20.333 -148 61s-61 90 -61 148c0 57.333 20.5 106.333 61.5 147zM706 968.999z" />
    <glyph glyph-name="ae" unicode="&#xe6;" horiz-adv-x="1366" 
d="M1156 839c-12.667 15.333 -30.668 23.001 -54.001 23.001c-72.667 0 -137.667 -50.167 -195 -150.5s-93.666 -184.5 -108.999 -252.5c48.667 12 92.667 25.667 132 41c60 23.333 106 49 138 77c40 36 69.333 77 88 123c12.667 30.667 19 57.667 19 81
s-6.33301 42.666 -19 57.999zM580.999 338.001c90.667 159.333 136.002 295.667 136.002 409c0 34 -9.16699 63.333 -27.5 88s-41.833 37 -70.5 37c-88.667 0 -178.334 -82 -269.001 -246c-85.333 -155.333 -128 -296.333 -128 -423c0 -37.333 8.5 -66.833 25.5 -88.5
s37.833 -32.5 62.5 -32.5c83.333 0 173.666 85.333 270.999 256zM713.001 879.002c13.333 -12.667 26.6689 -35.6699 40.002 -69.0029l41 90h147l-38 -116c22 24.667 48 47.334 78 68.001c57.333 40 113.666 60 168.999 60c46.667 0 85 -12.5 115 -37.5
s45 -61.167 45 -108.5c0 -98 -68.667 -181.333 -206 -250c-76 -38 -182 -73.333 -318 -106c-5.33301 -24.667 -9.16602 -46.334 -11.499 -65.001s-3.5 -40.667 -3.5 -66c0 -61.333 12 -110.166 36 -146.499s63.333 -54.5 118 -54.5c39.333 0 84.666 14.833 135.999 44.5
s99 66.834 143 111.501l21 -24c-31.333 -40 -76.666 -82 -135.999 -126c-94 -70.667 -180.667 -106 -260 -106c-95.333 0 -160.333 44 -195 132c-18.667 46.667 -29.334 107 -32.001 181c-56.667 -88 -106.667 -154 -150 -198c-75.333 -76.667 -150.333 -115 -225 -115
c-59.333 0 -104.333 20.333 -135 61s-46 89.667 -46 147c0 154.667 63 314.334 189 479.001c127.333 164.667 251.333 247 372 247c47.333 0 82.666 -11 105.999 -33z" />
    <glyph glyph-name="ccedilla" unicode="&#xe7;" horiz-adv-x="909" 
d="M816 848c36 -36.667 54.0039 -72.333 54.0039 -107c0 -31.333 -9.33301 -55.666 -28 -72.999s-40.667 -26 -66 -26c-24.667 0 -45.334 7.66699 -62.001 23s-25 34.333 -25 57c0 17.333 5.5 36 16.5 56s16.5 33 16.5 39c0 12 -6.83301 22.167 -20.5 30.5
s-35.5 12.5 -65.5 12.5c-107.333 0 -200.5 -61 -279.5 -183s-118.5 -250 -118.5 -384c0 -75.333 16 -134.333 48 -177s80 -64 144 -64c51.333 0 101.166 14.833 149.499 44.5s92.833 67.5 133.5 113.5l7 8l29 -22c-46.667 -59.333 -91.667 -105 -135 -137
c-76.667 -55.333 -161.667 -83 -255 -83c-12 0 -23.667 1 -35 3l-76 -117c10 2.66699 18.167 4.5 24.5 5.5s14.5 1.5 24.5 1.5c53.333 0 94.833 -13 124.5 -39s44.5 -59 44.5 -99c0 -56.667 -23.5 -100.334 -70.5 -131.001s-106.5 -46 -178.5 -46
c-23.333 0 -54.333 4.16699 -93 12.5s-70 18.5 -94 30.5l35 59c37.333 -12.667 63.666 -21 78.999 -25s34 -6 56 -6c44.667 0 77 12 97 36c13.333 15.333 20 33 20 53c0 24.667 -7.83301 44.834 -23.5 60.501s-39.834 23.5 -72.501 23.5c-8.66699 0 -17.667 -1 -27 -3
s-23 -5.66699 -41 -11l-19 16l124 191c-60 14.667 -108.167 46 -144.5 94s-54.5 118 -54.5 210c0 151.333 61.667 290.666 185 417.999c122 126.667 254 190 396 190c81.333 0 140 -18.333 176 -55z" />
    <glyph glyph-name="egrave" unicode="&#xe8;" horiz-adv-x="909" 
d="M264 695c132 138.667 268.333 207.999 409 207.999c52 0 93.333 -12 124 -36s46 -59.667 46 -107c0 -96 -56.167 -178.167 -168.5 -246.5s-230.5 -110.166 -354.5 -125.499l-57 -7c-8.66699 -27.333 -14.667 -49.166 -18 -65.499s-5 -36.833 -5 -61.5
c0 -58.667 19.167 -104.334 57.5 -137.001s83.833 -49 136.5 -49c50 0 103 16.667 159 50c32 19.333 78.333 54 139 104l26 -23c-30 -38 -73 -77 -129 -117c-99.333 -71.333 -199 -107 -299 -107c-70.667 0 -132.667 25 -186 75s-80 121.667 -80 215
c0 148 66.667 291.333 200 430zM588 560.499c80 71 120 141.5 120 211.5c0 25.333 -6 45.5 -18 60.5s-29.667 22.5 -53 22.5c-43.333 0 -85.833 -18.5 -127.5 -55.5s-79.167 -78.833 -112.5 -125.5c-35.333 -54.667 -63.333 -107 -84 -157
c-11.333 -26.667 -23.333 -57 -36 -91c127.333 18.667 231 63.5 311 134.5zM518 1346c12 -9.33301 23.001 -20.333 33.001 -33l237 -306h-61l-287 218c-11.333 8.66699 -20.833 18 -28.5 28s-11.5 22.333 -11.5 37c0 19.333 6.66699 35.833 20 49.5s31.666 20.5 54.999 20.5
c16.667 0 31 -4.66699 43 -14zM788.001 902.999z" />
    <glyph glyph-name="eacute" unicode="&#xe9;" horiz-adv-x="909" 
d="M264 695c132 138.667 268.333 207.999 409 207.999c52 0 93.333 -12 124 -36s46 -59.667 46 -107c0 -96 -56.167 -178.167 -168.5 -246.5s-230.5 -110.166 -354.5 -125.499l-57 -7c-8.66699 -27.333 -14.667 -49.166 -18 -65.499s-5 -36.833 -5 -61.5
c0 -58.667 19.167 -104.334 57.5 -137.001s83.833 -49 136.5 -49c50 0 103 16.667 159 50c32 19.333 78.333 54 139 104l26 -23c-30 -38 -73 -77 -129 -117c-99.333 -71.333 -199 -107 -299 -107c-70.667 0 -132.667 25 -186 75s-80 121.667 -80 215
c0 148 66.667 291.333 200 430zM588 560.499c80 71 120 141.5 120 211.5c0 25.333 -6 45.5 -18 60.5s-29.667 22.5 -53 22.5c-43.333 0 -85.833 -18.5 -127.5 -55.5s-79.167 -78.833 -112.5 -125.5c-35.333 -54.667 -63.333 -107 -84 -157
c-11.333 -26.667 -23.333 -57 -36 -91c127.333 18.667 231 63.5 311 134.5zM967 1247.5c-7.33301 -9 -15.667 -16.499 -25 -22.499l-350 -218h-72l332 327c6 6 14 11 24 15s19.667 6 29 6c18.667 0 35.5 -6.83301 50.5 -20.5s22.5 -30.834 22.5 -51.501
c0 -14.667 -3.66699 -26.5 -11 -35.5zM519.999 903z" />
    <glyph glyph-name="ecircumflex" unicode="&#xea;" horiz-adv-x="909" 
d="M264 695c132 138.667 268.333 207.999 409 207.999c52 0 93.333 -12 124 -36s46 -59.667 46 -107c0 -96 -56.167 -178.167 -168.5 -246.5s-230.5 -110.166 -354.5 -125.499l-57 -7c-8.66699 -27.333 -14.667 -49.166 -18 -65.499s-5 -36.833 -5 -61.5
c0 -58.667 19.167 -104.334 57.5 -137.001s83.833 -49 136.5 -49c50 0 103 16.667 159 50c32 19.333 78.333 54 139 104l26 -23c-30 -38 -73 -77 -129 -117c-99.333 -71.333 -199 -107 -299 -107c-70.667 0 -132.667 25 -186 75s-80 121.667 -80 215
c0 148 66.667 291.333 200 430zM588 560.499c80 71 120 141.5 120 211.5c0 25.333 -6 45.5 -18 60.5s-29.667 22.5 -53 22.5c-43.333 0 -85.833 -18.5 -127.5 -55.5s-79.167 -78.833 -112.5 -125.5c-35.333 -54.667 -63.333 -107 -84 -157
c-11.333 -26.667 -23.333 -57 -36 -91c127.333 18.667 231 63.5 311 134.5zM855 1007l-169 213l-279 -213h-81l322 346h100l180 -346h-73zM326 902.999z" />
    <glyph glyph-name="edieresis" unicode="&#xeb;" horiz-adv-x="909" 
d="M264 695c132 138.667 268.333 207.999 409 207.999c52 0 93.333 -12 124 -36s46 -59.667 46 -107c0 -96 -56.167 -178.167 -168.5 -246.5s-230.5 -110.166 -354.5 -125.499l-57 -7c-8.66699 -27.333 -14.667 -49.166 -18 -65.499s-5 -36.833 -5 -61.5
c0 -58.667 19.167 -104.334 57.5 -137.001s83.833 -49 136.5 -49c50 0 103 16.667 159 50c32 19.333 78.333 54 139 104l26 -23c-30 -38 -73 -77 -129 -117c-99.333 -71.333 -199 -107 -299 -107c-70.667 0 -132.667 25 -186 75s-80 121.667 -80 215
c0 148 66.667 291.333 200 430zM588 560.499c80 71 120 141.5 120 211.5c0 25.333 -6 45.5 -18 60.5s-29.667 22.5 -53 22.5c-43.333 0 -85.833 -18.5 -127.5 -55.5s-79.167 -78.833 -112.5 -125.5c-35.333 -54.667 -63.333 -107 -84 -157
c-11.333 -26.667 -23.333 -57 -36 -91c127.333 18.667 231 63.5 311 134.5zM812.5 1212c19 20 42.833 30.001 71.5 30.001c26.667 0 50.167 -9.83301 70.5 -29.5s30.5 -43.167 30.5 -70.5c0 -28.667 -10 -52.834 -30 -72.501s-43.667 -29.5 -71 -29.5
c-26.667 0 -50 9.5 -70 28.5s-30 43.5 -30 73.5c0 26.667 9.5 50 28.5 70zM542 1213.5c20.667 -19 31 -43.168 31 -72.501c0 -26.667 -9.83301 -50.167 -29.5 -70.5s-43.167 -30.5 -70.5 -30.5c-28 0 -52 9.83301 -72 29.5s-30 43.167 -30 70.5
c0 28.667 10 52.834 30 72.501s44 29.5 72 29.5c25.333 0 48.333 -9.5 69 -28.5zM371 902.999z" />
    <glyph glyph-name="igrave" unicode="&#xec;" horiz-adv-x="569" 
d="M469 898l-201.999 -714.002c-9.33301 -38 -14 -60.667 -14 -68c0 -10 2 -18.667 6 -26c3.33301 -8 11.666 -12 24.999 -12c22.667 0 52.667 19.667 90 59c22 23.333 49 56.666 81 99.999l26 -22l-10 -14c-50 -70 -91.333 -120.333 -124 -151
c-51.333 -48 -101.333 -72 -150 -72c-28.667 0 -52.5 12 -71.5 36s-28.5 52.333 -28.5 85c0 19.333 1.33301 36.166 4 50.499s7.66699 35.5 15 63.5l140 514c2 8 3.66699 15.333 5 22s2 13.334 2 20.001c0 24 -8.83301 38.833 -26.5 44.5s-52.5 8.5 -104.5 8.5v33
c55.333 6.66699 95.166 11.834 119.499 15.501l73.5 11.5c32 5.33301 62.333 11.333 91 18s44.834 8.83398 48.501 6.50098s5.16699 -5.16602 4.5 -8.49902zM287.001 1346c12 -9.33301 23.001 -20.333 33.001 -33l237 -306h-61l-287 218
c-11.333 8.66699 -20.833 18 -28.5 28s-11.5 22.333 -11.5 37c0 19.333 6.66699 35.833 20 49.5s31.666 20.5 54.999 20.5c16.667 0 31 -4.66699 43 -14zM557.002 902.998z" />
    <glyph glyph-name="iacute" unicode="&#xed;" horiz-adv-x="569" 
d="M469 898l-201.999 -714.002c-9.33301 -38 -14 -60.667 -14 -68c0 -10 2 -18.667 6 -26c3.33301 -8 11.666 -12 24.999 -12c22.667 0 52.667 19.667 90 59c22 23.333 49 56.666 81 99.999l26 -22l-10 -14c-50 -70 -91.333 -120.333 -124 -151
c-51.333 -48 -101.333 -72 -150 -72c-28.667 0 -52.5 12 -71.5 36s-28.5 52.333 -28.5 85c0 19.333 1.33301 36.166 4 50.499s7.66699 35.5 15 63.5l140 514c2 8 3.66699 15.333 5 22s2 13.334 2 20.001c0 24 -8.83301 38.833 -26.5 44.5s-52.5 8.5 -104.5 8.5v33
c55.333 6.66699 95.166 11.834 119.499 15.501l73.5 11.5c32 5.33301 62.333 11.333 91 18s44.834 8.83398 48.501 6.50098s5.16699 -5.16602 4.5 -8.49902zM736.001 1247.5c-7.33301 -9 -15.667 -16.499 -25 -22.499l-350 -218h-72l332 327c6 6 14 11 24 15s19.667 6 29 6
c18.667 0 35.5 -6.83301 50.5 -20.5s22.5 -30.834 22.5 -51.501c0 -14.667 -3.66699 -26.5 -11 -35.5zM289 902.999z" />
    <glyph glyph-name="icircumflex" unicode="&#xee;" horiz-adv-x="569" 
d="M469 898l-201.999 -714.002c-9.33301 -38 -14 -60.667 -14 -68c0 -10 2 -18.667 6 -26c3.33301 -8 11.666 -12 24.999 -12c22.667 0 52.667 19.667 90 59c22 23.333 49 56.666 81 99.999l26 -22l-10 -14c-50 -70 -91.333 -120.333 -124 -151
c-51.333 -48 -101.333 -72 -150 -72c-28.667 0 -52.5 12 -71.5 36s-28.5 52.333 -28.5 85c0 19.333 1.33301 36.166 4 50.499s7.66699 35.5 15 63.5l140 514c2 8 3.66699 15.333 5 22s2 13.334 2 20.001c0 24 -8.83301 38.833 -26.5 44.5s-52.5 8.5 -104.5 8.5v33
c55.333 6.66699 95.166 11.834 119.499 15.501l73.5 11.5c32 5.33301 62.333 11.333 91 18s44.834 8.83398 48.501 6.50098s5.16699 -5.16602 4.5 -8.49902zM624.001 1007l-169 213l-279 -213h-81l322 346h100l180 -346h-73zM95.001 902.998z" />
    <glyph glyph-name="idieresis" unicode="&#xef;" horiz-adv-x="569" 
d="M469 898l-201.999 -714.002c-9.33301 -38 -14 -60.667 -14 -68c0 -10 2 -18.667 6 -26c3.33301 -8 11.666 -12 24.999 -12c22.667 0 52.667 19.667 90 59c22 23.333 49 56.666 81 99.999l26 -22l-10 -14c-50 -70 -91.333 -120.333 -124 -151
c-51.333 -48 -101.333 -72 -150 -72c-28.667 0 -52.5 12 -71.5 36s-28.5 52.333 -28.5 85c0 19.333 1.33301 36.166 4 50.499s7.66699 35.5 15 63.5l140 514c2 8 3.66699 15.333 5 22s2 13.334 2 20.001c0 24 -8.83301 38.833 -26.5 44.5s-52.5 8.5 -104.5 8.5v33
c55.333 6.66699 95.166 11.834 119.499 15.501l73.5 11.5c32 5.33301 62.333 11.333 91 18s44.834 8.83398 48.501 6.50098s5.16699 -5.16602 4.5 -8.49902zM581.501 1212c19 20 42.833 30.001 71.5 30.001c26.667 0 50.167 -9.83301 70.5 -29.5s30.5 -43.167 30.5 -70.5
c0 -28.667 -10 -52.834 -30 -72.501s-43.667 -29.5 -71 -29.5c-26.667 0 -50 9.5 -70 28.5s-30 43.5 -30 73.5c0 26.667 9.5 50 28.5 70zM311.001 1213.5c20.667 -19 31 -43.168 31 -72.501c0 -26.667 -9.83301 -50.167 -29.5 -70.5s-43.167 -30.5 -70.5 -30.5
c-28 0 -52 9.83301 -72 29.5s-30 43.167 -30 70.5c0 28.667 10 52.834 30 72.501s44 29.5 72 29.5c25.333 0 48.333 -9.5 69 -28.5zM140.001 902.998z" />
    <glyph glyph-name="eth" unicode="&#xf0;" 
d="M661 257c74 137.333 111 269.666 111 396.999c0 52 -6.33301 93.333 -19 124c-23.333 56 -67 84 -131 84c-103.333 0 -198.333 -75 -285 -225c-79.333 -137.333 -119 -269.666 -119 -396.999c0 -61.333 6.33301 -107 19 -137c22.667 -53.333 67 -80 133 -80
c109.333 0 206.333 78 291 234zM702 902c16 -3.33301 34.666 -9.33203 55.999 -17.999c-5.33301 33.333 -17.666 75.833 -36.999 127.5s-39.333 93.5 -60 125.5l-176 -59l-47 47l192 67c-34 56 -62.167 97.833 -84.5 125.5s-53.5 62.5 -93.5 104.5l57 40l43 -40l86 -94
l80 -96l189 62l48 -52l-195 -67c58 -87.333 102.333 -175.333 133 -264s46 -174.334 46 -257.001c0 -164 -57.667 -316.333 -173 -457c-121.333 -147.333 -260.333 -221 -417 -221c-92 0 -165.667 26 -221 78s-83 126 -83 222c0 154 62.333 301 187 441
c124 126.667 257.333 190 400 190c30.667 0 54 -1.66699 70 -5z" />
    <glyph glyph-name="ntilde" unicode="&#xf1;" 
d="M37 0l172.999 617.999c14.667 52 23.167 83.5 25.5 94.5s3.5 22.833 3.5 35.5c0 19.333 -5.5 34.5 -16.5 45.5s-32.5 16.5 -64.5 16.5c-8 0 -15.833 -0.5 -23.5 -1.5l-25.5 -3.5v34c43.333 6.66699 74.166 11.667 92.499 15s38.166 7.33301 59.499 12l179 39
c4 -2.66699 6.66699 -5.66699 8 -9l-133 -430c81.333 124.667 149.333 217.334 204 278.001c96 107.333 182 161 258 161c29.333 0 54.666 -5.66699 75.999 -17c40.667 -22 61 -61.667 61 -119c0 -16 -1.66699 -32.667 -5 -50s-7.66602 -36 -12.999 -56l-131 -479
c-2.66699 -10 -5.66699 -22.167 -9 -36.5s-5 -24.5 -5 -30.5c0 -10 2.33301 -19 7 -27s12.334 -12 23.001 -12c17.333 0 37.333 10.167 60 30.5s59.667 63.833 111 130.5l29 -26c-54.667 -74 -98 -126 -130 -156c-54.667 -52.667 -107 -79 -157 -79
c-22.667 0 -44.5 7.5 -65.5 22.5s-31.5 42.167 -31.5 81.5c0 11.333 0.833008 23.333 2.5 36s3.83398 23.667 6.50098 33l126 486c6.66699 26.667 11.167 48.5 13.5 65.5s3.5 29.167 3.5 36.5c0 16 -3.83301 29.833 -11.5 41.5s-21.167 17.5 -40.5 17.5
c-50 0 -113 -45.333 -189 -136c-44.667 -54 -90 -118.333 -136 -193c-35.333 -58 -63.166 -114.5 -83.499 -169.5s-52.5 -154.833 -96.5 -299.5h-155zM394.999 1214c32 40.667 76.666 61 133.999 61c44.667 0 100.834 -14.667 168.501 -44s113.5 -44 137.5 -44
c33.333 0 58.666 10.667 75.999 32c10 12 19.333 31.333 28 58h60c-11.333 -62.667 -34.5 -113.834 -69.5 -153.501s-77.5 -59.5 -127.5 -59.5c-18 0 -37.5 3.16699 -58.5 9.5s-60.833 20.5 -119.5 42.5l-69 26c-10.667 4 -20.667 7 -30 9s-19.666 3 -30.999 3
c-32 0 -54.667 -7.66699 -68 -23s-26.333 -39.333 -39 -72h-59c12.667 62.667 35 114.334 67 155.001zM327.998 902.999z" />
    <glyph glyph-name="ograve" unicode="&#xf2;" 
d="M268.5 77.5c27.667 -36.333 68.167 -54.501 121.5 -54.501c108.667 0 205 82 289 246c71.333 140.667 107 270 107 388c0 50 -6 90.333 -18 121c-23.333 58 -66 87 -128 87c-102 0 -197.667 -76.333 -287 -229c-84 -142.667 -126 -283 -126 -421
c0 -55.333 13.833 -101.166 41.5 -137.499zM888 817.499c46 -59.667 69 -130.167 69 -211.5c0 -141.333 -62.333 -280 -187 -416c-128.667 -141.333 -266 -212 -412 -212c-92 0 -165.667 26.667 -221 80s-83 128.333 -83 225c0 146 62 285.667 186 419
c126.667 136.667 263.667 205 411 205c112 0 191 -29.833 237 -89.5zM551 1346c12 -9.33301 23.001 -20.333 33.001 -33l237 -306h-61l-287 218c-11.333 8.66699 -20.833 18 -28.5 28s-11.5 22.333 -11.5 37c0 19.333 6.66699 35.833 20 49.5s31.666 20.5 54.999 20.5
c16.667 0 31 -4.66699 43 -14zM821.001 902.999z" />
    <glyph glyph-name="oacute" unicode="&#xf3;" 
d="M268.5 77.5c27.667 -36.333 68.167 -54.501 121.5 -54.501c108.667 0 205 82 289 246c71.333 140.667 107 270 107 388c0 50 -6 90.333 -18 121c-23.333 58 -66 87 -128 87c-102 0 -197.667 -76.333 -287 -229c-84 -142.667 -126 -283 -126 -421
c0 -55.333 13.833 -101.166 41.5 -137.499zM888 817.499c46 -59.667 69 -130.167 69 -211.5c0 -141.333 -62.333 -280 -187 -416c-128.667 -141.333 -266 -212 -412 -212c-92 0 -165.667 26.667 -221 80s-83 128.333 -83 225c0 146 62 285.667 186 419
c126.667 136.667 263.667 205 411 205c112 0 191 -29.833 237 -89.5zM1000 1247.5c-7.33301 -9 -15.667 -16.499 -25 -22.499l-350 -218h-72l332 327c6 6 14 11 24 15s19.667 6 29 6c18.667 0 35.5 -6.83301 50.5 -20.5s22.5 -30.834 22.5 -51.501
c0 -14.667 -3.66699 -26.5 -11 -35.5zM552.999 903z" />
    <glyph glyph-name="ocircumflex" unicode="&#xf4;" 
d="M268.5 77.5c27.667 -36.333 68.167 -54.501 121.5 -54.501c108.667 0 205 82 289 246c71.333 140.667 107 270 107 388c0 50 -6 90.333 -18 121c-23.333 58 -66 87 -128 87c-102 0 -197.667 -76.333 -287 -229c-84 -142.667 -126 -283 -126 -421
c0 -55.333 13.833 -101.166 41.5 -137.499zM888 817.499c46 -59.667 69 -130.167 69 -211.5c0 -141.333 -62.333 -280 -187 -416c-128.667 -141.333 -266 -212 -412 -212c-92 0 -165.667 26.667 -221 80s-83 128.333 -83 225c0 146 62 285.667 186 419
c126.667 136.667 263.667 205 411 205c112 0 191 -29.833 237 -89.5zM888 1007l-169 213l-279 -213h-81l322 346h100l180 -346h-73zM359 902.999z" />
    <glyph glyph-name="otilde" unicode="&#xf5;" 
d="M268.5 77.5c27.667 -36.333 68.167 -54.501 121.5 -54.501c108.667 0 205 82 289 246c71.333 140.667 107 270 107 388c0 50 -6 90.333 -18 121c-23.333 58 -66 87 -128 87c-102 0 -197.667 -76.333 -287 -229c-84 -142.667 -126 -283 -126 -421
c0 -55.333 13.833 -101.166 41.5 -137.499zM888 817.499c46 -59.667 69 -130.167 69 -211.5c0 -141.333 -62.333 -280 -187 -416c-128.667 -141.333 -266 -212 -412 -212c-92 0 -165.667 26.667 -221 80s-83 128.333 -83 225c0 146 62 285.667 186 419
c126.667 136.667 263.667 205 411 205c112 0 191 -29.833 237 -89.5zM457 1214c32 40.667 76.666 61 133.999 61c44.667 0 100.834 -14.667 168.501 -44s113.5 -44 137.5 -44c33.333 0 58.666 10.667 75.999 32c10 12 19.333 31.333 28 58h60
c-11.333 -62.667 -34.5 -113.834 -69.5 -153.501s-77.5 -59.5 -127.5 -59.5c-18 0 -37.5 3.16699 -58.5 9.5s-60.833 20.5 -119.5 42.5l-69 26c-10.667 4 -20.667 7 -30 9s-19.666 3 -30.999 3c-32 0 -54.667 -7.66699 -68 -23s-26.333 -39.333 -39 -72h-59
c12.667 62.667 35 114.334 67 155.001zM389.999 902.999z" />
    <glyph glyph-name="odieresis" unicode="&#xf6;" 
d="M268.5 77.5c27.667 -36.333 68.167 -54.501 121.5 -54.501c108.667 0 205 82 289 246c71.333 140.667 107 270 107 388c0 50 -6 90.333 -18 121c-23.333 58 -66 87 -128 87c-102 0 -197.667 -76.333 -287 -229c-84 -142.667 -126 -283 -126 -421
c0 -55.333 13.833 -101.166 41.5 -137.499zM888 817.499c46 -59.667 69 -130.167 69 -211.5c0 -141.333 -62.333 -280 -187 -416c-128.667 -141.333 -266 -212 -412 -212c-92 0 -165.667 26.667 -221 80s-83 128.333 -83 225c0 146 62 285.667 186 419
c126.667 136.667 263.667 205 411 205c112 0 191 -29.833 237 -89.5zM845.5 1212c19 20 42.833 30.001 71.5 30.001c26.667 0 50.167 -9.83301 70.5 -29.5s30.5 -43.167 30.5 -70.5c0 -28.667 -10 -52.834 -30 -72.501s-43.667 -29.5 -71 -29.5c-26.667 0 -50 9.5 -70 28.5
s-30 43.5 -30 73.5c0 26.667 9.5 50 28.5 70zM575 1213.5c20.667 -19 31 -43.168 31 -72.501c0 -26.667 -9.83301 -50.167 -29.5 -70.5s-43.167 -30.5 -70.5 -30.5c-28 0 -52 9.83301 -72 29.5s-30 43.167 -30 70.5c0 28.667 10 52.834 30 72.501s44 29.5 72 29.5
c25.333 0 48.333 -9.5 69 -28.5zM404 902.999z" />
    <glyph glyph-name="divide" unicode="&#xf7;" horiz-adv-x="1124" 
d="M1216 573l-26 -121h-1027l26 121h1027zM868 879c-6 -28 -20.8311 -51.999 -44.498 -71.999s-49.834 -30 -78.501 -30s-50.334 10.167 -65.001 30.5s-19 44.166 -13 71.499c6 28.667 21 52.834 45 72.501s49.333 29.5 76 29.5c28 0 49.833 -9.83301 65.5 -29.5
s20.5 -43.834 14.5 -72.501zM713.002 149.001c-6 -28 -20.8311 -51.999 -44.498 -71.999s-49.834 -30 -78.501 -30s-50.334 10.167 -65.001 30.5s-19 44.166 -13 71.499c6 28.667 21 52.834 45 72.501s49.333 29.5 76 29.5c28 0 49.833 -9.83301 65.5 -29.5
s20.5 -43.834 14.5 -72.501z" />
    <glyph glyph-name="oslash" unicode="&#xf8;" 
d="M365.5 25c7.66699 -1.33301 15.5 -2.00098 23.5 -2.00098c108 0 203.667 79.667 287 239c73.333 138.667 110 271.334 110 398.001c0 39.333 -4.16699 72.333 -12.5 99s-22.833 51.667 -43.5 75l-392 -804zM649.5 863.499c-6.33301 1 -12.167 1.49902 -17.5 1.49902
c-96 0 -188.667 -76 -278 -228c-84.667 -144 -127 -281.333 -127 -412c0 -45.333 6 -81.666 18 -108.999c6.66699 -16.667 19 -35 37 -55l386 799c-6 1.33301 -12.167 2.5 -18.5 3.5zM666.999 906.498c6.66699 -0.333008 15 -0.832031 25 -1.49902l111 232h71l-116 -244
c52 -17.333 92.333 -40 121 -68c52 -51.333 78 -124 78 -218c0 -142 -62.667 -281.667 -188 -419c-128 -140 -262.333 -210 -403 -210c-7.33301 0 -15.333 0.333008 -24 1l-27 2l-123 -256h-72l128 267c-54 22.667 -94.333 48.334 -121 77.001
c-48.667 51.333 -73 122.666 -73 213.999c0 147.333 62.667 287.666 188 420.999c126.667 135.333 262 203 406 203c6 0 12.333 -0.166992 19 -0.5z" />
    <glyph glyph-name="ugrave" unicode="&#xf9;" 
d="M234 722c1.33301 6.66699 2.50195 12.8311 3.50195 18.498s1.5 11.5 1.5 17.5c0 28.667 -8.5 46.167 -25.5 52.5s-48.833 9.5 -95.5 9.5v28l147 29l159 30c3.33301 0.666992 6.33301 -0.666016 9 -3.99902s3.66699 -6.66602 3 -9.99902l-3 -14l-177 -680
c-4.66699 -16.667 -8 -29.667 -10 -39s-3 -16 -3 -20c0 -15.333 4.33301 -27.333 13 -36s20 -13 34 -13c39.333 0 88.5 35 147.5 105s111.5 142.667 157.5 218c41.333 67.333 79.333 142.333 114 225c21.333 51.333 52 133 92 245h151l-189 -709l-9 -37
c-2.66699 -11.333 -4 -20.666 -4 -27.999c0 -8.66699 2 -16.167 6 -22.5s11 -9.5 21 -9.5s20.333 3.83301 31 11.5s24 19.5 40 35.5c7.33301 7.33301 20.666 23 39.999 47l55 67l28 -19c-30.667 -50.667 -62.667 -94.334 -96 -131.001c-66 -74 -127.333 -111 -184 -111
c-29.333 0 -53.333 8 -72 24s-28 41 -28 75c0 17.333 1.66699 36.333 5 57s8.66602 44 15.999 70l46 175l22 85h-7c-92 -152.667 -164.333 -260.667 -217 -324c-91.333 -108.667 -177.666 -163 -258.999 -163c-22 0 -42 4.66699 -60 14c-34.667 18.667 -52 52 -52 100
c0 14 0.666992 25.333 2 34s3.66602 20.667 6.99902 36zM565.002 1346c12 -9.33301 23.001 -20.333 33.001 -33l237 -306h-61l-287 218c-11.333 8.66699 -20.833 18 -28.5 28s-11.5 22.333 -11.5 37c0 19.333 6.66699 35.833 20 49.5s31.666 20.5 54.999 20.5
c16.667 0 31 -4.66699 43 -14zM835.003 902.997z" />
    <glyph glyph-name="uacute" unicode="&#xfa;" 
d="M234 722c1.33301 6.66699 2.50195 12.8311 3.50195 18.498s1.5 11.5 1.5 17.5c0 28.667 -8.5 46.167 -25.5 52.5s-48.833 9.5 -95.5 9.5v28l147 29l159 30c3.33301 0.666992 6.33301 -0.666016 9 -3.99902s3.66699 -6.66602 3 -9.99902l-3 -14l-177 -680
c-4.66699 -16.667 -8 -29.667 -10 -39s-3 -16 -3 -20c0 -15.333 4.33301 -27.333 13 -36s20 -13 34 -13c39.333 0 88.5 35 147.5 105s111.5 142.667 157.5 218c41.333 67.333 79.333 142.333 114 225c21.333 51.333 52 133 92 245h151l-189 -709l-9 -37
c-2.66699 -11.333 -4 -20.666 -4 -27.999c0 -8.66699 2 -16.167 6 -22.5s11 -9.5 21 -9.5s20.333 3.83301 31 11.5s24 19.5 40 35.5c7.33301 7.33301 20.666 23 39.999 47l55 67l28 -19c-30.667 -50.667 -62.667 -94.334 -96 -131.001c-66 -74 -127.333 -111 -184 -111
c-29.333 0 -53.333 8 -72 24s-28 41 -28 75c0 17.333 1.66699 36.333 5 57s8.66602 44 15.999 70l46 175l22 85h-7c-92 -152.667 -164.333 -260.667 -217 -324c-91.333 -108.667 -177.666 -163 -258.999 -163c-22 0 -42 4.66699 -60 14c-34.667 18.667 -52 52 -52 100
c0 14 0.666992 25.333 2 34s3.66602 20.667 6.99902 36zM1014 1247.5c-7.33301 -9 -15.667 -16.499 -25 -22.499l-350 -218h-72l332 327c6 6 14 11 24 15s19.667 6 29 6c18.667 0 35.5 -6.83301 50.5 -20.5s22.5 -30.834 22.5 -51.501c0 -14.667 -3.66699 -26.5 -11 -35.5z
M567.001 902.998z" />
    <glyph glyph-name="ucircumflex" unicode="&#xfb;" 
d="M234 722c1.33301 6.66699 2.50195 12.8311 3.50195 18.498s1.5 11.5 1.5 17.5c0 28.667 -8.5 46.167 -25.5 52.5s-48.833 9.5 -95.5 9.5v28l147 29l159 30c3.33301 0.666992 6.33301 -0.666016 9 -3.99902s3.66699 -6.66602 3 -9.99902l-3 -14l-177 -680
c-4.66699 -16.667 -8 -29.667 -10 -39s-3 -16 -3 -20c0 -15.333 4.33301 -27.333 13 -36s20 -13 34 -13c39.333 0 88.5 35 147.5 105s111.5 142.667 157.5 218c41.333 67.333 79.333 142.333 114 225c21.333 51.333 52 133 92 245h151l-189 -709l-9 -37
c-2.66699 -11.333 -4 -20.666 -4 -27.999c0 -8.66699 2 -16.167 6 -22.5s11 -9.5 21 -9.5s20.333 3.83301 31 11.5s24 19.5 40 35.5c7.33301 7.33301 20.666 23 39.999 47l55 67l28 -19c-30.667 -50.667 -62.667 -94.334 -96 -131.001c-66 -74 -127.333 -111 -184 -111
c-29.333 0 -53.333 8 -72 24s-28 41 -28 75c0 17.333 1.66699 36.333 5 57s8.66602 44 15.999 70l46 175l22 85h-7c-92 -152.667 -164.333 -260.667 -217 -324c-91.333 -108.667 -177.666 -163 -258.999 -163c-22 0 -42 4.66699 -60 14c-34.667 18.667 -52 52 -52 100
c0 14 0.666992 25.333 2 34s3.66602 20.667 6.99902 36zM847.002 1007l-169 213l-279 -213h-81l322 346h100l180 -346h-73zM318.002 902.997z" />
    <glyph glyph-name="udieresis" unicode="&#xfc;" 
d="M234 722c1.33301 6.66699 2.50195 12.8311 3.50195 18.498s1.5 11.5 1.5 17.5c0 28.667 -8.5 46.167 -25.5 52.5s-48.833 9.5 -95.5 9.5v28l147 29l159 30c3.33301 0.666992 6.33301 -0.666016 9 -3.99902s3.66699 -6.66602 3 -9.99902l-3 -14l-177 -680
c-4.66699 -16.667 -8 -29.667 -10 -39s-3 -16 -3 -20c0 -15.333 4.33301 -27.333 13 -36s20 -13 34 -13c39.333 0 88.5 35 147.5 105s111.5 142.667 157.5 218c41.333 67.333 79.333 142.333 114 225c21.333 51.333 52 133 92 245h151l-189 -709l-9 -37
c-2.66699 -11.333 -4 -20.666 -4 -27.999c0 -8.66699 2 -16.167 6 -22.5s11 -9.5 21 -9.5s20.333 3.83301 31 11.5s24 19.5 40 35.5c7.33301 7.33301 20.666 23 39.999 47l55 67l28 -19c-30.667 -50.667 -62.667 -94.334 -96 -131.001c-66 -74 -127.333 -111 -184 -111
c-29.333 0 -53.333 8 -72 24s-28 41 -28 75c0 17.333 1.66699 36.333 5 57s8.66602 44 15.999 70l46 175l22 85h-7c-92 -152.667 -164.333 -260.667 -217 -324c-91.333 -108.667 -177.666 -163 -258.999 -163c-22 0 -42 4.66699 -60 14c-34.667 18.667 -52 52 -52 100
c0 14 0.666992 25.333 2 34s3.66602 20.667 6.99902 36zM784.502 1212c19 20 42.833 30.001 71.5 30.001c26.667 0 50.167 -9.83301 70.5 -29.5s30.5 -43.167 30.5 -70.5c0 -28.667 -10 -52.834 -30 -72.501s-43.667 -29.5 -71 -29.5c-26.667 0 -50 9.5 -70 28.5
s-30 43.5 -30 73.5c0 26.667 9.5 50 28.5 70zM514.002 1213.5c20.667 -19 31 -43.168 31 -72.501c0 -26.667 -9.83301 -50.167 -29.5 -70.5s-43.167 -30.5 -70.5 -30.5c-28 0 -52 9.83301 -72 29.5s-30 43.167 -30 70.5c0 28.667 10 52.834 30 72.501s44 29.5 72 29.5
c25.333 0 48.333 -9.5 69 -28.5zM343.002 902.997z" />
    <glyph glyph-name="yacute" unicode="&#xfd;" horiz-adv-x="909" 
d="M-33 -277c13.333 15.333 32.666 23.0029 57.999 23.0029c16.667 0 31.334 -3.16699 44.001 -9.5s26 -15.5 40 -27.5l14 -10c4 -3.33301 8.5 -5.83301 13.5 -7.5s10.5 -2.5 16.5 -2.5c32.667 0 85.167 43.167 157.5 129.5s108.5 149.166 108.5 188.499
c0 37.333 -12.5 110.666 -37.5 219.999s-49.167 206.666 -72.5 291.999c-32.667 120 -62.5 201.333 -89.5 244s-66.833 64 -119.5 64c-4 0 -10.833 -0.5 -20.5 -1.5s-26.167 -2.83301 -49.5 -5.5v33l273 52l21 2c16.667 2 48.667 -73 96 -225
c42.667 -136.667 69.334 -236 80.001 -298l40 -238c70 117.333 121.333 207.333 154 270c64 123.333 96 209.666 96 258.999c0 11.333 -2 22.5 -6 33.5s-13.333 20.5 -28 28.5l-17 9c-10.667 5.33301 -23.167 15.333 -37.5 30s-21.5 34.334 -21.5 59.001
c0 20.667 6.66699 38 20 52s33.333 21 60 21c33.333 0 60.333 -9.83301 81 -29.5s31 -53.167 31 -100.5c0 -71.333 -39 -186 -117 -344c-60 -120.667 -127 -237.667 -201 -351c-92.667 -141.333 -172.334 -250.333 -239.001 -327c-106 -120.667 -194 -181 -264 -181
c-27.333 0 -51.5 8.33301 -72.5 25s-31.5 39.334 -31.5 68.001c0 21.333 6.66699 39.666 20 54.999zM889 1247.5c-7.33301 -9 -15.667 -16.499 -25 -22.499l-350 -218h-72l332 327c6 6 14 11 24 15s19.667 6 29 6c18.667 0 35.5 -6.83301 50.5 -20.5
s22.5 -30.834 22.5 -51.501c0 -14.667 -3.66699 -26.5 -11 -35.5zM441.999 903.004z" />
    <glyph glyph-name="thorn" unicode="&#xfe;" 
d="M760 742c-20.667 48.667 -59.332 73.001 -115.999 73.001c-40.667 0 -82 -13.667 -124 -41c-70 -46 -123.667 -122.667 -161 -230c-22.667 -64 -48.334 -146.667 -77.001 -248s-43 -168.333 -43 -201c0 -33.333 16.333 -56.333 49 -69c16.667 -6.66699 35.667 -10 57 -10
c112 0 213.667 72.667 305 218c84 134.667 126 269.667 126 405c0 43.333 -5.33301 77.666 -16 102.999zM-156.998 -388.999c40 0 70.167 7.49902 90.5 22.499s35.166 40.5 44.499 76.5l394 1501c2.66699 8.66699 4.33398 17.5 5.00098 26.5s1 16.5 1 22.5
c0 22.667 -9.16699 36.5 -27.5 41.5s-54.833 7.16699 -109.5 6.5v33l70 8c14.667 1.33301 32.5 3.66602 53.5 6.99902s50.167 8.66602 87.5 15.999c4 0.666992 20.167 4.83398 48.5 12.501s48.5 11.5 60.5 11.5l10 -7l-192 -707c45.333 60 87 105.667 125 137
c68.667 57.333 140 86 214 86c75.333 0 134.5 -22.167 177.5 -66.5s64.5 -112.166 64.5 -203.499c0 -160 -67.333 -310.333 -202 -451c-132 -138.667 -268.667 -208 -410 -208c-26 0 -48.667 2.83301 -68 8.5s-42.666 14.5 -69.999 26.5l-14 -59l-34 -147
c-17.333 -76.667 -26 -120 -26 -130c0 -27.333 8.66699 -44.666 26 -51.999s51.666 -12.333 102.999 -15v-30h-422v33z" />
    <glyph glyph-name="ydieresis" unicode="&#xff;" horiz-adv-x="909" 
d="M-33 -277c13.333 15.333 32.666 23.0029 57.999 23.0029c16.667 0 31.334 -3.16699 44.001 -9.5s26 -15.5 40 -27.5l14 -10c4 -3.33301 8.5 -5.83301 13.5 -7.5s10.5 -2.5 16.5 -2.5c32.667 0 85.167 43.167 157.5 129.5s108.5 149.166 108.5 188.499
c0 37.333 -12.5 110.666 -37.5 219.999s-49.167 206.666 -72.5 291.999c-32.667 120 -62.5 201.333 -89.5 244s-66.833 64 -119.5 64c-4 0 -10.833 -0.5 -20.5 -1.5s-26.167 -2.83301 -49.5 -5.5v33l273 52l21 2c16.667 2 48.667 -73 96 -225
c42.667 -136.667 69.334 -236 80.001 -298l40 -238c70 117.333 121.333 207.333 154 270c64 123.333 96 209.666 96 258.999c0 11.333 -2 22.5 -6 33.5s-13.333 20.5 -28 28.5l-17 9c-10.667 5.33301 -23.167 15.333 -37.5 30s-21.5 34.334 -21.5 59.001
c0 20.667 6.66699 38 20 52s33.333 21 60 21c33.333 0 60.333 -9.83301 81 -29.5s31 -53.167 31 -100.5c0 -71.333 -39 -186 -117 -344c-60 -120.667 -127 -237.667 -201 -351c-92.667 -141.333 -172.334 -250.333 -239.001 -327c-106 -120.667 -194 -181 -264 -181
c-27.333 0 -51.5 8.33301 -72.5 25s-31.5 39.334 -31.5 68.001c0 21.333 6.66699 39.666 20 54.999zM744.5 1212c19 20 42.833 30.001 71.5 30.001c26.667 0 50.167 -9.83301 70.5 -29.5s30.5 -43.167 30.5 -70.5c0 -28.667 -10 -52.834 -30 -72.501
s-43.667 -29.5 -71 -29.5c-26.667 0 -50 9.5 -70 28.5s-30 43.5 -30 73.5c0 26.667 9.5 50 28.5 70zM474 1213.5c20.667 -19 31 -43.168 31 -72.501c0 -26.667 -9.83301 -50.167 -29.5 -70.5s-43.167 -30.5 -70.5 -30.5c-28 0 -52 9.83301 -72 29.5s-30 43.167 -30 70.5
c0 28.667 10 52.834 30 72.501s44 29.5 72 29.5c25.333 0 48.333 -9.5 69 -28.5zM303 903.003z" />
    <glyph glyph-name="Amacron" unicode="&#x100;" horiz-adv-x="1251" 
d="M805 535l-90 531l-305 -531h395zM-55 33c45.333 11.333 81.168 32.332 107.501 62.999s78.833 113 157.5 247l598 1024h45l197 -1159c12.667 -74.667 27.667 -121.167 45 -139.5s54.333 -30.166 111 -35.499v-33h-505v33c60.667 6 100 13.333 118 22
c28.667 13.333 43 39.333 43 78c0 10 -0.333008 20.667 -1 32s-1.66699 21 -3 29l-41 268h-450l-119 -230c-8.66699 -15.333 -16.334 -31.666 -23.001 -48.999c-11.333 -30.667 -17 -56.334 -17 -77.001c0 -26 8.83301 -44.333 26.5 -55s49.167 -16.667 94.5 -18v-33h-384
v33zM481.002 1469l24 104h616l-23 -104h-617z" />
    <glyph glyph-name="amacron" unicode="&#x101;" 
d="M713 828c-22 22.667 -48.667 33.999 -80 33.999c-108.667 0 -209.667 -83.333 -303 -250c-82 -146.667 -123 -273 -123 -379c0 -53.333 11.5 -92.166 34.5 -116.499s51.5 -36.5 85.5 -36.5c100.667 0 197.667 81 291 243c85.333 147.333 128 280.333 128 399
c0 48 -11 83.333 -33 106zM743 865.999c15.333 -14.667 27.333 -33.998 36 -57.998l5 -14l22 76c2.66699 8.66699 5 14.5 7 17.5s6.66699 4.83301 14 5.5l113 13c6 0 9.5 -1.16699 10.5 -3.5s0.833008 -6.5 -0.5 -12.5c-2.66699 -8.66699 -4.66699 -15.5 -6 -20.5l-6 -21.5
l-92 -358l-51 -202c-24.667 -102.667 -37 -161.334 -37 -176.001c0 -9.33301 2.5 -16.166 7.5 -20.499s11.167 -6.5 18.5 -6.5c6 0 12.5 2 19.5 6s15.5 10 25.5 18l17 14l18 16.5l24 23.5l62 64l24 -21c-69.333 -88.667 -125 -148.834 -167 -180.501s-82 -47.5 -120 -47.5
c-24.667 0 -43.834 8.66699 -57.501 26s-20.5 39 -20.5 65c0 24 4.5 58.5 13.5 103.5s17.833 82.833 26.5 113.5c-12 -20 -32.167 -49.167 -60.5 -87.5s-63.166 -75.5 -104.499 -111.5c-48.667 -43.333 -95.334 -74 -140.001 -92c-34.667 -12 -68 -18 -100 -18
c-54 0 -103 22.167 -147 66.5s-66 107.166 -66 188.499c0 140 62.667 286 188 438c129.333 158 263.333 237 402 237c52.667 0 93.334 -13.667 122.001 -41zM367 1032l24 104h616l-23 -104h-617z" />
    <glyph glyph-name="Abreve" unicode="&#x102;" horiz-adv-x="1251" 
d="M805 535l-90 531l-305 -531h395zM-55 33c45.333 11.333 81.168 32.332 107.501 62.999s78.833 113 157.5 247l598 1024h45l197 -1159c12.667 -74.667 27.667 -121.167 45 -139.5s54.333 -30.166 111 -35.499v-33h-505v33c60.667 6 100 13.333 118 22
c28.667 13.333 43 39.333 43 78c0 10 -0.333008 20.667 -1 32s-1.66699 21 -3 29l-41 268h-450l-119 -230c-8.66699 -15.333 -16.334 -31.666 -23.001 -48.999c-11.333 -30.667 -17 -56.334 -17 -77.001c0 -26 8.83301 -44.333 26.5 -55s49.167 -16.667 94.5 -18v-33h-384
v33zM599.002 1805c-0.666992 -45.333 15.668 -90.668 49.001 -136.001s91.333 -68 174 -68c74 0 133 21.333 177 64s76.333 89.334 97 140.001h60c-12.667 -65.333 -37 -125 -73 -179c-66 -98 -157.667 -147 -275 -147c-112.667 0 -189.667 41 -231 123
c-22.667 45.333 -35.334 113 -38.001 203h60zM539.004 1376z" />
    <glyph glyph-name="abreve" unicode="&#x103;" 
d="M713 828c-22 22.667 -48.667 33.999 -80 33.999c-108.667 0 -209.667 -83.333 -303 -250c-82 -146.667 -123 -273 -123 -379c0 -53.333 11.5 -92.166 34.5 -116.499s51.5 -36.5 85.5 -36.5c100.667 0 197.667 81 291 243c85.333 147.333 128 280.333 128 399
c0 48 -11 83.333 -33 106zM743 865.999c15.333 -14.667 27.333 -33.998 36 -57.998l5 -14l22 76c2.66699 8.66699 5 14.5 7 17.5s6.66699 4.83301 14 5.5l113 13c6 0 9.5 -1.16699 10.5 -3.5s0.833008 -6.5 -0.5 -12.5c-2.66699 -8.66699 -4.66699 -15.5 -6 -20.5l-6 -21.5
l-92 -358l-51 -202c-24.667 -102.667 -37 -161.334 -37 -176.001c0 -9.33301 2.5 -16.166 7.5 -20.499s11.167 -6.5 18.5 -6.5c6 0 12.5 2 19.5 6s15.5 10 25.5 18l17 14l18 16.5l24 23.5l62 64l24 -21c-69.333 -88.667 -125 -148.834 -167 -180.501s-82 -47.5 -120 -47.5
c-24.667 0 -43.834 8.66699 -57.501 26s-20.5 39 -20.5 65c0 24 4.5 58.5 13.5 103.5s17.833 82.833 26.5 113.5c-12 -20 -32.167 -49.167 -60.5 -87.5s-63.166 -75.5 -104.499 -111.5c-48.667 -43.333 -95.334 -74 -140.001 -92c-34.667 -12 -68 -18 -100 -18
c-54 0 -103 22.167 -147 66.5s-66 107.166 -66 188.499c0 140 62.667 286 188 438c129.333 158 263.333 237 402 237c52.667 0 93.334 -13.667 122.001 -41zM487 1369c-0.666992 -45.333 15.668 -90.668 49.001 -136.001s91.333 -68 174 -68c74 0 133 21.333 177 64
s76.333 89.334 97 140.001h60c-12.667 -65.333 -37 -125 -73 -179c-66 -98 -157.667 -147 -275 -147c-112.667 0 -189.667 41 -231 123c-22.667 45.333 -35.334 113 -38.001 203h60zM427.002 939.999z" />
    <glyph glyph-name="Aogonek" unicode="&#x104;" horiz-adv-x="1251" 
d="M805 535l-90 531l-305 -531h395zM-55 33c45.333 11.333 81.168 32.332 107.501 62.999s78.833 113 157.5 247l598 1024h45l197 -1159c12.667 -74.667 27.667 -121.167 45 -139.5s54.333 -30.166 111 -35.499v-33h-505v33c60.667 6 100 13.333 118 22
c28.667 13.333 43 39.333 43 78c0 10 -0.333008 20.667 -1 32s-1.66699 21 -3 29l-41 268h-450l-119 -230c-8.66699 -15.333 -16.334 -31.666 -23.001 -48.999c-11.333 -30.667 -17 -56.334 -17 -77.001c0 -26 8.83301 -44.333 26.5 -55s49.167 -16.667 94.5 -18v-33h-384
v33zM1285 14.999c-21.333 -29.333 -41.6641 -72.3311 -60.9971 -128.998s-29 -102.667 -29 -138c0 -38.667 12.167 -69.834 36.5 -93.501s53.166 -35.5 86.499 -35.5c21.333 0 44.666 5 69.999 15c15.333 6.66699 34.666 16.667 57.999 30v-116
c-28.667 -16.667 -58.167 -29.5 -88.5 -38.5s-60.833 -13.5 -91.5 -13.5c-58 0 -107.667 18.333 -149 55s-62 81.667 -62 135c0 37.333 7.66699 74.666 23 111.999c29.333 72 84 144.333 164 217h43z" />
    <glyph glyph-name="aogonek" unicode="&#x105;" 
d="M713 828c-22 22.667 -48.667 33.999 -80 33.999c-108.667 0 -209.667 -83.333 -303 -250c-82 -146.667 -123 -273 -123 -379c0 -53.333 11.5 -92.166 34.5 -116.499s51.5 -36.5 85.5 -36.5c100.667 0 197.667 81 291 243c85.333 147.333 128 280.333 128 399
c0 48 -11 83.333 -33 106zM743 865.999c15.333 -14.667 27.333 -33.998 36 -57.998l5 -14l22 76c2.66699 8.66699 5 14.5 7 17.5s6.66699 4.83301 14 5.5l113 13c6 0 9.5 -1.16699 10.5 -3.5s0.833008 -6.5 -0.5 -12.5c-2.66699 -8.66699 -4.66699 -15.5 -6 -20.5l-6 -21.5
l-92 -358l-51 -202c-24.667 -102.667 -37 -161.334 -37 -176.001c0 -9.33301 2.5 -16.166 7.5 -20.499s11.167 -6.5 18.5 -6.5c6 0 12.5 2 19.5 6s15.5 10 25.5 18l17 14l18 16.5l24 23.5l62 64l24 -21c-69.333 -88.667 -125 -148.834 -167 -180.501s-82 -47.5 -120 -47.5
c-24.667 0 -43.834 8.66699 -57.501 26s-20.5 39 -20.5 65c0 24 4.5 58.5 13.5 103.5s17.833 82.833 26.5 113.5c-12 -20 -32.167 -49.167 -60.5 -87.5s-63.166 -75.5 -104.499 -111.5c-48.667 -43.333 -95.334 -74 -140.001 -92c-34.667 -12 -68 -18 -100 -18
c-54 0 -103 22.167 -147 66.5s-66 107.166 -66 188.499c0 140 62.667 286 188 438c129.333 158 263.333 237 402 237c52.667 0 93.334 -13.667 122.001 -41zM616 39.001c-21.333 -29.333 -41.6641 -72.3311 -60.9971 -128.998s-29 -102.667 -29 -138
c0 -38.667 12.167 -69.834 36.5 -93.501s53.166 -35.5 86.499 -35.5c21.333 0 44.666 5 69.999 15c15.333 6.66699 34.666 16.667 57.999 30v-116c-28.667 -16.667 -58.167 -29.5 -88.5 -38.5s-60.833 -13.5 -91.5 -13.5c-58 0 -107.667 18.333 -149 55s-62 81.667 -62 135
c0 37.333 7.66699 74.666 23 111.999c29.333 72 84 144.333 164 217h43z" />
    <glyph glyph-name="Cacute" unicode="&#x106;" horiz-adv-x="1366" 
d="M1136 1338c69.333 -16 111.335 -24.001 126.002 -24.001c24.667 0 42 4 52 12s18.333 19.333 25 34h42l-75 -408l-36 5c-7.33301 80.667 -25.333 145.667 -54 195c-52.667 91.333 -139.667 137 -261 137c-186.667 0 -340.334 -93.333 -461.001 -280
c-105.333 -162 -158 -337.667 -158 -527c0 -140.667 32 -247 96 -319s146.333 -108 247 -108c104 0 199.333 25.333 286 76c51.333 30.667 118.333 85.667 201 165l33 -29c-74.667 -94.667 -159.167 -169.167 -253.5 -223.5s-198.166 -81.5 -311.499 -81.5
c-170.667 0 -301.667 54 -393 162s-137 234 -137 378c0 206.667 76.333 397.334 229 572.001c167.333 192 370.666 288 609.999 288c59.333 0 123.666 -8 192.999 -24zM1251 1706.5c-7.33301 -9 -15.667 -16.499 -25 -22.499l-350 -218h-72l332 327c6 6 14 11 24 15
s19.667 6 29 6c18.667 0 35.5 -6.83301 50.5 -20.5s22.5 -30.834 22.5 -51.501c0 -14.667 -3.66699 -26.5 -11 -35.5zM804.001 1362z" />
    <glyph glyph-name="cacute" unicode="&#x107;" horiz-adv-x="909" 
d="M816 848c36 -36.667 54.001 -72.333 54.001 -107c0 -31.333 -9.33301 -55.666 -28 -72.999s-40.667 -26 -66 -26c-24.667 0 -45.334 7.66699 -62.001 23s-25 34.333 -25 57c0 17.333 5.5 36 16.5 56s16.5 33 16.5 39c0 12 -6.83301 22.167 -20.5 30.5
s-35.5 12.5 -65.5 12.5c-107.333 0 -200.5 -61 -279.5 -183s-118.5 -250 -118.5 -384c0 -75.333 16 -134.333 48 -177s80 -64 144 -64c51.333 0 101.166 14.833 149.499 44.5s92.833 67.5 133.5 113.5l7 8l29 -22c-46.667 -59.333 -91.667 -105 -135 -137
c-76.667 -55.333 -161.667 -83 -255 -83c-89.333 0 -161.666 28.5 -216.999 85.5s-83 134.833 -83 233.5c0 151.333 61.667 290.666 185 417.999c122 126.667 254 190 396 190c81.333 0 140 -18.333 176 -55zM947.001 1247.5c-7.33301 -9 -15.667 -16.499 -25 -22.499
l-350 -218h-72l332 327c6 6 14 11 24 15s19.667 6 29 6c18.667 0 35.5 -6.83301 50.5 -20.5s22.5 -30.834 22.5 -51.501c0 -14.667 -3.66699 -26.5 -11 -35.5zM500 903.002z" />
    <glyph glyph-name="Ccircumflex" unicode="&#x108;" horiz-adv-x="1366" 
d="M1136 1338c69.333 -16 111.335 -24.001 126.002 -24.001c24.667 0 42 4 52 12s18.333 19.333 25 34h42l-75 -408l-36 5c-7.33301 80.667 -25.333 145.667 -54 195c-52.667 91.333 -139.667 137 -261 137c-186.667 0 -340.334 -93.333 -461.001 -280
c-105.333 -162 -158 -337.667 -158 -527c0 -140.667 32 -247 96 -319s146.333 -108 247 -108c104 0 199.333 25.333 286 76c51.333 30.667 118.333 85.667 201 165l33 -29c-74.667 -94.667 -159.167 -169.167 -253.5 -223.5s-198.166 -81.5 -311.499 -81.5
c-170.667 0 -301.667 54 -393 162s-137 234 -137 378c0 206.667 76.333 397.334 229 572.001c167.333 192 370.666 288 609.999 288c59.333 0 123.666 -8 192.999 -24zM1270 1482l-169 213l-279 -213h-81l322 346h100l180 -346h-73zM741.002 1378z" />
    <glyph glyph-name="ccircumflex" unicode="&#x109;" horiz-adv-x="909" 
d="M816 848c36 -36.667 54.001 -72.333 54.001 -107c0 -31.333 -9.33301 -55.666 -28 -72.999s-40.667 -26 -66 -26c-24.667 0 -45.334 7.66699 -62.001 23s-25 34.333 -25 57c0 17.333 5.5 36 16.5 56s16.5 33 16.5 39c0 12 -6.83301 22.167 -20.5 30.5
s-35.5 12.5 -65.5 12.5c-107.333 0 -200.5 -61 -279.5 -183s-118.5 -250 -118.5 -384c0 -75.333 16 -134.333 48 -177s80 -64 144 -64c51.333 0 101.166 14.833 149.499 44.5s92.833 67.5 133.5 113.5l7 8l29 -22c-46.667 -59.333 -91.667 -105 -135 -137
c-76.667 -55.333 -161.667 -83 -255 -83c-89.333 0 -161.666 28.5 -216.999 85.5s-83 134.833 -83 233.5c0 151.333 61.667 290.666 185 417.999c122 126.667 254 190 396 190c81.333 0 140 -18.333 176 -55zM917.001 984.001l-169 213l-279 -213h-81l322 346h100l180 -346
h-73zM388.001 880.001z" />
    <glyph glyph-name="Cdotaccent" unicode="&#x10a;" horiz-adv-x="1366" 
d="M1136 1338c69.333 -16 111.335 -24.001 126.002 -24.001c24.667 0 42 4 52 12s18.333 19.333 25 34h42l-75 -408l-36 5c-7.33301 80.667 -25.333 145.667 -54 195c-52.667 91.333 -139.667 137 -261 137c-186.667 0 -340.334 -93.333 -461.001 -280
c-105.333 -162 -158 -337.667 -158 -527c0 -140.667 32 -247 96 -319s146.333 -108 247 -108c104 0 199.333 25.333 286 76c51.333 30.667 118.333 85.667 201 165l33 -29c-74.667 -94.667 -159.167 -169.167 -253.5 -223.5s-198.166 -81.5 -311.499 -81.5
c-170.667 0 -301.667 54 -393 162s-137 234 -137 378c0 206.667 76.333 397.334 229 572.001c167.333 192 370.666 288 609.999 288c59.333 0 123.666 -8 192.999 -24zM922.002 1692.5c19.333 19.667 43 29.501 71 29.501s52 -9.83301 72 -29.5s30 -43.167 30 -70.5
c0 -28.667 -10 -52.834 -30 -72.501s-43.667 -29.5 -71 -29.5c-26.667 0 -50.167 9.5 -70.5 28.5s-30.5 43.5 -30.5 73.5c0 27.333 9.66699 50.833 29 70.5zM893.002 1383z" />
    <glyph glyph-name="cdotaccent" unicode="&#x10b;" horiz-adv-x="909" 
d="M816 848c36 -36.667 54.001 -72.333 54.001 -107c0 -31.333 -9.33301 -55.666 -28 -72.999s-40.667 -26 -66 -26c-24.667 0 -45.334 7.66699 -62.001 23s-25 34.333 -25 57c0 17.333 5.5 36 16.5 56s16.5 33 16.5 39c0 12 -6.83301 22.167 -20.5 30.5
s-35.5 12.5 -65.5 12.5c-107.333 0 -200.5 -61 -279.5 -183s-118.5 -250 -118.5 -384c0 -75.333 16 -134.333 48 -177s80 -64 144 -64c51.333 0 101.166 14.833 149.499 44.5s92.833 67.5 133.5 113.5l7 8l29 -22c-46.667 -59.333 -91.667 -105 -135 -137
c-76.667 -55.333 -161.667 -83 -255 -83c-89.333 0 -161.666 28.5 -216.999 85.5s-83 134.833 -83 233.5c0 151.333 61.667 290.666 185 417.999c122 126.667 254 190 396 190c81.333 0 140 -18.333 176 -55zM614.001 1233.5c19.333 19.667 43 29.501 71 29.501
s52 -9.83301 72 -29.5s30 -43.167 30 -70.5c0 -28.667 -10 -52.834 -30 -72.501s-43.667 -29.5 -71 -29.5c-26.667 0 -50.167 9.5 -70.5 28.5s-30.5 43.5 -30.5 73.5c0 27.333 9.66699 50.833 29 70.5zM585.001 924.002z" />
    <glyph glyph-name="Ccaron" unicode="&#x10c;" horiz-adv-x="1366" 
d="M1136 1338c69.333 -16 111.335 -24.001 126.002 -24.001c24.667 0 42 4 52 12s18.333 19.333 25 34h42l-75 -408l-36 5c-7.33301 80.667 -25.333 145.667 -54 195c-52.667 91.333 -139.667 137 -261 137c-186.667 0 -340.334 -93.333 -461.001 -280
c-105.333 -162 -158 -337.667 -158 -527c0 -140.667 32 -247 96 -319s146.333 -108 247 -108c104 0 199.333 25.333 286 76c51.333 30.667 118.333 85.667 201 165l33 -29c-74.667 -94.667 -159.167 -169.167 -253.5 -223.5s-198.166 -81.5 -311.499 -81.5
c-170.667 0 -301.667 54 -393 162s-137 234 -137 378c0 206.667 76.333 397.334 229 572.001c167.333 192 370.666 288 609.999 288c59.333 0 123.666 -8 192.999 -24zM684.002 1812h75l185 -216l292 216h73l-334 -346h-95zM684.002 1362z" />
    <glyph glyph-name="ccaron" unicode="&#x10d;" horiz-adv-x="909" 
d="M816 848c36 -36.667 54.001 -72.333 54.001 -107c0 -31.333 -9.33301 -55.666 -28 -72.999s-40.667 -26 -66 -26c-24.667 0 -45.334 7.66699 -62.001 23s-25 34.333 -25 57c0 17.333 5.5 36 16.5 56s16.5 33 16.5 39c0 12 -6.83301 22.167 -20.5 30.5
s-35.5 12.5 -65.5 12.5c-107.333 0 -200.5 -61 -279.5 -183s-118.5 -250 -118.5 -384c0 -75.333 16 -134.333 48 -177s80 -64 144 -64c51.333 0 101.166 14.833 149.499 44.5s92.833 67.5 133.5 113.5l7 8l29 -22c-46.667 -59.333 -91.667 -105 -135 -137
c-76.667 -55.333 -161.667 -83 -255 -83c-89.333 0 -161.666 28.5 -216.999 85.5s-83 134.833 -83 233.5c0 151.333 61.667 290.666 185 417.999c122 126.667 254 190 396 190c81.333 0 140 -18.333 176 -55zM380.001 1353h75l185 -216l292 216h73l-334 -346h-95z
M380.001 903.001z" />
    <glyph glyph-name="Dcaron" unicode="&#x10e;" horiz-adv-x="1479" 
d="M1113 433c62 127.333 92.999 257 92.999 389c0 127.333 -31.333 234.666 -94 321.999s-175.667 131 -339 131c-44.667 0 -76.5 -4.33301 -95.5 -13s-31.5 -24 -37.5 -46l-280 -1003c-5.33301 -20 -8.66602 -34.667 -9.99902 -44s-2 -18.666 -2 -27.999
c0 -29.333 9 -49.333 27 -60s55 -16 111 -16c297.333 0 506.333 122.667 627 368zM-19.001 33c48 4 81.001 12.666 99.001 25.999c28 20 51 61.667 69 125l251 906c7.33301 27.333 13.166 50.833 17.499 70.5s6.5 36.834 6.5 51.501c0 33.333 -11.333 56.5 -34 69.5
s-64.334 20.167 -125.001 21.5v33h529c98 0 184 -8.66699 258 -26s142.667 -53 206 -107c44.667 -40 82 -87.333 112 -142c44 -82.667 66 -175.667 66 -279c0 -205.333 -79 -383.333 -237 -534c-173.333 -165.333 -398.666 -248 -675.999 -248h-542v33zM595 1811h75
l185 -216l292 216h73l-334 -346h-95zM595 1361z" />
    <glyph glyph-name="dcaron" unicode="&#x10f;" horiz-adv-x="1423" 
d="M236 125.5c18.667 -30.333 50.333 -45.501 95 -45.501c95.333 0 187 76.667 275 230c82.667 144 124 280.333 124 409c0 40.667 -6.66699 74.334 -20 101.001s-40.333 40 -81 40c-101.333 0 -199.333 -82 -294 -246c-84.667 -146.667 -127 -274 -127 -382
c0 -40.667 9.33301 -76.167 28 -106.5zM729.999 868.999c12.667 -14.667 22.6709 -39.667 30.0039 -75l114 410c3.33301 11.333 5.5 21.5 6.5 30.5s1.5 16.833 1.5 23.5c0 26 -4.83301 42.333 -14.5 49s-23.5 10 -41.5 10c-11.333 0 -21.833 -0.333008 -31.5 -1
s-22.5 -1.66699 -38.5 -3v33c75.333 10 179.666 27.333 312.999 52l9 -10l-2 -11l-192 -719l-131 -476c-2.66699 -10.667 -4.83398 -20.5 -6.50098 -29.5s-2.5 -17.167 -2.5 -24.5c0 -18 4.5 -29.667 13.5 -35s16.833 -8 23.5 -8c19.333 0 46.666 17 81.999 51
c20.667 20.667 49 52.667 85 96l23 -22l-14 -21c-24.667 -36.667 -56.334 -74 -95.001 -112c-68.667 -67.333 -130.334 -101 -185.001 -101c-18 0 -34.333 4 -49 12c-27.333 16 -41 44.667 -41 86c0 14 2 36.333 6 67s10 64 18 100
c-50.667 -77.333 -106.167 -140.666 -166.5 -189.999s-126.166 -74 -197.499 -74c-58 0 -108.667 20.667 -152 62s-65 105 -65 191c0 145.333 66.667 294.666 200 447.999c132.667 152.667 262 229 388 229c52.667 0 90 -12.667 112 -38zM1271 1638.5
c17.333 19.667 43.334 29.4971 78.001 29.4971c35.333 0 64 -13.667 86 -41s33 -62 33 -104c0 -67.333 -25.833 -128.666 -77.5 -183.999s-103.834 -97.333 -156.501 -126l-31 -17l-19 33c41.333 29.333 73 54.333 95 75c39.333 38.667 59 73.334 59 104.001
c0 8.66699 -1.66699 17 -5 25s-8 15 -14 21l-19 19c-24.667 24.667 -40 43.5 -46 56.5s-9 32.167 -9 57.5c0 14.667 8.66699 31.834 26 51.501z" />
    <glyph glyph-name="Dcroat" unicode="&#x110;" horiz-adv-x="1479" 
d="M-19 33c48 4 81 12.6709 99 26.0039c28 20 51 61.667 69 125l140 505h-223l33 93h209l92 308c5.33301 17.333 10.333 35.333 15 54c6 27.333 9 49.666 9 66.999c0 33.333 -11 56.666 -33 69.999s-64 20.666 -126 21.999v33h529c120 0 215.5 -11.333 286.5 -34
s135.167 -61.667 192.5 -117c41.333 -40 73.333 -81 96 -123c43.333 -78.667 65 -169 65 -271c0 -224.667 -85.333 -412.334 -256 -563.001c-172.667 -152 -391 -228 -655 -228h-542v33zM1113 433.004c62 127.333 92.999 257 92.999 389
c0 127.333 -31.333 234.666 -94 321.999s-175.667 131 -339 131c-45.333 0 -77.333 -4.33301 -96 -13s-31 -24 -37 -46l-124 -434h299l-29 -93h-298l-128 -476c-5.33301 -20 -8.66602 -35.167 -9.99902 -45.5s-2 -19.166 -2 -26.499c0 -29.333 9 -49.333 27 -60
s55 -16 111 -16c297.333 0 506.333 122.667 627 368z" />
    <glyph glyph-name="dcroat" unicode="&#x111;" 
d="M236 125.5c18.667 -30.333 50.333 -45.501 95 -45.501c95.333 0 187 76.667 275 230c82.667 144 124 280.333 124 409c0 40.667 -6.66699 74.334 -20 101.001s-40.333 40 -81 40c-101.333 0 -199.333 -82 -294 -246c-84.667 -146.667 -127 -274 -127 -382
c0 -40.667 9.33301 -76.167 28 -106.5zM729.999 868.999c12.667 -14.667 22.6709 -39.667 30.0039 -75l77 277h-292l24 104h298l7 29c3.33301 11.333 5.5 21.5 6.5 30.5s1.5 16.833 1.5 23.5c0 26 -4.83301 42.333 -14.5 49s-23.5 10 -41.5 10
c-11.333 0 -21.833 -0.333008 -31.5 -1s-22.5 -1.66699 -38.5 -3v33c75.333 10 179.666 27.333 312.999 52l9 -10l-2 -11l-53 -202h162l-23 -104h-167l-111 -413l-131 -476c-2.66699 -10.667 -4.83398 -20.5 -6.50098 -29.5s-2.5 -17.167 -2.5 -24.5
c0 -18 4.5 -29.667 13.5 -35s16.833 -8 23.5 -8c19.333 0 46.666 17 81.999 51c20.667 20.667 49 52.667 85 96l23 -22l-14 -21c-24.667 -36.667 -56.334 -74 -95.001 -112c-68.667 -67.333 -130.334 -101 -185.001 -101c-18 0 -34.333 4 -49 12
c-27.333 16 -41 44.667 -41 86c0 14 2 36.333 6 67s10 64 18 100c-50.667 -77.333 -106.167 -140.666 -166.5 -189.999s-126.166 -74 -197.499 -74c-58 0 -108.667 20.667 -152 62s-65 105 -65 191c0 145.333 66.667 294.666 200 447.999c132.667 152.667 262 229 388 229
c52.667 0 90 -12.667 112 -38z" />
    <glyph glyph-name="Emacron" unicode="&#x112;" horiz-adv-x="1251" 
d="M-5 33c48 4 80.998 12.668 98.998 26.001c28 20 51 61.667 69 125l251 906c8 30 14.167 54.833 18.5 74.5s6.5 36.5 6.5 50.5c0 32 -12.167 54.333 -36.5 67s-65.5 19.667 -123.5 21v33h1019l-64 -312l-42 4c2 20 3.33301 39.167 4 57.5s1 25.166 1 20.499
c1.33301 67.333 -22.5 111.5 -71.5 132.5s-149.833 31.5 -302.5 31.5c-70 0 -114 -3.33301 -132 -10s-30.333 -21.334 -37 -44.001l-135 -477c180.667 6 289.334 17.333 326.001 34s75.667 71.667 117 165l38 -9l-140 -474l-40 9c6.66699 40 10.667 64.333 12 73
s2 18.334 2 29.001c0 43.333 -15.5 71.5 -46.5 84.5s-87.833 19.5 -170.5 19.5h-117l-126 -457c-4 -14 -7.16699 -27 -9.5 -39s-3.5 -24.333 -3.5 -37c0 -21.333 5.66699 -37.333 17 -48c20.667 -18.667 61.334 -28 122.001 -28c183.333 0 314.5 19.667 393.5 59
s157.833 115.333 236.5 228l33 -17l-128 -331h-1040v33zM574.998 1438l24 104h616l-23 -104h-617z" />
    <glyph glyph-name="emacron" unicode="&#x113;" horiz-adv-x="909" 
d="M264 695c132 138.667 268.333 207.999 409 207.999c52 0 93.333 -12 124 -36s46 -59.667 46 -107c0 -96 -56.167 -178.167 -168.5 -246.5s-230.5 -110.166 -354.5 -125.499l-57 -7c-8.66699 -27.333 -14.667 -49.166 -18 -65.499s-5 -36.833 -5 -61.5
c0 -58.667 19.167 -104.334 57.5 -137.001s83.833 -49 136.5 -49c50 0 103 16.667 159 50c32 19.333 78.333 54 139 104l26 -23c-30 -38 -73 -77 -129 -117c-99.333 -71.333 -199 -107 -299 -107c-70.667 0 -132.667 25 -186 75s-80 121.667 -80 215
c0 148 66.667 291.333 200 430zM588 560.499c80 71 120 141.5 120 211.5c0 25.333 -6 45.5 -18 60.5s-29.667 22.5 -53 22.5c-43.333 0 -85.833 -18.5 -127.5 -55.5s-79.167 -78.833 -112.5 -125.5c-35.333 -54.667 -63.333 -107 -84 -157
c-11.333 -26.667 -23.333 -57 -36 -91c127.333 18.667 231 63.5 311 134.5zM336 1010l24 104h616l-23 -104h-617z" />
    <glyph glyph-name="Ebreve" unicode="&#x114;" horiz-adv-x="1251" 
d="M-5 33c48 4 80.998 12.668 98.998 26.001c28 20 51 61.667 69 125l251 906c8 30 14.167 54.833 18.5 74.5s6.5 36.5 6.5 50.5c0 32 -12.167 54.333 -36.5 67s-65.5 19.667 -123.5 21v33h1019l-64 -312l-42 4c2 20 3.33301 39.167 4 57.5s1 25.166 1 20.499
c1.33301 67.333 -22.5 111.5 -71.5 132.5s-149.833 31.5 -302.5 31.5c-70 0 -114 -3.33301 -132 -10s-30.333 -21.334 -37 -44.001l-135 -477c180.667 6 289.334 17.333 326.001 34s75.667 71.667 117 165l38 -9l-140 -474l-40 9c6.66699 40 10.667 64.333 12 73
s2 18.334 2 29.001c0 43.333 -15.5 71.5 -46.5 84.5s-87.833 19.5 -170.5 19.5h-117l-126 -457c-4 -14 -7.16699 -27 -9.5 -39s-3.5 -24.333 -3.5 -37c0 -21.333 5.66699 -37.333 17 -48c20.667 -18.667 61.334 -28 122.001 -28c183.333 0 314.5 19.667 393.5 59
s157.833 115.333 236.5 228l33 -17l-128 -331h-1040v33zM702.998 1797c-0.666992 -45.333 15.668 -90.668 49.001 -136.001s91.333 -68 174 -68c74 0 133 21.333 177 64s76.333 89.334 97 140.001h60c-12.667 -65.333 -37 -125 -73 -179c-66 -98 -157.667 -147 -275 -147
c-112.667 0 -189.667 41 -231 123c-22.667 45.333 -35.334 113 -38.001 203h60zM643 1368z" />
    <glyph glyph-name="ebreve" unicode="&#x115;" horiz-adv-x="909" 
d="M264 695c132 138.667 268.333 207.999 409 207.999c52 0 93.333 -12 124 -36s46 -59.667 46 -107c0 -96 -56.167 -178.167 -168.5 -246.5s-230.5 -110.166 -354.5 -125.499l-57 -7c-8.66699 -27.333 -14.667 -49.166 -18 -65.499s-5 -36.833 -5 -61.5
c0 -58.667 19.167 -104.334 57.5 -137.001s83.833 -49 136.5 -49c50 0 103 16.667 159 50c32 19.333 78.333 54 139 104l26 -23c-30 -38 -73 -77 -129 -117c-99.333 -71.333 -199 -107 -299 -107c-70.667 0 -132.667 25 -186 75s-80 121.667 -80 215
c0 148 66.667 291.333 200 430zM588 560.499c80 71 120 141.5 120 211.5c0 25.333 -6 45.5 -18 60.5s-29.667 22.5 -53 22.5c-43.333 0 -85.833 -18.5 -127.5 -55.5s-79.167 -78.833 -112.5 -125.5c-35.333 -54.667 -63.333 -107 -84 -157
c-11.333 -26.667 -23.333 -57 -36 -91c127.333 18.667 231 63.5 311 134.5zM411 1350c-0.666992 -45.333 15.668 -90.668 49.001 -136.001s91.333 -68 174 -68c74 0 133 21.333 177 64s76.333 89.334 97 140.001h60c-12.667 -65.333 -37 -125 -73 -179
c-66 -98 -157.667 -147 -275 -147c-112.667 0 -189.667 41 -231 123c-22.667 45.333 -35.334 113 -38.001 203h60zM351.002 920.997z" />
    <glyph glyph-name="Edotaccent" unicode="&#x116;" horiz-adv-x="1251" 
d="M-5 33c48 4 80.998 12.668 98.998 26.001c28 20 51 61.667 69 125l251 906c8 30 14.167 54.833 18.5 74.5s6.5 36.5 6.5 50.5c0 32 -12.167 54.333 -36.5 67s-65.5 19.667 -123.5 21v33h1019l-64 -312l-42 4c2 20 3.33301 39.167 4 57.5s1 25.166 1 20.499
c1.33301 67.333 -22.5 111.5 -71.5 132.5s-149.833 31.5 -302.5 31.5c-70 0 -114 -3.33301 -132 -10s-30.333 -21.334 -37 -44.001l-135 -477c180.667 6 289.334 17.333 326.001 34s75.667 71.667 117 165l38 -9l-140 -474l-40 9c6.66699 40 10.667 64.333 12 73
s2 18.334 2 29.001c0 43.333 -15.5 71.5 -46.5 84.5s-87.833 19.5 -170.5 19.5h-117l-126 -457c-4 -14 -7.16699 -27 -9.5 -39s-3.5 -24.333 -3.5 -37c0 -21.333 5.66699 -37.333 17 -48c20.667 -18.667 61.334 -28 122.001 -28c183.333 0 314.5 19.667 393.5 59
s157.833 115.333 236.5 228l33 -17l-128 -331h-1040v33zM852.998 1660.5c19.333 19.667 43 29.501 71 29.501s52 -9.83301 72 -29.5s30 -43.167 30 -70.5c0 -28.667 -10 -52.834 -30 -72.501s-43.667 -29.5 -71 -29.5c-26.667 0 -50.167 9.5 -70.5 28.5
s-30.5 43.5 -30.5 73.5c0 27.333 9.66699 50.833 29 70.5zM823.998 1351z" />
    <glyph glyph-name="edotaccent" unicode="&#x117;" horiz-adv-x="909" 
d="M264 695c132 138.667 268.333 207.999 409 207.999c52 0 93.333 -12 124 -36s46 -59.667 46 -107c0 -96 -56.167 -178.167 -168.5 -246.5s-230.5 -110.166 -354.5 -125.499l-57 -7c-8.66699 -27.333 -14.667 -49.166 -18 -65.499s-5 -36.833 -5 -61.5
c0 -58.667 19.167 -104.334 57.5 -137.001s83.833 -49 136.5 -49c50 0 103 16.667 159 50c32 19.333 78.333 54 139 104l26 -23c-30 -38 -73 -77 -129 -117c-99.333 -71.333 -199 -107 -299 -107c-70.667 0 -132.667 25 -186 75s-80 121.667 -80 215
c0 148 66.667 291.333 200 430zM588 560.499c80 71 120 141.5 120 211.5c0 25.333 -6 45.5 -18 60.5s-29.667 22.5 -53 22.5c-43.333 0 -85.833 -18.5 -127.5 -55.5s-79.167 -78.833 -112.5 -125.5c-35.333 -54.667 -63.333 -107 -84 -157
c-11.333 -26.667 -23.333 -57 -36 -91c127.333 18.667 231 63.5 311 134.5zM668 1227.5c19.333 19.667 43 29.501 71 29.501s52 -9.83301 72 -29.5s30 -43.167 30 -70.5c0 -28.667 -10 -52.834 -30 -72.501s-43.667 -29.5 -71 -29.5c-26.667 0 -50.167 9.5 -70.5 28.5
s-30.5 43.5 -30.5 73.5c0 27.333 9.66699 50.833 29 70.5zM639 918z" />
    <glyph glyph-name="Eogonek" unicode="&#x118;" horiz-adv-x="1251" 
d="M-5 33c48 4 80.998 12.668 98.998 26.001c28 20 51 61.667 69 125l251 906c8 30 14.167 54.833 18.5 74.5s6.5 36.5 6.5 50.5c0 32 -12.167 54.333 -36.5 67s-65.5 19.667 -123.5 21v33h1019l-64 -312l-42 4c2 20 3.33301 39.167 4 57.5s1 25.166 1 20.499
c1.33301 67.333 -22.5 111.5 -71.5 132.5s-149.833 31.5 -302.5 31.5c-70 0 -114 -3.33301 -132 -10s-30.333 -21.334 -37 -44.001l-135 -477c180.667 6 289.334 17.333 326.001 34s75.667 71.667 117 165l38 -9l-140 -474l-40 9c6.66699 40 10.667 64.333 12 73
s2 18.334 2 29.001c0 43.333 -15.5 71.5 -46.5 84.5s-87.833 19.5 -170.5 19.5h-117l-126 -457c-4 -14 -7.16699 -27 -9.5 -39s-3.5 -24.333 -3.5 -37c0 -21.333 5.66699 -37.333 17 -48c20.667 -18.667 61.334 -28 122.001 -28c183.333 0 314.5 19.667 393.5 59
s157.833 115.333 236.5 228l33 -17l-128 -331h-1040v33zM554.998 47.001c-21.333 -29.333 -41.6641 -72.3311 -60.9971 -128.998s-29 -102.667 -29 -138c0 -38.667 12.167 -69.834 36.5 -93.501s53.166 -35.5 86.499 -35.5c21.333 0 44.666 5 69.999 15
c15.333 6.66699 34.666 16.667 57.999 30v-116c-28.667 -16.667 -58.167 -29.5 -88.5 -38.5s-60.833 -13.5 -91.5 -13.5c-58 0 -107.667 18.333 -149 55s-62 81.667 -62 135c0 37.333 7.66699 74.666 23 111.999c29.333 72 84 144.333 164 217h43z" />
    <glyph glyph-name="eogonek" unicode="&#x119;" horiz-adv-x="909" 
d="M264 695c132 138.667 268.333 207.999 409 207.999c52 0 93.333 -12 124 -36s46 -59.667 46 -107c0 -96 -56.167 -178.167 -168.5 -246.5s-230.5 -110.166 -354.5 -125.499l-57 -7c-8.66699 -27.333 -14.667 -49.166 -18 -65.499s-5 -36.833 -5 -61.5
c0 -58.667 19.167 -104.334 57.5 -137.001s83.833 -49 136.5 -49c50 0 103 16.667 159 50c32 19.333 78.333 54 139 104l26 -23c-30 -38 -73 -77 -129 -117c-99.333 -71.333 -199 -107 -299 -107c-70.667 0 -132.667 25 -186 75s-80 121.667 -80 215
c0 148 66.667 291.333 200 430zM588 560.499c80 71 120 141.5 120 211.5c0 25.333 -6 45.5 -18 60.5s-29.667 22.5 -53 22.5c-43.333 0 -85.833 -18.5 -127.5 -55.5s-79.167 -78.833 -112.5 -125.5c-35.333 -54.667 -63.333 -107 -84 -157
c-11.333 -26.667 -23.333 -57 -36 -91c127.333 18.667 231 63.5 311 134.5zM691 10.999c-21.333 -29.333 -41.6641 -72.3311 -60.9971 -128.998s-29 -102.667 -29 -138c0 -38.667 12.167 -69.834 36.5 -93.501s53.166 -35.5 86.499 -35.5c21.333 0 44.666 5 69.999 15
c15.333 6.66699 34.666 16.667 57.999 30v-116c-28.667 -16.667 -58.167 -29.5 -88.5 -38.5s-60.833 -13.5 -91.5 -13.5c-58 0 -107.667 18.333 -149 55s-62 81.667 -62 135c0 37.333 7.66699 74.666 23 111.999c29.333 72 84 144.333 164 217h43z" />
    <glyph glyph-name="Ecaron" unicode="&#x11a;" horiz-adv-x="1251" 
d="M-5 33c48 4 80.998 12.668 98.998 26.001c28 20 51 61.667 69 125l251 906c8 30 14.167 54.833 18.5 74.5s6.5 36.5 6.5 50.5c0 32 -12.167 54.333 -36.5 67s-65.5 19.667 -123.5 21v33h1019l-64 -312l-42 4c2 20 3.33301 39.167 4 57.5s1 25.166 1 20.499
c1.33301 67.333 -22.5 111.5 -71.5 132.5s-149.833 31.5 -302.5 31.5c-70 0 -114 -3.33301 -132 -10s-30.333 -21.334 -37 -44.001l-135 -477c180.667 6 289.334 17.333 326.001 34s75.667 71.667 117 165l38 -9l-140 -474l-40 9c6.66699 40 10.667 64.333 12 73
s2 18.334 2 29.001c0 43.333 -15.5 71.5 -46.5 84.5s-87.833 19.5 -170.5 19.5h-117l-126 -457c-4 -14 -7.16699 -27 -9.5 -39s-3.5 -24.333 -3.5 -37c0 -21.333 5.66699 -37.333 17 -48c20.667 -18.667 61.334 -28 122.001 -28c183.333 0 314.5 19.667 393.5 59
s157.833 115.333 236.5 228l33 -17l-128 -331h-1040v33zM647.998 1811h75l185 -216l292 216h73l-334 -346h-95zM647.998 1361z" />
    <glyph glyph-name="ecaron" unicode="&#x11b;" horiz-adv-x="909" 
d="M264 695c132 138.667 268.333 207.999 409 207.999c52 0 93.333 -12 124 -36s46 -59.667 46 -107c0 -96 -56.167 -178.167 -168.5 -246.5s-230.5 -110.166 -354.5 -125.499l-57 -7c-8.66699 -27.333 -14.667 -49.166 -18 -65.499s-5 -36.833 -5 -61.5
c0 -58.667 19.167 -104.334 57.5 -137.001s83.833 -49 136.5 -49c50 0 103 16.667 159 50c32 19.333 78.333 54 139 104l26 -23c-30 -38 -73 -77 -129 -117c-99.333 -71.333 -199 -107 -299 -107c-70.667 0 -132.667 25 -186 75s-80 121.667 -80 215
c0 148 66.667 291.333 200 430zM588 560.499c80 71 120 141.5 120 211.5c0 25.333 -6 45.5 -18 60.5s-29.667 22.5 -53 22.5c-43.333 0 -85.833 -18.5 -127.5 -55.5s-79.167 -78.833 -112.5 -125.5c-35.333 -54.667 -63.333 -107 -84 -157
c-11.333 -26.667 -23.333 -57 -36 -91c127.333 18.667 231 63.5 311 134.5zM406 1369h75l185 -216l292 216h73l-334 -346h-95zM406 918.999z" />
    <glyph glyph-name="Gcircumflex" unicode="&#x11c;" horiz-adv-x="1479" 
d="M1053 1356c39.333 -6 82.3291 -17.333 128.996 -34c35.333 -12 59.5 -19.667 72.5 -23s26.167 -5 39.5 -5c33.333 0 58.666 6 75.999 18s33.666 28.667 48.999 50l31 -7l-102 -403l-35 5c-10.667 82 -32.667 148 -66 198c-62.667 92.667 -164 139 -304 139
c-192.667 0 -348.334 -102.333 -467.001 -307c-96.667 -167.333 -145 -342 -145 -524c0 -127.333 34.5 -230 103.5 -308s167.5 -117 295.5 -117c44.667 0 93.334 7.83301 146.001 23.5s88.334 39.167 107.001 70.5c12 20 26.333 60 43 120c10.667 38 24 91.333 40 160l22 92
c1.33301 5.33301 2.33301 10.833 3 16.5s1 11.5 1 17.5c0 30 -9.16699 49.167 -27.5 57.5s-62.166 16.833 -131.499 25.5v33h546v-33c-69.333 -6.66699 -116.166 -18.667 -140.499 -36s-43.833 -54.333 -58.5 -111l-100 -384c-52.667 -34.667 -120.667 -64.667 -204 -90
s-173.666 -38 -270.999 -38c-195.333 0 -347.666 58.667 -456.999 176c-96 103.333 -144 231 -144 383c0 200 75.667 386 227 558c168.667 190.667 374.334 286 617.001 286c30.667 0 65.667 -3 105 -9zM1216 1474l-169 213l-279 -213h-81l322 346h100l180 -346h-73z
M686.996 1370z" />
    <glyph glyph-name="gcircumflex" unicode="&#x11d;" 
d="M374 413c21.333 -40.667 59.668 -61.001 115.001 -61.001c60 0 113.5 38.167 160.5 114.5s70.5 160.5 70.5 252.5c0 44 -9.66699 78.5 -29 103.5s-48.333 37.5 -87 37.5c-74.667 0 -134.834 -39.667 -180.501 -119s-68.5 -155.666 -68.5 -228.999
c0 -41.333 6.33301 -74.333 19 -99zM587.502 -323.001c52.333 38 78.502 83.332 78.502 135.999c0 40 -13.667 73.667 -41 101c-14.667 14.667 -38.334 30.334 -71.001 47.001c-27.333 13.333 -73.5 32.5 -138.5 57.5s-102.5 37.5 -112.5 37.5
c-17.333 0 -51 -23.167 -101 -69.5s-75 -98.833 -75 -157.5c0 -88.667 38.333 -149.667 115 -183c40 -17.333 89.333 -26 148 -26c79.333 0 145.166 19 197.499 57zM73.5039 -54.502c38.333 45 99.1709 89.832 182.504 134.499
c-16.667 10.667 -30.334 21.834 -41.001 33.501s-16 27.167 -16 46.5c0 27.333 19 58.666 57 93.999c21.333 20 56 46.333 104 79c-42.667 16 -79.334 38.667 -110.001 68c-37.333 39.333 -56 90.333 -56 153c0 100.667 39.333 184.334 118 251.001s176 100 292 100
c60.667 0 112 -9.5 154 -28.5s66.667 -34.833 74 -47.5h135v-80h-102c4 -14.667 7 -28 9 -40s3 -29 3 -51c0 -108 -41.833 -193 -125.5 -255s-173.834 -93 -270.501 -93c-10 0 -19.333 0.5 -28 1.5s-19.334 2.83301 -32.001 5.5c-10 0 -23.667 -9.66699 -41 -29
c-18 -19.333 -27 -36.666 -27 -51.999c0 -22.667 73.333 -61.334 220 -116.001c146 -55.333 219 -136.333 219 -243c0 -80 -36.667 -150.167 -110 -210.5s-184 -90.5 -332 -90.5c-102.667 0 -184 22 -244 66s-90 97.667 -90 161c0 50 19.167 97.5 57.5 142.5zM874.009 1007
l-169 213l-279 -213h-81l322 346h100l180 -346h-73zM345.009 902.997z" />
    <glyph glyph-name="Gbreve" unicode="&#x11e;" horiz-adv-x="1479" 
d="M1053 1356c39.333 -6 82.3291 -17.333 128.996 -34c35.333 -12 59.5 -19.667 72.5 -23s26.167 -5 39.5 -5c33.333 0 58.666 6 75.999 18s33.666 28.667 48.999 50l31 -7l-102 -403l-35 5c-10.667 82 -32.667 148 -66 198c-62.667 92.667 -164 139 -304 139
c-192.667 0 -348.334 -102.333 -467.001 -307c-96.667 -167.333 -145 -342 -145 -524c0 -127.333 34.5 -230 103.5 -308s167.5 -117 295.5 -117c44.667 0 93.334 7.83301 146.001 23.5s88.334 39.167 107.001 70.5c12 20 26.333 60 43 120c10.667 38 24 91.333 40 160l22 92
c1.33301 5.33301 2.33301 10.833 3 16.5s1 11.5 1 17.5c0 30 -9.16699 49.167 -27.5 57.5s-62.166 16.833 -131.499 25.5v33h546v-33c-69.333 -6.66699 -116.166 -18.667 -140.499 -36s-43.833 -54.333 -58.5 -111l-100 -384c-52.667 -34.667 -120.667 -64.667 -204 -90
s-173.666 -38 -270.999 -38c-195.333 0 -347.666 58.667 -456.999 176c-96 103.333 -144 231 -144 383c0 200 75.667 386 227 558c168.667 190.667 374.334 286 617.001 286c30.667 0 65.667 -3 105 -9zM718.996 1792c-0.666992 -45.333 15.668 -90.668 49.001 -136.001
s91.333 -68 174 -68c74 0 133 21.333 177 64s76.333 89.334 97 140.001h60c-12.667 -65.333 -37 -125 -73 -179c-66 -98 -157.667 -147 -275 -147c-112.667 0 -189.667 41 -231 123c-22.667 45.333 -35.334 113 -38.001 203h60zM658.998 1363z" />
    </font>
</defs>
</svg>
