<?xml version="1.0" standalone="no"?>
<!DOCTYPE svg PUBLIC "-//W3C//DTD SVG 1.1//EN" "http://www.w3.org/Graphics/SVG/1.1/DTD/svg11.dtd" >
<svg>
<metadata>
Created by FontForge 20090914 at Mon Aug  1 12:28:21 2016
 By www-data
&#194;&#169; 1990-99 Apple Computer Inc. &#194;&#169; 1981 Linotype AG  &#194;&#169; 1990-91 Type Solutions Inc. &#194;&#169; 1990-91 The Font Bureau Inc.
</metadata>
<defs>
<font id="Times-Roman" horiz-adv-x="1479" >
  <font-face 
    font-family="Times"
    font-weight="400"
    font-stretch="normal"
    units-per-em="2048"
    panose-1="2 0 5 3 0 0 0 0 0 0"
    ascent="1638"
    descent="-410"
    x-height="919.001"
    cap-height="1356"
    bbox="-415.764 -842.003 3482 2604"
    underline-thickness="101"
    underline-position="-105"
    unicode-range="U+0008-U+FB02"
  />
<missing-glyph 
d="M33 0v1355h1398v-1355h-1398zM1247 184v987h-1030v-987h1030z" />
    <glyph glyph-name="fi" unicode="fi" horiz-adv-x="1139" 
d="M66 28c52 2 88.335 12 109.002 30s31 62.333 31 133v662h-143v61h143c1.33301 144.667 38.833 260.167 112.5 346.5s185.5 129.5 335.5 129.5c64 0 122.667 -14.667 176 -44s80 -64 80 -104c0 -20.667 -7.16699 -38.5 -21.5 -53.5s-32.5 -22.5 -54.5 -22.5
c-30.667 0 -66.334 28.5 -107.001 85.5s-85 85.5 -133 85.5c-48.667 0 -87 -8.16699 -115 -24.5s-54 -46.833 -78 -91.5c-13.333 -33.333 -22 -68.166 -26 -104.499s-6 -103.833 -6 -202.5h292c24.667 0 52.5 0.666992 83.5 2s57.167 3.33301 78.5 6
c6 0.666992 21.833 3.66699 47.5 9s41.5 8 47.5 8c3.33301 0 6.66602 -1.33301 9.99902 -4s5 -7.66699 5 -15c0 -6 -1.33301 -25.333 -4 -58l-1 -42c-0.666992 -14.667 -1.16699 -29 -1.5 -43s-0.5 -28.333 -0.5 -43v-535c0 -70 9.83301 -114.333 29.5 -133
s56.5 -31.334 110.5 -38.001v-28h-450v30c64 6 103.667 18 119 36s23 62.333 23 133v540c0 47.333 -6.83301 77.166 -20.5 89.499s-43.834 19.5 -90.501 21.5c-32.667 0.666992 -57 1.33398 -73 2.00098c-47.333 0.666992 -115.666 1 -204.999 1v-673
c0 -60.667 14.333 -102 43 -124c18 -14 52.667 -23.333 104 -28v-28h-450v28z" />
    <glyph glyph-name="fl" unicode="fl" horiz-adv-x="1139" 
d="M66 28c64 10.667 103.667 24.8311 119 42.498s23 65.834 23 144.501v638h-142v61h144c3.33301 80 9 139.333 17 178c12.667 62 36.334 117.333 71.001 166c23.333 32 52 59.333 86 82c52.667 34 111.667 51 177 51c43.333 0 87.5 -8.66699 132.5 -26s72.833 -26 83.5 -26
c4 0 8 0.333008 12 1s8 1.66699 12 3l99 38l13.5 5c3.66699 1.33301 7.16699 2.33301 10.5 3c6 -4 9.66699 -7.66699 11 -11s1.66602 -9.33301 0.999023 -18l-3 -90v-1105c0 -52 8.16699 -86.333 24.5 -103s52.5 -28 108.5 -34v-28h-441v28c50.667 7.33301 84 17.333 100 30
c25.333 20 38 58.333 38 115v680h-387v-692c0 -43.333 10 -75.166 30 -95.499s59 -32.833 117 -37.5v-28h-457v28zM763 1201c-4.66699 -4 -9.5 -7 -14.5 -9s-12.5 -3 -22.5 -3c-40 0 -75.167 24.167 -105.5 72.5s-63.833 72.5 -100.5 72.5c-64 0 -105 -38.667 -123 -116
c-12 -48.667 -18 -150 -18 -304h384v287z" />
    <glyph glyph-name=".notdef" 
d="M33 0v1355h1398v-1355h-1398zM1247 184v987h-1030v-987h1030z" />
    <glyph glyph-name=".null" horiz-adv-x="0" 
 />
    <glyph glyph-name=".null" horiz-adv-x="0" 
 />
    <glyph glyph-name=".null" horiz-adv-x="0" 
 />
    <glyph glyph-name="nonmarkingreturn" unicode="&#x9;" horiz-adv-x="512" 
 />
    <glyph glyph-name="nonmarkingreturn" unicode="&#xd;" horiz-adv-x="512" 
 />
    <glyph glyph-name="nonmarkingreturn" unicode="&#xa;" horiz-adv-x="512" 
 />
    <glyph glyph-name="space" unicode=" " horiz-adv-x="512" 
 />
    <glyph glyph-name="exclam" unicode="!" horiz-adv-x="682" 
d="M298 8c-22 20 -32.999 45.666 -32.999 76.999c0 30 10.667 56 32 78s47.666 33 78.999 33c32 0 58.667 -11.167 80 -33.5s32 -48.166 32 -77.499s-11 -54.5 -33 -75.5s-49 -31.5 -81 -31.5c-28.667 0 -54 10 -76 30zM482.001 1185.5
c-0.666992 -11.667 -2.00098 -25.5 -4.00098 -41.5l-45 -379l-47 -405h-26l-19 220c-5.33301 62.667 -20 182.334 -44 359.001c-21.333 154 -32 247 -32 279c0 41.333 8 79.333 24 114s45.667 52 89 52c44.667 0 75.334 -23.667 92.001 -71
c8.66699 -24.667 13 -55.334 13 -92.001c0 -12 -0.333008 -23.833 -1 -35.5z" />
    <glyph glyph-name="quotedbl" unicode="&#x22;" horiz-adv-x="836" 
d="M345.5 1245.5c-1.66699 -17 -3.16797 -30.834 -4.50098 -41.501l-48 -410h-45l-52 407c-2.66699 18.667 -4.66699 36.334 -6 53.001s-2 31.667 -2 45c0 25.333 7.5 45.833 22.5 61.5s33.833 23.5 56.5 23.5c30.667 0 51.834 -8.83301 63.501 -26.5
s17.5 -42.167 17.5 -73.5c0 -8.66699 -0.833008 -21.5 -2.5 -38.5zM544.999 793.999l-49.999 397.999c-4.66699 40.667 -7.5 64.834 -8.5 72.501s-1.5 14.167 -1.5 19.5c0 36 7.16699 61.667 21.5 77s34.166 23 59.499 23c32 0 53.5 -9.16699 64.5 -27.5
s16.5 -42.833 16.5 -73.5c0 -6 -0.333008 -12.333 -1 -19s-3 -27.667 -7 -63l-47 -407h-47z" />
    <glyph glyph-name="numbersign" unicode="#" horiz-adv-x="1024" 
d="M571 504l92 344h-216l-92 -344h216zM16 504h218l95 346h-218l16 74h219l118 429h123l-118 -429h216l116 429h121l-119 -429h218l-19 -74h-218l-92 -346h218l-22 -75h-215l-116 -429h-124l119 429h-216l-116 -429h-121l116 429h-215z" />
    <glyph glyph-name="dollar" unicode="$" horiz-adv-x="1024" 
d="M120 369c19.333 -82.667 45.667 -146.002 79 -190.002c60.667 -80 151.334 -121 272.001 -123v579c-132.667 78 -220.334 138 -263.001 180c-68.667 66.667 -103 145 -103 235c0 76 33.167 145.333 99.5 208s155.166 96.667 266.499 102v128h69v-128
c55.333 -3.33301 116.333 -14 183 -32c62 -19.333 110.667 -45 146 -77v-228h-30c-15.333 88 -51 156 -107 204s-120 73.333 -192 76v-502c148.667 -75.333 251.667 -143.166 309 -203.499s86 -140.5 86 -240.5c0 -38.667 -6.66699 -76.667 -20 -114
c-20 -58 -54 -106.667 -102 -146c-36.667 -30.667 -80.667 -53.667 -132 -69s-98.333 -24.666 -141 -27.999v-181h-69v181c-87.333 2 -159.666 12 -216.999 30c-38 12 -92.667 36.667 -164 74v265h30zM678.001 107.998c64.667 44.667 97.001 113 97.001 205
c0 64 -23.667 120.333 -71 169c-28.667 28.667 -83.334 67.667 -164.001 117v-543c57.333 10.667 103.333 28 138 52zM469.002 1303c-62.667 -8 -113.333 -30.832 -152 -68.499s-58 -85.5 -58 -143.5c0 -54.667 27.667 -109.334 83 -164.001
c34.667 -33.333 77 -64.333 127 -93v469z" />
    <glyph glyph-name="percent" unicode="%" horiz-adv-x="1706" 
d="M667 1339c14 -5.33301 27.6689 -13.999 41.002 -25.999l38 -34c15.333 -13.333 37 -22.666 65 -27.999s56.667 -8 86 -8c76.667 0 147.334 18.667 212.001 56c34.667 19.333 71 47.666 109 84.999h80l-789 -1413h-97l713 1280c-50 -23.333 -87.333 -38.666 -112 -45.999
s-57.334 -11 -98.001 -11c-36 0 -67 2.33301 -93 7c-16.667 2.66699 -33.334 6.66699 -50.001 12c5.33301 -18 9 -32.833 11 -44.5s3 -29.834 3 -54.501c0 -120 -40.167 -237.167 -120.5 -351.5s-178.833 -171.5 -295.5 -171.5c-62 0 -118.333 23.667 -169 71
s-76 116.666 -76 207.999c0 110 44.667 218.333 134 325s191.666 160 306.999 160c41.333 0 75 -5.33301 101 -16zM1429.5 220.501c65 106.333 97.5 204.833 97.5 295.5c0 56 -13.667 99.667 -41 131s-63 47 -107 47c-79.333 0 -150 -60.667 -212 -182
s-93 -226.333 -93 -315c0 -44 12.667 -77.667 38 -101s58 -35 98 -35c81.333 0 154.5 53.167 219.5 159.5zM1056.5 605.501c91.667 102.333 193.167 153.5 304.5 153.5c58 0 109.333 -17.333 154 -52s67 -99 67 -193c0 -100.667 -38 -212 -114 -334s-176.333 -183 -301 -183
c-67.333 0 -125.5 22.833 -174.5 68.5s-73.5 116.834 -73.5 213.501c0 115.333 45.833 224.166 137.5 326.499zM632.002 810.001c68 99.333 102.001 207.667 102.001 325c0 42 -4.5 69 -13.5 81s-24.833 20.667 -47.5 26c-16 4 -34.833 13.833 -56.5 29.5
s-34.834 23.5 -39.501 23.5c-64.667 0 -130.5 -57.833 -197.5 -173.5s-100.5 -222.167 -100.5 -319.5c0 -44 10.5 -78.5 31.5 -103.5s53.167 -37.5 96.5 -37.5c82 0 157 49.667 225 149z" />
    <glyph glyph-name="ampersand" unicode="&#x26;" horiz-adv-x="1593" 
d="M805 953c60 57.333 90.001 120.667 90.001 190c0 52 -15.167 94 -45.5 126s-68.833 48 -115.5 48c-50.667 0 -89.834 -16.333 -117.501 -49s-41.5 -76 -41.5 -130c0 -42 7.5 -87.5 22.5 -136.5s34.5 -99.5 58.5 -151.5c66 36.667 115.667 71 149 103zM674.001 112.001
c53.333 21.333 104.336 55.002 153.003 101.002c-62.667 80 -111.5 147.333 -146.5 202s-89.833 150 -164.5 286c-68.667 -40.667 -121.334 -81.334 -158.001 -122.001c-56 -62.667 -84 -135.334 -84 -218.001c0 -76 24.667 -141.833 74 -197.5s112.666 -83.5 189.999 -83.5
c37.333 0 82.666 10.667 135.999 32zM485.004 772.003c-8.66699 18 -18.6689 42.666 -30.002 73.999s-19.333 56.666 -24 75.999c-5.33301 21.333 -9.66602 42.833 -12.999 64.5s-5 42.834 -5 63.501c0 96 29.333 175.667 88 239s133 95 223 95
c82 0 149.333 -22.333 202 -67s79 -104.667 79 -180c0 -88 -33.667 -160 -101 -216s-139.666 -101 -216.999 -135c58.667 -106.667 101.834 -182 129.501 -226s74.5 -109 140.5 -195c70.667 86.667 119.667 160.667 147 222s41 110.333 41 147c0 37.333 -13.667 63 -41 77
c-17.333 8.66699 -47.333 14.667 -90 18v43h441v-43c-44.667 -5.33301 -78 -13.333 -100 -24c-36 -18 -66.667 -50.333 -92 -97l-52 -95c-37.333 -68 -68.5 -120 -93.5 -156s-62.5 -85.667 -112.5 -149c26.667 -31.333 57 -63 91 -95c74 -63.333 148 -95 222 -95
c44 0 81.333 10.667 112 32c18.667 13.333 43.667 39 75 77l30 -24c-4 -16 -18 -41.167 -42 -75.5s-47 -61.166 -69 -80.499c-34.667 -30.667 -75 -52.334 -121 -65.001c-27.333 -8 -54 -12 -80 -12c-64.667 0 -128.667 20.333 -192 61c-38 24 -88.667 66.333 -152 127
c-60 -55.333 -120.667 -97.666 -182 -126.999c-80 -40 -168 -60 -264 -60c-106.667 0 -191.834 28.5 -255.501 85.5s-95.5 134.833 -95.5 233.5c0 92.667 28.5 174.167 85.5 244.5s136.833 134.5 239.5 192.5z" />
    <glyph glyph-name="quotesingle" unicode="'" horiz-adv-x="369" 
d="M238.5 1358.5c9.66699 -17 14.5 -40.165 14.5 -69.498c0 -4.66699 -0.166992 -9.33398 -0.5 -14.001s-1.83301 -18.334 -4.5 -41.001l-49 -440h-36l-52 407c-2 16.667 -3.83301 33 -5.5 49s-2.5 32.333 -2.5 49c0 20.667 4.5 40 13.5 58s29.167 27 60.5 27
s51.833 -8.5 61.5 -25.5z" />
    <glyph glyph-name="parenleft" unicode="(" horiz-adv-x="682" 
d="M302 1125c85.333 107.333 186 193.667 302 259l19 -33c-107.333 -85.333 -184 -168.333 -230 -249c-80.667 -140.667 -121 -328 -121 -562c0 -173.333 15.333 -316.333 46 -429c54 -197.333 155.667 -345 305 -443l-26 -33c-82 39.333 -170.667 116.333 -266 231
c-158 190 -237 406 -237 648c0 232 69.333 435.667 208 611z" />
    <glyph glyph-name="parenright" unicode=")" horiz-adv-x="682" 
d="M544 222c-26 -88.667 -64 -172.33 -114 -250.997c-52.667 -84 -123 -162.333 -211 -235c-58 -48 -106.667 -81.667 -146 -101l-19 33c102.667 78 177.667 157.667 225 239c84 144 126 334.333 126 571c0 191.333 -19.333 347.666 -58 468.999
c-54 171.333 -151.667 306 -293 404l26 33c105.333 -58.667 203.333 -147.334 294 -266.001c139.333 -182.667 209 -387.334 209 -614.001c0 -99.333 -13 -193.333 -39 -282z" />
    <glyph glyph-name="asterisk" unicode="*" horiz-adv-x="1024" 
d="M236 878c106.667 23.333 186.001 51.998 238.001 85.998c-52.667 31.333 -133 61 -241 89c-65.333 16.667 -98 45.334 -98 86.001c0 22.667 7 40.334 21 53.001s30.333 19 49 19c27.333 0 62.666 -25.167 105.999 -75.5s102.333 -97.166 177 -140.499v26
c0 55.333 -8.83301 110.666 -26.5 165.999s-26.5 94.333 -26.5 117c0 26 7.16699 45.833 21.5 59.5s31.5 20.5 51.5 20.5c23.333 0 41.166 -7.66699 53.499 -23s18.5 -34.666 18.5 -57.999c0 -15.333 -9.33301 -51.5 -28 -108.5s-27.334 -125.167 -26.001 -204.5
c54.667 40 88 64.833 100 74.5s26.333 23.834 43 42.501c48 53.333 77.833 84.5 89.5 93.5s27.834 13.5 48.501 13.5c20 0 36.833 -7.33301 50.5 -22s20.5 -32.334 20.5 -53.001c0 -42 -30 -69.333 -90 -82c-100 -21.333 -182 -53 -246 -95l17 -10
c52.667 -31.333 130 -57.333 232 -78c58.667 -12 88 -41 88 -87c0 -24.667 -8.66699 -42.834 -26 -54.501s-34.333 -17.5 -51 -17.5c-28 0 -66 28.833 -114 86.5s-97.333 99.167 -148 124.5l-14 7v-14c0 -78.667 9.5 -144.167 28.5 -196.5s28.5 -84.5 28.5 -96.5
c0 -22 -7.5 -41.5 -22.5 -58.5s-34.5 -25.5 -58.5 -25.5c-22 0 -39.333 8 -52 24s-19 35.333 -19 58c0 6 11.333 47.833 34 125.5s30.334 134.167 23.001 169.5l-3 14c-56.667 -31.333 -109.667 -75 -159 -131s-89.333 -84 -120 -84c-24 0 -41.833 7 -53.5 21
s-17.5 29 -17.5 45c0 48 33.667 79.333 101 94z" />
    <glyph glyph-name="plus" unicode="+" horiz-adv-x="1155" 
d="M509 1035h140v-448h446v-140h-446v-447h-140v447h-448v140h448v448z" />
    <glyph glyph-name="comma" unicode="," horiz-adv-x="512" 
d="M429 -167c-48.667 -58 -101 -99.667 -157 -125l-19 40c64 36 108.167 75 132.5 117s36.5 77 36.5 105c0 9.33301 -3 15.333 -9 18s-12.333 4 -19 4l-67 -7c-28 0 -53.667 9.16699 -77 27.5s-35 44.833 -35 79.5c0 26.667 9.66699 52.667 29 78s51 38 95 38
c42 0 79.667 -16.5 113 -49.5s50 -78.833 50 -137.5c0 -67.333 -24.333 -130 -73 -188z" />
    <glyph glyph-name="hyphen" unicode="-" horiz-adv-x="682" 
d="M80 526h503v-128h-503v128z" />
    <glyph glyph-name="period" unicode="." horiz-adv-x="512" 
d="M253 9.5c-22 22.333 -32.999 49.166 -32.999 80.499s11.167 58 33.5 80s49.166 33 80.499 33s58 -11 80 -33s33 -48.667 33 -80s-10.833 -58.166 -32.5 -80.499s-48.5 -33.5 -80.5 -33.5s-59 11.167 -81 33.5z" />
    <glyph glyph-name="slash" unicode="/" horiz-adv-x="569" 
d="M459 1384h100l-453 -1418h-102z" />
    <glyph glyph-name="zero" unicode="0" horiz-adv-x="1024" 
d="M692 198c36.667 107.333 54.999 262.667 54.999 466c0 162 -11 291.333 -33 388c-41.333 180 -118.666 270 -231.999 270s-191 -92.667 -233 -278c-22 -98.667 -33 -228.667 -33 -390c0 -151.333 11.333 -272.333 34 -363c42.667 -169.333 122.667 -254 240 -254
c98 0 165.333 53.667 202 161zM843.999 1135c67.333 -130 101 -279.333 101 -448c0 -132.667 -20.667 -257.667 -62 -375c-78 -220.667 -213 -331 -405 -331c-131.333 0 -239.333 59.667 -324 179c-90.667 127.333 -136 300.333 -136 519c0 172 30.333 320 91 444
c82 168.667 208 253 378 253c153.333 0 272.333 -80.333 357 -241z" />
    <glyph glyph-name="one" unicode="1" horiz-adv-x="1024" 
d="M610.5 1366.5c0.333008 -1.66699 0.499023 -5.49902 0.499023 -11.499v-1204c0 -51.333 13.667 -84 41 -98s78.333 -22.333 153 -25v-28h-564v30c80.667 4 133.334 15 158.001 33s37 57 37 117v926c0 32 -4 56.333 -12 73s-25.333 25 -52 25
c-17.333 0 -39.833 -4.83301 -67.5 -14.5s-53.5 -19.834 -77.5 -30.501v28l367 187h12c2.66699 -3.33301 4.16699 -5.83301 4.5 -7.5z" />
    <glyph glyph-name="two" unicode="2" horiz-adv-x="1024" 
d="M61 23c244 253.333 409.666 439.33 496.999 557.997s131 234.334 131 347.001c0 98.667 -26.667 173.834 -80 225.501s-117 77.5 -191 77.5c-91.333 0 -165.333 -33.333 -222 -100c-31.333 -36.667 -61.333 -93 -90 -169l-43 9
c33.333 153.333 89.833 259.833 169.5 319.5s165.167 89.5 256.5 89.5c112.667 0 203.834 -35.5 273.501 -106.5s104.5 -157.833 104.5 -260.5c0 -109.333 -37.667 -214.666 -113 -315.999s-239 -281.666 -491 -540.999h459c64 0 109 7.66699 135 23
s55.333 52.666 88 111.999l26 -12l-111 -279h-799v23z" />
    <glyph glyph-name="three" unicode="3" horiz-adv-x="1024" 
d="M304.5 117c60.333 -38 111.5 -57.001 153.5 -57.001c93.333 0 162.666 31.5 207.999 94.5s68 131.5 68 205.5c0 71.333 -18.333 134 -55 188c-62 91.333 -166.667 137 -314 137c-8.66699 0 -17 -0.166992 -25 -0.5s-17.333 -1.16602 -28 -2.49902l-2 26
c106.667 38.667 190.667 83 252 133s92 116 92 198c0 72.667 -24.167 128 -72.5 166s-103.5 57 -165.5 57c-73.333 0 -138 -27 -194 -81c-30.667 -29.333 -63.667 -74.666 -99 -135.999l-31 7c26.667 101.333 76.334 182.333 149.001 243s156.667 91 252 91
c102 0 180.833 -28 236.5 -84s83.5 -120.667 83.5 -194c0 -64.667 -23 -124 -69 -178c-26 -30.667 -66.333 -65 -121 -103c64 -27.333 115.333 -59.333 154 -96c72.667 -70 109 -158.667 109 -266c0 -126.667 -49.833 -238.334 -149.5 -335.001s-241.5 -145 -425.5 -145
c-82 0 -139.5 12.167 -172.5 36.5s-49.5 50.5 -49.5 78.5c0 17.333 5.5 34 16.5 50s28.833 24 53.5 24c36.667 0 85.167 -19 145.5 -57z" />
    <glyph glyph-name="four" unicode="4" horiz-adv-x="1024" 
d="M597 1168l-491 -694h491v694zM663 1374h95v-900h209v-133h-209v-341h-159v341h-576v133z" />
    <glyph glyph-name="five" unicode="5" horiz-adv-x="1024" 
d="M302.5 118.5c61.667 -43 109.167 -64.5 142.5 -64.5c76.667 0 143.667 33.833 201 101.5s86 150.834 86 249.501c0 172.667 -92 297 -276 373c-102 42 -197 63 -285 63c-14.667 0 -23.834 0.5 -27.501 1.5s-8.16699 4.5 -13.5 10.5l3.5 13.5
c1 3.66699 2.16699 7.16699 3.5 10.5l218 478h429c21.333 0 37.833 3.66699 49.5 11s26.834 21 45.501 41l16 -14l-78 -185c-2.66699 -6 -10 -9.83301 -22 -11.5s-25 -2.5 -39 -2.5h-387l-85 -175c109.333 -18.667 189.333 -36.334 240 -53.001
c83.333 -28 153 -69.333 209 -124c48 -47.333 84.333 -100.5 109 -159.5s37 -121.5 37 -187.5c0 -147.333 -52.5 -270.333 -157.5 -369s-237.833 -148 -398.5 -148c-65.333 0 -118 6.33301 -158 19c-66.667 20.667 -100 57.667 -100 111c0 20 7.16699 37.5 21.5 52.5
s36.5 22.5 66.5 22.5c38 0 87.833 -21.5 149.5 -64.5z" />
    <glyph glyph-name="six" unicode="6" horiz-adv-x="1024" 
d="M840.5 125c-78.333 -98 -180.169 -147.002 -305.502 -147.002c-117.333 0 -224.166 55 -320.499 165s-144.5 256.333 -144.5 439c0 235.333 93.333 437.333 280 606c166.667 141.333 354 212 562 212l5 -33c-83.333 -15.333 -155.166 -36.166 -215.499 -62.499
s-114.166 -63.166 -161.499 -110.499c-48.667 -48 -94.334 -109 -137.001 -183s-72 -147.333 -88 -220c41.333 25.333 77 44 107 56c53.333 21.333 107 32 161 32c106 0 195 -36.667 267 -110s108 -178 108 -314c0 -122 -39.167 -232 -117.5 -330zM732.997 613.998
c-46.667 114.667 -126 171.998 -238 171.998c-103.333 0 -172 -30.667 -206 -92c-20 -36 -30 -96 -30 -180c0 -108.667 23.167 -215 69.5 -319s119.5 -156 219.5 -156c79.333 0 137 33.833 173 101.5s54 146.834 54 237.501c0 88.667 -14 167.334 -42 236.001z" />
    <glyph glyph-name="seven" unicode="7" horiz-adv-x="1024" 
d="M919 1355l-0.000976562 -33l-434 -1341h-132l405 1223h-436c-64.667 0 -111.167 -10.667 -139.5 -32s-64.166 -66 -107.499 -134l-35 16l80.5 197.5c10.333 25 23.833 59.5 40.5 103.5h758z" />
    <glyph glyph-name="eight" unicode="8" horiz-adv-x="1024" 
d="M689 98c39.333 42.667 59 95.999 59 159.999c0 72.667 -20.833 131.5 -62.5 176.5s-127.167 113.167 -256.5 204.5c-57.333 -36 -99 -82.667 -125 -140s-39 -112.666 -39 -165.999c0 -91.333 23.5 -164 70.5 -218s106.833 -81 179.5 -81c76.667 0 134.667 21.333 174 64z
M658 908.999c41.333 51.333 62 113.335 62 186.002c0 63.333 -19.5 117.166 -58.5 161.499s-98.167 66.5 -177.5 66.5c-61.333 0 -112 -19.333 -152 -58s-60 -85.667 -60 -141c0 -62.667 23.5 -120.834 70.5 -174.501s108.833 -104.167 185.5 -151.5
c62.667 44 106 81 130 111zM194 851.001c-49.333 64 -73.999 134.666 -73.999 211.999c0 88 36.5 162.667 109.5 224s167.833 92 284.5 92c107.333 0 192.666 -29 255.999 -87s95 -125.333 95 -202c0 -78 -32.333 -148 -97 -210c-37.333 -35.333 -97.666 -76 -180.999 -122
c113.333 -84 194.5 -157.167 243.5 -219.5s73.5 -135.833 73.5 -220.5c0 -96 -36.167 -176.667 -108.5 -242s-169.166 -98 -290.499 -98c-108.667 0 -201.834 30.167 -279.501 90.5s-116.5 139.833 -116.5 238.5c0 84.667 27 159.334 81 224.001
c35.333 42 96.666 92.333 183.999 151c-88 70.667 -148 127 -180 169z" />
    <glyph glyph-name="nine" unicode="9" horiz-adv-x="1024" 
d="M651.5 611c48.333 25.333 75.832 46.666 82.499 63.999c2.66699 6.66699 5 31.5 7 74.5s3 77.833 3 104.5c0 138.667 -23.333 251.334 -70 338.001s-115 130 -205 130c-65.333 0 -118.166 -29.667 -158.499 -89s-60.5 -148 -60.5 -266
c0 -97.333 18.833 -187.333 56.5 -270s105.834 -124 204.501 -124c45.333 0 92.166 12.667 140.499 38zM822.999 1203.5c80 -117 120.001 -247.499 120.001 -391.499c0 -101.333 -19 -204.333 -57 -309s-93.333 -198 -166 -280c-84.667 -94.667 -192 -165 -322 -211
c-72.667 -26 -164.334 -46 -275.001 -60l-10 40c69.333 16 127 33 173 51c82.667 32.667 149 72.667 199 120c70.667 67.333 127.167 142.5 169.5 225.5s68.833 152.5 79.5 208.5l-35 -26c-49.333 -37.333 -107.333 -63 -174 -77c-34.667 -8 -66.334 -12 -95.001 -12
c-113.333 0 -203.166 40.167 -269.499 120.5s-99.5 176.166 -99.5 287.499c0 142 39.5 259 118.5 351s180.167 138 303.5 138c146.667 0 260 -58.5 340 -175.5z" />
    <glyph glyph-name="colon" unicode=":" horiz-adv-x="569" 
d="M353.5 749.5c-23 -21 -49.167 -31.501 -78.5 -31.501c-32 0 -58.333 11.333 -79 34s-31 48.667 -31 78c0 30.667 10.667 56.834 32 78.501s47.333 32.5 78 32.5c29.333 0 55.5 -10.5 78.5 -31.5s34.5 -47.167 34.5 -78.5c0 -33.333 -11.5 -60.5 -34.5 -81.5z
M197.5 15.999c-21.667 22 -32.498 48.667 -32.498 80c0 30 10.667 56.167 32 78.5s47.666 33.5 78.999 33.5s58.666 -10.833 81.999 -32.5s35 -47.834 35 -78.501c0 -29.333 -11 -55.666 -33 -78.999s-51.333 -35 -88 -35c-28 0 -52.833 11 -74.5 33z" />
    <glyph glyph-name="semicolon" unicode=";" horiz-adv-x="569" 
d="M385 -165.5c-48 -58.333 -100.667 -100.5 -158 -126.5l-19 40c64 36 108.167 75 132.5 117s36.5 77 36.5 105c0 9.33301 -3 15.333 -9 18s-12.333 4 -19 4l-67 -7c-28 0 -53.667 9.16699 -77 27.5s-35 44.833 -35 79.5c0 26.667 9.66699 52.667 29 78s51 38 95 38
c42 0 79.667 -16.5 113 -49.5s50 -78.833 50 -137.5c0 -66 -24 -128.167 -72 -186.5zM205.5 746.5c-21.667 22.333 -32.499 49.166 -32.499 80.499s11 58.166 33 80.499s48.667 33.5 80 33.5s58.166 -11.167 80.499 -33.5s33.5 -49.166 33.5 -80.499
s-11 -58.166 -33 -80.499s-49 -33.5 -81 -33.5s-58.833 11.167 -80.5 33.5z" />
    <glyph glyph-name="less" unicode="&#x3c;" horiz-adv-x="1155" 
d="M1095 135v-152l-1034 507v55l1034 507v-152l-766 -381z" />
    <glyph glyph-name="equal" unicode="=" horiz-adv-x="1155" 
d="M1095 381v-140h-1034v140h1034zM1095 794v-140h-1034v140h1034z" />
    <glyph glyph-name="greater" unicode="&#x3e;" horiz-adv-x="1155" 
d="M18 900v152l1115 -507v-55l-1115 -507v152l847 384z" />
    <glyph glyph-name="question" unicode="?" horiz-adv-x="909" 
d="M561 13c-22 -21.333 -48.001 -32 -78.001 -32c-31.333 0 -57.666 10.5 -78.999 31.5s-32 46.833 -32 77.5s11 56.5 33 77.5s47.333 31.5 76 31.5c30.667 0 57.167 -10.667 79.5 -32s33.5 -47 33.5 -77s-11 -55.667 -33 -77zM747.499 1297
c67.667 -57.333 101.499 -136.999 101.499 -238.999c0 -86.667 -51 -194.334 -153 -323.001c-111.333 -140 -176.666 -273 -195.999 -399h-36c0 24.667 3.66699 59.5 11 104.5s16.333 84.5 27 118.5s37.667 100.333 81 199c22 50 40.5 100.167 55.5 150.5
s22.5 96.5 22.5 138.5c0 71.333 -18.333 135 -55 191s-94.334 84 -173.001 84c-54 0 -99.5 -14.5 -136.5 -43.5s-55.5 -56.5 -55.5 -82.5c0 -14.667 13.667 -37.5 41 -68.5s41 -59.833 41 -86.5c0 -22 -8.16699 -41.333 -24.5 -58s-36.166 -25 -59.499 -25
c-26.667 0 -50.667 11.5 -72 34.5s-32 56.833 -32 101.5c0 68.667 29.667 134 89 196s148.333 93 267 93c103.333 0 188.833 -28.667 256.5 -86z" />
    <glyph glyph-name="at" unicode="@" horiz-adv-x="1886" 
d="M782.5 398c22.333 -25.333 52.168 -38 89.501 -38c79.333 0 143.166 64.167 191.499 192.5s72.5 222.166 72.5 281.499c0 34.667 -9.66699 62 -29 82s-46.333 30 -81 30c-67.333 0 -130.333 -51.333 -189 -154s-88 -199.667 -88 -291
c0 -43.333 11.167 -77.666 33.5 -102.999zM410.002 161c-150.667 128.667 -225.997 284.999 -225.997 468.999c0 208.667 82.667 386.667 248 534c164 146.667 362.333 220 595 220c180.667 0 334 -50.333 460 -151c132 -106.667 198 -243 198 -409
c0 -133.333 -42.333 -256 -127 -368s-181 -168 -289 -168c-71.333 0 -124 22 -158 66c-22.667 29.333 -34.334 61.333 -35.001 96c-15.333 -40.667 -45.333 -78 -90 -112s-92.334 -51 -143.001 -51c-75.333 0 -138.833 25.667 -190.5 77s-77.5 120 -77.5 206
c0 112.667 43.833 216.167 131.5 310.5s183.5 141.5 287.5 141.5c47.333 0 87.666 -12.167 120.999 -36.5s55 -54.166 65 -89.499l33 101h164l-55 -170c-22.667 -70 -42.667 -135 -60 -195c-28 -97.333 -42 -158.333 -42 -183c0 -13.333 4.66699 -28.333 14 -45
c16 -28 40.667 -42 74 -42c64.667 0 131.334 44.5 200.001 133.5s103 197.5 103 325.5c0 156.667 -59.833 276.667 -179.5 360s-251.167 125 -394.5 125c-179.333 0 -340.333 -61.667 -483 -185c-154.667 -133.333 -232 -296.333 -232 -489c0 -179.333 64.667 -324 194 -434
c122.667 -104 276.667 -156 462 -156c63.333 0 132.666 9.33301 207.999 28c115.333 28 214.333 73.333 297 136l38 -57c-100 -64 -194.333 -109.667 -283 -137s-185 -41 -289 -41c-210 0 -389.667 63.333 -539 190z" />
    <glyph glyph-name="A" unicode="A" 
d="M914 526l-237 564l-234 -564h471zM30 0l-0.000976562 36.999c52.667 6 92.167 26 118.5 60s71.5 126.333 135.5 277l427 1005h40l510 -1161c34 -77.333 61.167 -125.166 81.5 -143.499s54.5 -30.833 102.5 -37.5v-37h-521v37c60 5.33301 98.667 11.833 116 19.5
s26 26.5 26 56.5c0 10 -3.33301 27.667 -10 53s-16 52 -28 80l-85 197h-536c-53.333 -134 -85.166 -215.833 -95.499 -245.5s-15.5 -53.167 -15.5 -70.5c0 -34.667 14 -58.667 42 -72c17.333 -8 50 -14 98 -18v-37h-406zM730.999 1379z" />
    <glyph glyph-name="B" unicode="B" horiz-adv-x="1366" 
d="M872 135c70.667 40.667 105.998 118.666 105.998 233.999c0 114.667 -41.333 193 -124 235s-188 63 -316 63h-59.5c-8.33301 0 -21.166 0.333008 -38.499 1v-510c0 -35.333 10 -58.166 30 -68.499s66.333 -15.5 139 -15.5c104.667 0 192.334 20.333 263.001 61z
M34.998 36.999c82.667 4.66699 136.167 17.502 160.5 38.502s36.5 69.833 36.5 146.5v911c0 75.333 -12.167 123.833 -36.5 145.5s-77.833 34.5 -160.5 38.5v38h574c164 0 294.167 -26.333 390.5 -79s144.5 -143.334 144.5 -272.001c0 -96.667 -33.667 -170 -101 -220
c-38 -28.667 -95 -52.334 -171 -71.001c94 -22.667 174.333 -60.5 241 -113.5s100 -127.167 100 -222.5c0 -160 -74 -270 -222 -330c-78 -31.333 -174 -47 -288 -47h-668v37zM805.998 782.001c86.667 40 130 111.667 130 215c0 122 -50 204.333 -150 247
c-55.333 23.333 -139.333 35 -252 35c-42.667 0 -69 -3.66699 -79 -11s-15 -27.333 -15 -60v-462l195 3c68.667 1.33301 125.667 12.333 171 33z" />
    <glyph glyph-name="C" unicode="C" horiz-adv-x="1366" 
d="M986 1346c78 -22 121.666 -33.001 130.999 -33.001c19.333 0 37.666 5.33301 54.999 16s29.333 27.334 36 50.001h43l19 -460h-47c-27.333 91.333 -63 165 -107 221c-84 105.333 -197 158 -339 158c-143.333 0 -260.5 -56.667 -351.5 -170s-136.5 -269.333 -136.5 -468
c0 -182.667 47.833 -328.5 143.5 -437.5s216.834 -163.5 363.501 -163.5c106 0 203.667 25.333 293 76c51.333 28.667 107.666 72 168.999 130l38 -38c-45.333 -57.333 -101.666 -107.666 -168.999 -150.999c-114.667 -73.333 -239 -110 -373 -110
c-220 0 -394.667 70.333 -524 211c-119.333 130 -179 292.333 -179 487c0 199.333 63 366.666 189 501.999c132.667 142 305.334 213 518.001 213c74 0 150 -11 228 -33zM750.999 1379z" />
    <glyph glyph-name="D" unicode="D" 
d="M445.5 92c16.333 -10.667 50.167 -15.999 101.5 -15.999c160 0 291.667 31.667 395 95c158.667 97.333 238 263.666 238 498.999c0 210 -65.333 368 -196 474c-112 90.667 -260.333 136 -445 136c-46 0 -77.167 -5 -93.5 -15s-24.5 -32 -24.5 -66v-1041
c0 -33.333 8.16699 -55.333 24.5 -66zM33.001 37.001c74.667 8 123.333 21.501 146 40.501s34 67.167 34 144.5v911c0 74.667 -11 122.667 -33 144s-71 34.666 -147 39.999v38h552c186 0 343.333 -30.667 472 -92c232 -110 348 -306.667 348 -590
c0 -102 -20.833 -199 -62.5 -291s-104.5 -169.667 -188.5 -233c-53.333 -40 -108.666 -70.333 -165.999 -91c-104.667 -38.667 -233.334 -58 -386.001 -58h-569v37z" />
    <glyph glyph-name="E" unicode="E" horiz-adv-x="1251" 
d="M23 37c75.333 8 124.167 21.501 146.5 40.501s33.5 67.167 33.5 144.5v911c0 72.667 -11 120.167 -33 142.5s-71 36.166 -147 41.499v38h1088l7 -294h-52c-17.333 90.667 -43.333 149.334 -78 176.001s-112 40 -232 40h-278c-30 0 -48.5 -4.83301 -55.5 -14.5
s-10.5 -27.834 -10.5 -54.501v-457h315c87.333 0 143 13 167 39s43.333 78.667 58 158h48v-474h-48c-15.333 79.333 -35 131.833 -59 157.5s-79.333 38.5 -166 38.5h-315v-507c0 -40.667 12.833 -64.667 38.5 -72s102.5 -11 230.5 -11c138.667 0 241 15.167 307 45.5
s125.333 103.833 178 220.5h57l-93 -346h-1107v37zM627.001 1355z" />
    <glyph glyph-name="F" unicode="F" horiz-adv-x="1139" 
d="M23 37c80.667 8.66699 130.833 23.5 150.5 44.5s29.5 75.833 29.5 164.5v887c0 72.667 -11 120.167 -33 142.5s-71 36.166 -147 41.499v38h1091l7 -294h-57c-14 94 -40.333 153.5 -79 178.5s-115 37.5 -229 37.5h-280c-27.333 0 -44.833 -4.66699 -52.5 -14
s-11.5 -27.666 -11.5 -54.999v-457h296c87.333 0 143 13 167 39s43.333 78.667 58 158h48v-474h-48c-15.333 79.333 -35 131.833 -59 157.5s-79.333 38.5 -166 38.5h-296v-448c0 -75.333 11.5 -123.5 34.5 -144.5s73.167 -34.5 150.5 -40.5v-37h-574v37z" />
    <glyph glyph-name="G" unicode="G" 
d="M992 1346c76.667 -22 120.669 -33.001 132.002 -33.001c29.333 0 50.166 5.66699 62.499 17s22.833 27.666 31.5 48.999h45l16 -431h-47c-42 99.333 -85.333 173.333 -130 222c-80.667 85.333 -185.667 128 -315 128c-131.333 0 -246.833 -49.833 -346.5 -149.5
s-149.5 -263.834 -149.5 -492.501c0 -188.667 49.667 -336 149 -442s222 -159 368 -159c24.667 0 53.667 2.33301 87 7s65 12 95 22c48.667 16 79 29.833 91 41.5s18 28.834 18 51.501v327c0 78.667 -11.167 127.667 -33.5 147s-71.166 31.333 -146.499 36v38h522v-38
c-50.667 -3.33301 -84.334 -11.666 -101.001 -24.999c-28 -21.333 -42 -65.333 -42 -132v-403c0 -24 -58.833 -56 -176.5 -96s-230.834 -60 -339.501 -60c-200 0 -368.667 58.333 -506 175c-151.333 128.667 -227 301.334 -227 518.001c0 190.667 60.333 354 181 490
c132.667 150 308.667 225 528 225c79.333 0 157.333 -11 234 -33zM725.002 1379z" />
    <glyph glyph-name="H" unicode="H" 
d="M33 37c80 8.66699 129.998 23.5 149.998 44.5s30 75.833 30 164.5v887c0 73.333 -11.167 121 -33.5 143s-71.166 35.667 -146.499 41v38h569v-38c-75.333 -5.33301 -124.333 -19 -147 -41s-34 -69.667 -34 -143v-399h621v399c0 73.333 -11 121 -33 143
s-71 35.667 -147 41v38h569v-38c-75.333 -5.33301 -124.166 -19 -146.499 -41s-33.5 -69.667 -33.5 -143v-911c0 -74.667 11.167 -122.5 33.5 -143.5s71.166 -34.833 146.499 -41.5v-37h-569v37c80.667 8 130.834 22.667 150.501 44s29.5 76.333 29.5 165v398h-621v-422
c0 -74.667 11.333 -122.667 34 -144s71.667 -35 147 -41v-37h-569v37z" />
    <glyph glyph-name="I" unicode="I" horiz-adv-x="682" 
d="M33 37c83.333 6 137.333 18.5 162 37.5s37 68.167 37 147.5v911c0 75.333 -12.333 123.833 -37 145.5s-78.667 34.5 -162 38.5v38h606v-38c-83.333 -4 -137.333 -16.833 -162 -38.5s-37 -70.167 -37 -145.5v-911c0 -79.333 12.333 -128.5 37 -147.5
s78.667 -31.5 162 -37.5v-37h-606v37zM336 1355z" />
    <glyph glyph-name="J" unicode="J" horiz-adv-x="797" 
d="M51.5 196.5c20.333 15.667 42.167 23.501 65.5 23.501c46 0 80 -28.5 102 -85.5s45.333 -85.5 70 -85.5c26.667 0 45.167 11.667 55.5 35s15.5 64 15.5 122v927c0 76 -12.333 124.667 -37 146s-75.667 34 -153 38v38h588v-38
c-79.333 -4.66699 -130.833 -18.834 -154.5 -42.501s-35.5 -70.834 -35.5 -141.501v-752c0 -137.333 -33 -239 -99 -305c-66 -66.667 -147.667 -100 -245 -100c-64 0 -113.833 14.667 -149.5 44s-53.5 62 -53.5 98c0 36.667 10.167 62.834 30.5 78.501z" />
    <glyph glyph-name="K" unicode="K" 
d="M37 37c83.333 6.66699 135.001 21.5 155.001 44.5s30 77.833 30 164.5v887c0 74 -11.167 121.833 -33.5 143.5s-72.833 35.167 -151.5 40.5v38h584v-38c-80 -4 -131.667 -17.333 -155 -40s-35 -70.667 -35 -144v-420c126 107.333 229 198.666 309 273.999
c143.333 136.667 215 224.334 215 263.001c0 27.333 -12.167 45.333 -36.5 54s-58.833 13 -103.5 13v38h536v-33c-65.333 -6.66699 -116.833 -19.667 -154.5 -39s-89.834 -61.666 -156.501 -126.999l-389 -381l477 -515c88.667 -95.333 149 -154.833 181 -178.5
s79 -39.167 141 -46.5v-35h-626v37c56.667 2 95 6.5 115 13.5s30 20.833 30 41.5c0 11.333 -6.5 28.666 -19.5 51.999s-33.5 50.333 -61.5 81l-388 426l-69 -59v-370c0 -76 11.5 -124.167 34.5 -144.5s73.167 -33.833 150.5 -40.5v-37h-579v37z" />
    <glyph glyph-name="L" unicode="L" horiz-adv-x="1251" 
d="M23 37c75.333 8 124.167 21.501 146.5 40.501s33.5 67.167 33.5 144.5v911c0 72.667 -11 120.167 -33 142.5s-71 36.166 -147 41.499v38h579v-38c-75.333 -4 -125.833 -16.333 -151.5 -37s-38.5 -65 -38.5 -133v-984c0 -22.667 3.83301 -40.5 11.5 -53.5
s24.5 -21.167 50.5 -24.5c15.333 -2 31.5 -3.33301 48.5 -4s48.833 -1 95.5 -1c182 0 305 15 369 45s126 106.667 186 230h52l-100 -355h-1102v37z" />
    <glyph glyph-name="M" unicode="M" horiz-adv-x="1821" 
d="M23 37c84.667 8.66699 139 27.832 163 57.499s36 98.5 36 206.5v832c0 74 -11.667 122.167 -35 144.5s-76.333 35.5 -159 39.5v38h405l474 -1033l453 1033h408v-38c-76 -5.33301 -125 -19.166 -147 -41.499s-33 -69.833 -33 -142.5v-911c0 -74.667 11 -122.5 33 -143.5
s71 -34.833 147 -41.5v-37h-574v37c82.667 6.66699 134.167 21.5 154.5 44.5s30.5 77.833 30.5 164.5v920l-524 -1166h-28l-515 1118v-817c0 -112 16.333 -185 49 -219c21.333 -22 69 -37 143 -45v-37h-481v37z" />
    <glyph glyph-name="N" unicode="N" 
d="M23 37c84.667 8.66699 139 27.835 163 57.502s36 98.5 36 206.5v903l-28 33c-30 35.333 -55.5 57.166 -76.5 65.499s-52.5 13.166 -94.5 14.499v38h351l789 -986v685c0 112.667 -16.667 186 -50 220c-22 22 -70.667 36.333 -146 43v38h481v-38c-78 -8 -130 -27 -156 -57
s-39 -98.667 -39 -206v-1078h-35l-906 1123v-798c0 -112 16.333 -185 49 -219c21.333 -22 69 -37 143 -45v-37h-481v37zM741 1355z" />
    <glyph glyph-name="O" unicode="O" 
d="M420 199.5c84.667 -103 188.667 -154.499 312 -154.499c120.667 0 223.834 50.167 309.501 150.5s128.5 260.833 128.5 481.5c0 223.333 -43.333 384.666 -130 483.999s-189.334 149 -308.001 149c-122.667 0 -226.5 -51.5 -311.5 -154.5s-127.5 -262.5 -127.5 -478.5
c0 -215.333 42.333 -374.5 127 -477.5zM267 1203c126 120.667 281 181 465 181c184.667 0 340 -60.667 466 -182c136.667 -131.333 205 -306.333 205 -525c0 -222 -70.667 -398.667 -212 -530c-126.667 -117.333 -279.667 -176 -459 -176c-192 0 -351.333 65 -478 195
c-128.667 132.667 -193 303 -193 511c0 218.667 68.667 394 206 526zM732 1384z" />
    <glyph glyph-name="P" unicode="P" horiz-adv-x="1139" 
d="M724 1241c-58 25.333 -131.333 38 -220 38c-42 0 -67.833 -4.16699 -77.5 -12.5s-14.5 -26.833 -14.5 -55.5v-534c36.667 -3.33301 60.667 -5.33301 72 -6s22.333 -1 33 -1c94 0 168 13.333 222 40c98 48.667 147 139.667 147 273c0 125.333 -54 211.333 -162 258zM33 37
c78 7.33301 126.667 22.832 146 46.499s29 77.834 29 162.501v887c0 71.333 -10.833 118.333 -32.5 141s-69.167 37 -142.5 43v38h540c173.333 0 306 -33.667 398 -101s138 -156 138 -266c0 -139.333 -51 -240.333 -153 -303s-229.667 -94 -383 -94
c-22 0 -50.167 0.5 -84.5 1.5s-59.833 1.5 -76.5 1.5v-372c0 -77.333 11.833 -126 35.5 -146s76.5 -33 158.5 -39v-37h-573v37z" />
    <glyph glyph-name="Q" unicode="Q" 
d="M420 199.5c84.667 -103 188.667 -154.499 312 -154.499c120.667 0 223.834 50.167 309.501 150.5s128.5 260.833 128.5 481.5c0 223.333 -43.333 384.666 -130 483.999s-189.334 149 -308.001 149c-122.667 0 -226.5 -51.5 -311.5 -154.5s-127.5 -262.5 -127.5 -478.5
c0 -215.333 42.333 -374.5 127 -477.5zM267 1203c126 120.667 281.002 181.001 465.002 181.001c181.333 0 335.333 -59.667 462 -179c139.333 -131.333 209 -307.333 209 -528c0 -174.667 -44.333 -322.334 -133 -443.001c-96 -130 -232 -212 -408 -246
c82.667 -119.333 182.667 -204 300 -254c66 -28 155 -48.667 267 -62v-37h-84c-110.667 0 -208.834 9 -294.501 27s-163.5 45.333 -233.5 82c-70 36 -134.833 86 -194.5 150s-92.834 97.667 -99.501 101l-26 12c-113.333 52.667 -201 112.667 -263 180
c-115.333 124.667 -173 288 -173 490c0 218.667 68.667 394 206 526z" />
    <glyph glyph-name="R" unicode="R" horiz-adv-x="1366" 
d="M723 747c108.667 44.667 163.001 128.668 163.001 252.001c0 118.667 -48.667 199.667 -146 243c-52 23.333 -121 35 -207 35c-58 0 -93.5 -4.16699 -106.5 -12.5s-19.5 -27.833 -19.5 -58.5v-505c147.333 5.33301 252.666 20.666 315.999 45.999zM23.001 37.001
c78.667 7.33301 127.667 22.668 147 46.001s29 77.666 29 162.999v887c0 72 -10.833 119.167 -32.5 141.5s-69.5 36.5 -143.5 42.5v38h567c118 0 216.333 -15 295 -45c149.333 -56.667 224 -161 224 -313c0 -102 -33.167 -180.333 -99.5 -235s-156.5 -90.667 -270.5 -108
l422 -519c26 -32 52 -55.333 78 -70s59.333 -24 100 -28v-37h-330l-488 630l-114 -5v-403c0 -76 11.5 -124.167 34.5 -144.5s73.167 -33.833 150.5 -40.5v-37h-569v37z" />
    <glyph glyph-name="S" unicode="S" horiz-adv-x="1139" 
d="M132 412c34.667 -92 75.332 -165.332 121.999 -219.999c81.333 -95.333 182.333 -143 303 -143c65.333 0 121.833 20.667 169.5 62s71.5 99 71.5 173c0 66.667 -24 124.667 -72 174c-31.333 31.333 -97.333 78.333 -198 141l-175 109c-52.667 33.333 -94.667 67 -126 101
c-58 64.667 -87 136 -87 214c0 103.333 34.333 189.333 103 258s159.667 103 273 103c46.667 0 102.834 -11.5 168.501 -34.5s103.167 -34.5 112.5 -34.5c25.333 0 42.833 6 52.5 18s17.167 29 22.5 51h42l45 -436h-49c-33.333 131.333 -86.833 223 -160.5 275
s-146.5 78 -218.5 78c-56 0 -104.833 -16.5 -146.5 -49.5s-62.5 -78.833 -62.5 -137.5c0 -52.667 16 -97.667 48 -135c32 -38 81.667 -77.667 149 -119l180 -111c112.667 -69.333 192 -133 238 -191c45.333 -58.667 68 -128 68 -208c0 -107.333 -40.5 -197 -121.5 -269
s-184.5 -108 -310.5 -108c-63.333 0 -129.5 12 -198.5 36s-108.5 36 -118.5 36c-24 0 -40.167 -7.33301 -48.5 -22s-13.833 -30.334 -16.5 -47.001h-45l-61 436h47zM569.998 1384z" />
    <glyph glyph-name="T" unicode="T" horiz-adv-x="1251" 
d="M40 1355h1157l11 -348h-49c-24 109.333 -54.5 180.5 -91.5 213.5s-114.833 49.5 -233.5 49.5h-114v-1048c0 -79.333 12.333 -128.5 37 -147.5s78.667 -31.5 162 -37.5v-37h-597v37c86.667 6.66699 140.667 21 162 43s32 77.333 32 166v1024h-114
c-113.333 0 -190.5 -16.333 -231.5 -49s-71.833 -104 -92.5 -214h-50z" />
    <glyph glyph-name="U" unicode="U" 
d="M609 1355v-37.999c-78.667 -5.33301 -129.667 -18.5 -153 -39.5s-35 -69.167 -35 -144.5v-655c0 -107.333 14.667 -191 44 -251c54.667 -109.333 158.334 -164 311.001 -164c167.333 0 279.666 56 336.999 168c32 62.667 48 159.334 48 290.001v533
c0 111.333 -13.333 181.166 -40 209.499s-77.334 46.166 -152.001 53.499v38h474v-38c-79.333 -8.66699 -131.166 -27.834 -155.499 -57.501s-36.5 -98.167 -36.5 -205.5v-533c0 -141.333 -21.667 -251.666 -65 -330.999c-80 -146 -232 -219 -456 -219
c-221.333 0 -372 72 -452 216c-43.333 77.333 -65 179.333 -65 306v640c0 74.667 -11.5 122.5 -34.5 143.5s-73.167 34.5 -150.5 40.5v38h581zM741 1355z" />
    <glyph glyph-name="V" unicode="V" 
d="M578 1355v-37.9971c-51.333 -0.666992 -86.333 -4 -105 -10c-32.667 -10.667 -49 -32.334 -49 -65.001c0 -16.667 5.83301 -40 17.5 -70s33.5 -80.333 65.5 -151l320 -713l291 772c12.667 34 22.334 62.667 29.001 86s10 42.333 10 57c0 39.333 -17 66 -51 80
c-20 8 -53 12.667 -99 14v38h419v-35c-43.333 -6 -75.333 -17.667 -96 -35c-31.333 -26 -62.333 -78.333 -93 -157l-453 -1152h-31l-505 1126c-42.667 95.333 -76.834 154.666 -102.501 177.999s-63.167 36.666 -112.5 39.999v35h545z" />
    <glyph glyph-name="W" unicode="W" horiz-adv-x="1933" 
d="M511 1355l-0.00292969 -38.001c-40.667 -1.33301 -69.667 -5 -87 -11c-30.667 -11.333 -46 -32 -46 -62c0 -13.333 1.83301 -26.333 5.5 -39s9.16699 -29 16.5 -49l296 -770l218 578l-97 247c-18 45.333 -45 75.666 -81 90.999
c-21.333 9.33301 -53.666 14.333 -96.999 15v38h548v-38c-51.333 -0.666992 -86.666 -4.33398 -105.999 -11.001c-30.667 -11.333 -46 -34.666 -46 -69.999c0 -12 1.33301 -22.5 4 -31.5s9.33398 -27.5 20.001 -55.5l296 -768l256 695c14.667 39.333 24.667 74.333 30 105
c3.33301 17.333 5 31.333 5 42c0 38 -18 64.333 -54 79c-20 8.66699 -50 13.667 -90 15v38h406v-38c-36.667 -5.33301 -64.667 -13.666 -84 -24.999c-34.667 -19.333 -60.667 -52.666 -78 -99.999l-218 -609l-85 -235l-123 -372h-31l-83 237l-244 630l-315 -867h-31
l-147 426l-176 479c-72.667 197.333 -123.167 318.5 -151.5 363.5s-72.5 69.167 -132.5 72.5v38h502z" />
    <glyph glyph-name="X" unicode="X" 
d="M21 37c55.333 6 97.332 20.665 125.999 43.998s85.334 87 170.001 191l320 394l-227 329c-98 142 -166.833 230.5 -206.5 265.5s-92.5 53.833 -158.5 56.5v38h618v-38c-59.333 -2 -98 -6 -116 -12c-27.333 -8.66699 -41 -27.667 -41 -57c0 -18.667 6.66699 -41 20 -67
c6.66699 -13.333 16 -28.666 28 -45.999l213 -308l233 282c34 40.667 57 73.334 69 98.001c7.33301 14.667 11 28 11 40c0 30 -14.667 50 -44 60c-18 6 -50.667 9.33301 -98 10v38h486v-38c-54.667 -1.33301 -97 -10 -127 -26c-47.333 -26 -106 -82 -176 -168l-301 -370
l393 -564c42 -60.667 77 -99.167 105 -115.5s69 -28.5 123 -36.5v-37h-607v40c58 1.33301 98.5 6.33301 121.5 15s34.5 25.334 34.5 50.001c0 21.333 -15.333 56.666 -46 105.999s-115.667 176.333 -255 381l-242 -306c-35.333 -44.667 -60 -77.334 -74 -98.001
c-22 -32.667 -33 -57 -33 -73c0 -29.333 17.333 -50 52 -62c20.667 -7.33301 55.667 -12.666 105 -15.999v-37h-476v37z" />
    <glyph glyph-name="Y" unicode="Y" 
d="M618 1355l-0.000976562 -37.9932c-48 1.33301 -84 -2.33398 -108 -11.001s-36 -27.334 -36 -56.001c0 -8.66699 2 -19.5 6 -32.5s13 -30.167 27 -51.5l303 -455l294 462c12 19.333 19.833 35.333 23.5 48s5.5 22 5.5 28c0 29.333 -15.667 48.666 -47 57.999
c-18.667 6 -50.667 9.33301 -96 10v38h448v-38c-41.333 -2 -78.333 -14.333 -111 -37c-50.667 -35.333 -107.667 -101 -171 -197l-303 -462v-399c0 -79.333 12.833 -128.833 38.5 -148.5s83.167 -31.834 172.5 -36.501v-37h-626v37
c92.667 5.33301 150.167 19.166 172.5 41.499s33.5 78.166 33.5 167.499v356l-268 393c-92.667 135.333 -157.667 222.166 -195 260.499s-82.666 58.833 -135.999 61.5v38h573zM740.999 1355.01z" />
    <glyph glyph-name="Z" unicode="Z" horiz-adv-x="1251" 
d="M14 23l898 1254h-472c-118.667 0 -203 -29.667 -253 -89c-30 -35.333 -53.667 -96.333 -71 -183h-53l41 350h1081v-23l-889 -1254h526c119.333 0 206.333 28.333 261 85c34 36 64.667 101.667 92 197h48l-50 -360h-1159v23zM627 1355z" />
    <glyph glyph-name="bracketleft" unicode="[" horiz-adv-x="682" 
d="M180 1355h431v-49h-182c-40 0 -67 -12.667 -81 -38c-8 -13.333 -12 -31.666 -12 -54.999v-1377c0 -30.667 4.33301 -53.334 13 -68.001c14.667 -26 43.667 -39 87 -39h175v-52h-431v1678z" />
    <glyph glyph-name="backslash" unicode="\" horiz-adv-x="569" 
d="M73 1384l559 -1384h-135l-561 1384h137z" />
    <glyph glyph-name="bracketright" unicode="]" horiz-adv-x="682" 
d="M500 -323l-432 0.000976562v50h183c39.333 0 66.333 12.333 81 37c7.33301 13.333 11 31.666 11 54.999v1378c0 32.667 -6.5 58.5 -19.5 77.5s-39.5 28.5 -79.5 28.5h-176v52h432v-1678z" />
    <glyph glyph-name="asciicircum" unicode="^" horiz-adv-x="961" 
d="M507 1384l386 -865h-137l-275 647l-278 -647h-137l386 865h55z" />
    <glyph glyph-name="underscore" unicode="_" horiz-adv-x="1024" 
d="M0 -256v101h1023v-101h-1023z" />
    <glyph glyph-name="grave" unicode="`" horiz-adv-x="682" 
d="M440 1038l-83 0.00195312l-315 199c-22 14 -37.833 27.667 -47.5 41s-14.5 28.666 -14.5 45.999c0 19.333 7 35.166 21 47.499s30 18.5 48 18.5c17.333 0 33.333 -4.83301 48 -14.5s28.667 -21.167 42 -34.5zM278 938.002z" />
    <glyph glyph-name="a" unicode="a" horiz-adv-x="909" 
d="M587 554c-76.667 -25.333 -140 -53.333 -190 -84c-96 -59.333 -144 -126.666 -144 -201.999c0 -60.667 20 -105.334 60 -134.001c26 -18.667 55 -28 87 -28c44 0 86.167 12.333 126.5 37s60.5 56 60.5 94v317zM220 441c61.333 40 183.667 94.333 367 163v85
c0 68 -6.66699 115.333 -20 142c-22.667 44.667 -69.667 67 -141 67c-34 0 -66.333 -8.66699 -97 -26c-30.667 -18 -46 -42.667 -46 -74c0 -8 1.66699 -21.5 5 -40.5s5 -31.167 5 -36.5c0 -37.333 -12.333 -63.333 -37 -78c-14 -8.66699 -30.667 -13 -50 -13
c-30 0 -53 9.83301 -69 29.5s-24 41.5 -24 65.5c0 46.667 28.833 95.5 86.5 146.5s142.167 76.5 253.5 76.5c129.333 0 217 -42 263 -126c24.667 -46 37 -113 37 -201v-401c0 -38.667 2.66699 -65.334 8 -80.001c8.66699 -26 26.667 -39 54 -39c15.333 0 28 2.33301 38 7
s27.333 16 52 34v-52c-21.333 -26 -44.333 -47.333 -69 -64c-37.333 -25.333 -75.333 -38 -114 -38c-45.333 0 -78.166 14.667 -98.499 44s-31.5 64.333 -33.5 105c-50.667 -44 -94 -76.667 -130 -98c-60.667 -36 -118.334 -54 -173.001 -54
c-57.333 0 -107 20.167 -149 60.5s-63 91.5 -63 153.5c0 96.667 48.333 177.334 145 242.001zM456.001 948z" />
    <glyph glyph-name="b" unicode="b" horiz-adv-x="1024" 
d="M7 1272v34.002c76 17.333 144.333 36.666 205 57.999s93.334 32 98.001 32c1.33301 -4 2 -8 2 -12v-609c17.333 32 43.333 62.333 78 91c61.333 50 132 75 212 75c98 0 181.667 -41.333 251 -124s104 -190 104 -322c0 -141.333 -45 -262.333 -135 -363
s-208.333 -151 -355 -151c-74 0 -146.667 14.667 -218 44s-107 58.666 -107 87.999v1057c0 38.667 -5.33301 66.167 -16 82.5s-35.334 24.5 -74.001 24.5zM386 71.502c46 -15 86.332 -22.499 120.999 -22.499c93.333 0 162.5 35 207.5 105s67.5 154.667 67.5 254
s-21 191.166 -63 275.499s-110 126.5 -204 126.5c-47.333 0 -93.666 -14.5 -138.999 -43.5s-68 -65.833 -68 -110.5v-510c6 -34.667 32 -59.5 78 -74.5z" />
    <glyph glyph-name="c" unicode="c" horiz-adv-x="909" 
d="M724.5 878.5c60.333 -43 90.501 -90.167 90.501 -141.5c0 -22 -7.66699 -42.5 -23 -61.5s-39 -28.5 -71 -28.5c-23.333 0 -43.833 8 -61.5 24s-30.5 39.333 -38.5 70l-12 48c-8.66699 35.333 -23.667 60.333 -45 75c-22 14 -51 21 -87 21
c-76 0 -140.167 -33.167 -192.5 -99.5s-78.5 -154.5 -78.5 -264.5c0 -100.667 28.833 -191 86.5 -271s135.5 -120 233.5 -120c69.333 0 131 22.667 185 68c30.667 26 65.334 67.333 104.001 124l28 -17c-38 -80 -78 -143.333 -120 -190c-80.667 -89.333 -174 -134 -280 -134
c-104 0 -196 41 -276 123s-120 193.333 -120 334c0 138 43.667 256.667 131 356s197.666 149 330.999 149c83.333 0 155.166 -21.5 215.499 -64.5zM465.001 943z" />
    <glyph glyph-name="d" unicode="d" horiz-adv-x="1024" 
d="M619 913c26.667 -14 52.3311 -33.334 76.998 -58.001v318c0 40.667 -4.5 68.667 -13.5 84s-30.5 23 -64.5 23c-8 0 -15 -0.333008 -21 -1s-19.333 -2 -40 -4v33l82 21l90 25c30 8.66699 56.333 17 79 25c10.667 3.33301 28.334 9.66602 53.001 18.999l6 -2l-2 -105
l-2 -117.5c-0.666992 -40.333 -1 -80.166 -1 -119.499l-2 -817c0 -43.333 5.33301 -73.666 16 -90.999s39 -26 85 -26c7.33301 0 14.666 0.166992 21.999 0.5s14.666 1.16602 21.999 2.49902v-33l-145 -50l-157 -59l-7 9v123c-37.333 -40.667 -69.666 -69.667 -96.999 -87
c-48.667 -30 -105 -45 -169 -45c-113.333 0 -205.166 43.833 -275.499 131.5s-105.5 189.167 -105.5 304.5c0 144.667 42.167 268.834 126.5 372.501s187.5 155.5 309.5 155.5c48.667 0 93.334 -10.667 134.001 -32zM647.997 134.999c32 30.667 47.999 59.666 47.999 86.999
v429c0 86.667 -23.167 147.834 -69.5 183.501s-91.5 53.5 -135.5 53.5c-84 0 -149.333 -37.167 -196 -111.5s-70 -165.833 -70 -274.5c0 -107.333 24.833 -203 74.5 -287s123.834 -126 222.501 -126c52 0 94 15.333 126 46z" />
    <glyph glyph-name="e" unicode="e" horiz-adv-x="909" 
d="M716 840.5c70.667 -65 106 -157.166 106 -276.499h-635c6.66699 -154.667 41.667 -267.334 105 -338.001s138.333 -106 225 -106c70 0 129 18.333 177 55s92.333 88.667 133 156l35 -12c-27.333 -84.667 -78.5 -163 -153.5 -235s-166.833 -108 -275.5 -108
c-125.333 0 -222.166 47.333 -290.499 142s-102.5 203.667 -102.5 327c0 134 39.667 249.667 119 347s182.666 146 309.999 146c94 0 176.333 -32.5 247 -97.5zM237 764.001c-21.333 -36 -36.666 -81.334 -45.999 -136.001h422c-7.33301 66.667 -20 116.334 -38 149.001
c-32.667 58.667 -87.334 88 -164.001 88c-76 0 -134 -33.667 -174 -101zM456 938z" />
    <glyph glyph-name="f" unicode="f" horiz-adv-x="682" 
d="M40 28c70.667 3.33301 117.168 16.499 139.501 39.499s33.5 71.5 33.5 145.5v642h-171v67h171c0 105.333 14.333 194.333 43 267c54.667 139.333 155 209 301 209c58.667 0 111.167 -11.667 157.5 -35s69.5 -54.666 69.5 -93.999c0 -22 -8 -41.667 -24 -59
s-35.333 -26 -58 -26c-19.333 0 -36 5.83301 -50 17.5s-30.667 32.167 -50 61.5l-17 26c-9.33301 14 -20.333 25.833 -33 35.5s-30.334 14.5 -53.001 14.5c-50.667 0 -85 -25 -103 -75c-10 -26.667 -15 -61.667 -15 -105v-237h251v-67h-249v-642
c0 -75.333 10.167 -123.5 30.5 -144.5s73.5 -34.5 159.5 -40.5v-28h-533v28z" />
    <glyph glyph-name="g" unicode="g" horiz-adv-x="1024" 
d="M295.5 -301c63 -21.333 135.169 -32.002 216.502 -32.002c110.667 0 200.667 19.167 270 57.5s104 85.5 104 141.5c0 44.667 -28 74.334 -84 89.001c-34.667 8.66699 -100.334 13.667 -197.001 15c-24.667 0.666992 -50.667 1.5 -78 2.5s-52.333 2.16699 -75 3.5
c-14.667 0.666992 -38.334 3.33398 -71.001 8.00098s-57 8.66699 -73 12c-8 0 -27.667 -21 -59 -63c-32 -42.667 -48 -82 -48 -118c0 -56 31.5 -94.667 94.5 -116zM189.502 442.998c-33.667 51.333 -50.499 108.998 -50.499 172.998c0 78 31 152 93 222s149.667 105 263 105
c48.667 0 102.334 -11.5 161.001 -34.5s115 -34.5 169 -34.5c14 0 35.167 0.5 63.5 1.5s48.833 1.5 61.5 1.5h12v-81h-173c12 -28 21.333 -52.333 28 -73c11.333 -38.667 17 -75.334 17 -110.001c0 -76 -31.5 -145.833 -94.5 -209.5s-147.833 -95.5 -254.5 -95.5
c-16.667 0 -46.667 3 -90 9c-19.333 0 -44.833 -16.333 -76.5 -49s-47.5 -59.334 -47.5 -80.001c0 -21.333 23.333 -37 70 -47c30.667 -6.66699 64.667 -10 102 -10c171.333 0 287.666 -9.66699 348.999 -29c100.667 -31.333 151 -98.666 151 -201.999
c0 -105.333 -58.833 -189.333 -176.5 -252s-236.5 -94 -356.5 -94c-109.333 0 -196 22.167 -260 66.5s-96 90.833 -96 139.5c0 24 8.5 47.5 25.5 70.5s50.5 57.167 100.5 102.5l66 59l12 12c-30.667 12 -53.667 23.667 -69 35c-26.667 20.667 -40 44.334 -40 71.001
c0 24.667 11.5 51.834 34.5 81.501s72.167 77.834 147.5 144.501c-60.667 20 -107.834 55.667 -141.501 107zM613.003 385.996c40 32 59.998 87.668 59.998 167.001c0 63.333 -16.167 134.666 -48.5 213.999s-86.166 119 -161.499 119c-65.333 0 -110.333 -31 -135 -93
c-12.667 -32.667 -19 -73 -19 -121c0 -81.333 19.667 -154.333 59 -219s90.333 -97 153 -97c36.667 0 67.334 10 92.001 30zM513.001 942.997z" />
    <glyph glyph-name="h" unicode="h" horiz-adv-x="1024" 
d="M18 28c54.667 7.33301 90.5 20.835 107.5 40.502s25.5 66.167 25.5 139.5v960c0 37.333 -4.83301 64.833 -14.5 82.5s-33.167 26.5 -70.5 26.5c-7.33301 0 -14.5 -0.5 -21.5 -1.5l-23.5 -3.5v36l108.5 31.5c43 12.333 72.833 21.166 89.5 26.499l96 30l2 -7v-614
c42 48 79.333 83.333 112 106c58.667 40 122 60 190 60c108 0 181.667 -45.333 221 -136c21.333 -48 32 -111 32 -189v-408c0 -70.667 8.16699 -116.667 24.5 -138s49.833 -35.333 100.5 -42v-28h-433v28c58 8 95.333 21.667 112 41s25 65.666 25 138.999v405
c0 64.667 -10.833 117 -32.5 157s-62.5 60 -122.5 60c-52 0 -102.333 -18.667 -151 -56s-73 -61.666 -73 -72.999v-493c0 -74.667 8.66699 -121.334 26 -140.001s54.333 -32 111 -40v-28h-441v28z" />
    <glyph glyph-name="i" unicode="i" horiz-adv-x="569" 
d="M198 1365c20 20.667 44.667 30.998 74 30.998c28.667 0 53.167 -10.167 73.5 -30.5s30.5 -45.166 30.5 -74.499c0 -28.667 -10.167 -53.167 -30.5 -73.5s-44.833 -30.5 -73.5 -30.5c-29.333 0 -54 10.167 -74 30.5s-30 44.833 -30 73.5s10 53.334 30 74.001zM40 27.998
c71.333 6.66699 116.333 18.8311 135 36.498s28 65.5 28 143.5v477c0 43.333 -3 73.333 -9 90c-10 27.333 -31 41 -63 41c-7.33301 0 -14.5 -0.666992 -21.5 -2s-27.167 -6.66602 -60.5 -15.999v31l43 14c116.667 38 198 66.667 244 86c18.667 8 30.667 12 36 12
c1.33301 -4.66699 2 -9.66699 2 -15v-718c0 -76 9.16699 -123.667 27.5 -143s59.833 -31.666 124.5 -36.999v-28h-486v28z" />
    <glyph glyph-name="j" unicode="j" horiz-adv-x="569" 
d="M255 1365c20 20.667 44.667 31 74 31c28.667 0 53.167 -10.333 73.5 -31s30.5 -45.334 30.5 -74.001s-10.167 -53.167 -30.5 -73.5s-44.833 -30.5 -73.5 -30.5c-29.333 0 -54 10.167 -74 30.5s-30 44.833 -30 73.5s10 53.334 30 74.001zM65.5 -317
c33 -42 62.165 -63.002 87.498 -63.002c42 0 70.333 24.333 85 73c8.66699 29.333 13.334 78.333 14.001 147c0.666992 24.667 1 85.334 1 182.001v658c0 45.333 -4.33301 78.833 -13 100.5s-28.667 32.5 -60 32.5c-9.33301 0 -21.5 -1.66699 -36.5 -5
s-30.5 -7.33301 -46.5 -12v31l85 28c20.667 6.66699 47.5 15.834 80.5 27.501l94.5 34.5l60 21c2.66699 -4 4 -8.66699 4 -14v-924c0 -115.333 -14.667 -205.333 -44 -270c-53.333 -118.667 -155.333 -178 -306 -178c-49.333 0 -93.166 10 -131.499 30
s-57.5 46.667 -57.5 80c0 22 7.66699 41.5 23 58.5s35 25.5 59 25.5c34.667 0 68.5 -21 101.5 -63z" />
    <glyph glyph-name="k" unicode="k" horiz-adv-x="1024" 
d="M4 28c64 4.66699 106.167 15.334 126.5 32.001s30.5 52.667 30.5 108v1002c0 47.333 -8 77.333 -24 90s-39 19 -69 19c-12.667 0 -23.667 -0.333008 -33 -1s-19.666 -1.66699 -30.999 -3v28l90 24c68.667 18 127 35 175 51c29.333 10 46.333 15 51 15
c4 0 6.5 -0.833008 7.5 -2.5s1.5 -5.5 1.5 -11.5v-841l277 244c20 18 33.5 32.333 40.5 43s10.5 20 10.5 28c0 15.333 -7.5 25 -22.5 29s-41.833 7 -80.5 9v28h417v-28c-74.667 -4.66699 -134.667 -19.5 -180 -44.5s-132.333 -96.5 -261 -214.5l-59 -54l185 -240
c94.667 -122.667 166 -204.167 214 -244.5s99 -62.833 153 -67.5v-26h-445v28l35 2c11.333 0.666992 21.666 3 30.999 7s14 10.667 14 20c0 7.33301 -1.66699 14.166 -5 20.499s-8 13.5 -14 21.5l-310 408v-370c0 -46 17 -76.667 51 -92c20 -9.33301 54.333 -14.333 103 -15
v-30h-479v28z" />
    <glyph glyph-name="l" unicode="l" horiz-adv-x="569" 
d="M42 28c62 6 104 18.5 126 37.5s33 56.167 33 111.5v977c0 44 -3.66699 74.333 -11 91c-13.333 28 -40.333 42 -81 42c-9.33301 0 -19.5 -1 -30.5 -3s-24.833 -5 -41.5 -9v33c90 24 198.333 56 325 96c4.66699 0 7.5 -2 8.5 -6s1.5 -12.667 1.5 -26v-1199
c0 -58 10 -95.5 30 -112.5s61.333 -27.833 124 -32.5v-28h-484v28z" />
    <glyph glyph-name="m" unicode="m" horiz-adv-x="1593" 
d="M33 26c52 4.66699 86.668 13.3281 104.001 25.9951c26.667 19.333 40 58 40 116v517c0 49.333 -6.5 81.666 -19.5 96.999s-34.5 23 -64.5 23c-14 0 -24.5 -0.666992 -31.5 -2s-15.167 -3.66602 -24.5 -6.99902v35l72 24c26 8.66699 68.667 24.334 128 47.001
s90.666 34 93.999 34s5.33301 -1.66699 6 -5s1 -9.66602 1 -18.999v-135c66 60 123 101.5 171 124.5s97.333 34.5 148 34.5c68.667 0 123.334 -23.333 164.001 -70c21.333 -25.333 39 -59.666 53 -102.999c49.333 50 92.333 87 129 111c63.333 41.333 128 62 194 62
c107.333 0 179 -43.667 215 -131c20.667 -49.333 31 -127.333 31 -234v-415c0 -47.333 10.5 -79.5 31.5 -96.5s58.833 -28.167 113.5 -33.5v-26h-451v28c58 5.33301 96.167 17 114.5 35s27.5 54.667 27.5 110v431c0 64.667 -7 112.334 -21 143.001
c-24.667 54.667 -73 82 -145 82c-43.333 0 -86.333 -14.333 -129 -43c-24.667 -16.667 -55 -43.334 -91 -80.001v-512c0 -54 9.5 -95 28.5 -123s59.167 -43 120.5 -45v-26h-459v26c63.333 8 103.666 23.333 120.999 46s26 78.334 26 167.001v280
c0 102.667 -6.66699 173.334 -20 212.001c-22 65.333 -68.667 98 -140 98c-40.667 0 -80.667 -11.167 -120 -33.5s-74 -51.5 -104 -87.5v-547c0 -50.667 8.83301 -85.667 26.5 -105s56.167 -29.333 115.5 -30v-26h-455v26z" />
    <glyph glyph-name="n" unicode="n" horiz-adv-x="1024" 
d="M37 28c47.333 6 80.5 17.832 99.5 35.499s28.5 57.167 28.5 118.5v507c0 42.667 -4 72.667 -12 90c-12.667 25.333 -38.667 38 -78 38c-6 0 -12.167 -0.333008 -18.5 -1s-14.166 -1.66699 -23.499 -3v35c27.333 8 92 28.667 194 62l94 31c4.66699 0 7.5 -1.66699 8.5 -5
s1.5 -8 1.5 -14v-147c61.333 57.333 109.333 96.666 144 117.999c52 32.667 106 49 162 49c45.333 0 86.666 -13 123.999 -39c72 -50.667 108 -141 108 -271v-467c0 -48 9.66699 -82.667 29 -104s51.666 -32.333 96.999 -33v-28h-427v28
c48.667 6.66699 82.667 20.167 102 40.5s29 64.5 29 132.5v427c0 57.333 -10.667 104.833 -32 142.5s-60.666 56.5 -117.999 56.5c-39.333 0 -79.333 -13.333 -120 -40c-22.667 -15.333 -52 -40.666 -88 -75.999v-560c0 -48 10.667 -80.167 32 -96.5s55 -25.166 101 -26.499
v-28h-437v28zM513 941.999z" />
    <glyph glyph-name="o" unicode="o" horiz-adv-x="1024" 
d="M178.5 800.5c84.333 91.667 192.833 137.499 325.5 137.499c132 0 241.333 -43.333 328 -130s130 -202 130 -346c0 -132.667 -42 -248 -126 -346s-192.667 -147 -326 -147c-128 0 -236.333 47 -325 141s-133 212 -133 354c0 132.667 42.167 244.834 126.5 336.501z
M339 825.999c-66.667 -60.667 -100 -165.332 -100 -313.999c0 -118.667 26.833 -229.334 80.5 -332.001s128.167 -154 223.5 -154c74.667 0 132.167 34.333 172.5 103s60.5 158.667 60.5 270c0 115.333 -25.667 224 -77 326s-125.666 153 -222.999 153
c-52.667 0 -98.334 -17.333 -137.001 -52zM513 938.001z" />
    <glyph glyph-name="p" unicode="p" horiz-adv-x="1024" 
d="M404.5 82.5c34.333 -22.333 74.834 -33.5029 121.501 -33.5029c72 0 133.5 35.833 184.5 107.5s76.5 171.5 76.5 299.5c0 122.667 -26.5 214.334 -79.5 275.001s-114.5 91 -184.5 91c-49.333 0 -94.333 -15.167 -135 -45.5s-61 -60.166 -61 -89.499v-503
c17.333 -45.333 43.166 -79.166 77.499 -101.499zM9.00098 -413.003c62.667 4 102.499 17.3301 119.499 39.9971s25.5 58.334 25.5 107.001v960c0 50.667 -6.16699 83.167 -18.5 97.5s-35.5 21.5 -69.5 21.5c-7.33301 0 -14.166 -0.333008 -20.499 -1s-15.5 -2 -27.5 -4v33
l95 31c3.33301 0.666992 70.333 23.667 201 69c3.33301 0 5.83301 -1.5 7.5 -4.5s2.5 -6.5 2.5 -10.5v-135c44 44 82.667 76.667 116 98c60 37.333 121.667 56 185 56c92 0 171.167 -39.167 237.5 -117.5s99.5 -185.5 99.5 -321.5c0 -133.333 -39.833 -254.333 -119.5 -363
s-179.834 -163 -300.501 -163c-37.333 0 -69.666 4.66699 -96.999 14c-42.667 14 -82 39.667 -118 77v-327c0 -67.333 11 -108.666 33 -123.999s70 -25.666 144 -30.999v-35h-495v33z" />
    <glyph glyph-name="q" unicode="q" horiz-adv-x="1024" 
d="M552.5 115c27 5.33301 52.167 14.334 75.5 27.001c32 17.333 51.333 32.666 58 45.999s10 38.333 10 75v422c0 52.667 -8 93.667 -24 123c-30 53.333 -86.667 80 -170 80c-94.667 0 -164.5 -39.167 -209.5 -117.5s-67.5 -167.833 -67.5 -268.5
c0 -118 22.833 -213.333 68.5 -286s110.5 -109 194.5 -109c16 0 37.5 2.66699 64.5 8zM631 924.001c23.333 -8 58.666 -25.3359 105.999 -52.0029l111 66c6 2.66699 10.667 4.33398 14 5.00098c3.33301 -2.66699 5.33301 -4.66699 6 -6s1 -5.66602 1 -12.999v-1216
c0 -35.333 6.33301 -61.666 19 -78.999c19.333 -26 56.666 -41.667 111.999 -47v-28h-484v33c59.333 0.666992 103.5 10.667 132.5 30s43.5 62.333 43.5 129v381c-46.667 -46 -87 -79 -121 -99c-56 -32.667 -119 -49 -189 -49c-83.333 0 -159.666 38.5 -228.999 115.5
s-104 190.167 -104 339.5c0 137.333 42.833 256.5 128.5 357.5s196.834 151.5 333.501 151.5c45.333 0 85.333 -6.33301 120 -19z" />
    <glyph glyph-name="r" unicode="r" horiz-adv-x="682" 
d="M9 33c61.333 5.33301 102 16.1689 122 32.502s30 51.166 30 104.499v451c0 66 -6.16699 113.167 -18.5 141.5s-34.833 42.5 -67.5 42.5c-6.66699 0 -15.5 -0.833008 -26.5 -2.5s-22.5 -3.83398 -34.5 -6.50098v33l117 41c40 14 67.667 24 83 30
c33.333 12.667 67.666 27 102.999 43c4.66699 0 7.5 -1.66699 8.5 -5s1.5 -10.333 1.5 -21v-164c42.667 59.333 83.834 105.666 123.501 138.999s80.834 50 123.501 50c34 0 61.667 -10.167 83 -30.5s32 -45.833 32 -76.5c0 -27.333 -8.16699 -50.333 -24.5 -69
s-36.833 -28 -61.5 -28c-25.333 0 -50.833 11.667 -76.5 35s-45.834 35 -60.501 35c-23.333 0 -52 -18.833 -86 -56.5s-51 -76.5 -51 -116.5v-451c0 -57.333 13.333 -97.166 40 -119.499s71 -32.833 133 -31.5v-33h-493v33z" />
    <glyph glyph-name="s" unicode="s" horiz-adv-x="797" 
d="M106 315l33.0029 0.000976562c15.333 -76 36 -134.333 62 -175c46.667 -74.667 115 -112 205 -112c50 0 89.5 13.833 118.5 41.5s43.5 63.5 43.5 107.5c0 28 -8.33301 55 -25 81s-46 51.333 -88 76l-112 64c-82 44 -142.333 88.333 -181 133s-58 97.334 -58 158.001
c0 74.667 26.667 136 80 184s120.333 72 201 72c35.333 0 74.166 -6.66699 116.499 -20s66.166 -20 71.499 -20c12 0 20.667 1.66699 26 5s10 8.66602 14 15.999h24l7 -279h-31c-13.333 64.667 -31.333 115 -54 151c-41.333 66.667 -101 100 -179 100
c-46.667 0 -83.334 -14.333 -110.001 -43s-40 -62.334 -40 -101.001c0 -61.333 46 -116 138 -164l132 -71c142 -77.333 213 -167.333 213 -270c0 -78.667 -29.5 -143 -88.5 -193s-136.167 -75 -231.5 -75c-40 0 -85.333 6.66699 -136 20s-80.667 20 -90 20
c-8 0 -15 -2.83301 -21 -8.5s-10.667 -12.5 -14 -20.5h-26v323zM399.003 945.001z" />
    <glyph glyph-name="t" unicode="t" horiz-adv-x="569" 
d="M521 922v-72.001h-204l-2 -576c0 -50.667 4.33301 -89 13 -115c16 -46 47.333 -69 94 -69c24 0 44.833 5.66699 62.5 17s37.834 29.333 60.501 54l26 -22l-22 -30c-34.667 -46.667 -71.334 -79.667 -110.001 -99s-76 -29 -112 -29c-78.667 0 -132 35 -160 105
c-15.333 38 -23 90.667 -23 158v606h-109c-3.33301 2 -5.83301 4 -7.5 6s-2.5 4.66699 -2.5 8c0 6.66699 1.5 11.834 4.5 15.501s12.5 12.167 28.5 25.5c46 38 79.167 68.833 99.5 92.5s68.166 86.167 143.499 187.5c8.66699 0 13.834 -0.666992 15.501 -2
s2.5 -6.33301 2.5 -15v-246h202z" />
    <glyph glyph-name="u" unicode="u" horiz-adv-x="1024" 
d="M317 926v-640.001c0 -45.333 6.33301 -81.666 19 -108.999c24.667 -50.667 70 -76 136 -76c45.333 0 89.666 15 132.999 45c24.667 16.667 49.667 39.667 75 69v548c0 51.333 -10 85 -30 101s-60 25.667 -120 29v33h323v-704c0 -45.333 8.16699 -76.5 24.5 -93.5
s50.833 -24.5 103.5 -22.5v-28l-81 -22.5c-17.333 -5 -46.333 -14.167 -87 -27.5c-17.333 -6 -55.333 -20.333 -114 -43c-3.33301 0 -5.33301 1.5 -6 4.5s-1 6.5 -1 10.5v161c-45.333 -54 -86.666 -94 -123.999 -120c-56.667 -40 -116.667 -60 -180 -60
c-58 0 -112.667 20.667 -164 62c-52 40.667 -78 109 -78 205v519c0 53.333 -11.333 89 -34 107c-14.667 11.333 -46 19.333 -94 24v28h299zM513 937.999z" />
    <glyph glyph-name="v" unicode="v" horiz-adv-x="1024" 
d="M440 929l-0.00195312 -30.9951c-34.667 -4 -59.167 -9.33301 -73.5 -16s-21.5 -21.334 -21.5 -44.001c0 -10.667 1.5 -20.834 4.5 -30.501s8.16699 -23.834 15.5 -42.501l208 -517l180 458c8.66699 22 16.834 45 24.501 69s11.5 42.333 11.5 55
c0 26 -12.333 44.667 -37 56c-14.667 6 -34.667 10 -60 12v31h284v-31c-32.667 -2.66699 -56.167 -13.5 -70.5 -32.5s-35.166 -62.833 -62.499 -131.5l-289 -720c-5.33301 -12.667 -9.66602 -21.334 -12.999 -26.001s-8 -7 -14 -7c-6.66699 0 -12.334 3.83301 -17.001 11.5
s-9.66699 17.167 -15 28.5l-306 732c-24.667 59.333 -51 99.666 -79 120.999c-16.667 12 -41 20 -73 24v31h403z" />
    <glyph glyph-name="w" unicode="w" 
d="M952 898c-40 -4.66699 -69.668 -11.3359 -89.001 -20.0029s-29 -26 -29 -52c0 -14 2.16699 -28.5 6.5 -43.5s10.166 -32.5 17.499 -52.5l182 -475l178 434c8 18.667 16.667 43.167 26 73.5s14 53.166 14 68.499c0 24.667 -7.66699 41.334 -23 50.001
s-37.666 15 -66.999 19v29h254v-29c-16.667 -3.33301 -30.334 -11.333 -41.001 -24s-25.667 -42.667 -45 -90l-320 -789c-2.66699 -6 -5 -10.333 -7 -13s-5 -4 -9 -4c-8 4 -12.667 7.33301 -14 10l-226 559l-263 -557
c-1.33301 -3.33301 -3.16602 -6.16602 -5.49902 -8.49902s-5.16602 -3.5 -8.49902 -3.5c-8 4 -12.667 7.33301 -14 10l-299 737c-32.667 80.667 -54.334 128.167 -65.001 142.5s-31.667 23.833 -63 28.5v31h370v-31c-30.667 -2.66699 -54.167 -8.16699 -70.5 -16.5
s-24.5 -26.166 -24.5 -53.499c0 -19.333 13.667 -66.666 41 -141.999l61 -158l114 -284l180 386l2 12c0 13.333 -7.16699 38.166 -21.5 74.499s-28.166 68.833 -41.499 97.5c-13.333 30 -28.5 50.833 -45.5 62.5s-40.833 18.834 -71.5 21.501v31h417v-31z" />
    <glyph glyph-name="x" unicode="x" horiz-adv-x="1024" 
d="M474 919l0.000976562 -27.998c-25.333 -0.666992 -46.833 -4.16699 -64.5 -10.5s-26.5 -19.5 -26.5 -39.5c0 -12.667 17.667 -48.334 53 -107.001l71 -113c39.333 54 68.666 96.333 87.999 127c32.667 49.333 49 81.333 49 96c0 17.333 -7 29 -21 35s-33.667 10 -59 12
v28h322v-28c-34 -2.66699 -65.667 -11.834 -95 -27.501s-53 -36.5 -71 -62.5l-171 -247l264 -400c34 -52 62.833 -85.667 86.5 -101s50.834 -23.666 81.501 -24.999v-28h-413v28l29 2c15.333 1.33301 28.166 6 38.499 14s15.5 18 15.5 30c0 12.667 -12.667 40.667 -38 84
c-12 21.333 -30 50.333 -54 87c-11.333 18 -28.166 43 -50.499 75l-56.5 82l-161 -251c-19.333 -30 -31.333 -50 -36 -60s-7 -18.333 -7 -25c0 -12.667 5.16699 -21 15.5 -25s32.833 -8.33301 67.5 -13v-28h-296v28c36 7.33301 62.667 16.666 80 27.999
s40.333 37.666 69 78.999l233 339l-192 291c-38.667 58 -65.334 92.333 -80.001 103s-46.667 18.334 -96 23.001v28h425z" />
    <glyph glyph-name="y" unicode="y" horiz-adv-x="1024" 
d="M28 919l422.002 -0.00585938v-31c-33.333 -0.666992 -58 -3.66699 -74 -9c-30.667 -8.66699 -46 -25.667 -46 -51c0 -9.33301 1.66699 -18.833 5 -28.5s9.33301 -24.167 18 -43.5l234 -519l188 523c2 5.33301 5.16699 17.333 9.5 36s6.5 31.334 6.5 38.001
c0 17.333 -6 30 -18 38s-27.333 12.667 -46 14l-31 2v31h275v-31c-27.333 -3.33301 -47.833 -12.666 -61.5 -27.999s-25.5 -36.666 -35.5 -63.999l-315 -834c-54.667 -144 -107 -248.333 -157 -313s-113.333 -97 -190 -97c-37.333 0 -72.333 9.33301 -105 28
s-49 48.334 -49 89.001c0 26.667 9.83301 48.5 29.5 65.5s44.5 25.5 74.5 25.5c17.333 0 43.166 -6.33301 77.499 -19s58.833 -19 73.5 -19c37.333 0 76.666 43.333 117.999 130s62 144.667 62 174c0 6 -1 13.333 -3 22s-4.33301 16.334 -7 23.001l-320 692
c-22.667 49.333 -42.5 81.833 -59.5 97.5s-42.167 25.834 -75.5 30.501v28zM504.002 937.994z" />
    <glyph glyph-name="z" unicode="z" horiz-adv-x="909" 
d="M829 919v-24l-555 -832h283c98 0 160 12.5 186 37.5s51.667 86.167 77 183.5l35 -7l-28 -277h-775v23l547 835h-268c-72 0 -119 -12.333 -141 -37s-37.333 -72.667 -46 -144h-35l4 242h716zM456 938z" />
    <glyph glyph-name="braceleft" unicode="{" horiz-adv-x="983" 
d="M127 547c80.667 8.66699 142.332 26.667 184.999 54c65.333 42.667 98 110.667 98 204l2 275c0 123.333 48.333 207.333 145 252c56 26 155.333 43.333 298 52v-45c-72 -8 -137.833 -31.5 -197.5 -70.5s-89.5 -103.167 -89.5 -192.5v-245
c0 -105.333 -25.333 -177.666 -76 -216.999s-140.667 -72 -270 -98l-35 -7v-5c136.667 -10.667 234 -41.667 292 -93s87.667 -119 89 -203l3 -282c0.666992 -82.667 34.334 -144.667 101.001 -186c38 -23.333 99 -43.333 183 -60v-45c-134 0 -241.333 23 -322 69
s-121 123.333 -121 232l-2 308c0 77.333 -34.667 135.666 -104 174.999c-39.333 22 -99 40.333 -179 55v73z" />
    <glyph glyph-name="bar" unicode="|" horiz-adv-x="410" 
d="M274 1398v-1398h-139v1398h139z" />
    <glyph glyph-name="braceright" unicode="}" horiz-adv-x="983" 
d="M855 474c-82 -15.333 -142.331 -34 -180.998 -56c-67.333 -39.333 -101 -97.333 -101 -174l-2 -308c0 -108 -40 -185.167 -120 -231.5s-188 -69.5 -324 -69.5v45c84 16.667 145 36.667 183 60c68 41.333 102 103.333 102 186l2 282c0 90.667 32.333 160 97 208
s159.667 77.333 285 88v5c-144.667 28.667 -238.334 57.334 -281.001 86.001c-67.333 45.333 -101 124 -101 236v245c0 95.333 -39.667 166 -119 212c-44.667 26 -100.667 43 -168 51v45c171.333 0 288.166 -27.5 350.499 -82.5s93.5 -128.833 93.5 -221.5l2 -275
c0 -96.667 35 -166 105 -208c40 -24.667 99 -41.334 177 -50.001v-73z" />
    <glyph glyph-name="asciitilde" unicode="~" horiz-adv-x="1108" 
d="M573 584c135.333 -54.667 221.666 -82 258.999 -82c49.333 0 91 23 125 69c19.333 26 42.333 72.667 69 140h52c-33.333 -132 -73.166 -222.333 -119.499 -271s-100.5 -73 -162.5 -73c-57.333 0 -151.833 28 -283.5 84s-212.834 84 -243.501 84
c-54.667 0 -101 -29 -139 -87c-20 -30 -38.333 -70.333 -55 -121h-47c22.667 95.333 47.667 166.333 75 213c48.667 84 114.334 126 197.001 126c46.667 0 137.667 -27.333 273 -82z" />
    <glyph glyph-name="nobreakspace" unicode="&#xa0;" horiz-adv-x="512" 
 />
    <glyph glyph-name="exclamdown" unicode="&#xa1;" horiz-adv-x="682" 
d="M192 -262.5c0.666992 13 2.00098 26.833 4.00098 41.5l93 785h26l19 -221c8 -90.667 23.667 -217.667 47 -381c19.333 -136.667 29 -222 29 -256c0 -37.333 -5.33301 -69.333 -16 -96c-19.333 -46.667 -52 -70 -98 -70c-44.667 0 -75.334 22.333 -92.001 67
c-8.66699 24 -13 56 -13 96c0 10 0.333008 21.5 1 34.5zM376.501 759c-22.333 -21.333 -48.499 -32.002 -78.499 -32.002c-30.667 0 -56.834 10.833 -78.501 32.5s-32.5 47.834 -32.5 78.501c0 31.333 11 57 33 77s48 30 78 30c31.333 0 57.833 -10.5 79.5 -31.5
s32.5 -45.167 32.5 -72.5c0 -33.333 -11.167 -60.666 -33.5 -81.999z" />
    <glyph glyph-name="cent" unicode="&#xa2;" horiz-adv-x="1024" 
d="M639 862c-14 6.66699 -27 11.5 -39 14.5s-30.333 4.5 -55 4.5c-78.667 0 -145.5 -33.167 -200.5 -99.5s-82.5 -152.5 -82.5 -258.5c0 -87.333 17.667 -161 53 -221c20 -34 50 -67.667 90 -101zM251 789.5c94.667 102.333 197.338 153.498 308.005 153.498
c19.333 0 37.666 -1.16699 54.999 -3.5s33.666 -5.16602 48.999 -8.49902l90 254h71l-94 -275c38.667 -18 68.667 -36 90 -54c40.667 -34.667 61 -73.667 61 -117c0 -28.667 -7.5 -51.667 -22.5 -69s-36.5 -26 -64.5 -26c-28.667 0 -53.334 11.333 -74.001 34
c-12 13.333 -27 37.666 -45 72.999l-206 -595c27.333 -10 48.666 -16.667 63.999 -20s34.333 -5 57 -5c69.333 0 132.333 24 189 72c34.667 28.667 72 73 112 133l26 -17c-52 -121.333 -113 -208.666 -183 -261.999s-138.333 -80 -205 -80c-20.667 0 -38 1.33301 -52 4
s-35.667 8 -65 16l-102 -282h-69l105 308c-68.667 30.667 -125.334 84.834 -170.001 162.501s-67 162.5 -67 254.5c0 130.667 47.333 247.167 142 349.5z" />
    <glyph glyph-name="sterling" unicode="&#xa3;" horiz-adv-x="1024" 
d="M221 187c-15.333 2.66699 -32 3.99902 -50 3.99902c-28.667 0 -51.5 -6.83301 -68.5 -20.5s-25.5 -31.167 -25.5 -52.5c0 -14 3.33301 -27.333 10 -40c14 -25.333 38.333 -38 73 -38c42 0 75.333 16.667 100 50c16 21.333 25.667 45 29 71
c-16 12.667 -38.667 21.334 -68 26.001zM69 217.499c31.333 31.667 79.3359 47.498 144.003 47.498c12 0 24.5 -0.666992 37.5 -2s32.167 -4 57.5 -8c0.666992 12.667 1.16699 21.167 1.5 25.5s0.5 9.5 0.5 15.5c0 38 -3.33301 89 -10 153c-4.66699 39.333 -14 113 -28 221
h-225v93h216c-2.66699 23.333 -5 51.833 -7 85.5s-3 63.167 -3 88.5c0 122 34.833 227 104.5 315s167.167 132 292.5 132c67.333 0 128.666 -17.167 183.999 -51.5s83 -80.833 83 -139.5c0 -26 -8.16699 -50.333 -24.5 -73s-39.833 -34 -70.5 -34c-20 0 -38 5.33301 -54 16
c-28 19.333 -40.667 51.666 -38 96.999l2 33c2 24.667 -6.66699 46.667 -26 66s-49.333 29 -90 29c-81.333 0 -136.666 -41.667 -165.999 -125c-16 -44 -24 -103 -24 -177c0 -22.667 2 -60.167 6 -112.5s9 -102.166 15 -149.499h256v-93h-248c0 -20 0.333008 -37.333 1 -52
s1 -27.334 1 -38.001c0 -55.333 -4.5 -115.833 -13.5 -181.5s-21.167 -122.834 -36.5 -171.501c33.333 -15.333 71.333 -29 114 -41c68 -20 130 -30 186 -30c46.667 0 87.334 6.33301 122.001 19s71 37 109 73l33 31c2.66699 2.66699 5.66699 4.83398 9 6.50098
s7.66602 3.5 12.999 5.5l12 -9c-6 -56 -40.333 -119.667 -103 -191s-146.334 -107 -251.001 -107c-51.333 0 -114 20.667 -188 62c-32.667 18.667 -65.334 40.334 -98.001 65.001c-43.333 -49.333 -75 -81.333 -95 -96c-32 -23.333 -68.667 -35 -110 -35
c-32.667 0 -63.834 11.333 -93.501 34s-44.5 57.334 -44.5 104.001c0 34.667 15.667 67.834 47 99.501z" />
    <glyph glyph-name="currency" unicode="&#xa4;" horiz-adv-x="1024" 
d="M670.5 870.5c-52.333 53 -115.5 79.5 -189.5 79.5s-137.167 -26.5 -189.5 -79.5s-78.5 -116.5 -78.5 -190.5s26.167 -137.167 78.5 -189.5s115.5 -78.5 189.5 -78.5s137.167 26.167 189.5 78.5s78.5 115.5 78.5 189.5s-26.167 137.5 -78.5 190.5zM127 828
c11.333 26 30.332 57.999 56.999 95.999l-118 118l52 53l121 -114c28.667 21.333 57 38 85 50c50 22 103 33 159 33c54.667 0 103.334 -9.66699 146.001 -29c26 -11.333 57 -31 93 -59l119 119l57 -53l-121 -118c26.667 -34 45.334 -63.667 56.001 -89
c21.333 -44.667 32 -98.667 32 -162c0 -41.333 -6.33301 -80.333 -19 -117s-35.667 -76 -69 -118l121 -119l-57 -56l-119 118c-36 -28 -72.833 -48.833 -110.5 -62.5s-81.167 -20.5 -130.5 -20.5c-62 0 -116.333 10.667 -163 32c-26 12.667 -52.333 30.334 -79 53.001
l-121 -120l-52 56l118 119c-28.667 36.667 -50.334 74.667 -65.001 114s-22 80.333 -22 123c0 56 10 107 30 153z" />
    <glyph glyph-name="yen" unicode="&#xa5;" horiz-adv-x="1024" 
d="M433 1355l0.000976562 -38.0088c-29.333 0.666992 -52 -1.66602 -68 -6.99902c-27.333 -9.33301 -41 -28 -41 -56c0 -8.66699 2.33301 -21.167 7 -37.5s11 -33.166 19 -50.499l221 -455l215 462c5.33301 12 10.333 26.333 15 43s7 28 7 34
c0 28.667 -9.5 46.834 -28.5 54.501s-44.5 11.834 -76.5 12.501v38h328v-38c-30.667 -1.33301 -61.334 -16.666 -92.001 -45.999s-69 -92 -115 -188l-132 -275h215v-64h-244l-59 -123v-88h273v-64h-273v-195c0.666992 -77.333 1.33398 -120.666 2.00098 -129.999
c4 -44 19.667 -73.333 47 -88c17.333 -9.33301 52.333 -15.666 105 -18.999v-37h-457v37c67.333 5.33301 109 18.833 125 40.5s24 77.834 24 168.501v223h-285v64h285v69l-67 139h-246v67h213l-95 187c50 -94.667 32.333 -60.667 -53 102c-28 53.333 -50 94 -66 122
c-17.333 29.333 -34.833 52.333 -52.5 69s-40.834 26.334 -69.501 29.001v38h419z" />
    <glyph glyph-name="brokenbar" unicode="&#xa6;" horiz-adv-x="410" 
d="M135 0v540h139v-540h-139zM274 858h-139v540h139v-540z" />
    <glyph glyph-name="section" unicode="&#xa7;" horiz-adv-x="1024" 
d="M719.5 337.5c30.333 23.667 45.502 59.833 45.502 108.5c0 58 -47 129.667 -141 215s-172.333 128 -235 128c-38.667 0 -71.667 -13.5 -99 -40.5s-41 -59.833 -41 -98.5c0 -30.667 8.66699 -61.5 26 -92.5s54.666 -71.5 111.999 -121.5
c56.667 -50.667 101.167 -85.667 133.5 -105s66.166 -29 101.499 -29c34.667 0 67.167 11.833 97.5 35.5zM406.502 833.499c4.33301 -0.333008 10.1699 -1.1709 17.5029 -2.50391c-74.667 60.667 -126.5 113.167 -155.5 157.5s-43.5 95.5 -43.5 153.5
c0 66 28.333 123.667 85 173s125.334 74 206.001 74c68 0 127.833 -19.5 179.5 -58.5s77.5 -86.167 77.5 -141.5c0 -27.333 -8.83301 -52.666 -26.5 -75.999s-44.5 -35 -80.5 -35c-28 0 -50.833 9.16699 -68.5 27.5s-26.5 38.833 -26.5 61.5
c0 25.333 11.833 49.833 35.5 73.5s35.5 37.834 35.5 42.501c0 18.667 -14.833 33.834 -44.5 45.501s-60.5 17.5 -92.5 17.5c-47.333 0 -86.833 -12.167 -118.5 -36.5s-47.5 -61.5 -47.5 -111.5c0 -40.667 17 -81 51 -121c20 -24 56.667 -57.667 110 -101l161 -132
c56 -45.333 99 -87.666 129 -126.999c54 -70.667 81 -139.334 81 -206.001c0 -80 -24.333 -143.667 -73 -191s-114 -67.333 -196 -60c64.667 -58 109 -104.333 133 -139c37.333 -52.667 56 -108.667 56 -168c0 -72.667 -27.667 -133.167 -83 -181.5
s-126.666 -72.5 -213.999 -72.5c-75.333 0 -141 19.5 -197 58.5s-84 86.5 -84 142.5c0 30.667 9 58 27 82s45.667 36 83 36c28.667 0 52.167 -9.5 70.5 -28.5s27.5 -41.5 27.5 -67.5c0 -16 -2.83301 -28.833 -8.5 -38.5s-13.834 -19.167 -24.501 -28.5l-21 -19
c-4.66699 -4 -8.33398 -8 -11.001 -12s-4 -8.33301 -4 -13c0 -21.333 16.833 -38.5 50.5 -51.5s66.167 -19.5 97.5 -19.5c33.333 0 64.666 7.33301 93.999 22c53.333 26 80 71.333 80 136c0 47.333 -15 87.833 -45 121.5s-89 83.834 -177 150.501l-109 83
c-48.667 37.333 -89.334 78 -122.001 122c-50 68 -75 137.667 -75 209c0 77.333 26 138.333 78 183s108 67 168 67c5.33301 0 10.166 -0.166992 14.499 -0.5z" />
    <glyph glyph-name="dieresis" unicode="&#xa8;" horiz-adv-x="682" 
d="M562.5 1101c-19.667 -20 -43.834 -30 -72.501 -30c-28 0 -52 10 -72 30s-30 44 -30 72s10 52 30 72s44 30 72 30c28.667 0 52.834 -10 72.501 -30s29.5 -44 29.5 -72s-9.83301 -52 -29.5 -72zM10.5 1245c19.667 20 43.5 30 71.5 30c28.667 0 52.834 -10 72.501 -30
s29.5 -44 29.5 -72s-9.83301 -52 -29.5 -72s-43.834 -30 -72.501 -30c-28 0 -51.833 10 -71.5 30s-29.5 44 -29.5 72s9.83301 52 29.5 72zM286 938z" />
    <glyph glyph-name="copyright" unicode="&#xa9;" horiz-adv-x="1556" 
d="M326 236c122.667 -122.667 270.667 -184 444 -184s321.333 61.333 444 184s184 270.667 184 444s-61.333 321.333 -184 444s-270.667 184 -444 184s-321.333 -61.333 -444 -184s-184 -270.667 -184 -444s61.333 -321.333 184 -444zM272 1178
c137.333 137.333 303.333 206 498 206s360.667 -68.667 498 -206s206 -303.333 206 -498s-68.667 -360.667 -206 -498s-303.333 -206 -498 -206s-360.667 68.667 -498 206s-206 303.333 -206 498s68.667 360.667 206 498zM464 1017.5c77.333 83 174.332 124.5 290.999 124.5
c30.667 0 60.667 -3.66699 90 -11s57.333 -18.666 84 -33.999l33 -19c7.33301 -4 13.5 -7 18.5 -9s10.5 -3 16.5 -3c14.667 0 24.834 4.66699 30.501 14s11.5 27.666 17.5 54.999h42l8 -344h-48c-21.333 104 -56.666 180.667 -105.999 230s-108 74 -176 74
c-70 0 -128.667 -32.5 -176 -97.5s-71 -166.5 -71 -304.5c0 -90 20.167 -174.833 60.5 -254.5s110.5 -119.5 210.5 -119.5c71.333 0 133.666 23.667 186.999 71c30.667 27.333 61.667 67 93 119l42 -24c-32 -58 -67 -104 -105 -138c-69.333 -62.667 -152 -94 -248 -94
c-113.333 0 -210 41.667 -290 125s-120 190.333 -120 321c0 129.333 38.667 235.5 116 318.5z" />
    <glyph glyph-name="ordfeminine" unicode="&#xaa;" horiz-adv-x="565" 
d="M105 1066c36.667 25.333 82.667 48.3311 138 68.998l114 40c0 64 -6.83301 110 -20.5 138s-40.5 42 -80.5 42c-36.667 0 -62.334 -5 -77.001 -15s-22 -25.667 -22 -47c0 -4.66699 1.33301 -11.667 4 -21s4 -17 4 -23c0 -18 -6 -32 -18 -42s-24.667 -15 -38 -15
c-18 0 -32.5 5.33301 -43.5 16s-16.5 24.334 -16.5 41.001c0 32 19.667 62.5 59 91.5s93 43.5 161 43.5c31.333 0 60.333 -3.83301 87 -11.5s49 -20.167 67 -37.5c20 -22 32.167 -47.167 36.5 -75.5s6.5 -64.833 6.5 -109.5v-151c0 -58 3 -94.167 9 -108.5
s17 -21.5 33 -21.5c10.667 0 20 2 28 6s17.333 10 28 18v-31c-14.667 -18 -33.5 -33.167 -56.5 -45.5s-45.167 -18.5 -66.5 -18.5c-20.667 0 -38.667 8.5 -54 25.5s-25.333 39.5 -30 67.5c-33.333 -28 -60.666 -48 -81.999 -60c-38.667 -22 -77 -33 -115 -33
c-35.333 0 -67 12 -95 36s-42 55.667 -42 95c0 52.667 27.333 98.334 82 137.001zM357 1144c-46 -12.667 -88 -30 -126 -52c-61.333 -36 -92 -77 -92 -123c0 -30 8.83301 -53.667 26.5 -71s40.167 -26 67.5 -26c31.333 0 59.833 8 85.5 24s38.5 34 38.5 54v194z" />
    <glyph glyph-name="guillemotleft" unicode="&#xab;" horiz-adv-x="1024" 
d="M507.5 77c-3.66699 2.66699 -7.83398 6.66699 -12.501 12l-38.5 37.5l-32.5 31.5l-223 204l-95 81l-12 9l-7 7l45 45l57 50.001l113 101c59.333 53.333 109 100.666 149 141.999l48.5 47.5c9.66699 9 16.834 13.5 21.501 13.5c6 0 11 -2 15 -6s6 -9.33301 6 -16
c0 -18.667 -23 -59.667 -69 -123l-196 -249l174.5 -227c59 -79.333 88.5 -126.333 88.5 -141c0 -7.33301 -2 -13 -6 -17s-9 -6 -15 -6c-4 0 -7.83301 1.33301 -11.5 4zM898.5 77c-3.66699 2.66699 -7.83398 6.66699 -12.501 12l-38.5 37.5l-32.5 31.5l-223 204l-95 81l-12 9
l-7 7c25.333 25.333 59.333 57 102 95l118 104c56.667 52 104.667 98.333 144 139l48.5 47.5c9.66699 9 16.834 13.5 21.501 13.5c6 0 11 -2 15 -6s6 -9.33301 6 -16c0 -18.667 -22.667 -59 -68 -121c-29.333 -40 -95 -123.667 -197 -251l174.5 -227
c59 -79.333 88.5 -126.333 88.5 -141c0 -7.33301 -2 -13 -6 -17s-9 -6 -15 -6c-4 0 -7.83301 1.33301 -11.5 4z" />
    <glyph glyph-name="logicalnot" unicode="&#xac;" horiz-adv-x="1155" 
d="M61 794h1034v-553h-143v413h-891v140z" />
    <glyph glyph-name="softhyphen" unicode="&#xad;" horiz-adv-x="682" 
d="M80 526h503v-128h-503v128z" />
    <glyph glyph-name="registered" unicode="&#xae;" horiz-adv-x="1556" 
d="M372 322c54.667 0 91.499 3.49902 110.499 10.499s28.5 26.5 28.5 58.5v597c0 28.667 -9.83301 47.334 -29.5 56.001s-56.167 13 -109.5 13v47h403c102 0 184.667 -18.667 248 -56s95 -89 95 -155c0 -54.667 -25.333 -100.167 -76 -136.5
s-118.334 -58.833 -203.001 -67.5v-7c100 -32 164.167 -99.833 192.5 -203.5s52.166 -155.5 71.499 -155.5c24.667 0 42.334 13.333 53.001 40c6.66699 18 13 54 19 108h50c-4.66699 -60 -14.667 -104.333 -30 -133c-28 -52 -76 -78 -144 -78c-64.667 0 -108 21 -130 63
c-14 26.667 -23.333 79.334 -28 158.001c-5.33301 81.333 -23.666 133.666 -54.999 156.999s-94.333 34 -189 32v-279c0 -32 13 -52.333 39 -61c16.667 -6 50.334 -8.66699 101.001 -8v-48h-417v48zM325.999 235.999c122.667 -122.667 270.667 -184 444 -184
s321.333 61.333 444 184s184 270.667 184 444s-61.333 321.333 -184 444s-270.667 184 -444 184s-321.333 -61.333 -444 -184s-184 -270.667 -184 -444s61.333 -321.333 184 -444zM271.999 1178c137.333 137.333 303.333 206 498 206s360.667 -68.667 498 -206
s206 -303.333 206 -498s-68.667 -360.667 -206 -498s-303.333 -206 -498 -206s-360.667 68.667 -498 206s-206 303.333 -206 498s68.667 360.667 206 498zM863.999 739.999c57.333 23.333 86 75.001 86 155.001c0 51.333 -15.167 91.166 -45.5 119.499
s-78.5 42.5 -144.5 42.5c-34 0 -61 -4.5 -81 -13.5s-30 -27.5 -30 -55.5v-270c108 0 179.667 7.33301 215 22z" />
    <glyph glyph-name="macron" unicode="&#xaf;" horiz-adv-x="682" 
d="M-34 1230h640v-109h-640v109z" />
    <glyph glyph-name="degree" unicode="&#xb0;" horiz-adv-x="819" 
d="M172.5 1289c57 56.667 125.833 85 206.5 85s149.334 -28.333 206.001 -85s85 -125.334 85 -206.001s-28.333 -149.5 -85 -206.5s-125.334 -85.5 -206.001 -85.5s-149.5 28.5 -206.5 85.5s-85.5 125.833 -85.5 206.5s28.5 149.334 85.5 206.001zM243.5 947.5
c37.667 -37.667 82.834 -56.5 135.501 -56.5c53.333 0 98.666 18.833 135.999 56.5s56 82.834 56 135.501c0 53.333 -18.667 98.666 -56 135.999s-82.666 56 -135.999 56c-52.667 0 -97.834 -18.667 -135.501 -56s-56.5 -82.666 -56.5 -135.999
c0 -52.667 18.833 -97.834 56.5 -135.501z" />
    <glyph glyph-name="plusminus" unicode="&#xb1;" horiz-adv-x="1124" 
d="M47 0v135h1033v-135h-1033zM1080 689v-132h-445v-339h-140v339h-448v132h448v346h140v-346h445z" />
    <glyph glyph-name="twosuperior" unicode="&#xb2;" horiz-adv-x="614" 
d="M9 549c172 166 283.333 280.835 334 344.502s76 130.167 76 199.5c0 55.333 -18.833 99.666 -56.5 132.999s-78.5 50 -122.5 50c-54.667 0 -99 -18 -133 -54c-20.667 -21.333 -42.334 -57.333 -65.001 -108l-35 9c15.333 78 48.833 139.333 100.5 184
s111.834 67 180.501 67c69.333 0 127.5 -22 174.5 -66s70.5 -97 70.5 -159c0 -64 -17.667 -124.833 -53 -182.5s-105.333 -132.834 -210 -225.501l-121 -118c20 0 51 -0.333008 93 -1s73 -1 93 -1c90.667 0 146 3.5 166 10.5s43.333 31.833 70 74.5l23 -10l-66 -168h-519v21
z" />
    <glyph glyph-name="threesuperior" unicode="&#xb3;" horiz-adv-x="614" 
d="M164 604.5c44.667 -21 81.3311 -31.501 109.998 -31.501c56 0 98.167 20 126.5 60s42.5 79.667 42.5 119c0 82 -36 138.333 -108 169c-37.333 16 -83.666 24 -138.999 24h-28v24c86 16.667 147.333 48.667 184 96c23.333 29.333 35 61.333 35 96c0 57.333 -23 97 -69 119
c-23.333 11.333 -50.333 17 -81 17c-49.333 0 -92 -17 -128 -51c-19.333 -18 -38.333 -44.667 -57 -80l-26 4c10 48.667 37.333 94.834 82 138.501s104 65.5 178 65.5c70 0 122 -17.667 156 -53s51 -73.666 51 -114.999c0 -30 -9.33301 -60.167 -28 -90.5
s-49 -57.833 -91 -82.5c51.333 -18 91.5 -46 120.5 -84s43.5 -85 43.5 -141c0 -80 -31.167 -148.5 -93.5 -205.5s-153.166 -85.5 -272.499 -85.5c-44 0 -80 7.33301 -108 22s-42 32 -42 52c0 13.333 4.5 24.166 13.5 32.499s20.5 12.5 34.5 12.5c18 0 49.333 -10.5 94 -31.5
z" />
    <glyph glyph-name="acute" unicode="&#xb4;" horiz-adv-x="682" 
d="M577 1276c-10.667 -12.667 -26.332 -25.667 -46.999 -39l-315 -199h-83l301 303c10.667 10.667 24 21.667 40 33s33 17 51 17c17.333 0 33.166 -6.16699 47.499 -18.5s21.5 -28.5 21.5 -48.5c0 -19.333 -5.33301 -35.333 -16 -48zM277.002 938z" />
    <glyph glyph-name="mu" unicode="&#xb5;" horiz-adv-x="1180" 
d="M-150 -389c48.667 0.666992 82.6689 14.1611 102.002 40.4941s41 88.5 65 186.5l26 111c14.667 64.667 31.667 135.334 51 212.001l140 561c1.33301 6.66699 2.5 12.834 3.5 18.501s1.5 11.5 1.5 17.5c0 28.667 -8.5 46.167 -25.5 52.5s-48.833 9.5 -95.5 9.5v28l147 29
l159 30c3.33301 0.666992 6.33301 -0.666016 9 -3.99902s3.66699 -6.66602 3 -9.99902l-3 -14l-185 -715c-1.33301 -6 -2.33301 -10.833 -3 -14.5s-1 -9.16699 -1 -16.5c0 -13.333 3.66699 -23.666 11 -30.999s18.333 -11 33 -11c40 0 89.167 34.5 147.5 103.5
s111.5 142.167 159.5 219.5c41.333 67.333 79.333 142.333 114 225c21.333 51.333 52 133 92 245h151l-189 -709l-9 -37c-2.66699 -11.333 -4 -20.666 -4 -27.999c0 -11.333 2.83301 -19.5 8.5 -24.5s11.834 -7.5 18.501 -7.5c10 0 20.333 3.83301 31 11.5s24 19.5 40 35.5
c7.33301 7.33301 20.666 23 39.999 47l55 67l28 -19c-30.667 -50.667 -62.667 -94.334 -96 -131.001c-66 -74 -127.333 -111 -184 -111c-29.333 0 -53.333 8 -72 24s-28 41 -28 75c0 24.667 5 59.334 15 104.001s27.333 110.667 52 198l24 85l-9 2
c-46.667 -82 -95.667 -162 -147 -240c-110.667 -162.667 -198.667 -244 -264 -244c-12.667 0 -23.834 1.66699 -33.501 5s-18.834 9 -27.501 17l-107 -426h-251z" />
    <glyph glyph-name="paragraph" unicode="&#xb6;" horiz-adv-x="928" 
d="M884 1317c-38.667 -2 -66.3311 -10.6641 -82.998 -25.9971c-28 -26 -46.333 -77.333 -55 -154c-2.66699 -19.333 -5.33398 -58.333 -8.00098 -117s-4 -111.334 -4 -158.001v-557c0 -158.667 -20.667 -281.334 -62 -368.001c-76 -157.333 -221 -236 -435 -236
c-66 0 -117.833 11.333 -155.5 34s-56.5 53 -56.5 91c0 27.333 9.16699 48.5 27.5 63.5s39.5 22.5 63.5 22.5s45.333 -8 64 -24s28 -37.333 28 -64c0 -12 -1.83301 -22.5 -5.5 -31.5s-8.83398 -18.167 -15.501 -27.5c74 -2 125.667 36.333 155 115
c16 44.667 27.333 121.667 34 231c2.66699 42.667 4.16699 83.5 4.5 122.5s0.5 152.833 0.5 341.5c-128.667 0 -231.5 38 -308.5 114s-115.5 168.667 -115.5 278c0 64 16.833 127.167 50.5 189.5s85.167 110.166 154.5 143.499c48.667 22.667 100 37.5 154 44.5
s136.667 10.5 248 10.5h320v-38zM441.503 973.503c-1 -19.667 -1.50195 -48.8311 -1.50195 -87.498v-517c0 -214 -7.33301 -359.333 -22 -436s-55.334 -135 -122.001 -175l2 -12c138.667 27.333 229.334 101.666 272.001 222.999c26 74.667 39 208 39 400v382
c0 86 0.666992 154.333 2 205s3 95.334 5 134.001c3.33301 54 10.333 100.5 21 139.5s27.334 68.167 50.001 87.5h-164c-4 0 -14.167 -9.83301 -30.5 -29.5s-28.166 -43.834 -35.499 -72.501c-4 -13.333 -7.33301 -33.333 -10 -60s-4 -58 -4 -94
c0 -38.667 -0.5 -67.834 -1.5 -87.501z" />
    <glyph glyph-name="periodcentered" unicode="&#xb7;" horiz-adv-x="512" 
d="M307.5 761.5c23.667 -23 35.499 -50.5 35.499 -82.5c0 -34 -11.833 -62.167 -35.5 -84.5s-51.834 -33.5 -84.501 -33.5c-34 0 -62 11.833 -84 35.5s-33 51.167 -33 82.5c0 32 11.333 59.5 34 82.5s49.334 34.5 80.001 34.5c34.667 0 63.834 -11.5 87.501 -34.5z" />
    <glyph glyph-name="cedilla" unicode="&#xb8;" horiz-adv-x="682" 
d="M229 0h72.002l-53 -136c12.667 2.66699 23.5 4.66699 32.5 6s18.833 2 29.5 2c50.667 0 91.334 -13.333 122.001 -40s46 -61 46 -103c0 -48.667 -21 -89.667 -63 -123s-107 -50 -195 -50c-16.667 0 -36 1.66699 -58 5c-38.667 5.33301 -75.334 14.666 -110.001 27.999
l28 64l31 -9c8 -2.66699 21.167 -5.66699 39.5 -9s36.833 -5 55.5 -5c29.333 0 52.666 3.66699 69.999 11c32.667 12.667 49 37.334 49 74.001c0 26.667 -8.33301 46.5 -25 59.5s-38 19.5 -64 19.5c-20 0 -34.833 -0.833008 -44.5 -2.5s-20.834 -4.16699 -33.501 -7.5
l-14 12z" />
    <glyph glyph-name="onesuperior" unicode="&#xb9;" horiz-adv-x="614" 
d="M144 554c52 5.33301 86.0029 12.833 102.003 22.5s24 33.167 24 70.5v564c0 19.333 -2.5 34 -7.5 44s-16.833 15 -35.5 15c-10.667 0 -19.834 -1 -27.501 -3s-29.167 -9.66699 -64.5 -23v17l26 11l213 102c1.33301 0.666992 2.66602 1 3.99902 1s2.33301 -0.333008 3 -1
c1.33301 -1.33301 2 -2.5 2 -3.5v-8.5v-715c0 -37.333 9.66699 -60.833 29 -70.5s51.666 -17.167 96.999 -22.5v-16h-365v16z" />
    <glyph glyph-name="ordmasculine" unicode="&#xba;" horiz-adv-x="635" 
d="M193.5 1278.5c-26.333 -43.667 -39.5 -90.834 -39.5 -141.501c0 -76 18.5 -144.667 55.5 -206s82.167 -92 135.5 -92c44.667 0 82.167 17.833 112.5 53.5s45.5 89.834 45.5 162.501c0 74.667 -17.167 141.5 -51.5 200.5s-80.833 88.5 -139.5 88.5
c-52.667 0 -92.167 -21.833 -118.5 -65.5zM121.5 1299c59 57.333 127.833 86 206.5 86c80.667 0 150 -26.167 208 -78.5s87 -122.5 87 -210.5c0 -90 -29 -162.167 -87 -216.5s-124.667 -81.5 -200 -81.5c-84 0 -155.5 28.5 -214.5 85.5s-88.5 127.833 -88.5 212.5
c0 78 29.5 145.667 88.5 203z" />
    <glyph glyph-name="guillemotright" unicode="&#xbb;" horiz-adv-x="1024" 
d="M181 238c59.333 81.333 117.331 156.667 173.998 226c-87.333 107.333 -148.333 184.666 -183 231.999c-54.667 73.333 -82 120 -82 140c0 6.66699 2 12 6 16s9 6 15 6c4 0 11.667 -5.16699 23 -15.5s27 -25.5 47 -45.5c53.333 -55.333 127.333 -124.666 222 -207.999
s142 -126.666 142 -129.999l-7 -7l-12 -9l-95 -81l-223 -204c-9.33301 -8 -24.166 -22.333 -44.499 -43s-33.166 -33 -38.499 -37l-12 -5c-6 0 -11 2 -15 6s-6 9.66699 -6 17c0 13.333 29.667 60.666 89 141.999zM580.498 250.001l165.498 214
c-102 127.333 -167.667 211 -197 251c-45.333 62 -68 102.333 -68 121c0 6.66699 2.16699 12 6.5 16s9.16602 6 14.499 6c4.66699 0 11.834 -4.5 21.501 -13.5l48.5 -47.5c59.333 -61.333 134.833 -132 226.5 -212s137.5 -122 137.5 -126l-7 -7l-12 -9l-95 -81l-223 -204
c-9.33301 -8 -24.166 -22.333 -44.499 -43s-33.166 -33 -38.499 -37l-12 -5c-6 0 -11 2 -15 6s-6 9.66699 -6 17c0 16 32.5 67.333 97.5 154z" />
    <glyph glyph-name="onequarter" unicode="&#xbc;" horiz-adv-x="1536" 
d="M118 545c47.333 2.66699 80.166 10.165 98.499 22.498s27.5 35.5 27.5 69.5v564c0 18.667 -2.33301 33.334 -7 44.001s-16 16 -34 16c-10.667 0 -23.167 -2.16699 -37.5 -6.5s-33.166 -11.166 -56.499 -20.499v17l239 114c1.33301 0.666992 2.66602 1 3.99902 1
s2.33301 -0.333008 3 -1c1.33301 -2 2 -3.5 2 -4.5v-7.5v-716c0 -34 7.33301 -57.167 22 -69.5s49.334 -19.833 104.001 -22.5v-17h-365v17zM1123 698.998l-318 -425h318v425zM1166 823.998h61v-550h138v-80h-138v-204h-102v204h-374v80zM1279 1379l-924 -1394h-100
l930 1394h94z" />
    <glyph glyph-name="onehalf" unicode="&#xbd;" horiz-adv-x="1536" 
d="M118 545c47.333 2.66699 80.166 10.165 98.499 22.498s27.5 35.5 27.5 69.5v564c0 18.667 -2.33301 33.334 -7 44.001s-16 16 -34 16c-10.667 0 -23.167 -2.16699 -37.5 -6.5s-33.166 -11.166 -56.499 -20.499v17l239 114c1.33301 0.666992 2.66602 1 3.99902 1
s2.33301 -0.333008 3 -1c1.33301 -2 2 -3.5 2 -4.5v-7.5v-716c0 -34 7.33301 -57.167 22 -69.5s49.334 -19.833 104.001 -22.5v-17h-365v17zM810 10.998c172 166 283.336 280.832 334.003 344.499s76 130.167 76 199.5c0 56.667 -19 101.334 -57 134.001s-78 49 -120 49
c-54.667 0 -96 -14 -124 -42s-53.333 -68.333 -76 -121l-35 10c21.333 81.333 54.666 143.5 99.999 186.5s105.666 64.5 180.999 64.5c66.667 0 124.167 -19.667 172.5 -59s72.5 -93 72.5 -161c0 -64 -18.833 -126.167 -56.5 -186.5s-106.5 -135.833 -206.5 -226.5
l-121 -118c20 0 51.167 -0.333008 93.5 -1s73.5 -1 93.5 -1c90.667 0 145.667 3.5 165 10.5s42.666 31.833 69.999 74.5l24 -10l-67 -168h-519v21zM1090 1379h95l-858 -1394h-100z" />
    <glyph glyph-name="threequarters" unicode="&#xbe;" horiz-adv-x="1536" 
d="M195 595c45.333 -20.667 81.668 -31 109.001 -31c62 0 105.833 20.833 131.5 62.5s38.5 80.5 38.5 116.5c0 75.333 -31.667 129 -95 161c-41.333 21.333 -92 32 -152 32h-28v23c59.333 13.333 110.666 35 153.999 65s65 72.667 65 128c0 53.333 -20.667 91.333 -62 114
c-26 14.667 -56.333 22 -91 22c-26.667 0 -52 -6 -76 -18c-42 -20.667 -77.667 -58.667 -107 -114l-26 5c17.333 61.333 49.333 110.666 96 147.999s101.667 56 165 56c67.333 0 118.5 -17.167 153.5 -51.5s52.5 -72.5 52.5 -114.5c0 -44 -15.667 -83.667 -47 -119
c-17.333 -19.333 -41 -38.333 -71 -57c46.667 -14.667 85.5 -40.667 116.5 -78s46.5 -84.666 46.5 -141.999c0 -92 -33.667 -164.167 -101 -216.5s-154 -78.5 -260 -78.5c-51.333 0 -89.833 7.66699 -115.5 23s-38.5 32.333 -38.5 51c0 14.667 5.16699 25.667 15.5 33
s21.833 11 34.5 11c16 0 46.667 -10.333 92 -31zM1137 699l-317 -425h317v425zM1180 824h62v-550h137v-80h-137v-204h-102v204h-375v80zM1294 1379l-925 -1394h-99l929 1394h95z" />
    <glyph glyph-name="questiondown" unicode="&#xbf;" horiz-adv-x="909" 
d="M331 913.5c22 21 48.332 31.5 78.999 31.5s56.834 -10.667 78.501 -32s32.5 -47 32.5 -77s-10.833 -55.667 -32.5 -77s-47.5 -32 -77.5 -32c-29.333 0 -55.5 10.5 -78.5 31.5s-34.5 46.833 -34.5 77.5s11 56.5 33 77.5zM156.499 -372
c-75.667 56.667 -113.499 135.332 -113.499 235.999c0 88.667 52 198.667 156 330c112 142.667 176.667 274.667 194 396h36c0 -24.667 -4.16699 -61 -12.5 -109s-16.833 -86 -25.5 -114c-5.33301 -16 -20.166 -54 -44.499 -114s-36.5 -88.333 -36.5 -85
c-21.333 -50.667 -37.333 -92 -48 -124c-20 -62.667 -30 -117.667 -30 -165c0 -74 18.667 -138.333 56 -193s94.333 -82 171 -82c53.333 0 98.666 14.167 135.999 42.5s56 55.5 56 81.5c0 16.667 -13.5 40.5 -40.5 71.5s-40.5 58.5 -40.5 82.5
c0 22.667 7.66699 42.5 23 59.5s35 25.5 59 25.5c32.667 0 58.5 -13.167 77.5 -39.5s28.5 -57.166 28.5 -92.499c0 -69.333 -29.333 -135.333 -88 -198s-150.667 -94 -276 -94c-82.667 0 -161.834 28.333 -237.501 85z" />
    <glyph glyph-name="Agrave" unicode="&#xc0;" 
d="M914 526l-237 564l-234 -564h471zM30 0l-0.000976562 36.999c52.667 6 92.167 26 118.5 60s71.5 126.333 135.5 277l427 1005h40l510 -1161c34 -77.333 61.167 -125.166 81.5 -143.499s54.5 -30.833 102.5 -37.5v-37h-521v37c60 5.33301 98.667 11.833 116 19.5
s26 26.5 26 56.5c0 10 -3.33301 27.667 -10 53s-16 52 -28 80l-85 197h-536c-53.333 -134 -85.166 -215.833 -95.499 -245.5s-15.5 -53.167 -15.5 -70.5c0 -34.667 14 -58.667 42 -72c17.333 -8 50 -14 98 -18v-37h-406zM892.999 1479l-83 0.00195312l-315 199
c-22 14 -37.833 27.667 -47.5 41s-14.5 28.666 -14.5 45.999c0 19.333 7 35.166 21 47.499s30 18.5 48 18.5c17.333 0 33.333 -4.83301 48 -14.5s28.667 -21.167 42 -34.5zM730.999 1379z" />
    <glyph glyph-name="Aacute" unicode="&#xc1;" 
d="M914 526l-237 564l-234 -564h471zM30 0l-0.000976562 36.999c52.667 6 92.167 26 118.5 60s71.5 126.333 135.5 277l427 1005h40l510 -1161c34 -77.333 61.167 -125.166 81.5 -143.499s54.5 -30.833 102.5 -37.5v-37h-521v37c60 5.33301 98.667 11.833 116 19.5
s26 26.5 26 56.5c0 10 -3.33301 27.667 -10 53s-16 52 -28 80l-85 197h-536c-53.333 -134 -85.166 -215.833 -95.499 -245.5s-15.5 -53.167 -15.5 -70.5c0 -34.667 14 -58.667 42 -72c17.333 -8 50 -14 98 -18v-37h-406zM1031 1717
c-10.667 -12.667 -26.332 -25.667 -46.999 -39l-315 -199h-83l301 303c10.667 10.667 24 21.667 40 33s33 17 51 17c17.333 0 33.166 -6.16699 47.499 -18.5s21.5 -28.5 21.5 -48.5c0 -19.333 -5.33301 -35.333 -16 -48zM731.001 1379z" />
    <glyph glyph-name="Acircumflex" unicode="&#xc2;" 
d="M914 526l-237 564l-234 -564h471zM30 0l-0.000976562 36.999c52.667 6 92.167 26 118.5 60s71.5 126.333 135.5 277l427 1005h40l510 -1161c34 -77.333 61.167 -125.166 81.5 -143.499s54.5 -30.833 102.5 -37.5v-37h-521v37c60 5.33301 98.667 11.833 116 19.5
s26 26.5 26 56.5c0 10 -3.33301 27.667 -10 53s-16 52 -28 80l-85 197h-536c-53.333 -134 -85.166 -215.833 -95.499 -245.5s-15.5 -53.167 -15.5 -70.5c0 -34.667 14 -58.667 42 -72c17.333 -8 50 -14 98 -18v-37h-406zM410.999 1479l256 341h128l256 -341h-71l-249 211
l-249 -211h-71zM730.999 1379z" />
    <glyph glyph-name="Atilde" unicode="&#xc3;" 
d="M914 526l-237 564l-234 -564h471zM30 0l-0.000976562 36.999c52.667 6 92.167 26 118.5 60s71.5 126.333 135.5 277l427 1005h40l510 -1161c34 -77.333 61.167 -125.166 81.5 -143.499s54.5 -30.833 102.5 -37.5v-37h-521v37c60 5.33301 98.667 11.833 116 19.5
s26 26.5 26 56.5c0 10 -3.33301 27.667 -10 53s-16 52 -28 80l-85 197h-536c-53.333 -134 -85.166 -215.833 -95.499 -245.5s-15.5 -53.167 -15.5 -70.5c0 -34.667 14 -58.667 42 -72c17.333 -8 50 -14 98 -18v-37h-406zM794.999 1675
c23.333 -11.333 42.167 -19.166 56.5 -23.499s28.166 -6.5 41.499 -6.5c34 0 62 12.667 84 38c14.667 16 26 37.333 34 64h59c-3.33301 -36 -16.333 -73.333 -39 -112c-41.333 -69.333 -101.333 -104 -180 -104c-28 0 -54.167 4 -78.5 12s-51.5 19.667 -81.5 35l-47 24
c-11.333 5.33301 -24.166 10.166 -38.499 14.499s-27.5 6.5 -39.5 6.5c-34 0 -61 -11.333 -81 -34c-10.667 -12.667 -21 -32 -31 -58h-62c17.333 71.333 46 123.5 86 156.5s83.667 49.5 131 49.5c22 0 43.833 -3.16699 65.5 -9.5s45.5 -15.833 71.5 -28.5zM731 1379z" />
    <glyph glyph-name="Adieresis" unicode="&#xc4;" 
d="M914 526l-237 564l-234 -564h471zM30 0l-0.000976562 36.999c52.667 6 92.167 26 118.5 60s71.5 126.333 135.5 277l427 1005h40l510 -1161c34 -77.333 61.167 -125.166 81.5 -143.499s54.5 -30.833 102.5 -37.5v-37h-521v37c60 5.33301 98.667 11.833 116 19.5
s26 26.5 26 56.5c0 10 -3.33301 27.667 -10 53s-16 52 -28 80l-85 197h-536c-53.333 -134 -85.166 -215.833 -95.499 -245.5s-15.5 -53.167 -15.5 -70.5c0 -34.667 14 -58.667 42 -72c17.333 -8 50 -14 98 -18v-37h-406zM1007.5 1542c-19.667 -20 -43.834 -30 -72.501 -30
c-28 0 -52 10 -72 30s-30 44 -30 72s10 52 30 72s44 30 72 30c28.667 0 52.834 -10 72.501 -30s29.5 -44 29.5 -72s-9.83301 -52 -29.5 -72zM455.499 1686c19.667 20 43.5 30 71.5 30c28.667 0 52.834 -10 72.501 -30s29.5 -44 29.5 -72s-9.83301 -52 -29.5 -72
s-43.834 -30 -72.501 -30c-28 0 -51.833 10 -71.5 30s-29.5 44 -29.5 72s9.83301 52 29.5 72zM730.999 1379z" />
    <glyph glyph-name="Aring" unicode="&#xc5;" 
d="M914 526l-237 564l-234 -564h471zM30 0l-0.000976562 36.999c52.667 6 92.167 26 118.5 60s71.5 126.333 135.5 277l427 1005h40l510 -1161c34 -77.333 61.167 -125.166 81.5 -143.499s54.5 -30.833 102.5 -37.5v-37h-521v37c60 5.33301 98.667 11.833 116 19.5
s26 26.5 26 56.5c0 10 -3.33301 27.667 -10 53s-16 52 -28 80l-85 197h-536c-53.333 -134 -85.166 -215.833 -95.499 -245.5s-15.5 -53.167 -15.5 -70.5c0 -34.667 14 -58.667 42 -72c17.333 -8 50 -14 98 -18v-37h-406zM641.999 1536.5
c24.667 -24.333 54.334 -36.502 89.001 -36.502s64.167 12.333 88.5 37s36.5 54.334 36.5 89.001s-12.167 64.167 -36.5 88.5s-53.833 36.5 -88.5 36.5s-64.334 -12.167 -89.001 -36.5s-37 -53.833 -37 -88.5c0 -35.333 12.333 -65.166 37 -89.499zM583.499 1773
c41 40.667 90.167 61 147.5 61s106.333 -20.333 147 -61s61 -89.667 61 -147c0 -58 -20.333 -107.333 -61 -148s-89.667 -61 -147 -61c-58 0 -107.333 20.333 -148 61s-61 90 -61 148c0 57.333 20.5 106.333 61.5 147zM730.999 1379z" />
    <glyph glyph-name="AE" unicode="&#xc6;" horiz-adv-x="1821" 
d="M500 611h324v645zM9 37c43.333 7.33301 75.665 19.498 96.998 36.498s49 58.833 83 125.5l85 166l418 824c4 8 7.66699 17.333 11 28s5 20 5 28c0 25.333 -14.333 43 -43 53s-75 15.667 -139 17v40h1161v-291h-50c-8.66699 85.333 -33.834 142.5 -75.501 171.5
s-100.167 43.5 -175.5 43.5h-303c-24 0 -39.167 -5.66699 -45.5 -17s-9.5 -25.333 -9.5 -42v-471h228c112.667 0 183.334 13.333 212.001 40s48 79.667 58 159h43v-479h-43c-9.33301 72.667 -25.666 124.667 -48.999 156c-22.667 32 -73.334 48 -152.001 48h-297v-491
c0 -49.333 11.5 -78.666 34.5 -87.999s89.167 -14 198.5 -14c128.667 0 224.834 14.167 288.501 42.5s123.834 101.166 180.501 218.499h50l-93 -339l-1045 -2v37c80.667 10.667 131.167 24.834 151.5 42.501s30.5 64.5 30.5 140.5v313h-360
c-82 -162 -133.667 -266.833 -155 -314.5s-32 -84.5 -32 -110.5c0 -22 10.333 -37.667 31 -47s57 -15.666 109 -18.999v-42h-408v37z" />
    <glyph glyph-name="Ccedilla" unicode="&#xc7;" horiz-adv-x="1366" 
d="M986 1346c78 -22 121.668 -33.001 131.001 -33.001c19.333 0 37.666 5.33301 54.999 16s29.333 27.334 36 50.001h43l19 -460h-47c-27.333 91.333 -63 165 -107 221c-84 105.333 -197 158 -339 158c-143.333 0 -260.5 -56.667 -351.5 -170s-136.5 -269.333 -136.5 -468
c0 -182.667 47.833 -328.5 143.5 -437.5s216.834 -163.5 363.501 -163.5c106 0 203.667 25.333 293 76c51.333 28.667 107.666 72 168.999 130l38 -38c-45.333 -57.333 -101.666 -107.666 -168.999 -150.999c-114.667 -73.333 -239 -110 -373 -110
c-26 0 -49.333 0.666992 -70 2l-38 -104c12.667 2.66699 23.5 4.66699 32.5 6s18.833 2 29.5 2c50.667 0 91.334 -13.333 122.001 -40s46 -61 46 -103c0 -48.667 -21 -89.667 -63 -123s-107 -50 -195 -50c-16.667 0 -36 1.66699 -58 5
c-38.667 5.33301 -75.334 14.666 -110.001 27.999l28 64l31 -9c8 -2.66699 21.167 -5.66699 39.5 -9s36.833 -5 55.5 -5c29.333 0 52.666 3.66699 69.999 11c32.667 12.667 49 37.334 49 74.001c0 26.667 -8.33301 46.5 -25 59.5s-38 19.5 -64 19.5
c-20 0 -34.833 -0.833008 -44.5 -2.5s-20.834 -4.16699 -33.501 -7.5l-14 12l74 179c-174 18.667 -311.667 89.5 -413 212.5s-152 281.833 -152 476.5c0 199.333 63 366.666 189 501.999c132.667 142 305.334 213 518.001 213c74 0 150 -11 228 -33z" />
    <glyph glyph-name="Egrave" unicode="&#xc8;" horiz-adv-x="1251" 
d="M23 37c75.333 8 124.167 21.501 146.5 40.501s33.5 67.167 33.5 144.5v911c0 72.667 -11 120.167 -33 142.5s-71 36.166 -147 41.499v38h1088l7 -294h-52c-17.333 90.667 -43.333 149.334 -78 176.001s-112 40 -232 40h-278c-30 0 -48.5 -4.83301 -55.5 -14.5
s-10.5 -27.834 -10.5 -54.501v-457h315c87.333 0 143 13 167 39s43.333 78.667 58 158h48v-474h-48c-15.333 79.333 -35 131.833 -59 157.5s-79.333 38.5 -166 38.5h-315v-507c0 -40.667 12.833 -64.667 38.5 -72s102.5 -11 230.5 -11c138.667 0 241 15.167 307 45.5
s125.333 103.833 178 220.5h57l-93 -346h-1107v37zM789.001 1455l-83 0.00195312l-315 199c-22 14 -37.833 27.667 -47.5 41s-14.5 28.666 -14.5 45.999c0 19.333 7 35.166 21 47.499s30 18.5 48 18.5c17.333 0 33.333 -4.83301 48 -14.5s28.667 -21.167 42 -34.5z
M627.001 1355z" />
    <glyph glyph-name="Eacute" unicode="&#xc9;" horiz-adv-x="1251" 
d="M23 37c75.333 8 124.167 21.501 146.5 40.501s33.5 67.167 33.5 144.5v911c0 72.667 -11 120.167 -33 142.5s-71 36.166 -147 41.499v38h1088l7 -294h-52c-17.333 90.667 -43.333 149.334 -78 176.001s-112 40 -232 40h-278c-30 0 -48.5 -4.83301 -55.5 -14.5
s-10.5 -27.834 -10.5 -54.501v-457h315c87.333 0 143 13 167 39s43.333 78.667 58 158h48v-474h-48c-15.333 79.333 -35 131.833 -59 157.5s-79.333 38.5 -166 38.5h-315v-507c0 -40.667 12.833 -64.667 38.5 -72s102.5 -11 230.5 -11c138.667 0 241 15.167 307 45.5
s125.333 103.833 178 220.5h57l-93 -346h-1107v37zM927.001 1693c-10.667 -12.667 -26.332 -25.667 -46.999 -39l-315 -199h-83l301 303c10.667 10.667 24 21.667 40 33s33 17 51 17c17.333 0 33.166 -6.16699 47.499 -18.5s21.5 -28.5 21.5 -48.5
c0 -19.333 -5.33301 -35.333 -16 -48zM627.003 1355z" />
    <glyph glyph-name="Ecircumflex" unicode="&#xca;" horiz-adv-x="1251" 
d="M23 37c75.333 8 124.167 21.501 146.5 40.501s33.5 67.167 33.5 144.5v911c0 72.667 -11 120.167 -33 142.5s-71 36.166 -147 41.499v38h1088l7 -294h-52c-17.333 90.667 -43.333 149.334 -78 176.001s-112 40 -232 40h-278c-30 0 -48.5 -4.83301 -55.5 -14.5
s-10.5 -27.834 -10.5 -54.501v-457h315c87.333 0 143 13 167 39s43.333 78.667 58 158h48v-474h-48c-15.333 79.333 -35 131.833 -59 157.5s-79.333 38.5 -166 38.5h-315v-507c0 -40.667 12.833 -64.667 38.5 -72s102.5 -11 230.5 -11c138.667 0 241 15.167 307 45.5
s125.333 103.833 178 220.5h57l-93 -346h-1107v37zM307.001 1455l256 341h128l256 -341h-71l-249 211l-249 -211h-71zM627.001 1355z" />
    <glyph glyph-name="Edieresis" unicode="&#xcb;" horiz-adv-x="1251" 
d="M23 37c75.333 8 124.167 21.501 146.5 40.501s33.5 67.167 33.5 144.5v911c0 72.667 -11 120.167 -33 142.5s-71 36.166 -147 41.499v38h1088l7 -294h-52c-17.333 90.667 -43.333 149.334 -78 176.001s-112 40 -232 40h-278c-30 0 -48.5 -4.83301 -55.5 -14.5
s-10.5 -27.834 -10.5 -54.501v-457h315c87.333 0 143 13 167 39s43.333 78.667 58 158h48v-474h-48c-15.333 79.333 -35 131.833 -59 157.5s-79.333 38.5 -166 38.5h-315v-507c0 -40.667 12.833 -64.667 38.5 -72s102.5 -11 230.5 -11c138.667 0 241 15.167 307 45.5
s125.333 103.833 178 220.5h57l-93 -346h-1107v37zM903.501 1518c-19.667 -20 -43.834 -30 -72.501 -30c-28 0 -52 10 -72 30s-30 44 -30 72s10 52 30 72s44 30 72 30c28.667 0 52.834 -10 72.501 -30s29.5 -44 29.5 -72s-9.83301 -52 -29.5 -72zM351.501 1662
c19.667 20 43.5 30 71.5 30c28.667 0 52.834 -10 72.501 -30s29.5 -44 29.5 -72s-9.83301 -52 -29.5 -72s-43.834 -30 -72.501 -30c-28 0 -51.833 10 -71.5 30s-29.5 44 -29.5 72s9.83301 52 29.5 72zM627.001 1355z" />
    <glyph glyph-name="Igrave" unicode="&#xcc;" horiz-adv-x="682" 
d="M33 37c83.333 6 137.333 18.5 162 37.5s37 68.167 37 147.5v911c0 75.333 -12.333 123.833 -37 145.5s-78.667 34.5 -162 38.5v38h606v-38c-83.333 -4 -137.333 -16.833 -162 -38.5s-37 -70.167 -37 -145.5v-911c0 -79.333 12.333 -128.5 37 -147.5
s78.667 -31.5 162 -37.5v-37h-606v37zM498 1455l-83 0.00195312l-315 199c-22 14 -37.833 27.667 -47.5 41s-14.5 28.666 -14.5 45.999c0 19.333 7 35.166 21 47.499s30 18.5 48 18.5c17.333 0 33.333 -4.83301 48 -14.5s28.667 -21.167 42 -34.5zM336 1355z" />
    <glyph glyph-name="Iacute" unicode="&#xcd;" horiz-adv-x="682" 
d="M33 37c83.333 6 137.333 18.5 162 37.5s37 68.167 37 147.5v911c0 75.333 -12.333 123.833 -37 145.5s-78.667 34.5 -162 38.5v38h606v-38c-83.333 -4 -137.333 -16.833 -162 -38.5s-37 -70.167 -37 -145.5v-911c0 -79.333 12.333 -128.5 37 -147.5
s78.667 -31.5 162 -37.5v-37h-606v37zM636 1693c-10.667 -12.667 -26.332 -25.667 -46.999 -39l-315 -199h-83l301 303c10.667 10.667 24 21.667 40 33s33 17 51 17c17.333 0 33.166 -6.16699 47.499 -18.5s21.5 -28.5 21.5 -48.5c0 -19.333 -5.33301 -35.333 -16 -48z
M336.002 1355z" />
    <glyph glyph-name="Icircumflex" unicode="&#xce;" horiz-adv-x="682" 
d="M33 37c83.333 6 137.333 18.5 162 37.5s37 68.167 37 147.5v911c0 75.333 -12.333 123.833 -37 145.5s-78.667 34.5 -162 38.5v38h606v-38c-83.333 -4 -137.333 -16.833 -162 -38.5s-37 -70.167 -37 -145.5v-911c0 -79.333 12.333 -128.5 37 -147.5
s78.667 -31.5 162 -37.5v-37h-606v37zM16 1455l256 341h128l256 -341h-71l-249 211l-249 -211h-71zM336 1355z" />
    <glyph glyph-name="Idieresis" unicode="&#xcf;" horiz-adv-x="682" 
d="M33 37c83.333 6 137.333 18.5 162 37.5s37 68.167 37 147.5v911c0 75.333 -12.333 123.833 -37 145.5s-78.667 34.5 -162 38.5v38h606v-38c-83.333 -4 -137.333 -16.833 -162 -38.5s-37 -70.167 -37 -145.5v-911c0 -79.333 12.333 -128.5 37 -147.5
s78.667 -31.5 162 -37.5v-37h-606v37zM612.5 1518c-19.667 -20 -43.834 -30 -72.501 -30c-28 0 -52 10 -72 30s-30 44 -30 72s10 52 30 72s44 30 72 30c28.667 0 52.834 -10 72.501 -30s29.5 -44 29.5 -72s-9.83301 -52 -29.5 -72zM60.5 1662c19.667 20 43.5 30 71.5 30
c28.667 0 52.834 -10 72.501 -30s29.5 -44 29.5 -72s-9.83301 -52 -29.5 -72s-43.834 -30 -72.501 -30c-28 0 -51.833 10 -71.5 30s-29.5 44 -29.5 72s9.83301 52 29.5 72zM336 1355z" />
    <glyph glyph-name="Eth" unicode="&#xd0;" 
d="M33 37c74.667 8 123.334 21.502 146.001 40.502s34 67.167 34 144.5v422h-180v90h180v399c0 74.667 -11 122.667 -33 144s-71 34.666 -147 39.999v38h552c238 0 427.333 -49 568 -147c166.667 -116.667 250 -295 250 -535c0 -88.667 -17.833 -180.334 -53.5 -275.001
s-100.834 -177.667 -195.501 -249c-53.333 -40 -108.666 -70.333 -165.999 -91c-104.667 -38.667 -233.334 -58 -386.001 -58h-569v37zM445.5 92.002c16.333 -10.667 50.167 -15.999 101.5 -15.999c160 0 291.667 31.667 395 95c158.667 97.333 238 263.666 238 498.999
c0 210 -65.333 368 -196 474c-112 90.667 -260.333 136 -445 136c-46 0 -77.167 -5 -93.5 -15s-24.5 -32 -24.5 -66v-465h342v-90h-342v-486c0 -33.333 8.16699 -55.333 24.5 -66z" />
    <glyph glyph-name="Ntilde" unicode="&#xd1;" 
d="M23 37c84.667 8.66699 139 27.835 163 57.502s36 98.5 36 206.5v903l-28 33c-30 35.333 -55.5 57.166 -76.5 65.499s-52.5 13.166 -94.5 14.499v38h351l789 -986v685c0 112.667 -16.667 186 -50 220c-22 22 -70.667 36.333 -146 43v38h481v-38c-78 -8 -130 -27 -156 -57
s-39 -98.667 -39 -206v-1078h-35l-906 1123v-798c0 -112 16.333 -185 49 -219c21.333 -22 69 -37 143 -45v-37h-481v37zM805 1651c23.333 -11.333 42.167 -19.166 56.5 -23.499s28.166 -6.5 41.499 -6.5c34 0 62 12.667 84 38c14.667 16 26 37.333 34 64h59
c-3.33301 -36 -16.333 -73.333 -39 -112c-41.333 -69.333 -101.333 -104 -180 -104c-28 0 -54.167 4 -78.5 12s-51.5 19.667 -81.5 35l-47 24c-11.333 5.33301 -24.166 10.166 -38.499 14.499s-27.5 6.5 -39.5 6.5c-34 0 -61 -11.333 -81 -34
c-10.667 -12.667 -21 -32 -31 -58h-62c17.333 71.333 46 123.5 86 156.5s83.667 49.5 131 49.5c22 0 43.833 -3.16699 65.5 -9.5s45.5 -15.833 71.5 -28.5zM741.001 1355z" />
    <glyph glyph-name="Ograve" unicode="&#xd2;" 
d="M420 199.5c84.667 -103 188.667 -154.499 312 -154.499c120.667 0 223.834 50.167 309.501 150.5s128.5 260.833 128.5 481.5c0 223.333 -43.333 384.666 -130 483.999s-189.334 149 -308.001 149c-122.667 0 -226.5 -51.5 -311.5 -154.5s-127.5 -262.5 -127.5 -478.5
c0 -215.333 42.333 -374.5 127 -477.5zM267 1203c126 120.667 281 181 465 181c184.667 0 340 -60.667 466 -182c136.667 -131.333 205 -306.333 205 -525c0 -222 -70.667 -398.667 -212 -530c-126.667 -117.333 -279.667 -176 -459 -176c-192 0 -351.333 65 -478 195
c-128.667 132.667 -193 303 -193 511c0 218.667 68.667 394 206 526zM894 1484l-83 0.00195312l-315 199c-22 14 -37.833 27.667 -47.5 41s-14.5 28.666 -14.5 45.999c0 19.333 7 35.166 21 47.499s30 18.5 48 18.5c17.333 0 33.333 -4.83301 48 -14.5
s28.667 -21.167 42 -34.5zM732 1384z" />
    <glyph glyph-name="Oacute" unicode="&#xd3;" 
d="M420 199.5c84.667 -103 188.667 -154.499 312 -154.499c120.667 0 223.834 50.167 309.501 150.5s128.5 260.833 128.5 481.5c0 223.333 -43.333 384.666 -130 483.999s-189.334 149 -308.001 149c-122.667 0 -226.5 -51.5 -311.5 -154.5s-127.5 -262.5 -127.5 -478.5
c0 -215.333 42.333 -374.5 127 -477.5zM267 1203c126 120.667 281 181 465 181c184.667 0 340 -60.667 466 -182c136.667 -131.333 205 -306.333 205 -525c0 -222 -70.667 -398.667 -212 -530c-126.667 -117.333 -279.667 -176 -459 -176c-192 0 -351.333 65 -478 195
c-128.667 132.667 -193 303 -193 511c0 218.667 68.667 394 206 526zM1032 1722c-10.667 -12.667 -26.332 -25.667 -46.999 -39l-315 -199h-83l301 303c10.667 10.667 24 21.667 40 33s33 17 51 17c17.333 0 33.166 -6.16699 47.499 -18.5s21.5 -28.5 21.5 -48.5
c0 -19.333 -5.33301 -35.333 -16 -48zM732.002 1384z" />
    <glyph glyph-name="Ocircumflex" unicode="&#xd4;" 
d="M420 199.5c84.667 -103 188.667 -154.499 312 -154.499c120.667 0 223.834 50.167 309.501 150.5s128.5 260.833 128.5 481.5c0 223.333 -43.333 384.666 -130 483.999s-189.334 149 -308.001 149c-122.667 0 -226.5 -51.5 -311.5 -154.5s-127.5 -262.5 -127.5 -478.5
c0 -215.333 42.333 -374.5 127 -477.5zM267 1203c126 120.667 281 181 465 181c184.667 0 340 -60.667 466 -182c136.667 -131.333 205 -306.333 205 -525c0 -222 -70.667 -398.667 -212 -530c-126.667 -117.333 -279.667 -176 -459 -176c-192 0 -351.333 65 -478 195
c-128.667 132.667 -193 303 -193 511c0 218.667 68.667 394 206 526zM412 1484l256 341h128l256 -341h-71l-249 211l-249 -211h-71zM732 1384z" />
    <glyph glyph-name="Otilde" unicode="&#xd5;" 
d="M420 199.5c84.667 -103 188.667 -154.499 312 -154.499c120.667 0 223.834 50.167 309.501 150.5s128.5 260.833 128.5 481.5c0 223.333 -43.333 384.666 -130 483.999s-189.334 149 -308.001 149c-122.667 0 -226.5 -51.5 -311.5 -154.5s-127.5 -262.5 -127.5 -478.5
c0 -215.333 42.333 -374.5 127 -477.5zM267 1203c126 120.667 281 181 465 181c184.667 0 340 -60.667 466 -182c136.667 -131.333 205 -306.333 205 -525c0 -222 -70.667 -398.667 -212 -530c-126.667 -117.333 -279.667 -176 -459 -176c-192 0 -351.333 65 -478 195
c-128.667 132.667 -193 303 -193 511c0 218.667 68.667 394 206 526zM796 1680c23.333 -11.333 42.167 -19.166 56.5 -23.499s28.166 -6.5 41.499 -6.5c34 0 62 12.667 84 38c14.667 16 26 37.333 34 64h59c-3.33301 -36 -16.333 -73.333 -39 -112
c-41.333 -69.333 -101.333 -104 -180 -104c-28 0 -54.167 4 -78.5 12s-51.5 19.667 -81.5 35l-47 24c-11.333 5.33301 -24.166 10.166 -38.499 14.499s-27.5 6.5 -39.5 6.5c-34 0 -61 -11.333 -81 -34c-10.667 -12.667 -21 -32 -31 -58h-62c17.333 71.333 46 123.5 86 156.5
s83.667 49.5 131 49.5c22 0 43.833 -3.16699 65.5 -9.5s45.5 -15.833 71.5 -28.5zM732.001 1384z" />
    <glyph glyph-name="Odieresis" unicode="&#xd6;" 
d="M420 199.5c84.667 -103 188.667 -154.499 312 -154.499c120.667 0 223.834 50.167 309.501 150.5s128.5 260.833 128.5 481.5c0 223.333 -43.333 384.666 -130 483.999s-189.334 149 -308.001 149c-122.667 0 -226.5 -51.5 -311.5 -154.5s-127.5 -262.5 -127.5 -478.5
c0 -215.333 42.333 -374.5 127 -477.5zM267 1203c126 120.667 281 181 465 181c184.667 0 340 -60.667 466 -182c136.667 -131.333 205 -306.333 205 -525c0 -222 -70.667 -398.667 -212 -530c-126.667 -117.333 -279.667 -176 -459 -176c-192 0 -351.333 65 -478 195
c-128.667 132.667 -193 303 -193 511c0 218.667 68.667 394 206 526zM1008.5 1547c-19.667 -20 -43.834 -30 -72.501 -30c-28 0 -52 10 -72 30s-30 44 -30 72s10 52 30 72s44 30 72 30c28.667 0 52.834 -10 72.501 -30s29.5 -44 29.5 -72s-9.83301 -52 -29.5 -72z
M456.5 1691c19.667 20 43.5 30 71.5 30c28.667 0 52.834 -10 72.501 -30s29.5 -44 29.5 -72s-9.83301 -52 -29.5 -72s-43.834 -30 -72.501 -30c-28 0 -51.833 10 -71.5 30s-29.5 44 -29.5 72s9.83301 52 29.5 72zM732 1384z" />
    <glyph glyph-name="multiply" unicode="&#xd7;" horiz-adv-x="1155" 
d="M1069 125l-100 -99l-394 391l-391 -391l-99 99l391 394l-391 391l99 99l391 -391l394 391l100 -99l-394 -391z" />
    <glyph glyph-name="Oslash" unicode="&#xd8;" 
d="M555 88c54.667 -28.667 116.666 -43 185.999 -43c118.667 0 219.834 52.833 303.501 158.5s125.5 262.167 125.5 469.5c0 100.667 -7.5 183 -22.5 247s-39.833 127.667 -74.5 191l-633 -938c30 -32 68.333 -60.333 115 -85zM1023 1182
c-43.333 38.667 -80.667 66.3311 -112 82.998c-56 30 -118 45 -186 45c-125.333 0 -228.666 -55.167 -309.999 -165.5s-122 -266.166 -122 -467.499c0 -96 8.33301 -177.333 25 -244c17.333 -73.333 40.666 -135.666 69.999 -186.999zM933.498 1354.5
c60.333 -19.667 113.167 -43.832 158.5 -72.499l150 220h99l-182 -268c59.333 -47.333 113.333 -113.666 162 -198.999c54.667 -99.333 82 -218.666 82 -357.999c0 -218.667 -68.667 -393.334 -206 -524.001c-127.333 -121.333 -285.333 -182 -474 -182c-40 0 -81 4 -123 12
c-78.667 15.333 -154.667 43.666 -228 84.999l-164 -234h-99l194 282c-73.333 73.333 -126 139.666 -158 198.999c-56 102 -84 222.667 -84 362c0 218.667 68.667 394 206 526c126 120.667 281 181 465 181c74 0 141.167 -9.83301 201.5 -29.5z" />
    <glyph glyph-name="Ugrave" unicode="&#xd9;" 
d="M609 1355v-37.999c-78.667 -5.33301 -129.667 -18.5 -153 -39.5s-35 -69.167 -35 -144.5v-655c0 -107.333 14.667 -191 44 -251c54.667 -109.333 158.334 -164 311.001 -164c167.333 0 279.666 56 336.999 168c32 62.667 48 159.334 48 290.001v533
c0 111.333 -13.333 181.166 -40 209.499s-77.334 46.166 -152.001 53.499v38h474v-38c-79.333 -8.66699 -131.166 -27.834 -155.499 -57.501s-36.5 -98.167 -36.5 -205.5v-533c0 -141.333 -21.667 -251.666 -65 -330.999c-80 -146 -232 -219 -456 -219
c-221.333 0 -372 72 -452 216c-43.333 77.333 -65 179.333 -65 306v640c0 74.667 -11.5 122.5 -34.5 143.5s-73.167 34.5 -150.5 40.5v38h581zM903 1455l-83 0.00195312l-315 199c-22 14 -37.833 27.667 -47.5 41s-14.5 28.666 -14.5 45.999c0 19.333 7 35.166 21 47.499
s30 18.5 48 18.5c17.333 0 33.333 -4.83301 48 -14.5s28.667 -21.167 42 -34.5zM741 1355z" />
    <glyph glyph-name="Uacute" unicode="&#xda;" 
d="M609 1355v-37.999c-78.667 -5.33301 -129.667 -18.5 -153 -39.5s-35 -69.167 -35 -144.5v-655c0 -107.333 14.667 -191 44 -251c54.667 -109.333 158.334 -164 311.001 -164c167.333 0 279.666 56 336.999 168c32 62.667 48 159.334 48 290.001v533
c0 111.333 -13.333 181.166 -40 209.499s-77.334 46.166 -152.001 53.499v38h474v-38c-79.333 -8.66699 -131.166 -27.834 -155.499 -57.501s-36.5 -98.167 -36.5 -205.5v-533c0 -141.333 -21.667 -251.666 -65 -330.999c-80 -146 -232 -219 -456 -219
c-221.333 0 -372 72 -452 216c-43.333 77.333 -65 179.333 -65 306v640c0 74.667 -11.5 122.5 -34.5 143.5s-73.167 34.5 -150.5 40.5v38h581zM1041 1693c-10.667 -12.667 -26.332 -25.667 -46.999 -39l-315 -199h-83l301 303c10.667 10.667 24 21.667 40 33s33 17 51 17
c17.333 0 33.166 -6.16699 47.499 -18.5s21.5 -28.5 21.5 -48.5c0 -19.333 -5.33301 -35.333 -16 -48zM741.002 1355z" />
    <glyph glyph-name="Ucircumflex" unicode="&#xdb;" 
d="M609 1355v-37.999c-78.667 -5.33301 -129.667 -18.5 -153 -39.5s-35 -69.167 -35 -144.5v-655c0 -107.333 14.667 -191 44 -251c54.667 -109.333 158.334 -164 311.001 -164c167.333 0 279.666 56 336.999 168c32 62.667 48 159.334 48 290.001v533
c0 111.333 -13.333 181.166 -40 209.499s-77.334 46.166 -152.001 53.499v38h474v-38c-79.333 -8.66699 -131.166 -27.834 -155.499 -57.501s-36.5 -98.167 -36.5 -205.5v-533c0 -141.333 -21.667 -251.666 -65 -330.999c-80 -146 -232 -219 -456 -219
c-221.333 0 -372 72 -452 216c-43.333 77.333 -65 179.333 -65 306v640c0 74.667 -11.5 122.5 -34.5 143.5s-73.167 34.5 -150.5 40.5v38h581zM421 1455l256 341h128l256 -341h-71l-249 211l-249 -211h-71zM741 1355z" />
    <glyph glyph-name="Udieresis" unicode="&#xdc;" 
d="M609 1355v-37.999c-78.667 -5.33301 -129.667 -18.5 -153 -39.5s-35 -69.167 -35 -144.5v-655c0 -107.333 14.667 -191 44 -251c54.667 -109.333 158.334 -164 311.001 -164c167.333 0 279.666 56 336.999 168c32 62.667 48 159.334 48 290.001v533
c0 111.333 -13.333 181.166 -40 209.499s-77.334 46.166 -152.001 53.499v38h474v-38c-79.333 -8.66699 -131.166 -27.834 -155.499 -57.501s-36.5 -98.167 -36.5 -205.5v-533c0 -141.333 -21.667 -251.666 -65 -330.999c-80 -146 -232 -219 -456 -219
c-221.333 0 -372 72 -452 216c-43.333 77.333 -65 179.333 -65 306v640c0 74.667 -11.5 122.5 -34.5 143.5s-73.167 34.5 -150.5 40.5v38h581zM1017.5 1518c-19.667 -20 -43.834 -30 -72.501 -30c-28 0 -52 10 -72 30s-30 44 -30 72s10 52 30 72s44 30 72 30
c28.667 0 52.834 -10 72.501 -30s29.5 -44 29.5 -72s-9.83301 -52 -29.5 -72zM465.5 1662c19.667 20 43.5 30 71.5 30c28.667 0 52.834 -10 72.501 -30s29.5 -44 29.5 -72s-9.83301 -52 -29.5 -72s-43.834 -30 -72.501 -30c-28 0 -51.833 10 -71.5 30s-29.5 44 -29.5 72
s9.83301 52 29.5 72zM741 1355z" />
    <glyph glyph-name="Yacute" unicode="&#xdd;" 
d="M618 1355l-0.000976562 -37.9932c-48 1.33301 -84 -2.33398 -108 -11.001s-36 -27.334 -36 -56.001c0 -8.66699 2 -19.5 6 -32.5s13 -30.167 27 -51.5l303 -455l294 462c12 19.333 19.833 35.333 23.5 48s5.5 22 5.5 28c0 29.333 -15.667 48.666 -47 57.999
c-18.667 6 -50.667 9.33301 -96 10v38h448v-38c-41.333 -2 -78.333 -14.333 -111 -37c-50.667 -35.333 -107.667 -101 -171 -197l-303 -462v-399c0 -79.333 12.833 -128.833 38.5 -148.5s83.167 -31.834 172.5 -36.501v-37h-626v37
c92.667 5.33301 150.167 19.166 172.5 41.499s33.5 78.166 33.5 167.499v356l-268 393c-92.667 135.333 -157.667 222.166 -195 260.499s-82.666 58.833 -135.999 61.5v38h573zM1041 1693.01c-10.667 -12.667 -26.332 -25.667 -46.999 -39l-315 -199h-83l301 303
c10.667 10.667 24 21.667 40 33s33 17 51 17c17.333 0 33.166 -6.16699 47.499 -18.5s21.5 -28.5 21.5 -48.5c0 -19.333 -5.33301 -35.333 -16 -48zM741.001 1355.01z" />
    <glyph glyph-name="Thorn" unicode="&#xde;" horiz-adv-x="1139" 
d="M33 37c73.333 6.66699 120.832 21.833 142.499 45.5s32.5 78.167 32.5 163.5v887c0 71.333 -10.833 118.333 -32.5 141s-69.167 37 -142.5 43v38h564v-38c-74 -2.66699 -123.667 -13.667 -149 -33s-38 -58.666 -38 -117.999c0 -8 0.166992 -14.167 0.5 -18.5
s0.833008 -15.5 1.5 -33.5h159c108 0 209.333 -15 304 -45c154 -52 231 -157.333 231 -316c0 -66.667 -17.833 -133.334 -53.5 -200.001s-94.167 -117 -175.5 -151c-58 -24 -128.667 -39.667 -212 -47c-51.333 -4.66699 -135.666 -7 -252.999 -7v-84
c0 -94 10.5 -153.667 31.5 -179s75.167 -41.333 162.5 -48v-37h-573v37zM744.999 1005c-54.667 24.667 -124.332 37 -208.999 37c-59.333 0 -94.833 -6 -106.5 -18s-17.5 -42.333 -17.5 -91v-502l72 -3c101.333 0 181.666 14.333 240.999 43
c109.333 52.667 164 152.667 164 300c0 112.667 -48 190.667 -144 234z" />
    <glyph glyph-name="germandbls" unicode="&#xdf;" horiz-adv-x="1024" 
d="M23 30c46.667 4 77.665 12.334 92.998 25.001c23.333 19.333 35 58.666 35 117.999v758c0 120 15 214 45 282c54.667 125.333 158.334 188 311.001 188c102 0 186.667 -26.5 254 -79.5s101 -127.833 101 -224.5c0 -101.333 -41.667 -183.666 -125 -246.999
c-45.333 -34.667 -96 -59.667 -152 -75c108 -27.333 188 -61 240 -101c89.333 -67.333 134 -166 134 -296c0 -110.667 -35.667 -205 -107 -283s-157 -117 -257 -117c-56 0 -103.667 13.333 -143 40s-59 64.667 -59 114c0 27.333 8.33301 50.333 25 69s38.334 28 65.001 28
c25.333 0 45.833 -7.5 61.5 -22.5s24.5 -35.167 26.5 -60.5l4 -45c1.33301 -18.667 6 -33.334 14 -44.001c7.33301 -11.333 23.333 -17 48 -17c54.667 0 92 39 112 117c10.667 42 16 100.667 16 176c0 133.333 -24.5 232.666 -73.5 297.999s-122.167 99 -219.5 101
c-13.333 0.666992 -23.833 3.5 -31.5 8.5s-11.5 13.5 -11.5 25.5c0 11.333 3.66699 18.833 11 22.5s19 6.5 35 8.5c55.333 6.66699 98 21.334 128 44.001c55.333 42 83 114 83 216c0 59.333 -9 113 -27 161c-32 85.333 -86.667 128 -164 128
c-62 0 -106.333 -23.333 -133 -70s-40 -108.667 -40 -186v-1090h-299v30z" />
    <glyph glyph-name="agrave" unicode="&#xe0;" horiz-adv-x="909" 
d="M587 554c-76.667 -25.333 -140 -53.333 -190 -84c-96 -59.333 -144 -126.666 -144 -201.999c0 -60.667 20 -105.334 60 -134.001c26 -18.667 55 -28 87 -28c44 0 86.167 12.333 126.5 37s60.5 56 60.5 94v317zM220 441c61.333 40 183.667 94.333 367 163v85
c0 68 -6.66699 115.333 -20 142c-22.667 44.667 -69.667 67 -141 67c-34 0 -66.333 -8.66699 -97 -26c-30.667 -18 -46 -42.667 -46 -74c0 -8 1.66699 -21.5 5 -40.5s5 -31.167 5 -36.5c0 -37.333 -12.333 -63.333 -37 -78c-14 -8.66699 -30.667 -13 -50 -13
c-30 0 -53 9.83301 -69 29.5s-24 41.5 -24 65.5c0 46.667 28.833 95.5 86.5 146.5s142.167 76.5 253.5 76.5c129.333 0 217 -42 263 -126c24.667 -46 37 -113 37 -201v-401c0 -38.667 2.66699 -65.334 8 -80.001c8.66699 -26 26.667 -39 54 -39c15.333 0 28 2.33301 38 7
s27.333 16 52 34v-52c-21.333 -26 -44.333 -47.333 -69 -64c-37.333 -25.333 -75.333 -38 -114 -38c-45.333 0 -78.166 14.667 -98.499 44s-31.5 64.333 -33.5 105c-50.667 -44 -94 -76.667 -130 -98c-60.667 -36 -118.334 -54 -173.001 -54
c-57.333 0 -107 20.167 -149 60.5s-63 91.5 -63 153.5c0 96.667 48.333 177.334 145 242.001zM618.001 1048l-83 0.00195312l-315 199c-22 14 -37.833 27.667 -47.5 41s-14.5 28.666 -14.5 45.999c0 19.333 7 35.166 21 47.499s30 18.5 48 18.5
c17.333 0 33.333 -4.83301 48 -14.5s28.667 -21.167 42 -34.5zM456.001 948.002z" />
    <glyph glyph-name="aacute" unicode="&#xe1;" horiz-adv-x="909" 
d="M587 554c-76.667 -25.333 -140 -53.333 -190 -84c-96 -59.333 -144 -126.666 -144 -201.999c0 -60.667 20 -105.334 60 -134.001c26 -18.667 55 -28 87 -28c44 0 86.167 12.333 126.5 37s60.5 56 60.5 94v317zM220 441c61.333 40 183.667 94.333 367 163v85
c0 68 -6.66699 115.333 -20 142c-22.667 44.667 -69.667 67 -141 67c-34 0 -66.333 -8.66699 -97 -26c-30.667 -18 -46 -42.667 -46 -74c0 -8 1.66699 -21.5 5 -40.5s5 -31.167 5 -36.5c0 -37.333 -12.333 -63.333 -37 -78c-14 -8.66699 -30.667 -13 -50 -13
c-30 0 -53 9.83301 -69 29.5s-24 41.5 -24 65.5c0 46.667 28.833 95.5 86.5 146.5s142.167 76.5 253.5 76.5c129.333 0 217 -42 263 -126c24.667 -46 37 -113 37 -201v-401c0 -38.667 2.66699 -65.334 8 -80.001c8.66699 -26 26.667 -39 54 -39c15.333 0 28 2.33301 38 7
s27.333 16 52 34v-52c-21.333 -26 -44.333 -47.333 -69 -64c-37.333 -25.333 -75.333 -38 -114 -38c-45.333 0 -78.166 14.667 -98.499 44s-31.5 64.333 -33.5 105c-50.667 -44 -94 -76.667 -130 -98c-60.667 -36 -118.334 -54 -173.001 -54
c-57.333 0 -107 20.167 -149 60.5s-63 91.5 -63 153.5c0 96.667 48.333 177.334 145 242.001zM756.001 1286c-10.667 -12.667 -26.332 -25.667 -46.999 -39l-315 -199h-83l301 303c10.667 10.667 24 21.667 40 33s33 17 51 17c17.333 0 33.166 -6.16699 47.499 -18.5
s21.5 -28.5 21.5 -48.5c0 -19.333 -5.33301 -35.333 -16 -48zM456.003 948z" />
    <glyph glyph-name="acircumflex" unicode="&#xe2;" horiz-adv-x="909" 
d="M587 554c-76.667 -25.333 -140 -53.333 -190 -84c-96 -59.333 -144 -126.666 -144 -201.999c0 -60.667 20 -105.334 60 -134.001c26 -18.667 55 -28 87 -28c44 0 86.167 12.333 126.5 37s60.5 56 60.5 94v317zM220 441c61.333 40 183.667 94.333 367 163v85
c0 68 -6.66699 115.333 -20 142c-22.667 44.667 -69.667 67 -141 67c-34 0 -66.333 -8.66699 -97 -26c-30.667 -18 -46 -42.667 -46 -74c0 -8 1.66699 -21.5 5 -40.5s5 -31.167 5 -36.5c0 -37.333 -12.333 -63.333 -37 -78c-14 -8.66699 -30.667 -13 -50 -13
c-30 0 -53 9.83301 -69 29.5s-24 41.5 -24 65.5c0 46.667 28.833 95.5 86.5 146.5s142.167 76.5 253.5 76.5c129.333 0 217 -42 263 -126c24.667 -46 37 -113 37 -201v-401c0 -38.667 2.66699 -65.334 8 -80.001c8.66699 -26 26.667 -39 54 -39c15.333 0 28 2.33301 38 7
s27.333 16 52 34v-52c-21.333 -26 -44.333 -47.333 -69 -64c-37.333 -25.333 -75.333 -38 -114 -38c-45.333 0 -78.166 14.667 -98.499 44s-31.5 64.333 -33.5 105c-50.667 -44 -94 -76.667 -130 -98c-60.667 -36 -118.334 -54 -173.001 -54
c-57.333 0 -107 20.167 -149 60.5s-63 91.5 -63 153.5c0 96.667 48.333 177.334 145 242.001zM136.001 1048l256 341h128l256 -341h-71l-249 211l-249 -211h-71zM456.001 948z" />
    <glyph glyph-name="atilde" unicode="&#xe3;" horiz-adv-x="909" 
d="M587 554c-76.667 -25.333 -140 -53.333 -190 -84c-96 -59.333 -144 -126.666 -144 -201.999c0 -60.667 20 -105.334 60 -134.001c26 -18.667 55 -28 87 -28c44 0 86.167 12.333 126.5 37s60.5 56 60.5 94v317zM220 441c61.333 40 183.667 94.333 367 163v85
c0 68 -6.66699 115.333 -20 142c-22.667 44.667 -69.667 67 -141 67c-34 0 -66.333 -8.66699 -97 -26c-30.667 -18 -46 -42.667 -46 -74c0 -8 1.66699 -21.5 5 -40.5s5 -31.167 5 -36.5c0 -37.333 -12.333 -63.333 -37 -78c-14 -8.66699 -30.667 -13 -50 -13
c-30 0 -53 9.83301 -69 29.5s-24 41.5 -24 65.5c0 46.667 28.833 95.5 86.5 146.5s142.167 76.5 253.5 76.5c129.333 0 217 -42 263 -126c24.667 -46 37 -113 37 -201v-401c0 -38.667 2.66699 -65.334 8 -80.001c8.66699 -26 26.667 -39 54 -39c15.333 0 28 2.33301 38 7
s27.333 16 52 34v-52c-21.333 -26 -44.333 -47.333 -69 -64c-37.333 -25.333 -75.333 -38 -114 -38c-45.333 0 -78.166 14.667 -98.499 44s-31.5 64.333 -33.5 105c-50.667 -44 -94 -76.667 -130 -98c-60.667 -36 -118.334 -54 -173.001 -54
c-57.333 0 -107 20.167 -149 60.5s-63 91.5 -63 153.5c0 96.667 48.333 177.334 145 242.001zM520.001 1244c23.333 -11.333 42.167 -19.166 56.5 -23.499s28.166 -6.5 41.499 -6.5c34 0 62 12.667 84 38c14.667 16 26 37.333 34 64h59
c-3.33301 -36 -16.333 -73.333 -39 -112c-41.333 -69.333 -101.333 -104 -180 -104c-28 0 -54.167 4 -78.5 12s-51.5 19.667 -81.5 35l-47 24c-11.333 5.33301 -24.166 10.166 -38.499 14.499s-27.5 6.5 -39.5 6.5c-34 0 -61 -11.333 -81 -34
c-10.667 -12.667 -21 -32 -31 -58h-62c17.333 71.333 46 123.5 86 156.5s83.667 49.5 131 49.5c22 0 43.833 -3.16699 65.5 -9.5s45.5 -15.833 71.5 -28.5zM456.002 948z" />
    <glyph glyph-name="adieresis" unicode="&#xe4;" horiz-adv-x="909" 
d="M587 554c-76.667 -25.333 -140 -53.333 -190 -84c-96 -59.333 -144 -126.666 -144 -201.999c0 -60.667 20 -105.334 60 -134.001c26 -18.667 55 -28 87 -28c44 0 86.167 12.333 126.5 37s60.5 56 60.5 94v317zM220 441c61.333 40 183.667 94.333 367 163v85
c0 68 -6.66699 115.333 -20 142c-22.667 44.667 -69.667 67 -141 67c-34 0 -66.333 -8.66699 -97 -26c-30.667 -18 -46 -42.667 -46 -74c0 -8 1.66699 -21.5 5 -40.5s5 -31.167 5 -36.5c0 -37.333 -12.333 -63.333 -37 -78c-14 -8.66699 -30.667 -13 -50 -13
c-30 0 -53 9.83301 -69 29.5s-24 41.5 -24 65.5c0 46.667 28.833 95.5 86.5 146.5s142.167 76.5 253.5 76.5c129.333 0 217 -42 263 -126c24.667 -46 37 -113 37 -201v-401c0 -38.667 2.66699 -65.334 8 -80.001c8.66699 -26 26.667 -39 54 -39c15.333 0 28 2.33301 38 7
s27.333 16 52 34v-52c-21.333 -26 -44.333 -47.333 -69 -64c-37.333 -25.333 -75.333 -38 -114 -38c-45.333 0 -78.166 14.667 -98.499 44s-31.5 64.333 -33.5 105c-50.667 -44 -94 -76.667 -130 -98c-60.667 -36 -118.334 -54 -173.001 -54
c-57.333 0 -107 20.167 -149 60.5s-63 91.5 -63 153.5c0 96.667 48.333 177.334 145 242.001zM732.501 1111c-19.667 -20 -43.834 -30 -72.501 -30c-28 0 -52 10 -72 30s-30 44 -30 72s10 52 30 72s44 30 72 30c28.667 0 52.834 -10 72.501 -30s29.5 -44 29.5 -72
s-9.83301 -52 -29.5 -72zM180.501 1255c19.667 20 43.5 30 71.5 30c28.667 0 52.834 -10 72.501 -30s29.5 -44 29.5 -72s-9.83301 -52 -29.5 -72s-43.834 -30 -72.501 -30c-28 0 -51.833 10 -71.5 30s-29.5 44 -29.5 72s9.83301 52 29.5 72zM456.001 948z" />
    <glyph glyph-name="aring" unicode="&#xe5;" horiz-adv-x="909" 
d="M587 554c-76.667 -25.333 -140 -53.333 -190 -84c-96 -59.333 -144 -126.666 -144 -201.999c0 -60.667 20 -105.334 60 -134.001c26 -18.667 55 -28 87 -28c44 0 86.167 12.333 126.5 37s60.5 56 60.5 94v317zM220 441c61.333 40 183.667 94.333 367 163v85
c0 68 -6.66699 115.333 -20 142c-22.667 44.667 -69.667 67 -141 67c-34 0 -66.333 -8.66699 -97 -26c-30.667 -18 -46 -42.667 -46 -74c0 -8 1.66699 -21.5 5 -40.5s5 -31.167 5 -36.5c0 -37.333 -12.333 -63.333 -37 -78c-14 -8.66699 -30.667 -13 -50 -13
c-30 0 -53 9.83301 -69 29.5s-24 41.5 -24 65.5c0 46.667 28.833 95.5 86.5 146.5s142.167 76.5 253.5 76.5c129.333 0 217 -42 263 -126c24.667 -46 37 -113 37 -201v-401c0 -38.667 2.66699 -65.334 8 -80.001c8.66699 -26 26.667 -39 54 -39c15.333 0 28 2.33301 38 7
s27.333 16 52 34v-52c-21.333 -26 -44.333 -47.333 -69 -64c-37.333 -25.333 -75.333 -38 -114 -38c-45.333 0 -78.166 14.667 -98.499 44s-31.5 64.333 -33.5 105c-50.667 -44 -94 -76.667 -130 -98c-60.667 -36 -118.334 -54 -173.001 -54
c-57.333 0 -107 20.167 -149 60.5s-63 91.5 -63 153.5c0 96.667 48.333 177.334 145 242.001zM367.001 1176.5c24.667 -24.333 54.334 -36.502 89.001 -36.502s64.167 12.333 88.5 37s36.5 54.334 36.5 89.001s-12.167 64.167 -36.5 88.5s-53.833 36.5 -88.5 36.5
s-64.334 -12.167 -89.001 -36.5s-37 -53.833 -37 -88.5c0 -35.333 12.333 -65.166 37 -89.499zM308.501 1413c41 40.667 90.167 61 147.5 61s106.333 -20.333 147 -61s61 -89.667 61 -147c0 -58 -20.333 -107.333 -61 -148s-89.667 -61 -147 -61
c-58 0 -107.333 20.333 -148 61s-61 90 -61 148c0 57.333 20.5 106.333 61.5 147zM456.001 1019z" />
    <glyph glyph-name="ae" unicode="&#xe6;" horiz-adv-x="1366" 
d="M1046 790c-24.667 68.667 -71.667 103 -141 103c-70.667 0 -120 -31 -148 -93c-16 -35.333 -26 -89 -30 -161h339c0 64 -6.66699 114.333 -20 151zM528 126.5c47.333 26.333 71.001 47.5 71.001 63.5c0 -5.33301 -6.16699 19.5 -18.5 74.5s-18.833 107.167 -19.5 156.5
l-2 107c-110 -32.667 -188.167 -70.5 -234.5 -113.5s-69.5 -93.167 -69.5 -150.5c0 -48 13.667 -89.5 41 -124.5s64.333 -52.5 111 -52.5c33.333 0 73.666 13.167 120.999 39.5zM148.501 656c-19.667 16 -29.499 41.668 -29.499 77.001c0 56.667 31.167 107.5 93.5 152.5
s140.166 67.5 233.499 67.5c58.667 0 109 -10 151 -30c24.667 -11.333 55.334 -32.333 92.001 -63c40.667 30.667 79.334 53.667 116.001 69s82.667 23 138 23c45.333 0 88.5 -9 129.5 -27s76.167 -44.667 105.5 -80c30 -36.667 51.333 -79.334 64 -128.001
c7.33301 -30 13.666 -76.333 18.999 -139h-536c2 -151.333 13.667 -255.333 35 -312c36 -94.667 109.333 -142 220 -142c49.333 0 97.333 14.833 144 44.5s85 66.5 115 110.5l31 45l24 -14c-36.667 -82 -76.334 -146.667 -119.001 -194c-79.333 -88 -175 -132 -287 -132
c-52 0 -101 14 -147 42s-84.667 65 -116 111c-57.333 -48.667 -103.333 -82.667 -138 -102c-57.333 -33.333 -114.666 -50 -171.999 -50c-67.333 0 -123.833 21 -169.5 63s-68.5 95 -68.5 159c0 88.667 44.333 162.667 133 222c57.333 38 173.666 90 348.999 156
c2 38 3.33301 63.833 4 77.5s1 27.167 1 40.5c0 62.667 -5.66699 107 -17 133c-20 44.667 -60 67 -120 67c-27.333 0 -52.333 -5.33301 -75 -16c-41.333 -19.333 -60 -52 -56 -98l2 -24c2.66699 -35.333 0.666992 -62.333 -6 -81c-12.667 -34.667 -40.667 -52 -84 -52
c-20 0 -39.833 8 -59.5 24z" />
    <glyph glyph-name="ccedilla" unicode="&#xe7;" horiz-adv-x="909" 
d="M724.5 878.5c60.333 -43 90.5029 -90.166 90.5029 -141.499c0 -22 -7.66699 -42.5 -23 -61.5s-39 -28.5 -71 -28.5c-23.333 0 -43.833 8 -61.5 24s-30.5 39.333 -38.5 70l-12 48c-8.66699 35.333 -23.667 60.333 -45 75c-22 14 -51 21 -87 21
c-76 0 -140.167 -33.167 -192.5 -99.5s-78.5 -154.5 -78.5 -264.5c0 -100.667 28.833 -191 86.5 -271s135.5 -120 233.5 -120c69.333 0 131 22.667 185 68c30.667 26 65.334 67.333 104.001 124l28 -17c-38 -80 -78 -143.333 -120 -190c-80.667 -89.333 -167 -134 -259 -134
l-46 -117c12.667 2.66699 23.5 4.66699 32.5 6s18.833 2 29.5 2c50.667 0 91.334 -13.333 122.001 -40s46 -61 46 -103c0 -48.667 -21 -89.667 -63 -123s-107 -50 -195 -50c-16.667 0 -36 1.66699 -58 5c-38.667 5.33301 -75.334 14.666 -110.001 27.999l28 64l31 -9
c8 -2.66699 21.167 -5.66699 39.5 -9s36.833 -5 55.5 -5c29.333 0 52.666 3.66699 69.999 11c32.667 12.667 49 37.334 49 74.001c0 26.667 -8.33301 46.5 -25 59.5s-38 19.5 -64 19.5c-20 0 -34.833 -0.833008 -44.5 -2.5s-20.834 -4.16699 -33.501 -7.5l-14 12l78 185
c-98 12.667 -180 60.167 -246 142.5s-99 187.166 -99 314.499c0 138 43.667 256.667 131 356s197.666 149 330.999 149c83.333 0 155.166 -21.5 215.499 -64.5z" />
    <glyph glyph-name="egrave" unicode="&#xe8;" horiz-adv-x="909" 
d="M716 840.5c70.667 -65 106 -157.166 106 -276.499h-635c6.66699 -154.667 41.667 -267.334 105 -338.001s138.333 -106 225 -106c70 0 129 18.333 177 55s92.333 88.667 133 156l35 -12c-27.333 -84.667 -78.5 -163 -153.5 -235s-166.833 -108 -275.5 -108
c-125.333 0 -222.166 47.333 -290.499 142s-102.5 203.667 -102.5 327c0 134 39.667 249.667 119 347s182.666 146 309.999 146c94 0 176.333 -32.5 247 -97.5zM237 764.001c-21.333 -36 -36.666 -81.334 -45.999 -136.001h422c-7.33301 66.667 -20 116.334 -38 149.001
c-32.667 58.667 -87.334 88 -164.001 88c-76 0 -134 -33.667 -174 -101zM618 1038l-83 0.00195312l-315 199c-22 14 -37.833 27.667 -47.5 41s-14.5 28.666 -14.5 45.999c0 19.333 7 35.166 21 47.499s30 18.5 48 18.5c17.333 0 33.333 -4.83301 48 -14.5
s28.667 -21.167 42 -34.5zM456 938.002z" />
    <glyph glyph-name="eacute" unicode="&#xe9;" horiz-adv-x="909" 
d="M716 840.5c70.667 -65 106 -157.166 106 -276.499h-635c6.66699 -154.667 41.667 -267.334 105 -338.001s138.333 -106 225 -106c70 0 129 18.333 177 55s92.333 88.667 133 156l35 -12c-27.333 -84.667 -78.5 -163 -153.5 -235s-166.833 -108 -275.5 -108
c-125.333 0 -222.166 47.333 -290.499 142s-102.5 203.667 -102.5 327c0 134 39.667 249.667 119 347s182.666 146 309.999 146c94 0 176.333 -32.5 247 -97.5zM237 764.001c-21.333 -36 -36.666 -81.334 -45.999 -136.001h422c-7.33301 66.667 -20 116.334 -38 149.001
c-32.667 58.667 -87.334 88 -164.001 88c-76 0 -134 -33.667 -174 -101zM756 1276c-10.667 -12.667 -26.332 -25.667 -46.999 -39l-315 -199h-83l301 303c10.667 10.667 24 21.667 40 33s33 17 51 17c17.333 0 33.166 -6.16699 47.499 -18.5s21.5 -28.5 21.5 -48.5
c0 -19.333 -5.33301 -35.333 -16 -48zM456.002 938z" />
    <glyph glyph-name="ecircumflex" unicode="&#xea;" horiz-adv-x="909" 
d="M716 840.5c70.667 -65 106 -157.166 106 -276.499h-635c6.66699 -154.667 41.667 -267.334 105 -338.001s138.333 -106 225 -106c70 0 129 18.333 177 55s92.333 88.667 133 156l35 -12c-27.333 -84.667 -78.5 -163 -153.5 -235s-166.833 -108 -275.5 -108
c-125.333 0 -222.166 47.333 -290.499 142s-102.5 203.667 -102.5 327c0 134 39.667 249.667 119 347s182.666 146 309.999 146c94 0 176.333 -32.5 247 -97.5zM237 764.001c-21.333 -36 -36.666 -81.334 -45.999 -136.001h422c-7.33301 66.667 -20 116.334 -38 149.001
c-32.667 58.667 -87.334 88 -164.001 88c-76 0 -134 -33.667 -174 -101zM136 1038l256 341h128l256 -341h-71l-249 211l-249 -211h-71zM456 938z" />
    <glyph glyph-name="edieresis" unicode="&#xeb;" horiz-adv-x="909" 
d="M716 840.5c70.667 -65 106 -157.166 106 -276.499h-635c6.66699 -154.667 41.667 -267.334 105 -338.001s138.333 -106 225 -106c70 0 129 18.333 177 55s92.333 88.667 133 156l35 -12c-27.333 -84.667 -78.5 -163 -153.5 -235s-166.833 -108 -275.5 -108
c-125.333 0 -222.166 47.333 -290.499 142s-102.5 203.667 -102.5 327c0 134 39.667 249.667 119 347s182.666 146 309.999 146c94 0 176.333 -32.5 247 -97.5zM237 764.001c-21.333 -36 -36.666 -81.334 -45.999 -136.001h422c-7.33301 66.667 -20 116.334 -38 149.001
c-32.667 58.667 -87.334 88 -164.001 88c-76 0 -134 -33.667 -174 -101zM732.5 1101c-19.667 -20 -43.834 -30 -72.501 -30c-28 0 -52 10 -72 30s-30 44 -30 72s10 52 30 72s44 30 72 30c28.667 0 52.834 -10 72.501 -30s29.5 -44 29.5 -72s-9.83301 -52 -29.5 -72z
M180.5 1245c19.667 20 43.5 30 71.5 30c28.667 0 52.834 -10 72.501 -30s29.5 -44 29.5 -72s-9.83301 -52 -29.5 -72s-43.834 -30 -72.501 -30c-28 0 -51.833 10 -71.5 30s-29.5 44 -29.5 72s9.83301 52 29.5 72zM456 938z" />
    <glyph glyph-name="igrave" unicode="&#xec;" horiz-adv-x="569" 
d="M40 28c71.333 6.66699 116.333 18.8311 135 36.498s28 65.5 28 143.5v477c0 43.333 -3 73.333 -9 90c-10 27.333 -31 41 -63 41c-7.33301 0 -14.5 -0.666992 -21.5 -2s-27.167 -6.66602 -60.5 -15.999v31l43 14c116.667 38 198 66.667 244 86c18.667 8 30.667 12 36 12
c1.33301 -4.66699 2 -9.66699 2 -15v-718c0 -76 9.16699 -123.667 27.5 -143s59.833 -31.666 124.5 -36.999v-28h-486v28zM448 1038l-83 0.00195312l-315 199c-22 14 -37.833 27.667 -47.5 41s-14.5 28.666 -14.5 45.999c0 19.333 7 35.166 21 47.499s30 18.5 48 18.5
c17.333 0 33.333 -4.83301 48 -14.5s28.667 -21.167 42 -34.5zM286 937.999z" />
    <glyph glyph-name="iacute" unicode="&#xed;" horiz-adv-x="569" 
d="M40 28c71.333 6.66699 116.333 18.8311 135 36.498s28 65.5 28 143.5v477c0 43.333 -3 73.333 -9 90c-10 27.333 -31 41 -63 41c-7.33301 0 -14.5 -0.666992 -21.5 -2s-27.167 -6.66602 -60.5 -15.999v31l43 14c116.667 38 198 66.667 244 86c18.667 8 30.667 12 36 12
c1.33301 -4.66699 2 -9.66699 2 -15v-718c0 -76 9.16699 -123.667 27.5 -143s59.833 -31.666 124.5 -36.999v-28h-486v28zM586 1276c-10.667 -12.667 -26.332 -25.667 -46.999 -39l-315 -199h-83l301 303c10.667 10.667 24 21.667 40 33s33 17 51 17
c17.333 0 33.166 -6.16699 47.499 -18.5s21.5 -28.5 21.5 -48.5c0 -19.333 -5.33301 -35.333 -16 -48zM286.002 937.997z" />
    <glyph glyph-name="icircumflex" unicode="&#xee;" horiz-adv-x="569" 
d="M40 28c71.333 6.66699 116.333 18.8311 135 36.498s28 65.5 28 143.5v477c0 43.333 -3 73.333 -9 90c-10 27.333 -31 41 -63 41c-7.33301 0 -14.5 -0.666992 -21.5 -2s-27.167 -6.66602 -60.5 -15.999v31l43 14c116.667 38 198 66.667 244 86c18.667 8 30.667 12 36 12
c1.33301 -4.66699 2 -9.66699 2 -15v-718c0 -76 9.16699 -123.667 27.5 -143s59.833 -31.666 124.5 -36.999v-28h-486v28zM-34 1038l256 341h128l256 -341h-71l-249 211l-249 -211h-71zM286 937.997z" />
    <glyph glyph-name="idieresis" unicode="&#xef;" horiz-adv-x="569" 
d="M40 28c71.333 6.66699 116.333 18.8311 135 36.498s28 65.5 28 143.5v477c0 43.333 -3 73.333 -9 90c-10 27.333 -31 41 -63 41c-7.33301 0 -14.5 -0.666992 -21.5 -2s-27.167 -6.66602 -60.5 -15.999v31l43 14c116.667 38 198 66.667 244 86c18.667 8 30.667 12 36 12
c1.33301 -4.66699 2 -9.66699 2 -15v-718c0 -76 9.16699 -123.667 27.5 -143s59.833 -31.666 124.5 -36.999v-28h-486v28zM562.5 1101c-19.667 -20 -43.834 -30 -72.501 -30c-28 0 -52 10 -72 30s-30 44 -30 72s10 52 30 72s44 30 72 30c28.667 0 52.834 -10 72.501 -30
s29.5 -44 29.5 -72s-9.83301 -52 -29.5 -72zM10.5 1245c19.667 20 43.5 30 71.5 30c28.667 0 52.834 -10 72.501 -30s29.5 -44 29.5 -72s-9.83301 -52 -29.5 -72s-43.834 -30 -72.501 -30c-28 0 -51.833 10 -71.5 30s-29.5 44 -29.5 72s9.83301 52 29.5 72zM286 937.997z
" />
    <glyph glyph-name="eth" unicode="&#xf0;" horiz-adv-x="1024" 
d="M341 827c-68 -60.667 -102 -165.666 -102 -314.999c0 -118.667 26.833 -229.334 80.5 -332.001s126.5 -154 218.5 -154c78 0 136.833 33.833 176.5 101.5s59.5 151.5 59.5 251.5c0 149.333 -27 269.833 -81 361.5s-125 137.5 -213 137.5c-54.667 0 -101 -17 -139 -51z
M641 902.001c28 -12.667 58.332 -31.3311 90.999 -55.998c-16.667 70.667 -43 136.834 -79 198.501s-73 105.167 -111 130.5l-206 -114l-45 53l186 105c-40 21.333 -81.333 39.666 -124 54.999s-95.667 29 -159 41l19 62c40.667 -4.66699 70.334 -8.66699 89.001 -12
c28.667 -4.66699 59 -11 91 -19c36.667 -10 67.5 -20 92.5 -30s55.833 -23.667 92.5 -41l216 116l45 -50l-188 -107c105.333 -72.667 183.333 -170.834 234 -294.501s76 -257.834 76 -402.501c0 -158 -41.5 -292.167 -124.5 -402.5s-191.167 -165.5 -324.5 -165.5
c-120.667 0 -227.167 44.5 -319.5 133.5s-138.5 207.833 -138.5 356.5c0 140 41.5 254.667 124.5 344s182.5 134 298.5 134c58 0 112.667 -11.667 164 -35z" />
    <glyph glyph-name="ntilde" unicode="&#xf1;" horiz-adv-x="1024" 
d="M37 28c47.333 6 80.5 17.832 99.5 35.499s28.5 57.167 28.5 118.5v507c0 42.667 -4 72.667 -12 90c-12.667 25.333 -38.667 38 -78 38c-6 0 -12.167 -0.333008 -18.5 -1s-14.166 -1.66699 -23.499 -3v35c27.333 8 92 28.667 194 62l94 31c4.66699 0 7.5 -1.66699 8.5 -5
s1.5 -8 1.5 -14v-147c61.333 57.333 109.333 96.666 144 117.999c52 32.667 106 49 162 49c45.333 0 86.666 -13 123.999 -39c72 -50.667 108 -141 108 -271v-467c0 -48 9.66699 -82.667 29 -104s51.666 -32.333 96.999 -33v-28h-427v28
c48.667 6.66699 82.667 20.167 102 40.5s29 64.5 29 132.5v427c0 57.333 -10.667 104.833 -32 142.5s-60.666 56.5 -117.999 56.5c-39.333 0 -79.333 -13.333 -120 -40c-22.667 -15.333 -52 -40.666 -88 -75.999v-560c0 -48 10.667 -80.167 32 -96.5s55 -25.166 101 -26.499
v-28h-437v28zM577 1238c23.333 -11.333 42.167 -19.166 56.5 -23.499s28.166 -6.5 41.499 -6.5c34 0 62 12.667 84 38c14.667 16 26 37.333 34 64h59c-3.33301 -36 -16.333 -73.333 -39 -112c-41.333 -69.333 -101.333 -104 -180 -104c-28 0 -54.167 4 -78.5 12
s-51.5 19.667 -81.5 35l-47 24c-11.333 5.33301 -24.166 10.166 -38.499 14.499s-27.5 6.5 -39.5 6.5c-34 0 -61 -11.333 -81 -34c-10.667 -12.667 -21 -32 -31 -58h-62c17.333 71.333 46 123.5 86 156.5s83.667 49.5 131 49.5c22 0 43.833 -3.16699 65.5 -9.5
s45.5 -15.833 71.5 -28.5zM513.001 941.999z" />
    <glyph glyph-name="ograve" unicode="&#xf2;" horiz-adv-x="1024" 
d="M178.5 800.5c84.333 91.667 192.833 137.499 325.5 137.499c132 0 241.333 -43.333 328 -130s130 -202 130 -346c0 -132.667 -42 -248 -126 -346s-192.667 -147 -326 -147c-128 0 -236.333 47 -325 141s-133 212 -133 354c0 132.667 42.167 244.834 126.5 336.501z
M339 825.999c-66.667 -60.667 -100 -165.332 -100 -313.999c0 -118.667 26.833 -229.334 80.5 -332.001s128.167 -154 223.5 -154c74.667 0 132.167 34.333 172.5 103s60.5 158.667 60.5 270c0 115.333 -25.667 224 -77 326s-125.666 153 -222.999 153
c-52.667 0 -98.334 -17.333 -137.001 -52zM675 1038l-83 0.00195312l-315 199c-22 14 -37.833 27.667 -47.5 41s-14.5 28.666 -14.5 45.999c0 19.333 7 35.166 21 47.499s30 18.5 48 18.5c17.333 0 33.333 -4.83301 48 -14.5s28.667 -21.167 42 -34.5zM513 938.003z" />
    <glyph glyph-name="oacute" unicode="&#xf3;" horiz-adv-x="1024" 
d="M178.5 800.5c84.333 91.667 192.833 137.499 325.5 137.499c132 0 241.333 -43.333 328 -130s130 -202 130 -346c0 -132.667 -42 -248 -126 -346s-192.667 -147 -326 -147c-128 0 -236.333 47 -325 141s-133 212 -133 354c0 132.667 42.167 244.834 126.5 336.501z
M339 825.999c-66.667 -60.667 -100 -165.332 -100 -313.999c0 -118.667 26.833 -229.334 80.5 -332.001s128.167 -154 223.5 -154c74.667 0 132.167 34.333 172.5 103s60.5 158.667 60.5 270c0 115.333 -25.667 224 -77 326s-125.666 153 -222.999 153
c-52.667 0 -98.334 -17.333 -137.001 -52zM813 1276c-10.667 -12.667 -26.332 -25.667 -46.999 -39l-315 -199h-83l301 303c10.667 10.667 24 21.667 40 33s33 17 51 17c17.333 0 33.166 -6.16699 47.499 -18.5s21.5 -28.5 21.5 -48.5c0 -19.333 -5.33301 -35.333 -16 -48z
M513.002 938.001z" />
    <glyph glyph-name="ocircumflex" unicode="&#xf4;" horiz-adv-x="1024" 
d="M178.5 800.5c84.333 91.667 192.833 137.499 325.5 137.499c132 0 241.333 -43.333 328 -130s130 -202 130 -346c0 -132.667 -42 -248 -126 -346s-192.667 -147 -326 -147c-128 0 -236.333 47 -325 141s-133 212 -133 354c0 132.667 42.167 244.834 126.5 336.501z
M339 825.999c-66.667 -60.667 -100 -165.332 -100 -313.999c0 -118.667 26.833 -229.334 80.5 -332.001s128.167 -154 223.5 -154c74.667 0 132.167 34.333 172.5 103s60.5 158.667 60.5 270c0 115.333 -25.667 224 -77 326s-125.666 153 -222.999 153
c-52.667 0 -98.334 -17.333 -137.001 -52zM193 1038l256 341h128l256 -341h-71l-249 211l-249 -211h-71zM513 938.001z" />
    <glyph glyph-name="otilde" unicode="&#xf5;" horiz-adv-x="1024" 
d="M178.5 800.5c84.333 91.667 192.833 137.499 325.5 137.499c132 0 241.333 -43.333 328 -130s130 -202 130 -346c0 -132.667 -42 -248 -126 -346s-192.667 -147 -326 -147c-128 0 -236.333 47 -325 141s-133 212 -133 354c0 132.667 42.167 244.834 126.5 336.501z
M339 825.999c-66.667 -60.667 -100 -165.332 -100 -313.999c0 -118.667 26.833 -229.334 80.5 -332.001s128.167 -154 223.5 -154c74.667 0 132.167 34.333 172.5 103s60.5 158.667 60.5 270c0 115.333 -25.667 224 -77 326s-125.666 153 -222.999 153
c-52.667 0 -98.334 -17.333 -137.001 -52zM577 1234c23.333 -11.333 42.167 -19.166 56.5 -23.499s28.166 -6.5 41.499 -6.5c34 0 62 12.667 84 38c14.667 16 26 37.333 34 64h59c-3.33301 -36 -16.333 -73.333 -39 -112c-41.333 -69.333 -101.333 -104 -180 -104
c-28 0 -54.167 4 -78.5 12s-51.5 19.667 -81.5 35l-47 24c-11.333 5.33301 -24.166 10.166 -38.499 14.499s-27.5 6.5 -39.5 6.5c-34 0 -61 -11.333 -81 -34c-10.667 -12.667 -21 -32 -31 -58h-62c17.333 71.333 46 123.5 86 156.5s83.667 49.5 131 49.5
c22 0 43.833 -3.16699 65.5 -9.5s45.5 -15.833 71.5 -28.5zM513.001 938.001z" />
    <glyph glyph-name="odieresis" unicode="&#xf6;" horiz-adv-x="1024" 
d="M178.5 800.5c84.333 91.667 192.833 137.499 325.5 137.499c132 0 241.333 -43.333 328 -130s130 -202 130 -346c0 -132.667 -42 -248 -126 -346s-192.667 -147 -326 -147c-128 0 -236.333 47 -325 141s-133 212 -133 354c0 132.667 42.167 244.834 126.5 336.501z
M339 825.999c-66.667 -60.667 -100 -165.332 -100 -313.999c0 -118.667 26.833 -229.334 80.5 -332.001s128.167 -154 223.5 -154c74.667 0 132.167 34.333 172.5 103s60.5 158.667 60.5 270c0 115.333 -25.667 224 -77 326s-125.666 153 -222.999 153
c-52.667 0 -98.334 -17.333 -137.001 -52zM789.5 1101c-19.667 -20 -43.834 -30 -72.501 -30c-28 0 -52 10 -72 30s-30 44 -30 72s10 52 30 72s44 30 72 30c28.667 0 52.834 -10 72.501 -30s29.5 -44 29.5 -72s-9.83301 -52 -29.5 -72zM237.5 1245
c19.667 20 43.5 30 71.5 30c28.667 0 52.834 -10 72.501 -30s29.5 -44 29.5 -72s-9.83301 -52 -29.5 -72s-43.834 -30 -72.501 -30c-28 0 -51.833 10 -71.5 30s-29.5 44 -29.5 72s9.83301 52 29.5 72zM513 938.001z" />
    <glyph glyph-name="divide" unicode="&#xf7;" horiz-adv-x="1124" 
d="M642.5 227c21.667 -22 32.5 -48 32.5 -78c0 -30.667 -10.833 -57 -32.5 -79s-47.834 -33 -78.501 -33s-57 11 -79 33s-33 48.333 -33 79c0 30 10.833 56 32.5 78s48.167 33 79.5 33c30.667 0 56.834 -11 78.501 -33zM1080 587v-140h-1033v140h1033zM642.5 964
c21.667 -22 32.5 -48 32.5 -78c0 -30.667 -10.833 -56.834 -32.5 -78.501s-47.834 -32.5 -78.501 -32.5c-31.333 0 -57.833 10.833 -79.5 32.5s-32.5 47.834 -32.5 78.501c0 30 10.833 56 32.5 78s48.167 33 79.5 33c30.667 0 56.834 -11 78.501 -33z" />
    <glyph glyph-name="oslash" unicode="&#xf8;" horiz-adv-x="1024" 
d="M360 118c35.333 -35.333 66.667 -59.5 94 -72.5s57 -19.5 89 -19.5c74 0 131.333 34.167 172 102.5s61 158.5 61 270.5c0 84.667 -14.333 166.667 -43 246c-18 50 -33.333 83 -46 99zM339.001 825c-66.667 -60 -99.998 -164 -99.998 -312
c0 -64.667 7.66699 -125.167 23 -181.5s33.666 -105.5 54.999 -147.5l322 621c-24 24 -48.833 42.167 -74.5 54.5s-55.167 18.5 -88.5 18.5c-52.667 0 -98.334 -17.667 -137.001 -53zM180.003 803.5c85.333 89 188.999 133.501 310.999 133.501c44.667 0 85.667 -4 123 -12
c21.333 -4.66699 46.333 -12 75 -22l121 230h81l-135 -261c56.667 -44.667 99 -88 127 -130c52.667 -78.667 79 -172.334 79 -281.001c0 -133.333 -41.167 -248.666 -123.5 -345.999s-191.166 -146 -326.499 -146c-40.667 0 -80.334 5.33301 -119.001 16
c-21.333 5.33301 -50.666 15.666 -87.999 30.999l-128 -244h-76l147 282c-54.667 40.667 -101 96 -139 166s-57 151.333 -57 244c0 137.333 42.667 250.5 128 339.5z" />
    <glyph glyph-name="ugrave" unicode="&#xf9;" horiz-adv-x="1024" 
d="M317 926v-640.001c0 -45.333 6.33301 -81.666 19 -108.999c24.667 -50.667 70 -76 136 -76c45.333 0 89.666 15 132.999 45c24.667 16.667 49.667 39.667 75 69v548c0 51.333 -10 85 -30 101s-60 25.667 -120 29v33h323v-704c0 -45.333 8.16699 -76.5 24.5 -93.5
s50.833 -24.5 103.5 -22.5v-28l-81 -22.5c-17.333 -5 -46.333 -14.167 -87 -27.5c-17.333 -6 -55.333 -20.333 -114 -43c-3.33301 0 -5.33301 1.5 -6 4.5s-1 6.5 -1 10.5v161c-45.333 -54 -86.666 -94 -123.999 -120c-56.667 -40 -116.667 -60 -180 -60
c-58 0 -112.667 20.667 -164 62c-52 40.667 -78 109 -78 205v519c0 53.333 -11.333 89 -34 107c-14.667 11.333 -46 19.333 -94 24v28h299zM675 1038l-83 0.00195312l-315 199c-22 14 -37.833 27.667 -47.5 41s-14.5 28.666 -14.5 45.999c0 19.333 7 35.166 21 47.499
s30 18.5 48 18.5c17.333 0 33.333 -4.83301 48 -14.5s28.667 -21.167 42 -34.5zM513 938.001z" />
    <glyph glyph-name="uacute" unicode="&#xfa;" horiz-adv-x="1024" 
d="M317 926v-640.001c0 -45.333 6.33301 -81.666 19 -108.999c24.667 -50.667 70 -76 136 -76c45.333 0 89.666 15 132.999 45c24.667 16.667 49.667 39.667 75 69v548c0 51.333 -10 85 -30 101s-60 25.667 -120 29v33h323v-704c0 -45.333 8.16699 -76.5 24.5 -93.5
s50.833 -24.5 103.5 -22.5v-28l-81 -22.5c-17.333 -5 -46.333 -14.167 -87 -27.5c-17.333 -6 -55.333 -20.333 -114 -43c-3.33301 0 -5.33301 1.5 -6 4.5s-1 6.5 -1 10.5v161c-45.333 -54 -86.666 -94 -123.999 -120c-56.667 -40 -116.667 -60 -180 -60
c-58 0 -112.667 20.667 -164 62c-52 40.667 -78 109 -78 205v519c0 53.333 -11.333 89 -34 107c-14.667 11.333 -46 19.333 -94 24v28h299zM813 1276c-10.667 -12.667 -26.332 -25.667 -46.999 -39l-315 -199h-83l301 303c10.667 10.667 24 21.667 40 33s33 17 51 17
c17.333 0 33.166 -6.16699 47.499 -18.5s21.5 -28.5 21.5 -48.5c0 -19.333 -5.33301 -35.333 -16 -48zM513.002 937.999z" />
    <glyph glyph-name="ucircumflex" unicode="&#xfb;" horiz-adv-x="1024" 
d="M317 926v-640.001c0 -45.333 6.33301 -81.666 19 -108.999c24.667 -50.667 70 -76 136 -76c45.333 0 89.666 15 132.999 45c24.667 16.667 49.667 39.667 75 69v548c0 51.333 -10 85 -30 101s-60 25.667 -120 29v33h323v-704c0 -45.333 8.16699 -76.5 24.5 -93.5
s50.833 -24.5 103.5 -22.5v-28l-81 -22.5c-17.333 -5 -46.333 -14.167 -87 -27.5c-17.333 -6 -55.333 -20.333 -114 -43c-3.33301 0 -5.33301 1.5 -6 4.5s-1 6.5 -1 10.5v161c-45.333 -54 -86.666 -94 -123.999 -120c-56.667 -40 -116.667 -60 -180 -60
c-58 0 -112.667 20.667 -164 62c-52 40.667 -78 109 -78 205v519c0 53.333 -11.333 89 -34 107c-14.667 11.333 -46 19.333 -94 24v28h299zM193 1038l256 341h128l256 -341h-71l-249 211l-249 -211h-71zM513 937.999z" />
    <glyph glyph-name="udieresis" unicode="&#xfc;" horiz-adv-x="1024" 
d="M317 926v-640.001c0 -45.333 6.33301 -81.666 19 -108.999c24.667 -50.667 70 -76 136 -76c45.333 0 89.666 15 132.999 45c24.667 16.667 49.667 39.667 75 69v548c0 51.333 -10 85 -30 101s-60 25.667 -120 29v33h323v-704c0 -45.333 8.16699 -76.5 24.5 -93.5
s50.833 -24.5 103.5 -22.5v-28l-81 -22.5c-17.333 -5 -46.333 -14.167 -87 -27.5c-17.333 -6 -55.333 -20.333 -114 -43c-3.33301 0 -5.33301 1.5 -6 4.5s-1 6.5 -1 10.5v161c-45.333 -54 -86.666 -94 -123.999 -120c-56.667 -40 -116.667 -60 -180 -60
c-58 0 -112.667 20.667 -164 62c-52 40.667 -78 109 -78 205v519c0 53.333 -11.333 89 -34 107c-14.667 11.333 -46 19.333 -94 24v28h299zM789.5 1101c-19.667 -20 -43.834 -30 -72.501 -30c-28 0 -52 10 -72 30s-30 44 -30 72s10 52 30 72s44 30 72 30
c28.667 0 52.834 -10 72.501 -30s29.5 -44 29.5 -72s-9.83301 -52 -29.5 -72zM237.5 1245c19.667 20 43.5 30 71.5 30c28.667 0 52.834 -10 72.501 -30s29.5 -44 29.5 -72s-9.83301 -52 -29.5 -72s-43.834 -30 -72.501 -30c-28 0 -51.833 10 -71.5 30s-29.5 44 -29.5 72
s9.83301 52 29.5 72zM513 937.999z" />
    <glyph glyph-name="yacute" unicode="&#xfd;" horiz-adv-x="1024" 
d="M28 919l422.002 -0.00585938v-31c-33.333 -0.666992 -58 -3.66699 -74 -9c-30.667 -8.66699 -46 -25.667 -46 -51c0 -9.33301 1.66699 -18.833 5 -28.5s9.33301 -24.167 18 -43.5l234 -519l188 523c2 5.33301 5.16699 17.333 9.5 36s6.5 31.334 6.5 38.001
c0 17.333 -6 30 -18 38s-27.333 12.667 -46 14l-31 2v31h275v-31c-27.333 -3.33301 -47.833 -12.666 -61.5 -27.999s-25.5 -36.666 -35.5 -63.999l-315 -834c-54.667 -144 -107 -248.333 -157 -313s-113.333 -97 -190 -97c-37.333 0 -72.333 9.33301 -105 28
s-49 48.334 -49 89.001c0 26.667 9.83301 48.5 29.5 65.5s44.5 25.5 74.5 25.5c17.333 0 43.166 -6.33301 77.499 -19s58.833 -19 73.5 -19c37.333 0 76.666 43.333 117.999 130s62 144.667 62 174c0 6 -1 13.333 -3 22s-4.33301 16.334 -7 23.001l-320 692
c-22.667 49.333 -42.5 81.833 -59.5 97.5s-42.167 25.834 -75.5 30.501v28zM804.002 1275.99c-10.667 -12.667 -26.332 -25.667 -46.999 -39l-315 -199h-83l301 303c10.667 10.667 24 21.667 40 33s33 17 51 17c17.333 0 33.166 -6.16699 47.499 -18.5
s21.5 -28.5 21.5 -48.5c0 -19.333 -5.33301 -35.333 -16 -48zM504.004 937.994z" />
    <glyph glyph-name="thorn" unicode="&#xfe;" horiz-adv-x="1024" 
d="M409.5 84c35.667 -23.333 75.832 -35.002 120.499 -35.002c114 0 192.667 62.667 236 188c22.667 66 34 144.667 34 236c0 105.333 -27 189.833 -81 253.5s-118 95.5 -192 95.5c-48 0 -92.667 -15.167 -134 -45.5s-62 -60.166 -62 -89.499v-503
c16.667 -43.333 42.834 -76.666 78.501 -99.999zM13.998 -413.002c54 6.66699 90.834 19.167 110.501 37.5s29.5 54.833 29.5 109.5v1410c0 43.333 -7.83301 75.166 -23.5 95.499s-41.167 30.5 -76.5 30.5c-4.66699 0 -9.5 -0.166992 -14.5 -0.5s-10.5 -0.833008 -16.5 -1.5
v35c60 14.667 116.5 29.834 169.5 45.501s96.833 30.5 131.5 44.5l5 -4v-598c45.333 46.667 88.666 83.334 129.999 110.001c48 29.333 102.333 44 163 44c104.667 0 189.5 -41.833 254.5 -125.5s97.5 -186.5 97.5 -308.5c0 -136.667 -38.333 -260 -115 -370
c-84 -110 -187 -165 -309 -165c-39.333 0 -72.333 4.66699 -99 14c-42.667 14 -82.667 41 -120 81v-327c0 -66.667 11.167 -107.834 33.5 -123.501s70.5 -26.167 144.5 -31.5v-35h-495v33z" />
    <glyph glyph-name="ydieresis" unicode="&#xff;" horiz-adv-x="1024" 
d="M28 919l422.002 -0.00585938v-31c-33.333 -0.666992 -58 -3.66699 -74 -9c-30.667 -8.66699 -46 -25.667 -46 -51c0 -9.33301 1.66699 -18.833 5 -28.5s9.33301 -24.167 18 -43.5l234 -519l188 523c2 5.33301 5.16699 17.333 9.5 36s6.5 31.334 6.5 38.001
c0 17.333 -6 30 -18 38s-27.333 12.667 -46 14l-31 2v31h275v-31c-27.333 -3.33301 -47.833 -12.666 -61.5 -27.999s-25.5 -36.666 -35.5 -63.999l-315 -834c-54.667 -144 -107 -248.333 -157 -313s-113.333 -97 -190 -97c-37.333 0 -72.333 9.33301 -105 28
s-49 48.334 -49 89.001c0 26.667 9.83301 48.5 29.5 65.5s44.5 25.5 74.5 25.5c17.333 0 43.166 -6.33301 77.499 -19s58.833 -19 73.5 -19c37.333 0 76.666 43.333 117.999 130s62 144.667 62 174c0 6 -1 13.333 -3 22s-4.33301 16.334 -7 23.001l-320 692
c-22.667 49.333 -42.5 81.833 -59.5 97.5s-42.167 25.834 -75.5 30.501v28zM780.502 1100.99c-19.667 -20 -43.834 -30 -72.501 -30c-28 0 -52 10 -72 30s-30 44 -30 72s10 52 30 72s44 30 72 30c28.667 0 52.834 -10 72.501 -30s29.5 -44 29.5 -72s-9.83301 -52 -29.5 -72z
M228.502 1244.99c19.667 20 43.5 30 71.5 30c28.667 0 52.834 -10 72.501 -30s29.5 -44 29.5 -72s-9.83301 -52 -29.5 -72s-43.834 -30 -72.501 -30c-28 0 -51.833 10 -71.5 30s-29.5 44 -29.5 72s9.83301 52 29.5 72zM504.002 937.994z" />
    <glyph glyph-name="Amacron" unicode="&#x100;" 
d="M914 526l-237 564l-234 -564h471zM30 0l-0.000976562 36.999c52.667 6 92.167 26 118.5 60s71.5 126.333 135.5 277l427 1005h40l510 -1161c34 -77.333 61.167 -125.166 81.5 -143.499s54.5 -30.833 102.5 -37.5v-37h-521v37c60 5.33301 98.667 11.833 116 19.5
s26 26.5 26 56.5c0 10 -3.33301 27.667 -10 53s-16 52 -28 80l-85 197h-536c-53.333 -134 -85.166 -215.833 -95.499 -245.5s-15.5 -53.167 -15.5 -70.5c0 -34.667 14 -58.667 42 -72c17.333 -8 50 -14 98 -18v-37h-406zM335.999 1590h640v-109h-640v109z" />
    <glyph glyph-name="amacron" unicode="&#x101;" horiz-adv-x="909" 
d="M587 554c-76.667 -25.333 -140 -53.333 -190 -84c-96 -59.333 -144 -126.666 -144 -201.999c0 -60.667 20 -105.334 60 -134.001c26 -18.667 55 -28 87 -28c44 0 86.167 12.333 126.5 37s60.5 56 60.5 94v317zM220 441c61.333 40 183.667 94.333 367 163v85
c0 68 -6.66699 115.333 -20 142c-22.667 44.667 -69.667 67 -141 67c-34 0 -66.333 -8.66699 -97 -26c-30.667 -18 -46 -42.667 -46 -74c0 -8 1.66699 -21.5 5 -40.5s5 -31.167 5 -36.5c0 -37.333 -12.333 -63.333 -37 -78c-14 -8.66699 -30.667 -13 -50 -13
c-30 0 -53 9.83301 -69 29.5s-24 41.5 -24 65.5c0 46.667 28.833 95.5 86.5 146.5s142.167 76.5 253.5 76.5c129.333 0 217 -42 263 -126c24.667 -46 37 -113 37 -201v-401c0 -38.667 2.66699 -65.334 8 -80.001c8.66699 -26 26.667 -39 54 -39c15.333 0 28 2.33301 38 7
s27.333 16 52 34v-52c-21.333 -26 -44.333 -47.333 -69 -64c-37.333 -25.333 -75.333 -38 -114 -38c-45.333 0 -78.166 14.667 -98.499 44s-31.5 64.333 -33.5 105c-50.667 -44 -94 -76.667 -130 -98c-60.667 -36 -118.334 -54 -173.001 -54
c-57.333 0 -107 20.167 -149 60.5s-63 91.5 -63 153.5c0 96.667 48.333 177.334 145 242.001zM78.001 1164h640v-109h-640v109z" />
    <glyph glyph-name="Abreve" unicode="&#x102;" 
d="M914 526l-237 564l-234 -564h471zM30 0l-0.000976562 36.999c52.667 6 92.167 26 118.5 60s71.5 126.333 135.5 277l427 1005h40l510 -1161c34 -77.333 61.167 -125.166 81.5 -143.499s54.5 -30.833 102.5 -37.5v-37h-521v37c60 5.33301 98.667 11.833 116 19.5
s26 26.5 26 56.5c0 10 -3.33301 27.667 -10 53s-16 52 -28 80l-85 197h-536c-53.333 -134 -85.166 -215.833 -95.499 -245.5s-15.5 -53.167 -15.5 -70.5c0 -34.667 14 -58.667 42 -72c17.333 -8 50 -14 98 -18v-37h-406zM1026 1799c-8.66699 -86.667 -28 -153.667 -58 -201
c-50 -80.667 -132.333 -121 -247 -121c-53.333 0 -101 13.333 -143 40c-80.667 52 -124 146 -130 282h62c8.66699 -62 32 -110.5 70 -145.5s92.333 -52.5 163 -52.5c71.333 0 126 23.667 164 71c20.667 26 40 68.333 58 127h61zM736.999 1377z" />
    <glyph glyph-name="abreve" unicode="&#x103;" horiz-adv-x="909" 
d="M587 554c-76.667 -25.333 -140 -53.333 -190 -84c-96 -59.333 -144 -126.666 -144 -201.999c0 -60.667 20 -105.334 60 -134.001c26 -18.667 55 -28 87 -28c44 0 86.167 12.333 126.5 37s60.5 56 60.5 94v317zM220 441c61.333 40 183.667 94.333 367 163v85
c0 68 -6.66699 115.333 -20 142c-22.667 44.667 -69.667 67 -141 67c-34 0 -66.333 -8.66699 -97 -26c-30.667 -18 -46 -42.667 -46 -74c0 -8 1.66699 -21.5 5 -40.5s5 -31.167 5 -36.5c0 -37.333 -12.333 -63.333 -37 -78c-14 -8.66699 -30.667 -13 -50 -13
c-30 0 -53 9.83301 -69 29.5s-24 41.5 -24 65.5c0 46.667 28.833 95.5 86.5 146.5s142.167 76.5 253.5 76.5c129.333 0 217 -42 263 -126c24.667 -46 37 -113 37 -201v-401c0 -38.667 2.66699 -65.334 8 -80.001c8.66699 -26 26.667 -39 54 -39c15.333 0 28 2.33301 38 7
s27.333 16 52 34v-52c-21.333 -26 -44.333 -47.333 -69 -64c-37.333 -25.333 -75.333 -38 -114 -38c-45.333 0 -78.166 14.667 -98.499 44s-31.5 64.333 -33.5 105c-50.667 -44 -94 -76.667 -130 -98c-60.667 -36 -118.334 -54 -173.001 -54
c-57.333 0 -107 20.167 -149 60.5s-63 91.5 -63 153.5c0 96.667 48.333 177.334 145 242.001zM763.001 1395c-8.66699 -86.667 -28 -153.667 -58 -201c-50 -80.667 -132.333 -121 -247 -121c-53.333 0 -101 13.333 -143 40c-80.667 52 -124 146 -130 282h62
c8.66699 -62 32 -110.5 70 -145.5s92.333 -52.5 163 -52.5c71.333 0 126 23.667 164 71c20.667 26 40 68.333 58 127h61zM474.001 973z" />
    <glyph glyph-name="Aogonek" unicode="&#x104;" 
d="M914 526l-237 564l-234 -564h471zM30 0l-0.000976562 36.999c52.667 6 92.167 26 118.5 60s71.5 126.333 135.5 277l427 1005h40l510 -1161c34 -77.333 61.167 -125.166 81.5 -143.499s54.5 -30.833 102.5 -37.5v-37h-521v37c60 5.33301 98.667 11.833 116 19.5
s26 26.5 26 56.5c0 10 -3.33301 27.667 -10 53s-16 52 -28 80l-85 197h-536c-53.333 -134 -85.166 -215.833 -95.499 -245.5s-15.5 -53.167 -15.5 -70.5c0 -34.667 14 -58.667 42 -72c17.333 -8 50 -14 98 -18v-37h-406zM1284 46.999
c-32 -50.667 -54.9971 -97.165 -68.9971 -139.498s-21 -84.833 -21 -127.5c0 -38.667 12.167 -69.834 36.5 -93.501s53.166 -35.5 86.499 -35.5c21.333 0 44.666 5 69.999 15c15.333 6.66699 34.666 16.667 57.999 30v-116c-28.667 -16.667 -58.167 -29.5 -88.5 -38.5
s-60.833 -13.5 -91.5 -13.5c-58 0 -107.667 18.333 -149 55s-62 81.667 -62 135c0 37.333 7.66699 74.666 23 111.999c29.333 72 84 144.333 164 217h43z" />
    <glyph glyph-name="aogonek" unicode="&#x105;" horiz-adv-x="909" 
d="M587 554c-76.667 -25.333 -140 -53.333 -190 -84c-96 -59.333 -144 -126.666 -144 -201.999c0 -60.667 20 -105.334 60 -134.001c26 -18.667 55 -28 87 -28c44 0 86.167 12.333 126.5 37s60.5 56 60.5 94v317zM220 441c61.333 40 183.667 94.333 367 163v85
c0 68 -6.66699 115.333 -20 142c-22.667 44.667 -69.667 67 -141 67c-34 0 -66.333 -8.66699 -97 -26c-30.667 -18 -46 -42.667 -46 -74c0 -8 1.66699 -21.5 5 -40.5s5 -31.167 5 -36.5c0 -37.333 -12.333 -63.333 -37 -78c-14 -8.66699 -30.667 -13 -50 -13
c-30 0 -53 9.83301 -69 29.5s-24 41.5 -24 65.5c0 46.667 28.833 95.5 86.5 146.5s142.167 76.5 253.5 76.5c129.333 0 217 -42 263 -126c24.667 -46 37 -113 37 -201v-401c0 -38.667 2.66699 -65.334 8 -80.001c8.66699 -26 26.667 -39 54 -39c15.333 0 28 2.33301 38 7
s27.333 16 52 34v-52c-21.333 -26 -44.333 -47.333 -69 -64c-37.333 -25.333 -75.333 -38 -114 -38c-45.333 0 -78.166 14.667 -98.499 44s-31.5 64.333 -33.5 105c-50.667 -44 -94 -76.667 -130 -98c-60.667 -36 -118.334 -54 -173.001 -54
c-57.333 0 -107 20.167 -149 60.5s-63 91.5 -63 153.5c0 96.667 48.333 177.334 145 242.001zM744.001 32c-32 -50.667 -54.9971 -97.165 -68.9971 -139.498s-21 -84.833 -21 -127.5c0 -38.667 12.167 -69.834 36.5 -93.501s53.166 -35.5 86.499 -35.5
c21.333 0 44.666 5 69.999 15c15.333 6.66699 34.666 16.667 57.999 30v-116c-28.667 -16.667 -58.167 -29.5 -88.5 -38.5s-60.833 -13.5 -91.5 -13.5c-58 0 -107.667 18.333 -149 55s-62 81.667 -62 135c0 37.333 7.66699 74.666 23 111.999c29.333 72 84 144.333 164 217
h43z" />
    <glyph glyph-name="Cacute" unicode="&#x106;" horiz-adv-x="1366" 
d="M986 1346c78 -22 121.666 -33.001 130.999 -33.001c19.333 0 37.666 5.33301 54.999 16s29.333 27.334 36 50.001h43l19 -460h-47c-27.333 91.333 -63 165 -107 221c-84 105.333 -197 158 -339 158c-143.333 0 -260.5 -56.667 -351.5 -170s-136.5 -269.333 -136.5 -468
c0 -182.667 47.833 -328.5 143.5 -437.5s216.834 -163.5 363.501 -163.5c106 0 203.667 25.333 293 76c51.333 28.667 107.666 72 168.999 130l38 -38c-45.333 -57.333 -101.666 -107.666 -168.999 -150.999c-114.667 -73.333 -239 -110 -373 -110
c-220 0 -394.667 70.333 -524 211c-119.333 130 -179 292.333 -179 487c0 199.333 63 366.666 189 501.999c132.667 142 305.334 213 518.001 213c74 0 150 -11 228 -33zM1051 1717c-10.667 -12.667 -26.332 -25.667 -46.999 -39l-315 -199h-83l301 303
c10.667 10.667 24 21.667 40 33s33 17 51 17c17.333 0 33.166 -6.16699 47.499 -18.5s21.5 -28.5 21.5 -48.5c0 -19.333 -5.33301 -35.333 -16 -48zM751.001 1379z" />
    <glyph glyph-name="cacute" unicode="&#x107;" horiz-adv-x="909" 
d="M724.5 878.5c60.333 -43 90.501 -90.167 90.501 -141.5c0 -22 -7.66699 -42.5 -23 -61.5s-39 -28.5 -71 -28.5c-23.333 0 -43.833 8 -61.5 24s-30.5 39.333 -38.5 70l-12 48c-8.66699 35.333 -23.667 60.333 -45 75c-22 14 -51 21 -87 21
c-76 0 -140.167 -33.167 -192.5 -99.5s-78.5 -154.5 -78.5 -264.5c0 -100.667 28.833 -191 86.5 -271s135.5 -120 233.5 -120c69.333 0 131 22.667 185 68c30.667 26 65.334 67.333 104.001 124l28 -17c-38 -80 -78 -143.333 -120 -190c-80.667 -89.333 -174 -134 -280 -134
c-104 0 -196 41 -276 123s-120 193.333 -120 334c0 138 43.667 256.667 131 356s197.666 149 330.999 149c83.333 0 155.166 -21.5 215.499 -64.5zM765.001 1281c-10.667 -12.667 -26.332 -25.667 -46.999 -39l-315 -199h-83l301 303c10.667 10.667 24 21.667 40 33
s33 17 51 17c17.333 0 33.166 -6.16699 47.499 -18.5s21.5 -28.5 21.5 -48.5c0 -19.333 -5.33301 -35.333 -16 -48zM465.003 943z" />
    <glyph glyph-name="Ccircumflex" unicode="&#x108;" horiz-adv-x="1366" 
d="M986 1346c78 -22 121.666 -33.001 130.999 -33.001c19.333 0 37.666 5.33301 54.999 16s29.333 27.334 36 50.001h43l19 -460h-47c-27.333 91.333 -63 165 -107 221c-84 105.333 -197 158 -339 158c-143.333 0 -260.5 -56.667 -351.5 -170s-136.5 -269.333 -136.5 -468
c0 -182.667 47.833 -328.5 143.5 -437.5s216.834 -163.5 363.501 -163.5c106 0 203.667 25.333 293 76c51.333 28.667 107.666 72 168.999 130l38 -38c-45.333 -57.333 -101.666 -107.666 -168.999 -150.999c-114.667 -73.333 -239 -110 -373 -110
c-220 0 -394.667 70.333 -524 211c-119.333 130 -179 292.333 -179 487c0 199.333 63 366.666 189 501.999c132.667 142 305.334 213 518.001 213c74 0 150 -11 228 -33zM368.999 1462l256 341h128l256 -341h-71l-249 211l-249 -211h-71zM688.999 1362z" />
    <glyph glyph-name="ccircumflex" unicode="&#x109;" horiz-adv-x="909" 
d="M724.5 878.5c60.333 -43 90.501 -90.167 90.501 -141.5c0 -22 -7.66699 -42.5 -23 -61.5s-39 -28.5 -71 -28.5c-23.333 0 -43.833 8 -61.5 24s-30.5 39.333 -38.5 70l-12 48c-8.66699 35.333 -23.667 60.333 -45 75c-22 14 -51 21 -87 21
c-76 0 -140.167 -33.167 -192.5 -99.5s-78.5 -154.5 -78.5 -264.5c0 -100.667 28.833 -191 86.5 -271s135.5 -120 233.5 -120c69.333 0 131 22.667 185 68c30.667 26 65.334 67.333 104.001 124l28 -17c-38 -80 -78 -143.333 -120 -190c-80.667 -89.333 -174 -134 -280 -134
c-104 0 -196 41 -276 123s-120 193.333 -120 334c0 138 43.667 256.667 131 356s197.666 149 330.999 149c83.333 0 155.166 -21.5 215.499 -64.5zM135.001 1072l256 341h128l256 -341h-71l-249 211l-249 -211h-71zM455.001 972z" />
    <glyph glyph-name="Cdotaccent" unicode="&#x10a;" horiz-adv-x="1366" 
d="M986 1346c78 -22 121.666 -33.001 130.999 -33.001c19.333 0 37.666 5.33301 54.999 16s29.333 27.334 36 50.001h43l19 -460h-47c-27.333 91.333 -63 165 -107 221c-84 105.333 -197 158 -339 158c-143.333 0 -260.5 -56.667 -351.5 -170s-136.5 -269.333 -136.5 -468
c0 -182.667 47.833 -328.5 143.5 -437.5s216.834 -163.5 363.501 -163.5c106 0 203.667 25.333 293 76c51.333 28.667 107.666 72 168.999 130l38 -38c-45.333 -57.333 -101.666 -107.666 -168.999 -150.999c-114.667 -73.333 -239 -110 -373 -110
c-220 0 -394.667 70.333 -524 211c-119.333 130 -179 292.333 -179 487c0 199.333 63 366.666 189 501.999c132.667 142 305.334 213 518.001 213c74 0 150 -11 228 -33zM787.499 1536c-19.667 -20 -43.834 -30 -72.501 -30c-28 0 -52 10 -72 30s-30 44 -30 72s10 52 30 72
s44 30 72 30c28.667 0 52.834 -10 72.501 -30s29.5 -44 29.5 -72s-9.83301 -52 -29.5 -72zM714.999 1373z" />
    <glyph glyph-name="cdotaccent" unicode="&#x10b;" horiz-adv-x="909" 
d="M724.5 878.5c60.333 -43 90.501 -90.167 90.501 -141.5c0 -22 -7.66699 -42.5 -23 -61.5s-39 -28.5 -71 -28.5c-23.333 0 -43.833 8 -61.5 24s-30.5 39.333 -38.5 70l-12 48c-8.66699 35.333 -23.667 60.333 -45 75c-22 14 -51 21 -87 21
c-76 0 -140.167 -33.167 -192.5 -99.5s-78.5 -154.5 -78.5 -264.5c0 -100.667 28.833 -191 86.5 -271s135.5 -120 233.5 -120c69.333 0 131 22.667 185 68c30.667 26 65.334 67.333 104.001 124l28 -17c-38 -80 -78 -143.333 -120 -190c-80.667 -89.333 -174 -134 -280 -134
c-104 0 -196 41 -276 123s-120 193.333 -120 334c0 138 43.667 256.667 131 356s197.666 149 330.999 149c83.333 0 155.166 -21.5 215.499 -64.5zM561.501 1125c-19.667 -20 -43.834 -30 -72.501 -30c-28 0 -52 10 -72 30s-30 44 -30 72s10 52 30 72s44 30 72 30
c28.667 0 52.834 -10 72.501 -30s29.5 -44 29.5 -72s-9.83301 -52 -29.5 -72zM489.001 962z" />
    <glyph glyph-name="Ccaron" unicode="&#x10c;" horiz-adv-x="1366" 
d="M986 1346c78 -22 121.666 -33.001 130.999 -33.001c19.333 0 37.666 5.33301 54.999 16s29.333 27.334 36 50.001h43l19 -460h-47c-27.333 91.333 -63 165 -107 221c-84 105.333 -197 158 -339 158c-143.333 0 -260.5 -56.667 -351.5 -170s-136.5 -269.333 -136.5 -468
c0 -182.667 47.833 -328.5 143.5 -437.5s216.834 -163.5 363.501 -163.5c106 0 203.667 25.333 293 76c51.333 28.667 107.666 72 168.999 130l38 -38c-45.333 -57.333 -101.666 -107.666 -168.999 -150.999c-114.667 -73.333 -239 -110 -373 -110
c-220 0 -394.667 70.333 -524 211c-119.333 130 -179 292.333 -179 487c0 199.333 63 366.666 189 501.999c132.667 142 305.334 213 518.001 213c74 0 150 -11 228 -33zM1071 1820l-256 -341h-128l-256 341h71l249 -211l249 211h71zM750.999 1379z" />
    <glyph glyph-name="ccaron" unicode="&#x10d;" horiz-adv-x="909" 
d="M724.5 878.5c60.333 -43 90.501 -90.167 90.501 -141.5c0 -22 -7.66699 -42.5 -23 -61.5s-39 -28.5 -71 -28.5c-23.333 0 -43.833 8 -61.5 24s-30.5 39.333 -38.5 70l-12 48c-8.66699 35.333 -23.667 60.333 -45 75c-22 14 -51 21 -87 21
c-76 0 -140.167 -33.167 -192.5 -99.5s-78.5 -154.5 -78.5 -264.5c0 -100.667 28.833 -191 86.5 -271s135.5 -120 233.5 -120c69.333 0 131 22.667 185 68c30.667 26 65.334 67.333 104.001 124l28 -17c-38 -80 -78 -143.333 -120 -190c-80.667 -89.333 -174 -134 -280 -134
c-104 0 -196 41 -276 123s-120 193.333 -120 334c0 138 43.667 256.667 131 356s197.666 149 330.999 149c83.333 0 155.166 -21.5 215.499 -64.5zM785.001 1384l-256 -341h-128l-256 341h71l249 -211l249 211h71zM465.001 943z" />
    <glyph glyph-name="Dcaron" unicode="&#x10e;" 
d="M445.5 92c16.333 -10.667 50.167 -15.999 101.5 -15.999c160 0 291.667 31.667 395 95c158.667 97.333 238 263.666 238 498.999c0 210 -65.333 368 -196 474c-112 90.667 -260.333 136 -445 136c-46 0 -77.167 -5 -93.5 -15s-24.5 -32 -24.5 -66v-1041
c0 -33.333 8.16699 -55.333 24.5 -66zM33.001 37.001c74.667 8 123.333 21.501 146 40.501s34 67.167 34 144.5v911c0 74.667 -11 122.667 -33 144s-71 34.666 -147 39.999v38h552c186 0 343.333 -30.667 472 -92c232 -110 348 -306.667 348 -590
c0 -102 -20.833 -199 -62.5 -291s-104.5 -169.667 -188.5 -233c-53.333 -40 -108.666 -70.333 -165.999 -91c-104.667 -38.667 -233.334 -58 -386.001 -58h-569v37zM924 1825l-256 -341h-128l-256 341h71l249 -211l249 211h71zM604 1384z" />
    <glyph glyph-name="dcaron" unicode="&#x10f;" horiz-adv-x="1239" 
d="M619 913c26.667 -14 52.3311 -33.334 76.998 -58.001v318c0 40.667 -4.5 68.667 -13.5 84s-30.5 23 -64.5 23c-8 0 -15 -0.333008 -21 -1s-19.333 -2 -40 -4v33l82 21l90 25c30 8.66699 56.333 17 79 25c10.667 3.33301 28.334 9.66602 53.001 18.999l6 -2l-2 -105
l-2 -117.5c-0.666992 -40.333 -1 -80.166 -1 -119.499l-2 -817c0 -43.333 5.33301 -73.666 16 -90.999s39 -26 85 -26c7.33301 0 14.666 0.166992 21.999 0.5s14.666 1.16602 21.999 2.49902v-33l-145 -50l-157 -59l-7 9v123c-37.333 -40.667 -69.666 -69.667 -96.999 -87
c-48.667 -30 -105 -45 -169 -45c-113.333 0 -205.166 43.833 -275.499 131.5s-105.5 189.167 -105.5 304.5c0 144.667 42.167 268.834 126.5 372.501s187.5 155.5 309.5 155.5c48.667 0 93.334 -10.667 134.001 -32zM647.997 134.999c32 30.667 47.999 59.666 47.999 86.999
v429c0 86.667 -23.167 147.834 -69.5 183.501s-91.5 53.5 -135.5 53.5c-84 0 -149.333 -37.167 -196 -111.5s-70 -165.833 -70 -274.5c0 -107.333 24.833 -203 74.5 -287s123.834 -126 222.501 -126c52 0 94 15.333 126 46zM1129 1324c-48.667 -58 -101 -99.667 -157 -125
l-19 40c64 36 108.167 75 132.5 117s36.5 77 36.5 105c0 9.33301 -3 15.333 -9 18s-12.333 4 -19 4l-67 -7c-28 0 -53.667 9.16699 -77 27.5s-35 44.833 -35 79.5c0 26.667 9.66699 52.667 29 78s51 38 95 38c42 0 79.667 -16.5 113 -49.5s50 -78.833 50 -137.5
c0 -67.333 -24.333 -130 -73 -188z" />
    <glyph glyph-name="Dcroat" unicode="&#x110;" 
d="M33 37c74.667 8 123.334 21.502 146.001 40.502s34 67.167 34 144.5v422h-180v90h180v399c0 74.667 -11 122.667 -33 144s-71 34.666 -147 39.999v38h552c238 0 427.333 -49 568 -147c166.667 -116.667 250 -295 250 -535c0 -88.667 -17.833 -180.334 -53.5 -275.001
s-100.834 -177.667 -195.501 -249c-53.333 -40 -108.666 -70.333 -165.999 -91c-104.667 -38.667 -233.334 -58 -386.001 -58h-569v37zM445.5 92.002c16.333 -10.667 50.167 -15.999 101.5 -15.999c160 0 291.667 31.667 395 95c158.667 97.333 238 263.666 238 498.999
c0 210 -65.333 368 -196 474c-112 90.667 -260.333 136 -445 136c-46 0 -77.167 -5 -93.5 -15s-24.5 -32 -24.5 -66v-465h342v-90h-342v-486c0 -33.333 8.16699 -55.333 24.5 -66z" />
    <glyph glyph-name="dcroat" unicode="&#x111;" horiz-adv-x="1024" 
d="M619 913c26.667 -14 52.332 -33.333 76.999 -58v208h-312v89h312c0 54.667 -4.5 89.667 -13.5 105s-30.5 23 -64.5 23c-8 0 -15 -0.333008 -21 -1s-19.333 -2 -40 -4v33l82 21l90 25c30 8.66699 56.333 17 79 25c10.667 3.33301 22 7.33301 34 12s18.333 7 19 7
c1.33301 0 2.33301 -0.166992 3 -0.5l3 -1.5l-2 -105c-0.666992 -38 -1.66699 -84.333 -3 -139h162v-89h-164v-826c0 -43.333 5.33301 -73.666 16 -90.999s39 -26 85 -26c7.33301 0 14.666 0.166992 21.999 0.5s14.666 1.16602 21.999 2.49902v-33l-76 -26
c-46.667 -16 -69.667 -24 -69 -24l-157 -59c-1.33301 -0.666992 -2.83301 0.166016 -4.5 2.49902s-2.5 4.5 -2.5 6.5v123c-37.333 -40.667 -69.666 -69.667 -96.999 -87c-48.667 -30 -105 -45 -169 -45c-113.333 0 -205.166 43.833 -275.499 131.5
s-105.5 189.167 -105.5 304.5c0 144.667 42.167 268.834 126.5 372.501s187.5 155.5 309.5 155.5c48.667 0 93.334 -10.667 134.001 -32zM647.998 135c32 30.667 47.999 59.666 47.999 86.999v429c0 86.667 -23.167 147.834 -69.5 183.501s-91.5 53.5 -135.5 53.5
c-84 0 -149.333 -37.167 -196 -111.5s-70 -165.833 -70 -274.5c0 -107.333 24.833 -203 74.5 -287s123.834 -126 222.501 -126c52 0 94 15.333 126 46z" />
    <glyph glyph-name="Emacron" unicode="&#x112;" horiz-adv-x="1251" 
d="M23 37c75.333 8 124.167 21.501 146.5 40.501s33.5 67.167 33.5 144.5v911c0 72.667 -11 120.167 -33 142.5s-71 36.166 -147 41.499v38h1088l7 -294h-52c-17.333 90.667 -43.333 149.334 -78 176.001s-112 40 -232 40h-278c-30 0 -48.5 -4.83301 -55.5 -14.5
s-10.5 -27.834 -10.5 -54.501v-457h315c87.333 0 143 13 167 39s43.333 78.667 58 158h48v-474h-48c-15.333 79.333 -35 131.833 -59 157.5s-79.333 38.5 -166 38.5h-315v-507c0 -40.667 12.833 -64.667 38.5 -72s102.5 -11 230.5 -11c138.667 0 241 15.167 307 45.5
s125.333 103.833 178 220.5h57l-93 -346h-1107v37zM303.001 1566h640v-109h-640v109z" />
    <glyph glyph-name="emacron" unicode="&#x113;" horiz-adv-x="909" 
d="M716 840.5c70.667 -65 106 -157.166 106 -276.499h-635c6.66699 -154.667 41.667 -267.334 105 -338.001s138.333 -106 225 -106c70 0 129 18.333 177 55s92.333 88.667 133 156l35 -12c-27.333 -84.667 -78.5 -163 -153.5 -235s-166.833 -108 -275.5 -108
c-125.333 0 -222.166 47.333 -290.499 142s-102.5 203.667 -102.5 327c0 134 39.667 249.667 119 347s182.666 146 309.999 146c94 0 176.333 -32.5 247 -97.5zM237 764.001c-21.333 -36 -36.666 -81.334 -45.999 -136.001h422c-7.33301 66.667 -20 116.334 -38 149.001
c-32.667 58.667 -87.334 88 -164.001 88c-76 0 -134 -33.667 -174 -101zM131 1154h640v-109h-640v109z" />
    <glyph glyph-name="Ebreve" unicode="&#x114;" horiz-adv-x="1251" 
d="M23 37c75.333 8 124.167 21.501 146.5 40.501s33.5 67.167 33.5 144.5v911c0 72.667 -11 120.167 -33 142.5s-71 36.166 -147 41.499v38h1088l7 -294h-52c-17.333 90.667 -43.333 149.334 -78 176.001s-112 40 -232 40h-278c-30 0 -48.5 -4.83301 -55.5 -14.5
s-10.5 -27.834 -10.5 -54.501v-457h315c87.333 0 143 13 167 39s43.333 78.667 58 158h48v-474h-48c-15.333 79.333 -35 131.833 -59 157.5s-79.333 38.5 -166 38.5h-315v-507c0 -40.667 12.833 -64.667 38.5 -72s102.5 -11 230.5 -11c138.667 0 241 15.167 307 45.5
s125.333 103.833 178 220.5h57l-93 -346h-1107v37zM897.001 1801c-8.66699 -86.667 -28 -153.667 -58 -201c-50 -80.667 -132.333 -121 -247 -121c-53.333 0 -101 13.333 -143 40c-80.667 52 -124 146 -130 282h62c8.66699 -62 32 -110.5 70 -145.5s92.333 -52.5 163 -52.5
c71.333 0 126 23.667 164 71c20.667 26 40 68.333 58 127h61zM608.001 1379z" />
    <glyph glyph-name="ebreve" unicode="&#x115;" horiz-adv-x="909" 
d="M716 840.5c70.667 -65 106 -157.166 106 -276.499h-635c6.66699 -154.667 41.667 -267.334 105 -338.001s138.333 -106 225 -106c70 0 129 18.333 177 55s92.333 88.667 133 156l35 -12c-27.333 -84.667 -78.5 -163 -153.5 -235s-166.833 -108 -275.5 -108
c-125.333 0 -222.166 47.333 -290.499 142s-102.5 203.667 -102.5 327c0 134 39.667 249.667 119 347s182.666 146 309.999 146c94 0 176.333 -32.5 247 -97.5zM237 764.001c-21.333 -36 -36.666 -81.334 -45.999 -136.001h422c-7.33301 66.667 -20 116.334 -38 149.001
c-32.667 58.667 -87.334 88 -164.001 88c-76 0 -134 -33.667 -174 -101zM740 1405c-8.66699 -86.667 -28 -153.667 -58 -201c-50 -80.667 -132.333 -121 -247 -121c-53.333 0 -101 13.333 -143 40c-80.667 52 -124 146 -130 282h62c8.66699 -62 32 -110.5 70 -145.5
s92.333 -52.5 163 -52.5c71.333 0 126 23.667 164 71c20.667 26 40 68.333 58 127h61zM451 983z" />
    <glyph glyph-name="Edotaccent" unicode="&#x116;" horiz-adv-x="1251" 
d="M23 37c75.333 8 124.167 21.501 146.5 40.501s33.5 67.167 33.5 144.5v911c0 72.667 -11 120.167 -33 142.5s-71 36.166 -147 41.499v38h1088l7 -294h-52c-17.333 90.667 -43.333 149.334 -78 176.001s-112 40 -232 40h-278c-30 0 -48.5 -4.83301 -55.5 -14.5
s-10.5 -27.834 -10.5 -54.501v-457h315c87.333 0 143 13 167 39s43.333 78.667 58 158h48v-474h-48c-15.333 79.333 -35 131.833 -59 157.5s-79.333 38.5 -166 38.5h-315v-507c0 -40.667 12.833 -64.667 38.5 -72s102.5 -11 230.5 -11c138.667 0 241 15.167 307 45.5
s125.333 103.833 178 220.5h57l-93 -346h-1107v37zM680.501 1532c-19.667 -20 -43.834 -30 -72.501 -30c-28 0 -52 10 -72 30s-30 44 -30 72s10 52 30 72s44 30 72 30c28.667 0 52.834 -10 72.501 -30s29.5 -44 29.5 -72s-9.83301 -52 -29.5 -72zM608.001 1369z" />
    <glyph glyph-name="edotaccent" unicode="&#x117;" horiz-adv-x="909" 
d="M716 840.5c70.667 -65 106 -157.166 106 -276.499h-635c6.66699 -154.667 41.667 -267.334 105 -338.001s138.333 -106 225 -106c70 0 129 18.333 177 55s92.333 88.667 133 156l35 -12c-27.333 -84.667 -78.5 -163 -153.5 -235s-166.833 -108 -275.5 -108
c-125.333 0 -222.166 47.333 -290.499 142s-102.5 203.667 -102.5 327c0 134 39.667 249.667 119 347s182.666 146 309.999 146c94 0 176.333 -32.5 247 -97.5zM237 764.001c-21.333 -36 -36.666 -81.334 -45.999 -136.001h422c-7.33301 66.667 -20 116.334 -38 149.001
c-32.667 58.667 -87.334 88 -164.001 88c-76 0 -134 -33.667 -174 -101zM518.5 1125c-19.667 -20 -43.834 -30 -72.501 -30c-28 0 -52 10 -72 30s-30 44 -30 72s10 52 30 72s44 30 72 30c28.667 0 52.834 -10 72.501 -30s29.5 -44 29.5 -72s-9.83301 -52 -29.5 -72zM446 962
z" />
    <glyph glyph-name="Eogonek" unicode="&#x118;" horiz-adv-x="1251" 
d="M23 37c75.333 8 124.167 21.501 146.5 40.501s33.5 67.167 33.5 144.5v911c0 72.667 -11 120.167 -33 142.5s-71 36.166 -147 41.499v38h1088l7 -294h-52c-17.333 90.667 -43.333 149.334 -78 176.001s-112 40 -232 40h-278c-30 0 -48.5 -4.83301 -55.5 -14.5
s-10.5 -27.834 -10.5 -54.501v-457h315c87.333 0 143 13 167 39s43.333 78.667 58 158h48v-474h-48c-15.333 79.333 -35 131.833 -59 157.5s-79.333 38.5 -166 38.5h-315v-507c0 -40.667 12.833 -64.667 38.5 -72s102.5 -11 230.5 -11c138.667 0 241 15.167 307 45.5
s125.333 103.833 178 220.5h57l-93 -346h-1107v37zM663.001 39.001c-32 -50.667 -54.9971 -97.165 -68.9971 -139.498s-21 -84.833 -21 -127.5c0 -38.667 12.167 -69.834 36.5 -93.501s53.166 -35.5 86.499 -35.5c21.333 0 44.666 5 69.999 15
c15.333 6.66699 34.666 16.667 57.999 30v-116c-28.667 -16.667 -58.167 -29.5 -88.5 -38.5s-60.833 -13.5 -91.5 -13.5c-58 0 -107.667 18.333 -149 55s-62 81.667 -62 135c0 37.333 7.66699 74.666 23 111.999c29.333 72 84 144.333 164 217h43z" />
    <glyph glyph-name="eogonek" unicode="&#x119;" horiz-adv-x="909" 
d="M716 840.5c70.667 -65 106 -157.166 106 -276.499h-635c6.66699 -154.667 41.667 -267.334 105 -338.001s138.333 -106 225 -106c70 0 129 18.333 177 55s92.333 88.667 133 156l35 -12c-27.333 -84.667 -78.5 -163 -153.5 -235s-166.833 -108 -275.5 -108
c-125.333 0 -222.166 47.333 -290.499 142s-102.5 203.667 -102.5 327c0 134 39.667 249.667 119 347s182.666 146 309.999 146c94 0 176.333 -32.5 247 -97.5zM237 764.001c-21.333 -36 -36.666 -81.334 -45.999 -136.001h422c-7.33301 66.667 -20 116.334 -38 149.001
c-32.667 58.667 -87.334 88 -164.001 88c-76 0 -134 -33.667 -174 -101zM492 31c-32 -50.667 -54.9971 -97.165 -68.9971 -139.498s-21 -84.833 -21 -127.5c0 -38.667 12.167 -69.834 36.5 -93.501s53.166 -35.5 86.499 -35.5c21.333 0 44.666 5 69.999 15
c15.333 6.66699 34.666 16.667 57.999 30v-116c-28.667 -16.667 -58.167 -29.5 -88.5 -38.5s-60.833 -13.5 -91.5 -13.5c-58 0 -107.667 18.333 -149 55s-62 81.667 -62 135c0 37.333 7.66699 74.666 23 111.999c29.333 72 84 144.333 164 217h43z" />
    <glyph glyph-name="Ecaron" unicode="&#x11a;" horiz-adv-x="1251" 
d="M23 37c75.333 8 124.167 21.501 146.5 40.501s33.5 67.167 33.5 144.5v911c0 72.667 -11 120.167 -33 142.5s-71 36.166 -147 41.499v38h1088l7 -294h-52c-17.333 90.667 -43.333 149.334 -78 176.001s-112 40 -232 40h-278c-30 0 -48.5 -4.83301 -55.5 -14.5
s-10.5 -27.834 -10.5 -54.501v-457h315c87.333 0 143 13 167 39s43.333 78.667 58 158h48v-474h-48c-15.333 79.333 -35 131.833 -59 157.5s-79.333 38.5 -166 38.5h-315v-507c0 -40.667 12.833 -64.667 38.5 -72s102.5 -11 230.5 -11c138.667 0 241 15.167 307 45.5
s125.333 103.833 178 220.5h57l-93 -346h-1107v37zM933.001 1789l-256 -341h-128l-256 341h71l249 -211l249 211h71zM613.001 1348z" />
    <glyph glyph-name="ecaron" unicode="&#x11b;" horiz-adv-x="909" 
d="M716 840.5c70.667 -65 106 -157.166 106 -276.499h-635c6.66699 -154.667 41.667 -267.334 105 -338.001s138.333 -106 225 -106c70 0 129 18.333 177 55s92.333 88.667 133 156l35 -12c-27.333 -84.667 -78.5 -163 -153.5 -235s-166.833 -108 -275.5 -108
c-125.333 0 -222.166 47.333 -290.499 142s-102.5 203.667 -102.5 327c0 134 39.667 249.667 119 347s182.666 146 309.999 146c94 0 176.333 -32.5 247 -97.5zM237 764.001c-21.333 -36 -36.666 -81.334 -45.999 -136.001h422c-7.33301 66.667 -20 116.334 -38 149.001
c-32.667 58.667 -87.334 88 -164.001 88c-76 0 -134 -33.667 -174 -101zM760 1393l-256 -341h-128l-256 341h71l249 -211l249 211h71zM440 952z" />
    <glyph glyph-name="Gcircumflex" unicode="&#x11c;" 
d="M992 1346c76.667 -22 120.669 -33.001 132.002 -33.001c29.333 0 50.166 5.66699 62.499 17s22.833 27.666 31.5 48.999h45l16 -431h-47c-42 99.333 -85.333 173.333 -130 222c-80.667 85.333 -185.667 128 -315 128c-131.333 0 -246.833 -49.833 -346.5 -149.5
s-149.5 -263.834 -149.5 -492.501c0 -188.667 49.667 -336 149 -442s222 -159 368 -159c24.667 0 53.667 2.33301 87 7s65 12 95 22c48.667 16 79 29.833 91 41.5s18 28.834 18 51.501v327c0 78.667 -11.167 127.667 -33.5 147s-71.166 31.333 -146.499 36v38h522v-38
c-50.667 -3.33301 -84.334 -11.666 -101.001 -24.999c-28 -21.333 -42 -65.333 -42 -132v-403c0 -24 -58.833 -56 -176.5 -96s-230.834 -60 -339.501 -60c-200 0 -368.667 58.333 -506 175c-151.333 128.667 -227 301.334 -227 518.001c0 190.667 60.333 354 181 490
c132.667 150 308.667 225 528 225c79.333 0 157.333 -11 234 -33zM436.002 1472l256 341h128l256 -341h-71l-249 211l-249 -211h-71zM756.002 1372z" />
    <glyph glyph-name="gcircumflex" unicode="&#x11d;" horiz-adv-x="1024" 
d="M295.5 -301c63 -21.333 135.169 -32.002 216.502 -32.002c110.667 0 200.667 19.167 270 57.5s104 85.5 104 141.5c0 44.667 -28 74.334 -84 89.001c-34.667 8.66699 -100.334 13.667 -197.001 15c-24.667 0.666992 -50.667 1.5 -78 2.5s-52.333 2.16699 -75 3.5
c-14.667 0.666992 -38.334 3.33398 -71.001 8.00098s-57 8.66699 -73 12c-8 0 -27.667 -21 -59 -63c-32 -42.667 -48 -82 -48 -118c0 -56 31.5 -94.667 94.5 -116zM189.502 442.998c-33.667 51.333 -50.499 108.998 -50.499 172.998c0 78 31 152 93 222s149.667 105 263 105
c48.667 0 102.334 -11.5 161.001 -34.5s115 -34.5 169 -34.5c14 0 35.167 0.5 63.5 1.5s48.833 1.5 61.5 1.5h12v-81h-173c12 -28 21.333 -52.333 28 -73c11.333 -38.667 17 -75.334 17 -110.001c0 -76 -31.5 -145.833 -94.5 -209.5s-147.833 -95.5 -254.5 -95.5
c-16.667 0 -46.667 3 -90 9c-19.333 0 -44.833 -16.333 -76.5 -49s-47.5 -59.334 -47.5 -80.001c0 -21.333 23.333 -37 70 -47c30.667 -6.66699 64.667 -10 102 -10c171.333 0 287.666 -9.66699 348.999 -29c100.667 -31.333 151 -98.666 151 -201.999
c0 -105.333 -58.833 -189.333 -176.5 -252s-236.5 -94 -356.5 -94c-109.333 0 -196 22.167 -260 66.5s-96 90.833 -96 139.5c0 24 8.5 47.5 25.5 70.5s50.5 57.167 100.5 102.5l66 59l12 12c-30.667 12 -53.667 23.667 -69 35c-26.667 20.667 -40 44.334 -40 71.001
c0 24.667 11.5 51.834 34.5 81.501s72.167 77.834 147.5 144.501c-60.667 20 -107.834 55.667 -141.501 107zM613.003 385.996c40 32 59.998 87.668 59.998 167.001c0 63.333 -16.167 134.666 -48.5 213.999s-86.166 119 -161.499 119c-65.333 0 -110.333 -31 -135 -93
c-12.667 -32.667 -19 -73 -19 -121c0 -81.333 19.667 -154.333 59 -219s90.333 -97 153 -97c36.667 0 67.334 10 92.001 30zM198.001 1041l256 341h128l256 -341h-71l-249 211l-249 -211h-71zM518.001 940.997z" />
    <glyph glyph-name="Gbreve" unicode="&#x11e;" 
d="M992 1346c76.667 -22 120.669 -33.001 132.002 -33.001c29.333 0 50.166 5.66699 62.499 17s22.833 27.666 31.5 48.999h45l16 -431h-47c-42 99.333 -85.333 173.333 -130 222c-80.667 85.333 -185.667 128 -315 128c-131.333 0 -246.833 -49.833 -346.5 -149.5
s-149.5 -263.834 -149.5 -492.501c0 -188.667 49.667 -336 149 -442s222 -159 368 -159c24.667 0 53.667 2.33301 87 7s65 12 95 22c48.667 16 79 29.833 91 41.5s18 28.834 18 51.501v327c0 78.667 -11.167 127.667 -33.5 147s-71.166 31.333 -146.499 36v38h522v-38
c-50.667 -3.33301 -84.334 -11.666 -101.001 -24.999c-28 -21.333 -42 -65.333 -42 -132v-403c0 -24 -58.833 -56 -176.5 -96s-230.834 -60 -339.501 -60c-200 0 -368.667 58.333 -506 175c-151.333 128.667 -227 301.334 -227 518.001c0 190.667 60.333 354 181 490
c132.667 150 308.667 225 528 225c79.333 0 157.333 -11 234 -33zM1014 1801c-8.66699 -86.667 -28 -153.667 -58 -201c-50 -80.667 -132.333 -121 -247 -121c-53.333 0 -101 13.333 -143 40c-80.667 52 -124 146 -130 282h62c8.66699 -62 32 -110.5 70 -145.5
s92.333 -52.5 163 -52.5c71.333 0 126 23.667 164 71c20.667 26 40 68.333 58 127h61zM725.002 1379z" />
    <glyph glyph-name="gbreve" unicode="&#x11f;" horiz-adv-x="1024" 
d="M295.5 -301c63 -21.333 135.169 -32.002 216.502 -32.002c110.667 0 200.667 19.167 270 57.5s104 85.5 104 141.5c0 44.667 -28 74.334 -84 89.001c-34.667 8.66699 -100.334 13.667 -197.001 15c-24.667 0.666992 -50.667 1.5 -78 2.5s-52.333 2.16699 -75 3.5
c-14.667 0.666992 -38.334 3.33398 -71.001 8.00098s-57 8.66699 -73 12c-8 0 -27.667 -21 -59 -63c-32 -42.667 -48 -82 -48 -118c0 -56 31.5 -94.667 94.5 -116zM189.502 442.998c-33.667 51.333 -50.499 108.998 -50.499 172.998c0 78 31 152 93 222s149.667 105 263 105
c48.667 0 102.334 -11.5 161.001 -34.5s115 -34.5 169 -34.5c14 0 35.167 0.5 63.5 1.5s48.833 1.5 61.5 1.5h12v-81h-173c12 -28 21.333 -52.333 28 -73c11.333 -38.667 17 -75.334 17 -110.001c0 -76 -31.5 -145.833 -94.5 -209.5s-147.833 -95.5 -254.5 -95.5
c-16.667 0 -46.667 3 -90 9c-19.333 0 -44.833 -16.333 -76.5 -49s-47.5 -59.334 -47.5 -80.001c0 -21.333 23.333 -37 70 -47c30.667 -6.66699 64.667 -10 102 -10c171.333 0 287.666 -9.66699 348.999 -29c100.667 -31.333 151 -98.666 151 -201.999
c0 -105.333 -58.833 -189.333 -176.5 -252s-236.5 -94 -356.5 -94c-109.333 0 -196 22.167 -260 66.5s-96 90.833 -96 139.5c0 24 8.5 47.5 25.5 70.5s50.5 57.167 100.5 102.5l66 59l12 12c-30.667 12 -53.667 23.667 -69 35c-26.667 20.667 -40 44.334 -40 71.001
c0 24.667 11.5 51.834 34.5 81.501s72.167 77.834 147.5 144.501c-60.667 20 -107.834 55.667 -141.501 107zM613.003 385.996c40 32 59.998 87.668 59.998 167.001c0 63.333 -16.167 134.666 -48.5 213.999s-86.166 119 -161.499 119c-65.333 0 -110.333 -31 -135 -93
c-12.667 -32.667 -19 -73 -19 -121c0 -81.333 19.667 -154.333 59 -219s90.333 -97 153 -97c36.667 0 67.334 10 92.001 30zM802.001 1365c-8.66699 -86.667 -28 -153.667 -58 -201c-50 -80.667 -132.333 -121 -247 -121c-53.333 0 -101 13.333 -143 40
c-80.667 52 -124 146 -130 282h62c8.66699 -62 32 -110.5 70 -145.5s92.333 -52.5 163 -52.5c71.333 0 126 23.667 164 71c20.667 26 40 68.333 58 127h61zM513.001 942.997z" />
    <glyph glyph-name="Gdotaccent" unicode="&#x120;" 
d="M992 1346c76.667 -22 120.669 -33.001 132.002 -33.001c29.333 0 50.166 5.66699 62.499 17s22.833 27.666 31.5 48.999h45l16 -431h-47c-42 99.333 -85.333 173.333 -130 222c-80.667 85.333 -185.667 128 -315 128c-131.333 0 -246.833 -49.833 -346.5 -149.5
s-149.5 -263.834 -149.5 -492.501c0 -188.667 49.667 -336 149 -442s222 -159 368 -159c24.667 0 53.667 2.33301 87 7s65 12 95 22c48.667 16 79 29.833 91 41.5s18 28.834 18 51.501v327c0 78.667 -11.167 127.667 -33.5 147s-71.166 31.333 -146.499 36v38h522v-38
c-50.667 -3.33301 -84.334 -11.666 -101.001 -24.999c-28 -21.333 -42 -65.333 -42 -132v-403c0 -24 -58.833 -56 -176.5 -96s-230.834 -60 -339.501 -60c-200 0 -368.667 58.333 -506 175c-151.333 128.667 -227 301.334 -227 518.001c0 190.667 60.333 354 181 490
c132.667 150 308.667 225 528 225c79.333 0 157.333 -11 234 -33zM823.502 1545c-19.667 -20 -43.834 -30 -72.501 -30c-28 0 -52 10 -72 30s-30 44 -30 72s10 52 30 72s44 30 72 30c28.667 0 52.834 -10 72.501 -30s29.5 -44 29.5 -72s-9.83301 -52 -29.5 -72z
M751.002 1382z" />
    <glyph glyph-name="gdotaccent" unicode="&#x121;" horiz-adv-x="1024" 
d="M295.5 -301c63 -21.333 135.169 -32.002 216.502 -32.002c110.667 0 200.667 19.167 270 57.5s104 85.5 104 141.5c0 44.667 -28 74.334 -84 89.001c-34.667 8.66699 -100.334 13.667 -197.001 15c-24.667 0.666992 -50.667 1.5 -78 2.5s-52.333 2.16699 -75 3.5
c-14.667 0.666992 -38.334 3.33398 -71.001 8.00098s-57 8.66699 -73 12c-8 0 -27.667 -21 -59 -63c-32 -42.667 -48 -82 -48 -118c0 -56 31.5 -94.667 94.5 -116zM189.502 442.998c-33.667 51.333 -50.499 108.998 -50.499 172.998c0 78 31 152 93 222s149.667 105 263 105
c48.667 0 102.334 -11.5 161.001 -34.5s115 -34.5 169 -34.5c14 0 35.167 0.5 63.5 1.5s48.833 1.5 61.5 1.5h12v-81h-173c12 -28 21.333 -52.333 28 -73c11.333 -38.667 17 -75.334 17 -110.001c0 -76 -31.5 -145.833 -94.5 -209.5s-147.833 -95.5 -254.5 -95.5
c-16.667 0 -46.667 3 -90 9c-19.333 0 -44.833 -16.333 -76.5 -49s-47.5 -59.334 -47.5 -80.001c0 -21.333 23.333 -37 70 -47c30.667 -6.66699 64.667 -10 102 -10c171.333 0 287.666 -9.66699 348.999 -29c100.667 -31.333 151 -98.666 151 -201.999
c0 -105.333 -58.833 -189.333 -176.5 -252s-236.5 -94 -356.5 -94c-109.333 0 -196 22.167 -260 66.5s-96 90.833 -96 139.5c0 24 8.5 47.5 25.5 70.5s50.5 57.167 100.5 102.5l66 59l12 12c-30.667 12 -53.667 23.667 -69 35c-26.667 20.667 -40 44.334 -40 71.001
c0 24.667 11.5 51.834 34.5 81.501s72.167 77.834 147.5 144.501c-60.667 20 -107.834 55.667 -141.501 107zM613.003 385.996c40 32 59.998 87.668 59.998 167.001c0 63.333 -16.167 134.666 -48.5 213.999s-86.166 119 -161.499 119c-65.333 0 -110.333 -31 -135 -93
c-12.667 -32.667 -19 -73 -19 -121c0 -81.333 19.667 -154.333 59 -219s90.333 -97 153 -97c36.667 0 67.334 10 92.001 30zM580.501 1141c-19.667 -20 -43.834 -30 -72.501 -30c-28 0 -52 10 -72 30s-30 44 -30 72s10 52 30 72s44 30 72 30c28.667 0 52.834 -10 72.501 -30
s29.5 -44 29.5 -72s-9.83301 -52 -29.5 -72zM508.001 977.997z" />
    <glyph glyph-name="Gcedilla" unicode="&#x122;" 
d="M992 1346c76.667 -22 120.669 -33.001 132.002 -33.001c29.333 0 50.166 5.66699 62.499 17s22.833 27.666 31.5 48.999h45l16 -431h-47c-42 99.333 -85.333 173.333 -130 222c-80.667 85.333 -185.667 128 -315 128c-131.333 0 -246.833 -49.833 -346.5 -149.5
s-149.5 -263.834 -149.5 -492.501c0 -188.667 49.667 -336 149 -442s222 -159 368 -159c24.667 0 53.667 2.33301 87 7s65 12 95 22c48.667 16 79 29.833 91 41.5s18 28.834 18 51.501v327c0 78.667 -11.167 127.667 -33.5 147s-71.166 31.333 -146.499 36v38h522v-38
c-50.667 -3.33301 -84.334 -11.666 -101.001 -24.999c-28 -21.333 -42 -65.333 -42 -132v-403c0 -24 -58.833 -56 -176.5 -96s-230.834 -60 -339.501 -60c-200 0 -368.667 58.333 -506 175c-151.333 128.667 -227 301.334 -227 518.001c0 190.667 60.333 354 181 490
c132.667 150 308.667 225 528 225c79.333 0 157.333 -11 234 -33zM809.002 -543.001c-48.667 -58 -101 -99.667 -157 -125l-19 40c64 36 108.167 75 132.5 117s36.5 77 36.5 105c0 9.33301 -3 15.333 -9 18s-12.333 4 -19 4l-67 -7c-28 0 -53.667 9.16699 -77 27.5
s-35 44.833 -35 79.5c0 26.667 9.66699 52.667 29 78s51 38 95 38c42 0 79.667 -16.5 113 -49.5s50 -78.833 50 -137.5c0 -67.333 -24.333 -130 -73 -188z" />
    <glyph glyph-name="gcedilla" unicode="&#x123;" horiz-adv-x="1024" 
d="M295.5 -301c63 -21.333 135.169 -32.002 216.502 -32.002c110.667 0 200.667 19.167 270 57.5s104 85.5 104 141.5c0 44.667 -28 74.334 -84 89.001c-34.667 8.66699 -100.334 13.667 -197.001 15c-24.667 0.666992 -50.667 1.5 -78 2.5s-52.333 2.16699 -75 3.5
c-14.667 0.666992 -38.334 3.33398 -71.001 8.00098s-57 8.66699 -73 12c-8 0 -27.667 -21 -59 -63c-32 -42.667 -48 -82 -48 -118c0 -56 31.5 -94.667 94.5 -116zM189.502 442.998c-33.667 51.333 -50.499 108.998 -50.499 172.998c0 78 31 152 93 222s149.667 105 263 105
c48.667 0 102.334 -11.5 161.001 -34.5s115 -34.5 169 -34.5c14 0 35.167 0.5 63.5 1.5s48.833 1.5 61.5 1.5h12v-81h-173c12 -28 21.333 -52.333 28 -73c11.333 -38.667 17 -75.334 17 -110.001c0 -76 -31.5 -145.833 -94.5 -209.5s-147.833 -95.5 -254.5 -95.5
c-16.667 0 -46.667 3 -90 9c-19.333 0 -44.833 -16.333 -76.5 -49s-47.5 -59.334 -47.5 -80.001c0 -21.333 23.333 -37 70 -47c30.667 -6.66699 64.667 -10 102 -10c171.333 0 287.666 -9.66699 348.999 -29c100.667 -31.333 151 -98.666 151 -201.999
c0 -105.333 -58.833 -189.333 -176.5 -252s-236.5 -94 -356.5 -94c-109.333 0 -196 22.167 -260 66.5s-96 90.833 -96 139.5c0 24 8.5 47.5 25.5 70.5s50.5 57.167 100.5 102.5l66 59l12 12c-30.667 12 -53.667 23.667 -69 35c-26.667 20.667 -40 44.334 -40 71.001
c0 24.667 11.5 51.834 34.5 81.501s72.167 77.834 147.5 144.501c-60.667 20 -107.834 55.667 -141.501 107zM613.003 385.996c40 32 59.998 87.668 59.998 167.001c0 63.333 -16.167 134.666 -48.5 213.999s-86.166 119 -161.499 119c-65.333 0 -110.333 -31 -135 -93
c-12.667 -32.667 -19 -73 -19 -121c0 -81.333 19.667 -154.333 59 -219s90.333 -97 153 -97c36.667 0 67.334 10 92.001 30zM416.105 1399.96c48.6553 57.9854 100.976 99.6406 156.962 124.968l18.9951 -39.9902c-63.9844 -35.9912 -108.141 -74.9814 -132.468 -116.971
s-36.4902 -76.9805 -36.4902 -104.974c0 -9.33105 2.99902 -15.3291 8.99707 -17.9951c5.99902 -2.66602 12.3311 -3.99902 18.9961 -3.99902l66.9844 6.99805c27.9932 0 53.6533 -9.16406 76.9805 -27.4932c23.3281 -18.3291 34.9922 -44.8223 34.9922 -79.4805
c0 -26.6602 -9.66406 -52.6543 -28.9932 -77.9814s-50.9883 -37.9902 -94.9775 -37.9902c-41.9902 0 -79.6475 16.4961 -112.973 49.4883c-33.3252 32.9912 -49.9873 78.8135 -49.9873 137.466c0 67.3174 24.3271 129.969 72.9814 187.954z" />
    <glyph glyph-name="Hcircumflex" unicode="&#x124;" 
d="M33 37c80 8.66699 129.998 23.5 149.998 44.5s30 75.833 30 164.5v887c0 73.333 -11.167 121 -33.5 143s-71.166 35.667 -146.499 41v38h569v-38c-75.333 -5.33301 -124.333 -19 -147 -41s-34 -69.667 -34 -143v-399h621v399c0 73.333 -11 121 -33 143
s-71 35.667 -147 41v38h569v-38c-75.333 -5.33301 -124.166 -19 -146.499 -41s-33.5 -69.667 -33.5 -143v-911c0 -74.667 11.167 -122.5 33.5 -143.5s71.166 -34.833 146.499 -41.5v-37h-569v37c80.667 8 130.834 22.667 150.501 44s29.5 76.333 29.5 165v398h-621v-422
c0 -74.667 11.333 -122.667 34 -144s71.667 -35 147 -41v-37h-569v37zM396.998 1464l256 341h128l256 -341h-71l-249 211l-249 -211h-71zM716.998 1364z" />
    <glyph glyph-name="hcircumflex" unicode="&#x125;" horiz-adv-x="1024" 
d="M18 28c54.667 7.33301 90.5 20.835 107.5 40.502s25.5 66.167 25.5 139.5v960c0 37.333 -4.83301 64.833 -14.5 82.5s-33.167 26.5 -70.5 26.5c-7.33301 0 -14.5 -0.5 -21.5 -1.5l-23.5 -3.5v36l108.5 31.5c43 12.333 72.833 21.166 89.5 26.499l96 30l2 -7v-614
c42 48 79.333 83.333 112 106c58.667 40 122 60 190 60c108 0 181.667 -45.333 221 -136c21.333 -48 32 -111 32 -189v-408c0 -70.667 8.16699 -116.667 24.5 -138s49.833 -35.333 100.5 -42v-28h-433v28c58 8 95.333 21.667 112 41s25 65.666 25 138.999v405
c0 64.667 -10.833 117 -32.5 157s-62.5 60 -122.5 60c-52 0 -102.333 -18.667 -151 -56s-73 -61.666 -73 -72.999v-493c0 -74.667 8.66699 -121.334 26 -140.001s54.333 -32 111 -40v-28h-441v28zM190 1499l256 341h128l256 -341h-71l-249 211l-249 -211h-71zM510 1399z" />
    <glyph glyph-name="Hbar" unicode="&#x126;" 
d="M33 37c80 8.66699 129.998 23.5 149.998 44.5s30 75.833 30 164.5v887c0 73.333 -11.167 121 -33.5 143s-71.166 35.667 -146.499 41v38h569v-38c-75.333 -5.33301 -124.333 -19 -147 -41s-34 -69.667 -34 -143v-399h621v399c0 73.333 -11 121 -33 143
s-71 35.667 -147 41v38h569v-38c-75.333 -5.33301 -124.166 -19 -146.499 -41s-33.5 -69.667 -33.5 -143v-911c0 -74.667 11.167 -122.5 33.5 -143.5s71.166 -34.833 146.499 -41.5v-37h-569v37c80.667 8 130.834 22.667 150.501 44s29.5 76.333 29.5 165v398h-621v-422
c0 -74.667 11.333 -122.667 34 -144s71.667 -35 147 -41v-37h-569v37zM1246 1041v-99h-1028v99h1028z" />
    <glyph glyph-name="hbar" unicode="&#x127;" horiz-adv-x="1024" 
d="M18 28c54.667 7.33301 90.5 20.835 107.5 40.502s25.5 66.167 25.5 139.5v960c0 37.333 -4.83301 64.833 -14.5 82.5s-33.167 26.5 -70.5 26.5c-7.33301 0 -14.5 -0.5 -21.5 -1.5l-23.5 -3.5v36l108.5 31.5c43 12.333 72.833 21.166 89.5 26.499l96 30l2 -7v-614
c42 48 79.333 83.333 112 106c58.667 40 122 60 190 60c108 0 181.667 -45.333 221 -136c21.333 -48 32 -111 32 -189v-408c0 -70.667 8.16699 -116.667 24.5 -138s49.833 -35.333 100.5 -42v-28h-433v28c58 8 95.333 21.667 112 41s25 65.666 25 138.999v405
c0 64.667 -10.833 117 -32.5 157s-62.5 60 -122.5 60c-52 0 -102.333 -18.667 -151 -56s-73 -61.666 -73 -72.999v-493c0 -74.667 8.66699 -121.334 26 -140.001s54.333 -32 111 -40v-28h-441v28zM-43 1130h640v-109h-640v109z" />
    <glyph glyph-name="Itilde" unicode="&#x128;" horiz-adv-x="682" 
d="M33 37c83.333 6 137.333 18.5 162 37.5s37 68.167 37 147.5v911c0 75.333 -12.333 123.833 -37 145.5s-78.667 34.5 -162 38.5v38h606v-38c-83.333 -4 -137.333 -16.833 -162 -38.5s-37 -70.167 -37 -145.5v-911c0 -79.333 12.333 -128.5 37 -147.5
s78.667 -31.5 162 -37.5v-37h-606v37zM405 1639c23.333 -11.333 42.167 -19.166 56.5 -23.499s28.166 -6.5 41.499 -6.5c34 0 62 12.667 84 38c14.667 16 26 37.333 34 64h59c-3.33301 -36 -16.333 -73.333 -39 -112c-41.333 -69.333 -101.333 -104 -180 -104
c-28 0 -54.167 4 -78.5 12s-51.5 19.667 -81.5 35l-47 24c-11.333 5.33301 -24.166 10.166 -38.499 14.499s-27.5 6.5 -39.5 6.5c-34 0 -61 -11.333 -81 -34c-10.667 -12.667 -21 -32 -31 -58h-62c17.333 71.333 46 123.5 86 156.5s83.667 49.5 131 49.5
c22 0 43.833 -3.16699 65.5 -9.5s45.5 -15.833 71.5 -28.5zM341.001 1343z" />
    <glyph glyph-name="itilde" unicode="&#x129;" horiz-adv-x="569" 
d="M40 28c71.333 6.66699 116.333 18.8311 135 36.498s28 65.5 28 143.5v477c0 43.333 -3 73.333 -9 90c-10 27.333 -31 41 -63 41c-7.33301 0 -14.5 -0.666992 -21.5 -2s-27.167 -6.66602 -60.5 -15.999v31l43 14c116.667 38 198 66.667 244 86c18.667 8 30.667 12 36 12
c1.33301 -4.66699 2 -9.66699 2 -15v-718c0 -76 9.16699 -123.667 27.5 -143s59.833 -31.666 124.5 -36.999v-28h-486v28zM355 1264c23.333 -11.333 42.167 -19.166 56.5 -23.499s28.166 -6.5 41.499 -6.5c34 0 62 12.667 84 38c14.667 16 26 37.333 34 64h59
c-3.33301 -36 -16.333 -73.333 -39 -112c-41.333 -69.333 -101.333 -104 -180 -104c-28 0 -54.167 4 -78.5 12s-51.5 19.667 -81.5 35l-47 24c-11.333 5.33301 -24.166 10.166 -38.499 14.499s-27.5 6.5 -39.5 6.5c-34 0 -61 -11.333 -81 -34
c-10.667 -12.667 -21 -32 -31 -58h-62c17.333 71.333 46 123.5 86 156.5s83.667 49.5 131 49.5c22 0 43.833 -3.16699 65.5 -9.5s45.5 -15.833 71.5 -28.5zM291.001 967.997z" />
    <glyph glyph-name="Imacron" unicode="&#x12a;" horiz-adv-x="682" 
d="M33 37c83.333 6 137.333 18.5 162 37.5s37 68.167 37 147.5v911c0 75.333 -12.333 123.833 -37 145.5s-78.667 34.5 -162 38.5v38h606v-38c-83.333 -4 -137.333 -16.833 -162 -38.5s-37 -70.167 -37 -145.5v-911c0 -79.333 12.333 -128.5 37 -147.5
s78.667 -31.5 162 -37.5v-37h-606v37zM15 1566h640v-109h-640v109z" />
    <glyph glyph-name="imacron" unicode="&#x12b;" horiz-adv-x="569" 
d="M40 28c71.333 6.66699 116.333 18.8311 135 36.498s28 65.5 28 143.5v477c0 43.333 -3 73.333 -9 90c-10 27.333 -31 41 -63 41c-7.33301 0 -14.5 -0.666992 -21.5 -2s-27.167 -6.66602 -60.5 -15.999v31l43 14c116.667 38 198 66.667 244 86c18.667 8 30.667 12 36 12
c1.33301 -4.66699 2 -9.66699 2 -15v-718c0 -76 9.16699 -123.667 27.5 -143s59.833 -31.666 124.5 -36.999v-28h-486v28zM-34 1157h640v-109h-640v109z" />
    <glyph glyph-name="Ibreve" unicode="&#x12c;" horiz-adv-x="682" 
d="M33 37c83.333 6 137.333 18.5 162 37.5s37 68.167 37 147.5v911c0 75.333 -12.333 123.833 -37 145.5s-78.667 34.5 -162 38.5v38h606v-38c-83.333 -4 -137.333 -16.833 -162 -38.5s-37 -70.167 -37 -145.5v-911c0 -79.333 12.333 -128.5 37 -147.5
s78.667 -31.5 162 -37.5v-37h-606v37zM589 1796c-8.66699 -86.667 -28 -153.667 -58 -201c-50 -80.667 -132.333 -121 -247 -121c-53.333 0 -101 13.333 -143 40c-80.667 52 -124 146 -130 282h62c8.66699 -62 32 -110.5 70 -145.5s92.333 -52.5 163 -52.5
c71.333 0 126 23.667 164 71c20.667 26 40 68.333 58 127h61zM300 1374z" />
    <glyph glyph-name="ibreve" unicode="&#x12d;" horiz-adv-x="569" 
d="M40 28c71.333 6.66699 116.333 18.8311 135 36.498s28 65.5 28 143.5v477c0 43.333 -3 73.333 -9 90c-10 27.333 -31 41 -63 41c-7.33301 0 -14.5 -0.666992 -21.5 -2s-27.167 -6.66602 -60.5 -15.999v31l43 14c116.667 38 198 66.667 244 86c18.667 8 30.667 12 36 12
c1.33301 -4.66699 2 -9.66699 2 -15v-718c0 -76 9.16699 -123.667 27.5 -143s59.833 -31.666 124.5 -36.999v-28h-486v28zM575 1372c-8.66699 -86.667 -28 -153.667 -58 -201c-50 -80.667 -132.333 -121 -247 -121c-53.333 0 -101 13.333 -143 40
c-80.667 52 -124 146 -130 282h62c8.66699 -62 32 -110.5 70 -145.5s92.333 -52.5 163 -52.5c71.333 0 126 23.667 164 71c20.667 26 40 68.333 58 127h61zM286 949.997z" />
    <glyph glyph-name="Iogonek" unicode="&#x12e;" horiz-adv-x="682" 
d="M33 37c83.333 6 137.333 18.5 162 37.5s37 68.167 37 147.5v911c0 75.333 -12.333 123.833 -37 145.5s-78.667 34.5 -162 38.5v38h606v-38c-83.333 -4 -137.333 -16.833 -162 -38.5s-37 -70.167 -37 -145.5v-911c0 -79.333 12.333 -128.5 37 -147.5
s78.667 -31.5 162 -37.5v-37h-606v37zM376 39c-32 -50.667 -54.9971 -97.165 -68.9971 -139.498s-21 -84.833 -21 -127.5c0 -38.667 12.167 -69.834 36.5 -93.501s53.166 -35.5 86.499 -35.5c21.333 0 44.666 5 69.999 15c15.333 6.66699 34.666 16.667 57.999 30v-116
c-28.667 -16.667 -58.167 -29.5 -88.5 -38.5s-60.833 -13.5 -91.5 -13.5c-58 0 -107.667 18.333 -149 55s-62 81.667 -62 135c0 37.333 7.66699 74.666 23 111.999c29.333 72 84 144.333 164 217h43z" />
    <glyph glyph-name="iogonek" unicode="&#x12f;" horiz-adv-x="569" 
d="M198 1365c20 20.667 44.667 30.998 74 30.998c28.667 0 53.167 -10.167 73.5 -30.5s30.5 -45.166 30.5 -74.499c0 -28.667 -10.167 -53.167 -30.5 -73.5s-44.833 -30.5 -73.5 -30.5c-29.333 0 -54 10.167 -74 30.5s-30 44.833 -30 73.5s10 53.334 30 74.001zM40 27.998
c71.333 6.66699 116.333 18.8311 135 36.498s28 65.5 28 143.5v477c0 43.333 -3 73.333 -9 90c-10 27.333 -31 41 -63 41c-7.33301 0 -14.5 -0.666992 -21.5 -2s-27.167 -6.66602 -60.5 -15.999v31l43 14c116.667 38 198 66.667 244 86c18.667 8 30.667 12 36 12
c1.33301 -4.66699 2 -9.66699 2 -15v-718c0 -76 9.16699 -123.667 27.5 -143s59.833 -31.666 124.5 -36.999v-28h-486v28zM323 21.9951c-32 -50.667 -54.9971 -97.165 -68.9971 -139.498s-21 -84.833 -21 -127.5c0 -38.667 12.167 -69.834 36.5 -93.501
s53.166 -35.5 86.499 -35.5c21.333 0 44.666 5 69.999 15c15.333 6.66699 34.666 16.667 57.999 30v-116c-28.667 -16.667 -58.167 -29.5 -88.5 -38.5s-60.833 -13.5 -91.5 -13.5c-58 0 -107.667 18.333 -149 55s-62 81.667 -62 135c0 37.333 7.66699 74.666 23 111.999
c29.333 72 84 144.333 164 217h43z" />
    <glyph glyph-name="Idotaccent" unicode="&#x130;" horiz-adv-x="682" 
d="M33 37c83.333 6 137.333 18.5 162 37.5s37 68.167 37 147.5v911c0 75.333 -12.333 123.833 -37 145.5s-78.667 34.5 -162 38.5v38h606v-38c-83.333 -4 -137.333 -16.833 -162 -38.5s-37 -70.167 -37 -145.5v-911c0 -79.333 12.333 -128.5 37 -147.5
s78.667 -31.5 162 -37.5v-37h-606v37zM408.5 1518c-19.667 -20 -43.834 -30 -72.501 -30c-28 0 -52 10 -72 30s-30 44 -30 72s10 52 30 72s44 30 72 30c28.667 0 52.834 -10 72.501 -30s29.5 -44 29.5 -72s-9.83301 -52 -29.5 -72zM336 1355z" />
    <glyph glyph-name="dotlessi" unicode="&#x131;" horiz-adv-x="569" 
d="M40 28c71.333 6.66699 116.333 18.8311 135 36.498s28 65.5 28 143.5v477c0 43.333 -3 73.333 -9 90c-10 27.333 -31 41 -63 41c-7.33301 0 -14.5 -0.666992 -21.5 -2s-27.167 -6.66602 -60.5 -15.999v31l43 14c116.667 38 198 66.667 244 86c18.667 8 30.667 12 36 12
c1.33301 -4.66699 2 -9.66699 2 -15v-718c0 -76 9.16699 -123.667 27.5 -143s59.833 -31.666 124.5 -36.999v-28h-486v28zM286 937.997z" />
    <glyph glyph-name="IJ" unicode="&#x132;" 
d="M33 37c83.333 6 137.333 18.5 162 37.5s37 68.167 37 147.5v911c0 75.333 -12.333 123.833 -37 145.5s-78.667 34.5 -162 38.5v38h606v-38c-83.333 -4 -137.333 -16.833 -162 -38.5s-37 -70.167 -37 -145.5v-911c0 -79.333 12.333 -128.5 37 -147.5
s78.667 -31.5 162 -37.5v-37h-606v37zM733.5 196.5c20.333 15.667 42.167 23.501 65.5 23.501c46 0 80 -28.5 102 -85.5s45.333 -85.5 70 -85.5c26.667 0 45.167 11.667 55.5 35s15.5 64 15.5 122v927c0 76 -12.333 124.667 -37 146s-75.667 34 -153 38v38h588v-38
c-79.333 -4.66699 -130.833 -18.834 -154.5 -42.501s-35.5 -70.834 -35.5 -141.501v-752c0 -137.333 -33 -239 -99 -305c-66 -66.667 -147.667 -100 -245 -100c-64 0 -113.833 14.667 -149.5 44s-53.5 62 -53.5 98c0 36.667 10.167 62.834 30.5 78.501z" />
    <glyph glyph-name="ij" unicode="&#x133;" horiz-adv-x="1138" 
d="M198 1365c20 20.667 44.667 30.998 74 30.998c28.667 0 53.167 -10.167 73.5 -30.5s30.5 -45.166 30.5 -74.499c0 -28.667 -10.167 -53.167 -30.5 -73.5s-44.833 -30.5 -73.5 -30.5c-29.333 0 -54 10.167 -74 30.5s-30 44.833 -30 73.5s10 53.334 30 74.001zM40 27.998
c71.333 6.66699 116.333 18.8311 135 36.498s28 65.5 28 143.5v477c0 43.333 -3 73.333 -9 90c-10 27.333 -31 41 -63 41c-7.33301 0 -14.5 -0.666992 -21.5 -2s-27.167 -6.66602 -60.5 -15.999v31l43 14c116.667 38 198 66.667 244 86c18.667 8 30.667 12 36 12
c1.33301 -4.66699 2 -9.66699 2 -15v-718c0 -76 9.16699 -123.667 27.5 -143s59.833 -31.666 124.5 -36.999v-28h-486v28zM824 1365c20 20.667 44.667 31 74 31c28.667 0 53.167 -10.333 73.5 -31s30.5 -45.334 30.5 -74.001s-10.167 -53.167 -30.5 -73.5
s-44.833 -30.5 -73.5 -30.5c-29.333 0 -54 10.167 -74 30.5s-30 44.833 -30 73.5s10 53.334 30 74.001zM634.5 -317.005c33 -42 62.165 -63.002 87.498 -63.002c42 0 70.333 24.333 85 73c8.66699 29.333 13.334 78.333 14.001 147c0.666992 24.667 1 85.334 1 182.001v658
c0 45.333 -4.33301 78.833 -13 100.5s-28.667 32.5 -60 32.5c-9.33301 0 -21.5 -1.66699 -36.5 -5s-30.5 -7.33301 -46.5 -12v31l85 28c20.667 6.66699 47.5 15.834 80.5 27.501l94.5 34.5l60 21c2.66699 -4 4 -8.66699 4 -14v-924c0 -115.333 -14.667 -205.333 -44 -270
c-53.333 -118.667 -155.333 -178 -306 -178c-49.333 0 -93.166 10 -131.499 30s-57.5 46.667 -57.5 80c0 22 7.66699 41.5 23 58.5s35 25.5 59 25.5c34.667 0 68.5 -21 101.5 -63z" />
    <glyph glyph-name="Jcircumflex" unicode="&#x134;" horiz-adv-x="797" 
d="M51.5 196.5c20.333 15.667 42.167 23.501 65.5 23.501c46 0 80 -28.5 102 -85.5s45.333 -85.5 70 -85.5c26.667 0 45.167 11.667 55.5 35s15.5 64 15.5 122v927c0 76 -12.333 124.667 -37 146s-75.667 34 -153 38v38h588v-38
c-79.333 -4.66699 -130.833 -18.834 -154.5 -42.501s-35.5 -70.834 -35.5 -141.501v-752c0 -137.333 -33 -239 -99 -305c-66 -66.667 -147.667 -100 -245 -100c-64 0 -113.833 14.667 -149.5 44s-53.5 62 -53.5 98c0 36.667 10.167 62.834 30.5 78.501zM118.001 1469
l256 341h128l256 -341h-71l-249 211l-249 -211h-71zM438.001 1369z" />
    <glyph glyph-name="jcircumflex" unicode="&#x135;" horiz-adv-x="569" 
d="M153 -380c42 0 70.3311 24.3311 84.998 72.998c8.66699 29.333 13.334 78.333 14.001 147c0.666992 24.667 1 85.334 1 182.001v658c0 45.333 -4.33301 78.833 -13 100.5s-28.667 32.5 -60 32.5c-9.33301 0 -21.5 -1.66699 -36.5 -5s-30.5 -7.33301 -46.5 -12v31l85 28
c20.667 6.66699 47.5 15.834 80.5 27.501l94.5 34.5l60 21c2.66699 -4 4 -8.66699 4 -14v-924c0 -115.333 -14.667 -205.333 -44 -270c-53.333 -118.667 -155.333 -178 -306 -178c-49.333 0 -93.166 10 -131.499 30s-57.5 46.667 -57.5 80c0 22 7.66699 41.5 23 58.5
s35 25.5 59 25.5c34.667 0 68.5 -21 101.5 -63s62.167 -63 87.5 -63zM-67.002 1038l256 341h128l256 -341h-71l-249 211l-249 -211h-71zM252.998 937.998z" />
    <glyph glyph-name="Kcedilla" unicode="&#x136;" 
d="M37 37c83.333 6.66699 135.001 21.5 155.001 44.5s30 77.833 30 164.5v887c0 74 -11.167 121.833 -33.5 143.5s-72.833 35.167 -151.5 40.5v38h584v-38c-80 -4 -131.667 -17.333 -155 -40s-35 -70.667 -35 -144v-420c126 107.333 229 198.666 309 273.999
c143.333 136.667 215 224.334 215 263.001c0 27.333 -12.167 45.333 -36.5 54s-58.833 13 -103.5 13v38h536v-33c-65.333 -6.66699 -116.833 -19.667 -154.5 -39s-89.834 -61.666 -156.501 -126.999l-389 -381l477 -515c88.667 -95.333 149 -154.833 181 -178.5
s79 -39.167 141 -46.5v-35h-626v37c56.667 2 95 6.5 115 13.5s30 20.833 30 41.5c0 11.333 -6.5 28.666 -19.5 51.999s-33.5 50.333 -61.5 81l-388 426l-69 -59v-370c0 -76 11.5 -124.167 34.5 -144.5s73.167 -33.833 150.5 -40.5v-37h-579v37zM779.001 -533
c-48.667 -58 -101 -99.667 -157 -125l-19 40c64 36 108.167 75 132.5 117s36.5 77 36.5 105c0 9.33301 -3 15.333 -9 18s-12.333 4 -19 4l-67 -7c-28 0 -53.667 9.16699 -77 27.5s-35 44.833 -35 79.5c0 26.667 9.66699 52.667 29 78s51 38 95 38
c42 0 79.667 -16.5 113 -49.5s50 -78.833 50 -137.5c0 -67.333 -24.333 -130 -73 -188z" />
    <glyph glyph-name="kcedilla" unicode="&#x137;" horiz-adv-x="1024" 
d="M4 28c64 4.66699 106.167 15.334 126.5 32.001s30.5 52.667 30.5 108v1002c0 47.333 -8 77.333 -24 90s-39 19 -69 19c-12.667 0 -23.667 -0.333008 -33 -1s-19.666 -1.66699 -30.999 -3v28l90 24c68.667 18 127 35 175 51c29.333 10 46.333 15 51 15
c4 0 6.5 -0.833008 7.5 -2.5s1.5 -5.5 1.5 -11.5v-841l277 244c20 18 33.5 32.333 40.5 43s10.5 20 10.5 28c0 15.333 -7.5 25 -22.5 29s-41.833 7 -80.5 9v28h417v-28c-74.667 -4.66699 -134.667 -19.5 -180 -44.5s-132.333 -96.5 -261 -214.5l-59 -54l185 -240
c94.667 -122.667 166 -204.167 214 -244.5s99 -62.833 153 -67.5v-26h-445v28l35 2c11.333 0.666992 21.666 3 30.999 7s14 10.667 14 20c0 7.33301 -1.66699 14.166 -5 20.499s-8 13.5 -14 21.5l-310 408v-370c0 -46 17 -76.667 51 -92c20 -9.33301 54.333 -14.333 103 -15
v-30h-479v28zM569 -533c-48.667 -58 -101 -99.667 -157 -125l-19 40c64 36 108.167 75 132.5 117s36.5 77 36.5 105c0 9.33301 -3 15.333 -9 18s-12.333 4 -19 4l-67 -7c-28 0 -53.667 9.16699 -77 27.5s-35 44.833 -35 79.5c0 26.667 9.66699 52.667 29 78s51 38 95 38
c42 0 79.667 -16.5 113 -49.5s50 -78.833 50 -137.5c0 -67.333 -24.333 -130 -73 -188z" />
    <glyph glyph-name="kgreenlandic" unicode="&#x138;" horiz-adv-x="1024" 
d="M4 28c64 4.66699 106.167 15.334 126.5 32.001s30.5 52.667 30.5 108v572c0 47.333 -8 77.333 -24 90s-39 19 -69 19c-12.667 0 -23.667 -0.333008 -33 -1s-19.666 -1.66699 -30.999 -3v28l90 24c68.667 18 127 35 175 51c29.333 10 46.333 15 51 15
c4 0 6.5 -0.833008 7.5 -2.5s1.5 -5.5 1.5 -11.5v-411l277 244c20 18 33.5 32.333 40.5 43s10.5 20 10.5 28c0 15.333 -7.5 25 -22.5 29s-41.833 7 -80.5 9v28h417v-28c-74.667 -4.66699 -134.667 -19.5 -180 -44.5s-132.333 -96.5 -261 -214.5l-59 -54l185 -240
c94.667 -122.667 166 -204.167 214 -244.5s99 -62.833 153 -67.5v-26h-445v28l35 2c11.333 0.666992 21.666 3 30.999 7s14 10.667 14 20c0 7.33301 -1.66699 14.166 -5 20.499s-8 13.5 -14 21.5l-310 408v-370c0 -46 17 -76.667 51 -92c20 -9.33301 54.333 -14.333 103 -15
v-30h-479v28z" />
    </font>
</defs>
</svg>
