<?xml version="1.0" standalone="no"?>
<!DOCTYPE svg PUBLIC "-//W3C//DTD SVG 1.1//EN" "http://www.w3.org/Graphics/SVG/1.1/DTD/svg11.dtd" >
<svg>
<metadata>
Created by FontForge 20090914 at Mon Aug  1 12:26:45 2016
 By www-data
&#194;&#169; 1990-99 Apple Computer Inc. &#194;&#169; 1981 Linotype AG  &#194;&#169; 1990-91 Type Solutions Inc. &#194;&#169; 1990-91 The Font Bureau Inc.
</metadata>
<defs>
<font id="Times-BoldItalic" horiz-adv-x="1024" >
  <font-face 
    font-family="Times"
    font-weight="700"
    font-style="italic"
    font-stretch="normal"
    units-per-em="2048"
    panose-1="2 0 8 3 0 0 0 0 0 0"
    ascent="1638"
    descent="-410"
    x-height="919"
    cap-height="1356"
    bbox="-644.105 -828.002 3301 2611"
    underline-thickness="139"
    underline-position="-67"
    slope="-15"
    unicode-range="U+0008-U+FB02"
  />
<missing-glyph horiz-adv-x="1593" 
d="M-53 0v1370h1513v-1370h-1513zM1261 199v972h-1115v-972h1115z" />
    <glyph glyph-name="fi" unicode="fi" horiz-adv-x="1139" 
d="M-150 -180c19.333 -18.667 29.001 -41.999 29.001 -69.999c0 -10 -1.5 -19.167 -4.5 -27.5s-7.16699 -15.5 -12.5 -21.5l-12 -14c-2.66699 -3.33301 -4.83398 -6.5 -6.50098 -9.5s-2.5 -6.16699 -2.5 -9.5c0 -8 3.16699 -13.667 9.5 -17s14.5 -5 24.5 -5
c46.667 0 82 24.667 106 74s50.667 139.333 80 270l187 834h-151l19 90h156c60 170 116 288.333 168 355c88 113.333 208.333 170 361 170c88.667 0 160.5 -16.833 215.5 -50.5s82.5 -81.5 82.5 -143.5c0 -34.667 -11.167 -63 -33.5 -85s-50.833 -33 -85.5 -33
c-36 0 -64.167 11.167 -84.5 33.5s-30.5 49.833 -30.5 82.5c0 11.333 1.5 22.666 4.5 33.999s9.16699 22.333 18.5 33l17 19l6 14c0 14 -9.83301 23.167 -29.5 27.5s-36.834 6.5 -51.501 6.5c-72 0 -133.833 -37.333 -185.5 -112s-95.167 -190 -130.5 -346h246l124 5
c20.667 0.666992 52.167 2.5 94.5 5.5s73.833 5.16699 94.5 6.5l-155.5 -607.5c-25.667 -101.667 -38.5 -157.5 -38.5 -167.5c0 -9.33301 2.16699 -17.666 6.5 -24.999s11.833 -11 22.5 -11c21.333 0 50.333 21 87 63c20.667 23.333 45.334 56 74.001 98l45 -26
c-66.667 -99.333 -118 -166 -154 -200c-57.333 -54.667 -119.666 -82 -186.999 -82c-45.333 0 -81.333 13.167 -108 39.5s-40 60.5 -40 102.5c0 20 2 39.833 6 59.5s13 55.167 27 106.5l143 538h-308l-192 -777c-22 -92.667 -57.667 -179 -107 -259
c-86 -138.667 -191.667 -208 -317 -208c-54.667 0 -102.167 13.667 -142.5 41s-60.5 67.666 -60.5 120.999c0 30.667 9.33301 56 28 76s42.667 30 72 30c31.333 0 56.666 -9.33301 75.999 -28z" />
    <glyph glyph-name="fl" unicode="fl" horiz-adv-x="1139" 
d="M-150 -170.5c21.333 -15.667 32.001 -39.832 32.001 -72.499c0 -9.33301 -1.16699 -17.333 -3.5 -24s-5.5 -12.667 -9.5 -18l-12 -16c-2.66699 -3.33301 -4.83398 -7 -6.50098 -11s-2.5 -8 -2.5 -12c0 -7.33301 2.33301 -13.666 7 -18.999c4 -5.33301 14.333 -8 31 -8
c44.667 0 77.334 22.667 98.001 68s48 142.666 82 291.999l190 825h-155l22 80h154c40 168 99.667 297.833 179 389.5s194.666 137.5 345.999 137.5c34 0 98.333 -10.333 193 -31c5.33301 0 13.833 1 25.5 3s19.834 3.33301 24.501 4l149 19l-310 -1226
c-2.66699 -10.667 -4.5 -18.834 -5.5 -24.501s-1.5 -11.167 -1.5 -16.5c0 -10 3 -18.167 9 -24.5s15 -9.5 27 -9.5c22 0 51.667 22.333 89 67c21.333 24.667 42.666 53.667 63.999 87l40 -24c-50.667 -90.667 -103.667 -159.5 -159 -206.5s-114.333 -70.5 -177 -70.5
c-36 0 -69.167 10.333 -99.5 31s-45.5 51.334 -45.5 92.001c0 8.66699 1 19 3 31s5 26 9 42l161 645h-301l-161 -659c-43.333 -176.667 -101 -318.834 -173 -426.501s-169 -161.5 -291 -161.5c-45.333 0 -89.166 12.5 -131.499 37.5s-63.5 65.5 -63.5 121.5
c0 47.333 15.667 80 47 98c16 9.33301 36.667 14 62 14c21.333 0 42.666 -7.83301 63.999 -23.5zM874.001 1322c3.33301 5.33301 6.66699 13 10 23c0 8 -6.16699 16 -18.5 24s-29.166 12 -50.499 12c-87.333 0 -159.333 -60.333 -216 -181
c-32.667 -69.333 -61 -163 -85 -281h308l62 244c-14.667 10.667 -25.5 23.167 -32.5 37.5s-10.5 29.5 -10.5 45.5c0 12.667 1.66699 23 5 31s8.66602 17.667 15.999 29z" />
    <glyph glyph-name=".notdef" horiz-adv-x="1593" 
d="M-53 0v1370h1513v-1370h-1513zM1261 199v972h-1115v-972h1115z" />
    <glyph glyph-name=".null" horiz-adv-x="0" 
 />
    <glyph glyph-name=".null" horiz-adv-x="0" 
 />
    <glyph glyph-name=".null" horiz-adv-x="0" 
 />
    <glyph glyph-name="nonmarkingreturn" unicode="&#x9;" horiz-adv-x="512" 
 />
    <glyph glyph-name="nonmarkingreturn" unicode="&#xd;" horiz-adv-x="512" 
 />
    <glyph glyph-name="nonmarkingreturn" unicode="&#xa;" horiz-adv-x="512" 
 />
    <glyph glyph-name="space" unicode=" " horiz-adv-x="512" 
 />
    <glyph glyph-name="exclam" unicode="!" horiz-adv-x="797" 
d="M396.5 222c29 -30 43.501 -64.667 43.501 -104c0 -42 -15.333 -77 -46 -105s-66.334 -42 -107.001 -42c-40 0 -75 13.833 -105 41.5s-45 62.167 -45 103.5s14.5 76.833 43.5 106.5s63.5 44.5 103.5 44.5c46 0 83.5 -15 112.5 -45zM749.501 1192
c-4.33301 -21.333 -10.833 -40.333 -19.5 -57l-72 -140c-59.333 -114.667 -113.333 -229 -162 -343c-26 -60 -58 -138.333 -96 -235l-59 16c15.333 72 34 174.667 56 308c28.667 176.667 45.667 308 51 394l4 69c2.66699 40.667 12 77 28 109c28.667 58 73 87 133 87
c38 0 71.333 -12.167 100 -36.5s43 -62.833 43 -115.5c0 -16 -2.16699 -34.667 -6.5 -56z" />
    <glyph glyph-name="quotedbl" unicode="&#x22;" horiz-adv-x="1137" 
d="M535 1368.5c16 -23 24 -51.166 24 -84.499c0 -16 -9.66699 -91.333 -29 -226c4.66699 30 -9.33301 -66.667 -42 -290h-55l-64 436c-2 14 -3.66699 27.667 -5 41s-2 25.666 -2 36.999c0 49.333 14 84 42 104c16 11.333 34.667 17 56 17c34 0 59 -11.5 75 -34.5zM886 1354
c8 -18.667 12 -47.334 12 -86.001c0 -24.667 -2 -54.667 -6 -90s-10.667 -83 -20 -143l-19.5 -119.5l-23.5 -147.5h-57l-64 452c-1.33301 12.667 -2.33301 22.5 -3 29.5s-1 14.5 -1 22.5c0 34.667 4 61.334 12 80.001c15.333 34 44.333 51 87 51c41.333 0 69 -16.333 83 -49
z" />
    <glyph glyph-name="numbersign" unicode="#" 
d="M557 512l87 338h-182l-90 -338h185zM11 512h195l90 338h-192l19 107h197l116 405h163l-114 -405h185l116 405h162l-116 -405h194l-19 -107h-197l-90 -338h194l-18 -107h-207l-106 -405h-164l109 405h-185l-114 -405h-161l112 405h-188z" />
    <glyph glyph-name="dollar" unicode="$" 
d="M381 66c10.667 -0.666992 19 -1.16699 25 -1.5s12 -0.5 18 -0.5c67.333 0 123.666 24.333 168.999 73s68 110 68 184c0 54 -14 101 -42 141c-17.333 25.333 -50.666 58.333 -99.999 99zM407 988c16.667 -22 50.001 -53.666 100.001 -94.999l114 408
c-6.66699 1.33301 -13.167 2.16602 -19.5 2.49902s-13.5 0.5 -21.5 0.5c-70.667 0 -124.334 -19.667 -161.001 -59s-55 -86 -55 -140c0 -42 14.333 -81 43 -117zM220.501 814.001c-39.667 50 -59.4971 112.666 -59.4971 187.999c0 97.333 36.5 183.333 109.5 258
s172.167 112 297.5 112c14 0 26.167 -0.333008 36.5 -1s22.166 -2 35.499 -4l37 133h102l-40 -147c38.667 -7.33301 82.5 -20.833 131.5 -40.5s85.833 -39.5 110.5 -59.5l35 -28l-85 -273l-43 10c1.33301 23.333 2.16602 38.333 2.49902 45s0.5 13.667 0.5 21
c0 43.333 -7.33301 83.333 -22 120c-28 69.333 -78.333 113.333 -151 132l-121 -441c98 -82 164.667 -145.667 200 -191c58 -74.667 87 -154 87 -238c0 -114.667 -46.667 -213 -140 -295s-204 -120.333 -332 -115l-47 2l-57 -209h-107l59 221
c-57.333 14 -108 31.833 -152 53.5s-94.333 57.5 -151 107.5l88 291l45 -11c8.66699 -115.333 23.167 -196.666 43.5 -243.999s68.833 -89.333 145.5 -126l152 536c-100.667 78.667 -170.834 143 -210.501 193z" />
    <glyph glyph-name="percent" unicode="%" horiz-adv-x="1706" 
d="M1463.5 260.5c60.333 104.333 90.5 200.166 90.5 287.499c0 43.333 -9.5 78.833 -28.5 106.5s-45.833 41.5 -80.5 41.5c-70.667 0 -135.667 -64.167 -195 -192.5s-89 -222.166 -89 -281.499c0 -40.667 9.83301 -70.5 29.5 -89.5s44.167 -28.5 73.5 -28.5
c72.667 0 139.167 52.167 199.5 156.5zM1557.5 736.5c43.667 -43 65.5 -105.501 65.5 -187.501c0 -112 -39 -230 -117 -354s-182.667 -186 -314 -186c-67.333 0 -129.333 25.333 -186 76s-85 118.334 -85 203.001c0 128 48.167 245.5 144.5 352.5
s203.166 160.5 320.499 160.5c70.667 0 127.834 -21.5 171.501 -64.5zM617.5 856.499c61 107 91.501 209.833 91.501 308.5c0 30 -1.66699 48.667 -5 56s-13 14.333 -29 21s-33.167 16.5 -51.5 29.5s-30.5 19.5 -36.5 19.5c-57.333 0 -117 -63.667 -179 -191
s-93 -224 -93 -290c0 -34 8.16699 -61.5 24.5 -82.5s41.166 -31.5 74.499 -31.5c74.667 0 142.5 53.5 203.5 160.5zM697.501 1332c56.333 -38 120.165 -57 191.498 -57c72 0 138 14 198 42s110.667 61.333 152 100h78l-805 -1436h-114l714 1271
c-31.333 -14.667 -70 -27.334 -116 -38.001s-88.667 -16 -128 -16c-11.333 0 -20.666 0.5 -27.999 1.5l-61 8.5c2.66699 -42.667 3.83398 -60.667 3.50098 -54s-0.5 7.33398 -0.5 2.00098c0 -102 -31 -209.333 -93 -322c-85.333 -154.667 -201.666 -232 -348.999 -232
c-66.667 0 -127 23.667 -181 71s-81 118.333 -81 213c0 129.333 49.167 245.5 147.5 348.5s201.833 154.5 310.5 154.5c51.333 0 105.166 -19 161.499 -57z" />
    <glyph glyph-name="ampersand" unicode="&#x26;" horiz-adv-x="1593" 
d="M1024 1289.5c-17.333 26.333 -43.666 39.5 -78.999 39.5c-56.667 0 -97 -31 -121 -93c-15.333 -40.667 -23 -93.334 -23 -158.001c0 -26.667 2 -55.667 6 -87s9 -65.666 15 -102.999c73.333 42.667 124.666 80 153.999 112c49.333 54 74 120.333 74 199
c0 34 -8.66699 64.167 -26 90.5zM717 121c32.667 10.667 65.333 24.668 98 42.001c-64 100 -113.333 196 -148 288c-22 57.333 -47 140.666 -75 249.999c-66 -30.667 -115.333 -61.667 -148 -93c-59.333 -57.333 -89 -128.333 -89 -213c0 -74 23 -140.833 69 -200.5
s111.333 -89.5 196 -89.5c32 0 64.333 5.33301 97 16zM556.499 905.501c-1.66699 14.333 -2.50293 31.835 -2.50293 52.502c0 142.667 35.667 251.334 107 326.001s161 112 269 112c87.333 0 156.333 -22.333 207 -67s76 -100.334 76 -167.001c0 -85.333 -46 -162 -138 -230
c-51.333 -38 -129.333 -78.667 -234 -122c16 -91.333 43.333 -183 82 -275c22 -52.667 53 -115.667 93 -189c51.333 62.667 86.333 108.334 105 137.001c31.333 48.667 47 89.667 47 123c0 30 -13 51.667 -39 65c-15.333 7.33301 -40.333 12.666 -75 15.999v52h434v-52
c-60 -8.66699 -107.5 -30.334 -142.5 -65.001s-127.167 -151.334 -276.5 -350.001c43.333 -62 91.333 -105 144 -129c28 -12 55 -18 81 -18c32.667 0 65 10 97 30c18.667 11.333 39.334 28.333 62.001 51l52 -43c-52 -61.333 -96 -105.333 -132 -132
c-64 -46 -134.667 -69 -212 -69c-71.333 0 -135.666 16.667 -192.999 50c-32.667 18.667 -64.667 44.667 -96 78c-67.333 -52 -145 -88.667 -233 -110c-55.333 -14 -110 -21 -164 -21c-119.333 0 -214.666 32.833 -285.999 98.5s-107 147.167 -107 244.5
c0 57.333 14 112.333 42 165s68.333 102.334 121 149.001c53.333 37.333 105.333 68.5 156 93.5s109 50.5 175 76.5c-11.333 65.333 -17.833 105.166 -19.5 119.499z" />
    <glyph glyph-name="quotesingle" unicode="'" horiz-adv-x="569" 
d="M426 1357c8 -17.333 12 -41 12 -71c0 -22 -3.5 -59.167 -10.5 -111.5s-26.5 -187.833 -58.5 -406.5h-54l-64 436c-2 12 -3.33301 22.667 -4 32s-1 20 -1 32c0 36 4 63.667 12 83c14 34.667 41.667 52 83 52c42 0 70.333 -15.333 85 -46z" />
    <glyph glyph-name="parenleft" unicode="(" horiz-adv-x="682" 
d="M348 -373c-94 121.333 -166.168 249.168 -216.501 383.501s-75.5 273.833 -75.5 418.5c0 230 76.333 440 229 630c92 115.333 219.667 228.333 383 339l36 -40c-106 -98.667 -180.333 -177.834 -223 -237.501s-87.667 -158.5 -135 -296.5
c-28.667 -83.333 -52.167 -177.5 -70.5 -282.5s-27.5 -219.833 -27.5 -344.5c0 -112.667 11.833 -209.667 35.5 -291s60.834 -164 111.501 -248z" />
    <glyph glyph-name="parenright" unicode=")" horiz-adv-x="682" 
d="M263 1398c113.333 -148 190.167 -287.667 230.5 -419s60.5 -258 60.5 -380c0 -148.667 -25.5 -276.834 -76.5 -384.501s-114.833 -205.5 -191.5 -293.5c-64 -73.333 -142.667 -146.166 -236 -218.499s-129 -97.5 -107 -75.5l-36 41
c100.667 92.667 169.334 164 206.001 214c55.333 76 106 182.333 152 319c35.333 104 60.333 208.5 75 313.5s22 209.5 22 313.5c0 100 -10.333 191.5 -31 274.5s-59.334 171.167 -116.001 264.5z" />
    <glyph glyph-name="asterisk" unicode="*" 
d="M483 967c-37.333 18.667 -65.4971 30.6699 -84.4971 36.0029s-52.833 10 -101.5 14c-44.667 2.66699 -76.334 9 -95.001 19c-32 17.333 -43.333 47.333 -34 90c6 27.333 19.5 50.666 40.5 69.999s47.167 29 78.5 29c46 0 82.5 -30.5 109.5 -91.5
s64.167 -107.167 111.5 -138.5l19 12c12 68 9 125.5 -9 172.5s-23.667 86.167 -17 117.5c8 36.667 24.333 63.167 49 79.5s50.667 24.5 78 24.5c25.333 0 46.166 -9.33301 62.499 -28s20.166 -47 11.499 -85c-4.66699 -23.333 -26.667 -61.833 -66 -115.5
s-64 -109.5 -74 -167.5l17 -10c60.667 38 122.334 93 185.001 165c42 47.333 84.667 71 128 71c27.333 0 48.666 -10.667 63.999 -32s20.333 -44 15 -68c-4.66699 -22 -16.667 -43 -36 -63c-33.333 -32.667 -79 -50.334 -137 -53.001c-60 -2 -100.333 -5.83301 -121 -11.5
s-50.334 -19.5 -89.001 -41.5l-4 -19c33.333 -18.667 60.333 -31 81 -37c32 -8.66699 75.333 -13 130 -13c36.667 0 65 -10.167 85 -30.5s26.333 -46.5 19 -78.5c-6 -30.667 -21.667 -55.334 -47 -74.001s-50.666 -28 -75.999 -28c-43.333 0 -78.166 30.833 -104.499 92.5
s-62.833 108.167 -109.5 139.5l-24 -11c-10 -72 -6.66699 -131 10 -177s22 -83.333 16 -112c-5.33301 -24.667 -19.333 -48.667 -42 -72s-52 -35 -88 -35c-26 0 -46.5 10.167 -61.5 30.5s-18.833 46.833 -11.5 79.5c6 27.333 28.167 66.5 66.5 117.5
s64.166 107.833 77.499 170.5l-17 9c-64.667 -38 -123 -86.667 -175 -146s-96.667 -89 -134 -89c-27.333 0 -49.333 9.33301 -66 28s-22 41.667 -16 69c8 39.333 27.667 68.333 59 87s68.333 29 111 31c52 4.66699 90.667 9.66699 116 15s57.333 18.333 96 39z" />
    <glyph glyph-name="plus" unicode="+" horiz-adv-x="1167" 
d="M75 618h437l93 436h182l-93 -436h434l-39 -182h-434l-93 -436h-182l93 436h-437z" />
    <glyph glyph-name="comma" unicode="," horiz-adv-x="512" 
d="M5 -328c74.667 37.333 132.333 70.333 173 99c70.667 50 111 98 121 144c4.66699 22 -13.5 49.833 -54.5 83.5s-56.167 75.834 -45.5 126.501c9.33301 43.333 30.5 78.666 63.5 105.999s70.5 41 112.5 41c52 0 90.333 -19 115 -57s31 -85.333 19 -142
c-24 -114 -108 -221.333 -252 -322c-93.333 -65.333 -172 -108 -236 -128z" />
    <glyph glyph-name="hyphen" unicode="-" horiz-adv-x="682" 
d="M138 583h503l-99 -237h-502z" />
    <glyph glyph-name="period" unicode="." horiz-adv-x="512" 
d="M318 274c42 0 74.667 -14.833 98 -44.5s30.666 -65.167 21.999 -106.5c-9.33301 -42 -32 -77.833 -68 -107.5s-75 -44.5 -117 -44.5c-41.333 0 -73.666 14.833 -96.999 44.5s-30.333 65.5 -21 107.5c8.66699 42 31 77.667 67 107s74.667 44 116 44z" />
    <glyph glyph-name="slash" unicode="/" horiz-adv-x="569" 
d="M450 1417h147l-479 -1451h-147z" />
    <glyph glyph-name="zero" unicode="0" 
d="M505 174c26.667 54.667 60.666 151.668 101.999 291.001c49.333 166.667 88 316.167 116 448.5s42 221.833 42 268.5c0 41.333 -5 73.666 -15 96.999c-15.333 37.333 -43.333 56 -84 56c-56.667 0 -111 -56.333 -163 -169c-29.333 -64 -64 -164.333 -104 -301
c-35.333 -118.667 -69.666 -248.667 -102.999 -390s-50 -246 -50 -314c0 -44.667 11 -77.167 33 -97.5s45.667 -30.5 71 -30.5c57.333 0 109 47 155 141zM799.999 278.001c-123.333 -206.667 -268.334 -310 -435.001 -310c-91.333 0 -169.166 41.833 -233.499 125.5
s-96.5 192.5 -96.5 326.5c0 234 61 452.333 183 655c128 212.667 274.333 319 439 319c100 0 178.167 -42.833 234.5 -128.5s84.5 -199.5 84.5 -341.5c0 -234.667 -58.667 -450 -176 -646z" />
    <glyph glyph-name="one" unicode="1" 
d="M9 47c70 2 124.001 12.999 162.001 32.999s65.333 59.667 82 119l263 938c2.66699 10.667 4.5 20.667 5.5 30s1.5 16.666 1.5 21.999c0 29.333 -9.5 47.833 -28.5 55.5s-42.833 11.5 -71.5 11.5c-14 0 -34.667 -1.33301 -62 -4l-60 -8l4 47
c151.333 26 250.166 43.333 296.499 52s131.833 26.334 256.5 53.001l-316 -1145c-6 -23.333 -11.333 -45.333 -16 -66s-7 -38 -7 -52c0 -38 17.333 -62.333 52 -73c22 -7.33301 70 -11.666 144 -12.999v-47h-706v47z" />
    <glyph glyph-name="two" unicode="2" 
d="M-57 49l175.999 171.001c64 62 116.667 115.667 158 161c149.333 164.667 247 288.167 293 370.5s69 160.5 69 234.5c0 68 -15.667 122.833 -47 164.5s-81 62.5 -149 62.5c-62 0 -118.333 -20.667 -169 -62c-30 -24.667 -63 -62.334 -99 -113.001l-45 23
c38.667 82 86.667 151 144 207c88 85.333 188.333 128 301 128c107.333 0 190.333 -35.5 249 -106.5s88 -149.5 88 -235.5c0 -93.333 -29.167 -180.833 -87.5 -262.5s-127.166 -156.167 -206.499 -223.5l-400 -341h303c78 0 136.667 11.167 176 33.5
s75.333 65.833 108 130.5h53l-162 -391h-753v49z" />
    <glyph glyph-name="three" unicode="3" 
d="M-2 219.5c21.333 21 49.002 31.502 83.002 31.502c30 0 55.333 -7 76 -21s44 -40 70 -78l29 -40c17.333 -24.667 32.666 -40.334 45.999 -47.001s31 -10 53 -10c62 0 115.5 32 160.5 96s67.5 144.667 67.5 242c0 120.667 -34.167 204.334 -102.5 251.001
s-140.833 69 -217.5 67l7 45c110 24.667 191.333 52.667 244 84c94.667 55.333 142 133 142 233c0 55.333 -14.833 99.166 -44.5 131.499s-71.5 48.5 -125.5 48.5c-48.667 0 -92 -12.5 -130 -37.5s-76.333 -63.833 -115 -116.5l-42 26
c44.667 67.333 87.667 120.666 129 159.999c76 75.333 172.667 113 290 113c80 0 150.667 -24.667 212 -74s92 -117.333 92 -204c0 -62.667 -20.833 -120.334 -62.5 -173.001s-94.5 -93.667 -158.5 -123l-24 -11c48 -36 88 -78.167 120 -126.5s48 -107.5 48 -177.5
c0 -141.333 -61.667 -267.666 -185 -378.999c-118 -106 -260.667 -159 -428 -159c-102.667 0 -177.334 23.667 -224.001 71c-28 28.667 -42 60.667 -42 96c0 33.333 10.667 60.5 32 81.5z" />
    <glyph glyph-name="four" unicode="4" 
d="M523 507l162 569l-576 -569h414zM900 1398h131l-245 -891h140l-54 -199h-140l-85 -308h-263l85 308h-503l60 213z" />
    <glyph glyph-name="five" unicode="5" 
d="M237.5 152.5c39.667 -65.667 79.166 -98.5 118.499 -98.5c62.667 0 123.5 31.5 182.5 94.5s88.5 144.833 88.5 245.5c0 101.333 -42.667 188.333 -128 261s-202 107.667 -350 105l268 610h580l-73 -223h-522l-68 -157c135.333 -22.667 239 -56.334 311 -101.001
c132 -83.333 198 -211.333 198 -384c0 -151.333 -60 -278.666 -180 -381.999c-117.333 -101.333 -259 -152 -425 -152c-76 0 -138.833 15.833 -188.5 47.5s-74.5 71.5 -74.5 119.5c0 32 12.333 58.833 37 80.5s53.667 32.5 87 32.5c52.667 0 98.834 -32.833 138.501 -98.5z
" />
    <glyph glyph-name="six" unicode="6" 
d="M508 106c18.667 28.667 38.666 75.334 59.999 140.001c18.667 58 35 114.333 49 169c24.667 98 37 172.333 37 223c0 36 -5.33301 64.333 -16 85c-19.333 39.333 -56 59 -110 59c-41.333 0 -68.666 -5.5 -81.999 -16.5s-27 -33.167 -41 -66.5
c-37.333 -92.667 -65 -170.334 -83 -233.001c-30 -106 -45 -203.333 -45 -292c0 -38 8.5 -70.667 25.5 -98s46.833 -41 89.5 -41c46 0 84.667 23.667 116 71zM1042 1341l-90.001 -35c-111.333 -47.333 -209.333 -115.833 -294 -205.5s-146 -177.834 -184 -264.501
c24 10 45.667 17.333 65 22s43 7 71 7c64.667 0 123.334 -19.667 176.001 -59c81.333 -60.667 122 -158 122 -292c0 -151.333 -49.833 -280.5 -149.5 -387.5s-217.5 -160.5 -353.5 -160.5c-82 0 -154 23.667 -216 71c-96 74 -144 196 -144 366c0 204 72.333 395.667 217 575
c180.667 224.667 437 362.334 769 413.001z" />
    <glyph glyph-name="seven" unicode="7" 
d="M106 0l680 1137h-272c-104 0 -177.833 -8.66699 -221.5 -26s-84.5 -60.666 -122.5 -129.999h-54l177 384h783l-783 -1365h-187z" />
    <glyph glyph-name="eight" unicode="8" 
d="M739 941c28.667 54 42.999 110 42.999 168c0 76 -16 132.167 -48 168.5s-69.333 54.5 -112 54.5c-52 0 -93.833 -18.833 -125.5 -56.5s-47.5 -84.167 -47.5 -139.5c0 -57.333 17 -111 51 -161c21.333 -32 66.333 -82.333 135 -151c40.667 30 75.334 69 104.001 117z
M569.499 114.5c38.333 53 57.502 112.166 57.502 177.499c0 61.333 -11.5 112 -34.5 152s-77.5 110.667 -163.5 212c-64.667 -41.333 -113.334 -83.666 -146.001 -126.999c-52 -68.667 -78 -150.667 -78 -246c0 -83.333 19.333 -145.5 58 -186.5s85 -61.5 139 -61.5
c73.333 0 129.166 26.5 167.499 79.5zM103.501 543.499c64.333 64.333 154.5 115.165 270.5 152.498v10c-45.333 47.333 -78 88.333 -98 123c-36 60.667 -54 125.667 -54 195c0 102.667 36.5 190.667 109.5 264s166.833 110 281.5 110c98.667 0 183.5 -24.833 254.5 -74.5
s106.5 -124.5 106.5 -224.5c0 -83.333 -33.333 -153.666 -100 -210.999c-38 -32.667 -102 -69 -192 -109v-9c50.667 -55.333 88 -103.666 112 -144.999c42.667 -73.333 64 -149 64 -227c0 -119.333 -41.667 -220.333 -125 -303s-196 -124 -338 -124
c-107.333 0 -198.833 30.5 -274.5 91.5s-113.5 142.833 -113.5 245.5c0 92.667 32.167 171.167 96.5 235.5z" />
    <glyph glyph-name="nine" unicode="9" 
d="M721 1288c-15.333 27.333 -43.668 41 -85.001 41c-87.333 0 -158.666 -95.667 -213.999 -287c-38.667 -134 -58 -238.667 -58 -314c0 -54 11.667 -91.667 35 -113s55 -32 95 -32c46 0 78 11.5 96 34.5s45 87.167 81 192.5c27.333 78.667 46.333 150.167 57 214.5
s16 119.5 16 165.5c0 38 -7.66699 70.667 -23 98zM926.998 693c-51.333 -154.667 -140.001 -291.667 -266.001 -411c-109.333 -104 -232.333 -182 -369 -234c-77.333 -29.333 -179.666 -55 -306.999 -77l-12 52c162 52 298.333 138.333 409 259
c68.667 74 122 154.333 160 241c-23.333 -10 -43.333 -17.167 -60 -21.5s-39 -6.5 -67 -6.5c-80 0 -151 28 -213 84s-93 138.667 -93 248c0 154 50.167 286.833 150.5 398.5s215.5 167.5 345.5 167.5c124 0 216 -40 276 -120s90 -188.333 90 -325
c0 -81.333 -14.667 -166.333 -44 -255z" />
    <glyph glyph-name="colon" unicode=":" horiz-adv-x="682" 
d="M367.5 15.5c-29.667 -29.667 -65.5 -44.5 -107.5 -44.5s-77.667 14.833 -107 44.5s-44 65.5 -44 107.5c0 41.333 14.667 76.833 44 106.5s65 44.5 107 44.5s77.833 -14.667 107.5 -44s44.5 -65 44.5 -107s-14.833 -77.833 -44.5 -107.5zM557.5 896.5
c29.667 -29.667 44.5 -65.5 44.5 -107.5s-14.833 -77.833 -44.5 -107.5s-65.5 -44.5 -107.5 -44.5s-77.833 14.833 -107.5 44.5s-44.5 65.5 -44.5 107.5s14.833 77.833 44.5 107.5s65.5 44.5 107.5 44.5s77.833 -14.833 107.5 -44.5z" />
    <glyph glyph-name="semicolon" unicode=";" horiz-adv-x="682" 
d="M0 -328c66.667 37.333 117.333 70.333 152 99c60 50 90 98 90 144c0 22 -24 49.833 -72 83.5s-72 75.834 -72 126.501c0 43.333 13.667 78.666 41 105.999s62 41 104 41c52 0 94.333 -19 127 -57s49 -85.333 49 -142c0 -114 -61.333 -221.333 -184 -322
c-79.333 -65.333 -149 -108 -209 -128zM342.499 896.5c29.667 29.667 65.5 44.5 107.5 44.5s77.833 -14.833 107.5 -44.5s44.5 -65.5 44.5 -107.5s-14.833 -77.833 -44.5 -107.5s-65.5 -44.5 -107.5 -44.5s-77.833 14.833 -107.5 44.5s-44.5 65.5 -44.5 107.5
s14.833 77.833 44.5 107.5z" />
    <glyph glyph-name="less" unicode="&#x3c;" horiz-adv-x="1167" 
d="M-3 493l14 68l1267 517l-42 -197l-879 -353l729 -353l-43 -199z" />
    <glyph glyph-name="equal" unicode="=" horiz-adv-x="1167" 
d="M1044 222h-1052l38 183h1053zM1135 651h-1053l38 181h1053z" />
    <glyph glyph-name="greater" unicode="&#x3e;" horiz-adv-x="1167" 
d="M-70 175l878 353l-729 353l42 197l1047 -517l-15 -68l-1266 -517z" />
    <glyph glyph-name="question" unicode="?" 
d="M419.5 229.5c29.667 -29.667 44.5 -65.167 44.5 -106.5c0 -42 -14.833 -77.833 -44.5 -107.5s-65.5 -44.5 -107.5 -44.5c-41.333 0 -76.833 14.833 -106.5 44.5s-44.5 65.5 -44.5 107.5c0 41.333 14.667 76.833 44 106.5s65 44.5 107 44.5s77.833 -14.833 107.5 -44.5z
M876.5 1308.5c57 -61 85.499 -129.502 85.499 -205.502c0 -73.333 -23.167 -136.833 -69.5 -190.5s-109.166 -105.834 -188.499 -156.501l-136 -88c-38.667 -25.333 -70.167 -54.166 -94.5 -86.499s-48.833 -84.166 -73.5 -155.499l-59 14
c9.33301 58.667 24.833 113.334 46.5 164.001s55.167 104.334 100.5 161.001l83 104c54 68 91 130.333 111 187c12.667 37.333 19 78 19 122c0 47.333 -12.667 85.5 -38 114.5s-61 43.5 -107 43.5c-31.333 0 -59.666 -8 -84.999 -24s-38 -33 -38 -51c0 -4 0.5 -8 1.5 -12
s2.83301 -7.33301 5.5 -10l17 -23c10 -13.333 18.5 -29 25.5 -47s10.5 -33.667 10.5 -47c0 -34 -11.5 -62.833 -34.5 -86.5s-53.833 -35.5 -92.5 -35.5c-36.667 0 -66.334 13.667 -89.001 41s-34 58.666 -34 93.999c0 72.667 32.667 135 98 187s149.333 78 252 78
c132 0 226.5 -30.5 283.5 -91.5z" />
    <glyph glyph-name="at" unicode="@" horiz-adv-x="1704" 
d="M1108.5 919c-13.667 17.333 -35.5 26 -65.5 26c-67.333 0 -127.5 -59.333 -180.5 -178s-79.5 -208.667 -79.5 -270c0 -31.333 7 -59.166 21 -83.499s37.667 -36.5 71 -36.5c74 0 134.833 64.333 182.5 193s71.5 219.667 71.5 273c0 33.333 -6.83301 58.666 -20.5 75.999z
M1540 139c-100 -63.333 -198.002 -109.163 -294.002 -137.496s-190 -42.5 -282 -42.5c-223.333 0 -411 66 -563 198c-152 130.667 -228 290.667 -228 480c0 215.333 86.667 399.666 260 552.999c170.667 150 372.334 225 605.001 225
c185.333 0 342.666 -49.667 471.999 -149c142 -109.333 213 -255.333 213 -438c0 -144.667 -47 -271.834 -141 -381.501s-193.333 -164.5 -298 -164.5c-76 0 -132.667 21.667 -170 65c-23.333 28 -36 58.333 -38 91c-36 -58.667 -74.167 -99.334 -114.5 -122.001
s-84.5 -34 -132.5 -34c-76.667 0 -141.167 28.333 -193.5 85s-78.5 127 -78.5 211c0 111.333 44.5 216.166 133.5 314.499s188.167 147.5 297.5 147.5c31.333 0 60 -5 86 -15c50.667 -18.667 86.667 -53 108 -103l29 90h220c-6.66699 -16.667 -35 -105.334 -85 -266.001
c-55.333 -179.333 -83 -279.333 -83 -300c0 -26 12 -45.333 36 -58c14.667 -8 28.334 -12 41.001 -12c60.667 0 124.167 44.667 190.5 134s99.5 194.333 99.5 315c0 154.667 -56 274.667 -168 360s-241.667 128 -389 128c-215.333 0 -393.333 -74.333 -534 -223
c-126 -133.333 -189 -282 -189 -446c0 -197.333 68.667 -349.666 206 -456.999c116.667 -92 260 -138 430 -138c70 0 135.5 7.16699 196.5 21.5s112.5 30.5 154.5 48.5c22.667 9.33301 40.334 18 53.001 26c31.333 16 66.333 37 105 63z" />
    <glyph glyph-name="A" unicode="A" horiz-adv-x="1366" 
d="M739 507l-76 498l-303 -498h379zM-109 49c38 11.333 65.999 23.6699 83.999 37.0029c26.667 19.333 56.334 55.333 89.001 108l760 1204h53l196 -1171c13.333 -78.667 29.333 -126.834 48 -144.501s59.667 -28.834 123 -33.501v-49h-621v49
c58.667 4.66699 100.167 14.167 124.5 28.5s36.5 44.166 36.5 89.499c0 15.333 -3.66699 52 -11 110c-1.33301 12 -8 61.667 -20 149h-441l-120 -208c-8 -14 -15.167 -29.333 -21.5 -46s-9.5 -32.667 -9.5 -48c0 -28 8.5 -46 25.5 -54s52.5 -15 106.5 -21v-49h-402v49z" />
    <glyph glyph-name="B" unicode="B" horiz-adv-x="1366" 
d="M771.5 777.5c37 8.33301 71.167 26.501 102.5 54.501c39.333 35.333 67.666 84.333 84.999 147c11.333 40.667 17 81 17 121c0 60 -12.667 108.833 -38 146.5s-75.333 56.5 -150 56.5c-31.333 0 -53.166 -7.33301 -65.499 -22s-22.5 -37.334 -30.5 -68.001l-126 -460
c100 8 168.5 16.167 205.5 24.5zM449 72.001c16.667 -5.33301 42.6689 -8.00098 78.002 -8.00098c130 0 223.333 60 280 180c34 71.333 51 145.333 51 222c0 94 -32.333 157.333 -97 190c-38.667 19.333 -109.334 31.333 -212.001 36l-135 -500
c-2.66699 -8 -4.83398 -17.167 -6.50098 -27.5s-2.5 -22.166 -2.5 -35.499c0 -28 14.667 -47 44 -57zM-52.998 52c45.333 6 77.335 15.332 96.002 27.999c30.667 20.667 54 60.334 70 119.001l252 919c7.33301 27.333 12.666 50 15.999 68s5 32 5 42
c0 36.667 -10.333 59.834 -31 69.501s-60 16.167 -118 19.5v53h557c153.333 0 272.166 -24.167 356.499 -72.5s126.5 -126.5 126.5 -234.5c0 -104.667 -52 -188.334 -156 -251.001c-56 -34 -131 -62.333 -225 -85c86 -30.667 147 -61.334 183 -92.001
c60.667 -51.333 91 -121.666 91 -210.999c0 -112.667 -46.333 -211.5 -139 -296.5s-247.667 -127.5 -465 -127.5h-619v52z" />
    <glyph glyph-name="C" unicode="C" horiz-adv-x="1366" 
d="M1090.5 1373c74.333 -20 118.833 -30.001 133.5 -30.001c21.333 0 37.333 5.33301 48 16s21 25.334 31 44.001h62l-104 -479l-64 12l3.5 50.5c0.333008 5 0.5 12.5 0.5 22.5c0 108 -25.333 188.333 -76 241s-115 79 -193 79c-158.667 0 -296.667 -105.333 -414 -316
c-105.333 -188 -158 -379.667 -158 -575c0 -142 32.5 -239.167 97.5 -291.5s135.833 -78.5 212.5 -78.5c100 0 194.333 33 283 99c48 36 96 84.333 144 145l62 -45c-70.667 -104 -154.667 -181.333 -252 -232s-196 -76 -296 -76c-164 0 -299.5 48.167 -406.5 144.5
s-160.5 225.166 -160.5 386.499c0 246.667 82 460.334 246 641.001c164 181.333 358.667 272 584 272c70 0 142.167 -10 216.5 -30z" />
    <glyph glyph-name="D" unicode="D" horiz-adv-x="1479" 
d="M-67 52c44.667 6 76.333 15.332 95 27.999c31.333 20.667 55 60.334 71 119.001l251 919c7.33301 26 12.833 47.833 16.5 65.5s5.5 33.167 5.5 46.5c0 34.667 -9.66699 56.5 -29 65.5s-59.666 16.167 -120.999 21.5v53h595c201.333 0 354.5 -51.5 459.5 -154.5
s157.5 -241.167 157.5 -414.5c0 -208.667 -77.667 -390 -233 -544c-172.667 -171.333 -399.334 -257 -680.001 -257h-588v52zM1082 1168c-53.333 92 -145.666 138 -276.999 138c-44 0 -73.833 -7.16699 -89.5 -21.5s-26.834 -33.5 -33.501 -57.5l-282 -1035
c-2.66699 -10 -4.5 -19 -5.5 -27s-1.5 -15 -1.5 -21c0 -26.667 8.16699 -46 24.5 -58s45.833 -18 88.5 -18c243.333 0 419.333 125.333 528 376c66 152 99 312.667 99 482c0 101.333 -17 182 -51 242z" />
    <glyph glyph-name="E" unicode="E" horiz-adv-x="1366" 
d="M-57 52c48.667 6 84.6689 18.0029 108.002 36.0029s42.666 55 57.999 111l251 919c6 23.333 11 44.5 15 63.5s6 35.167 6 48.5c0 34.667 -9.16699 56.5 -27.5 65.5s-58.833 16.167 -121.5 21.5v53h1104l-87 -389l-55 9c-1.33301 99.333 -17.333 169.666 -48 210.999
c-52 70 -157.333 105 -316 105c-54 0 -88.833 -6.5 -104.5 -19.5s-28.5 -37.5 -38.5 -73.5l-123 -455c143.333 3.33301 236.166 15 278.499 35s89.166 80.333 140.499 181l57 -7l-152 -560l-56 10c2.66699 19.333 4.5 36.166 5.5 50.499s1.5 26.166 1.5 35.499
c0 72.667 -20 122.334 -60 149.001s-118 40 -234 40l-135 -500c-3.33301 -12 -5.83301 -23.667 -7.5 -35s-2.5 -20.333 -2.5 -27c0 -18.667 7.33301 -34 22 -46s45.334 -18 92.001 -18c124 0 229.667 17.333 317 52c136 53.333 242 149.666 318 288.999l50 -9l-121 -398
h-1135v52z" />
    <glyph glyph-name="F" unicode="F" horiz-adv-x="1366" 
d="M-43 52c49.333 6 85.667 18.3311 109 36.998s42.333 55.334 57 110.001l251 919l12 49c6 28.667 9 51 9 67c0 32.667 -9.33301 53.334 -28 62.001s-59 15.667 -121 21v53h1090l-87 -389l-55 9c-1.33301 98 -17 167.667 -47 209c-52 71.333 -155.667 107 -311 107
c-46 0 -77.5 -6 -94.5 -18s-30.5 -37 -40.5 -75l-123 -455c136.667 4 225.667 16 267 36s87.333 80 138 180l57 -7l-152 -560l-56 10c2.66699 20 4.5 37.333 5.5 52s1.5 26 1.5 34c0 67.333 -17.667 115.666 -53 144.999s-111 44 -227 44l-135 -500
c-2 -8.66699 -3.66699 -16.667 -5 -24s-2 -14.666 -2 -21.999c0 -40 17 -67 51 -81c20.667 -8.66699 52.667 -13 96 -13v-52h-607v52z" />
    <glyph glyph-name="G" unicode="G" horiz-adv-x="1479" 
d="M1127 1372c70 -20.667 110.336 -31 121.003 -31c21.333 0 37.833 5.5 49.5 16.5s23.167 26.167 34.5 45.5h61l-104 -453l-59 7c1.33301 84 -10 154.333 -34 211c-44.667 106 -129.334 159 -254.001 159c-168 0 -310.667 -106 -428 -318
c-101.333 -185.333 -152 -375.666 -152 -570.999c0 -166.667 46.667 -282.667 140 -348c51.333 -36 113.333 -54 186 -54c65.333 0 116.166 9.83301 152.499 29.5s61.5 50.5 75.5 92.5c0 -6.66699 15.5 46.5 46.5 159.5s46.5 185.5 46.5 217.5
c0 34 -9.16699 55.5 -27.5 64.5s-59.5 16.833 -123.5 23.5v52h587v-52c-56.667 -6 -92.667 -16.667 -108 -32s-33 -60.666 -53 -135.999l-99 -373l-57 -26c-46 -20.667 -112.333 -41.834 -199 -63.501s-176.334 -32.5 -269.001 -32.5
c-171.333 0 -314.666 46.667 -429.999 140c-125.333 101.333 -188 238.666 -188 411.999c0 223.333 75.333 423 226 599c167.333 194.667 379.666 292 636.999 292c78 0 152 -10.333 222 -31z" />
    <glyph glyph-name="H" unicode="H" horiz-adv-x="1593" 
d="M-53 52c52 6 88.834 18.333 110.501 37s40.167 55.334 55.5 110.001l252 919c5.33301 21.333 10.166 42 14.499 62s6.5 36.667 6.5 50c0 34.667 -9.33301 56.5 -28 65.5s-59 16.167 -121 21.5v53h649v-53c-71.333 -7.33301 -119.333 -18.5 -144 -33.5
s-45.334 -52.833 -62.001 -113.5l-112 -407h489l97 355c6 23.333 11 44.5 15 63.5s6 35.167 6 48.5c0 36 -13.333 59.667 -40 71c-17.333 7.33301 -53.666 12.666 -108.999 15.999v53h609v-53c-47.333 -6 -80.333 -15.333 -99 -28c-28.667 -20.667 -51 -60.334 -67 -119.001
l-251 -919l-17 -71c-3.33301 -15.333 -5.33301 -24.833 -6 -28.5s-1 -8.16699 -1 -13.5c0 -35.333 15 -59 45 -71c18 -7.33301 53.667 -12.333 107 -15v-52h-650v52c71.333 7.33301 119.5 18.5 144.5 33.5s45.833 52.833 62.5 113.5l130 474h-488l-116 -422
c-8 -31.333 -13.333 -53.666 -16 -66.999s-4 -29.666 -4 -48.999c0 -32.667 9 -53.334 27 -62.001s58.333 -15.667 121 -21v-52h-610v52z" />
    <glyph glyph-name="I" unicode="I" horiz-adv-x="797" 
d="M-48 52c48.667 6 84.666 17.999 107.999 35.999s42.666 55 57.999 111l251 919c7.33301 26 12.833 47.833 16.5 65.5s5.5 33.167 5.5 46.5c0 34.667 -9.66699 56.5 -29 65.5s-59.666 16.167 -120.999 21.5v53h609v-53c-50 -6.66699 -86.167 -18.667 -108.5 -36
s-41.166 -54.333 -56.499 -111l-252 -919l-16 -71c-1.33301 -6.66699 -2.5 -13.5 -3.5 -20.5s-1.5 -13.5 -1.5 -19.5c0 -34.667 9.33301 -56.667 28 -66s59 -16.666 121 -21.999v-52h-609v52z" />
    <glyph glyph-name="J" unicode="J" 
d="M1073 1370l-0.000976562 -53.0029c-47.333 -6 -80.333 -15.667 -99 -29c-28.667 -20.667 -51 -60 -67 -118l-263 -981c-34 -127.333 -83.333 -224.666 -148 -291.999c-65.333 -67.333 -166 -101 -302 -101c-94.667 0 -166.667 21.833 -216 65.5s-74 92.834 -74 147.501
c0 38.667 12.5 71 37.5 97s56.167 39 93.5 39c42 0 74.667 -12.167 98 -36.5s35 -52.833 35 -85.5c0 -23.333 -8.5 -46.666 -25.5 -69.999s-25.5 -41 -25.5 -53c0 -9.33301 4.33301 -16.666 13 -21.999c8 -6 19.667 -9 35 -9c26.667 0 50.167 9.33301 70.5 28
s40.5 56 60.5 112c11.333 30 21.333 61 30 93l41 154l225 862c8.66699 31.333 14.334 55.166 17.001 71.499s4 30.833 4 43.5c0 33.333 -9.33301 54.333 -28 63s-59 15.667 -121 21v53h609z" />
    <glyph glyph-name="K" unicode="K" horiz-adv-x="1366" 
d="M858 1370l-0.000976562 -53.002c-65.333 -7.33301 -109.666 -19.166 -132.999 -35.499s-43 -53.5 -59 -111.5l-124 -452l10 -3l277 245c73.333 64.667 129 116.667 167 156c69.333 70 104 118.667 104 146c0 22 -13.333 37.333 -40 46c-15.333 4.66699 -40 7.66699 -74 9
v53h431v-53c-31.333 -1.33301 -56.666 -6 -75.999 -14c-31.333 -13.333 -70 -41 -116 -83l-443 -405l322 -692c12.667 -26 28 -43.667 46 -53s45.333 -15.333 82 -18v-52h-574v52c48.667 2.66699 83 7.33398 103 14.001s30 21.667 30 45c0 6.66699 -1.83301 17 -5.5 31
s-10.5 31.333 -20.5 52l-220 472l-17 4l-114 -419c-4.66699 -16.667 -9.33398 -36.834 -14.001 -60.501s-7 -41.834 -7 -54.501c0 -31.333 12.667 -53 38 -65c16 -8 48.333 -14.333 97 -19v-52h-595v52c51.333 6 88.166 18.5 110.499 37.5s40.833 55.5 55.5 109.5l251 919
c5.33301 20.667 10.333 41.334 15 62.001s7 37.334 7 50.001c0 34.667 -9.66699 56.5 -29 65.5s-59.666 16.167 -120.999 21.5v53h636z" />
    <glyph glyph-name="L" unicode="L" horiz-adv-x="1251" 
d="M-48 52c48.667 6 84.6689 18.001 108.002 36.001s42.666 55 57.999 111l251 919c7.33301 26 12.833 47.833 16.5 65.5s5.5 33.167 5.5 46.5c0 34.667 -9.66699 56.5 -29 65.5s-59.666 16.167 -120.999 21.5v53h650v-53c-71.333 -7.33301 -119.333 -18.5 -144 -33.5
s-45.334 -52.833 -62.001 -113.5l-266 -978c-2.66699 -10.667 -4.83398 -20.667 -6.50098 -30s-2.5 -20.333 -2.5 -33c0 -22.667 10 -38.834 30 -48.501s48 -14.5 84 -14.5c140.667 0 262.167 24 364.5 72s192.5 137.667 270.5 269l49 -9l-120 -398h-1136v52z" />
    <glyph glyph-name="M" unicode="M" horiz-adv-x="1821" 
d="M-62 52c52.667 6.66699 90.668 26.498 114.001 59.498s54.666 117.5 93.999 253.5l223 763c7.33301 26 13.166 48.833 17.499 68.5s6.5 36.834 6.5 51.501c0 28.667 -10 46.834 -30 54.501s-59 12.5 -117 14.5v53h453l111 -977l633 977h434v-53
c-46.667 -6 -79.334 -15.333 -98.001 -28c-29.333 -20 -52 -58.667 -68 -116l-251 -922c-6 -20 -11.167 -40.333 -15.5 -61s-6.5 -38 -6.5 -52c0 -34 9.83301 -55.5 29.5 -64.5s59.834 -16.167 120.501 -21.5v-52h-640v52c68.667 6.66699 115.834 17.834 141.501 33.501
s46.5 53.5 62.5 113.5l258 943l-770 -1169h-57l-138 1136l-206 -744c-10.667 -38 -18.667 -69.667 -24 -95c-9.33301 -41.333 -14 -74.333 -14 -99c0 -48 19 -81 57 -99c21.333 -10.667 57 -17.334 107 -20.001v-52h-427v52z" />
    <glyph glyph-name="N" unicode="N" horiz-adv-x="1479" 
d="M-57 52c53.333 7.33301 91.667 28 115 62s54.333 117.667 93 251l244 841l-9 21c-15.333 36.667 -36.333 61 -63 73c-17.333 8 -49.333 13.667 -96 17v53h398l444 -951l161 583c10 36 18 68 24 96c9.33301 42.667 14 73.667 14 93c0 50 -17.333 84.333 -52 103
c-21.333 11.333 -58.666 19 -111.999 23v53h427v-53l-29 -4c-42 -6 -74.333 -29.5 -97 -70.5s-50.334 -120.167 -83.001 -237.5l-291 -1039h-60l-523 1133l-204 -734c-16.667 -60.667 -27.667 -106 -33 -136c-3.33301 -18.667 -5 -37 -5 -55c0 -48 18 -81.333 54 -100
c20.667 -10.667 57 -18 109 -22v-52h-426v52z" />
    <glyph glyph-name="O" unicode="O" horiz-adv-x="1479" 
d="M310 1089c178.667 209.333 378.667 314.001 600 314.001c147.333 0 268.333 -44.333 363 -133s142 -208.667 142 -360c0 -220.667 -83.667 -430.334 -251 -629.001c-178.667 -212.667 -384 -319 -616 -319c-146 0 -264.833 44.5 -356.5 133.5
s-137.5 207.833 -137.5 356.5c0 224 85.333 436.333 256 637zM373 156.001c32.667 -82 92 -123 178 -123c80.667 0 154 29.833 220 89.5s134.333 173.5 205 341.5c44.667 106 79.667 217.667 105 335s38 212.333 38 285c0 68.667 -17 127.5 -51 176.5s-87 73.5 -159 73.5
c-170 0 -313 -151 -429 -453c-88 -229.333 -132 -420.333 -132 -573c0 -59.333 8.33301 -110 25 -152z" />
    <glyph glyph-name="P" unicode="P" horiz-adv-x="1251" 
d="M549 725c14.667 -2 27.3359 -3.33203 38.0029 -3.99902s21.667 -1 33 -1c69.333 0 122.666 8.33301 159.999 25s69.666 44 96.999 82c25.333 36 45.166 82.5 59.499 139.5s21.5 104.167 21.5 141.5c0 57.333 -13.667 104.166 -41 140.499s-73.333 54.5 -138 54.5
c-32 0 -53.667 -6.5 -65 -19.5s-22 -36.5 -32 -70.5zM-56.998 52.001c48.667 6 84.6689 17.998 108.002 35.998s42.666 55 57.999 111l251 919c5.33301 20.667 10.166 41.334 14.499 62.001s6.5 37.334 6.5 50.001c0 36 -13.333 59.667 -40 71
c-17.333 7.33301 -53.666 12.666 -108.999 15.999v53h588c99.333 0 182 -13.333 248 -40c125.333 -50.667 188 -143.667 188 -279c0 -122 -50.833 -219.5 -152.5 -292.5s-233.5 -109.5 -395.5 -109.5c-24.667 0 -44.334 0.333008 -59.001 1
s-54.334 3.33398 -119.001 8.00098l-111 -407l-17 -71c-2 -6.66699 -3.33301 -13.5 -4 -20.5s-1 -13.833 -1 -20.5c0 -34.667 9.33301 -56.5 28 -65.5s59.334 -16.167 122.001 -21.5v-52h-604v52z" />
    <glyph glyph-name="Q" unicode="Q" horiz-adv-x="1479" 
d="M373 156c32.667 -82 92 -123 178 -123c80.667 0 154 29.833 220 89.5s134.333 173.5 205 341.5c44.667 106 79.667 217.667 105 335s38 212.333 38 285c0 68.667 -17 127.5 -51 176.5s-87 73.5 -159 73.5c-170 0 -313 -151 -429 -453
c-88 -229.333 -132 -420.333 -132 -573c0 -59.333 8.33301 -110 25 -152zM546 -380.5c-101.333 32.333 -177.333 48.502 -228 48.502c-40 0 -82.667 -6.33301 -128 -19c-26 -8 -61 -20.667 -105 -38l-29 50l376 310c-99.333 16 -187.166 62.167 -263.499 138.5
s-114.5 196.5 -114.5 360.5c0 218.667 87.333 427.667 262 627c178 204 376 306 594 306c147.333 0 268.333 -44.333 363 -133s142 -208.667 142 -360c0 -208.667 -76.667 -410.334 -230 -605.001c-179.333 -228.667 -403 -343 -671 -343l-55 -53
c-19.333 -18.667 -30.5 -29.834 -33.5 -33.501s-4.5 -8.16699 -4.5 -13.5c3.33301 -4 6.33301 -6.5 9 -7.5s7 -1.5 13 -1.5c62.667 0 124.667 -5.66699 186 -17c33.333 -6.66699 65.333 -14.667 96 -24l85 -26c19.333 -6.66699 41.666 -12.667 66.999 -18
c38.667 -8.66699 71.667 -13 99 -13c72.667 0 135 15.667 187 47c33.333 19.333 78.333 57.666 135 114.999l43 -41c-28 -45.333 -57.833 -84.5 -89.5 -117.5s-73.834 -66.5 -126.501 -100.5c-52.667 -33.333 -106.167 -56.166 -160.5 -68.499s-102.5 -18.5 -144.5 -18.5
c-81.333 0 -172.666 16.167 -273.999 48.5z" />
    <glyph glyph-name="R" unicode="R" horiz-adv-x="1366" 
d="M-62 52c48.667 6 84.668 17.9951 108.001 35.9951s42.666 55 57.999 111l251 919l12 49c6 28.667 9 51 9 67c0 32.667 -9.33301 53.334 -28 62.001s-59 15.667 -121 21v53h564c126 0 223.667 -12.333 293 -37c127.333 -45.333 191 -132 191 -260
c0 -42.667 -10.667 -88.167 -32 -136.5s-57 -92.166 -107 -131.499c-35.333 -28 -76.666 -50.667 -123.999 -68c-28 -10 -71.667 -22 -131 -36c6 -21.333 10 -34.666 12 -39.999l159 -462c21.333 -62 44.166 -101.5 68.499 -118.5s61.5 -26.5 111.5 -28.5v-52h-412l-221 677
h-59l-121 -426l-17 -71c-1.33301 -5.33301 -2.33301 -11.166 -3 -17.499s-1 -12.833 -1 -19.5c0 -36.667 8.83301 -59.667 26.5 -69s58.5 -16.666 122.5 -21.999v-52h-609v52zM723.001 757.995c64 13.333 113.003 39.333 147.003 78
c23.333 26.667 45.166 64.167 65.499 112.5s30.5 100.5 30.5 156.5c0 57.333 -14.333 104.833 -43 142.5s-77.334 56.5 -146.001 56.5c-28.667 0 -49.334 -6.16699 -62.001 -18.5s-23.667 -36.5 -33 -72.5l-123 -469c73.333 1.33301 128 6 164 14z" />
    <glyph glyph-name="S" unicode="S" horiz-adv-x="1139" 
d="M11 -38l74.0039 459l59 -4c4 -65.333 9.66699 -113 17 -143c12.667 -50 35.667 -94.333 69 -133c30.667 -35.333 65.5 -62.166 104.5 -80.499s81.5 -27.5 127.5 -27.5c82 0 145.5 26.167 190.5 78.5s67.5 113.166 67.5 182.499c0 86 -83.667 194.667 -251 326
c-167.333 137.333 -251 264.333 -251 381c0 110 36.833 203.667 110.5 281s176.5 116 308.5 116c36.667 0 74.334 -3.66699 113.001 -11c25.333 -4.66699 47.666 -10.334 66.999 -17.001l52 -17c11.333 -3.33301 23 -6.16602 35 -8.49902s22.667 -3.5 32 -3.5
c24 0 42.333 5 55 15s23.667 22.333 33 37h61l-83 -410l-54 7l-7 67c-8.66699 63.333 -28.334 117.666 -59.001 162.999c-48 71.333 -118 107 -210 107c-78.667 0 -136 -28.667 -172 -86c-24 -38 -36 -79 -36 -123c0 -46.667 12.333 -88 37 -124c14 -20 35 -41.667 63 -65
l177 -145c62.667 -51.333 116 -109.833 160 -175.5s66 -140.5 66 -224.5c0 -108 -42.5 -205.5 -127.5 -292.5s-201.833 -130.5 -350.5 -130.5c-37.333 0 -74.833 3.5 -112.5 10.5s-74.834 17.167 -111.501 30.5l-52 19c-17.333 6.66699 -29.333 10.834 -36 12.501
s-14.334 2.5 -23.001 2.5c-22.667 0 -38.834 -5.5 -48.501 -16.5s-20.5 -30.167 -32.5 -57.5h-62z" />
    <glyph glyph-name="T" unicode="T" horiz-adv-x="1251" 
d="M80 52c62.667 0 105.666 6 128.999 18c37.333 19.333 65.333 62.333 84 129l304 1099c-102 0.666992 -189.333 -23.833 -262 -73.5s-133 -122.834 -181 -219.501l-53 14l79 351h1128l-74 -394l-54 5c-3.33301 133.333 -40.666 224.333 -111.999 273
c-38.667 26.667 -96 41.334 -172 44.001l-287 -1047l-17 -71c-2 -9.33301 -3.33301 -17 -4 -23s-1 -12 -1 -18c0 -35.333 11 -57.5 33 -66.5s68 -15.833 138 -20.5v-52h-678v52z" />
    <glyph glyph-name="U" unicode="U" horiz-adv-x="1479" 
d="M329 1118c6 22.667 11 44.001 15 64.001s6 37.333 6 52c0 32.667 -9.33301 53.334 -28 62.001s-59 15.667 -121 21v53h635v-53c-62 -6 -105.167 -16.667 -129.5 -32s-45.166 -53.666 -62.499 -114.999l-168 -613c-15.333 -54.667 -27 -99.334 -35 -134.001
c-14 -62 -21 -107.667 -21 -137c0 -67.333 22.5 -118.833 67.5 -154.5s106.167 -53.5 183.5 -53.5c129.333 0 230.666 56.333 303.999 169c43.333 65.333 86.333 175.666 129 330.999l119 427c15.333 62 22.333 89 21 81c11.333 50.667 17 87 17 109
c0 48 -18 81.333 -54 100c-21.333 10.667 -58 18 -110 22v53h427v-53c-52 -6 -90.167 -25.833 -114.5 -59.5s-55.833 -117.834 -94.5 -252.501l-135 -467c-54 -186 -109 -315.667 -165 -389c-96 -124.667 -237 -187 -423 -187c-128 0 -236 30.833 -324 92.5
s-132 147.5 -132 257.5c0 40.667 5.33301 87 16 139c6.66699 31.333 20.667 86.333 42 165z" />
    <glyph glyph-name="V" unicode="V" horiz-adv-x="1366" 
d="M711 1370v-53.0029c-49.333 0 -85 -4 -107 -12c-33.333 -12.667 -50 -36.667 -50 -72c0 -6.66699 0.333008 -13.167 1 -19.5l2 -19.5l106 -815l387 611c30.667 48.667 58.334 97.334 83.001 146.001s37 87 37 115s-12.667 46.667 -38 56
c-16 5.33301 -47.333 8.66602 -94 9.99902v53h393v-53c-32 -9.33301 -56 -19.666 -72 -30.999c-26 -19.333 -53.333 -51.666 -82 -96.999l-773 -1227h-64l-156 1043c-22.667 148.667 -41.834 236.334 -57.501 263.001s-58.167 43 -127.5 49v53h612z" />
    <glyph glyph-name="W" unicode="W" horiz-adv-x="1821" 
d="M668 1370v-53c-35.333 -0.666992 -61.666 -5.66699 -78.999 -15c-30.667 -16 -46 -46.667 -46 -92c0 -4.66699 0.166992 -9.16699 0.5 -13.5s0.833008 -10.5 1.5 -18.5l80 -709l306 630c2 8 3 14.333 3 19c0 82.667 -15 138.667 -45 168
c-18.667 17.333 -53 28.666 -103 33.999v50h550v-53c-46.667 -2.66699 -79.667 -10.667 -99 -24s-29 -42 -29 -86c0 -9.33301 0.666992 -22.333 2 -39c2 -27.333 5.33301 -61.333 10 -102l69 -597l318 664c7.33301 16 14.166 33.167 20.499 51.5s9.5 36.5 9.5 54.5
c0 33.333 -11.167 54.833 -33.5 64.5s-53.833 14.167 -94.5 13.5v53h382v-50c-32.667 -3.33301 -58.667 -11.666 -78 -24.999c-32.667 -22.667 -63.667 -64.334 -93 -125.001l-585 -1208h-59l-124 995l-476 -995h-59l-159 1187c-9.33301 70.667 -23 115.334 -41 134.001
s-57.333 31 -118 37v50h569z" />
    <glyph glyph-name="X" unicode="X" horiz-adv-x="1366" 
d="M-53 52c41.333 8.66699 84.499 31.165 129.499 67.498s97.5 87.166 157.5 152.499l330 360l-173 557c-16 50 -36.5 82.333 -61.5 97s-67.167 25 -126.5 31v53h626v-50c-60.667 -5.33301 -101.167 -12.5 -121.5 -21.5s-30.5 -29.5 -30.5 -61.5
c0 -7.33301 0.666992 -14 2 -20s3.33301 -14.333 6 -25l97 -330l105.5 110.5l87.5 92.5c63.333 66.667 103 110.667 119 132s24 42.333 24 63c0 23.333 -8.16699 38.333 -24.5 45s-45.833 11.667 -88.5 15v50h417v-53c-28.667 -2 -53.667 -8.33301 -75 -19
c-36 -18 -79 -52.667 -129 -104l-408 -419l152 -486c32 -101.333 61 -163.666 87 -186.999s76 -40 150 -50v-52h-631v52c42.667 1.33301 73.334 5.33301 92.001 12c32.667 12 49 33.667 49 65c0 18.667 -2.33301 37.834 -7 57.501s-9.66699 37.834 -15 54.501l-95 299
l-275 -303c-24.667 -27.333 -41 -48 -49 -62s-12 -26.667 -12 -38c0 -32.667 17 -56 51 -70c18 -7.33301 45 -12.333 81 -15v-52h-441v52z" />
    <glyph glyph-name="Y" unicode="Y" horiz-adv-x="1251" 
d="M94 52c66 5.33301 110.001 14.3359 132.001 27.0029c33.333 18.667 58.333 58.667 75 120l123 441l-180 549c-16.667 50.667 -33.834 84.167 -51.501 100.5s-50.5 25.5 -98.5 27.5v53h579v-50c-50 -2 -86.167 -7.33301 -108.5 -16s-33.5 -28.334 -33.5 -59.001
c0 -8.66699 1.16699 -19.667 3.5 -33s5.83301 -27.333 10.5 -42l142 -450l265 382c14 20 25.333 38.333 34 55c13.333 28 20 53.667 20 77c0 35.333 -15 59.333 -45 72c-18 7.33301 -49.333 12 -94 14v50h427v-50c-29.333 -4.66699 -55.333 -14.334 -78 -29.001
c-36 -22.667 -72.667 -60.334 -110 -113.001l-388 -548l-102 -379c-4.66699 -15.333 -9.5 -34.833 -14.5 -58.5s-7.5 -40.5 -7.5 -50.5c0 -36.667 13.667 -61 41 -73c18 -8 57.333 -13.667 118 -17v-52h-659v52z" />
    <glyph glyph-name="Z" unicode="Z" horiz-adv-x="1251" 
d="M-5 59l890.998 1239h-159c-129.333 -3.33301 -238.666 -36.333 -327.999 -99c-58 -40.667 -121 -108 -189 -202l-56 8l116 365h957v-60l-889 -1239h145c114.667 0 210.334 14 287.001 42c140 51.333 249.667 149.333 329 294l55 -9l-121 -398h-1038v59z" />
    <glyph glyph-name="bracketleft" unicode="[" horiz-adv-x="682" 
d="M803 1379l-14.0029 -68.999h-142c-37.333 0 -61.166 -6.83301 -71.499 -20.5s-22.166 -50.167 -35.499 -109.5l-313 -1342c-3.33301 -16 -5.66602 -27.5 -6.99902 -34.5s-2 -12.833 -2 -17.5c0 -16.667 7.33301 -27.834 22 -33.501s31 -8.5 49 -8.5h159l-15 -72h-450
l410 1707h410z" />
    <glyph glyph-name="backslash" unicode="\" horiz-adv-x="569" 
d="M80 1403l571 -1403h-163l-571 1403h163z" />
    <glyph glyph-name="bracketright" unicode="]" horiz-adv-x="682" 
d="M-138 -332l13.998 68.001h142c36.667 0 60.334 7 71.001 21s22.667 50.667 36 110l313 1341c5.33301 22 8.33301 35.167 9 39.5s1 8.16602 1 11.499c0 18.667 -7.66699 30.667 -23 36s-31.666 8 -48.999 8h-158l14 71h450l-410 -1706h-410z" />
    <glyph glyph-name="asciicircum" unicode="^" horiz-adv-x="1167" 
d="M711 1403l214 -882h-178l-130 602l-387 -602h-178l588 882h71z" />
    <glyph glyph-name="underscore" unicode="_" 
d="M-14 -275l28 139h1024l-29 -139h-1023z" />
    <glyph glyph-name="grave" unicode="`" horiz-adv-x="682" 
d="M573 1057l-92.002 -0.000976562l-234 182c-22.667 18 -37.167 34.833 -43.5 50.5s-8.16602 30.834 -5.49902 45.501c4.66699 20.667 17.334 41 38.001 61s46 30 76 30c24.667 0 44.167 -6.16699 58.5 -18.5s27.5 -28.833 39.5 -49.5z" />
    <glyph glyph-name="a" unicode="a" 
d="M672 813c-12.667 30.667 -36.333 45.999 -71 45.999c-74 0 -150 -87.667 -228 -263c-68.667 -155.333 -103 -274.333 -103 -357c0 -32.667 8.16699 -61 24.5 -85s37.833 -36 64.5 -36c68 -0.666992 145 89.333 231 270c61.333 151.333 92 271.333 92 360
c0 26.667 -3.33301 48.334 -10 65.001zM198.001 701.999c124 162 249.998 243.003 377.998 243.003c52 0 90.333 -15.333 115 -46c14.667 -18.667 27.667 -50 39 -94l35 109l228 15l-145 -479c-20.667 -68 -35.334 -120 -44.001 -156c-18 -68.667 -27 -117.667 -27 -147
c0 -12 2.66699 -20.333 8 -25s11.333 -7 18 -7c12 0 23.667 4.5 35 13.5s24 21.833 38 38.5c6.66699 7.33301 18 21.166 34 41.499l40 51.5l43 -31c-55.333 -81.333 -108.166 -145 -158.499 -191s-101.166 -69 -152.499 -69c-31.333 0 -61.666 11.667 -90.999 35
s-44 57.666 -44 102.999c0 17.333 8.66699 59.666 26 126.999c2.66699 2.66699 0.166992 -2 -7.5 -14l-35.5 -53c-36 -54.667 -78.5 -101 -127.5 -139s-103.5 -57 -163.5 -57c-54 0 -104.333 20.333 -151 61s-70 109.667 -70 207c0 150.667 60 305 180 463z" />
    <glyph glyph-name="b" unicode="b" 
d="M701.5 772c-16.333 21.333 -40.499 32 -72.499 32c-52 0 -102 -39.667 -150 -119c-26 -43.333 -50 -96.333 -72 -159c-18.667 -52 -42.334 -130.333 -71.001 -235s-43 -168.667 -43 -192c0 -10.667 4.16699 -22.5 12.5 -35.5s26.833 -19.5 55.5 -19.5
c108 0 199.667 87 275 261c60 137.333 90 257.333 90 360c0 50 -8.16699 85.667 -24.5 107zM52.001 142l286 1021c6 22 10.333 39.667 13 53s4 25 4 35c0 29.333 -8.83301 47.333 -26.5 54s-51.5 10 -101.5 10v55l213 26l214 35l-180 -661c41.333 58 85.333 101.333 132 130
s97 43 151 43c66 0 119.833 -22.667 161.5 -68s62.5 -112 62.5 -200c0 -159.333 -62.333 -313 -187 -461c-136.667 -162 -296.334 -243 -479.001 -243c-67.333 0 -129.666 14.333 -186.999 43s-86 54.667 -86 78c0 4.66699 3.33301 21.334 10 50.001z" />
    <glyph glyph-name="c" unicode="c" horiz-adv-x="909" 
d="M233 734c122.667 140.667 256.001 210.999 400.001 210.999c76.667 0 134.5 -18.833 173.5 -56.5s58.5 -80.167 58.5 -127.5c0 -44 -13 -78.833 -39 -104.5s-56.667 -38.5 -92 -38.5c-26.667 0 -52.667 9.16699 -78 27.5s-38 45.5 -38 81.5c0 14.667 1.5 26 4.5 34
s9.5 20.333 19.5 37l9 15c4.66699 7.33301 7.83398 13 9.50098 17s2.5 8.33301 2.5 13c0 11.333 -5.33301 20.166 -16 26.499s-23.334 9.5 -38.001 9.5c-73.333 0 -143 -76 -209 -228c-58.667 -135.333 -88 -252.666 -88 -351.999c0 -45.333 8.66699 -84.666 26 -117.999
c26 -51.333 68.667 -77 128 -77c44 0 86.167 16.167 126.5 48.5s80.5 77.833 120.5 136.5l57 -38c-66 -92 -120.333 -155.667 -163 -191c-72.667 -59.333 -157.334 -89 -254.001 -89c-73.333 0 -141.833 26 -205.5 78s-95.5 132 -95.5 240c0 158 60.333 306.333 181 445z
" />
    <glyph glyph-name="d" unicode="d" 
d="M295.5 153.5c15.667 -22.333 36.833 -33.5 63.5 -33.5c80.667 0 159 95 235 285c64 158 96 274 96 348c0 26 -3.33301 47 -10 63c-12.667 29.333 -36 44 -70 44c-76 0 -153.333 -84.667 -232 -254c-70.667 -151.333 -106 -273 -106 -365
c0 -36 7.83301 -65.167 23.5 -87.5zM669.999 922c16 -9.33301 33.334 -23.6699 52.001 -43.0029l91 337c2 6.66699 3.33301 13.334 4 20.001s1 13 1 19c0 24 -7.33301 40.333 -22 49s-35.334 13 -62.001 13h-42v55l88 8c68.667 6 121.667 12 159 18s98 17 182 33l-228 -829
l-72 -266.5c-30 -113 -45 -175.167 -45 -186.5c0 -10 2.5 -17.333 7.5 -22s11.167 -7 18.5 -7c15.333 0 36.5 16.5 63.5 49.5s50.5 65.5 70.5 97.5l45 -33c-54 -80 -98 -137 -132 -171c-59.333 -60 -117 -90 -173 -90c-29.333 0 -54.333 7.33301 -75 22
c-32.667 22 -49 59.333 -49 112c0 8.66699 1.83301 23.834 5.5 45.501s8.83398 48.834 15.501 81.501c-49.333 -80 -92 -137.333 -128 -172c-62.667 -60.667 -132 -91 -208 -91c-60 0 -111.5 23.167 -154.5 69.5s-64.5 115.833 -64.5 208.5c0 146 60.667 297.667 182 455
c124 160.667 248.333 241 373 241c37.333 0 69.666 -7.66699 96.999 -23z" />
    <glyph glyph-name="e" unicode="e" horiz-adv-x="909" 
d="M655 854.5c-8.66699 16.333 -24.333 24.5 -47 24.5c-48 0 -95.167 -38.667 -141.5 -116s-87.5 -185.666 -123.5 -324.999c118 26.667 201.667 78 251 154s74 143.667 74 203c0 23.333 -4.33301 43.166 -13 59.499zM230.001 730
c122.667 144 257.331 215.999 403.998 215.999c63.333 0 115.833 -15.667 157.5 -47s62.5 -75.666 62.5 -132.999c0 -86.667 -48.667 -168.667 -146 -246s-223.666 -126.666 -378.999 -147.999c-4 -20.667 -7 -40 -9 -58s-3 -32.667 -3 -44c0 -42 6 -75 18 -99
c21.333 -44.667 62.333 -67 123 -67c49.333 0 98.333 25.333 147 76c26 26.667 54 63.667 84 111l60 -35c-51.333 -86 -99.666 -149 -144.999 -189c-72 -64 -156.333 -96 -253 -96c-72 0 -139.833 26.167 -203.5 78.5s-95.5 132.166 -95.5 239.499
c0 154.667 59.333 301.667 178 441z" />
    <glyph glyph-name="f" unicode="f" horiz-adv-x="682" 
d="M-254.5 -375c-36.333 32 -54.502 70.667 -54.502 116c0 32.667 10.833 59 32.5 79s46.167 30 73.5 30c26.667 0 50.5 -9.16699 71.5 -27.5s31.5 -43.166 31.5 -74.499c0 -16.667 -5.5 -33.167 -16.5 -49.5s-16.5 -27.5 -16.5 -33.5c0 -7.33301 3.5 -13 10.5 -17
s15.5 -6 25.5 -6c51.333 0 90.333 41 117 123c26.667 81.333 82 319.333 166 714l84 355h-150l19 85h150c12 50.667 37.5 119.5 76.5 206.5s88.833 157.167 149.5 210.5c73.333 63.333 148.666 95 225.999 95c62 0 112.833 -14 152.5 -42s59.5 -69.667 59.5 -125
c0 -32.667 -10.167 -58.834 -30.5 -78.501s-44.5 -29.5 -72.5 -29.5c-27.333 0 -51 9.66699 -71 29s-30 42 -30 68c0 18 5.5 36.5 16.5 55.5s16.5 30.167 16.5 33.5c0 4.66699 -2.33301 10.667 -7 18c-5.33301 6.66699 -14.666 10 -27.999 10
c-37.333 0 -71.166 -26 -101.499 -78s-58.5 -128 -84.5 -228l-38 -145h190l-19 -85h-185c-97.333 -478.667 -177.666 -792.667 -240.999 -942c-89.333 -210 -214 -315 -374 -315c-62.667 0 -112.167 16 -148.5 48z" />
    <glyph glyph-name="g" unicode="g" 
d="M601.5 507.5c41.667 87 62.499 170.165 62.499 249.498c0 36 -7.33301 65.667 -22 89s-38.667 35 -72 35c-63.333 0 -114.166 -46.667 -152.499 -140s-57.5 -176.666 -57.5 -249.999c0 -37.333 8.66699 -65.666 26 -84.999s39.333 -29 66 -29
c58 0 107.833 43.5 149.5 130.5zM567.499 -129.002c-19.667 18.667 -46.5 34.999 -80.5 48.999c-23.333 9.33301 -60.833 22.5 -112.5 39.5s-82.5 25.5 -92.5 25.5c0 10 -26.667 -4.33301 -80 -43s-80 -83.667 -80 -135c0 -32 12.333 -61.333 37 -88
c40.667 -45.333 108 -68 202 -68c74 0 131.833 13.333 173.5 40s62.5 61 62.5 103c0 32.667 -9.83301 58.334 -29.5 77.001zM135.999 52.9971c-30.667 25.333 -45.999 59 -45.999 101c0 34 14 64.833 42 92.5s79.333 61.5 154 101.5c-55.333 20 -96.333 50.333 -123 91
s-40 89.667 -40 147c0 86 40.333 167.333 121 244s187 115 319 115c68.667 0 128.834 -11 180.501 -33s71.5 -33 59.5 -33h228v-116h-138c4 -17.333 7 -32.333 9 -45s3 -27 3 -43c0 -98.667 -38.833 -183.167 -116.5 -253.5s-186.834 -105.5 -327.501 -105.5
c-30.667 0 -67.334 3.66699 -110.001 11c-10.667 0 -21.834 -8.33301 -33.501 -25s-17.5 -31 -17.5 -43c0 -22 16.333 -41.667 49 -59c15.333 -8.66699 34 -16.334 56 -23.001l109 -31c95.333 -27.333 163 -54 203 -80c68.667 -44 103 -104.667 103 -182
c0 -86.667 -45.667 -158.667 -137 -216s-204.666 -86 -339.999 -86c-88.667 0 -165.667 10.667 -231 32c-112.667 36 -169 99.333 -169 190c0 58.667 30 106.334 90 143.001c33.333 20 92.333 42.333 177 67c-33.333 12 -58 25 -74 39z" />
    <glyph glyph-name="h" unicode="h" horiz-adv-x="1139" 
d="M23 0l315.001 1161c3.33301 12.667 7 28 11 46s6 32.667 6 44c0 30.667 -9.66699 49.334 -29 56.001s-52.333 9.33398 -99 8.00098v55c99.333 10 166.833 17.5 202.5 22.5s110.5 17.833 224.5 38.5l-218 -839l4 -2c-6.66699 -6.66699 -3.16699 -0.666992 10.5 18l61.5 81
c61.333 80 119.5 142.333 174.5 187s114.167 67 177.5 67c48 0 86.167 -13.333 114.5 -40s42.5 -66.667 42.5 -120c0 -22 -2.33301 -43.667 -7 -65s-16.667 -61.666 -36 -120.999l-137 -424c-2 -8.66699 -3 -14.667 -3 -18c0 -10.667 3.33301 -19.167 10 -25.5
s14.334 -9.5 23.001 -9.5c18 0 45 22 81 66c18 23.333 42.667 58.333 74 105l45 -31c-62 -94 -111 -158.667 -147 -194c-60 -58.667 -124 -88 -192 -88c-37.333 0 -69.833 10.833 -97.5 32.5s-41.5 55.834 -41.5 102.501c0 30 6.66699 71.167 20 123.5s31 110.833 53 175.5
l104 306c1.33301 4.66699 2.5 9.5 3.5 14.5s1.5 9.83301 1.5 14.5c0 19.333 -5.33301 32 -16 38s-21.667 9 -33 9c-40.667 0 -88.334 -33 -143.001 -99s-98.334 -129.667 -131.001 -191c-33.333 -62 -66.333 -141 -99 -237c-18 -55.333 -45 -144.333 -81 -267h-249z" />
    <glyph glyph-name="i" unicode="i" horiz-adv-x="569" 
d="M66 197c4.66699 20.667 11.6641 48.001 20.9971 82.001l123 460c1.33301 5.33301 2.5 10.666 3.5 15.999s1.5 10.333 1.5 15c0 27.333 -8.66699 44.333 -26 51s-49 11 -95 13v54c38.667 2.66699 94.834 8.16699 168.501 16.5s125.834 15.5 156.501 21.5l88 17l-159 -583
c-13.333 -50 -22.333 -84.667 -27 -104c-12 -49.333 -18 -81.333 -18 -96s3.33301 -24.167 10 -28.5s14 -6.5 22 -6.5c20.667 0 46.334 17.667 77.001 53s57.667 72.333 81 111l45 -29c-66.667 -98 -117.667 -164 -153 -198c-58 -56 -120 -84 -186 -84
c-37.333 0 -70.833 11.5 -100.5 34.5s-44.5 58.167 -44.5 105.5c0 16.667 4 43 12 79zM546.997 1360c26.667 -26.667 40 -59 40 -97s-13.333 -70.5 -40 -97.5s-59 -40.5 -97 -40.5s-70.5 13.5 -97.5 40.5s-40.5 59.5 -40.5 97.5s13.5 70.333 40.5 97s59.5 40 97.5 40
s70.333 -13.333 97 -40z" />
    <glyph glyph-name="j" unicode="j" horiz-adv-x="569" 
d="M327 49c-43.333 -163.333 -100.332 -283.499 -170.999 -360.499s-157 -115.5 -259 -115.5c-60 0 -111.167 14.667 -153.5 44s-63.5 66 -63.5 110c0 39.333 10 68.166 30 86.499s44.667 27.5 74 27.5c25.333 0 48.666 -9.16699 69.999 -27.5s32 -43.166 32 -74.499
c0 -14 -2.16699 -25.833 -6.5 -35.5s-13.166 -23.834 -26.499 -42.501c4 -8 10.167 -14 18.5 -18s18.833 -6 31.5 -6c31.333 0 61 29.667 89 89c16 34.667 35 94.334 57 179.001l188 730c8 30 14.333 56.667 19 80s7 41.666 7 54.999c0 28 -8 45.333 -24 52
s-50.667 10.667 -104 12v54c84 6 148.667 12 194 18s122.666 18.333 231.999 37l-151 -583zM602.001 1360c26.667 -26.667 39.999 -59 39.999 -97s-13.5 -70.5 -40.5 -97.5s-59.5 -40.5 -97.5 -40.5s-70.333 13.5 -97 40.5s-40 59.5 -40 97.5s13.333 70.333 40 97
s59 40 97 40c38.667 0 71.334 -13.333 98.001 -40z" />
    <glyph glyph-name="k" unicode="k" 
d="M21 0l317.004 1161c6 22.667 10.333 40.334 13 53.001s4 25 4 37c0 30.667 -9.66699 49.334 -29 56.001s-52.333 9.33398 -99 8.00098v55c100.667 11.333 170.667 19.833 210 25.5s111.666 17.5 216.999 35.5l-252 -936c77.333 56 144.666 109 201.999 159
c88.667 78 133 132.333 133 163c0 22 -9.83301 35.833 -29.5 41.5s-44.834 8.5 -75.501 8.5v52h425v-52c-33.333 -1.33301 -71 -12 -113 -32s-97 -60.667 -165 -122l-71 -64l-45.5 -41c-13 -11.333 -16.833 -14.333 -11.5 -9c0 4 6.83301 -31 20.5 -105
s24.167 -124.333 31.5 -151c25.333 -89.333 44.166 -147.5 56.499 -174.5s30.5 -40.5 54.5 -40.5s46.667 13 68 39c13.333 16.667 32 47.667 56 93l45 -23c-34 -69.333 -73.333 -129.333 -118 -180s-96.667 -76 -156 -76c-45.333 0 -83 15 -113 45s-54.667 70 -74 120
c-20.667 52.667 -37.5 113.334 -50.5 182.001s-19.5 106 -19.5 112l-80 -56l-102 -384h-249z" />
    <glyph glyph-name="l" unicode="l" horiz-adv-x="569" 
d="M67 200c4 18 10.667 44.333 20 79l242 882c6 22.667 10.333 41 13 55s4 26 4 36c0 30 -10 48.333 -30 55s-52.667 9.33398 -98 8.00098v55c101.333 10 169.833 17.5 205.5 22.5s109.167 17.833 220.5 38.5l-296 -1071c-14.667 -54 -23.667 -88.333 -27 -103
c-12 -48.667 -18 -81 -18 -97c0 -14 3.66699 -23.333 11 -28s14 -7 20 -7c20 0 45.5 17.333 76.5 52s58.5 72 82.5 112l45 -29c-60 -92 -108.667 -156 -146 -192c-62 -60 -128 -90 -198 -90c-38 0 -70.833 12.833 -98.5 38.5s-41.5 59.5 -41.5 101.5
c0 17.333 4.33301 44.666 13 81.999z" />
    <glyph glyph-name="m" unicode="m" horiz-adv-x="1593" 
d="M33 0l182.003 653.996c10.667 38.667 17.667 65.834 21 81.501s5 30.834 5 45.501c0 22 -6.83301 35.667 -20.5 41s-43.834 9.33301 -90.501 12v54c86 5.33301 159 12.333 219 21c38.667 5.33301 102.334 16.666 191.001 33.999l-123 -379l7 -5
c89.333 135.333 156.666 226 201.999 272c74 74.667 152 112 234 112c38 0 69.667 -11.833 95 -35.5s38 -56.167 38 -97.5c0 -31.333 -6 -68.333 -18 -111c-6.66699 -24 -15.667 -54 -27 -90c70 107.333 126.667 182.666 170 225.999c72 72 146.667 108 224 108
c52 0 91.667 -13.833 119 -41.5s41 -66.834 41 -117.501c0 -28.667 -6.33301 -67 -19 -115c-1.33301 -6.66699 -8.33301 -30.667 -21 -72l-109 -325c-8 -22.667 -15.5 -46.167 -22.5 -70.5s-10.5 -41.5 -10.5 -51.5c0 -9.33301 3.83301 -16.666 11.5 -21.999
s14.834 -8 21.501 -8c19.333 0 46.333 22.333 81 67c18.667 24 39 54 61 90l45 -29c-50.667 -82 -93.667 -141 -129 -177c-61.333 -62 -126 -93 -194 -93c-34.667 0 -67 10 -97 30s-45 53 -45 99c0 38 9 91.333 27 160c11.333 42 26.333 90.333 45 145l102 308
c1.33301 4.66699 2.5 9.5 3.5 14.5s1.5 9.83301 1.5 14.5c0 12.667 -3.66699 23.334 -11 32.001c-8 8.66699 -19.667 13 -35 13c-42.667 0 -90.834 -35.667 -144.501 -107s-98.5 -145 -134.5 -221c-13.333 -27.333 -26.5 -60.666 -39.5 -99.999l-117.5 -366h-246l208 663
c5.33301 16.667 9.66602 31.834 12.999 45.501s5 26.834 5 39.501c0 20 -4 32.667 -12 38s-17 8 -27 8c-32 0 -74.333 -30.5 -127 -91.5s-102.667 -140.167 -150 -237.5c-25.333 -52 -53 -124.667 -83 -218c-18.667 -56.667 -43.334 -139 -74.001 -247h-246z" />
    <glyph glyph-name="n" unicode="n" horiz-adv-x="1139" 
d="M49 0l183.005 654.003c7.33301 26.667 12.666 47.667 15.999 63c6.66699 28.667 10 48.667 10 60c0 24.667 -7.66699 40 -23 46s-45 9.66699 -89 11v54c85.333 5.33301 151.666 11.333 198.999 18s118 19 212 37l-124 -379l5 -3c-3.33301 -3.33301 16.667 27.167 60 91.5
s84.666 116.5 123.999 156.5c38.667 40.667 79.167 73.167 121.5 97.5s86.833 36.5 133.5 36.5c43.333 0 80.166 -12.333 110.499 -37s45.5 -65 45.5 -121c0 -52 -30 -166.667 -90 -344c-60.667 -176.667 -91 -271.334 -91 -284.001c0 -12 3.66699 -21.167 11 -27.5
s14.666 -9.5 21.999 -9.5c18 0 44.667 22.667 80 68c18.667 24 39 53.667 61 89l45 -29c-50.667 -82 -93.667 -141 -129 -177c-61.333 -62 -126.333 -93 -195 -93c-36.667 0 -69.5 10.667 -98.5 32s-43.5 55 -43.5 101c0 29.333 7 72 21 128s31 113.667 51 173l102 306
c2 7.33301 3.66699 13.666 5 18.999s2 10.666 2 15.999c0 15.333 -5.16699 26 -15.5 32s-21.5 9 -33.5 9c-42 0 -88.667 -32.5 -140 -97.5s-93.333 -129.833 -126 -194.5c-35.333 -70 -65 -141 -89 -213s-52.667 -168.333 -86 -289h-247z" />
    <glyph glyph-name="o" unicode="o" 
d="M822 896c96 -54.667 144 -147.666 144 -278.999c0 -145.333 -55.333 -286.333 -166 -423c-120.667 -148.667 -258.667 -223 -414 -223c-79.333 0 -154.5 24.667 -225.5 74s-106.5 132.666 -106.5 249.999c0 146 55 287.333 165 424c120.667 149.333 259.667 224 417 224
c69.333 0 131.333 -15.667 186 -47zM311 92.001c16.667 -38 48 -57 94 -57c85.333 0 162 98 230 294c56.667 164.667 85 307 85 427c0 32 -4 57 -12 75c-15.333 33.333 -44 50 -86 50c-98 0 -180.333 -104 -247 -312c-51.333 -158 -77 -289.333 -77 -394
c0 -35.333 4.33301 -63 13 -83z" />
    <glyph glyph-name="p" unicode="p" 
d="M-166 -368c46.667 2 79.167 9.50098 97.5 22.501s34.833 48.167 49.5 105.5l232 894c3.33301 12 8.5 33.167 15.5 63.5s10.5 49.5 10.5 57.5c0 24.667 -8.66699 40.667 -26 48s-45.666 11 -84.999 11v54l99 10c25.333 2.66699 66.833 8.16699 124.5 16.5
s114.834 17.833 171.501 28.5l-68 -209l4 -4c45.333 60 85.333 104.667 120 134c62.667 52.667 127.667 79 195 79c63.333 0 116.166 -21 158.499 -63s63.5 -106.333 63.5 -193c0 -164.667 -59.333 -324.667 -178 -480c-120.667 -157.333 -247.334 -236 -380.001 -236
c-31.333 0 -56 3.33301 -74 10s-43 19 -75 37l-36 -135c-11.333 -40.667 -20.833 -77.834 -28.5 -111.501s-11.5 -57.834 -11.5 -72.501c0 -27.333 9 -44.666 27 -51.999s53.333 -12.333 106 -15v-54h-512v54zM336.5 65.501c16.333 -13.667 37.498 -20.501 63.498 -20.501
c83.333 0 163 89.333 239 268c65.333 152.667 98 275.667 98 369c0 30 -3.33301 53.333 -10 70c-12 30.667 -35 46 -69 46c-36.667 0 -75.667 -19 -117 -57s-75.666 -94 -102.999 -168c-21.333 -57.333 -47.666 -140.666 -78.999 -249.999s-47 -175.333 -47 -198
c0 -26 8.16699 -45.833 24.5 -59.5z" />
    <glyph glyph-name="q" unicode="q" 
d="M613 387c62 152.667 93 276.001 93 370.001c0 25.333 -4.33301 46.333 -13 63c-12.667 25.333 -34 38 -64 38c-73.333 0 -148.333 -81.667 -225 -245c-70.667 -149.333 -106 -274.333 -106 -375c0 -30.667 3.66699 -54.334 11 -71.001c13.333 -31.333 38.333 -47 75 -47
c80 0 156.333 89 229 267zM723 892.001c13.333 -19.333 22.667 -48.332 28 -86.999l31 114h223l-328 -1171c-2 -8.66699 -4 -18.5 -6 -29.5s-3 -20.167 -3 -27.5c0 -20.667 7.33301 -35.667 22 -45s42 -14 82 -14h29v-54h-548v54c64 6 106.833 15.667 128.5 29
s40.5 47.333 56.5 102l123 424c-46 -72.667 -93.167 -126.834 -141.5 -162.501s-101.833 -53.5 -160.5 -53.5c-57.333 0 -107.833 21.833 -151.5 65.5s-65.5 114.167 -65.5 211.5c0 150.667 60.667 303.667 182 459c123.333 158.667 248.333 238 375 238
c58 0 99.333 -17.667 124 -53z" />
    <glyph glyph-name="r" unicode="r" horiz-adv-x="797" 
d="M18 0c60 195.333 109.001 363.336 147.001 504.003c41.333 151.333 62 241.333 62 270c0 25.333 -8.33301 41.666 -25 48.999s-45.334 11 -86.001 11v54c85.333 5.33301 157.333 12.333 216 21c38 5.33301 102.667 16.666 194 33.999l-114 -363l9 -2
c58.667 113.333 105.667 193.666 141 240.999c62 82.667 121.667 124 179 124c40 0 69.5 -13.333 88.5 -40s28.5 -56.334 28.5 -89.001c0 -39.333 -10.5 -74.666 -31.5 -105.999s-50.167 -47 -87.5 -47c-16.667 0 -32.167 3.33301 -46.5 10s-26.5 16.667 -36.5 30l-19 24
c-3.33301 4 -6.83301 7.33301 -10.5 10s-8.5 4 -14.5 4c-26 0 -60 -35.333 -102 -106s-77.333 -142.667 -106 -216c-20 -50.667 -44.667 -122.667 -74 -216s-51 -160.333 -65 -201h-247z" />
    <glyph glyph-name="s" unicode="s" horiz-adv-x="797" 
d="M78 312l53.998 -4c10 -100.667 35.667 -171.334 77 -212.001s82 -61 122 -61c34.667 0 62.334 11 83.001 33s31 48 31 78c0 27.333 -9.16699 57.333 -27.5 90s-39.833 64.334 -64.5 95.001l-76 95c-33.333 36 -61.666 78 -84.999 126s-35 96 -35 144
c0 68 25.667 126.667 77 176s121 74 209 74c36 0 74 -7.66699 114 -23s66.333 -23 79 -23c16 0 28 3.66699 36 11s15.333 18 22 32h59l-47 -313l-55 5c-12.667 86.667 -36.167 149 -70.5 187s-70.5 57 -108.5 57s-65.833 -11.333 -83.5 -34s-26.5 -47.667 -26.5 -75
c0 -24 6.5 -47.5 19.5 -70.5s38.167 -58.167 75.5 -105.5l100 -128c22 -28 41.667 -61.833 59 -101.5s26 -79.167 26 -118.5c0 -82.667 -29.667 -149.167 -89 -199.5s-131.666 -75.5 -216.999 -75.5c-36 0 -74.5 7.16699 -115.5 21.5s-65.833 21.5 -74.5 21.5
c-16.667 0 -29.334 -4.33301 -38.001 -13s-15.667 -18.667 -21 -30h-54z" />
    <glyph glyph-name="t" unicode="t" horiz-adv-x="569" 
d="M39.5 173c4.33301 22.667 13.1699 58 26.5029 106l154 555h-104v71c67.333 27.333 124 57.333 170 90c81.333 57.333 149.333 131 204 221h74l-81 -297h147v-85h-171l-132 -474c-12 -42 -21.333 -77 -28 -105c-11.333 -48 -17 -81 -17 -99
c0 -12.667 3.83301 -21 11.5 -25s14.167 -6 19.5 -6c19.333 0 44.166 16.667 74.499 50s58.166 71.333 83.499 114l45 -29c-60.667 -92 -109.334 -156 -146.001 -192c-62 -60 -127.667 -90 -197 -90c-40 0 -73.333 13.167 -100 39.5s-40 59.833 -40 100.5
c0 14 2.16699 32.333 6.5 55z" />
    <glyph glyph-name="u" unicode="u" horiz-adv-x="1139" 
d="M110 213c6 30 12.6738 57.666 20.0068 82.999l111 389c5.33301 17.333 9.16602 32.333 11.499 45s3.5 25.334 3.5 38.001c0 26 -8.5 43.167 -25.5 51.5s-46.5 13.166 -88.5 14.499v54c139.333 12.667 243.666 25 312.999 37s107 18 113 18l-94 -313l-98 -315
c-4.66699 -14.667 -10 -34 -16 -58c-9.33301 -36 -14 -62.667 -14 -80c0 -16.667 4.16699 -29 12.5 -37s20.166 -12 35.499 -12c33.333 0 77.166 31.833 131.499 95.5s105.166 148.5 152.499 254.5c30.667 68.667 58 138.667 82 210c15.333 47.333 38.333 124.333 69 231
h242l-83 -284c-3.33301 -10.667 -18 -61.167 -44 -151.5l-47 -162.5c-10 -35.333 -18.667 -68.166 -26 -98.499s-11 -51.166 -11 -62.499c0 -12.667 3.16699 -22.5 9.5 -29.5s14.166 -10.5 23.499 -10.5c21.333 0 50 23.333 86 70c20.667 26 39.334 53.333 56.001 82l43 -26
c-38.667 -74 -87.167 -137.167 -145.5 -189.5s-118.5 -78.5 -180.5 -78.5c-54.667 0 -92.667 15.333 -114 46c-14.667 20.667 -22 48 -22 82c0 32.667 2.66699 60.5 8 83.5s17.666 64.833 36.999 125.5l-5 2c-84 -120 -146.667 -200 -188 -240
c-68 -66.667 -137.667 -100 -209 -100c-34.667 0 -65.334 8.66699 -92.001 26c-44 27.333 -66 73.666 -66 138.999c0 17.333 3 41 9 71z" />
    <glyph glyph-name="v" unicode="v" horiz-adv-x="909" 
d="M298 -29h-51.9971l7 280c2 82.667 1.5 158.5 -1.5 227.5s-9.5 136.167 -19.5 201.5c-11.333 72 -24.833 115.667 -40.5 131s-44.834 23 -87.501 23v54l66 10c48.667 8 88.5 14.833 119.5 20.5s75.833 14.5 134.5 26.5c23.333 -73.333 40 -191.666 50 -354.999
c5.33301 -82 9 -191 11 -327c51.333 54 99.666 110.333 144.999 169c76 98 114 168 114 210c0 24 -15 52.333 -45 85s-45 65.667 -45 99c0 35.333 11.167 63.666 33.5 84.999s48.833 32 79.5 32c33.333 0 62.666 -12.5 87.999 -37.5s38 -61.167 38 -108.5
c0 -88 -58 -211 -174 -369c-90.667 -123.333 -193 -239.333 -307 -348z" />
    <glyph glyph-name="w" unicode="w" horiz-adv-x="1366" 
d="M265 -29l5.00293 174.999l-5 162c-2.66699 84 -5.33398 143.333 -8.00098 178c-4.66699 70.667 -12.334 136.334 -23.001 197.001c-12 71.333 -25.5 114.333 -40.5 129s-44.833 22 -89.5 22v54l66 10c64 10 122.167 20.333 174.5 31s74.166 15.334 65.499 14.001l11 2
c15.333 -38.667 28.833 -98.334 40.5 -179.001s18.167 -141 19.5 -181l9 -197l159 282l81.5 141l77.5 132h57l64 -678c71.333 84 124 149.333 158 196c57.333 80 86 137 86 171c0 20.667 -14 51.834 -42 93.501s-42 76.167 -42 103.5c0 31.333 11.667 58.166 35 80.499
s50 33.5 80 33.5c32 0 61 -11.5 87 -34.5s39 -55.5 39 -97.5c0 -101.333 -73.667 -250 -221 -446c-82 -108.667 -194.333 -240 -337 -394h-57c-2 29.333 -4.66699 72.666 -8 129.999c-2 36.667 -5.33301 80.334 -10 131.001c-2.66699 32.667 -6.66699 77 -12 133l-17 184
l-133 -233c-52 -92 -84.333 -147.667 -97 -167l-116 -178h-57z" />
    <glyph glyph-name="x" unicode="x" 
d="M587 663c76 103.333 137.167 175.833 183.5 217.5s91.5 62.5 135.5 62.5c52.667 0 89 -18 109 -54c10.667 -18.667 16 -41.334 16 -68.001c0 -27.333 -11 -52.333 -33 -75s-48.667 -34 -80 -34c-19.333 0 -41.166 7.33301 -65.499 22s-42.833 22 -55.5 22
c-24.667 0 -48.167 -12.667 -70.5 -38s-60.833 -79 -115.5 -161l19 -100l25 -126.5c6.66699 -33 14 -63.5 22 -91.5c10.667 -38.667 21.334 -66.667 32.001 -84s26.334 -26 47.001 -26c18.667 0 41.334 13.667 68.001 41c14.667 14.667 37 41.667 67 81l42 -29
c-35.333 -59.333 -81.166 -115.666 -137.499 -168.999s-111.5 -80 -165.5 -80c-45.333 0 -82.666 18.667 -111.999 56c-16.667 20 -31.334 47.333 -44.001 82c-6.66699 18 -15.834 49.833 -27.501 95.5s-19.167 73.834 -22.5 84.501l-14 -24
c-66 -113.333 -114.333 -187 -145 -221c-46 -50.667 -99.333 -76 -160 -76c-34.667 0 -64.834 11.833 -90.501 35.5s-38.5 52.834 -38.5 87.501c0 28.667 9.5 55.167 28.5 79.5s45.5 36.5 79.5 36.5c20.667 0 46.167 -7.33301 76.5 -22s50.166 -22 59.499 -22
c20.667 0 38.5 9.16699 53.5 27.5s44.5 63.833 88.5 136.5l40 66c-6.66699 28 -13.834 62.333 -21.501 103l-23.5 125l-16 85c-11.333 61.333 -29.333 101.666 -54 120.999c-14 11.333 -37 17 -69 17c-3.33301 0 -11.333 -0.5 -24 -1.5s-25.334 -2.16699 -38.001 -3.5v55
c60 7.33301 125.833 16.666 197.5 27.999s119.5 19.333 143.5 24c20 -26.667 36.5 -59 49.5 -97s22.833 -78.333 29.5 -121z" />
    <glyph glyph-name="y" unicode="y" horiz-adv-x="909" 
d="M293 -175.5c46 55.667 69 109.16 69 160.493c0 46.667 -13 140.334 -39 281.001c-16.667 90 -34.334 178 -53.001 264c-34 151.333 -59.167 241 -75.5 269s-48.166 42 -95.499 42v55c63.333 6 130 15.333 200 28s101.333 18.334 94 17.001l14 2
c16 -47.333 40.5 -141.166 73.5 -281.499s58.833 -267.5 77.5 -381.5l8 -48l38 66c31.333 53.333 62.5 117.333 93.5 192s46.5 125 46.5 151c0 12.667 -3.33301 24.834 -10 36.501s-17.667 22.834 -33 33.501l-16 11c-11.333 8 -22 18.667 -32 32
c-15.333 22 -23 45.333 -23 70c0 29.333 11.167 56.5 33.5 81.5s50.5 37.5 84.5 37.5c30 0 58.667 -11 86 -33s41 -57.667 41 -107c0 -81.333 -38.333 -203.666 -115 -366.999c-57.333 -121.333 -124 -242.666 -200 -363.999
c-106.667 -168.667 -203.167 -293.5 -289.5 -374.5s-173.833 -121.5 -262.5 -121.5c-38 0 -69.5 12.833 -94.5 38.5s-37.5 54.5 -37.5 86.5c0 34 11.667 61 35 81s49.666 30 78.999 30c30.667 0 65.334 -11.833 104.001 -35.5s64.667 -35.5 78 -35.5
c34.667 0 75 27.833 121 83.5z" />
    <glyph glyph-name="z" unicode="z" horiz-adv-x="797" 
d="M175 919l640 -0.000976562v-21l-576 -685c90 -38 157.667 -100.333 203 -187s84 -130 116 -130c11.333 0 21 2.83301 29 8.5s12 12.834 12 21.501c0 6.66699 -6.66699 20.667 -20 42s-20 42 -20 62c0 30.667 11.333 55 34 73s47 27 73 27c25.333 0 49.333 -9 72 -27
s34 -46 34 -84c0 -50.667 -21.5 -93.5 -64.5 -128.5s-95.167 -52.5 -156.5 -52.5c-75.333 0 -156.666 28.5 -243.999 85.5s-148.333 85.5 -183 85.5c-22.667 0 -47 -11.5 -73 -34.5s-44.333 -34.5 -55 -34.5c-7.33301 0 -14.666 2.33301 -21.999 7s-11 12.334 -11 23.001
c0 4 0.5 8.33301 1.5 13s3.16699 8.66699 6.5 12l600 727h-297c-36.667 0 -66.334 -14 -89.001 -42c-12.667 -16.667 -26.334 -44.334 -41.001 -83.001l-57 7z" />
    <glyph glyph-name="braceleft" unicode="{" horiz-adv-x="713" 
d="M107 -4c3.33301 20 7.66602 43.3359 12.999 70.0029l38 171l7 35l5 43c7.33301 60.667 -17.334 107.667 -74.001 141c-33.333 18.667 -89.333 36.334 -168 53.001l3 10c115.333 27.333 192 53.666 230 78.999c57.333 39.333 96 107.666 116 204.999l33 161
c25.333 122 63 213.333 113 274c91.333 110.667 234.666 164 429.999 160l-12 -52c-108 -4 -191 -50.667 -249 -140c-31.333 -47.333 -54.333 -107.333 -69 -180l-26 -128c-23.333 -114.667 -52.666 -196 -87.999 -244c-61.333 -84.667 -160.666 -131.334 -297.999 -140.001
c62.667 -2.66699 113.667 -14.667 153 -36c65.333 -36 98 -96 98 -180c0 -18 -1.66699 -38 -5 -60s-6.33301 -39 -9 -51l-38 -187c-6 -30.667 -10 -52.834 -12 -66.501s-3 -30.167 -3 -49.5c0 -69.333 17.333 -117.833 52 -145.5s82.334 -46.5 143.001 -56.5l-9 -52
c-92 -2 -179.167 17 -261.5 57s-123.5 111 -123.5 213c0 22.667 3.66699 54.667 11 96z" />
    <glyph glyph-name="bar" unicode="|" horiz-adv-x="451" 
d="M469 1431l-305 -1431h-181l304 1431h182z" />
    <glyph glyph-name="braceright" unicode="}" horiz-adv-x="713" 
d="M510 1039c-4 -24.667 -8.99805 -50.333 -14.998 -77l-38 -171l-7 -35l-5 -43c-7.33301 -63.333 20.667 -112 84 -146c34.667 -19.333 87.334 -35.333 158.001 -48l-2 -10c-116 -27.333 -193 -54 -231 -80c-58 -39.333 -96.667 -107.333 -116 -204l-33 -161
c-26 -125.333 -63.667 -217.666 -113 -276.999c-90 -108 -233 -160.333 -429 -157l11 52c106 4 187.667 48.667 245 134c34 49.333 58.333 111.333 73 186l26 128c23.333 112.667 52.666 193.667 87.999 243c61.333 85.333 160.666 132.333 297.999 141
c-64 3.33301 -115.333 15.666 -154 36.999c-64.667 35.333 -97 94.666 -97 177.999c0 18 0.333008 29.167 1 33.5s5 30.5 13 78.5l38 187c6 29.333 10 51.333 12 66s3 29.334 3 44.001c0 66 -15.833 114.5 -47.5 145.5s-80.834 51.833 -147.501 62.5l10 52
c100 2 189 -18.833 267 -62.5s117 -109.5 117 -197.5c0 -26.667 -3 -59.667 -9 -99z" />
    <glyph glyph-name="asciitilde" unicode="~" horiz-adv-x="1167" 
d="M403.5 696.5c37.667 -11 82.5 -26.833 134.5 -47.5l201 -81c28 -11.333 56 -20 84 -26s51.667 -9 71 -9c50 0 88.333 17 115 51s52 85.667 76 155h81c-33.333 -126.667 -66 -216.667 -98 -270c-52.667 -86 -124 -129 -214 -129c-20.667 0 -43 2.66699 -67 8
c-44 8.66699 -97 26 -159 52l-188 78c-34 14 -61.333 24 -82 30c-32.667 10 -61.334 15 -86.001 15c-53.333 0 -97.666 -24 -132.999 -72c-20.667 -28 -42 -73.333 -64 -136h-75c20.667 102.667 46 182.667 76 240c56 105.333 132.333 158 229 158
c28 0 60.833 -5.5 98.5 -16.5z" />
    <glyph glyph-name="nobreakspace" unicode="&#xa0;" horiz-adv-x="512" 
 />
    <glyph glyph-name="exclamdown" unicode="&#xa1;" horiz-adv-x="797" 
d="M403.5 758c-29 30 -43.501 64.666 -43.501 103.999c0 40.667 15 75.334 45 104.001s66 43 108 43s77.5 -14 106.5 -42s43.5 -62.333 43.5 -103c0 -42.667 -14.667 -78.5 -44 -107.5s-63.666 -43.5 -102.999 -43.5c-46 0 -83.5 15 -112.5 45zM45.999 -217.001
c5.33301 19.333 13.667 39.999 25 61.999l71 140l105 215c35.333 74.667 62 134.334 80 179.001l73 185l59 -17l-9 -43c-26.667 -127.333 -44 -218.5 -52 -273.5s-22.333 -183.5 -43 -385.5l-7 -68c-5.33301 -56 -20.333 -102.833 -45 -140.5s-64 -56.5 -118 -56.5
c-31.333 0 -59.333 7.66699 -84 23c-42 26 -63 67 -63 123c0 18.667 2.66699 37.667 8 57z" />
    <glyph glyph-name="cent" unicode="&#xa2;" 
d="M383 161c13.333 -18 31.667 -33 55 -45l256 734c-6 10 -14 17.333 -24 22s-21.667 7 -35 7c-66.667 0 -132.667 -73 -198 -219c-60.667 -136 -91 -258.333 -91 -367c0 -55.333 12.333 -99.333 37 -132zM260.001 736c119.333 139.333 251.668 209 397.001 209
c18.667 0 33 -0.666992 43 -2s18.333 -3 25 -5l85 242h71l-90 -261c34 -16 60.333 -38 79 -66s28 -59.667 28 -95c0 -42.667 -13 -76.667 -39 -102s-55.667 -38 -89 -38c-16.667 0 -30.834 2 -42.501 6s-23.5 10 -35.5 18l-188 -538c44 -0.666992 86.167 16.5 126.5 51.5
s78.833 79.5 115.5 133.5l57 -38c-66 -92.667 -120.5 -157 -163.5 -193s-103.167 -62.667 -180.5 -80l-94 -272h-72l93 265c-68 0 -135.167 25 -201.5 75s-99.5 131 -99.5 243c0 160.667 58.333 309.667 175 447z" />
    <glyph glyph-name="sterling" unicode="&#xa3;" 
d="M200 94c13.333 21.333 24 51.332 32 89.999c-15.333 14.667 -35 28.667 -59 42s-47 20 -69 20c-30 0 -55.833 -9.66699 -77.5 -29s-32.5 -43.666 -32.5 -72.999c0 -32 11.167 -57.333 33.5 -76s48.166 -28 77.499 -28c40.667 0 72.334 18 95.001 54zM191 323.999
c18 -4.66699 39.6719 -11.668 65.0049 -21.001l2 14c1.33301 8 6 49.833 14 125.5l14 133.5l7 59h-222l21 123h216c18.667 101.333 35.667 176.333 51 225c26.667 81.333 64.667 154.666 114 219.999c34.667 44.667 75 83.667 121 117c70 49.333 141.667 74 215 74
c78 0 136.833 -18 176.5 -54s59.5 -79.333 59.5 -130c0 -40 -12.667 -72.833 -38 -98.5s-55 -38.5 -89 -38.5c-32.667 0 -58.834 10.667 -78.501 32s-29.5 45.333 -29.5 72c0 8 3.33301 29.667 10 65l4 26c3.33301 20 0 35 -10 45c-10 9.33301 -22.667 14 -38 14
c-39.333 0 -70 -21 -92 -63c-12 -22.667 -22 -54 -30 -94l-81 -412h232l-19 -123h-237c-8 -50.667 -24.5 -108.667 -49.5 -174s-51.833 -122.666 -80.5 -171.999l-21 -36c66.667 -26 116.667 -43.167 150 -51.5s64.666 -12.5 93.999 -12.5c56 0 98.5 10.333 127.5 31
s51.167 53 66.5 97h52c-16 -88 -48.167 -167.333 -96.5 -238s-121.833 -106 -220.5 -106c-42.667 0 -84.334 11.333 -125.001 34c-25.333 14 -67.333 44.667 -126 92c-30.667 -41.333 -56.334 -69.666 -77.001 -84.999c-35.333 -26 -77.333 -39 -126 -39
c-57.333 0 -102.833 17.5 -136.5 52.5s-50.5 74.5 -50.5 118.5c0 53.333 18.167 97.5 54.5 132.5s84.166 52.5 143.499 52.5c24 0 45 -2.33301 63 -7z" />
    <glyph glyph-name="currency" unicode="&#xa4;" 
d="M454 426c70.667 0 136.832 24.667 198.499 74s100.167 110 115.5 182c14.667 71.333 2.5 131.833 -36.5 181.5s-95.167 74.5 -168.5 74.5c-70.667 0 -136.667 -25 -198 -75s-99.333 -110.333 -114 -181c-15.333 -69.333 -3.16602 -129.333 36.501 -180
s95.167 -76 166.5 -76zM130.998 782c22.667 49.333 57.334 99.665 104.001 150.998l-99 126l95 78l99 -123c40 24 83.167 43.833 129.5 59.5s91.833 23.5 136.5 23.5c42 0 81.833 -6.16699 119.5 -18.5s75.167 -34.5 112.5 -66.5l152 125l67 -78l-155 -126
c21.333 -43.333 34 -84.666 38 -123.999s1 -82.666 -9 -129.999c-10.667 -49.333 -27.167 -93.666 -49.5 -132.999s-51.833 -76 -88.5 -110l104 -128l-100 -81l-100 123c-43.333 -26 -87 -45.833 -131 -59.5s-88 -20.5 -132 -20.5c-54.667 0 -104.667 10.333 -150 31
c-26.667 12 -54.667 29.333 -84 52l-152 -126l-61 81l152 128c-19.333 38 -31.333 70 -36 96c-8.66699 43.333 -6.33398 95.333 6.99902 156c6.66699 33.333 17 64.666 31 93.999z" />
    <glyph glyph-name="yen" unicode="&#xa5;" 
d="M94 52c64.667 4.66699 108.332 13.334 130.999 26.001c34.667 19.333 60.667 59.666 78 120.999l59 208h-289l24 114h298l26 111l-30 102h-294l23 114h237l-144 417c-4.66699 12 -15.667 23.167 -33 33.5s-46 16.5 -86 18.5v53h579v-50
c-50 -2 -86.167 -7.33301 -108.5 -16s-33.5 -28.334 -33.5 -59.001c0 -8.66699 1.16699 -19.667 3.5 -33s5.83301 -27.333 10.5 -42l142 -450l265 382c18.667 27.333 32.334 50.166 41.001 68.499s13 39.5 13 63.5c0 30.667 -10.667 52.334 -32 65.001s-57 19.667 -107 21
v50h427v-50c-34.667 -5.33301 -67 -19.5 -97 -42.5s-60.333 -56.167 -91 -99.5l-232 -330h237l-23 -114h-294l-55 -90l-38 -123h337l-24 -114h-351l-47 -156c-3.33301 -10.667 -7.83301 -29.167 -13.5 -55.5s-8.5 -44.166 -8.5 -53.499c0 -36.667 13.667 -61 41 -73
c18 -8 57.333 -13.667 118 -17v-52h-659v52z" />
    <glyph glyph-name="brokenbar" unicode="&#xa6;" horiz-adv-x="451" 
d="M135 0v557h182v-557h-182zM135 872v559h182v-559h-182z" />
    <glyph glyph-name="section" unicode="&#xa7;" 
d="M709.5 335c23.667 22.667 35.499 52.333 35.499 89c0 62 -42.667 142.833 -128 242.5s-157.333 149.5 -216 149.5c-37.333 0 -66 -12.333 -86 -37s-30 -53 -30 -85c0 -58 42.333 -138 127 -240s153.334 -153 206.001 -153c37.333 0 67.833 11.333 91.5 34z
M270.999 -147.001c-24.667 -22.667 -37.0049 -37.6689 -37.0049 -45.002c0 -12 12.167 -24.5 36.5 -37.5s56.166 -19.5 95.499 -19.5c60.667 0 106.334 15.167 137.001 45.5s46 65.5 46 105.5c0 39.333 -10.5 76 -31.5 110s-67.167 94 -138.5 180l-135 163
c-34.667 41.333 -61.667 83 -81 125s-29 85.667 -29 131c0 84 24.833 147.333 74.5 190s103.167 64 160.5 64c13.333 0 28.333 -0.666992 45 -2s29.334 -4 38.001 -8l5 7c-24.667 22.667 -49.5 58.167 -74.5 106.5s-37.5 100.166 -37.5 155.499
c0 72.667 26.167 136.834 78.5 192.501s131.5 83.5 237.5 83.5c94 0 164.167 -21.5 210.5 -64.5s69.5 -86.833 69.5 -131.5c0 -31.333 -9.5 -60.666 -28.5 -87.999s-49.833 -41 -92.5 -41c-34 0 -61 11 -81 33s-30 46.333 -30 73c0 11.333 1.66699 22.833 5 34.5
s11 22.834 23 33.501l23 21c8.66699 7.33301 14.5 13 17.5 17s4.5 8.66699 4.5 14c0 12 -11.167 24 -33.5 36s-54.166 18 -95.499 18c-44.667 0 -83.167 -13.333 -115.5 -40s-48.5 -64 -48.5 -112c0 -24.667 5.66699 -50 17 -76c20.667 -46 60.334 -103.333 119.001 -172
l143 -166c38 -44.667 68 -92.167 90 -142.5s33 -101.833 33 -154.5c0 -61.333 -22.667 -117.666 -68 -168.999s-103.666 -77 -174.999 -77c-16.667 0 -28 0.333008 -34 1s-14 2.66699 -24 6l-5 -7c36 -44.667 62.333 -82.334 79 -113.001c28 -52 42 -103 42 -153
c0 -79.333 -32.167 -145.333 -96.5 -198s-141.5 -79 -231.5 -79c-94.667 0 -169 21.333 -223 64s-81 94 -81 154c0 34.667 11 64 33 88s51 36 87 36c26.667 0 52.334 -9.5 77.001 -28.5s37 -46.5 37 -82.5c0 -31.333 -12.333 -58.333 -37 -81z" />
    <glyph glyph-name="dieresis" unicode="&#xa8;" horiz-adv-x="682" 
d="M117 1208c8 37.333 27.833 68.833 59.5 94.5s65.834 38.5 102.501 38.5s65.167 -13 85.5 -39s26.5 -57.333 18.5 -94c-7.33301 -36 -26.833 -67 -58.5 -93s-65.834 -39 -102.501 -39c-37.333 0 -66 13 -86 39s-26.333 57 -19 93zM715 1341
c36.667 0 65.168 -13 85.501 -39s26.5 -57.333 18.5 -94c-7.33301 -36.667 -26.833 -67.834 -58.5 -93.501s-65.834 -38.5 -102.501 -38.5c-36 0 -64.333 12.833 -85 38.5s-27.334 56.834 -20.001 93.501c8 37.333 27.833 68.833 59.5 94.5s65.834 38.5 102.501 38.5z" />
    <glyph glyph-name="copyright" unicode="&#xa9;" horiz-adv-x="1530" 
d="M233 244c94.667 -120 227.332 -180.001 397.999 -180.001c171.333 0 329 58.667 473 176c146.667 118.667 238.667 266 276 442c36.667 170.667 7.66699 316 -87 436c-95.333 120 -228.666 180 -399.999 180c-166 0 -321.667 -58 -467 -174
c-150 -119.333 -243.667 -266.666 -281 -441.999c-36 -171.333 -6.66699 -317.333 88 -438zM1376 1199c114.667 -139.333 150 -311.667 106 -517c-42.667 -202.667 -149 -373.667 -319 -513c-168 -138 -352.667 -207 -554 -207c-202.667 0 -359 70.667 -469 212
c-107.333 140 -140.333 309.333 -99 508c44 206 155 379.333 333 520c170 134 350.667 201 542 201c196 0 349.333 -68 460 -204zM350.998 663.998c28.667 135.333 91.833 242.502 189.5 321.502s196.5 118.5 296.5 118.5c60.667 0 113.834 -11.5 159.501 -34.5
s71.167 -34.5 76.5 -34.5c4.66699 0 10.5 4.16699 17.5 12.5s11.833 18.5 14.5 30.5h74l-56 -303h-78c-3.33301 65.333 -13 115 -29 149c-29.333 60.667 -81.333 91 -156 91c-80.667 0 -148.334 -37 -203.001 -111s-90.334 -150 -107.001 -228
c-22 -103.333 -14 -181.833 24 -235.5s89.667 -80.5 155 -80.5c50.667 0 98.667 15.667 144 47s90 75.666 134 132.999l60 -40c-51.333 -74.667 -112.833 -132.334 -184.5 -173.001s-148.5 -61 -230.5 -61c-96.667 0 -177.167 37.833 -241.5 113.5
s-84.166 170.5 -59.499 284.5z" />
    <glyph glyph-name="ordfeminine" unicode="&#xaa;" horiz-adv-x="545" 
d="M454 1332c-8 12.667 -22.333 19 -43 19c-42.667 0 -88.667 -48.333 -138 -145s-74 -169.334 -74 -218.001c0 -26 5.16699 -46.333 15.5 -61s25.5 -22 45.5 -22c50 0 96.833 50.833 140.5 152.5s65.5 177.5 65.5 227.5c0 18.667 -4 34.334 -12 47.001zM158 1263
c82 93.333 160.999 139.999 236.999 139.999c32.667 0 56.834 -7.66699 72.501 -23s25.5 -36.333 29.5 -63l22 67l149 9c-60.667 -186 -99.167 -306.167 -115.5 -360.5s-24.5 -91.833 -24.5 -112.5c0 -5.33301 1.5 -9.33301 4.5 -12s6.5 -4 10.5 -4
c11.333 0 22.666 5.33301 33.999 16s32.333 34 63 70l28 -16c-28.667 -40 -55 -71.333 -79 -94c-43.333 -42 -83.666 -63 -120.999 -63c-22 0 -42.333 6.83301 -61 20.5s-28 33.834 -28 60.501c0 9.33301 1.16699 19.833 3.5 31.5s6.5 27.167 12.5 46.5
c-27.333 -42 -53 -74.333 -77 -97c-44.667 -41.333 -91.667 -62 -141 -62c-41.333 0 -75.333 13.833 -102 41.5s-40 67.5 -40 119.5c0 96.667 41 191.667 123 285z" />
    <glyph glyph-name="guillemotleft" unicode="&#xab;" 
d="M426 474l338.998 244.001c80 63.333 124.333 98.666 133 105.999l31 26c10.667 6.66699 18.667 10 24 10c7.33301 0 14 -2.5 20 -7.5s9 -11.167 9 -18.5c0 -26 -19.167 -62.167 -57.5 -108.5s-119.166 -135.166 -242.499 -266.499l97 -200
c35.333 -78.667 53 -129.334 53 -152.001c0 -13.333 -3.33301 -22 -10 -26s-13 -6 -19 -6c-6.66699 0 -12.167 1.66699 -16.5 5s-15.166 15.333 -32.499 36c-31.333 37.333 -64.5 73.833 -99.5 109.5l-228.5 229.5v19zM41.998 474.001l338.998 244.001
c80 63.333 124.333 98.666 133 105.999l31 26c10.667 6.66699 18.667 10 24 10c7.33301 0 14 -2.5 20 -7.5s9 -11.167 9 -18.5c0 -26 -19.167 -62.167 -57.5 -108.5s-119.166 -135.166 -242.499 -266.499l97 -200c35.333 -78.667 53 -129.334 53 -152.001
c0 -13.333 -3.33301 -22 -10 -26s-13 -6 -19 -6c-6.66699 0 -12.167 1.66699 -16.5 5s-15.166 15.333 -32.499 36c-31.333 37.333 -64.5 73.833 -99.5 109.5l-228.5 229.5v19z" />
    <glyph glyph-name="logicalnot" unicode="&#xac;" horiz-adv-x="1241" 
d="M1173 832l-129 -610h-187l91 429h-866l38 181h1053z" />
    <glyph glyph-name="softhyphen" unicode="&#xad;" horiz-adv-x="682" 
d="M138 583h503l-99 -237h-502z" />
    <glyph glyph-name="registered" unicode="&#xae;" horiz-adv-x="1530" 
d="M1042 735c-37.333 -18 -93.0039 -33.333 -167.004 -46l-2 -7l10 -2c67.333 -14 108.5 -64.333 123.5 -151s30.167 -130 45.5 -130c10.667 0 19.167 4.33301 25.5 13s16.833 31.667 31.5 69h56c-6.66699 -38.667 -28.5 -81.5 -65.5 -128.5s-86.167 -70.5 -147.5 -70.5
c-66.667 0 -105.334 35.667 -116.001 107c-2.66699 30.667 -1.66699 77.334 3 140.001c2 58.667 -18.333 94.667 -61 108c-25.333 11.333 -66.666 16 -123.999 14l-38 -180c-6 -34.667 -3.83301 -58.667 6.5 -72s37.166 -20 80.499 -20l-16 -76h-387l16 76
c50.667 0 83.834 11.5 99.501 34.5s36.167 94.167 61.5 213.5l34 160c16.667 81.333 25.334 128.666 26.001 141.999c1.33301 18 -3.16699 33.167 -13.5 45.5s-36.166 18.5 -77.499 18.5l17 76h434c94.667 0 165.834 -16 213.501 -48s64.834 -80 51.501 -144
c-13.333 -62.667 -53.333 -110 -120 -142zM232.996 245c94.667 -120.667 227.999 -181 399.999 -181c172.667 0 331.334 59 476.001 177c146 119.333 237.333 266.333 274 441c36.667 170.667 7.66699 316 -87 436s-228.334 180 -401.001 180c-169.333 0 -327 -60 -473 -180
c-148 -120.667 -240.667 -267.667 -278 -441c-35.333 -168.667 -5.66602 -312.667 89.001 -432zM1378 1198c112.667 -140 147.332 -312 103.999 -516c-44 -207.333 -154.333 -380.666 -331 -519.999c-168.667 -133.333 -348.667 -200 -540 -200
c-203.333 0 -360 70.667 -470 212c-108 139.333 -141.333 308.666 -100 507.999c44 205.333 154.667 378.333 332 519c170.667 134.667 352.334 202 545.001 202c196.667 0 350 -68.333 460 -205zM862.993 748c60 19.333 96.668 60.3311 110.001 122.998
c10 48.667 -7.66699 83.334 -53 104.001c-28.667 12.667 -64.667 19 -108 19c-42 0 -69.333 -12.167 -82 -36.5s-32.334 -100.166 -59.001 -227.499c92 0 156 6 192 18z" />
    <glyph glyph-name="macron" unicode="&#xaf;" horiz-adv-x="682" 
d="M111 1133l33 142h666l-33 -142h-666z" />
    <glyph glyph-name="degree" unicode="&#xb0;" horiz-adv-x="819" 
d="M469 907c50.667 0 98.001 18 142.001 54s71.667 79.667 83 131c10 48.667 1 91.334 -27 128.001s-67.667 55 -119 55c-50 0 -97.333 -18.333 -142 -55s-72.334 -80 -83.001 -130c-10 -48.667 -0.833008 -91.334 27.5 -128.001s67.833 -55 118.5 -55zM206.001 1092
c17.333 84 62.332 155.167 134.999 213.5s150 87.5 232 87.5c84 0 148.833 -29.333 194.5 -88s59.834 -129.667 42.501 -213c-18 -85.333 -63.5 -157.166 -136.5 -215.499s-149.5 -87.5 -229.5 -87.5c-83.333 0 -148.5 28.667 -195.5 86s-61.167 129.666 -42.5 216.999z" />
    <glyph glyph-name="plusminus" unicode="&#xb1;" horiz-adv-x="1124" 
d="M1034 177l-38 -177h-1052l38 177h1052zM434 251l65 308h-437l38 178h437l68 317h182l-68 -317h434l-38 -178h-434l-65 -308h-182z" />
    <glyph glyph-name="twosuperior" unicode="&#xb2;" horiz-adv-x="614" 
d="M71 571c162.667 150 271.001 256.002 325.001 318.002c84.667 98 127 180.333 127 247c0 52.667 -12.167 90.167 -36.5 112.5s-52.5 33.5 -84.5 33.5c-44 0 -82 -12 -114 -36c-18.667 -14 -40.667 -37.667 -66 -71l-30 14c21.333 44 48.666 82.333 81.999 115
c59.333 59.333 128 89 206 89c74.667 0 130.167 -20.667 166.5 -62s54.5 -90 54.5 -146c0 -52 -19 -104.667 -57 -158c-21.333 -30 -54 -65.333 -98 -106c-42 -38.667 -100.5 -86.834 -175.5 -144.501s-115.833 -89.834 -122.5 -96.501h197c50.667 0 88.667 6 114 18
s49 39 71 81h36l-105 -237h-490v29z" />
    <glyph glyph-name="threesuperior" unicode="&#xb3;" horiz-adv-x="614" 
d="M117 675c15.333 12.667 33.3311 19.001 53.998 19.001c24 0 42 -4.83301 54 -14.5s30 -30.834 54 -63.501l14 -19c9.33301 -9.33301 17.833 -15.333 25.5 -18s18.167 -4 31.5 -4c34.667 0 67.5 17.833 98.5 53.5s46.5 89.5 46.5 161.5c0 56 -18 100.667 -54 134
s-86.667 50 -152 50l4 28c62 12.667 111.667 28.334 149 47.001c68.667 36 103 84.333 103 145c0 28.667 -10 54.5 -30 77.5s-47.333 34.5 -82 34.5c-35.333 0 -66.666 -9.66699 -93.999 -29c-17.333 -12 -39 -33.333 -65 -64l-28 14c18.667 34 46 67.667 82 101
c54 43.333 116.667 65 188 65c56 0 103.167 -14.833 141.5 -44.5s57.5 -70.834 57.5 -123.501c0 -47.333 -19 -89 -57 -125c-24 -22.667 -52.333 -41 -85 -55l-16 -7c34 -23.333 59.667 -49 77 -77s26 -61.333 26 -100c0 -103.333 -40.167 -185.5 -120.5 -246.5
s-170.166 -91.5 -269.499 -91.5c-62 0 -106.833 10.333 -134.5 31s-41.5 42 -41.5 64c0 25.333 7.66699 44.333 23 57z" />
    <glyph glyph-name="acute" unicode="&#xb4;" horiz-adv-x="682" 
d="M798 1329c-4.66699 -21.333 -14.667 -38.668 -30 -52.001s-38.333 -27.666 -69 -42.999l-348 -177h-100l306 268c50 44 88.667 73.333 116 88c16.667 8.66699 32.667 13 48 13c28.667 0 50.167 -9 64.5 -27s18.5 -41.333 12.5 -70z" />
    <glyph glyph-name="mu" unicode="&#xb5;" horiz-adv-x="1180" 
d="M-133 -368c52.667 0.666992 88.498 13.499 107.498 38.499s43.167 92.167 72.5 201.5l206 768c8.66699 32 14.834 58 18.501 78s5.5 37.333 5.5 52c0 26 -9.16699 42.833 -27.5 50.5s-47.166 12.167 -86.499 13.5v54c104.667 9.33301 185 17.333 241 24s118 17 186 31
l-192 -628c-11.333 -38 -19.5 -66.833 -24.5 -86.5s-7.5 -37.167 -7.5 -52.5c0 -16 4.83301 -28 14.5 -36s21.5 -12 35.5 -12c56.667 0 125.667 67.667 207 203c92 154 167.667 350 227 588h242l-83 -284l-90 -312c-25.333 -92 -38 -146.333 -38 -163
c0 -9.33301 2.33301 -18.333 7 -27s12.667 -13 24 -13c20 0 45.333 18 76 54c16.667 20 39.667 52.667 69 98l42 -26c-28.667 -54 -63 -103 -103 -147c-74 -80.667 -149.333 -121 -226 -121c-44.667 0 -78 10.667 -100 32s-33 52.333 -33 93
c0 12.667 2.16699 33.334 6.5 62.001s11.833 66.667 22.5 114h-12c-64.667 -95.333 -114 -159.333 -148 -192c-55.333 -52.667 -119 -82.667 -191 -90l-114 -419h-334v54z" />
    <glyph glyph-name="paragraph" unicode="&#xb6;" 
d="M-48 -280c-18 6 -33.3291 14.6641 -45.9961 25.9971c-17.333 14 -29.833 29.5 -37.5 46.5s-11.5 33.167 -11.5 48.5c0 20.667 5.33301 41 16 61c21.333 36 53 54 95 54c30 0 55 -9.83301 75 -29.5s30 -42.167 30 -67.5c0 -19.333 -3.83301 -37.5 -11.5 -54.5
s-20.5 -30.167 -38.5 -39.5c70.667 3.33301 130 57 178 161c30 64.667 59.333 162 88 292l83 376c-90 0 -162 12.333 -216 37c-100 46 -150 132.333 -150 259c0 103.333 25 189.333 75 258s108.333 121.334 175 158.001c53.333 29.333 108.166 47.333 164.499 54
s151.5 10 285.5 10l2 -15c-40.667 -31.333 -71.334 -68.666 -92.001 -111.999s-48.334 -137 -83.001 -281l-190 -785c-28.667 -119.333 -53 -200 -73 -242c-30 -65.333 -77.333 -121.333 -142 -168l4 -12c120 36 206.667 97 260 183s97 200.667 131 344l135 573
c44 186 81.333 312.333 112 379c50 108.667 115.333 163 196 163c41.333 0 74.833 -12 100.5 -36s38.5 -50 38.5 -78c0 -15.333 -1.66699 -27.666 -5 -36.999s-12.333 -27.333 -27 -54l-49 16c4.66699 8 8.66699 15.833 12 23.5s5 16.167 5 25.5
c0 13.333 -4.33301 23.333 -13 30s-19 10 -31 10c-31.333 0 -60 -33.333 -86 -100c-18 -44 -46 -139.667 -84 -287l-36 -138c-4.66699 -17.333 -7.83398 -30 -9.50098 -38s-6.16699 -27 -13.5 -57l-100 -433c-43.333 -188.667 -135 -332 -275 -430
c-106.667 -74.667 -215.667 -112 -327 -112c-45.333 0 -83.333 6 -114 18z" />
    <glyph glyph-name="periodcentered" unicode="&#xb7;" horiz-adv-x="512" 
d="M362 787c30 -30 45 -65.667 45 -107c0 -44 -14.833 -81.167 -44.5 -111.5s-66.167 -45.5 -109.5 -45.5s-79.833 15.167 -109.5 45.5s-44.5 66.833 -44.5 109.5s15.167 79 45.5 109s66.5 45 108.5 45c42.667 0 79 -15 109 -45z" />
    <glyph glyph-name="cedilla" unicode="&#xb8;" horiz-adv-x="682" 
d="M-114 -330c34 -15.333 61.168 -25.001 81.501 -29.001s40.166 -6 59.499 -6c44 0 73.833 8.5 89.5 25.5s23.5 36.833 23.5 59.5c0 18 -7.83301 34.667 -23.5 50s-41.834 23 -78.501 23c-12.667 0 -23.167 -0.666992 -31.5 -2s-17.833 -3.66602 -28.5 -6.99902l-26 26
l138 199h90l-93 -137l31.5 3c7 0.666992 14.5 1 22.5 1c50 0 93.167 -12.667 129.5 -38s54.5 -62.666 54.5 -111.999c0 -54 -25 -96.5 -75 -127.5s-110.667 -46.5 -182 -46.5c-47.333 0 -93.666 6 -138.999 18c-26.667 7.33301 -56 17.666 -88 30.999z" />
    <glyph glyph-name="onesuperior" unicode="&#xb9;" horiz-adv-x="614" 
d="M123 571c40.667 0 74.667 6.16602 102 18.499s46.333 36.833 57 73.5l170 571c2 7.33301 3.33301 13.833 4 19.5s1 10.167 1 13.5c0 14.667 -5 25.167 -15 31.5s-26 9.5 -48 9.5c-9.33301 0 -22.333 -1.16699 -39 -3.5s-31 -3.5 -43 -3.5l3 28l89 14
c37.333 6 70.666 11.667 99.999 17c22.667 4 50.334 9.33301 83.001 16s62 12.334 88 17.001l-206 -699c-5.33301 -18.667 -9.16602 -33.167 -11.499 -43.5s-3.5 -20.833 -3.5 -31.5c0 -22.667 16.667 -37.667 50 -45c19.333 -4 45.666 -5 78.999 -3v-29h-460v29z" />
    <glyph glyph-name="ordmasculine" unicode="&#xba;" horiz-adv-x="614" 
d="M295.5 884.5c11 -17.667 29.166 -26.5 54.499 -26.5c54.667 0 102.334 55.333 143.001 166s61 199 61 265c0 22 -4.16699 40.5 -12.5 55.5s-26.5 22.5 -54.5 22.5c-56.667 0 -105.5 -52.667 -146.5 -158s-61.5 -194 -61.5 -266c0 -21.333 5.5 -40.833 16.5 -58.5z
M619.999 1376c63.333 -32.667 95 -90.667 95 -174c0 -86.667 -36.667 -172 -110 -256s-164 -126 -272 -126c-60 0 -110.5 17.167 -151.5 51.5s-61.5 82.833 -61.5 145.5c0 92 37.333 179.333 112 262s165 124 271 124c43.333 0 82.333 -9 117 -27z" />
    <glyph glyph-name="guillemotright" unicode="&#xbb;" 
d="M597 452c-166 -115.333 -274.501 -191.998 -325.501 -229.998s-100.5 -78.333 -148.5 -121l-29 -26c-2.66699 -2.66699 -6 -4.83398 -10 -6.50098s-8.33301 -2.5 -13 -2.5c-7.33301 0 -14.166 2.5 -20.499 7.5s-9.5 11.5 -9.5 19.5c0 26.667 26.667 71.667 80 135
c34 40.667 107.333 120 220 238l-105 212c-18.667 42 -30.667 72.667 -36 92s-8 36.666 -8 51.999c0 12 3 19.667 9 23s12.667 5 20 5s12.833 -1.66699 16.5 -5s14.167 -15 31.5 -35c32.667 -38.667 65.667 -75.167 99 -109.5l229 -229.5v-19zM980.999 452.002
c-166 -115.333 -274.501 -191.998 -325.501 -229.998s-100.5 -78.333 -148.5 -121l-29 -26c-2.66699 -2.66699 -6 -4.83398 -10 -6.50098s-8.33301 -2.5 -13 -2.5c-7.33301 0 -14.166 2.5 -20.499 7.5s-9.5 11.5 -9.5 19.5c0 26.667 26.667 71.667 80 135
c34 40.667 107.333 120 220 238l-105 212c-18.667 42 -30.667 72.667 -36 92s-8 36.666 -8 51.999c0 12 3 19.667 9 23s12.667 5 20 5s12.833 -1.66699 16.5 -5s14.167 -15 31.5 -35c32.667 -38.667 65.667 -75.167 99 -109.5l229 -229.5v-19z" />
    <glyph glyph-name="onequarter" unicode="&#xbc;" horiz-adv-x="1536" 
d="M1268 644l-375 -341h270zM1244 0h-171l55 182h-327l40 128l567 526h85l-159 -533h92l-35 -121h-93zM286 -29l894 1422h118l-893 -1422h-119zM4 557l0.00195312 26.001c51.333 4 87.833 11 109.5 21s38.167 33.667 49.5 71l171 562c1.33301 4 2.33301 9 3 15s1 12 1 18
c0 15.333 -5.83301 25.5 -17.5 30.5s-26.167 7.5 -43.5 7.5c-15.333 0 -29.833 -0.666992 -43.5 -2s-26.834 -3 -39.501 -5l2 28l190 31c22.667 4 50.667 9.33301 84 16l87 17l-207 -687l-10 -39.5c-3.33301 -13.667 -5 -24.834 -5 -33.501c0 -22 9.66699 -35.667 29 -41
s52.666 -8.33301 99.999 -9v-26h-460z" />
    <glyph glyph-name="onehalf" unicode="&#xbd;" horiz-adv-x="1536" 
d="M1277 0l-491.002 -0.00195312v28c151.333 127.333 265 236.333 341 327s114 169.334 114 236.001c0 43.333 -12.167 76.833 -36.5 100.5s-54.5 35.5 -90.5 35.5c-45.333 0 -84.666 -13 -117.999 -39c-18 -14.667 -37.333 -37 -58 -67l-31 14
c29.333 56 68.833 104 118.5 144s106.167 60 169.5 60c66.667 0 120.334 -22 161.001 -66s61 -91.667 61 -143c0 -66 -33 -133.667 -99 -203s-184 -166.666 -354 -291.999h197c46.667 0 83.5 5.66699 110.5 17s51.833 38 74.5 80h35zM247.998 -29.002l894 1422h119
l-894 -1422h-119zM3.99805 556.998l0.00195312 26.001c51.333 4 87.833 11 109.5 21s38.167 33.667 49.5 71l171 562c1.33301 4 2.33301 9 3 15s1 12 1 18c0 15.333 -5.83301 25.5 -17.5 30.5s-26.167 7.5 -43.5 7.5c-15.333 0 -29.833 -0.666992 -43.5 -2
s-26.834 -3 -39.501 -5l2 28l190 31c22.667 4 50.667 9.33301 84 16l87 17l-207 -687l-10 -39.5c-3.33301 -13.667 -5 -24.834 -5 -33.501c0 -22 9.66699 -35.667 29 -41s52.666 -8.33301 99.999 -9v-26h-460z" />
    <glyph glyph-name="threequarters" unicode="&#xbe;" horiz-adv-x="1536" 
d="M324 -29l894 1422h118l-893 -1422h-119zM112 690.5c14.667 11.667 31.334 17.499 50.001 17.499c36 0 68.333 -19.833 97 -59.5s57.667 -59.5 87 -59.5c50 0 87.667 24 113 72c22.667 44 34 88.333 34 133c0 55.333 -18 100.333 -54 135s-87.667 52 -155 52l5 28
c70.667 16 123 33.333 157 52c62.667 33.333 94 79.333 94 138c0 29.333 -10.167 54.833 -30.5 76.5s-49.166 32.5 -86.499 32.5c-32 0 -62.333 -10.333 -91 -31c-16.667 -12 -37.334 -32.333 -62.001 -61l-29 16c34 49.333 73.667 88.5 119 117.5s95.333 43.5 150 43.5
c61.333 0 110.166 -16.167 146.499 -48.5s54.5 -71.166 54.5 -116.499s-17.667 -84.666 -53 -117.999c-21.333 -20 -56.666 -42.667 -105.999 -68c31.333 -19.333 56.666 -42.833 75.999 -70.5s29 -65.834 29 -114.501c0 -84.667 -39.333 -159 -118 -223s-169 -96 -271 -96
c-43.333 0 -83.833 8.33301 -121.5 25s-56.5 39.667 -56.5 69c0 27.333 7.33301 46.833 22 58.5zM1268 643.999l-375 -341h270zM1244 -0.000976562h-171l55 182h-327l40 128l567 526h85l-159 -533h92l-35 -121h-93z" />
    <glyph glyph-name="questiondown" unicode="&#xbf;" 
d="M603.5 748.5c-29.667 29.667 -44.5 65.167 -44.5 106.5c0 42 14.833 77.833 44.5 107.5s65.5 44.5 107.5 44.5c41.333 0 76.833 -14.833 106.5 -44.5s44.5 -65.5 44.5 -107.5c0 -41.333 -14.667 -76.833 -44 -106.5s-65 -44.5 -107 -44.5s-77.833 14.833 -107.5 44.5z
M169.5 -348.5c-72.333 51 -108.5 125.501 -108.5 223.501c0 78.667 31.667 151.667 95 219c35.333 38 90 80.667 164 128l137 88c36.667 24 67 52.167 91 84.5s49 84.833 75 157.5l59 -14c-6.66699 -52 -16.667 -95.667 -30 -131
c-22.667 -60.667 -61.667 -125.334 -117 -194.001l-83 -104c-53.333 -67.333 -88.333 -124.333 -105 -171s-25 -92.667 -25 -138c0 -54 14.333 -93.833 43 -119.5s62.667 -38.5 102 -38.5c31.333 0 59.666 8.16699 84.999 24.5s38 33.166 38 50.499c0 4 -0.5 8 -1.5 12
s-2.83301 7.33301 -5.5 10l-17 24c-14.667 20.667 -24.334 39 -29.001 55s-7 29 -7 39c0 32.667 11.333 61 34 85s53.667 36 93 36c38.667 0 68.834 -14.167 90.501 -42.5s32.5 -59.166 32.5 -92.499c0 -70.667 -33.167 -133 -99.5 -187s-151.833 -81 -256.5 -81
c-97.333 0 -182.166 25.5 -254.499 76.5z" />
    <glyph glyph-name="Agrave" unicode="&#xc0;" horiz-adv-x="1366" 
d="M739 507l-76 498l-303 -498h379zM-109 49c38 11.333 65.999 23.6699 83.999 37.0029c26.667 19.333 56.334 55.333 89.001 108l760 1204h53l196 -1171c13.333 -78.667 29.333 -126.834 48 -144.501s59.667 -28.834 123 -33.501v-49h-621v49
c58.667 4.66699 100.167 14.167 124.5 28.5s36.5 44.166 36.5 89.499c0 15.333 -3.66699 52 -11 110c-1.33301 12 -8 61.667 -20 149h-441l-120 -208c-8 -14 -15.167 -29.333 -21.5 -46s-9.5 -32.667 -9.5 -48c0 -28 8.5 -46 25.5 -54s52.5 -15 106.5 -21v-49h-402v49z
M970.999 1510l-92.002 -0.000976562l-234 182c-22.667 18 -37.167 34.833 -43.5 50.5s-8.16602 30.834 -5.49902 45.501c4.66699 20.667 17.334 41 38.001 61s46 30 76 30c24.667 0 44.167 -6.16699 58.5 -18.5s27.5 -28.833 39.5 -49.5z" />
    <glyph glyph-name="Aacute" unicode="&#xc1;" horiz-adv-x="1366" 
d="M739 507l-76 498l-303 -498h379zM-109 49c38 11.333 65.999 23.6699 83.999 37.0029c26.667 19.333 56.334 55.333 89.001 108l760 1204h53l196 -1171c13.333 -78.667 29.333 -126.834 48 -144.501s59.667 -28.834 123 -33.501v-49h-621v49
c58.667 4.66699 100.167 14.167 124.5 28.5s36.5 44.166 36.5 89.499c0 15.333 -3.66699 52 -11 110c-1.33301 12 -8 61.667 -20 149h-441l-120 -208c-8 -14 -15.167 -29.333 -21.5 -46s-9.5 -32.667 -9.5 -48c0 -28 8.5 -46 25.5 -54s52.5 -15 106.5 -21v-49h-402v49z
M1196 1782c-4.66699 -21.333 -14.667 -38.668 -30 -52.001s-38.333 -27.666 -69 -42.999l-348 -177h-100l306 268c50 44 88.667 73.333 116 88c16.667 8.66699 32.667 13 48 13c28.667 0 50.167 -9 64.5 -27s18.5 -41.333 12.5 -70z" />
    <glyph glyph-name="Acircumflex" unicode="&#xc2;" horiz-adv-x="1366" 
d="M739 507l-76 498l-303 -498h379zM-109 49c38 11.333 65.999 23.6699 83.999 37.0029c26.667 19.333 56.334 55.333 89.001 108l760 1204h53l196 -1171c13.333 -78.667 29.333 -126.834 48 -144.501s59.667 -28.834 123 -33.501v-49h-621v49
c58.667 4.66699 100.167 14.167 124.5 28.5s36.5 44.166 36.5 89.499c0 15.333 -3.66699 52 -11 110c-1.33301 12 -8 61.667 -20 149h-441l-120 -208c-8 -14 -15.167 -29.333 -21.5 -46s-9.5 -32.667 -9.5 -48c0 -28 8.5 -46 25.5 -54s52.5 -15 106.5 -21v-49h-402v49z
M1086 1510l-180 194l-271 -194h-116l327 355h166l178 -355h-104zM905.999 1398z" />
    <glyph glyph-name="Atilde" unicode="&#xc3;" horiz-adv-x="1366" 
d="M739 507l-76 498l-303 -498h379zM-109 49c38 11.333 65.999 23.6699 83.999 37.0029c26.667 19.333 56.334 55.333 89.001 108l760 1204h53l196 -1171c13.333 -78.667 29.333 -126.834 48 -144.501s59.667 -28.834 123 -33.501v-49h-621v49
c58.667 4.66699 100.167 14.167 124.5 28.5s36.5 44.166 36.5 89.499c0 15.333 -3.66699 52 -11 110c-1.33301 12 -8 61.667 -20 149h-441l-120 -208c-8 -14 -15.167 -29.333 -21.5 -46s-9.5 -32.667 -9.5 -48c0 -28 8.5 -46 25.5 -54s52.5 -15 106.5 -21v-49h-402v49z
M610.999 1719.5c38 49.667 93.002 74.5 165.002 74.5c38.667 0 94.5 -14.167 167.5 -42.5s118.833 -42.5 137.5 -42.5c29.333 0 53.666 10.333 72.999 31c10.667 10.667 22 28.667 34 54h83c-16 -75.333 -44.5 -134.833 -85.5 -178.5s-91.167 -65.5 -150.5 -65.5
c-12 0 -27.833 1.5 -47.5 4.5s-43.834 10.167 -72.501 21.5l-121 47c-14 5.33301 -26.833 9.5 -38.5 12.5s-23.5 4.5 -35.5 4.5c-30 0 -51.333 -7.16699 -64 -21.5s-25 -36.5 -37 -66.5h-83c12 62 37 117.833 75 167.5zM536.001 1398z" />
    <glyph glyph-name="Adieresis" unicode="&#xc4;" horiz-adv-x="1366" 
d="M739 507l-76 498l-303 -498h379zM-109 49c38 11.333 65.999 23.6699 83.999 37.0029c26.667 19.333 56.334 55.333 89.001 108l760 1204h53l196 -1171c13.333 -78.667 29.333 -126.834 48 -144.501s59.667 -28.834 123 -33.501v-49h-621v49
c58.667 4.66699 100.167 14.167 124.5 28.5s36.5 44.166 36.5 89.499c0 15.333 -3.66699 52 -11 110c-1.33301 12 -8 61.667 -20 149h-441l-120 -208c-8 -14 -15.167 -29.333 -21.5 -46s-9.5 -32.667 -9.5 -48c0 -28 8.5 -46 25.5 -54s52.5 -15 106.5 -21v-49h-402v49z
M548.999 1661c8 37.333 27.833 68.833 59.5 94.5s65.834 38.5 102.501 38.5s65.167 -13 85.5 -39s26.5 -57.333 18.5 -94c-7.33301 -36 -26.833 -67 -58.5 -93s-65.834 -39 -102.501 -39c-37.333 0 -66 13 -86 39s-26.333 57 -19 93zM1147 1794
c36.667 0 65.168 -13 85.501 -39s26.5 -57.333 18.5 -94c-7.33301 -36.667 -26.833 -67.834 -58.5 -93.501s-65.834 -38.5 -102.501 -38.5c-36 0 -64.333 12.833 -85 38.5s-27.334 56.834 -20.001 93.501c8 37.333 27.833 68.833 59.5 94.5s65.834 38.5 102.501 38.5z" />
    <glyph glyph-name="Aring" unicode="&#xc5;" horiz-adv-x="1366" 
d="M739 507l-76 498l-303 -498h379zM-109 49c38 11.333 65.999 23.6699 83.999 37.0029c26.667 19.333 56.334 55.333 89.001 108l760 1204h53l196 -1171c13.333 -78.667 29.333 -126.834 48 -144.501s59.667 -28.834 123 -33.501v-49h-621v49
c58.667 4.66699 100.167 14.167 124.5 28.5s36.5 44.166 36.5 89.499c0 15.333 -3.66699 52 -11 110c-1.33301 12 -8 61.667 -20 149h-441l-120 -208c-8 -14 -15.167 -29.333 -21.5 -46s-9.5 -32.667 -9.5 -48c0 -28 8.5 -46 25.5 -54s52.5 -15 106.5 -21v-49h-402v49z
M819.999 1627.5c23.333 -23 51.333 -34.5 84 -34.5s60.5 11.667 83.5 35s34.5 51.333 34.5 84s-11.5 60.5 -34.5 83.5s-50.833 34.5 -83.5 34.5s-60.667 -11.5 -84 -34.5s-35 -50.833 -35 -83.5c0 -33.333 11.667 -61.5 35 -84.5zM749.499 1866
c42.333 42.667 93.833 64 154.5 64c60 0 111.333 -21.333 154 -64s64 -94 64 -154c0 -60.667 -21.333 -112.167 -64 -154.5s-94 -63.5 -154 -63.5c-60.667 0 -112.167 21.167 -154.5 63.5s-63.5 93.833 -63.5 154.5c0 60 21.167 111.333 63.5 154zM903.999 1382z" />
    <glyph glyph-name="AE" unicode="&#xc6;" horiz-adv-x="1933" 
d="M507 602h355l188 682h-24zM-86 54c27.333 2 52.6689 12.667 76.002 32s59 60 107 122l749 967c10.667 14 20 28.667 28 44s12 29 12 41c0 23.333 -11.333 38.5 -34 45.5s-66.667 12.5 -132 16.5v48h1207l-93 -389l-50 9l-2 83c-2.66699 98.667 -50 165.667 -142 201
c-50 19.333 -118 29 -204 29c-36.667 0 -61.834 -4 -75.501 -12s-24.167 -25.333 -31.5 -52l-132 -481c114.667 -2 198.834 10.167 252.501 36.5s101.167 86.166 142.5 179.499l55 -7l-149 -560l-53 10c3.33301 24 5.5 42.667 6.5 56s1.5 25.333 1.5 36
c0 74 -18.5 120.833 -55.5 140.5s-109.5 33.834 -217.5 42.501l-130 -493c-2.66699 -11.333 -4.83398 -21.333 -6.50098 -30s-2.5 -17.334 -2.5 -26.001c0 -26 8.16699 -45 24.5 -57s42.5 -18 78.5 -18c158.667 0 278.667 27.333 360 82s158.333 140.334 231 257.001l52 -7
l-121 -400h-1079v49c55.333 7.33301 91.666 20 108.999 38s34 54.333 50 109l95 325h-393l-233 -320c-9.33301 -12 -17 -24.167 -23 -36.5s-9 -25.5 -9 -39.5c0 -28.667 13 -48.667 39 -60c16 -6.66699 47 -12.667 93 -18v-47h-401v54z" />
    <glyph glyph-name="Ccedilla" unicode="&#xc7;" horiz-adv-x="1366" 
d="M1090.5 1373c74.333 -20 118.834 -30.0029 133.501 -30.0029c21.333 0 37.333 5.33301 48 16s21 25.334 31 44.001h62l-104 -479l-64 12l3.5 50.5c0.333008 5 0.5 12.5 0.5 22.5c0 108 -25.333 188.333 -76 241s-115 79 -193 79c-158.667 0 -296.667 -105.333 -414 -316
c-105.333 -188 -158 -379.667 -158 -575c0 -142 32.5 -239.167 97.5 -291.5s135.833 -78.5 212.5 -78.5c100 0 194.333 33 283 99c48 36 96 84.333 144 145l62 -45c-70.667 -104 -154.667 -181.333 -252 -232s-196 -76 -296 -76c-14.667 0 -36.667 0.333008 -66 1l-60 -88
l31.5 3c7 0.666992 14.5 1 22.5 1c50 0 93.167 -12.667 129.5 -38s54.5 -62.666 54.5 -111.999c0 -54 -25 -96.5 -75 -127.5s-110.667 -46.5 -182 -46.5c-47.333 0 -93.666 6 -138.999 18c-26.667 7.33301 -56 17.666 -88 30.999l45 69c34 -15.333 61.167 -25 81.5 -29
s40.166 -6 59.499 -6c44 0 73.833 8.5 89.5 25.5s23.5 36.833 23.5 59.5c0 18 -7.83301 34.667 -23.5 50s-41.834 23 -78.501 23c-12.667 0 -23.167 -0.666992 -31.5 -2s-17.833 -3.66602 -28.5 -6.99902l-26 26l110 157c-118 11.333 -216.833 61 -296.5 149
s-119.5 212.667 -119.5 374c0 246.667 82 460.334 246 641.001c164 181.333 358.667 272 584 272c70 0 142.167 -10 216.5 -30z" />
    <glyph glyph-name="Egrave" unicode="&#xc8;" horiz-adv-x="1366" 
d="M-57 52c48.667 6 84.6689 18.0029 108.002 36.0029s42.666 55 57.999 111l251 919c6 23.333 11 44.5 15 63.5s6 35.167 6 48.5c0 34.667 -9.16699 56.5 -27.5 65.5s-58.833 16.167 -121.5 21.5v53h1104l-87 -389l-55 9c-1.33301 99.333 -17.333 169.666 -48 210.999
c-52 70 -157.333 105 -316 105c-54 0 -88.833 -6.5 -104.5 -19.5s-28.5 -37.5 -38.5 -73.5l-123 -455c143.333 3.33301 236.166 15 278.499 35s89.166 80.333 140.499 181l57 -7l-152 -560l-56 10c2.66699 19.333 4.5 36.166 5.5 50.499s1.5 26.166 1.5 35.499
c0 72.667 -20 122.334 -60 149.001s-118 40 -234 40l-135 -500c-3.33301 -12 -5.83301 -23.667 -7.5 -35s-2.5 -20.333 -2.5 -27c0 -18.667 7.33301 -34 22 -46s45.334 -18 92.001 -18c124 0 229.667 17.333 317 52c136 53.333 242 149.666 318 288.999l50 -9l-121 -398
h-1135v52zM995.002 1481l-92.002 -0.000976562l-234 182c-22.667 18 -37.167 34.833 -43.5 50.5s-8.16602 30.834 -5.49902 45.501c4.66699 20.667 17.334 41 38.001 61s46 30 76 30c24.667 0 44.167 -6.16699 58.5 -18.5s27.5 -28.833 39.5 -49.5z" />
    <glyph glyph-name="Eacute" unicode="&#xc9;" horiz-adv-x="1366" 
d="M-57 52c48.667 6 84.6689 18.0029 108.002 36.0029s42.666 55 57.999 111l251 919c6 23.333 11 44.5 15 63.5s6 35.167 6 48.5c0 34.667 -9.16699 56.5 -27.5 65.5s-58.833 16.167 -121.5 21.5v53h1104l-87 -389l-55 9c-1.33301 99.333 -17.333 169.666 -48 210.999
c-52 70 -157.333 105 -316 105c-54 0 -88.833 -6.5 -104.5 -19.5s-28.5 -37.5 -38.5 -73.5l-123 -455c143.333 3.33301 236.166 15 278.499 35s89.166 80.333 140.499 181l57 -7l-152 -560l-56 10c2.66699 19.333 4.5 36.166 5.5 50.499s1.5 26.166 1.5 35.499
c0 72.667 -20 122.334 -60 149.001s-118 40 -234 40l-135 -500c-3.33301 -12 -5.83301 -23.667 -7.5 -35s-2.5 -20.333 -2.5 -27c0 -18.667 7.33301 -34 22 -46s45.334 -18 92.001 -18c124 0 229.667 17.333 317 52c136 53.333 242 149.666 318 288.999l50 -9l-121 -398
h-1135v52zM1220 1753c-4.66699 -21.333 -14.667 -38.668 -30 -52.001s-38.333 -27.666 -69 -42.999l-348 -177h-100l306 268c50 44 88.667 73.333 116 88c16.667 8.66699 32.667 13 48 13c28.667 0 50.167 -9 64.5 -27s18.5 -41.333 12.5 -70z" />
    <glyph glyph-name="Ecircumflex" unicode="&#xca;" horiz-adv-x="1366" 
d="M-57 52c48.667 6 84.6689 18.0029 108.002 36.0029s42.666 55 57.999 111l251 919c6 23.333 11 44.5 15 63.5s6 35.167 6 48.5c0 34.667 -9.16699 56.5 -27.5 65.5s-58.833 16.167 -121.5 21.5v53h1104l-87 -389l-55 9c-1.33301 99.333 -17.333 169.666 -48 210.999
c-52 70 -157.333 105 -316 105c-54 0 -88.833 -6.5 -104.5 -19.5s-28.5 -37.5 -38.5 -73.5l-123 -455c143.333 3.33301 236.166 15 278.499 35s89.166 80.333 140.499 181l57 -7l-152 -560l-56 10c2.66699 19.333 4.5 36.166 5.5 50.499s1.5 26.166 1.5 35.499
c0 72.667 -20 122.334 -60 149.001s-118 40 -234 40l-135 -500c-3.33301 -12 -5.83301 -23.667 -7.5 -35s-2.5 -20.333 -2.5 -27c0 -18.667 7.33301 -34 22 -46s45.334 -18 92.001 -18c124 0 229.667 17.333 317 52c136 53.333 242 149.666 318 288.999l50 -9l-121 -398
h-1135v52zM1076 1481l-180 194l-271 -194h-116l327 355h166l178 -355h-104zM896.002 1369z" />
    <glyph glyph-name="Edieresis" unicode="&#xcb;" horiz-adv-x="1366" 
d="M-57 52c48.667 6 84.6689 18.0029 108.002 36.0029s42.666 55 57.999 111l251 919c6 23.333 11 44.5 15 63.5s6 35.167 6 48.5c0 34.667 -9.16699 56.5 -27.5 65.5s-58.833 16.167 -121.5 21.5v53h1104l-87 -389l-55 9c-1.33301 99.333 -17.333 169.666 -48 210.999
c-52 70 -157.333 105 -316 105c-54 0 -88.833 -6.5 -104.5 -19.5s-28.5 -37.5 -38.5 -73.5l-123 -455c143.333 3.33301 236.166 15 278.499 35s89.166 80.333 140.499 181l57 -7l-152 -560l-56 10c2.66699 19.333 4.5 36.166 5.5 50.499s1.5 26.166 1.5 35.499
c0 72.667 -20 122.334 -60 149.001s-118 40 -234 40l-135 -500c-3.33301 -12 -5.83301 -23.667 -7.5 -35s-2.5 -20.333 -2.5 -27c0 -18.667 7.33301 -34 22 -46s45.334 -18 92.001 -18c124 0 229.667 17.333 317 52c136 53.333 242 149.666 318 288.999l50 -9l-121 -398
h-1135v52zM539.002 1632c8 37.333 27.833 68.833 59.5 94.5s65.834 38.5 102.501 38.5s65.167 -13 85.5 -39s26.5 -57.333 18.5 -94c-7.33301 -36 -26.833 -67 -58.5 -93s-65.834 -39 -102.501 -39c-37.333 0 -66 13 -86 39s-26.333 57 -19 93zM1137 1765
c36.667 0 65.168 -13 85.501 -39s26.5 -57.333 18.5 -94c-7.33301 -36.667 -26.833 -67.834 -58.5 -93.501s-65.834 -38.5 -102.501 -38.5c-36 0 -64.333 12.833 -85 38.5s-27.334 56.834 -20.001 93.501c8 37.333 27.833 68.833 59.5 94.5s65.834 38.5 102.501 38.5z" />
    <glyph glyph-name="Igrave" unicode="&#xcc;" horiz-adv-x="797" 
d="M-48 52c48.667 6 84.666 17.999 107.999 35.999s42.666 55 57.999 111l251 919c7.33301 26 12.833 47.833 16.5 65.5s5.5 33.167 5.5 46.5c0 34.667 -9.66699 56.5 -29 65.5s-59.666 16.167 -120.999 21.5v53h609v-53c-50 -6.66699 -86.167 -18.667 -108.5 -36
s-41.166 -54.333 -56.499 -111l-252 -919l-16 -71c-1.33301 -6.66699 -2.5 -13.5 -3.5 -20.5s-1.5 -13.5 -1.5 -19.5c0 -34.667 9.33301 -56.667 28 -66s59 -16.666 121 -21.999v-52h-609v52zM719.999 1484l-92.002 -0.000976562l-234 182
c-22.667 18 -37.167 34.833 -43.5 50.5s-8.16602 30.834 -5.49902 45.501c4.66699 20.667 17.334 41 38.001 61s46 30 76 30c24.667 0 44.167 -6.16699 58.5 -18.5s27.5 -28.833 39.5 -49.5z" />
    <glyph glyph-name="Iacute" unicode="&#xcd;" horiz-adv-x="797" 
d="M-48 52c48.667 6 84.666 17.999 107.999 35.999s42.666 55 57.999 111l251 919c7.33301 26 12.833 47.833 16.5 65.5s5.5 33.167 5.5 46.5c0 34.667 -9.66699 56.5 -29 65.5s-59.666 16.167 -120.999 21.5v53h609v-53c-50 -6.66699 -86.167 -18.667 -108.5 -36
s-41.166 -54.333 -56.499 -111l-252 -919l-16 -71c-1.33301 -6.66699 -2.5 -13.5 -3.5 -20.5s-1.5 -13.5 -1.5 -19.5c0 -34.667 9.33301 -56.667 28 -66s59 -16.666 121 -21.999v-52h-609v52zM944.999 1756c-4.66699 -21.333 -14.667 -38.668 -30 -52.001
s-38.333 -27.666 -69 -42.999l-348 -177h-100l306 268c50 44 88.667 73.333 116 88c16.667 8.66699 32.667 13 48 13c28.667 0 50.167 -9 64.5 -27s18.5 -41.333 12.5 -70z" />
    <glyph glyph-name="Icircumflex" unicode="&#xce;" horiz-adv-x="797" 
d="M-48 52c48.667 6 84.666 17.999 107.999 35.999s42.666 55 57.999 111l251 919c7.33301 26 12.833 47.833 16.5 65.5s5.5 33.167 5.5 46.5c0 34.667 -9.66699 56.5 -29 65.5s-59.666 16.167 -120.999 21.5v53h609v-53c-50 -6.66699 -86.167 -18.667 -108.5 -36
s-41.166 -54.333 -56.499 -111l-252 -919l-16 -71c-1.33301 -6.66699 -2.5 -13.5 -3.5 -20.5s-1.5 -13.5 -1.5 -19.5c0 -34.667 9.33301 -56.667 28 -66s59 -16.666 121 -21.999v-52h-609v52zM800.999 1484l-180 194l-271 -194h-116l327 355h166l178 -355h-104z
M620.999 1372z" />
    <glyph glyph-name="Idieresis" unicode="&#xcf;" horiz-adv-x="797" 
d="M-48 52c48.667 6 84.666 17.999 107.999 35.999s42.666 55 57.999 111l251 919c7.33301 26 12.833 47.833 16.5 65.5s5.5 33.167 5.5 46.5c0 34.667 -9.66699 56.5 -29 65.5s-59.666 16.167 -120.999 21.5v53h609v-53c-50 -6.66699 -86.167 -18.667 -108.5 -36
s-41.166 -54.333 -56.499 -111l-252 -919l-16 -71c-1.33301 -6.66699 -2.5 -13.5 -3.5 -20.5s-1.5 -13.5 -1.5 -19.5c0 -34.667 9.33301 -56.667 28 -66s59 -16.666 121 -21.999v-52h-609v52zM263.999 1635c8 37.333 27.833 68.833 59.5 94.5s65.834 38.5 102.501 38.5
s65.167 -13 85.5 -39s26.5 -57.333 18.5 -94c-7.33301 -36 -26.833 -67 -58.5 -93s-65.834 -39 -102.501 -39c-37.333 0 -66 13 -86 39s-26.333 57 -19 93zM861.999 1768c36.667 0 65.168 -13 85.501 -39s26.5 -57.333 18.5 -94
c-7.33301 -36.667 -26.833 -67.834 -58.5 -93.501s-65.834 -38.5 -102.501 -38.5c-36 0 -64.333 12.833 -85 38.5s-27.334 56.834 -20.001 93.501c8 37.333 27.833 68.833 59.5 94.5s65.834 38.5 102.501 38.5z" />
    <glyph glyph-name="Eth" unicode="&#xd0;" horiz-adv-x="1479" 
d="M-67 52c44 5.33301 75.667 14.333 95 27c32 21.333 55.667 61.333 71 120l130 490h-220l26 93h221l94 336c6.66699 24.667 12 46 16 64s6 34 6 48c0 34.667 -9.66699 56.5 -29 65.5s-59.666 16.167 -120.999 21.5v53h595c201.333 0 354.5 -51.5 459.5 -154.5
s157.5 -241.167 157.5 -414.5c0 -208.667 -77.667 -390 -233 -544c-172.667 -171.333 -399.334 -257 -680.001 -257h-588v52zM1082 1168c-53.333 92 -145.667 138 -277 138c-44.667 0 -74.667 -7.16699 -90 -21.5s-26.333 -33.5 -33 -57.5l-121 -445h342l-26 -93h-339
l-138 -497c-2.66699 -9.33301 -4.5 -18 -5.5 -26s-1.5 -15.333 -1.5 -22c0 -26 8.33301 -45.167 25 -57.5s46 -18.5 88 -18.5c243.333 0 419.333 125.333 528 376c66 152 99 312.667 99 482c0 101.333 -17 182 -51 242z" />
    <glyph glyph-name="Ntilde" unicode="&#xd1;" horiz-adv-x="1479" 
d="M-57 52c53.333 7.33301 91.667 28 115 62s54.333 117.667 93 251l244 841l-9 21c-15.333 36.667 -36.333 61 -63 73c-17.333 8 -49.333 13.667 -96 17v53h398l444 -951l161 583c10 36 18 68 24 96c9.33301 42.667 14 73.667 14 93c0 50 -17.333 84.333 -52 103
c-21.333 11.333 -58.666 19 -111.999 23v53h427v-53l-29 -4c-42 -6 -74.333 -29.5 -97 -70.5s-50.334 -120.167 -83.001 -237.5l-291 -1039h-60l-523 1133l-204 -734c-16.667 -60.667 -27.667 -106 -33 -136c-3.33301 -18.667 -5 -37 -5 -55c0 -48 18 -81.333 54 -100
c20.667 -10.667 57 -18 109 -22v-52h-426v52zM658.001 1693.5c38 49.667 93.002 74.5 165.002 74.5c38.667 0 94.5 -14.167 167.5 -42.5s118.833 -42.5 137.5 -42.5c29.333 0 53.666 10.333 72.999 31c10.667 10.667 22 28.667 34 54h83
c-16 -75.333 -44.5 -134.833 -85.5 -178.5s-91.167 -65.5 -150.5 -65.5c-12 0 -27.833 1.5 -47.5 4.5s-43.834 10.167 -72.501 21.5l-121 47c-14 5.33301 -26.833 9.5 -38.5 12.5s-23.5 4.5 -35.5 4.5c-30 0 -51.333 -7.16699 -64 -21.5s-25 -36.5 -37 -66.5h-83
c12 62 37 117.833 75 167.5zM583.003 1372z" />
    <glyph glyph-name="Ograve" unicode="&#xd2;" horiz-adv-x="1479" 
d="M310 1089c178.667 209.333 378.667 314.001 600 314.001c147.333 0 268.333 -44.333 363 -133s142 -208.667 142 -360c0 -220.667 -83.667 -430.334 -251 -629.001c-178.667 -212.667 -384 -319 -616 -319c-146 0 -264.833 44.5 -356.5 133.5
s-137.5 207.833 -137.5 356.5c0 224 85.333 436.333 256 637zM373 156.001c32.667 -82 92 -123 178 -123c80.667 0 154 29.833 220 89.5s134.333 173.5 205 341.5c44.667 106 79.667 217.667 105 335s38 212.333 38 285c0 68.667 -17 127.5 -51 176.5s-87 73.5 -159 73.5
c-170 0 -313 -151 -429 -453c-88 -229.333 -132 -420.333 -132 -573c0 -59.333 8.33301 -110 25 -152zM1090 1517l-92.002 -0.000976562l-234 182c-22.667 18 -37.167 34.833 -43.5 50.5s-8.16602 30.834 -5.49902 45.501c4.66699 20.667 17.334 41 38.001 61s46 30 76 30
c24.667 0 44.167 -6.16699 58.5 -18.5s27.5 -28.833 39.5 -49.5z" />
    <glyph glyph-name="Oacute" unicode="&#xd3;" horiz-adv-x="1479" 
d="M310 1089c178.667 209.333 378.667 314.001 600 314.001c147.333 0 268.333 -44.333 363 -133s142 -208.667 142 -360c0 -220.667 -83.667 -430.334 -251 -629.001c-178.667 -212.667 -384 -319 -616 -319c-146 0 -264.833 44.5 -356.5 133.5
s-137.5 207.833 -137.5 356.5c0 224 85.333 436.333 256 637zM373 156.001c32.667 -82 92 -123 178 -123c80.667 0 154 29.833 220 89.5s134.333 173.5 205 341.5c44.667 106 79.667 217.667 105 335s38 212.333 38 285c0 68.667 -17 127.5 -51 176.5s-87 73.5 -159 73.5
c-170 0 -313 -151 -429 -453c-88 -229.333 -132 -420.333 -132 -573c0 -59.333 8.33301 -110 25 -152zM1315 1789c-4.66699 -21.333 -14.667 -38.668 -30 -52.001s-38.333 -27.666 -69 -42.999l-348 -177h-100l306 268c50 44 88.667 73.333 116 88
c16.667 8.66699 32.667 13 48 13c28.667 0 50.167 -9 64.5 -27s18.5 -41.333 12.5 -70z" />
    <glyph glyph-name="Ocircumflex" unicode="&#xd4;" horiz-adv-x="1479" 
d="M310 1089c178.667 209.333 378.667 314.001 600 314.001c147.333 0 268.333 -44.333 363 -133s142 -208.667 142 -360c0 -220.667 -83.667 -430.334 -251 -629.001c-178.667 -212.667 -384 -319 -616 -319c-146 0 -264.833 44.5 -356.5 133.5
s-137.5 207.833 -137.5 356.5c0 224 85.333 436.333 256 637zM373 156.001c32.667 -82 92 -123 178 -123c80.667 0 154 29.833 220 89.5s134.333 173.5 205 341.5c44.667 106 79.667 217.667 105 335s38 212.333 38 285c0 68.667 -17 127.5 -51 176.5s-87 73.5 -159 73.5
c-170 0 -313 -151 -429 -453c-88 -229.333 -132 -420.333 -132 -573c0 -59.333 8.33301 -110 25 -152zM1171 1517l-180 194l-271 -194h-116l327 355h166l178 -355h-104zM991 1405z" />
    <glyph glyph-name="Otilde" unicode="&#xd5;" horiz-adv-x="1479" 
d="M310 1089c178.667 209.333 378.667 314.001 600 314.001c147.333 0 268.333 -44.333 363 -133s142 -208.667 142 -360c0 -220.667 -83.667 -430.334 -251 -629.001c-178.667 -212.667 -384 -319 -616 -319c-146 0 -264.833 44.5 -356.5 133.5
s-137.5 207.833 -137.5 356.5c0 224 85.333 436.333 256 637zM373 156.001c32.667 -82 92 -123 178 -123c80.667 0 154 29.833 220 89.5s134.333 173.5 205 341.5c44.667 106 79.667 217.667 105 335s38 212.333 38 285c0 68.667 -17 127.5 -51 176.5s-87 73.5 -159 73.5
c-170 0 -313 -151 -429 -453c-88 -229.333 -132 -420.333 -132 -573c0 -59.333 8.33301 -110 25 -152zM696 1726.5c38 49.667 93.002 74.5 165.002 74.5c38.667 0 94.5 -14.167 167.5 -42.5s118.833 -42.5 137.5 -42.5c29.333 0 53.666 10.333 72.999 31
c10.667 10.667 22 28.667 34 54h83c-16 -75.333 -44.5 -134.833 -85.5 -178.5s-91.167 -65.5 -150.5 -65.5c-12 0 -27.833 1.5 -47.5 4.5s-43.834 10.167 -72.501 21.5l-121 47c-14 5.33301 -26.833 9.5 -38.5 12.5s-23.5 4.5 -35.5 4.5c-30 0 -51.333 -7.16699 -64 -21.5
s-25 -36.5 -37 -66.5h-83c12 62 37 117.833 75 167.5zM621.002 1405z" />
    <glyph glyph-name="Odieresis" unicode="&#xd6;" horiz-adv-x="1479" 
d="M310 1089c178.667 209.333 378.667 314.001 600 314.001c147.333 0 268.333 -44.333 363 -133s142 -208.667 142 -360c0 -220.667 -83.667 -430.334 -251 -629.001c-178.667 -212.667 -384 -319 -616 -319c-146 0 -264.833 44.5 -356.5 133.5
s-137.5 207.833 -137.5 356.5c0 224 85.333 436.333 256 637zM373 156.001c32.667 -82 92 -123 178 -123c80.667 0 154 29.833 220 89.5s134.333 173.5 205 341.5c44.667 106 79.667 217.667 105 335s38 212.333 38 285c0 68.667 -17 127.5 -51 176.5s-87 73.5 -159 73.5
c-170 0 -313 -151 -429 -453c-88 -229.333 -132 -420.333 -132 -573c0 -59.333 8.33301 -110 25 -152zM634 1668c8 37.333 27.833 68.833 59.5 94.5s65.834 38.5 102.501 38.5s65.167 -13 85.5 -39s26.5 -57.333 18.5 -94c-7.33301 -36 -26.833 -67 -58.5 -93
s-65.834 -39 -102.501 -39c-37.333 0 -66 13 -86 39s-26.333 57 -19 93zM1232 1801c36.667 0 65.168 -13 85.501 -39s26.5 -57.333 18.5 -94c-7.33301 -36.667 -26.833 -67.834 -58.5 -93.501s-65.834 -38.5 -102.501 -38.5c-36 0 -64.333 12.833 -85 38.5
s-27.334 56.834 -20.001 93.501c8 37.333 27.833 68.833 59.5 94.5s65.834 38.5 102.501 38.5z" />
    <glyph glyph-name="multiply" unicode="&#xd7;" horiz-adv-x="1167" 
d="M315 1035l295 -377l457 377l103 -130l-455 -377l294 -377l-157 -130l-298 374l-454 -374l-105 130l457 377l-297 377z" />
    <glyph glyph-name="Oslash" unicode="&#xd8;" horiz-adv-x="1479" 
d="M353.5 229.5c3.66699 -20.333 9.83398 -46.5 18.501 -78.5l666 1140c-8 8.66699 -23.5 18 -46.5 28s-48.167 15 -75.5 15c-82 0 -153.833 -28.167 -215.5 -84.5s-124.834 -155.833 -189.501 -298.5c-53.333 -117.333 -93.833 -239.333 -121.5 -366s-41.5 -219 -41.5 -277
c0 -32 1.83301 -58.167 5.5 -78.5zM495 40.5c14 -5 33.001 -7.49902 57.001 -7.49902c79.333 0 150.166 27.833 212.499 83.5s125.833 155.5 190.5 299.5c56 124.667 97.167 249.167 123.5 373.5s39.5 214.166 39.5 269.499c0 34 -1.66699 59.833 -5 77.5
s-10.333 44.167 -21 79.5l-661 -1143c28.667 -16.667 50 -27.5 64 -32.5zM310.001 1089c178.667 209.333 378.667 314.001 600 314.001c25.333 0 53.5 -1.83301 84.5 -5.5s62.167 -10.5 93.5 -20.5l109 187h99l-128 -220c63.333 -35.333 113.333 -76.333 150 -123
c64.667 -82.667 97 -186.334 97 -311.001c0 -220.667 -84 -430.667 -252 -630c-178.667 -212 -383.667 -318 -615 -318c-46.667 0 -88.667 4 -126 12c-37.333 7.33301 -53.333 11 -48 11l-142 -244h-100l164 280c-72 36.667 -130.333 91.5 -175 164.5s-67 161.833 -67 266.5
c0 224 85.333 436.333 256 637z" />
    <glyph glyph-name="Ugrave" unicode="&#xd9;" horiz-adv-x="1479" 
d="M329 1118c6 22.667 11 44.001 15 64.001s6 37.333 6 52c0 32.667 -9.33301 53.334 -28 62.001s-59 15.667 -121 21v53h635v-53c-62 -6 -105.167 -16.667 -129.5 -32s-45.166 -53.666 -62.499 -114.999l-168 -613c-15.333 -54.667 -27 -99.334 -35 -134.001
c-14 -62 -21 -107.667 -21 -137c0 -67.333 22.5 -118.833 67.5 -154.5s106.167 -53.5 183.5 -53.5c129.333 0 230.666 56.333 303.999 169c43.333 65.333 86.333 175.666 129 330.999l119 427c15.333 62 22.333 89 21 81c11.333 50.667 17 87 17 109
c0 48 -18 81.333 -54 100c-21.333 10.667 -58 18 -110 22v53h427v-53c-52 -6 -90.167 -25.833 -114.5 -59.5s-55.833 -117.834 -94.5 -252.501l-135 -467c-54 -186 -109 -315.667 -165 -389c-96 -124.667 -237 -187 -423 -187c-128 0 -236 30.833 -324 92.5
s-132 147.5 -132 257.5c0 40.667 5.33301 87 16 139c6.66699 31.333 20.667 86.333 42 165zM1076 1484l-92.002 -0.000976562l-234 182c-22.667 18 -37.167 34.833 -43.5 50.5s-8.16602 30.834 -5.49902 45.501c4.66699 20.667 17.334 41 38.001 61s46 30 76 30
c24.667 0 44.167 -6.16699 58.5 -18.5s27.5 -28.833 39.5 -49.5z" />
    <glyph glyph-name="Uacute" unicode="&#xda;" horiz-adv-x="1479" 
d="M329 1118c6 22.667 11 44.001 15 64.001s6 37.333 6 52c0 32.667 -9.33301 53.334 -28 62.001s-59 15.667 -121 21v53h635v-53c-62 -6 -105.167 -16.667 -129.5 -32s-45.166 -53.666 -62.499 -114.999l-168 -613c-15.333 -54.667 -27 -99.334 -35 -134.001
c-14 -62 -21 -107.667 -21 -137c0 -67.333 22.5 -118.833 67.5 -154.5s106.167 -53.5 183.5 -53.5c129.333 0 230.666 56.333 303.999 169c43.333 65.333 86.333 175.666 129 330.999l119 427c15.333 62 22.333 89 21 81c11.333 50.667 17 87 17 109
c0 48 -18 81.333 -54 100c-21.333 10.667 -58 18 -110 22v53h427v-53c-52 -6 -90.167 -25.833 -114.5 -59.5s-55.833 -117.834 -94.5 -252.501l-135 -467c-54 -186 -109 -315.667 -165 -389c-96 -124.667 -237 -187 -423 -187c-128 0 -236 30.833 -324 92.5
s-132 147.5 -132 257.5c0 40.667 5.33301 87 16 139c6.66699 31.333 20.667 86.333 42 165zM1301 1756c-4.66699 -21.333 -14.667 -38.668 -30 -52.001s-38.333 -27.666 -69 -42.999l-348 -177h-100l306 268c50 44 88.667 73.333 116 88c16.667 8.66699 32.667 13 48 13
c28.667 0 50.167 -9 64.5 -27s18.5 -41.333 12.5 -70z" />
    <glyph glyph-name="Ucircumflex" unicode="&#xdb;" horiz-adv-x="1479" 
d="M329 1118c6 22.667 11 44.001 15 64.001s6 37.333 6 52c0 32.667 -9.33301 53.334 -28 62.001s-59 15.667 -121 21v53h635v-53c-62 -6 -105.167 -16.667 -129.5 -32s-45.166 -53.666 -62.499 -114.999l-168 -613c-15.333 -54.667 -27 -99.334 -35 -134.001
c-14 -62 -21 -107.667 -21 -137c0 -67.333 22.5 -118.833 67.5 -154.5s106.167 -53.5 183.5 -53.5c129.333 0 230.666 56.333 303.999 169c43.333 65.333 86.333 175.666 129 330.999l119 427c15.333 62 22.333 89 21 81c11.333 50.667 17 87 17 109
c0 48 -18 81.333 -54 100c-21.333 10.667 -58 18 -110 22v53h427v-53c-52 -6 -90.167 -25.833 -114.5 -59.5s-55.833 -117.834 -94.5 -252.501l-135 -467c-54 -186 -109 -315.667 -165 -389c-96 -124.667 -237 -187 -423 -187c-128 0 -236 30.833 -324 92.5
s-132 147.5 -132 257.5c0 40.667 5.33301 87 16 139c6.66699 31.333 20.667 86.333 42 165zM1157 1484l-180 194l-271 -194h-116l327 355h166l178 -355h-104zM977 1372z" />
    <glyph glyph-name="Udieresis" unicode="&#xdc;" horiz-adv-x="1479" 
d="M329 1118c6 22.667 11 44.001 15 64.001s6 37.333 6 52c0 32.667 -9.33301 53.334 -28 62.001s-59 15.667 -121 21v53h635v-53c-62 -6 -105.167 -16.667 -129.5 -32s-45.166 -53.666 -62.499 -114.999l-168 -613c-15.333 -54.667 -27 -99.334 -35 -134.001
c-14 -62 -21 -107.667 -21 -137c0 -67.333 22.5 -118.833 67.5 -154.5s106.167 -53.5 183.5 -53.5c129.333 0 230.666 56.333 303.999 169c43.333 65.333 86.333 175.666 129 330.999l119 427c15.333 62 22.333 89 21 81c11.333 50.667 17 87 17 109
c0 48 -18 81.333 -54 100c-21.333 10.667 -58 18 -110 22v53h427v-53c-52 -6 -90.167 -25.833 -114.5 -59.5s-55.833 -117.834 -94.5 -252.501l-135 -467c-54 -186 -109 -315.667 -165 -389c-96 -124.667 -237 -187 -423 -187c-128 0 -236 30.833 -324 92.5
s-132 147.5 -132 257.5c0 40.667 5.33301 87 16 139c6.66699 31.333 20.667 86.333 42 165zM620 1635c8 37.333 27.833 68.833 59.5 94.5s65.834 38.5 102.501 38.5s65.167 -13 85.5 -39s26.5 -57.333 18.5 -94c-7.33301 -36 -26.833 -67 -58.5 -93
s-65.834 -39 -102.501 -39c-37.333 0 -66 13 -86 39s-26.333 57 -19 93zM1218 1768c36.667 0 65.168 -13 85.501 -39s26.5 -57.333 18.5 -94c-7.33301 -36.667 -26.833 -67.834 -58.5 -93.501s-65.834 -38.5 -102.501 -38.5c-36 0 -64.333 12.833 -85 38.5
s-27.334 56.834 -20.001 93.501c8 37.333 27.833 68.833 59.5 94.5s65.834 38.5 102.501 38.5z" />
    <glyph glyph-name="Yacute" unicode="&#xdd;" horiz-adv-x="1251" 
d="M94 52c66 5.33301 110.001 14.3359 132.001 27.0029c33.333 18.667 58.333 58.667 75 120l123 441l-180 549c-16.667 50.667 -33.834 84.167 -51.501 100.5s-50.5 25.5 -98.5 27.5v53h579v-50c-50 -2 -86.167 -7.33301 -108.5 -16s-33.5 -28.334 -33.5 -59.001
c0 -8.66699 1.16699 -19.667 3.5 -33s5.83301 -27.333 10.5 -42l142 -450l265 382c14 20 25.333 38.333 34 55c13.333 28 20 53.667 20 77c0 35.333 -15 59.333 -45 72c-18 7.33301 -49.333 12 -94 14v50h427v-50c-29.333 -4.66699 -55.333 -14.334 -78 -29.001
c-36 -22.667 -72.667 -60.334 -110 -113.001l-388 -548l-102 -379c-4.66699 -15.333 -9.5 -34.833 -14.5 -58.5s-7.5 -40.5 -7.5 -50.5c0 -36.667 13.667 -61 41 -73c18 -8 57.333 -13.667 118 -17v-52h-659v52zM1139 1756c-4.66699 -21.333 -14.667 -38.668 -30 -52.001
s-38.333 -27.666 -69 -42.999l-348 -177h-100l306 268c50 44 88.667 73.333 116 88c16.667 8.66699 32.667 13 48 13c28.667 0 50.167 -9 64.5 -27s18.5 -41.333 12.5 -70z" />
    <glyph glyph-name="Thorn" unicode="&#xde;" horiz-adv-x="1251" 
d="M841 895c-24.667 50.667 -71 76 -139 76c-32.667 0 -56.5 -2.5 -71.5 -7.5s-26.833 -24.833 -35.5 -59.5l-138 -497h95c110 0 189.167 37.333 237.5 112s72.5 160.667 72.5 258c0 50 -7 89.333 -21 118zM820 1360v-51.999c-58 -8.66699 -97 -26.5 -117 -53.5
s-38.333 -75.5 -55 -145.5l-18 -69h183c120 0 208 -32 264 -96s84 -136.667 84 -218c0 -78 -19.667 -143.667 -59 -197s-87.333 -95 -144 -125c-52 -27.333 -112.333 -45.666 -181 -54.999c-40.667 -5.33301 -93.667 -8 -159 -8h-178c-10 -33.333 -20.667 -73 -32 -119
s-17 -76.667 -17 -92c0 -30.667 17.667 -52.667 53 -66c20.667 -8 51 -13.667 91 -17v-47h-592v47c59.333 9.33301 97.5 27.166 114.5 53.499s45.833 112.833 86.5 259.5l216 787c2.66699 8.66699 5.66699 21.167 9 37.5s5 29.5 5 39.5c0 34 -13 56.667 -39 68
c-17.333 7.33301 -53.333 12.666 -108 15.999v52h593z" />
    <glyph glyph-name="germandbls" unicode="&#xdf;" 
d="M-173 -172.5c17.333 -18.333 26.002 -40.501 26.002 -66.501c0 -9.33301 -1.33301 -19 -4 -29s-7 -18.667 -13 -26l-12 -15c-2 -2.66699 -3.66699 -5.33398 -5 -8.00098s-2 -5.66699 -2 -9c0 -10 4.5 -16.333 13.5 -19s18.5 -4 28.5 -4c22 0 42.5 9.5 61.5 28.5
s36.5 47.167 52.5 84.5c17.333 40.667 35.666 105 54.999 193l190 867c41.333 188 102 338.333 182 451c79.333 112 187 168 323 168c96 0 171 -25.667 225 -77s81 -113 81 -185c0 -104.667 -49.333 -191.667 -148 -261c-54.667 -38 -127.334 -71.333 -218.001 -100v-5
c100.667 -20 174 -54.5 220 -103.5s69 -116.5 69 -202.5c0 -131.333 -46.5 -252 -139.5 -362s-193.833 -165 -302.5 -165c-29.333 0 -57.833 4 -85.5 12s-51.5 20 -71.5 36l40 71l7 -9c8 -10 20.333 -18.833 37 -26.5s32.667 -11.5 48 -11.5
c70.667 0 125.167 69.833 163.5 209.5s57.5 251.5 57.5 335.5c0 76.667 -13.333 127.334 -40 152.001c-17.333 16 -54.666 27.667 -111.999 35l14 76l34 -2c68 -4 118.5 41.333 151.5 136s49.5 181.334 49.5 260.001c0 34.667 -6.83301 64.167 -20.5 88.5
s-39.167 36.5 -76.5 36.5c-40 0 -72.667 -16 -98 -48c-39.333 -50 -75.333 -147 -108 -291l-188 -834c-44.667 -199.333 -104.334 -352.333 -179.001 -459c-74.667 -107.333 -170.667 -161 -288 -161c-56 0 -102.667 14.667 -140 44s-56 66 -56 110
c0 35.333 9.83301 63 29.5 83s46.834 30 81.501 30c27.333 0 49.666 -9.16699 66.999 -27.5z" />
    <glyph glyph-name="agrave" unicode="&#xe0;" 
d="M672 813c-12.667 30.667 -36.333 45.999 -71 45.999c-74 0 -150 -87.667 -228 -263c-68.667 -155.333 -103 -274.333 -103 -357c0 -32.667 8.16699 -61 24.5 -85s37.833 -36 64.5 -36c68 -0.666992 145 89.333 231 270c61.333 151.333 92 271.333 92 360
c0 26.667 -3.33301 48.334 -10 65.001zM198.001 701.999c124 162 249.998 243.003 377.998 243.003c52 0 90.333 -15.333 115 -46c14.667 -18.667 27.667 -50 39 -94l35 109l228 15l-145 -479c-20.667 -68 -35.334 -120 -44.001 -156c-18 -68.667 -27 -117.667 -27 -147
c0 -12 2.66699 -20.333 8 -25s11.333 -7 18 -7c12 0 23.667 4.5 35 13.5s24 21.833 38 38.5c6.66699 7.33301 18 21.166 34 41.499l40 51.5l43 -31c-55.333 -81.333 -108.166 -145 -158.499 -191s-101.166 -69 -152.499 -69c-31.333 0 -61.666 11.667 -90.999 35
s-44 57.666 -44 102.999c0 17.333 8.66699 59.666 26 126.999c2.66699 2.66699 0.166992 -2 -7.5 -14l-35.5 -53c-36 -54.667 -78.5 -101 -127.5 -139s-103.5 -57 -163.5 -57c-54 0 -104.333 20.333 -151 61s-70 109.667 -70 207c0 150.667 60 305 180 463zM799.999 1057
l-92.002 -0.000976562l-234 182c-22.667 18 -37.167 34.833 -43.5 50.5s-8.16602 30.834 -5.49902 45.501c4.66699 20.667 17.334 41 38.001 61s46 30 76 30c24.667 0 44.167 -6.16699 58.5 -18.5s27.5 -28.833 39.5 -49.5z" />
    <glyph glyph-name="aacute" unicode="&#xe1;" 
d="M672 813c-12.667 30.667 -36.333 45.999 -71 45.999c-74 0 -150 -87.667 -228 -263c-68.667 -155.333 -103 -274.333 -103 -357c0 -32.667 8.16699 -61 24.5 -85s37.833 -36 64.5 -36c68 -0.666992 145 89.333 231 270c61.333 151.333 92 271.333 92 360
c0 26.667 -3.33301 48.334 -10 65.001zM198.001 701.999c124 162 249.998 243.003 377.998 243.003c52 0 90.333 -15.333 115 -46c14.667 -18.667 27.667 -50 39 -94l35 109l228 15l-145 -479c-20.667 -68 -35.334 -120 -44.001 -156c-18 -68.667 -27 -117.667 -27 -147
c0 -12 2.66699 -20.333 8 -25s11.333 -7 18 -7c12 0 23.667 4.5 35 13.5s24 21.833 38 38.5c6.66699 7.33301 18 21.166 34 41.499l40 51.5l43 -31c-55.333 -81.333 -108.166 -145 -158.499 -191s-101.166 -69 -152.499 -69c-31.333 0 -61.666 11.667 -90.999 35
s-44 57.666 -44 102.999c0 17.333 8.66699 59.666 26 126.999c2.66699 2.66699 0.166992 -2 -7.5 -14l-35.5 -53c-36 -54.667 -78.5 -101 -127.5 -139s-103.5 -57 -163.5 -57c-54 0 -104.333 20.333 -151 61s-70 109.667 -70 207c0 150.667 60 305 180 463zM1025 1329
c-4.66699 -21.333 -14.667 -38.668 -30 -52.001s-38.333 -27.666 -69 -42.999l-348 -177h-100l306 268c50 44 88.667 73.333 116 88c16.667 8.66699 32.667 13 48 13c28.667 0 50.167 -9 64.5 -27s18.5 -41.333 12.5 -70z" />
    <glyph glyph-name="acircumflex" unicode="&#xe2;" 
d="M672 813c-12.667 30.667 -36.333 45.999 -71 45.999c-74 0 -150 -87.667 -228 -263c-68.667 -155.333 -103 -274.333 -103 -357c0 -32.667 8.16699 -61 24.5 -85s37.833 -36 64.5 -36c68 -0.666992 145 89.333 231 270c61.333 151.333 92 271.333 92 360
c0 26.667 -3.33301 48.334 -10 65.001zM198.001 701.999c124 162 249.998 243.003 377.998 243.003c52 0 90.333 -15.333 115 -46c14.667 -18.667 27.667 -50 39 -94l35 109l228 15l-145 -479c-20.667 -68 -35.334 -120 -44.001 -156c-18 -68.667 -27 -117.667 -27 -147
c0 -12 2.66699 -20.333 8 -25s11.333 -7 18 -7c12 0 23.667 4.5 35 13.5s24 21.833 38 38.5c6.66699 7.33301 18 21.166 34 41.499l40 51.5l43 -31c-55.333 -81.333 -108.166 -145 -158.499 -191s-101.166 -69 -152.499 -69c-31.333 0 -61.666 11.667 -90.999 35
s-44 57.666 -44 102.999c0 17.333 8.66699 59.666 26 126.999c2.66699 2.66699 0.166992 -2 -7.5 -14l-35.5 -53c-36 -54.667 -78.5 -101 -127.5 -139s-103.5 -57 -163.5 -57c-54 0 -104.333 20.333 -151 61s-70 109.667 -70 207c0 150.667 60 305 180 463zM880.999 1057
l-180 194l-271 -194h-116l327 355h166l178 -355h-104zM700.999 945.002z" />
    <glyph glyph-name="atilde" unicode="&#xe3;" 
d="M672 813c-12.667 30.667 -36.333 45.999 -71 45.999c-74 0 -150 -87.667 -228 -263c-68.667 -155.333 -103 -274.333 -103 -357c0 -32.667 8.16699 -61 24.5 -85s37.833 -36 64.5 -36c68 -0.666992 145 89.333 231 270c61.333 151.333 92 271.333 92 360
c0 26.667 -3.33301 48.334 -10 65.001zM198.001 701.999c124 162 249.998 243.003 377.998 243.003c52 0 90.333 -15.333 115 -46c14.667 -18.667 27.667 -50 39 -94l35 109l228 15l-145 -479c-20.667 -68 -35.334 -120 -44.001 -156c-18 -68.667 -27 -117.667 -27 -147
c0 -12 2.66699 -20.333 8 -25s11.333 -7 18 -7c12 0 23.667 4.5 35 13.5s24 21.833 38 38.5c6.66699 7.33301 18 21.166 34 41.499l40 51.5l43 -31c-55.333 -81.333 -108.166 -145 -158.499 -191s-101.166 -69 -152.499 -69c-31.333 0 -61.666 11.667 -90.999 35
s-44 57.666 -44 102.999c0 17.333 8.66699 59.666 26 126.999c2.66699 2.66699 0.166992 -2 -7.5 -14l-35.5 -53c-36 -54.667 -78.5 -101 -127.5 -139s-103.5 -57 -163.5 -57c-54 0 -104.333 20.333 -151 61s-70 109.667 -70 207c0 150.667 60 305 180 463zM405.999 1266.5
c38 49.667 93.002 74.5 165.002 74.5c38.667 0 94.5 -14.167 167.5 -42.5s118.833 -42.5 137.5 -42.5c29.333 0 53.666 10.333 72.999 31c10.667 10.667 22 28.667 34 54h83c-16 -75.333 -44.5 -134.833 -85.5 -178.5s-91.167 -65.5 -150.5 -65.5
c-12 0 -27.833 1.5 -47.5 4.5s-43.834 10.167 -72.501 21.5l-121 47c-14 5.33301 -26.833 9.5 -38.5 12.5s-23.5 4.5 -35.5 4.5c-30 0 -51.333 -7.16699 -64 -21.5s-25 -36.5 -37 -66.5h-83c12 62 37 117.833 75 167.5zM331.001 945.002z" />
    <glyph glyph-name="adieresis" unicode="&#xe4;" 
d="M672 813c-12.667 30.667 -36.333 45.999 -71 45.999c-74 0 -150 -87.667 -228 -263c-68.667 -155.333 -103 -274.333 -103 -357c0 -32.667 8.16699 -61 24.5 -85s37.833 -36 64.5 -36c68 -0.666992 145 89.333 231 270c61.333 151.333 92 271.333 92 360
c0 26.667 -3.33301 48.334 -10 65.001zM198.001 701.999c124 162 249.998 243.003 377.998 243.003c52 0 90.333 -15.333 115 -46c14.667 -18.667 27.667 -50 39 -94l35 109l228 15l-145 -479c-20.667 -68 -35.334 -120 -44.001 -156c-18 -68.667 -27 -117.667 -27 -147
c0 -12 2.66699 -20.333 8 -25s11.333 -7 18 -7c12 0 23.667 4.5 35 13.5s24 21.833 38 38.5c6.66699 7.33301 18 21.166 34 41.499l40 51.5l43 -31c-55.333 -81.333 -108.166 -145 -158.499 -191s-101.166 -69 -152.499 -69c-31.333 0 -61.666 11.667 -90.999 35
s-44 57.666 -44 102.999c0 17.333 8.66699 59.666 26 126.999c2.66699 2.66699 0.166992 -2 -7.5 -14l-35.5 -53c-36 -54.667 -78.5 -101 -127.5 -139s-103.5 -57 -163.5 -57c-54 0 -104.333 20.333 -151 61s-70 109.667 -70 207c0 150.667 60 305 180 463zM343.999 1208
c8 37.333 27.833 68.833 59.5 94.5s65.834 38.5 102.501 38.5s65.167 -13 85.5 -39s26.5 -57.333 18.5 -94c-7.33301 -36 -26.833 -67 -58.5 -93s-65.834 -39 -102.501 -39c-37.333 0 -66 13 -86 39s-26.333 57 -19 93zM941.999 1341c36.667 0 65.168 -13 85.501 -39
s26.5 -57.333 18.5 -94c-7.33301 -36.667 -26.833 -67.834 -58.5 -93.501s-65.834 -38.5 -102.501 -38.5c-36 0 -64.333 12.833 -85 38.5s-27.334 56.834 -20.001 93.501c8 37.333 27.833 68.833 59.5 94.5s65.834 38.5 102.501 38.5z" />
    <glyph glyph-name="aring" unicode="&#xe5;" 
d="M672 813c-12.667 30.667 -36.333 45.999 -71 45.999c-74 0 -150 -87.667 -228 -263c-68.667 -155.333 -103 -274.333 -103 -357c0 -32.667 8.16699 -61 24.5 -85s37.833 -36 64.5 -36c68 -0.666992 145 89.333 231 270c61.333 151.333 92 271.333 92 360
c0 26.667 -3.33301 48.334 -10 65.001zM198.001 701.999c124 162 249.998 243.003 377.998 243.003c52 0 90.333 -15.333 115 -46c14.667 -18.667 27.667 -50 39 -94l35 109l228 15l-145 -479c-20.667 -68 -35.334 -120 -44.001 -156c-18 -68.667 -27 -117.667 -27 -147
c0 -12 2.66699 -20.333 8 -25s11.333 -7 18 -7c12 0 23.667 4.5 35 13.5s24 21.833 38 38.5c6.66699 7.33301 18 21.166 34 41.499l40 51.5l43 -31c-55.333 -81.333 -108.166 -145 -158.499 -191s-101.166 -69 -152.499 -69c-31.333 0 -61.666 11.667 -90.999 35
s-44 57.666 -44 102.999c0 17.333 8.66699 59.666 26 126.999c2.66699 2.66699 0.166992 -2 -7.5 -14l-35.5 -53c-36 -54.667 -78.5 -101 -127.5 -139s-103.5 -57 -163.5 -57c-54 0 -104.333 20.333 -151 61s-70 109.667 -70 207c0 150.667 60 305 180 463zM649.999 1190.5
c23.333 -23 51.333 -34.5 84 -34.5s60.5 11.667 83.5 35s34.5 51.333 34.5 84s-11.5 60.5 -34.5 83.5s-50.833 34.5 -83.5 34.5s-60.667 -11.5 -84 -34.5s-35 -50.833 -35 -83.5c0 -33.333 11.667 -61.5 35 -84.5zM579.499 1429c42.333 42.667 93.833 64 154.5 64
c60 0 111.333 -21.333 154 -64s64 -94 64 -154c0 -60.667 -21.333 -112.167 -64 -154.5s-94 -63.5 -154 -63.5c-60.667 0 -112.167 21.167 -154.5 63.5s-63.5 93.833 -63.5 154.5c0 60 21.167 111.333 63.5 154zM733.999 945.002z" />
    <glyph glyph-name="ae" unicode="&#xe6;" horiz-adv-x="1479" 
d="M1222 852c-8 18 -26.667 26.999 -56 26.999c-62.667 0 -122.667 -55 -180 -165c-35.333 -68.667 -65.333 -148.667 -90 -240l-10 -36c54.667 14.667 96.334 28.334 125.001 41.001c44.667 19.333 83 45 115 77c33.333 32 59.666 68.333 78.999 109s29 82.667 29 126
c0 22.667 -4 43 -12 61zM629 385.999c61.333 146.667 92.001 260.332 92.001 340.999c0 36 -7.16699 66.833 -21.5 92.5s-40.5 38.5 -78.5 38.5c-74.667 0 -150.334 -79.333 -227.001 -238c-70 -145.333 -105 -267.666 -105 -366.999c0 -33.333 4 -60 12 -80
c15.333 -36 44.333 -54 87 -54c86 0 166.333 89 241 267zM719.001 892.997c16.667 -18 29.666 -42.333 38.999 -73h5l35 109l211 12l-38 -126c33.333 37.333 64.333 65 93 83c46 28.667 96.667 43 152 43s102.833 -14.833 142.5 -44.5s59.5 -75.167 59.5 -136.5
c0 -77.333 -38 -149.166 -114 -215.499s-193.333 -118.5 -352 -156.5l-80 -19c-3.33301 -14.667 -5.83301 -29.167 -7.5 -43.5s-2.5 -29.833 -2.5 -46.5c0 -51.333 10.833 -93.833 32.5 -127.5s58.5 -50.5 110.5 -50.5c60 0 118 29 174 87
c32.667 33.333 56.667 65.333 72 96l57 -36c-24.667 -54.667 -59.667 -105.334 -105 -152.001c-82.667 -83.333 -179 -125 -289 -125c-106.667 0 -185 34.333 -235 103c-28 38.667 -48.333 93 -61 163h-5c-45.333 -80 -96.666 -144 -153.999 -192s-125.333 -72 -204 -72
c-56.667 0 -108.167 21.5 -154.5 64.5s-69.5 107.5 -69.5 193.5c0 162 62 321.667 186 479c123.333 156.667 248.333 235 375 235c54 0 96.333 -17.333 127 -52z" />
    <glyph glyph-name="ccedilla" unicode="&#xe7;" horiz-adv-x="909" 
d="M233 734c122.667 140.667 256.002 210.998 400.002 210.998c76.667 0 134.5 -18.833 173.5 -56.5s58.5 -80.167 58.5 -127.5c0 -44 -13 -78.833 -39 -104.5s-56.667 -38.5 -92 -38.5c-26.667 0 -52.667 9.16699 -78 27.5s-38 45.5 -38 81.5c0 14.667 1.5 26 4.5 34
s9.5 20.333 19.5 37l9 15c4.66699 7.33301 7.83398 13 9.50098 17s2.5 8.33301 2.5 13c0 11.333 -5.33301 20.166 -16 26.499s-23.334 9.5 -38.001 9.5c-73.333 0 -143 -76 -209 -228c-58.667 -135.333 -88 -252.666 -88 -351.999c0 -45.333 8.66699 -84.666 26 -117.999
c26 -51.333 68.667 -77 128 -77c44 0 86.167 16.167 126.5 48.5s80.5 77.833 120.5 136.5l57 -38c-66 -92 -120.333 -155.667 -163 -191c-72.667 -59.333 -157.334 -89 -254.001 -89c-6.66699 0 -16 0.333008 -28 1l-68 -100l31.5 3c7 0.666992 14.5 1 22.5 1
c50 0 93.167 -12.667 129.5 -38s54.5 -62.666 54.5 -111.999c0 -54 -25 -96.5 -75 -127.5s-110.667 -46.5 -182 -46.5c-47.333 0 -93.666 6 -138.999 18c-26.667 7.33301 -56 17.666 -88 30.999l45 69c34 -15.333 61.167 -25 81.5 -29s40.166 -6 59.499 -6
c44 0 73.833 8.5 89.5 25.5s23.5 36.833 23.5 59.5c0 18 -7.83301 34.667 -23.5 50s-41.834 23 -78.501 23c-12.667 0 -23.167 -0.666992 -31.5 -2s-17.833 -3.66602 -28.5 -6.99902l-26 26l118 171c-46 6.66699 -88.833 32.667 -128.5 78s-59.5 122 -59.5 230
c0 158 60.333 306.333 181 445z" />
    <glyph glyph-name="egrave" unicode="&#xe8;" horiz-adv-x="909" 
d="M655 854.5c-8.66699 16.333 -24.333 24.5 -47 24.5c-48 0 -95.167 -38.667 -141.5 -116s-87.5 -185.666 -123.5 -324.999c118 26.667 201.667 78 251 154s74 143.667 74 203c0 23.333 -4.33301 43.166 -13 59.499zM230.001 730
c122.667 144 257.331 215.999 403.998 215.999c63.333 0 115.833 -15.667 157.5 -47s62.5 -75.666 62.5 -132.999c0 -86.667 -48.667 -168.667 -146 -246s-223.666 -126.666 -378.999 -147.999c-4 -20.667 -7 -40 -9 -58s-3 -32.667 -3 -44c0 -42 6 -75 18 -99
c21.333 -44.667 62.333 -67 123 -67c49.333 0 98.333 25.333 147 76c26 26.667 54 63.667 84 111l60 -35c-51.333 -86 -99.666 -149 -144.999 -189c-72 -64 -156.333 -96 -253 -96c-72 0 -139.833 26.167 -203.5 78.5s-95.5 132.166 -95.5 239.499
c0 154.667 59.333 301.667 178 441zM760.998 1057l-92.002 -0.000976562l-234 182c-22.667 18 -37.167 34.833 -43.5 50.5s-8.16602 30.834 -5.49902 45.501c4.66699 20.667 17.334 41 38.001 61s46 30 76 30c24.667 0 44.167 -6.16699 58.5 -18.5s27.5 -28.833 39.5 -49.5z
" />
    <glyph glyph-name="eacute" unicode="&#xe9;" horiz-adv-x="909" 
d="M655 854.5c-8.66699 16.333 -24.333 24.5 -47 24.5c-48 0 -95.167 -38.667 -141.5 -116s-87.5 -185.666 -123.5 -324.999c118 26.667 201.667 78 251 154s74 143.667 74 203c0 23.333 -4.33301 43.166 -13 59.499zM230.001 730
c122.667 144 257.331 215.999 403.998 215.999c63.333 0 115.833 -15.667 157.5 -47s62.5 -75.666 62.5 -132.999c0 -86.667 -48.667 -168.667 -146 -246s-223.666 -126.666 -378.999 -147.999c-4 -20.667 -7 -40 -9 -58s-3 -32.667 -3 -44c0 -42 6 -75 18 -99
c21.333 -44.667 62.333 -67 123 -67c49.333 0 98.333 25.333 147 76c26 26.667 54 63.667 84 111l60 -35c-51.333 -86 -99.666 -149 -144.999 -189c-72 -64 -156.333 -96 -253 -96c-72 0 -139.833 26.167 -203.5 78.5s-95.5 132.166 -95.5 239.499
c0 154.667 59.333 301.667 178 441zM985.998 1329c-4.66699 -21.333 -14.667 -38.668 -30 -52.001s-38.333 -27.666 -69 -42.999l-348 -177h-100l306 268c50 44 88.667 73.333 116 88c16.667 8.66699 32.667 13 48 13c28.667 0 50.167 -9 64.5 -27s18.5 -41.333 12.5 -70z
" />
    <glyph glyph-name="ecircumflex" unicode="&#xea;" horiz-adv-x="909" 
d="M655 854.5c-8.66699 16.333 -24.333 24.5 -47 24.5c-48 0 -95.167 -38.667 -141.5 -116s-87.5 -185.666 -123.5 -324.999c118 26.667 201.667 78 251 154s74 143.667 74 203c0 23.333 -4.33301 43.166 -13 59.499zM230.001 730
c122.667 144 257.331 215.999 403.998 215.999c63.333 0 115.833 -15.667 157.5 -47s62.5 -75.666 62.5 -132.999c0 -86.667 -48.667 -168.667 -146 -246s-223.666 -126.666 -378.999 -147.999c-4 -20.667 -7 -40 -9 -58s-3 -32.667 -3 -44c0 -42 6 -75 18 -99
c21.333 -44.667 62.333 -67 123 -67c49.333 0 98.333 25.333 147 76c26 26.667 54 63.667 84 111l60 -35c-51.333 -86 -99.666 -149 -144.999 -189c-72 -64 -156.333 -96 -253 -96c-72 0 -139.833 26.167 -203.5 78.5s-95.5 132.166 -95.5 239.499
c0 154.667 59.333 301.667 178 441zM841.998 1057l-180 194l-271 -194h-116l327 355h166l178 -355h-104zM661.998 944.999z" />
    <glyph glyph-name="edieresis" unicode="&#xeb;" horiz-adv-x="993" 
d="M655 854.5c-8.66699 16.333 -24.333 24.5 -47 24.5c-48 0 -95.167 -38.667 -141.5 -116s-87.5 -185.666 -123.5 -324.999c118 26.667 201.667 78 251 154s74 143.667 74 203c0 23.333 -4.33301 43.166 -13 59.499zM230.001 730
c122.667 144 257.331 215.999 403.998 215.999c63.333 0 115.833 -15.667 157.5 -47s62.5 -75.666 62.5 -132.999c0 -86.667 -48.667 -168.667 -146 -246s-223.666 -126.666 -378.999 -147.999c-4 -20.667 -7 -40 -9 -58s-3 -32.667 -3 -44c0 -42 6 -75 18 -99
c21.333 -44.667 62.333 -67 123 -67c49.333 0 98.333 25.333 147 76c26 26.667 54 63.667 84 111l60 -35c-51.333 -86 -99.666 -149 -144.999 -189c-72 -64 -156.333 -96 -253 -96c-72 0 -139.833 26.167 -203.5 78.5s-95.5 132.166 -95.5 239.499
c0 154.667 59.333 301.667 178 441zM304.998 1208c8 37.333 27.833 68.833 59.5 94.5s65.834 38.5 102.501 38.5s65.167 -13 85.5 -39s26.5 -57.333 18.5 -94c-7.33301 -36 -26.833 -67 -58.5 -93s-65.834 -39 -102.501 -39c-37.333 0 -66 13 -86 39s-26.333 57 -19 93z
M902.998 1341c36.667 0 65.168 -13 85.501 -39s26.5 -57.333 18.5 -94c-7.33301 -36.667 -26.833 -67.834 -58.5 -93.501s-65.834 -38.5 -102.501 -38.5c-36 0 -64.333 12.833 -85 38.5s-27.334 56.834 -20.001 93.501c8 37.333 27.833 68.833 59.5 94.5
s65.834 38.5 102.501 38.5z" />
    <glyph glyph-name="igrave" unicode="&#xec;" horiz-adv-x="569" 
d="M66 197c4.66699 20.667 11.6641 48.001 20.9971 82.001l123 460c1.33301 5.33301 2.5 10.666 3.5 15.999s1.5 10.333 1.5 15c0 27.333 -8.66699 44.333 -26 51s-49 11 -95 13v54c38.667 2.66699 94.834 8.16699 168.501 16.5s125.834 15.5 156.501 21.5l88 17l-159 -583
c-13.333 -50 -22.333 -84.667 -27 -104c-12 -49.333 -18 -81.333 -18 -96s3.33301 -24.167 10 -28.5s14 -6.5 22 -6.5c20.667 0 46.334 17.667 77.001 53s57.667 72.333 81 111l45 -29c-66.667 -98 -117.667 -164 -153 -198c-58 -56 -120 -84 -186 -84
c-37.333 0 -70.833 11.5 -100.5 34.5s-44.5 58.167 -44.5 105.5c0 16.667 4 43 12 79zM553.997 1057l-92.002 -0.000976562l-234 182c-22.667 18 -37.167 34.833 -43.5 50.5s-8.16602 30.834 -5.49902 45.501c4.66699 20.667 17.334 41 38.001 61s46 30 76 30
c24.667 0 44.167 -6.16699 58.5 -18.5s27.5 -28.833 39.5 -49.5z" />
    <glyph glyph-name="iacute" unicode="&#xed;" horiz-adv-x="569" 
d="M66 197c4.66699 20.667 11.6641 48.001 20.9971 82.001l123 460c1.33301 5.33301 2.5 10.666 3.5 15.999s1.5 10.333 1.5 15c0 27.333 -8.66699 44.333 -26 51s-49 11 -95 13v54c38.667 2.66699 94.834 8.16699 168.501 16.5s125.834 15.5 156.501 21.5l88 17l-159 -583
c-13.333 -50 -22.333 -84.667 -27 -104c-12 -49.333 -18 -81.333 -18 -96s3.33301 -24.167 10 -28.5s14 -6.5 22 -6.5c20.667 0 46.334 17.667 77.001 53s57.667 72.333 81 111l45 -29c-66.667 -98 -117.667 -164 -153 -198c-58 -56 -120 -84 -186 -84
c-37.333 0 -70.833 11.5 -100.5 34.5s-44.5 58.167 -44.5 105.5c0 16.667 4 43 12 79zM778.997 1329c-4.66699 -21.333 -14.667 -38.668 -30 -52.001s-38.333 -27.666 -69 -42.999l-348 -177h-100l306 268c50 44 88.667 73.333 116 88c16.667 8.66699 32.667 13 48 13
c28.667 0 50.167 -9 64.5 -27s18.5 -41.333 12.5 -70z" />
    <glyph glyph-name="icircumflex" unicode="&#xee;" horiz-adv-x="569" 
d="M66 197c4.66699 20.667 11.6641 48.001 20.9971 82.001l123 460c1.33301 5.33301 2.5 10.666 3.5 15.999s1.5 10.333 1.5 15c0 27.333 -8.66699 44.333 -26 51s-49 11 -95 13v54c38.667 2.66699 94.834 8.16699 168.501 16.5s125.834 15.5 156.501 21.5l88 17l-159 -583
c-13.333 -50 -22.333 -84.667 -27 -104c-12 -49.333 -18 -81.333 -18 -96s3.33301 -24.167 10 -28.5s14 -6.5 22 -6.5c20.667 0 46.334 17.667 77.001 53s57.667 72.333 81 111l45 -29c-66.667 -98 -117.667 -164 -153 -198c-58 -56 -120 -84 -186 -84
c-37.333 0 -70.833 11.5 -100.5 34.5s-44.5 58.167 -44.5 105.5c0 16.667 4 43 12 79zM634.997 1057l-180 194l-271 -194h-116l327 355h166l178 -355h-104zM454.997 945.001z" />
    <glyph glyph-name="idieresis" unicode="&#xef;" horiz-adv-x="809" 
d="M66 197c4.66699 20.667 11.6641 48.001 20.9971 82.001l123 460c1.33301 5.33301 2.5 10.666 3.5 15.999s1.5 10.333 1.5 15c0 27.333 -8.66699 44.333 -26 51s-49 11 -95 13v54c38.667 2.66699 94.834 8.16699 168.501 16.5s125.834 15.5 156.501 21.5l88 17l-159 -583
c-13.333 -50 -22.333 -84.667 -27 -104c-12 -49.333 -18 -81.333 -18 -96s3.33301 -24.167 10 -28.5s14 -6.5 22 -6.5c20.667 0 46.334 17.667 77.001 53s57.667 72.333 81 111l45 -29c-66.667 -98 -117.667 -164 -153 -198c-58 -56 -120 -84 -186 -84
c-37.333 0 -70.833 11.5 -100.5 34.5s-44.5 58.167 -44.5 105.5c0 16.667 4 43 12 79zM97.9971 1208c8 37.333 27.833 68.833 59.5 94.5s65.834 38.5 102.501 38.5s65.167 -13 85.5 -39s26.5 -57.333 18.5 -94c-7.33301 -36 -26.833 -67 -58.5 -93s-65.834 -39 -102.501 -39
c-37.333 0 -66 13 -86 39s-26.333 57 -19 93zM695.997 1341c36.667 0 65.168 -13 85.501 -39s26.5 -57.333 18.5 -94c-7.33301 -36.667 -26.833 -67.834 -58.5 -93.501s-65.834 -38.5 -102.501 -38.5c-36 0 -64.333 12.833 -85 38.5s-27.334 56.834 -20.001 93.501
c8 37.333 27.833 68.833 59.5 94.5s65.834 38.5 102.501 38.5z" />
    <glyph glyph-name="eth" unicode="&#xf0;" 
d="M709 814c-17.333 37.333 -46.333 56 -87 56c-82 0 -158.333 -97.667 -229 -293c-58.667 -163.333 -88 -294 -88 -392c0 -49.333 9.5 -86.833 28.5 -112.5s44.167 -38.5 75.5 -38.5c83.333 0 160 98.667 230 296c58 164 87 295.333 87 394
c0 35.333 -5.66699 65.333 -17 90zM662.5 926.5c17.667 -4.33301 39.498 -13.499 65.498 -27.499c0 30 -5.66699 68.333 -17 115c-6.66699 35.333 -19.334 70 -38.001 104l-161 -61l-50 73l175 69c-32 49.333 -62.333 93.333 -91 132c-16 21.333 -40 51.666 -72 90.999
l73 40l43 -40l79.5 -87c17.667 -18.667 44.834 -51.334 81.501 -98.001l182 73l48 -76l-183 -66c46.667 -66.667 82.334 -128 107.001 -184c46 -107.333 69 -220.666 69 -339.999c0 -170 -57 -324 -171 -462c-119.333 -143.333 -258.666 -215 -417.999 -215
c-92.667 0 -170.167 30.167 -232.5 90.5s-93.5 139.833 -93.5 238.5c0 139.333 56.667 283.333 170 432c117.333 136.667 239.333 205 366 205c27.333 0 49.833 -2.16699 67.5 -6.5z" />
    <glyph glyph-name="ntilde" unicode="&#xf1;" horiz-adv-x="1139" 
d="M49 0l183.005 654.003c7.33301 26.667 12.666 47.667 15.999 63c6.66699 28.667 10 48.667 10 60c0 24.667 -7.66699 40 -23 46s-45 9.66699 -89 11v54c85.333 5.33301 151.666 11.333 198.999 18s118 19 212 37l-124 -379l5 -3c-3.33301 -3.33301 16.667 27.167 60 91.5
s84.666 116.5 123.999 156.5c38.667 40.667 79.167 73.167 121.5 97.5s86.833 36.5 133.5 36.5c43.333 0 80.166 -12.333 110.499 -37s45.5 -65 45.5 -121c0 -52 -30 -166.667 -90 -344c-60.667 -176.667 -91 -271.334 -91 -284.001c0 -12 3.66699 -21.167 11 -27.5
s14.666 -9.5 21.999 -9.5c18 0 44.667 22.667 80 68c18.667 24 39 53.667 61 89l45 -29c-50.667 -82 -93.667 -141 -129 -177c-61.333 -62 -126.333 -93 -195 -93c-36.667 0 -69.5 10.667 -98.5 32s-43.5 55 -43.5 101c0 29.333 7 72 21 128s31 113.667 51 173l102 306
c2 7.33301 3.66699 13.666 5 18.999s2 10.666 2 15.999c0 15.333 -5.16699 26 -15.5 32s-21.5 9 -33.5 9c-42 0 -88.667 -32.5 -140 -97.5s-93.333 -129.833 -126 -194.5c-35.333 -70 -65 -141 -89 -213s-52.667 -168.333 -86 -289h-247zM439.005 1266.5
c38 49.667 93.002 74.5 165.002 74.5c38.667 0 94.5 -14.167 167.5 -42.5s118.833 -42.5 137.5 -42.5c29.333 0 53.666 10.333 72.999 31c10.667 10.667 22 28.667 34 54h83c-16 -75.333 -44.5 -134.833 -85.5 -178.5s-91.167 -65.5 -150.5 -65.5
c-12 0 -27.833 1.5 -47.5 4.5s-43.834 10.167 -72.501 21.5l-121 47c-14 5.33301 -26.833 9.5 -38.5 12.5s-23.5 4.5 -35.5 4.5c-30 0 -51.333 -7.16699 -64 -21.5s-25 -36.5 -37 -66.5h-83c12 62 37 117.833 75 167.5zM364.007 945.003z" />
    <glyph glyph-name="ograve" unicode="&#xf2;" 
d="M822 896c96 -54.667 144 -147.666 144 -278.999c0 -145.333 -55.333 -286.333 -166 -423c-120.667 -148.667 -258.667 -223 -414 -223c-79.333 0 -154.5 24.667 -225.5 74s-106.5 132.666 -106.5 249.999c0 146 55 287.333 165 424c120.667 149.333 259.667 224 417 224
c69.333 0 131.333 -15.667 186 -47zM311 92.001c16.667 -38 48 -57 94 -57c85.333 0 162 98 230 294c56.667 164.667 85 307 85 427c0 32 -4 57 -12 75c-15.333 33.333 -44 50 -86 50c-98 0 -180.333 -104 -247 -312c-51.333 -158 -77 -289.333 -77 -394
c0 -35.333 4.33301 -63 13 -83zM790 1057l-92.002 -0.000976562l-234 182c-22.667 18 -37.167 34.833 -43.5 50.5s-8.16602 30.834 -5.49902 45.501c4.66699 20.667 17.334 41 38.001 61s46 30 76 30c24.667 0 44.167 -6.16699 58.5 -18.5s27.5 -28.833 39.5 -49.5z" />
    <glyph glyph-name="oacute" unicode="&#xf3;" 
d="M822 896c96 -54.667 144 -147.666 144 -278.999c0 -145.333 -55.333 -286.333 -166 -423c-120.667 -148.667 -258.667 -223 -414 -223c-79.333 0 -154.5 24.667 -225.5 74s-106.5 132.666 -106.5 249.999c0 146 55 287.333 165 424c120.667 149.333 259.667 224 417 224
c69.333 0 131.333 -15.667 186 -47zM311 92.001c16.667 -38 48 -57 94 -57c85.333 0 162 98 230 294c56.667 164.667 85 307 85 427c0 32 -4 57 -12 75c-15.333 33.333 -44 50 -86 50c-98 0 -180.333 -104 -247 -312c-51.333 -158 -77 -289.333 -77 -394
c0 -35.333 4.33301 -63 13 -83zM1015 1329c-4.66699 -21.333 -14.667 -38.668 -30 -52.001s-38.333 -27.666 -69 -42.999l-348 -177h-100l306 268c50 44 88.667 73.333 116 88c16.667 8.66699 32.667 13 48 13c28.667 0 50.167 -9 64.5 -27s18.5 -41.333 12.5 -70z" />
    <glyph glyph-name="ocircumflex" unicode="&#xf4;" 
d="M822 896c96 -54.667 144 -147.666 144 -278.999c0 -145.333 -55.333 -286.333 -166 -423c-120.667 -148.667 -258.667 -223 -414 -223c-79.333 0 -154.5 24.667 -225.5 74s-106.5 132.666 -106.5 249.999c0 146 55 287.333 165 424c120.667 149.333 259.667 224 417 224
c69.333 0 131.333 -15.667 186 -47zM311 92.001c16.667 -38 48 -57 94 -57c85.333 0 162 98 230 294c56.667 164.667 85 307 85 427c0 32 -4 57 -12 75c-15.333 33.333 -44 50 -86 50c-98 0 -180.333 -104 -247 -312c-51.333 -158 -77 -289.333 -77 -394
c0 -35.333 4.33301 -63 13 -83zM871 1057l-180 194l-271 -194h-116l327 355h166l178 -355h-104zM691 945.001z" />
    <glyph glyph-name="otilde" unicode="&#xf5;" 
d="M822 896c96 -54.667 144 -147.666 144 -278.999c0 -145.333 -55.333 -286.333 -166 -423c-120.667 -148.667 -258.667 -223 -414 -223c-79.333 0 -154.5 24.667 -225.5 74s-106.5 132.666 -106.5 249.999c0 146 55 287.333 165 424c120.667 149.333 259.667 224 417 224
c69.333 0 131.333 -15.667 186 -47zM311 92.001c16.667 -38 48 -57 94 -57c85.333 0 162 98 230 294c56.667 164.667 85 307 85 427c0 32 -4 57 -12 75c-15.333 33.333 -44 50 -86 50c-98 0 -180.333 -104 -247 -312c-51.333 -158 -77 -289.333 -77 -394
c0 -35.333 4.33301 -63 13 -83zM396 1266.5c38 49.667 93.002 74.5 165.002 74.5c38.667 0 94.5 -14.167 167.5 -42.5s118.833 -42.5 137.5 -42.5c29.333 0 53.666 10.333 72.999 31c10.667 10.667 22 28.667 34 54h83c-16 -75.333 -44.5 -134.833 -85.5 -178.5
s-91.167 -65.5 -150.5 -65.5c-12 0 -27.833 1.5 -47.5 4.5s-43.834 10.167 -72.501 21.5l-121 47c-14 5.33301 -26.833 9.5 -38.5 12.5s-23.5 4.5 -35.5 4.5c-30 0 -51.333 -7.16699 -64 -21.5s-25 -36.5 -37 -66.5h-83c12 62 37 117.833 75 167.5zM321.002 945.001z" />
    <glyph glyph-name="odieresis" unicode="&#xf6;" 
d="M822 896c96 -54.667 144 -147.666 144 -278.999c0 -145.333 -55.333 -286.333 -166 -423c-120.667 -148.667 -258.667 -223 -414 -223c-79.333 0 -154.5 24.667 -225.5 74s-106.5 132.666 -106.5 249.999c0 146 55 287.333 165 424c120.667 149.333 259.667 224 417 224
c69.333 0 131.333 -15.667 186 -47zM311 92.001c16.667 -38 48 -57 94 -57c85.333 0 162 98 230 294c56.667 164.667 85 307 85 427c0 32 -4 57 -12 75c-15.333 33.333 -44 50 -86 50c-98 0 -180.333 -104 -247 -312c-51.333 -158 -77 -289.333 -77 -394
c0 -35.333 4.33301 -63 13 -83zM334 1208c8 37.333 27.833 68.833 59.5 94.5s65.834 38.5 102.501 38.5s65.167 -13 85.5 -39s26.5 -57.333 18.5 -94c-7.33301 -36 -26.833 -67 -58.5 -93s-65.834 -39 -102.501 -39c-37.333 0 -66 13 -86 39s-26.333 57 -19 93zM932 1341
c36.667 0 65.168 -13 85.501 -39s26.5 -57.333 18.5 -94c-7.33301 -36.667 -26.833 -67.834 -58.5 -93.501s-65.834 -38.5 -102.501 -38.5c-36 0 -64.333 12.833 -85 38.5s-27.334 56.834 -20.001 93.501c8 37.333 27.833 68.833 59.5 94.5s65.834 38.5 102.501 38.5z" />
    <glyph glyph-name="divide" unicode="&#xf7;" horiz-adv-x="1124" 
d="M800 905c-8 -36.667 -27.834 -68.667 -59.501 -96s-67.167 -41 -106.5 -41c-36.667 0 -65.667 13 -87 39s-27.666 58.667 -18.999 98c8 37.333 28 69.166 60 95.499s66.667 39.5 104 39.5c38 0 67.5 -13.167 88.5 -39.5s27.5 -58.166 19.5 -95.499zM639.999 151
c-8 -36.667 -28 -68.667 -60 -96s-67.667 -41 -107 -41c-36.667 0 -65.5 13 -86.5 39s-27.167 58.667 -18.5 98c7.33301 37.333 27 69.166 59 95.499s66.667 39.5 104 39.5c38 0 67.5 -13.167 88.5 -39.5s27.833 -58.166 20.5 -95.499zM1128 618l-39 -182h-1053l39 182h1053
z" />
    <glyph glyph-name="oslash" unicode="&#xf8;" 
d="M298 163l389 690c-8.66699 9.33301 -19 16.333 -31 21s-25.333 7 -40 7c-84 0 -158 -85.333 -222 -256c-53.333 -142.667 -85.333 -292.667 -96 -450v-12zM358 44.5c11.333 -6.33301 27.001 -9.50098 47.001 -9.50098c86.667 0 164 100.333 232 301
c58 170.667 85.667 317 83 439l-396 -704c11.333 -11.333 22.666 -20.166 33.999 -26.499zM685.501 939.999c17.667 -2 33.166 -4.99902 46.499 -8.99902l121 216h76l-133 -237c42.667 -20.667 76.334 -46 101.001 -76c46 -54.667 69 -127 69 -217
c0 -144.667 -55 -285.334 -165 -422.001c-120 -149.333 -259.333 -224 -418 -224c-12.667 0 -29.334 1.16699 -50.001 3.5s-39.334 6.83301 -56.001 13.5l-131 -235h-80l147 261c-53.333 26 -93.166 63.5 -119.499 112.5s-39.5 105.167 -39.5 168.5
c0 144 54.333 284.667 163 422c120 150.667 260 226 420 226c14.667 0 30.834 -1 48.501 -3z" />
    <glyph glyph-name="ugrave" unicode="&#xf9;" horiz-adv-x="1139" 
d="M110 213c6 30 12.6738 57.666 20.0068 82.999l111 389c5.33301 17.333 9.16602 32.333 11.499 45s3.5 25.334 3.5 38.001c0 26 -8.5 43.167 -25.5 51.5s-46.5 13.166 -88.5 14.499v54c139.333 12.667 243.666 25 312.999 37s107 18 113 18l-94 -313l-98 -315
c-4.66699 -14.667 -10 -34 -16 -58c-9.33301 -36 -14 -62.667 -14 -80c0 -16.667 4.16699 -29 12.5 -37s20.166 -12 35.499 -12c33.333 0 77.166 31.833 131.499 95.5s105.166 148.5 152.499 254.5c30.667 68.667 58 138.667 82 210c15.333 47.333 38.333 124.333 69 231
h242l-83 -284c-3.33301 -10.667 -18 -61.167 -44 -151.5l-47 -162.5c-10 -35.333 -18.667 -68.166 -26 -98.499s-11 -51.166 -11 -62.499c0 -12.667 3.16699 -22.5 9.5 -29.5s14.166 -10.5 23.499 -10.5c21.333 0 50 23.333 86 70c20.667 26 39.334 53.333 56.001 82l43 -26
c-38.667 -74 -87.167 -137.167 -145.5 -189.5s-118.5 -78.5 -180.5 -78.5c-54.667 0 -92.667 15.333 -114 46c-14.667 20.667 -22 48 -22 82c0 32.667 2.66699 60.5 8 83.5s17.666 64.833 36.999 125.5l-5 2c-84 -120 -146.667 -200 -188 -240
c-68 -66.667 -137.667 -100 -209 -100c-34.667 0 -65.334 8.66699 -92.001 26c-44 27.333 -66 73.666 -66 138.999c0 17.333 3 41 9 71zM833.007 1057l-92.002 -0.000976562l-234 182c-22.667 18 -37.167 34.833 -43.5 50.5s-8.16602 30.834 -5.49902 45.501
c4.66699 20.667 17.334 41 38.001 61s46 30 76 30c24.667 0 44.167 -6.16699 58.5 -18.5s27.5 -28.833 39.5 -49.5z" />
    <glyph glyph-name="uacute" unicode="&#xfa;" horiz-adv-x="1139" 
d="M110 213c6 30 12.6738 57.666 20.0068 82.999l111 389c5.33301 17.333 9.16602 32.333 11.499 45s3.5 25.334 3.5 38.001c0 26 -8.5 43.167 -25.5 51.5s-46.5 13.166 -88.5 14.499v54c139.333 12.667 243.666 25 312.999 37s107 18 113 18l-94 -313l-98 -315
c-4.66699 -14.667 -10 -34 -16 -58c-9.33301 -36 -14 -62.667 -14 -80c0 -16.667 4.16699 -29 12.5 -37s20.166 -12 35.499 -12c33.333 0 77.166 31.833 131.499 95.5s105.166 148.5 152.499 254.5c30.667 68.667 58 138.667 82 210c15.333 47.333 38.333 124.333 69 231
h242l-83 -284c-3.33301 -10.667 -18 -61.167 -44 -151.5l-47 -162.5c-10 -35.333 -18.667 -68.166 -26 -98.499s-11 -51.166 -11 -62.499c0 -12.667 3.16699 -22.5 9.5 -29.5s14.166 -10.5 23.499 -10.5c21.333 0 50 23.333 86 70c20.667 26 39.334 53.333 56.001 82l43 -26
c-38.667 -74 -87.167 -137.167 -145.5 -189.5s-118.5 -78.5 -180.5 -78.5c-54.667 0 -92.667 15.333 -114 46c-14.667 20.667 -22 48 -22 82c0 32.667 2.66699 60.5 8 83.5s17.666 64.833 36.999 125.5l-5 2c-84 -120 -146.667 -200 -188 -240
c-68 -66.667 -137.667 -100 -209 -100c-34.667 0 -65.334 8.66699 -92.001 26c-44 27.333 -66 73.666 -66 138.999c0 17.333 3 41 9 71zM1058.01 1329c-4.66699 -21.333 -14.667 -38.668 -30 -52.001s-38.333 -27.666 -69 -42.999l-348 -177h-100l306 268
c50 44 88.667 73.333 116 88c16.667 8.66699 32.667 13 48 13c28.667 0 50.167 -9 64.5 -27s18.5 -41.333 12.5 -70z" />
    <glyph glyph-name="ucircumflex" unicode="&#xfb;" horiz-adv-x="1139" 
d="M110 213c6 30 12.6738 57.666 20.0068 82.999l111 389c5.33301 17.333 9.16602 32.333 11.499 45s3.5 25.334 3.5 38.001c0 26 -8.5 43.167 -25.5 51.5s-46.5 13.166 -88.5 14.499v54c139.333 12.667 243.666 25 312.999 37s107 18 113 18l-94 -313l-98 -315
c-4.66699 -14.667 -10 -34 -16 -58c-9.33301 -36 -14 -62.667 -14 -80c0 -16.667 4.16699 -29 12.5 -37s20.166 -12 35.499 -12c33.333 0 77.166 31.833 131.499 95.5s105.166 148.5 152.499 254.5c30.667 68.667 58 138.667 82 210c15.333 47.333 38.333 124.333 69 231
h242l-83 -284c-3.33301 -10.667 -18 -61.167 -44 -151.5l-47 -162.5c-10 -35.333 -18.667 -68.166 -26 -98.499s-11 -51.166 -11 -62.499c0 -12.667 3.16699 -22.5 9.5 -29.5s14.166 -10.5 23.499 -10.5c21.333 0 50 23.333 86 70c20.667 26 39.334 53.333 56.001 82l43 -26
c-38.667 -74 -87.167 -137.167 -145.5 -189.5s-118.5 -78.5 -180.5 -78.5c-54.667 0 -92.667 15.333 -114 46c-14.667 20.667 -22 48 -22 82c0 32.667 2.66699 60.5 8 83.5s17.666 64.833 36.999 125.5l-5 2c-84 -120 -146.667 -200 -188 -240
c-68 -66.667 -137.667 -100 -209 -100c-34.667 0 -65.334 8.66699 -92.001 26c-44 27.333 -66 73.666 -66 138.999c0 17.333 3 41 9 71zM914.007 1057l-180 194l-271 -194h-116l327 355h166l178 -355h-104zM734.007 944.999z" />
    <glyph glyph-name="udieresis" unicode="&#xfc;" horiz-adv-x="1139" 
d="M110 213c6 30 12.6738 57.666 20.0068 82.999l111 389c5.33301 17.333 9.16602 32.333 11.499 45s3.5 25.334 3.5 38.001c0 26 -8.5 43.167 -25.5 51.5s-46.5 13.166 -88.5 14.499v54c139.333 12.667 243.666 25 312.999 37s107 18 113 18l-94 -313l-98 -315
c-4.66699 -14.667 -10 -34 -16 -58c-9.33301 -36 -14 -62.667 -14 -80c0 -16.667 4.16699 -29 12.5 -37s20.166 -12 35.499 -12c33.333 0 77.166 31.833 131.499 95.5s105.166 148.5 152.499 254.5c30.667 68.667 58 138.667 82 210c15.333 47.333 38.333 124.333 69 231
h242l-83 -284c-3.33301 -10.667 -18 -61.167 -44 -151.5l-47 -162.5c-10 -35.333 -18.667 -68.166 -26 -98.499s-11 -51.166 -11 -62.499c0 -12.667 3.16699 -22.5 9.5 -29.5s14.166 -10.5 23.499 -10.5c21.333 0 50 23.333 86 70c20.667 26 39.334 53.333 56.001 82l43 -26
c-38.667 -74 -87.167 -137.167 -145.5 -189.5s-118.5 -78.5 -180.5 -78.5c-54.667 0 -92.667 15.333 -114 46c-14.667 20.667 -22 48 -22 82c0 32.667 2.66699 60.5 8 83.5s17.666 64.833 36.999 125.5l-5 2c-84 -120 -146.667 -200 -188 -240
c-68 -66.667 -137.667 -100 -209 -100c-34.667 0 -65.334 8.66699 -92.001 26c-44 27.333 -66 73.666 -66 138.999c0 17.333 3 41 9 71zM377.007 1208c8 37.333 27.833 68.833 59.5 94.5s65.834 38.5 102.501 38.5s65.167 -13 85.5 -39s26.5 -57.333 18.5 -94
c-7.33301 -36 -26.833 -67 -58.5 -93s-65.834 -39 -102.501 -39c-37.333 0 -66 13 -86 39s-26.333 57 -19 93zM975.007 1341c36.667 0 65.168 -13 85.501 -39s26.5 -57.333 18.5 -94c-7.33301 -36.667 -26.833 -67.834 -58.5 -93.501s-65.834 -38.5 -102.501 -38.5
c-36 0 -64.333 12.833 -85 38.5s-27.334 56.834 -20.001 93.501c8 37.333 27.833 68.833 59.5 94.5s65.834 38.5 102.501 38.5z" />
    <glyph glyph-name="yacute" unicode="&#xfd;" horiz-adv-x="909" 
d="M293 -175.5c46 55.667 69 109.16 69 160.493c0 46.667 -13 140.334 -39 281.001c-16.667 90 -34.334 178 -53.001 264c-34 151.333 -59.167 241 -75.5 269s-48.166 42 -95.499 42v55c63.333 6 130 15.333 200 28s101.333 18.334 94 17.001l14 2
c16 -47.333 40.5 -141.166 73.5 -281.499s58.833 -267.5 77.5 -381.5l8 -48l38 66c31.333 53.333 62.5 117.333 93.5 192s46.5 125 46.5 151c0 12.667 -3.33301 24.834 -10 36.501s-17.667 22.834 -33 33.501l-16 11c-11.333 8 -22 18.667 -32 32
c-15.333 22 -23 45.333 -23 70c0 29.333 11.167 56.5 33.5 81.5s50.5 37.5 84.5 37.5c30 0 58.667 -11 86 -33s41 -57.667 41 -107c0 -81.333 -38.333 -203.666 -115 -366.999c-57.333 -121.333 -124 -242.666 -200 -363.999
c-106.667 -168.667 -203.167 -293.5 -289.5 -374.5s-173.833 -121.5 -262.5 -121.5c-38 0 -69.5 12.833 -94.5 38.5s-37.5 54.5 -37.5 86.5c0 34 11.667 61 35 81s49.666 30 78.999 30c30.667 0 65.334 -11.833 104.001 -35.5s64.667 -35.5 78 -35.5
c34.667 0 75 27.833 121 83.5zM968 1328.99c-4.66699 -21.333 -14.667 -38.668 -30 -52.001s-38.333 -27.666 -69 -42.999l-348 -177h-100l306 268c50 44 88.667 73.333 116 88c16.667 8.66699 32.667 13 48 13c28.667 0 50.167 -9 64.5 -27s18.5 -41.333 12.5 -70z" />
    <glyph glyph-name="thorn" unicode="&#xfe;" 
d="M638 315c64 150.667 96.002 270.333 96.002 359c0 44 -11.667 75.667 -35 95c-14.667 12 -32.334 18 -53.001 18c-94.667 0 -178.334 -108.333 -251.001 -325c-53.333 -161.333 -80 -273 -80 -335c0 -28 7.5 -48.167 22.5 -60.5s35.5 -18.5 61.5 -18.5
c83.333 0 163 89 239 267zM227.002 1308l0.000976562 52l109 16c37.333 5.33301 86 13.166 146 23.499l165 29.5l-55 -221l-109 -426c68 61.333 122.167 102.333 162.5 123s82.166 31 125.499 31c83.333 0 141 -26.167 173 -78.5s48 -112.833 48 -181.5
c0 -164.667 -59.333 -323 -178 -475c-120.667 -154 -249 -231 -385 -231c-24.667 0 -48.5 3.83301 -71.5 11.5s-45.833 18.5 -68.5 32.5c-26 -98 -44.833 -171.667 -56.5 -221s-17.5 -82 -17.5 -98c0 -25.333 12.667 -43 38 -53c16 -6 47 -11 93 -15v-49h-508v52
c56 5.33301 93 24.833 111 58.5s52.667 149.167 104 346.5l264 1037c24 94 36 152 36 174c0 24.667 -8.33301 40.834 -25 48.501s-40 12.167 -70 13.5h-31z" />
    <glyph glyph-name="ydieresis" unicode="&#xff;" horiz-adv-x="909" 
d="M293 -175.5c46 55.667 69 109.16 69 160.493c0 46.667 -13 140.334 -39 281.001c-16.667 90 -34.334 178 -53.001 264c-34 151.333 -59.167 241 -75.5 269s-48.166 42 -95.499 42v55c63.333 6 130 15.333 200 28s101.333 18.334 94 17.001l14 2
c16 -47.333 40.5 -141.166 73.5 -281.499s58.833 -267.5 77.5 -381.5l8 -48l38 66c31.333 53.333 62.5 117.333 93.5 192s46.5 125 46.5 151c0 12.667 -3.33301 24.834 -10 36.501s-17.667 22.834 -33 33.501l-16 11c-11.333 8 -22 18.667 -32 32
c-15.333 22 -23 45.333 -23 70c0 29.333 11.167 56.5 33.5 81.5s50.5 37.5 84.5 37.5c30 0 58.667 -11 86 -33s41 -57.667 41 -107c0 -81.333 -38.333 -203.666 -115 -366.999c-57.333 -121.333 -124 -242.666 -200 -363.999
c-106.667 -168.667 -203.167 -293.5 -289.5 -374.5s-173.833 -121.5 -262.5 -121.5c-38 0 -69.5 12.833 -94.5 38.5s-37.5 54.5 -37.5 86.5c0 34 11.667 61 35 81s49.666 30 78.999 30c30.667 0 65.334 -11.833 104.001 -35.5s64.667 -35.5 78 -35.5
c34.667 0 75 27.833 121 83.5zM237 1207.99c8 37.333 27.833 68.833 59.5 94.5s65.834 38.5 102.501 38.5s65.167 -13 85.5 -39s26.5 -57.333 18.5 -94c-7.33301 -36 -26.833 -67 -58.5 -93s-65.834 -39 -102.501 -39c-37.333 0 -66 13 -86 39s-26.333 57 -19 93z
M835 1340.99c36.667 0 65.168 -13 85.501 -39s26.5 -57.333 18.5 -94c-7.33301 -36.667 -26.833 -67.834 -58.5 -93.501s-65.834 -38.5 -102.501 -38.5c-36 0 -64.333 12.833 -85 38.5s-27.334 56.834 -20.001 93.501c8 37.333 27.833 68.833 59.5 94.5
s65.834 38.5 102.501 38.5z" />
    <glyph glyph-name="Amacron" unicode="&#x100;" horiz-adv-x="1366" 
d="M739 507l-76 498l-303 -498h379zM-109 49c38 11.333 65.999 23.6699 83.999 37.0029c26.667 19.333 56.334 55.333 89.001 108l760 1204h53l196 -1171c13.333 -78.667 29.333 -126.834 48 -144.501s59.667 -28.834 123 -33.501v-49h-621v49
c58.667 4.66699 100.167 14.167 124.5 28.5s36.5 44.166 36.5 89.499c0 15.333 -3.66699 52 -11 110c-1.33301 12 -8 61.667 -20 149h-441l-120 -208c-8 -14 -15.167 -29.333 -21.5 -46s-9.5 -32.667 -9.5 -48c0 -28 8.5 -46 25.5 -54s52.5 -15 106.5 -21v-49h-402v49z
M551.999 1500l33 142h666l-33 -142h-666z" />
    <glyph glyph-name="amacron" unicode="&#x101;" 
d="M672 813c-12.667 30.667 -36.333 45.999 -71 45.999c-74 0 -150 -87.667 -228 -263c-68.667 -155.333 -103 -274.333 -103 -357c0 -32.667 8.16699 -61 24.5 -85s37.833 -36 64.5 -36c68 -0.666992 145 89.333 231 270c61.333 151.333 92 271.333 92 360
c0 26.667 -3.33301 48.334 -10 65.001zM198.001 701.999c124 162 249.998 243.003 377.998 243.003c52 0 90.333 -15.333 115 -46c14.667 -18.667 27.667 -50 39 -94l35 109l228 15l-145 -479c-20.667 -68 -35.334 -120 -44.001 -156c-18 -68.667 -27 -117.667 -27 -147
c0 -12 2.66699 -20.333 8 -25s11.333 -7 18 -7c12 0 23.667 4.5 35 13.5s24 21.833 38 38.5c6.66699 7.33301 18 21.166 34 41.499l40 51.5l43 -31c-55.333 -81.333 -108.166 -145 -158.499 -191s-101.166 -69 -152.499 -69c-31.333 0 -61.666 11.667 -90.999 35
s-44 57.666 -44 102.999c0 17.333 8.66699 59.666 26 126.999c2.66699 2.66699 0.166992 -2 -7.5 -14l-35.5 -53c-36 -54.667 -78.5 -101 -127.5 -139s-103.5 -57 -163.5 -57c-54 0 -104.333 20.333 -151 61s-70 109.667 -70 207c0 150.667 60 305 180 463zM365.999 1052
l33 142h666l-33 -142h-666z" />
    <glyph glyph-name="Abreve" unicode="&#x102;" horiz-adv-x="1366" 
d="M739 507l-76 498l-303 -498h379zM-109 49c38 11.333 65.999 23.6699 83.999 37.0029c26.667 19.333 56.334 55.333 89.001 108l760 1204h53l196 -1171c13.333 -78.667 29.333 -126.834 48 -144.501s59.667 -28.834 123 -33.501v-49h-621v49
c58.667 4.66699 100.167 14.167 124.5 28.5s36.5 44.166 36.5 89.499c0 15.333 -3.66699 52 -11 110c-1.33301 12 -8 61.667 -20 149h-441l-120 -208c-8 -14 -15.167 -29.333 -21.5 -46s-9.5 -32.667 -9.5 -48c0 -28 8.5 -46 25.5 -54s52.5 -15 106.5 -21v-49h-402v49z
M682.999 1830c3.33301 -54.667 20.5 -99.167 51.5 -133.5s84.167 -51.5 159.5 -51.5c58 0 110 13 156 39s83.333 74.667 112 146h80c-8 -74 -40.5 -148 -97.5 -222s-145.5 -111 -265.5 -111c-122 0 -204 39.667 -246 119c-24 44.667 -36.667 116 -38 214h88zM594.999 1386z
" />
    <glyph glyph-name="abreve" unicode="&#x103;" 
d="M672 813c-12.667 30.667 -36.333 45.999 -71 45.999c-74 0 -150 -87.667 -228 -263c-68.667 -155.333 -103 -274.333 -103 -357c0 -32.667 8.16699 -61 24.5 -85s37.833 -36 64.5 -36c68 -0.666992 145 89.333 231 270c61.333 151.333 92 271.333 92 360
c0 26.667 -3.33301 48.334 -10 65.001zM198.001 701.999c124 162 249.998 243.003 377.998 243.003c52 0 90.333 -15.333 115 -46c14.667 -18.667 27.667 -50 39 -94l35 109l228 15l-145 -479c-20.667 -68 -35.334 -120 -44.001 -156c-18 -68.667 -27 -117.667 -27 -147
c0 -12 2.66699 -20.333 8 -25s11.333 -7 18 -7c12 0 23.667 4.5 35 13.5s24 21.833 38 38.5c6.66699 7.33301 18 21.166 34 41.499l40 51.5l43 -31c-55.333 -81.333 -108.166 -145 -158.499 -191s-101.166 -69 -152.499 -69c-31.333 0 -61.666 11.667 -90.999 35
s-44 57.666 -44 102.999c0 17.333 8.66699 59.666 26 126.999c2.66699 2.66699 0.166992 -2 -7.5 -14l-35.5 -53c-36 -54.667 -78.5 -101 -127.5 -139s-103.5 -57 -163.5 -57c-54 0 -104.333 20.333 -151 61s-70 109.667 -70 207c0 150.667 60 305 180 463zM518.999 1399
c3.33301 -54.667 20.5 -99.167 51.5 -133.5s84.167 -51.5 159.5 -51.5c58 0 110 13 156 39s83.333 74.667 112 146h80c-8 -74 -40.5 -148 -97.5 -222s-145.5 -111 -265.5 -111c-122 0 -204 39.667 -246 119c-24 44.667 -36.667 116 -38 214h88zM430.999 955.002z" />
    <glyph glyph-name="Aogonek" unicode="&#x104;" horiz-adv-x="1366" 
d="M739 507l-76 498l-303 -498h379zM-109 49c38 11.333 65.999 23.6699 83.999 37.0029c26.667 19.333 56.334 55.333 89.001 108l760 1204h53l196 -1171c13.333 -78.667 29.333 -126.834 48 -144.501s59.667 -28.834 123 -33.501v-49h-621v49
c58.667 4.66699 100.167 14.167 124.5 28.5s36.5 44.166 36.5 89.499c0 15.333 -3.66699 52 -11 110c-1.33301 12 -8 61.667 -20 149h-441l-120 -208c-8 -14 -15.167 -29.333 -21.5 -46s-9.5 -32.667 -9.5 -48c0 -28 8.5 -46 25.5 -54s52.5 -15 106.5 -21v-49h-402v49z
M1071 49.0039l0.00195312 -22l-26 -14c-62 -33.333 -111.667 -66.333 -149 -99c-57.333 -49.333 -86 -96.333 -86 -141c0 -22.667 8.16699 -43.667 24.5 -63s41.166 -29 74.499 -29c19.333 0 45.666 7 78.999 21s71.333 34.667 114 62l40 -66
c-70.667 -51.333 -140.667 -87.333 -210 -108c-38.667 -12 -72.667 -18 -102 -18c-62 0 -111.333 17.833 -148 53.5s-55 75.5 -55 119.5c0 70 42 130.5 126 181.5s180.333 89.5 289 115.5z" />
    <glyph glyph-name="aogonek" unicode="&#x105;" 
d="M672 813c-12.667 30.667 -36.333 45.999 -71 45.999c-74 0 -150 -87.667 -228 -263c-68.667 -155.333 -103 -274.333 -103 -357c0 -32.667 8.16699 -61 24.5 -85s37.833 -36 64.5 -36c68 -0.666992 145 89.333 231 270c61.333 151.333 92 271.333 92 360
c0 26.667 -3.33301 48.334 -10 65.001zM198.001 701.999c124 162 249.998 243.003 377.998 243.003c52 0 90.333 -15.333 115 -46c14.667 -18.667 27.667 -50 39 -94l35 109l228 15l-145 -479c-20.667 -68 -35.334 -120 -44.001 -156c-18 -68.667 -27 -117.667 -27 -147
c0 -12 2.66699 -20.333 8 -25s11.333 -7 18 -7c12 0 23.667 4.5 35 13.5s24 21.833 38 38.5c6.66699 7.33301 18 21.166 34 41.499l40 51.5l43 -31c-55.333 -81.333 -108.166 -145 -158.499 -191s-101.166 -69 -152.499 -69c-31.333 0 -61.666 11.667 -90.999 35
s-44 57.666 -44 102.999c0 17.333 8.66699 59.666 26 126.999c2.66699 2.66699 0.166992 -2 -7.5 -14l-35.5 -53c-36 -54.667 -78.5 -101 -127.5 -139s-103.5 -57 -163.5 -57c-54 0 -104.333 20.333 -151 61s-70 109.667 -70 207c0 150.667 60 305 180 463zM814.999 59.002
l0.00195312 -22l-26 -14c-62 -33.333 -111.667 -66.333 -149 -99c-57.333 -49.333 -86 -96.333 -86 -141c0 -22.667 8.16699 -43.667 24.5 -63s41.166 -29 74.499 -29c19.333 0 45.666 7 78.999 21s71.333 34.667 114 62l40 -66c-70.667 -51.333 -140.667 -87.333 -210 -108
c-38.667 -12 -72.667 -18 -102 -18c-62 0 -111.333 17.833 -148 53.5s-55 75.5 -55 119.5c0 70 42 130.5 126 181.5s180.333 89.5 289 115.5z" />
    <glyph glyph-name="Cacute" unicode="&#x106;" horiz-adv-x="1366" 
d="M1090.5 1373c74.333 -20 118.833 -30.001 133.5 -30.001c21.333 0 37.333 5.33301 48 16s21 25.334 31 44.001h62l-104 -479l-64 12l3.5 50.5c0.333008 5 0.5 12.5 0.5 22.5c0 108 -25.333 188.333 -76 241s-115 79 -193 79c-158.667 0 -296.667 -105.333 -414 -316
c-105.333 -188 -158 -379.667 -158 -575c0 -142 32.5 -239.167 97.5 -291.5s135.833 -78.5 212.5 -78.5c100 0 194.333 33 283 99c48 36 96 84.333 144 145l62 -45c-70.667 -104 -154.667 -181.333 -252 -232s-196 -76 -296 -76c-164 0 -299.5 48.167 -406.5 144.5
s-160.5 225.166 -160.5 386.499c0 246.667 82 460.334 246 641.001c164 181.333 358.667 272 584 272c70 0 142.167 -10 216.5 -30zM1272 1787c-4.66699 -21.333 -14.667 -38.668 -30 -52.001s-38.333 -27.666 -69 -42.999l-348 -177h-100l306 268
c50 44 88.667 73.333 116 88c16.667 8.66699 32.667 13 48 13c28.667 0 50.167 -9 64.5 -27s18.5 -41.333 12.5 -70z" />
    <glyph glyph-name="cacute" unicode="&#x107;" horiz-adv-x="909" 
d="M233 734c122.667 140.667 256.001 210.999 400.001 210.999c76.667 0 134.5 -18.833 173.5 -56.5s58.5 -80.167 58.5 -127.5c0 -44 -13 -78.833 -39 -104.5s-56.667 -38.5 -92 -38.5c-26.667 0 -52.667 9.16699 -78 27.5s-38 45.5 -38 81.5c0 14.667 1.5 26 4.5 34
s9.5 20.333 19.5 37l9 15c4.66699 7.33301 7.83398 13 9.50098 17s2.5 8.33301 2.5 13c0 11.333 -5.33301 20.166 -16 26.499s-23.334 9.5 -38.001 9.5c-73.333 0 -143 -76 -209 -228c-58.667 -135.333 -88 -252.666 -88 -351.999c0 -45.333 8.66699 -84.666 26 -117.999
c26 -51.333 68.667 -77 128 -77c44 0 86.167 16.167 126.5 48.5s80.5 77.833 120.5 136.5l57 -38c-66 -92 -120.333 -155.667 -163 -191c-72.667 -59.333 -157.334 -89 -254.001 -89c-73.333 0 -141.833 26 -205.5 78s-95.5 132 -95.5 240c0 158 60.333 306.333 181 445z
M986.001 1329c-4.66699 -21.333 -14.667 -38.668 -30 -52.001s-38.333 -27.666 -69 -42.999l-348 -177h-100l306 268c50 44 88.667 73.333 116 88c16.667 8.66699 32.667 13 48 13c28.667 0 50.167 -9 64.5 -27s18.5 -41.333 12.5 -70z" />
    <glyph glyph-name="Ccircumflex" unicode="&#x108;" horiz-adv-x="1366" 
d="M1090.5 1373c74.333 -20 118.833 -30.001 133.5 -30.001c21.333 0 37.333 5.33301 48 16s21 25.334 31 44.001h62l-104 -479l-64 12l3.5 50.5c0.333008 5 0.5 12.5 0.5 22.5c0 108 -25.333 188.333 -76 241s-115 79 -193 79c-158.667 0 -296.667 -105.333 -414 -316
c-105.333 -188 -158 -379.667 -158 -575c0 -142 32.5 -239.167 97.5 -291.5s135.833 -78.5 212.5 -78.5c100 0 194.333 33 283 99c48 36 96 84.333 144 145l62 -45c-70.667 -104 -154.667 -181.333 -252 -232s-196 -76 -296 -76c-164 0 -299.5 48.167 -406.5 144.5
s-160.5 225.166 -160.5 386.499c0 246.667 82 460.334 246 641.001c164 181.333 358.667 272 584 272c70 0 142.167 -10 216.5 -30zM1224 1497l-180 194l-271 -194h-116l327 355h166l178 -355h-104zM1044 1385z" />
    <glyph glyph-name="ccircumflex" unicode="&#x109;" horiz-adv-x="909" 
d="M233 734c122.667 140.667 256.001 210.999 400.001 210.999c76.667 0 134.5 -18.833 173.5 -56.5s58.5 -80.167 58.5 -127.5c0 -44 -13 -78.833 -39 -104.5s-56.667 -38.5 -92 -38.5c-26.667 0 -52.667 9.16699 -78 27.5s-38 45.5 -38 81.5c0 14.667 1.5 26 4.5 34
s9.5 20.333 19.5 37l9 15c4.66699 7.33301 7.83398 13 9.50098 17s2.5 8.33301 2.5 13c0 11.333 -5.33301 20.166 -16 26.499s-23.334 9.5 -38.001 9.5c-73.333 0 -143 -76 -209 -228c-58.667 -135.333 -88 -252.666 -88 -351.999c0 -45.333 8.66699 -84.666 26 -117.999
c26 -51.333 68.667 -77 128 -77c44 0 86.167 16.167 126.5 48.5s80.5 77.833 120.5 136.5l57 -38c-66 -92 -120.333 -155.667 -163 -191c-72.667 -59.333 -157.334 -89 -254.001 -89c-73.333 0 -141.833 26 -205.5 78s-95.5 132 -95.5 240c0 158 60.333 306.333 181 445z
M858.001 1061l-180 194l-271 -194h-116l327 355h166l178 -355h-104zM678.001 948.999z" />
    <glyph glyph-name="Cdotaccent" unicode="&#x10a;" horiz-adv-x="1366" 
d="M1090.5 1373c74.333 -20 118.833 -30.001 133.5 -30.001c21.333 0 37.333 5.33301 48 16s21 25.334 31 44.001h62l-104 -479l-64 12l3.5 50.5c0.333008 5 0.5 12.5 0.5 22.5c0 108 -25.333 188.333 -76 241s-115 79 -193 79c-158.667 0 -296.667 -105.333 -414 -316
c-105.333 -188 -158 -379.667 -158 -575c0 -142 32.5 -239.167 97.5 -291.5s135.833 -78.5 212.5 -78.5c100 0 194.333 33 283 99c48 36 96 84.333 144 145l62 -45c-70.667 -104 -154.667 -181.333 -252 -232s-196 -76 -296 -76c-164 0 -299.5 48.167 -406.5 144.5
s-160.5 225.166 -160.5 386.499c0 246.667 82 460.334 246 641.001c164 181.333 358.667 272 584 272c70 0 142.167 -10 216.5 -30zM863 1552c-26.667 26.667 -39.999 59 -39.999 97s13.333 70.5 40 97.5s59 40.5 97 40.5s70.5 -13.5 97.5 -40.5s40.5 -59.5 40.5 -97.5
c0 -37.333 -13.333 -69.5 -40 -96.5s-59.334 -40.5 -98.001 -40.5c-38 0 -70.333 13.333 -97 40zM823.001 1386z" />
    <glyph glyph-name="cdotaccent" unicode="&#x10b;" horiz-adv-x="909" 
d="M233 734c122.667 140.667 256.001 210.999 400.001 210.999c76.667 0 134.5 -18.833 173.5 -56.5s58.5 -80.167 58.5 -127.5c0 -44 -13 -78.833 -39 -104.5s-56.667 -38.5 -92 -38.5c-26.667 0 -52.667 9.16699 -78 27.5s-38 45.5 -38 81.5c0 14.667 1.5 26 4.5 34
s9.5 20.333 19.5 37l9 15c4.66699 7.33301 7.83398 13 9.50098 17s2.5 8.33301 2.5 13c0 11.333 -5.33301 20.166 -16 26.499s-23.334 9.5 -38.001 9.5c-73.333 0 -143 -76 -209 -228c-58.667 -135.333 -88 -252.666 -88 -351.999c0 -45.333 8.66699 -84.666 26 -117.999
c26 -51.333 68.667 -77 128 -77c44 0 86.167 16.167 126.5 48.5s80.5 77.833 120.5 136.5l57 -38c-66 -92 -120.333 -155.667 -163 -191c-72.667 -59.333 -157.334 -89 -254.001 -89c-73.333 0 -141.833 26 -205.5 78s-95.5 132 -95.5 240c0 158 60.333 306.333 181 445z
M596.001 1109c-26.667 26.667 -39.999 59 -39.999 97s13.333 70.5 40 97.5s59 40.5 97 40.5s70.5 -13.5 97.5 -40.5s40.5 -59.5 40.5 -97.5c0 -37.333 -13.333 -69.5 -40 -96.5s-59.334 -40.5 -98.001 -40.5c-38 0 -70.333 13.333 -97 40zM556.002 942.999z" />
    <glyph glyph-name="Ccaron" unicode="&#x10c;" horiz-adv-x="1366" 
d="M1090.5 1373c74.333 -20 118.833 -30.001 133.5 -30.001c21.333 0 37.333 5.33301 48 16s21 25.334 31 44.001h62l-104 -479l-64 12l3.5 50.5c0.333008 5 0.5 12.5 0.5 22.5c0 108 -25.333 188.333 -76 241s-115 79 -193 79c-158.667 0 -296.667 -105.333 -414 -316
c-105.333 -188 -158 -379.667 -158 -575c0 -142 32.5 -239.167 97.5 -291.5s135.833 -78.5 212.5 -78.5c100 0 194.333 33 283 99c48 36 96 84.333 144 145l62 -45c-70.667 -104 -154.667 -181.333 -252 -232s-196 -76 -296 -76c-164 0 -299.5 48.167 -406.5 144.5
s-160.5 225.166 -160.5 386.499c0 246.667 82 460.334 246 641.001c164 181.333 358.667 272 584 272c70 0 142.167 -10 216.5 -30zM744 1870l187 -199l275 199h116l-332 -355h-168l-180 355h102zM931 1403z" />
    <glyph glyph-name="ccaron" unicode="&#x10d;" horiz-adv-x="909" 
d="M233 734c122.667 140.667 256.001 210.999 400.001 210.999c76.667 0 134.5 -18.833 173.5 -56.5s58.5 -80.167 58.5 -127.5c0 -44 -13 -78.833 -39 -104.5s-56.667 -38.5 -92 -38.5c-26.667 0 -52.667 9.16699 -78 27.5s-38 45.5 -38 81.5c0 14.667 1.5 26 4.5 34
s9.5 20.333 19.5 37l9 15c4.66699 7.33301 7.83398 13 9.50098 17s2.5 8.33301 2.5 13c0 11.333 -5.33301 20.166 -16 26.499s-23.334 9.5 -38.001 9.5c-73.333 0 -143 -76 -209 -228c-58.667 -135.333 -88 -252.666 -88 -351.999c0 -45.333 8.66699 -84.666 26 -117.999
c26 -51.333 68.667 -77 128 -77c44 0 86.167 16.167 126.5 48.5s80.5 77.833 120.5 136.5l57 -38c-66 -92 -120.333 -155.667 -163 -191c-72.667 -59.333 -157.334 -89 -254.001 -89c-73.333 0 -141.833 26 -205.5 78s-95.5 132 -95.5 240c0 158 60.333 306.333 181 445z
M458.001 1412l187 -199l275 199h116l-332 -355h-168l-180 355h102zM645.001 944.999z" />
    <glyph glyph-name="Dcaron" unicode="&#x10e;" horiz-adv-x="1479" 
d="M-67 52c44.667 6 76.333 15.332 95 27.999c31.333 20.667 55 60.334 71 119.001l251 919c7.33301 26 12.833 47.833 16.5 65.5s5.5 33.167 5.5 46.5c0 34.667 -9.66699 56.5 -29 65.5s-59.666 16.167 -120.999 21.5v53h595c201.333 0 354.5 -51.5 459.5 -154.5
s157.5 -241.167 157.5 -414.5c0 -208.667 -77.667 -390 -233 -544c-172.667 -171.333 -399.334 -257 -680.001 -257h-588v52zM1082 1168c-53.333 92 -145.666 138 -276.999 138c-44 0 -73.833 -7.16699 -89.5 -21.5s-26.834 -33.5 -33.501 -57.5l-282 -1035
c-2.66699 -10 -4.5 -19 -5.5 -27s-1.5 -15 -1.5 -21c0 -26.667 8.16699 -46 24.5 -58s45.833 -18 88.5 -18c243.333 0 419.333 125.333 528 376c66 152 99 312.667 99 482c0 101.333 -17 182 -51 242zM706.999 1858l187 -199l275 199h116l-332 -355h-168l-180 355h102z
M893.999 1391z" />
    <glyph glyph-name="dcaron" unicode="&#x10f;" horiz-adv-x="1567" 
d="M295.5 153.5c15.667 -22.333 36.833 -33.5 63.5 -33.5c80.667 0 159 95 235 285c64 158 96 274 96 348c0 26 -3.33301 47 -10 63c-12.667 29.333 -36 44 -70 44c-76 0 -153.333 -84.667 -232 -254c-70.667 -151.333 -106 -273 -106 -365
c0 -36 7.83301 -65.167 23.5 -87.5zM669.999 922c16 -9.33301 33.334 -23.6699 52.001 -43.0029l91 337c2 6.66699 3.33301 13.334 4 20.001s1 13 1 19c0 24 -7.33301 40.333 -22 49s-35.334 13 -62.001 13h-42v55l88 8c68.667 6 121.667 12 159 18s98 17 182 33l-228 -829
l-72 -266.5c-30 -113 -45 -175.167 -45 -186.5c0 -10 2.5 -17.333 7.5 -22s11.167 -7 18.5 -7c15.333 0 36.5 16.5 63.5 49.5s50.5 65.5 70.5 97.5l45 -33c-54 -80 -98 -137 -132 -171c-59.333 -60 -117 -90 -173 -90c-29.333 0 -54.333 7.33301 -75 22
c-32.667 22 -49 59.333 -49 112c0 8.66699 1.83301 23.834 5.5 45.501s8.83398 48.834 15.501 81.501c-49.333 -80 -92 -137.333 -128 -172c-62.667 -60.667 -132 -91 -208 -91c-60 0 -111.5 23.167 -154.5 69.5s-64.5 115.833 -64.5 208.5c0 146 60.667 297.667 182 455
c124 160.667 248.333 241 373 241c37.333 0 69.666 -7.66699 96.999 -23zM1101 1206c74.667 37.333 132.333 70.333 173 99c70.667 50 111 98 121 144c4.66699 22 -13.5 49.833 -54.5 83.5s-56.167 75.834 -45.5 126.501c9.33301 43.333 30.5 78.666 63.5 105.999
s70.5 41 112.5 41c52 0 90.333 -19 115 -57s31 -85.333 19 -142c-24 -114 -108 -221.333 -252 -322c-93.333 -65.333 -172 -108 -236 -128z" />
    <glyph glyph-name="Dcroat" unicode="&#x110;" horiz-adv-x="1479" 
d="M-67 52c44 5.33301 75.667 14.333 95 27c32 21.333 55.667 61.333 71 120l130 490h-220l26 93h221l94 336c6.66699 24.667 12 46 16 64s6 34 6 48c0 34.667 -9.66699 56.5 -29 65.5s-59.666 16.167 -120.999 21.5v53h595c201.333 0 354.5 -51.5 459.5 -154.5
s157.5 -241.167 157.5 -414.5c0 -208.667 -77.667 -390 -233 -544c-172.667 -171.333 -399.334 -257 -680.001 -257h-588v52zM1082 1168c-53.333 92 -145.667 138 -277 138c-44.667 0 -74.667 -7.16699 -90 -21.5s-26.333 -33.5 -33 -57.5l-121 -445h342l-26 -93h-339
l-138 -497c-2.66699 -9.33301 -4.5 -18 -5.5 -26s-1.5 -15.333 -1.5 -22c0 -26 8.33301 -45.167 25 -57.5s46 -18.5 88 -18.5c243.333 0 419.333 125.333 528 376c66 152 99 312.667 99 482c0 101.333 -17 182 -51 242z" />
    <glyph glyph-name="dcroat" unicode="&#x111;" 
d="M295.5 153.5c15.667 -22.333 36.833 -33.5 63.5 -33.5c80.667 0 159 95 235 285c64 158 96 274 96 348c0 26 -3.33301 47 -10 63c-12.667 29.333 -36 44 -70 44c-76 0 -153.333 -84.667 -232 -254c-70.667 -151.333 -106 -273 -106 -365
c0 -36 7.83301 -65.167 23.5 -87.5zM669.999 922c16 -9.33301 33.334 -23.6699 52.001 -43.0029l51 189h-287l37 127h282c7.33301 20.667 11.333 34.334 12 41.001s1 13 1 19c0 24 -7.33301 40.333 -22 49s-35.334 13 -62.001 13h-42v55l88 8c68.667 6 121.667 12 159 18
s98 17 182 33l-68 -236h139l-30 -127h-141l-128 -466l-72 -266.5c-30 -113 -45 -175.167 -45 -186.5c0 -10 2.5 -17.333 7.5 -22s11.167 -7 18.5 -7c15.333 0 36.5 16.5 63.5 49.5s50.5 65.5 70.5 97.5l45 -33c-54 -80 -98 -137 -132 -171c-59.333 -60 -117 -90 -173 -90
c-29.333 0 -54.333 7.33301 -75 22c-32.667 22 -49 59.333 -49 112c0 8.66699 1.83301 23.834 5.5 45.501s8.83398 48.834 15.501 81.501c-49.333 -80 -92 -137.333 -128 -172c-62.667 -60.667 -132 -91 -208 -91c-60 0 -111.5 23.167 -154.5 69.5
s-64.5 115.833 -64.5 208.5c0 146 60.667 297.667 182 455c124 160.667 248.333 241 373 241c37.333 0 69.666 -7.66699 96.999 -23z" />
    <glyph glyph-name="Emacron" unicode="&#x112;" horiz-adv-x="1366" 
d="M-57 52c48.667 6 84.6689 18.0029 108.002 36.0029s42.666 55 57.999 111l251 919c6 23.333 11 44.5 15 63.5s6 35.167 6 48.5c0 34.667 -9.16699 56.5 -27.5 65.5s-58.833 16.167 -121.5 21.5v53h1104l-87 -389l-55 9c-1.33301 99.333 -17.333 169.666 -48 210.999
c-52 70 -157.333 105 -316 105c-54 0 -88.833 -6.5 -104.5 -19.5s-28.5 -37.5 -38.5 -73.5l-123 -455c143.333 3.33301 236.166 15 278.499 35s89.166 80.333 140.499 181l57 -7l-152 -560l-56 10c2.66699 19.333 4.5 36.166 5.5 50.499s1.5 26.166 1.5 35.499
c0 72.667 -20 122.334 -60 149.001s-118 40 -234 40l-135 -500c-3.33301 -12 -5.83301 -23.667 -7.5 -35s-2.5 -20.333 -2.5 -27c0 -18.667 7.33301 -34 22 -46s45.334 -18 92.001 -18c124 0 229.667 17.333 317 52c136 53.333 242 149.666 318 288.999l50 -9l-121 -398
h-1135v52zM536.002 1472l33 142h666l-33 -142h-666z" />
    <glyph glyph-name="emacron" unicode="&#x113;" horiz-adv-x="909" 
d="M655 854.5c-8.66699 16.333 -24.333 24.5 -47 24.5c-48 0 -95.167 -38.667 -141.5 -116s-87.5 -185.666 -123.5 -324.999c118 26.667 201.667 78 251 154s74 143.667 74 203c0 23.333 -4.33301 43.166 -13 59.499zM230.001 730
c122.667 144 257.331 215.999 403.998 215.999c63.333 0 115.833 -15.667 157.5 -47s62.5 -75.666 62.5 -132.999c0 -86.667 -48.667 -168.667 -146 -246s-223.666 -126.666 -378.999 -147.999c-4 -20.667 -7 -40 -9 -58s-3 -32.667 -3 -44c0 -42 6 -75 18 -99
c21.333 -44.667 62.333 -67 123 -67c49.333 0 98.333 25.333 147 76c26 26.667 54 63.667 84 111l60 -35c-51.333 -86 -99.666 -149 -144.999 -189c-72 -64 -156.333 -96 -253 -96c-72 0 -139.833 26.167 -203.5 78.5s-95.5 132.166 -95.5 239.499
c0 154.667 59.333 301.667 178 441zM271.998 1053l33 142h666l-33 -142h-666z" />
    <glyph glyph-name="Ebreve" unicode="&#x114;" horiz-adv-x="1366" 
d="M-57 52c48.667 6 84.6689 18.0029 108.002 36.0029s42.666 55 57.999 111l251 919c6 23.333 11 44.5 15 63.5s6 35.167 6 48.5c0 34.667 -9.16699 56.5 -27.5 65.5s-58.833 16.167 -121.5 21.5v53h1104l-87 -389l-55 9c-1.33301 99.333 -17.333 169.666 -48 210.999
c-52 70 -157.333 105 -316 105c-54 0 -88.833 -6.5 -104.5 -19.5s-28.5 -37.5 -38.5 -73.5l-123 -455c143.333 3.33301 236.166 15 278.499 35s89.166 80.333 140.499 181l57 -7l-152 -560l-56 10c2.66699 19.333 4.5 36.166 5.5 50.499s1.5 26.166 1.5 35.499
c0 72.667 -20 122.334 -60 149.001s-118 40 -234 40l-135 -500c-3.33301 -12 -5.83301 -23.667 -7.5 -35s-2.5 -20.333 -2.5 -27c0 -18.667 7.33301 -34 22 -46s45.334 -18 92.001 -18c124 0 229.667 17.333 317 52c136 53.333 242 149.666 318 288.999l50 -9l-121 -398
h-1135v52zM667.002 1840c3.33301 -54.667 20.5 -99.167 51.5 -133.5s84.167 -51.5 159.5 -51.5c58 0 110 13 156 39s83.333 74.667 112 146h80c-8 -74 -40.5 -148 -97.5 -222s-145.5 -111 -265.5 -111c-122 0 -204 39.667 -246 119c-24 44.667 -36.667 116 -38 214h88z
M579.002 1396z" />
    <glyph glyph-name="ebreve" unicode="&#x115;" horiz-adv-x="909" 
d="M655 854.5c-8.66699 16.333 -24.333 24.5 -47 24.5c-48 0 -95.167 -38.667 -141.5 -116s-87.5 -185.666 -123.5 -324.999c118 26.667 201.667 78 251 154s74 143.667 74 203c0 23.333 -4.33301 43.166 -13 59.499zM230.001 730
c122.667 144 257.331 215.999 403.998 215.999c63.333 0 115.833 -15.667 157.5 -47s62.5 -75.666 62.5 -132.999c0 -86.667 -48.667 -168.667 -146 -246s-223.666 -126.666 -378.999 -147.999c-4 -20.667 -7 -40 -9 -58s-3 -32.667 -3 -44c0 -42 6 -75 18 -99
c21.333 -44.667 62.333 -67 123 -67c49.333 0 98.333 25.333 147 76c26 26.667 54 63.667 84 111l60 -35c-51.333 -86 -99.666 -149 -144.999 -189c-72 -64 -156.333 -96 -253 -96c-72 0 -139.833 26.167 -203.5 78.5s-95.5 132.166 -95.5 239.499
c0 154.667 59.333 301.667 178 441zM432.998 1394c3.33301 -54.667 20.5 -99.167 51.5 -133.5s84.167 -51.5 159.5 -51.5c58 0 110 13 156 39s83.333 74.667 112 146h80c-8 -74 -40.5 -148 -97.5 -222s-145.5 -111 -265.5 -111c-122 0 -204 39.667 -246 119
c-24 44.667 -36.667 116 -38 214h88zM344.998 949.999z" />
    <glyph glyph-name="Edotaccent" unicode="&#x116;" horiz-adv-x="1366" 
d="M-57 52c48.667 6 84.6689 18.0029 108.002 36.0029s42.666 55 57.999 111l251 919c6 23.333 11 44.5 15 63.5s6 35.167 6 48.5c0 34.667 -9.16699 56.5 -27.5 65.5s-58.833 16.167 -121.5 21.5v53h1104l-87 -389l-55 9c-1.33301 99.333 -17.333 169.666 -48 210.999
c-52 70 -157.333 105 -316 105c-54 0 -88.833 -6.5 -104.5 -19.5s-28.5 -37.5 -38.5 -73.5l-123 -455c143.333 3.33301 236.166 15 278.499 35s89.166 80.333 140.499 181l57 -7l-152 -560l-56 10c2.66699 19.333 4.5 36.166 5.5 50.499s1.5 26.166 1.5 35.499
c0 72.667 -20 122.334 -60 149.001s-118 40 -234 40l-135 -500c-3.33301 -12 -5.83301 -23.667 -7.5 -35s-2.5 -20.333 -2.5 -27c0 -18.667 7.33301 -34 22 -46s45.334 -18 92.001 -18c124 0 229.667 17.333 317 52c136 53.333 242 149.666 318 288.999l50 -9l-121 -398
h-1135v52zM805.002 1546c-26.667 26.667 -39.999 59 -39.999 97s13.333 70.5 40 97.5s59 40.5 97 40.5s70.5 -13.5 97.5 -40.5s40.5 -59.5 40.5 -97.5c0 -37.333 -13.333 -69.5 -40 -96.5s-59.334 -40.5 -98.001 -40.5c-38 0 -70.333 13.333 -97 40zM765.003 1380z" />
    <glyph glyph-name="edotaccent" unicode="&#x117;" horiz-adv-x="909" 
d="M655 854.5c-8.66699 16.333 -24.333 24.5 -47 24.5c-48 0 -95.167 -38.667 -141.5 -116s-87.5 -185.666 -123.5 -324.999c118 26.667 201.667 78 251 154s74 143.667 74 203c0 23.333 -4.33301 43.166 -13 59.499zM230.001 730
c122.667 144 257.331 215.999 403.998 215.999c63.333 0 115.833 -15.667 157.5 -47s62.5 -75.666 62.5 -132.999c0 -86.667 -48.667 -168.667 -146 -246s-223.666 -126.666 -378.999 -147.999c-4 -20.667 -7 -40 -9 -58s-3 -32.667 -3 -44c0 -42 6 -75 18 -99
c21.333 -44.667 62.333 -67 123 -67c49.333 0 98.333 25.333 147 76c26 26.667 54 63.667 84 111l60 -35c-51.333 -86 -99.666 -149 -144.999 -189c-72 -64 -156.333 -96 -253 -96c-72 0 -139.833 26.167 -203.5 78.5s-95.5 132.166 -95.5 239.499
c0 154.667 59.333 301.667 178 441zM568.998 1154c-26.667 26.667 -39.999 59 -39.999 97s13.333 70.5 40 97.5s59 40.5 97 40.5s70.5 -13.5 97.5 -40.5s40.5 -59.5 40.5 -97.5c0 -37.333 -13.333 -69.5 -40 -96.5s-59.334 -40.5 -98.001 -40.5c-38 0 -70.333 13.333 -97 40
zM528.999 987.999z" />
    <glyph glyph-name="Eogonek" unicode="&#x118;" horiz-adv-x="1366" 
d="M-57 52c48.667 6 84.6689 18.0029 108.002 36.0029s42.666 55 57.999 111l251 919c6 23.333 11 44.5 15 63.5s6 35.167 6 48.5c0 34.667 -9.16699 56.5 -27.5 65.5s-58.833 16.167 -121.5 21.5v53h1104l-87 -389l-55 9c-1.33301 99.333 -17.333 169.666 -48 210.999
c-52 70 -157.333 105 -316 105c-54 0 -88.833 -6.5 -104.5 -19.5s-28.5 -37.5 -38.5 -73.5l-123 -455c143.333 3.33301 236.166 15 278.499 35s89.166 80.333 140.499 181l57 -7l-152 -560l-56 10c2.66699 19.333 4.5 36.166 5.5 50.499s1.5 26.166 1.5 35.499
c0 72.667 -20 122.334 -60 149.001s-118 40 -234 40l-135 -500c-3.33301 -12 -5.83301 -23.667 -7.5 -35s-2.5 -20.333 -2.5 -27c0 -18.667 7.33301 -34 22 -46s45.334 -18 92.001 -18c124 0 229.667 17.333 317 52c136 53.333 242 149.666 318 288.999l50 -9l-121 -398
h-1135v52zM666.002 65.0029l0.00195312 -22l-26 -14c-62 -33.333 -111.667 -66.333 -149 -99c-57.333 -49.333 -86 -96.333 -86 -141c0 -22.667 8.16699 -43.667 24.5 -63s41.166 -29 74.499 -29c19.333 0 45.666 7 78.999 21s71.333 34.667 114 62l40 -66
c-70.667 -51.333 -140.667 -87.333 -210 -108c-38.667 -12 -72.667 -18 -102 -18c-62 0 -111.333 17.833 -148 53.5s-55 75.5 -55 119.5c0 70 42 130.5 126 181.5s180.333 89.5 289 115.5z" />
    <glyph glyph-name="eogonek" unicode="&#x119;" horiz-adv-x="909" 
d="M655 854.5c-8.66699 16.333 -24.333 24.5 -47 24.5c-48 0 -95.167 -38.667 -141.5 -116s-87.5 -185.666 -123.5 -324.999c118 26.667 201.667 78 251 154s74 143.667 74 203c0 23.333 -4.33301 43.166 -13 59.499zM230.001 730
c122.667 144 257.331 215.999 403.998 215.999c63.333 0 115.833 -15.667 157.5 -47s62.5 -75.666 62.5 -132.999c0 -86.667 -48.667 -168.667 -146 -246s-223.666 -126.666 -378.999 -147.999c-4 -20.667 -7 -40 -9 -58s-3 -32.667 -3 -44c0 -42 6 -75 18 -99
c21.333 -44.667 62.333 -67 123 -67c49.333 0 98.333 25.333 147 76c26 26.667 54 63.667 84 111l60 -35c-51.333 -86 -99.666 -149 -144.999 -189c-72 -64 -156.333 -96 -253 -96c-72 0 -139.833 26.167 -203.5 78.5s-95.5 132.166 -95.5 239.499
c0 154.667 59.333 301.667 178 441zM545.998 52.999l0.00195312 -22l-26 -14c-62 -33.333 -111.667 -66.333 -149 -99c-57.333 -49.333 -86 -96.333 -86 -141c0 -22.667 8.16699 -43.667 24.5 -63s41.166 -29 74.499 -29c19.333 0 45.666 7 78.999 21s71.333 34.667 114 62
l40 -66c-70.667 -51.333 -140.667 -87.333 -210 -108c-38.667 -12 -72.667 -18 -102 -18c-62 0 -111.333 17.833 -148 53.5s-55 75.5 -55 119.5c0 70 42 130.5 126 181.5s180.333 89.5 289 115.5z" />
    <glyph glyph-name="Ecaron" unicode="&#x11a;" horiz-adv-x="1366" 
d="M-57 52c48.667 6 84.6689 18.0029 108.002 36.0029s42.666 55 57.999 111l251 919c6 23.333 11 44.5 15 63.5s6 35.167 6 48.5c0 34.667 -9.16699 56.5 -27.5 65.5s-58.833 16.167 -121.5 21.5v53h1104l-87 -389l-55 9c-1.33301 99.333 -17.333 169.666 -48 210.999
c-52 70 -157.333 105 -316 105c-54 0 -88.833 -6.5 -104.5 -19.5s-28.5 -37.5 -38.5 -73.5l-123 -455c143.333 3.33301 236.166 15 278.499 35s89.166 80.333 140.499 181l57 -7l-152 -560l-56 10c2.66699 19.333 4.5 36.166 5.5 50.499s1.5 26.166 1.5 35.499
c0 72.667 -20 122.334 -60 149.001s-118 40 -234 40l-135 -500c-3.33301 -12 -5.83301 -23.667 -7.5 -35s-2.5 -20.333 -2.5 -27c0 -18.667 7.33301 -34 22 -46s45.334 -18 92.001 -18c124 0 229.667 17.333 317 52c136 53.333 242 149.666 318 288.999l50 -9l-121 -398
h-1135v52zM763.002 1858l187 -199l275 199h116l-332 -355h-168l-180 355h102zM950.002 1391z" />
    <glyph glyph-name="ecaron" unicode="&#x11b;" horiz-adv-x="909" 
d="M655 854.5c-8.66699 16.333 -24.333 24.5 -47 24.5c-48 0 -95.167 -38.667 -141.5 -116s-87.5 -185.666 -123.5 -324.999c118 26.667 201.667 78 251 154s74 143.667 74 203c0 23.333 -4.33301 43.166 -13 59.499zM230.001 730
c122.667 144 257.331 215.999 403.998 215.999c63.333 0 115.833 -15.667 157.5 -47s62.5 -75.666 62.5 -132.999c0 -86.667 -48.667 -168.667 -146 -246s-223.666 -126.666 -378.999 -147.999c-4 -20.667 -7 -40 -9 -58s-3 -32.667 -3 -44c0 -42 6 -75 18 -99
c21.333 -44.667 62.333 -67 123 -67c49.333 0 98.333 25.333 147 76c26 26.667 54 63.667 84 111l60 -35c-51.333 -86 -99.666 -149 -144.999 -189c-72 -64 -156.333 -96 -253 -96c-72 0 -139.833 26.167 -203.5 78.5s-95.5 132.166 -95.5 239.499
c0 154.667 59.333 301.667 178 441zM459.998 1400l187 -199l275 199h116l-332 -355h-168l-180 355h102zM646.998 932.999z" />
    <glyph glyph-name="Gcircumflex" unicode="&#x11c;" horiz-adv-x="1479" 
d="M1127 1372c70 -20.667 110.336 -31 121.003 -31c21.333 0 37.833 5.5 49.5 16.5s23.167 26.167 34.5 45.5h61l-104 -453l-59 7c1.33301 84 -10 154.333 -34 211c-44.667 106 -129.334 159 -254.001 159c-168 0 -310.667 -106 -428 -318
c-101.333 -185.333 -152 -375.666 -152 -570.999c0 -166.667 46.667 -282.667 140 -348c51.333 -36 113.333 -54 186 -54c65.333 0 116.166 9.83301 152.499 29.5s61.5 50.5 75.5 92.5c0 -6.66699 15.5 46.5 46.5 159.5s46.5 185.5 46.5 217.5
c0 34 -9.16699 55.5 -27.5 64.5s-59.5 16.833 -123.5 23.5v52h587v-52c-56.667 -6 -92.667 -16.667 -108 -32s-33 -60.666 -53 -135.999l-99 -373l-57 -26c-46 -20.667 -112.333 -41.834 -199 -63.501s-176.334 -32.5 -269.001 -32.5
c-171.333 0 -314.666 46.667 -429.999 140c-125.333 101.333 -188 238.666 -188 411.999c0 223.333 75.333 423 226 599c167.333 194.667 379.666 292 636.999 292c78 0 152 -10.333 222 -31zM1241 1504l-180 194l-271 -194h-116l327 355h166l178 -355h-104zM1061 1392z" />
    <glyph glyph-name="gcircumflex" unicode="&#x11d;" 
d="M601.5 507.5c41.667 87 62.499 170.165 62.499 249.498c0 36 -7.33301 65.667 -22 89s-38.667 35 -72 35c-63.333 0 -114.166 -46.667 -152.499 -140s-57.5 -176.666 -57.5 -249.999c0 -37.333 8.66699 -65.666 26 -84.999s39.333 -29 66 -29
c58 0 107.833 43.5 149.5 130.5zM567.499 -129.002c-19.667 18.667 -46.5 34.999 -80.5 48.999c-23.333 9.33301 -60.833 22.5 -112.5 39.5s-82.5 25.5 -92.5 25.5c0 10 -26.667 -4.33301 -80 -43s-80 -83.667 -80 -135c0 -32 12.333 -61.333 37 -88
c40.667 -45.333 108 -68 202 -68c74 0 131.833 13.333 173.5 40s62.5 61 62.5 103c0 32.667 -9.83301 58.334 -29.5 77.001zM135.999 52.9971c-30.667 25.333 -45.999 59 -45.999 101c0 34 14 64.833 42 92.5s79.333 61.5 154 101.5c-55.333 20 -96.333 50.333 -123 91
s-40 89.667 -40 147c0 86 40.333 167.333 121 244s187 115 319 115c68.667 0 128.834 -11 180.501 -33s71.5 -33 59.5 -33h228v-116h-138c4 -17.333 7 -32.333 9 -45s3 -27 3 -43c0 -98.667 -38.833 -183.167 -116.5 -253.5s-186.834 -105.5 -327.501 -105.5
c-30.667 0 -67.334 3.66699 -110.001 11c-10.667 0 -21.834 -8.33301 -33.501 -25s-17.5 -31 -17.5 -43c0 -22 16.333 -41.667 49 -59c15.333 -8.66699 34 -16.334 56 -23.001l109 -31c95.333 -27.333 163 -54 203 -80c68.667 -44 103 -104.667 103 -182
c0 -86.667 -45.667 -158.667 -137 -216s-204.666 -86 -339.999 -86c-88.667 0 -165.667 10.667 -231 32c-112.667 36 -169 99.333 -169 190c0 58.667 30 106.334 90 143.001c33.333 20 92.333 42.333 177 67c-33.333 12 -58 25 -74 39zM810 1044l-180 194l-271 -194h-116
l327 355h166l178 -355h-104zM630 931.997z" />
    <glyph glyph-name="Gbreve" unicode="&#x11e;" horiz-adv-x="1479" 
d="M1127 1372c70 -20.667 110.336 -31 121.003 -31c21.333 0 37.833 5.5 49.5 16.5s23.167 26.167 34.5 45.5h61l-104 -453l-59 7c1.33301 84 -10 154.333 -34 211c-44.667 106 -129.334 159 -254.001 159c-168 0 -310.667 -106 -428 -318
c-101.333 -185.333 -152 -375.666 -152 -570.999c0 -166.667 46.667 -282.667 140 -348c51.333 -36 113.333 -54 186 -54c65.333 0 116.166 9.83301 152.499 29.5s61.5 50.5 75.5 92.5c0 -6.66699 15.5 46.5 46.5 159.5s46.5 185.5 46.5 217.5
c0 34 -9.16699 55.5 -27.5 64.5s-59.5 16.833 -123.5 23.5v52h587v-52c-56.667 -6 -92.667 -16.667 -108 -32s-33 -60.666 -53 -135.999l-99 -373l-57 -26c-46 -20.667 -112.333 -41.834 -199 -63.501s-176.334 -32.5 -269.001 -32.5
c-171.333 0 -314.666 46.667 -429.999 140c-125.333 101.333 -188 238.666 -188 411.999c0 223.333 75.333 423 226 599c167.333 194.667 379.666 292 636.999 292c78 0 152 -10.333 222 -31zM700.003 1820c3.33301 -54.667 20.5 -99.167 51.5 -133.5
s84.167 -51.5 159.5 -51.5c58 0 110 13 156 39s83.333 74.667 112 146h80c-8 -74 -40.5 -148 -97.5 -222s-145.5 -111 -265.5 -111c-122 0 -204 39.667 -246 119c-24 44.667 -36.667 116 -38 214h88zM612.003 1376z" />
    <glyph glyph-name="gbreve" unicode="&#x11f;" 
d="M601.5 507.5c41.667 87 62.499 170.165 62.499 249.498c0 36 -7.33301 65.667 -22 89s-38.667 35 -72 35c-63.333 0 -114.166 -46.667 -152.499 -140s-57.5 -176.666 -57.5 -249.999c0 -37.333 8.66699 -65.666 26 -84.999s39.333 -29 66 -29
c58 0 107.833 43.5 149.5 130.5zM567.499 -129.002c-19.667 18.667 -46.5 34.999 -80.5 48.999c-23.333 9.33301 -60.833 22.5 -112.5 39.5s-82.5 25.5 -92.5 25.5c0 10 -26.667 -4.33301 -80 -43s-80 -83.667 -80 -135c0 -32 12.333 -61.333 37 -88
c40.667 -45.333 108 -68 202 -68c74 0 131.833 13.333 173.5 40s62.5 61 62.5 103c0 32.667 -9.83301 58.334 -29.5 77.001zM135.999 52.9971c-30.667 25.333 -45.999 59 -45.999 101c0 34 14 64.833 42 92.5s79.333 61.5 154 101.5c-55.333 20 -96.333 50.333 -123 91
s-40 89.667 -40 147c0 86 40.333 167.333 121 244s187 115 319 115c68.667 0 128.834 -11 180.501 -33s71.5 -33 59.5 -33h228v-116h-138c4 -17.333 7 -32.333 9 -45s3 -27 3 -43c0 -98.667 -38.833 -183.167 -116.5 -253.5s-186.834 -105.5 -327.501 -105.5
c-30.667 0 -67.334 3.66699 -110.001 11c-10.667 0 -21.834 -8.33301 -33.501 -25s-17.5 -31 -17.5 -43c0 -22 16.333 -41.667 49 -59c15.333 -8.66699 34 -16.334 56 -23.001l109 -31c95.333 -27.333 163 -54 203 -80c68.667 -44 103 -104.667 103 -182
c0 -86.667 -45.667 -158.667 -137 -216s-204.666 -86 -339.999 -86c-88.667 0 -165.667 10.667 -231 32c-112.667 36 -169 99.333 -169 190c0 58.667 30 106.334 90 143.001c33.333 20 92.333 42.333 177 67c-33.333 12 -58 25 -74 39zM466 1389
c3.33301 -54.667 20.5 -99.167 51.5 -133.5s84.167 -51.5 159.5 -51.5c58 0 110 13 156 39s83.333 74.667 112 146h80c-8 -74 -40.5 -148 -97.5 -222s-145.5 -111 -265.5 -111c-122 0 -204 39.667 -246 119c-24 44.667 -36.667 116 -38 214h88zM378 944.997z" />
    <glyph glyph-name="Gdotaccent" unicode="&#x120;" horiz-adv-x="1479" 
d="M1127 1372c70 -20.667 110.336 -31 121.003 -31c21.333 0 37.833 5.5 49.5 16.5s23.167 26.167 34.5 45.5h61l-104 -453l-59 7c1.33301 84 -10 154.333 -34 211c-44.667 106 -129.334 159 -254.001 159c-168 0 -310.667 -106 -428 -318
c-101.333 -185.333 -152 -375.666 -152 -570.999c0 -166.667 46.667 -282.667 140 -348c51.333 -36 113.333 -54 186 -54c65.333 0 116.166 9.83301 152.499 29.5s61.5 50.5 75.5 92.5c0 -6.66699 15.5 46.5 46.5 159.5s46.5 185.5 46.5 217.5
c0 34 -9.16699 55.5 -27.5 64.5s-59.5 16.833 -123.5 23.5v52h587v-52c-56.667 -6 -92.667 -16.667 -108 -32s-33 -60.666 -53 -135.999l-99 -373l-57 -26c-46 -20.667 -112.333 -41.834 -199 -63.501s-176.334 -32.5 -269.001 -32.5
c-171.333 0 -314.666 46.667 -429.999 140c-125.333 101.333 -188 238.666 -188 411.999c0 223.333 75.333 423 226 599c167.333 194.667 379.666 292 636.999 292c78 0 152 -10.333 222 -31zM885.003 1551c-26.667 26.667 -39.999 59 -39.999 97s13.333 70.5 40 97.5
s59 40.5 97 40.5s70.5 -13.5 97.5 -40.5s40.5 -59.5 40.5 -97.5c0 -37.333 -13.333 -69.5 -40 -96.5s-59.334 -40.5 -98.001 -40.5c-38 0 -70.333 13.333 -97 40zM845.004 1385z" />
    <glyph glyph-name="gdotaccent" unicode="&#x121;" 
d="M601.5 507.5c41.667 87 62.499 170.165 62.499 249.498c0 36 -7.33301 65.667 -22 89s-38.667 35 -72 35c-63.333 0 -114.166 -46.667 -152.499 -140s-57.5 -176.666 -57.5 -249.999c0 -37.333 8.66699 -65.666 26 -84.999s39.333 -29 66 -29
c58 0 107.833 43.5 149.5 130.5zM567.499 -129.002c-19.667 18.667 -46.5 34.999 -80.5 48.999c-23.333 9.33301 -60.833 22.5 -112.5 39.5s-82.5 25.5 -92.5 25.5c0 10 -26.667 -4.33301 -80 -43s-80 -83.667 -80 -135c0 -32 12.333 -61.333 37 -88
c40.667 -45.333 108 -68 202 -68c74 0 131.833 13.333 173.5 40s62.5 61 62.5 103c0 32.667 -9.83301 58.334 -29.5 77.001zM135.999 52.9971c-30.667 25.333 -45.999 59 -45.999 101c0 34 14 64.833 42 92.5s79.333 61.5 154 101.5c-55.333 20 -96.333 50.333 -123 91
s-40 89.667 -40 147c0 86 40.333 167.333 121 244s187 115 319 115c68.667 0 128.834 -11 180.501 -33s71.5 -33 59.5 -33h228v-116h-138c4 -17.333 7 -32.333 9 -45s3 -27 3 -43c0 -98.667 -38.833 -183.167 -116.5 -253.5s-186.834 -105.5 -327.501 -105.5
c-30.667 0 -67.334 3.66699 -110.001 11c-10.667 0 -21.834 -8.33301 -33.501 -25s-17.5 -31 -17.5 -43c0 -22 16.333 -41.667 49 -59c15.333 -8.66699 34 -16.334 56 -23.001l109 -31c95.333 -27.333 163 -54 203 -80c68.667 -44 103 -104.667 103 -182
c0 -86.667 -45.667 -158.667 -137 -216s-204.666 -86 -339.999 -86c-88.667 0 -165.667 10.667 -231 32c-112.667 36 -169 99.333 -169 190c0 58.667 30 106.334 90 143.001c33.333 20 92.333 42.333 177 67c-33.333 12 -58 25 -74 39zM500 1092
c-26.667 26.667 -39.999 59 -39.999 97s13.333 70.5 40 97.5s59 40.5 97 40.5s70.5 -13.5 97.5 -40.5s40.5 -59.5 40.5 -97.5c0 -37.333 -13.333 -69.5 -40 -96.5s-59.334 -40.5 -98.001 -40.5c-38 0 -70.333 13.333 -97 40zM460.001 925.997z" />
    <glyph glyph-name="Gcedilla" unicode="&#x122;" horiz-adv-x="1479" 
d="M1127 1372c70 -20.667 110.336 -31 121.003 -31c21.333 0 37.833 5.5 49.5 16.5s23.167 26.167 34.5 45.5h61l-104 -453l-59 7c1.33301 84 -10 154.333 -34 211c-44.667 106 -129.334 159 -254.001 159c-168 0 -310.667 -106 -428 -318
c-101.333 -185.333 -152 -375.666 -152 -570.999c0 -166.667 46.667 -282.667 140 -348c51.333 -36 113.333 -54 186 -54c65.333 0 116.166 9.83301 152.499 29.5s61.5 50.5 75.5 92.5c0 -6.66699 15.5 46.5 46.5 159.5s46.5 185.5 46.5 217.5
c0 34 -9.16699 55.5 -27.5 64.5s-59.5 16.833 -123.5 23.5v52h587v-52c-56.667 -6 -92.667 -16.667 -108 -32s-33 -60.666 -53 -135.999l-99 -373l-57 -26c-46 -20.667 -112.333 -41.834 -199 -63.501s-176.334 -32.5 -269.001 -32.5
c-171.333 0 -314.666 46.667 -429.999 140c-125.333 101.333 -188 238.666 -188 411.999c0 223.333 75.333 423 226 599c167.333 194.667 379.666 292 636.999 292c78 0 152 -10.333 222 -31zM355.003 -734c74.667 37.333 132.333 70.333 173 99c70.667 50 111 98 121 144
c4.66699 22 -13.5 49.833 -54.5 83.5s-56.167 75.834 -45.5 126.501c9.33301 43.333 30.5 78.666 63.5 105.999s70.5 41 112.5 41c52 0 90.333 -19 115 -57s31 -85.333 19 -142c-24 -114 -108 -221.333 -252 -322c-93.333 -65.333 -172 -108 -236 -128z" />
    </font>
</defs>
</svg>
